M48
;DRILL file {KiCad 5.0.2-bee76a0~70~ubuntu18.04.1} date 2019年06月01日 14時58分23秒
;FORMAT={-:-/ absolute / metric / decimal}
FMAT,2
METRIC,TZ
T1C0.400
T2C1.000
%
G90
G05
T1
X139.283Y-74.9
X141.792Y-68.751
X141.989Y-71.055
X143.536Y-65.777
X143.654Y-83.445
X143.726Y-69.862
X143.809Y-81.993
X143.838Y-80.08
X144.602Y-54.826
X144.704Y-95.529
T2
X132.105Y-57.22
X132.105Y-59.76
X132.105Y-62.3
X132.105Y-64.84
X132.105Y-67.38
X132.105Y-69.92
X132.105Y-72.46
X132.105Y-75.
X132.105Y-77.54
X132.105Y-80.08
X132.105Y-82.62
X132.105Y-85.16
X132.105Y-87.7
X132.105Y-90.24
X132.105Y-92.78
X134.645Y-57.22
X134.645Y-59.76
X134.645Y-62.3
X134.645Y-64.84
X134.645Y-67.38
X134.645Y-69.92
X134.645Y-72.46
X134.645Y-75.
X134.645Y-77.54
X134.645Y-80.08
X134.645Y-82.62
X134.645Y-85.16
X134.645Y-87.7
X134.645Y-90.24
X134.645Y-92.78
T0
M30
