G04 #@! TF.GenerationSoftware,KiCad,Pcbnew,5.1.2-f72e74a~84~ubuntu18.04.1*
G04 #@! TF.CreationDate,2019-07-12T15:09:15+09:00*
G04 #@! TF.ProjectId,top_pcb,746f705f-7063-4622-9e6b-696361645f70,rev?*
G04 #@! TF.SameCoordinates,Original*
G04 #@! TF.FileFunction,Profile,NP*
%FSLAX46Y46*%
G04 Gerber Fmt 4.6, Leading zero omitted, Abs format (unit mm)*
G04 Created by KiCad (PCBNEW 5.1.2-f72e74a~84~ubuntu18.04.1) date 2019-07-12 15:09:15*
%MOMM*%
%LPD*%
G04 APERTURE LIST*
%ADD10C,0.150000*%
%ADD11C,0.200000*%
G04 APERTURE END LIST*
D10*
X108000000Y-50000000D02*
X142000000Y-50000000D01*
X112000000Y-98000000D02*
G75*
G02X110000000Y-96000000I0J2000000D01*
G01*
X104000000Y-94000000D02*
G75*
G02X102000000Y-92000000I0J2000000D01*
G01*
X102000000Y-58000000D02*
G75*
G02X104000000Y-56000000I2000000J0D01*
G01*
X110000000Y-54000000D02*
G75*
G02X112000000Y-52000000I2000000J0D01*
G01*
X110000000Y-54000000D02*
G75*
G02X108000000Y-56000000I-2000000J0D01*
G01*
X108000000Y-94000000D02*
G75*
G02X110000000Y-96000000I0J-2000000D01*
G01*
X135000000Y-96000000D02*
G75*
G02X133000000Y-98000000I-2000000J0D01*
G01*
X133000000Y-52000000D02*
G75*
G02X135000000Y-54000000I0J-2000000D01*
G01*
X135000000Y-96000000D02*
X135000000Y-54000000D01*
X112000000Y-98000000D02*
X133000000Y-98000000D01*
X104000000Y-94000000D02*
X108000000Y-94000000D01*
X102000000Y-58000000D02*
X102000000Y-92000000D01*
X108000000Y-56000000D02*
X104000000Y-56000000D01*
X133000000Y-52000000D02*
X112000000Y-52000000D01*
D11*
X150000000Y-55000000D02*
X150000000Y-95000000D01*
D10*
X100000000Y-95000000D02*
X100000000Y-55000000D01*
X142000000Y-100000000D02*
X108000000Y-100000000D01*
X99400000Y-95000000D02*
X100000000Y-95000000D01*
X99400000Y-97200000D02*
X99400000Y-95000000D01*
X102800000Y-100600000D02*
G75*
G02X99400000Y-97200000I0J3400000D01*
G01*
X108000000Y-100600000D02*
X102800000Y-100600000D01*
X108000000Y-100000000D02*
X108000000Y-100600000D01*
X150600000Y-55000000D02*
X150000000Y-55000000D01*
X150600000Y-52800000D02*
X150600000Y-55000000D01*
X147200000Y-49400000D02*
G75*
G02X150600000Y-52800000I0J-3400000D01*
G01*
X142000000Y-49400000D02*
X147200000Y-49400000D01*
X142000000Y-50000000D02*
X142000000Y-49400000D01*
X99400000Y-55000000D02*
X100000000Y-55000000D01*
X99400000Y-52700000D02*
X99400000Y-55000000D01*
X102700000Y-49400000D02*
G75*
G03X99400000Y-52700000I0J-3300000D01*
G01*
X108000000Y-49400000D02*
X102700000Y-49400000D01*
X108000000Y-50000000D02*
X108000000Y-49400000D01*
X150600000Y-95000000D02*
X150000000Y-95000000D01*
X150600000Y-97300000D02*
X150600000Y-95000000D01*
X147300000Y-100600000D02*
G75*
G03X150600000Y-97300000I0J3300000D01*
G01*
X142000000Y-100600000D02*
X147300000Y-100600000D01*
X142000000Y-100000000D02*
X142000000Y-100600000D01*
M02*
