G04 #@! TF.GenerationSoftware,KiCad,Pcbnew,5.1.2-f72e74a~84~ubuntu18.04.1*
G04 #@! TF.CreationDate,2019-06-23T16:21:06+09:00*
G04 #@! TF.ProjectId,top_pcb,746f705f-7063-4622-9e6b-696361645f70,rev?*
G04 #@! TF.SameCoordinates,Original*
G04 #@! TF.FileFunction,Copper,L2,Bot*
G04 #@! TF.FilePolarity,Positive*
%FSLAX46Y46*%
G04 Gerber Fmt 4.6, Leading zero omitted, Abs format (unit mm)*
G04 Created by KiCad (PCBNEW 5.1.2-f72e74a~84~ubuntu18.04.1) date 2019-06-23 16:21:06*
%MOMM*%
%LPD*%
G04 APERTURE LIST*
%ADD10R,2.200000X1.800000*%
%ADD11R,1.300000X0.300000*%
%ADD12R,1.000000X1.000000*%
%ADD13O,1.000000X1.000000*%
%ADD14C,0.800000*%
%ADD15C,0.250000*%
%ADD16C,0.254000*%
G04 APERTURE END LIST*
D10*
X140900000Y-84150000D03*
X140900000Y-65850000D03*
D11*
X137650000Y-67750000D03*
X137650000Y-68250000D03*
X137650000Y-68750000D03*
X137650000Y-69250000D03*
X137650000Y-69750000D03*
X137650000Y-70250000D03*
X137650000Y-70750000D03*
X137650000Y-71250000D03*
X137650000Y-71750000D03*
X137650000Y-72250000D03*
X137650000Y-72750000D03*
X137650000Y-73250000D03*
X137650000Y-73750000D03*
X137650000Y-74250000D03*
X137650000Y-74750000D03*
X137650000Y-75250000D03*
X137650000Y-75750000D03*
X137650000Y-76250000D03*
X137650000Y-76750000D03*
X137650000Y-77250000D03*
X137650000Y-77750000D03*
X137650000Y-78250000D03*
X137650000Y-78750000D03*
X137650000Y-79250000D03*
X137650000Y-79750000D03*
X137650000Y-80250000D03*
X137650000Y-80750000D03*
X137650000Y-81250000D03*
X137650000Y-81750000D03*
X137650000Y-82250000D03*
D12*
X135000000Y-56585000D03*
D13*
X135000000Y-57855000D03*
X135000000Y-59125000D03*
X135000000Y-60395000D03*
X135000000Y-61665000D03*
X135000000Y-62935000D03*
X135000000Y-64205000D03*
X135000000Y-65475000D03*
X135000000Y-66745000D03*
X135000000Y-68015000D03*
X135000000Y-69285000D03*
X135000000Y-70555000D03*
X135000000Y-71825000D03*
X135000000Y-73095000D03*
X135000000Y-74365000D03*
X135000000Y-75635000D03*
X135000000Y-76905000D03*
X135000000Y-78175000D03*
X135000000Y-79445000D03*
X135000000Y-80715000D03*
X135000000Y-81985000D03*
X135000000Y-83255000D03*
X135000000Y-84525000D03*
X135000000Y-85795000D03*
X135000000Y-87065000D03*
X135000000Y-88335000D03*
X135000000Y-89605000D03*
X135000000Y-90875000D03*
X135000000Y-92145000D03*
X135000000Y-93415000D03*
D14*
X137922000Y-62979300D03*
X138823700Y-60401200D03*
X139039600Y-57924700D03*
X143904163Y-55040424D03*
X144416310Y-94721210D03*
X106047125Y-99553165D03*
X106299000Y-50698400D03*
X138923433Y-65834545D03*
X140657300Y-68482800D03*
X144074000Y-67429500D03*
X141587400Y-71335400D03*
X138958500Y-74125000D03*
X139141200Y-76365100D03*
X144237200Y-79541500D03*
X143900600Y-83209500D03*
X140522600Y-86265300D03*
X138150500Y-88191800D03*
X143760500Y-85084700D03*
X143826800Y-81865500D03*
X141657600Y-68749900D03*
X138679700Y-64864700D03*
D15*
X138550000Y-69250000D02*
X137650000Y-69250000D01*
X138625001Y-69325001D02*
X138550000Y-69250000D01*
X138625001Y-70160001D02*
X138625001Y-69325001D01*
X138535002Y-70250000D02*
X138625001Y-70160001D01*
X137650000Y-70250000D02*
X138535002Y-70250000D01*
X138550000Y-68250000D02*
X137650000Y-68250000D01*
X138585000Y-68250000D02*
X138550000Y-68250000D01*
X138625001Y-68290001D02*
X138585000Y-68250000D01*
X138625001Y-69325001D02*
X138625001Y-68290001D01*
X138560001Y-67274999D02*
X137811409Y-67274999D01*
X138625001Y-67339999D02*
X138560001Y-67274999D01*
X138585000Y-68250000D02*
X138625001Y-68209999D01*
X138625001Y-68209999D02*
X138625001Y-67339999D01*
X137748422Y-63152878D02*
X137922000Y-62979300D01*
X137811409Y-67274999D02*
X137748422Y-67212012D01*
X137748422Y-67212012D02*
X137748422Y-63152878D01*
X138823700Y-60401200D02*
X138823700Y-58140600D01*
X138823700Y-58140600D02*
X139039600Y-57924700D01*
X143904163Y-55040424D02*
X143904163Y-57594963D01*
X147294600Y-60985400D02*
X147294600Y-91592400D01*
X143904163Y-57594963D02*
X147294600Y-60985400D01*
X147294600Y-91592400D02*
X144416310Y-94470690D01*
X144416310Y-94470690D02*
X144416310Y-94721210D01*
X143904163Y-55040424D02*
X138123824Y-55040424D01*
X138123824Y-55040424D02*
X134150100Y-51066700D01*
X134150100Y-51066700D02*
X106667300Y-51066700D01*
X106667300Y-51066700D02*
X106299000Y-50698400D01*
X139525021Y-70532801D02*
X139525020Y-66967198D01*
X138923433Y-66365611D02*
X138923433Y-65834545D01*
X139525020Y-66967198D02*
X138923433Y-66365611D01*
X138807822Y-71250000D02*
X139525021Y-70532801D01*
X137650000Y-71250000D02*
X138807822Y-71250000D01*
X144074000Y-67429500D02*
X141710600Y-67429500D01*
X141710600Y-67429500D02*
X140657300Y-68482800D01*
X137650000Y-72250000D02*
X139253500Y-72250000D01*
X139253500Y-72250000D02*
X144074000Y-67429500D01*
X137650000Y-73250000D02*
X139672800Y-73250000D01*
X139672800Y-73250000D02*
X141587400Y-71335400D01*
X138958500Y-74125000D02*
X138833500Y-74250000D01*
X138833500Y-74250000D02*
X137650000Y-74250000D01*
X135000000Y-75635000D02*
X135825300Y-75635000D01*
X135825300Y-75635000D02*
X136210300Y-75250000D01*
X136210300Y-75250000D02*
X137650000Y-75250000D01*
X139141200Y-76365100D02*
X139026100Y-76250000D01*
X139026100Y-76250000D02*
X137650000Y-76250000D01*
X144237200Y-79541500D02*
X141945700Y-77250000D01*
X141945700Y-77250000D02*
X137650000Y-77250000D01*
X137650000Y-78250000D02*
X138941100Y-78250000D01*
X138941100Y-78250000D02*
X143900600Y-83209500D01*
X140522600Y-86265300D02*
X141285700Y-86265300D01*
X141285700Y-86265300D02*
X142376700Y-85174300D01*
X142376700Y-85174300D02*
X142376700Y-83103700D01*
X142376700Y-83103700D02*
X138523000Y-79250000D01*
X138523000Y-79250000D02*
X137650000Y-79250000D01*
X136674700Y-81250000D02*
X136674700Y-80386900D01*
X136674700Y-80386900D02*
X136811600Y-80250000D01*
X136811600Y-80250000D02*
X137650000Y-80250000D01*
X136787300Y-81250000D02*
X136674700Y-81250000D01*
X137650000Y-81250000D02*
X136787300Y-81250000D01*
X136674700Y-82250000D02*
X136674700Y-81250000D01*
X135825300Y-88335000D02*
X136674700Y-87485600D01*
X136674700Y-87485600D02*
X136674700Y-82250000D01*
X135825300Y-88335000D02*
X135825300Y-90049700D01*
X135825300Y-90049700D02*
X135000000Y-90875000D01*
X137650000Y-82250000D02*
X136674700Y-82250000D01*
X135000000Y-88335000D02*
X135825300Y-88335000D01*
X138625300Y-81750000D02*
X138625300Y-86428200D01*
X138625300Y-86428200D02*
X137225400Y-87828100D01*
X137225400Y-87828100D02*
X137225400Y-89919600D01*
X137225400Y-89919600D02*
X135000000Y-92145000D01*
X137650000Y-81750000D02*
X138625300Y-81750000D01*
X137650000Y-80750000D02*
X138625300Y-80750000D01*
X138150500Y-88191800D02*
X139075700Y-87266600D01*
X139075700Y-87266600D02*
X139075700Y-81200400D01*
X139075700Y-81200400D02*
X138625300Y-80750000D01*
X137650000Y-79750000D02*
X136674700Y-79750000D01*
X135000000Y-87065000D02*
X135965000Y-86100000D01*
X135965000Y-86100000D02*
X135965000Y-80459700D01*
X135965000Y-80459700D02*
X136674700Y-79750000D01*
X143760500Y-85084700D02*
X143160500Y-84484700D01*
X143160500Y-84484700D02*
X143160500Y-83250600D01*
X143160500Y-83250600D02*
X138659900Y-78750000D01*
X138659900Y-78750000D02*
X137650000Y-78750000D01*
X143826800Y-81865500D02*
X139711300Y-77750000D01*
X139711300Y-77750000D02*
X137650000Y-77750000D01*
X137650000Y-76750000D02*
X136674700Y-76750000D01*
X135000000Y-79445000D02*
X136674700Y-77770300D01*
X136674700Y-77770300D02*
X136674700Y-76750000D01*
X137650000Y-75750000D02*
X136674700Y-75750000D01*
X135000000Y-76905000D02*
X135825300Y-76905000D01*
X135825300Y-76905000D02*
X135825300Y-76599400D01*
X135825300Y-76599400D02*
X136674700Y-75750000D01*
X135000000Y-74365000D02*
X135825300Y-74365000D01*
X135825300Y-74365000D02*
X136210300Y-74750000D01*
X136210300Y-74750000D02*
X137650000Y-74750000D01*
X137650000Y-73750000D02*
X136674700Y-73750000D01*
X135000000Y-71825000D02*
X136674700Y-73499700D01*
X136674700Y-73499700D02*
X136674700Y-73750000D01*
X141657600Y-68749900D02*
X141657600Y-68864700D01*
X141257601Y-69436631D02*
X141257601Y-69149899D01*
X141257601Y-69149899D02*
X141657600Y-68749900D01*
X138944232Y-71750000D02*
X141257601Y-69436631D01*
X137650000Y-71750000D02*
X138944232Y-71750000D01*
X137656599Y-70725001D02*
X137650000Y-70731600D01*
X138679700Y-64864700D02*
X138198432Y-65345968D01*
X138198432Y-65345968D02*
X138198432Y-66277020D01*
X139075011Y-70346401D02*
X138696411Y-70725001D01*
X139075011Y-67153599D02*
X139075011Y-70346401D01*
X138198432Y-66277020D02*
X139075011Y-67153599D01*
X137650000Y-70731600D02*
X137650000Y-70750000D01*
X138696411Y-70725001D02*
X137656599Y-70725001D01*
X136674700Y-69750000D02*
X136216600Y-69291900D01*
X136216600Y-69291900D02*
X136216600Y-62881600D01*
X136216600Y-62881600D02*
X135000000Y-61665000D01*
X137650000Y-69750000D02*
X136674700Y-69750000D01*
X137650000Y-68750000D02*
X136674700Y-68750000D01*
X135000000Y-59125000D02*
X136674700Y-60799700D01*
X136674700Y-60799700D02*
X136674700Y-68750000D01*
X135000000Y-56585000D02*
X137125100Y-58710100D01*
X137125100Y-58710100D02*
X137125100Y-67225100D01*
X137125100Y-67225100D02*
X137650000Y-67750000D01*
X137650000Y-72750000D02*
X136674700Y-72750000D01*
X135000000Y-69285000D02*
X136674700Y-70959700D01*
X136674700Y-70959700D02*
X136674700Y-72750000D01*
D16*
G36*
X107300273Y-50139184D02*
G01*
X107340872Y-50273020D01*
X107406800Y-50396363D01*
X107495525Y-50504475D01*
X107575128Y-50569803D01*
X107603637Y-50593200D01*
X107726980Y-50659128D01*
X107860816Y-50699727D01*
X108000000Y-50713435D01*
X108034877Y-50710000D01*
X141965123Y-50710000D01*
X142000000Y-50713435D01*
X142034877Y-50710000D01*
X142139184Y-50699727D01*
X142273020Y-50659128D01*
X142396363Y-50593200D01*
X142504475Y-50504475D01*
X142593200Y-50396363D01*
X142659128Y-50273020D01*
X142699727Y-50139184D01*
X142702187Y-50114200D01*
X147208106Y-50114200D01*
X147721830Y-50164571D01*
X148223785Y-50316120D01*
X148686737Y-50562276D01*
X149093069Y-50893673D01*
X149427287Y-51297672D01*
X149676672Y-51758898D01*
X149776414Y-52081114D01*
X149782041Y-54298044D01*
X149717367Y-54317663D01*
X149589680Y-54385913D01*
X149477762Y-54477763D01*
X149385913Y-54589681D01*
X149317663Y-54717368D01*
X149275635Y-54855916D01*
X149265000Y-54963896D01*
X149265001Y-95036105D01*
X149275636Y-95144085D01*
X149317664Y-95282633D01*
X149385914Y-95410320D01*
X149477763Y-95522238D01*
X149589681Y-95614087D01*
X149717368Y-95682337D01*
X149855916Y-95724365D01*
X149887191Y-95727445D01*
X149890000Y-96834164D01*
X149890000Y-97265279D01*
X149837335Y-97802403D01*
X149691427Y-98285673D01*
X149454429Y-98731402D01*
X149135371Y-99122604D01*
X148746407Y-99444384D01*
X148302348Y-99684485D01*
X147820102Y-99833765D01*
X147285071Y-99890000D01*
X142702601Y-99890000D01*
X142699727Y-99860816D01*
X142659128Y-99726980D01*
X142593200Y-99603637D01*
X142504475Y-99495525D01*
X142396363Y-99406800D01*
X142273020Y-99340872D01*
X142139184Y-99300273D01*
X142034877Y-99290000D01*
X142000000Y-99286565D01*
X141965123Y-99290000D01*
X108034877Y-99290000D01*
X108000000Y-99286565D01*
X107965123Y-99290000D01*
X107860816Y-99300273D01*
X107726980Y-99340872D01*
X107603637Y-99406800D01*
X107495525Y-99495525D01*
X107406800Y-99603637D01*
X107340872Y-99726980D01*
X107300273Y-99860816D01*
X107297399Y-99890000D01*
X102834720Y-99890000D01*
X102278169Y-99835429D01*
X101776219Y-99683881D01*
X101313262Y-99437723D01*
X100906932Y-99106329D01*
X100572713Y-98702328D01*
X100323326Y-98241097D01*
X100168278Y-97740215D01*
X100110000Y-97185733D01*
X100110000Y-96779872D01*
X100765000Y-96779872D01*
X100765000Y-97220128D01*
X100850890Y-97651925D01*
X101019369Y-98058669D01*
X101263962Y-98424729D01*
X101575271Y-98736038D01*
X101941331Y-98980631D01*
X102348075Y-99149110D01*
X102779872Y-99235000D01*
X103220128Y-99235000D01*
X103651925Y-99149110D01*
X104058669Y-98980631D01*
X104424729Y-98736038D01*
X104736038Y-98424729D01*
X104980631Y-98058669D01*
X105149110Y-97651925D01*
X105235000Y-97220128D01*
X105235000Y-96829117D01*
X105265000Y-96829117D01*
X105265000Y-97170883D01*
X105331675Y-97506081D01*
X105462463Y-97821831D01*
X105652337Y-98105998D01*
X105894002Y-98347663D01*
X106178169Y-98537537D01*
X106493919Y-98668325D01*
X106829117Y-98735000D01*
X107170883Y-98735000D01*
X107506081Y-98668325D01*
X107821831Y-98537537D01*
X108105998Y-98347663D01*
X108347663Y-98105998D01*
X108537537Y-97821831D01*
X108668325Y-97506081D01*
X108735000Y-97170883D01*
X108735000Y-96829117D01*
X108668325Y-96493919D01*
X108537537Y-96178169D01*
X108347663Y-95894002D01*
X108105998Y-95652337D01*
X107821831Y-95462463D01*
X107506081Y-95331675D01*
X107170883Y-95265000D01*
X106829117Y-95265000D01*
X106493919Y-95331675D01*
X106178169Y-95462463D01*
X105894002Y-95652337D01*
X105652337Y-95894002D01*
X105462463Y-96178169D01*
X105331675Y-96493919D01*
X105265000Y-96829117D01*
X105235000Y-96829117D01*
X105235000Y-96779872D01*
X105149110Y-96348075D01*
X104980631Y-95941331D01*
X104736038Y-95575271D01*
X104424729Y-95263962D01*
X104058669Y-95019369D01*
X103651925Y-94850890D01*
X103220128Y-94765000D01*
X102779872Y-94765000D01*
X102348075Y-94850890D01*
X101941331Y-95019369D01*
X101575271Y-95263962D01*
X101263962Y-95575271D01*
X101019369Y-95941331D01*
X100850890Y-96348075D01*
X100765000Y-96779872D01*
X100110000Y-96779872D01*
X100110000Y-95702601D01*
X100139184Y-95699727D01*
X100273020Y-95659128D01*
X100396363Y-95593200D01*
X100504475Y-95504475D01*
X100593200Y-95396363D01*
X100659128Y-95273020D01*
X100699727Y-95139184D01*
X100713435Y-95000000D01*
X100710000Y-94965123D01*
X100710000Y-57965124D01*
X101290000Y-57965124D01*
X101290001Y-92034877D01*
X101293058Y-92065912D01*
X101292971Y-92078313D01*
X101293939Y-92088179D01*
X101334739Y-92476371D01*
X101347677Y-92539396D01*
X101359737Y-92602618D01*
X101362602Y-92612109D01*
X101478026Y-92984983D01*
X101502960Y-93044299D01*
X101527069Y-93103971D01*
X101531723Y-93112724D01*
X101717374Y-93456079D01*
X101753356Y-93509424D01*
X101788596Y-93563276D01*
X101794861Y-93570958D01*
X102043668Y-93871713D01*
X102089323Y-93917050D01*
X102134353Y-93963033D01*
X102141991Y-93969351D01*
X102444476Y-94216052D01*
X102498041Y-94251640D01*
X102551171Y-94288020D01*
X102559891Y-94292734D01*
X102904533Y-94475984D01*
X102963995Y-94500492D01*
X103023177Y-94525858D01*
X103032647Y-94528789D01*
X103406318Y-94641607D01*
X103469456Y-94654108D01*
X103532388Y-94667485D01*
X103542247Y-94668521D01*
X103929984Y-94706539D01*
X103965123Y-94710000D01*
X107965279Y-94710000D01*
X108249899Y-94737907D01*
X108490285Y-94810484D01*
X108711991Y-94928368D01*
X108906577Y-95087068D01*
X109066635Y-95280545D01*
X109186064Y-95501424D01*
X109260317Y-95741297D01*
X109293143Y-96053623D01*
X109292971Y-96078313D01*
X109293939Y-96088179D01*
X109334739Y-96476371D01*
X109347677Y-96539396D01*
X109359737Y-96602618D01*
X109362602Y-96612109D01*
X109478026Y-96984983D01*
X109502960Y-97044299D01*
X109527069Y-97103971D01*
X109531723Y-97112724D01*
X109717374Y-97456079D01*
X109753356Y-97509424D01*
X109788596Y-97563276D01*
X109794861Y-97570958D01*
X110043668Y-97871713D01*
X110089323Y-97917050D01*
X110134353Y-97963033D01*
X110141991Y-97969351D01*
X110444476Y-98216052D01*
X110498041Y-98251640D01*
X110551171Y-98288020D01*
X110559891Y-98292734D01*
X110904533Y-98475984D01*
X110963995Y-98500492D01*
X111023177Y-98525858D01*
X111032647Y-98528789D01*
X111406318Y-98641607D01*
X111469456Y-98654108D01*
X111532388Y-98667485D01*
X111542247Y-98668521D01*
X111929984Y-98706539D01*
X111965123Y-98710000D01*
X133034877Y-98710000D01*
X133065921Y-98706943D01*
X133078313Y-98707029D01*
X133088179Y-98706061D01*
X133476371Y-98665261D01*
X133539396Y-98652323D01*
X133602618Y-98640263D01*
X133612109Y-98637398D01*
X133984983Y-98521974D01*
X134044299Y-98497040D01*
X134103971Y-98472931D01*
X134112724Y-98468277D01*
X134456079Y-98282626D01*
X134509424Y-98246644D01*
X134563276Y-98211404D01*
X134570958Y-98205139D01*
X134871713Y-97956332D01*
X134917050Y-97910677D01*
X134963033Y-97865647D01*
X134969351Y-97858009D01*
X135216052Y-97555524D01*
X135251640Y-97501959D01*
X135288020Y-97448829D01*
X135292734Y-97440109D01*
X135475984Y-97095467D01*
X135500492Y-97036005D01*
X135525858Y-96976823D01*
X135528789Y-96967353D01*
X135570524Y-96829117D01*
X141265000Y-96829117D01*
X141265000Y-97170883D01*
X141331675Y-97506081D01*
X141462463Y-97821831D01*
X141652337Y-98105998D01*
X141894002Y-98347663D01*
X142178169Y-98537537D01*
X142493919Y-98668325D01*
X142829117Y-98735000D01*
X143170883Y-98735000D01*
X143506081Y-98668325D01*
X143821831Y-98537537D01*
X144105998Y-98347663D01*
X144347663Y-98105998D01*
X144537537Y-97821831D01*
X144668325Y-97506081D01*
X144735000Y-97170883D01*
X144735000Y-96829117D01*
X144725205Y-96779872D01*
X144765000Y-96779872D01*
X144765000Y-97220128D01*
X144850890Y-97651925D01*
X145019369Y-98058669D01*
X145263962Y-98424729D01*
X145575271Y-98736038D01*
X145941331Y-98980631D01*
X146348075Y-99149110D01*
X146779872Y-99235000D01*
X147220128Y-99235000D01*
X147651925Y-99149110D01*
X148058669Y-98980631D01*
X148424729Y-98736038D01*
X148736038Y-98424729D01*
X148980631Y-98058669D01*
X149149110Y-97651925D01*
X149235000Y-97220128D01*
X149235000Y-96779872D01*
X149149110Y-96348075D01*
X148980631Y-95941331D01*
X148736038Y-95575271D01*
X148424729Y-95263962D01*
X148058669Y-95019369D01*
X147651925Y-94850890D01*
X147220128Y-94765000D01*
X146779872Y-94765000D01*
X146348075Y-94850890D01*
X145941331Y-95019369D01*
X145575271Y-95263962D01*
X145263962Y-95575271D01*
X145019369Y-95941331D01*
X144850890Y-96348075D01*
X144765000Y-96779872D01*
X144725205Y-96779872D01*
X144668325Y-96493919D01*
X144537537Y-96178169D01*
X144347663Y-95894002D01*
X144105998Y-95652337D01*
X143821831Y-95462463D01*
X143506081Y-95331675D01*
X143170883Y-95265000D01*
X142829117Y-95265000D01*
X142493919Y-95331675D01*
X142178169Y-95462463D01*
X141894002Y-95652337D01*
X141652337Y-95894002D01*
X141462463Y-96178169D01*
X141331675Y-96493919D01*
X141265000Y-96829117D01*
X135570524Y-96829117D01*
X135641607Y-96593682D01*
X135654108Y-96530544D01*
X135667485Y-96467612D01*
X135668521Y-96457753D01*
X135706611Y-96069284D01*
X135710000Y-96034877D01*
X135710000Y-94300603D01*
X135806449Y-94221449D01*
X135948284Y-94048623D01*
X136053676Y-93851447D01*
X136118577Y-93637499D01*
X136140491Y-93415000D01*
X136118577Y-93192501D01*
X136053676Y-92978553D01*
X135948284Y-92781377D01*
X135947154Y-92780000D01*
X135948284Y-92778623D01*
X136053676Y-92581447D01*
X136118577Y-92367499D01*
X136140491Y-92145000D01*
X136134601Y-92085200D01*
X137736403Y-90483399D01*
X137765401Y-90459601D01*
X137860374Y-90343876D01*
X137930946Y-90211847D01*
X137974403Y-90068586D01*
X137985400Y-89956933D01*
X137985400Y-89956923D01*
X137989076Y-89919600D01*
X137985400Y-89882277D01*
X137985400Y-89214237D01*
X138048561Y-89226800D01*
X138252439Y-89226800D01*
X138452398Y-89187026D01*
X138640756Y-89109005D01*
X138810274Y-88995737D01*
X138942874Y-88863137D01*
X142989000Y-88863137D01*
X142989000Y-89076863D01*
X143030696Y-89286483D01*
X143112485Y-89483940D01*
X143231225Y-89661647D01*
X143382353Y-89812775D01*
X143560060Y-89931515D01*
X143757517Y-90013304D01*
X143967137Y-90055000D01*
X144180863Y-90055000D01*
X144390483Y-90013304D01*
X144587940Y-89931515D01*
X144765647Y-89812775D01*
X144916775Y-89661647D01*
X145035515Y-89483940D01*
X145117304Y-89286483D01*
X145159000Y-89076863D01*
X145159000Y-88863137D01*
X145117304Y-88653517D01*
X145035515Y-88456060D01*
X144916775Y-88278353D01*
X144765647Y-88127225D01*
X144587940Y-88008485D01*
X144390483Y-87926696D01*
X144180863Y-87885000D01*
X143967137Y-87885000D01*
X143757517Y-87926696D01*
X143560060Y-88008485D01*
X143382353Y-88127225D01*
X143231225Y-88278353D01*
X143112485Y-88456060D01*
X143030696Y-88653517D01*
X142989000Y-88863137D01*
X138942874Y-88863137D01*
X138954437Y-88851574D01*
X139067705Y-88682056D01*
X139145726Y-88493698D01*
X139185500Y-88293739D01*
X139185500Y-88231602D01*
X139586709Y-87830394D01*
X139615701Y-87806601D01*
X139639495Y-87777608D01*
X139639499Y-87777604D01*
X139710673Y-87690877D01*
X139710674Y-87690876D01*
X139781246Y-87558847D01*
X139824703Y-87415586D01*
X139835700Y-87303933D01*
X139835700Y-87303924D01*
X139839376Y-87266601D01*
X139835700Y-87229278D01*
X139835700Y-87042111D01*
X139862826Y-87069237D01*
X140032344Y-87182505D01*
X140220702Y-87260526D01*
X140420661Y-87300300D01*
X140624539Y-87300300D01*
X140824498Y-87260526D01*
X141012856Y-87182505D01*
X141182374Y-87069237D01*
X141226311Y-87025300D01*
X141248378Y-87025300D01*
X141285700Y-87028976D01*
X141323022Y-87025300D01*
X141323033Y-87025300D01*
X141434686Y-87014303D01*
X141577947Y-86970846D01*
X141709976Y-86900274D01*
X141825701Y-86805301D01*
X141849504Y-86776298D01*
X142887704Y-85738098D01*
X142916701Y-85714301D01*
X142927561Y-85701069D01*
X142956563Y-85744474D01*
X143100726Y-85888637D01*
X143270244Y-86001905D01*
X143458602Y-86079926D01*
X143658561Y-86119700D01*
X143862439Y-86119700D01*
X144062398Y-86079926D01*
X144250756Y-86001905D01*
X144420274Y-85888637D01*
X144564437Y-85744474D01*
X144677705Y-85574956D01*
X144755726Y-85386598D01*
X144795500Y-85186639D01*
X144795500Y-84982761D01*
X144755726Y-84782802D01*
X144677705Y-84594444D01*
X144564437Y-84424926D01*
X144420274Y-84280763D01*
X144266685Y-84178139D01*
X144390856Y-84126705D01*
X144560374Y-84013437D01*
X144704537Y-83869274D01*
X144817805Y-83699756D01*
X144895826Y-83511398D01*
X144935600Y-83311439D01*
X144935600Y-83107561D01*
X144895826Y-82907602D01*
X144817805Y-82719244D01*
X144704537Y-82549726D01*
X144650503Y-82495692D01*
X144744005Y-82355756D01*
X144822026Y-82167398D01*
X144861800Y-81967439D01*
X144861800Y-81763561D01*
X144822026Y-81563602D01*
X144744005Y-81375244D01*
X144630737Y-81205726D01*
X144486574Y-81061563D01*
X144317056Y-80948295D01*
X144128698Y-80870274D01*
X143928739Y-80830500D01*
X143866602Y-80830500D01*
X141046101Y-78010000D01*
X141630899Y-78010000D01*
X143202200Y-79581303D01*
X143202200Y-79643439D01*
X143241974Y-79843398D01*
X143319995Y-80031756D01*
X143433263Y-80201274D01*
X143577426Y-80345437D01*
X143746944Y-80458705D01*
X143935302Y-80536726D01*
X144135261Y-80576500D01*
X144339139Y-80576500D01*
X144539098Y-80536726D01*
X144727456Y-80458705D01*
X144896974Y-80345437D01*
X145041137Y-80201274D01*
X145154405Y-80031756D01*
X145232426Y-79843398D01*
X145272200Y-79643439D01*
X145272200Y-79439561D01*
X145232426Y-79239602D01*
X145154405Y-79051244D01*
X145041137Y-78881726D01*
X144896974Y-78737563D01*
X144727456Y-78624295D01*
X144539098Y-78546274D01*
X144339139Y-78506500D01*
X144277003Y-78506500D01*
X142509504Y-76739002D01*
X142485701Y-76709999D01*
X142369976Y-76615026D01*
X142237947Y-76544454D01*
X142094686Y-76500997D01*
X141983033Y-76490000D01*
X141983022Y-76490000D01*
X141945700Y-76486324D01*
X141908378Y-76490000D01*
X140171633Y-76490000D01*
X140176200Y-76467039D01*
X140176200Y-76263161D01*
X140136426Y-76063202D01*
X140058405Y-75874844D01*
X139945137Y-75705326D01*
X139800974Y-75561163D01*
X139631456Y-75447895D01*
X139443098Y-75369874D01*
X139243139Y-75330100D01*
X139039261Y-75330100D01*
X138938072Y-75350228D01*
X138938072Y-75160000D01*
X139060439Y-75160000D01*
X139260398Y-75120226D01*
X139448756Y-75042205D01*
X139618274Y-74928937D01*
X139762437Y-74784774D01*
X139875705Y-74615256D01*
X139953726Y-74426898D01*
X139993500Y-74226939D01*
X139993500Y-74023061D01*
X139978627Y-73948287D01*
X140097076Y-73884974D01*
X140212801Y-73790001D01*
X140236604Y-73760997D01*
X141627202Y-72370400D01*
X141689339Y-72370400D01*
X141889298Y-72330626D01*
X142077656Y-72252605D01*
X142247174Y-72139337D01*
X142391337Y-71995174D01*
X142504605Y-71825656D01*
X142582626Y-71637298D01*
X142622400Y-71437339D01*
X142622400Y-71233461D01*
X142582626Y-71033502D01*
X142504605Y-70845144D01*
X142391337Y-70675626D01*
X142247174Y-70531463D01*
X142127082Y-70451220D01*
X144113803Y-68464500D01*
X144175939Y-68464500D01*
X144375898Y-68424726D01*
X144564256Y-68346705D01*
X144733774Y-68233437D01*
X144877937Y-68089274D01*
X144991205Y-67919756D01*
X145069226Y-67731398D01*
X145109000Y-67531439D01*
X145109000Y-67327561D01*
X145069226Y-67127602D01*
X144991205Y-66939244D01*
X144877937Y-66769726D01*
X144733774Y-66625563D01*
X144564256Y-66512295D01*
X144375898Y-66434274D01*
X144175939Y-66394500D01*
X143972061Y-66394500D01*
X143772102Y-66434274D01*
X143583744Y-66512295D01*
X143414226Y-66625563D01*
X143370289Y-66669500D01*
X142638072Y-66669500D01*
X142638072Y-64950000D01*
X142625812Y-64825518D01*
X142589502Y-64705820D01*
X142530537Y-64595506D01*
X142451185Y-64498815D01*
X142354494Y-64419463D01*
X142244180Y-64360498D01*
X142124482Y-64324188D01*
X142000000Y-64311928D01*
X139800000Y-64311928D01*
X139675518Y-64324188D01*
X139582233Y-64352486D01*
X139483637Y-64204926D01*
X139339474Y-64060763D01*
X139169956Y-63947495D01*
X138981598Y-63869474D01*
X138781639Y-63829700D01*
X138577761Y-63829700D01*
X138377802Y-63869474D01*
X138189444Y-63947495D01*
X138019926Y-64060763D01*
X137885100Y-64195589D01*
X137885100Y-60923137D01*
X142989000Y-60923137D01*
X142989000Y-61136863D01*
X143030696Y-61346483D01*
X143112485Y-61543940D01*
X143231225Y-61721647D01*
X143382353Y-61872775D01*
X143560060Y-61991515D01*
X143757517Y-62073304D01*
X143967137Y-62115000D01*
X144180863Y-62115000D01*
X144390483Y-62073304D01*
X144587940Y-61991515D01*
X144765647Y-61872775D01*
X144916775Y-61721647D01*
X145035515Y-61543940D01*
X145117304Y-61346483D01*
X145159000Y-61136863D01*
X145159000Y-60923137D01*
X145117304Y-60713517D01*
X145035515Y-60516060D01*
X144916775Y-60338353D01*
X144765647Y-60187225D01*
X144587940Y-60068485D01*
X144390483Y-59986696D01*
X144180863Y-59945000D01*
X143967137Y-59945000D01*
X143757517Y-59986696D01*
X143560060Y-60068485D01*
X143382353Y-60187225D01*
X143231225Y-60338353D01*
X143112485Y-60516060D01*
X143030696Y-60713517D01*
X142989000Y-60923137D01*
X137885100Y-60923137D01*
X137885100Y-58747422D01*
X137888776Y-58710099D01*
X137885100Y-58672776D01*
X137885100Y-58672767D01*
X137874103Y-58561114D01*
X137830646Y-58417853D01*
X137760074Y-58285824D01*
X137665101Y-58170099D01*
X137636104Y-58146302D01*
X136138072Y-56648271D01*
X136138072Y-56085000D01*
X136125812Y-55960518D01*
X136089502Y-55840820D01*
X136030537Y-55730506D01*
X135951185Y-55633815D01*
X135854494Y-55554463D01*
X135744180Y-55495498D01*
X135710000Y-55485130D01*
X135710000Y-53965123D01*
X135706943Y-53934079D01*
X135707029Y-53921687D01*
X135706061Y-53911821D01*
X135665260Y-53523628D01*
X135652330Y-53460640D01*
X135640263Y-53397381D01*
X135637398Y-53387891D01*
X135521974Y-53015016D01*
X135497029Y-52955675D01*
X135472931Y-52896029D01*
X135468277Y-52887276D01*
X135436831Y-52829117D01*
X141265000Y-52829117D01*
X141265000Y-53170883D01*
X141331675Y-53506081D01*
X141462463Y-53821831D01*
X141652337Y-54105998D01*
X141894002Y-54347663D01*
X142178169Y-54537537D01*
X142493919Y-54668325D01*
X142829117Y-54735000D01*
X143170883Y-54735000D01*
X143506081Y-54668325D01*
X143821831Y-54537537D01*
X144105998Y-54347663D01*
X144347663Y-54105998D01*
X144537537Y-53821831D01*
X144668325Y-53506081D01*
X144735000Y-53170883D01*
X144735000Y-52829117D01*
X144725205Y-52779872D01*
X144765000Y-52779872D01*
X144765000Y-53220128D01*
X144850890Y-53651925D01*
X145019369Y-54058669D01*
X145263962Y-54424729D01*
X145575271Y-54736038D01*
X145941331Y-54980631D01*
X146348075Y-55149110D01*
X146779872Y-55235000D01*
X147220128Y-55235000D01*
X147651925Y-55149110D01*
X148058669Y-54980631D01*
X148424729Y-54736038D01*
X148736038Y-54424729D01*
X148980631Y-54058669D01*
X149149110Y-53651925D01*
X149235000Y-53220128D01*
X149235000Y-52779872D01*
X149149110Y-52348075D01*
X148980631Y-51941331D01*
X148736038Y-51575271D01*
X148424729Y-51263962D01*
X148058669Y-51019369D01*
X147651925Y-50850890D01*
X147220128Y-50765000D01*
X146779872Y-50765000D01*
X146348075Y-50850890D01*
X145941331Y-51019369D01*
X145575271Y-51263962D01*
X145263962Y-51575271D01*
X145019369Y-51941331D01*
X144850890Y-52348075D01*
X144765000Y-52779872D01*
X144725205Y-52779872D01*
X144668325Y-52493919D01*
X144537537Y-52178169D01*
X144347663Y-51894002D01*
X144105998Y-51652337D01*
X143821831Y-51462463D01*
X143506081Y-51331675D01*
X143170883Y-51265000D01*
X142829117Y-51265000D01*
X142493919Y-51331675D01*
X142178169Y-51462463D01*
X141894002Y-51652337D01*
X141652337Y-51894002D01*
X141462463Y-52178169D01*
X141331675Y-52493919D01*
X141265000Y-52829117D01*
X135436831Y-52829117D01*
X135282626Y-52543921D01*
X135246644Y-52490576D01*
X135211404Y-52436724D01*
X135205138Y-52429042D01*
X134956332Y-52128287D01*
X134910677Y-52082950D01*
X134865647Y-52036967D01*
X134858009Y-52030648D01*
X134555524Y-51783948D01*
X134501941Y-51748348D01*
X134448828Y-51711980D01*
X134440108Y-51707265D01*
X134095467Y-51524016D01*
X134035993Y-51499503D01*
X133976823Y-51474142D01*
X133967353Y-51471211D01*
X133593681Y-51358393D01*
X133530551Y-51345893D01*
X133467612Y-51332515D01*
X133457753Y-51331479D01*
X133070016Y-51293461D01*
X133034877Y-51290000D01*
X111965123Y-51290000D01*
X111934079Y-51293057D01*
X111921687Y-51292971D01*
X111911821Y-51293939D01*
X111523628Y-51334740D01*
X111460640Y-51347670D01*
X111397381Y-51359737D01*
X111387891Y-51362602D01*
X111015016Y-51478026D01*
X110955675Y-51502971D01*
X110896029Y-51527069D01*
X110887276Y-51531723D01*
X110543921Y-51717374D01*
X110490576Y-51753356D01*
X110436724Y-51788596D01*
X110429042Y-51794862D01*
X110128287Y-52043668D01*
X110082950Y-52089323D01*
X110036967Y-52134353D01*
X110030648Y-52141991D01*
X109783948Y-52444476D01*
X109748348Y-52498059D01*
X109711980Y-52551172D01*
X109707265Y-52559892D01*
X109524016Y-52904533D01*
X109499503Y-52964007D01*
X109474142Y-53023177D01*
X109471211Y-53032647D01*
X109358393Y-53406319D01*
X109345893Y-53469449D01*
X109332515Y-53532388D01*
X109331479Y-53542247D01*
X109293389Y-53930716D01*
X109262093Y-54249899D01*
X109189517Y-54490282D01*
X109071633Y-54711989D01*
X108912929Y-54906580D01*
X108719455Y-55066635D01*
X108498576Y-55186064D01*
X108258701Y-55260317D01*
X107976291Y-55290000D01*
X103965123Y-55290000D01*
X103934079Y-55293057D01*
X103921687Y-55292971D01*
X103911821Y-55293939D01*
X103523628Y-55334740D01*
X103460640Y-55347670D01*
X103397381Y-55359737D01*
X103387891Y-55362602D01*
X103015016Y-55478026D01*
X102955675Y-55502971D01*
X102896029Y-55527069D01*
X102887276Y-55531723D01*
X102543921Y-55717374D01*
X102490576Y-55753356D01*
X102436724Y-55788596D01*
X102429042Y-55794862D01*
X102128287Y-56043668D01*
X102082950Y-56089323D01*
X102036967Y-56134353D01*
X102030648Y-56141991D01*
X101783948Y-56444476D01*
X101748348Y-56498059D01*
X101711980Y-56551172D01*
X101707265Y-56559892D01*
X101524016Y-56904533D01*
X101499503Y-56964007D01*
X101474142Y-57023177D01*
X101471211Y-57032647D01*
X101358393Y-57406319D01*
X101345893Y-57469449D01*
X101332515Y-57532388D01*
X101331479Y-57542247D01*
X101293439Y-57930210D01*
X101290000Y-57965124D01*
X100710000Y-57965124D01*
X100710000Y-55034877D01*
X100713435Y-55000000D01*
X100699727Y-54860816D01*
X100659128Y-54726980D01*
X100593200Y-54603637D01*
X100504475Y-54495525D01*
X100396363Y-54406800D01*
X100273020Y-54340872D01*
X100139184Y-54300273D01*
X100110000Y-54297399D01*
X100110000Y-52779872D01*
X100765000Y-52779872D01*
X100765000Y-53220128D01*
X100850890Y-53651925D01*
X101019369Y-54058669D01*
X101263962Y-54424729D01*
X101575271Y-54736038D01*
X101941331Y-54980631D01*
X102348075Y-55149110D01*
X102779872Y-55235000D01*
X103220128Y-55235000D01*
X103651925Y-55149110D01*
X104058669Y-54980631D01*
X104424729Y-54736038D01*
X104736038Y-54424729D01*
X104980631Y-54058669D01*
X105149110Y-53651925D01*
X105235000Y-53220128D01*
X105235000Y-52829117D01*
X105265000Y-52829117D01*
X105265000Y-53170883D01*
X105331675Y-53506081D01*
X105462463Y-53821831D01*
X105652337Y-54105998D01*
X105894002Y-54347663D01*
X106178169Y-54537537D01*
X106493919Y-54668325D01*
X106829117Y-54735000D01*
X107170883Y-54735000D01*
X107506081Y-54668325D01*
X107821831Y-54537537D01*
X108105998Y-54347663D01*
X108347663Y-54105998D01*
X108537537Y-53821831D01*
X108668325Y-53506081D01*
X108735000Y-53170883D01*
X108735000Y-52829117D01*
X108668325Y-52493919D01*
X108537537Y-52178169D01*
X108347663Y-51894002D01*
X108105998Y-51652337D01*
X107821831Y-51462463D01*
X107506081Y-51331675D01*
X107170883Y-51265000D01*
X106829117Y-51265000D01*
X106493919Y-51331675D01*
X106178169Y-51462463D01*
X105894002Y-51652337D01*
X105652337Y-51894002D01*
X105462463Y-52178169D01*
X105331675Y-52493919D01*
X105265000Y-52829117D01*
X105235000Y-52829117D01*
X105235000Y-52779872D01*
X105149110Y-52348075D01*
X104980631Y-51941331D01*
X104736038Y-51575271D01*
X104424729Y-51263962D01*
X104058669Y-51019369D01*
X103651925Y-50850890D01*
X103220128Y-50765000D01*
X102779872Y-50765000D01*
X102348075Y-50850890D01*
X101941331Y-51019369D01*
X101575271Y-51263962D01*
X101263962Y-51575271D01*
X101019369Y-51941331D01*
X100850890Y-52348075D01*
X100765000Y-52779872D01*
X100110000Y-52779872D01*
X100110000Y-52734720D01*
X100162665Y-52197597D01*
X100308574Y-51714326D01*
X100545570Y-51268601D01*
X100864631Y-50877393D01*
X101253593Y-50555616D01*
X101697654Y-50315514D01*
X102179898Y-50166235D01*
X102674969Y-50114200D01*
X107297813Y-50114200D01*
X107300273Y-50139184D01*
X107300273Y-50139184D01*
G37*
X107300273Y-50139184D02*
X107340872Y-50273020D01*
X107406800Y-50396363D01*
X107495525Y-50504475D01*
X107575128Y-50569803D01*
X107603637Y-50593200D01*
X107726980Y-50659128D01*
X107860816Y-50699727D01*
X108000000Y-50713435D01*
X108034877Y-50710000D01*
X141965123Y-50710000D01*
X142000000Y-50713435D01*
X142034877Y-50710000D01*
X142139184Y-50699727D01*
X142273020Y-50659128D01*
X142396363Y-50593200D01*
X142504475Y-50504475D01*
X142593200Y-50396363D01*
X142659128Y-50273020D01*
X142699727Y-50139184D01*
X142702187Y-50114200D01*
X147208106Y-50114200D01*
X147721830Y-50164571D01*
X148223785Y-50316120D01*
X148686737Y-50562276D01*
X149093069Y-50893673D01*
X149427287Y-51297672D01*
X149676672Y-51758898D01*
X149776414Y-52081114D01*
X149782041Y-54298044D01*
X149717367Y-54317663D01*
X149589680Y-54385913D01*
X149477762Y-54477763D01*
X149385913Y-54589681D01*
X149317663Y-54717368D01*
X149275635Y-54855916D01*
X149265000Y-54963896D01*
X149265001Y-95036105D01*
X149275636Y-95144085D01*
X149317664Y-95282633D01*
X149385914Y-95410320D01*
X149477763Y-95522238D01*
X149589681Y-95614087D01*
X149717368Y-95682337D01*
X149855916Y-95724365D01*
X149887191Y-95727445D01*
X149890000Y-96834164D01*
X149890000Y-97265279D01*
X149837335Y-97802403D01*
X149691427Y-98285673D01*
X149454429Y-98731402D01*
X149135371Y-99122604D01*
X148746407Y-99444384D01*
X148302348Y-99684485D01*
X147820102Y-99833765D01*
X147285071Y-99890000D01*
X142702601Y-99890000D01*
X142699727Y-99860816D01*
X142659128Y-99726980D01*
X142593200Y-99603637D01*
X142504475Y-99495525D01*
X142396363Y-99406800D01*
X142273020Y-99340872D01*
X142139184Y-99300273D01*
X142034877Y-99290000D01*
X142000000Y-99286565D01*
X141965123Y-99290000D01*
X108034877Y-99290000D01*
X108000000Y-99286565D01*
X107965123Y-99290000D01*
X107860816Y-99300273D01*
X107726980Y-99340872D01*
X107603637Y-99406800D01*
X107495525Y-99495525D01*
X107406800Y-99603637D01*
X107340872Y-99726980D01*
X107300273Y-99860816D01*
X107297399Y-99890000D01*
X102834720Y-99890000D01*
X102278169Y-99835429D01*
X101776219Y-99683881D01*
X101313262Y-99437723D01*
X100906932Y-99106329D01*
X100572713Y-98702328D01*
X100323326Y-98241097D01*
X100168278Y-97740215D01*
X100110000Y-97185733D01*
X100110000Y-96779872D01*
X100765000Y-96779872D01*
X100765000Y-97220128D01*
X100850890Y-97651925D01*
X101019369Y-98058669D01*
X101263962Y-98424729D01*
X101575271Y-98736038D01*
X101941331Y-98980631D01*
X102348075Y-99149110D01*
X102779872Y-99235000D01*
X103220128Y-99235000D01*
X103651925Y-99149110D01*
X104058669Y-98980631D01*
X104424729Y-98736038D01*
X104736038Y-98424729D01*
X104980631Y-98058669D01*
X105149110Y-97651925D01*
X105235000Y-97220128D01*
X105235000Y-96829117D01*
X105265000Y-96829117D01*
X105265000Y-97170883D01*
X105331675Y-97506081D01*
X105462463Y-97821831D01*
X105652337Y-98105998D01*
X105894002Y-98347663D01*
X106178169Y-98537537D01*
X106493919Y-98668325D01*
X106829117Y-98735000D01*
X107170883Y-98735000D01*
X107506081Y-98668325D01*
X107821831Y-98537537D01*
X108105998Y-98347663D01*
X108347663Y-98105998D01*
X108537537Y-97821831D01*
X108668325Y-97506081D01*
X108735000Y-97170883D01*
X108735000Y-96829117D01*
X108668325Y-96493919D01*
X108537537Y-96178169D01*
X108347663Y-95894002D01*
X108105998Y-95652337D01*
X107821831Y-95462463D01*
X107506081Y-95331675D01*
X107170883Y-95265000D01*
X106829117Y-95265000D01*
X106493919Y-95331675D01*
X106178169Y-95462463D01*
X105894002Y-95652337D01*
X105652337Y-95894002D01*
X105462463Y-96178169D01*
X105331675Y-96493919D01*
X105265000Y-96829117D01*
X105235000Y-96829117D01*
X105235000Y-96779872D01*
X105149110Y-96348075D01*
X104980631Y-95941331D01*
X104736038Y-95575271D01*
X104424729Y-95263962D01*
X104058669Y-95019369D01*
X103651925Y-94850890D01*
X103220128Y-94765000D01*
X102779872Y-94765000D01*
X102348075Y-94850890D01*
X101941331Y-95019369D01*
X101575271Y-95263962D01*
X101263962Y-95575271D01*
X101019369Y-95941331D01*
X100850890Y-96348075D01*
X100765000Y-96779872D01*
X100110000Y-96779872D01*
X100110000Y-95702601D01*
X100139184Y-95699727D01*
X100273020Y-95659128D01*
X100396363Y-95593200D01*
X100504475Y-95504475D01*
X100593200Y-95396363D01*
X100659128Y-95273020D01*
X100699727Y-95139184D01*
X100713435Y-95000000D01*
X100710000Y-94965123D01*
X100710000Y-57965124D01*
X101290000Y-57965124D01*
X101290001Y-92034877D01*
X101293058Y-92065912D01*
X101292971Y-92078313D01*
X101293939Y-92088179D01*
X101334739Y-92476371D01*
X101347677Y-92539396D01*
X101359737Y-92602618D01*
X101362602Y-92612109D01*
X101478026Y-92984983D01*
X101502960Y-93044299D01*
X101527069Y-93103971D01*
X101531723Y-93112724D01*
X101717374Y-93456079D01*
X101753356Y-93509424D01*
X101788596Y-93563276D01*
X101794861Y-93570958D01*
X102043668Y-93871713D01*
X102089323Y-93917050D01*
X102134353Y-93963033D01*
X102141991Y-93969351D01*
X102444476Y-94216052D01*
X102498041Y-94251640D01*
X102551171Y-94288020D01*
X102559891Y-94292734D01*
X102904533Y-94475984D01*
X102963995Y-94500492D01*
X103023177Y-94525858D01*
X103032647Y-94528789D01*
X103406318Y-94641607D01*
X103469456Y-94654108D01*
X103532388Y-94667485D01*
X103542247Y-94668521D01*
X103929984Y-94706539D01*
X103965123Y-94710000D01*
X107965279Y-94710000D01*
X108249899Y-94737907D01*
X108490285Y-94810484D01*
X108711991Y-94928368D01*
X108906577Y-95087068D01*
X109066635Y-95280545D01*
X109186064Y-95501424D01*
X109260317Y-95741297D01*
X109293143Y-96053623D01*
X109292971Y-96078313D01*
X109293939Y-96088179D01*
X109334739Y-96476371D01*
X109347677Y-96539396D01*
X109359737Y-96602618D01*
X109362602Y-96612109D01*
X109478026Y-96984983D01*
X109502960Y-97044299D01*
X109527069Y-97103971D01*
X109531723Y-97112724D01*
X109717374Y-97456079D01*
X109753356Y-97509424D01*
X109788596Y-97563276D01*
X109794861Y-97570958D01*
X110043668Y-97871713D01*
X110089323Y-97917050D01*
X110134353Y-97963033D01*
X110141991Y-97969351D01*
X110444476Y-98216052D01*
X110498041Y-98251640D01*
X110551171Y-98288020D01*
X110559891Y-98292734D01*
X110904533Y-98475984D01*
X110963995Y-98500492D01*
X111023177Y-98525858D01*
X111032647Y-98528789D01*
X111406318Y-98641607D01*
X111469456Y-98654108D01*
X111532388Y-98667485D01*
X111542247Y-98668521D01*
X111929984Y-98706539D01*
X111965123Y-98710000D01*
X133034877Y-98710000D01*
X133065921Y-98706943D01*
X133078313Y-98707029D01*
X133088179Y-98706061D01*
X133476371Y-98665261D01*
X133539396Y-98652323D01*
X133602618Y-98640263D01*
X133612109Y-98637398D01*
X133984983Y-98521974D01*
X134044299Y-98497040D01*
X134103971Y-98472931D01*
X134112724Y-98468277D01*
X134456079Y-98282626D01*
X134509424Y-98246644D01*
X134563276Y-98211404D01*
X134570958Y-98205139D01*
X134871713Y-97956332D01*
X134917050Y-97910677D01*
X134963033Y-97865647D01*
X134969351Y-97858009D01*
X135216052Y-97555524D01*
X135251640Y-97501959D01*
X135288020Y-97448829D01*
X135292734Y-97440109D01*
X135475984Y-97095467D01*
X135500492Y-97036005D01*
X135525858Y-96976823D01*
X135528789Y-96967353D01*
X135570524Y-96829117D01*
X141265000Y-96829117D01*
X141265000Y-97170883D01*
X141331675Y-97506081D01*
X141462463Y-97821831D01*
X141652337Y-98105998D01*
X141894002Y-98347663D01*
X142178169Y-98537537D01*
X142493919Y-98668325D01*
X142829117Y-98735000D01*
X143170883Y-98735000D01*
X143506081Y-98668325D01*
X143821831Y-98537537D01*
X144105998Y-98347663D01*
X144347663Y-98105998D01*
X144537537Y-97821831D01*
X144668325Y-97506081D01*
X144735000Y-97170883D01*
X144735000Y-96829117D01*
X144725205Y-96779872D01*
X144765000Y-96779872D01*
X144765000Y-97220128D01*
X144850890Y-97651925D01*
X145019369Y-98058669D01*
X145263962Y-98424729D01*
X145575271Y-98736038D01*
X145941331Y-98980631D01*
X146348075Y-99149110D01*
X146779872Y-99235000D01*
X147220128Y-99235000D01*
X147651925Y-99149110D01*
X148058669Y-98980631D01*
X148424729Y-98736038D01*
X148736038Y-98424729D01*
X148980631Y-98058669D01*
X149149110Y-97651925D01*
X149235000Y-97220128D01*
X149235000Y-96779872D01*
X149149110Y-96348075D01*
X148980631Y-95941331D01*
X148736038Y-95575271D01*
X148424729Y-95263962D01*
X148058669Y-95019369D01*
X147651925Y-94850890D01*
X147220128Y-94765000D01*
X146779872Y-94765000D01*
X146348075Y-94850890D01*
X145941331Y-95019369D01*
X145575271Y-95263962D01*
X145263962Y-95575271D01*
X145019369Y-95941331D01*
X144850890Y-96348075D01*
X144765000Y-96779872D01*
X144725205Y-96779872D01*
X144668325Y-96493919D01*
X144537537Y-96178169D01*
X144347663Y-95894002D01*
X144105998Y-95652337D01*
X143821831Y-95462463D01*
X143506081Y-95331675D01*
X143170883Y-95265000D01*
X142829117Y-95265000D01*
X142493919Y-95331675D01*
X142178169Y-95462463D01*
X141894002Y-95652337D01*
X141652337Y-95894002D01*
X141462463Y-96178169D01*
X141331675Y-96493919D01*
X141265000Y-96829117D01*
X135570524Y-96829117D01*
X135641607Y-96593682D01*
X135654108Y-96530544D01*
X135667485Y-96467612D01*
X135668521Y-96457753D01*
X135706611Y-96069284D01*
X135710000Y-96034877D01*
X135710000Y-94300603D01*
X135806449Y-94221449D01*
X135948284Y-94048623D01*
X136053676Y-93851447D01*
X136118577Y-93637499D01*
X136140491Y-93415000D01*
X136118577Y-93192501D01*
X136053676Y-92978553D01*
X135948284Y-92781377D01*
X135947154Y-92780000D01*
X135948284Y-92778623D01*
X136053676Y-92581447D01*
X136118577Y-92367499D01*
X136140491Y-92145000D01*
X136134601Y-92085200D01*
X137736403Y-90483399D01*
X137765401Y-90459601D01*
X137860374Y-90343876D01*
X137930946Y-90211847D01*
X137974403Y-90068586D01*
X137985400Y-89956933D01*
X137985400Y-89956923D01*
X137989076Y-89919600D01*
X137985400Y-89882277D01*
X137985400Y-89214237D01*
X138048561Y-89226800D01*
X138252439Y-89226800D01*
X138452398Y-89187026D01*
X138640756Y-89109005D01*
X138810274Y-88995737D01*
X138942874Y-88863137D01*
X142989000Y-88863137D01*
X142989000Y-89076863D01*
X143030696Y-89286483D01*
X143112485Y-89483940D01*
X143231225Y-89661647D01*
X143382353Y-89812775D01*
X143560060Y-89931515D01*
X143757517Y-90013304D01*
X143967137Y-90055000D01*
X144180863Y-90055000D01*
X144390483Y-90013304D01*
X144587940Y-89931515D01*
X144765647Y-89812775D01*
X144916775Y-89661647D01*
X145035515Y-89483940D01*
X145117304Y-89286483D01*
X145159000Y-89076863D01*
X145159000Y-88863137D01*
X145117304Y-88653517D01*
X145035515Y-88456060D01*
X144916775Y-88278353D01*
X144765647Y-88127225D01*
X144587940Y-88008485D01*
X144390483Y-87926696D01*
X144180863Y-87885000D01*
X143967137Y-87885000D01*
X143757517Y-87926696D01*
X143560060Y-88008485D01*
X143382353Y-88127225D01*
X143231225Y-88278353D01*
X143112485Y-88456060D01*
X143030696Y-88653517D01*
X142989000Y-88863137D01*
X138942874Y-88863137D01*
X138954437Y-88851574D01*
X139067705Y-88682056D01*
X139145726Y-88493698D01*
X139185500Y-88293739D01*
X139185500Y-88231602D01*
X139586709Y-87830394D01*
X139615701Y-87806601D01*
X139639495Y-87777608D01*
X139639499Y-87777604D01*
X139710673Y-87690877D01*
X139710674Y-87690876D01*
X139781246Y-87558847D01*
X139824703Y-87415586D01*
X139835700Y-87303933D01*
X139835700Y-87303924D01*
X139839376Y-87266601D01*
X139835700Y-87229278D01*
X139835700Y-87042111D01*
X139862826Y-87069237D01*
X140032344Y-87182505D01*
X140220702Y-87260526D01*
X140420661Y-87300300D01*
X140624539Y-87300300D01*
X140824498Y-87260526D01*
X141012856Y-87182505D01*
X141182374Y-87069237D01*
X141226311Y-87025300D01*
X141248378Y-87025300D01*
X141285700Y-87028976D01*
X141323022Y-87025300D01*
X141323033Y-87025300D01*
X141434686Y-87014303D01*
X141577947Y-86970846D01*
X141709976Y-86900274D01*
X141825701Y-86805301D01*
X141849504Y-86776298D01*
X142887704Y-85738098D01*
X142916701Y-85714301D01*
X142927561Y-85701069D01*
X142956563Y-85744474D01*
X143100726Y-85888637D01*
X143270244Y-86001905D01*
X143458602Y-86079926D01*
X143658561Y-86119700D01*
X143862439Y-86119700D01*
X144062398Y-86079926D01*
X144250756Y-86001905D01*
X144420274Y-85888637D01*
X144564437Y-85744474D01*
X144677705Y-85574956D01*
X144755726Y-85386598D01*
X144795500Y-85186639D01*
X144795500Y-84982761D01*
X144755726Y-84782802D01*
X144677705Y-84594444D01*
X144564437Y-84424926D01*
X144420274Y-84280763D01*
X144266685Y-84178139D01*
X144390856Y-84126705D01*
X144560374Y-84013437D01*
X144704537Y-83869274D01*
X144817805Y-83699756D01*
X144895826Y-83511398D01*
X144935600Y-83311439D01*
X144935600Y-83107561D01*
X144895826Y-82907602D01*
X144817805Y-82719244D01*
X144704537Y-82549726D01*
X144650503Y-82495692D01*
X144744005Y-82355756D01*
X144822026Y-82167398D01*
X144861800Y-81967439D01*
X144861800Y-81763561D01*
X144822026Y-81563602D01*
X144744005Y-81375244D01*
X144630737Y-81205726D01*
X144486574Y-81061563D01*
X144317056Y-80948295D01*
X144128698Y-80870274D01*
X143928739Y-80830500D01*
X143866602Y-80830500D01*
X141046101Y-78010000D01*
X141630899Y-78010000D01*
X143202200Y-79581303D01*
X143202200Y-79643439D01*
X143241974Y-79843398D01*
X143319995Y-80031756D01*
X143433263Y-80201274D01*
X143577426Y-80345437D01*
X143746944Y-80458705D01*
X143935302Y-80536726D01*
X144135261Y-80576500D01*
X144339139Y-80576500D01*
X144539098Y-80536726D01*
X144727456Y-80458705D01*
X144896974Y-80345437D01*
X145041137Y-80201274D01*
X145154405Y-80031756D01*
X145232426Y-79843398D01*
X145272200Y-79643439D01*
X145272200Y-79439561D01*
X145232426Y-79239602D01*
X145154405Y-79051244D01*
X145041137Y-78881726D01*
X144896974Y-78737563D01*
X144727456Y-78624295D01*
X144539098Y-78546274D01*
X144339139Y-78506500D01*
X144277003Y-78506500D01*
X142509504Y-76739002D01*
X142485701Y-76709999D01*
X142369976Y-76615026D01*
X142237947Y-76544454D01*
X142094686Y-76500997D01*
X141983033Y-76490000D01*
X141983022Y-76490000D01*
X141945700Y-76486324D01*
X141908378Y-76490000D01*
X140171633Y-76490000D01*
X140176200Y-76467039D01*
X140176200Y-76263161D01*
X140136426Y-76063202D01*
X140058405Y-75874844D01*
X139945137Y-75705326D01*
X139800974Y-75561163D01*
X139631456Y-75447895D01*
X139443098Y-75369874D01*
X139243139Y-75330100D01*
X139039261Y-75330100D01*
X138938072Y-75350228D01*
X138938072Y-75160000D01*
X139060439Y-75160000D01*
X139260398Y-75120226D01*
X139448756Y-75042205D01*
X139618274Y-74928937D01*
X139762437Y-74784774D01*
X139875705Y-74615256D01*
X139953726Y-74426898D01*
X139993500Y-74226939D01*
X139993500Y-74023061D01*
X139978627Y-73948287D01*
X140097076Y-73884974D01*
X140212801Y-73790001D01*
X140236604Y-73760997D01*
X141627202Y-72370400D01*
X141689339Y-72370400D01*
X141889298Y-72330626D01*
X142077656Y-72252605D01*
X142247174Y-72139337D01*
X142391337Y-71995174D01*
X142504605Y-71825656D01*
X142582626Y-71637298D01*
X142622400Y-71437339D01*
X142622400Y-71233461D01*
X142582626Y-71033502D01*
X142504605Y-70845144D01*
X142391337Y-70675626D01*
X142247174Y-70531463D01*
X142127082Y-70451220D01*
X144113803Y-68464500D01*
X144175939Y-68464500D01*
X144375898Y-68424726D01*
X144564256Y-68346705D01*
X144733774Y-68233437D01*
X144877937Y-68089274D01*
X144991205Y-67919756D01*
X145069226Y-67731398D01*
X145109000Y-67531439D01*
X145109000Y-67327561D01*
X145069226Y-67127602D01*
X144991205Y-66939244D01*
X144877937Y-66769726D01*
X144733774Y-66625563D01*
X144564256Y-66512295D01*
X144375898Y-66434274D01*
X144175939Y-66394500D01*
X143972061Y-66394500D01*
X143772102Y-66434274D01*
X143583744Y-66512295D01*
X143414226Y-66625563D01*
X143370289Y-66669500D01*
X142638072Y-66669500D01*
X142638072Y-64950000D01*
X142625812Y-64825518D01*
X142589502Y-64705820D01*
X142530537Y-64595506D01*
X142451185Y-64498815D01*
X142354494Y-64419463D01*
X142244180Y-64360498D01*
X142124482Y-64324188D01*
X142000000Y-64311928D01*
X139800000Y-64311928D01*
X139675518Y-64324188D01*
X139582233Y-64352486D01*
X139483637Y-64204926D01*
X139339474Y-64060763D01*
X139169956Y-63947495D01*
X138981598Y-63869474D01*
X138781639Y-63829700D01*
X138577761Y-63829700D01*
X138377802Y-63869474D01*
X138189444Y-63947495D01*
X138019926Y-64060763D01*
X137885100Y-64195589D01*
X137885100Y-60923137D01*
X142989000Y-60923137D01*
X142989000Y-61136863D01*
X143030696Y-61346483D01*
X143112485Y-61543940D01*
X143231225Y-61721647D01*
X143382353Y-61872775D01*
X143560060Y-61991515D01*
X143757517Y-62073304D01*
X143967137Y-62115000D01*
X144180863Y-62115000D01*
X144390483Y-62073304D01*
X144587940Y-61991515D01*
X144765647Y-61872775D01*
X144916775Y-61721647D01*
X145035515Y-61543940D01*
X145117304Y-61346483D01*
X145159000Y-61136863D01*
X145159000Y-60923137D01*
X145117304Y-60713517D01*
X145035515Y-60516060D01*
X144916775Y-60338353D01*
X144765647Y-60187225D01*
X144587940Y-60068485D01*
X144390483Y-59986696D01*
X144180863Y-59945000D01*
X143967137Y-59945000D01*
X143757517Y-59986696D01*
X143560060Y-60068485D01*
X143382353Y-60187225D01*
X143231225Y-60338353D01*
X143112485Y-60516060D01*
X143030696Y-60713517D01*
X142989000Y-60923137D01*
X137885100Y-60923137D01*
X137885100Y-58747422D01*
X137888776Y-58710099D01*
X137885100Y-58672776D01*
X137885100Y-58672767D01*
X137874103Y-58561114D01*
X137830646Y-58417853D01*
X137760074Y-58285824D01*
X137665101Y-58170099D01*
X137636104Y-58146302D01*
X136138072Y-56648271D01*
X136138072Y-56085000D01*
X136125812Y-55960518D01*
X136089502Y-55840820D01*
X136030537Y-55730506D01*
X135951185Y-55633815D01*
X135854494Y-55554463D01*
X135744180Y-55495498D01*
X135710000Y-55485130D01*
X135710000Y-53965123D01*
X135706943Y-53934079D01*
X135707029Y-53921687D01*
X135706061Y-53911821D01*
X135665260Y-53523628D01*
X135652330Y-53460640D01*
X135640263Y-53397381D01*
X135637398Y-53387891D01*
X135521974Y-53015016D01*
X135497029Y-52955675D01*
X135472931Y-52896029D01*
X135468277Y-52887276D01*
X135436831Y-52829117D01*
X141265000Y-52829117D01*
X141265000Y-53170883D01*
X141331675Y-53506081D01*
X141462463Y-53821831D01*
X141652337Y-54105998D01*
X141894002Y-54347663D01*
X142178169Y-54537537D01*
X142493919Y-54668325D01*
X142829117Y-54735000D01*
X143170883Y-54735000D01*
X143506081Y-54668325D01*
X143821831Y-54537537D01*
X144105998Y-54347663D01*
X144347663Y-54105998D01*
X144537537Y-53821831D01*
X144668325Y-53506081D01*
X144735000Y-53170883D01*
X144735000Y-52829117D01*
X144725205Y-52779872D01*
X144765000Y-52779872D01*
X144765000Y-53220128D01*
X144850890Y-53651925D01*
X145019369Y-54058669D01*
X145263962Y-54424729D01*
X145575271Y-54736038D01*
X145941331Y-54980631D01*
X146348075Y-55149110D01*
X146779872Y-55235000D01*
X147220128Y-55235000D01*
X147651925Y-55149110D01*
X148058669Y-54980631D01*
X148424729Y-54736038D01*
X148736038Y-54424729D01*
X148980631Y-54058669D01*
X149149110Y-53651925D01*
X149235000Y-53220128D01*
X149235000Y-52779872D01*
X149149110Y-52348075D01*
X148980631Y-51941331D01*
X148736038Y-51575271D01*
X148424729Y-51263962D01*
X148058669Y-51019369D01*
X147651925Y-50850890D01*
X147220128Y-50765000D01*
X146779872Y-50765000D01*
X146348075Y-50850890D01*
X145941331Y-51019369D01*
X145575271Y-51263962D01*
X145263962Y-51575271D01*
X145019369Y-51941331D01*
X144850890Y-52348075D01*
X144765000Y-52779872D01*
X144725205Y-52779872D01*
X144668325Y-52493919D01*
X144537537Y-52178169D01*
X144347663Y-51894002D01*
X144105998Y-51652337D01*
X143821831Y-51462463D01*
X143506081Y-51331675D01*
X143170883Y-51265000D01*
X142829117Y-51265000D01*
X142493919Y-51331675D01*
X142178169Y-51462463D01*
X141894002Y-51652337D01*
X141652337Y-51894002D01*
X141462463Y-52178169D01*
X141331675Y-52493919D01*
X141265000Y-52829117D01*
X135436831Y-52829117D01*
X135282626Y-52543921D01*
X135246644Y-52490576D01*
X135211404Y-52436724D01*
X135205138Y-52429042D01*
X134956332Y-52128287D01*
X134910677Y-52082950D01*
X134865647Y-52036967D01*
X134858009Y-52030648D01*
X134555524Y-51783948D01*
X134501941Y-51748348D01*
X134448828Y-51711980D01*
X134440108Y-51707265D01*
X134095467Y-51524016D01*
X134035993Y-51499503D01*
X133976823Y-51474142D01*
X133967353Y-51471211D01*
X133593681Y-51358393D01*
X133530551Y-51345893D01*
X133467612Y-51332515D01*
X133457753Y-51331479D01*
X133070016Y-51293461D01*
X133034877Y-51290000D01*
X111965123Y-51290000D01*
X111934079Y-51293057D01*
X111921687Y-51292971D01*
X111911821Y-51293939D01*
X111523628Y-51334740D01*
X111460640Y-51347670D01*
X111397381Y-51359737D01*
X111387891Y-51362602D01*
X111015016Y-51478026D01*
X110955675Y-51502971D01*
X110896029Y-51527069D01*
X110887276Y-51531723D01*
X110543921Y-51717374D01*
X110490576Y-51753356D01*
X110436724Y-51788596D01*
X110429042Y-51794862D01*
X110128287Y-52043668D01*
X110082950Y-52089323D01*
X110036967Y-52134353D01*
X110030648Y-52141991D01*
X109783948Y-52444476D01*
X109748348Y-52498059D01*
X109711980Y-52551172D01*
X109707265Y-52559892D01*
X109524016Y-52904533D01*
X109499503Y-52964007D01*
X109474142Y-53023177D01*
X109471211Y-53032647D01*
X109358393Y-53406319D01*
X109345893Y-53469449D01*
X109332515Y-53532388D01*
X109331479Y-53542247D01*
X109293389Y-53930716D01*
X109262093Y-54249899D01*
X109189517Y-54490282D01*
X109071633Y-54711989D01*
X108912929Y-54906580D01*
X108719455Y-55066635D01*
X108498576Y-55186064D01*
X108258701Y-55260317D01*
X107976291Y-55290000D01*
X103965123Y-55290000D01*
X103934079Y-55293057D01*
X103921687Y-55292971D01*
X103911821Y-55293939D01*
X103523628Y-55334740D01*
X103460640Y-55347670D01*
X103397381Y-55359737D01*
X103387891Y-55362602D01*
X103015016Y-55478026D01*
X102955675Y-55502971D01*
X102896029Y-55527069D01*
X102887276Y-55531723D01*
X102543921Y-55717374D01*
X102490576Y-55753356D01*
X102436724Y-55788596D01*
X102429042Y-55794862D01*
X102128287Y-56043668D01*
X102082950Y-56089323D01*
X102036967Y-56134353D01*
X102030648Y-56141991D01*
X101783948Y-56444476D01*
X101748348Y-56498059D01*
X101711980Y-56551172D01*
X101707265Y-56559892D01*
X101524016Y-56904533D01*
X101499503Y-56964007D01*
X101474142Y-57023177D01*
X101471211Y-57032647D01*
X101358393Y-57406319D01*
X101345893Y-57469449D01*
X101332515Y-57532388D01*
X101331479Y-57542247D01*
X101293439Y-57930210D01*
X101290000Y-57965124D01*
X100710000Y-57965124D01*
X100710000Y-55034877D01*
X100713435Y-55000000D01*
X100699727Y-54860816D01*
X100659128Y-54726980D01*
X100593200Y-54603637D01*
X100504475Y-54495525D01*
X100396363Y-54406800D01*
X100273020Y-54340872D01*
X100139184Y-54300273D01*
X100110000Y-54297399D01*
X100110000Y-52779872D01*
X100765000Y-52779872D01*
X100765000Y-53220128D01*
X100850890Y-53651925D01*
X101019369Y-54058669D01*
X101263962Y-54424729D01*
X101575271Y-54736038D01*
X101941331Y-54980631D01*
X102348075Y-55149110D01*
X102779872Y-55235000D01*
X103220128Y-55235000D01*
X103651925Y-55149110D01*
X104058669Y-54980631D01*
X104424729Y-54736038D01*
X104736038Y-54424729D01*
X104980631Y-54058669D01*
X105149110Y-53651925D01*
X105235000Y-53220128D01*
X105235000Y-52829117D01*
X105265000Y-52829117D01*
X105265000Y-53170883D01*
X105331675Y-53506081D01*
X105462463Y-53821831D01*
X105652337Y-54105998D01*
X105894002Y-54347663D01*
X106178169Y-54537537D01*
X106493919Y-54668325D01*
X106829117Y-54735000D01*
X107170883Y-54735000D01*
X107506081Y-54668325D01*
X107821831Y-54537537D01*
X108105998Y-54347663D01*
X108347663Y-54105998D01*
X108537537Y-53821831D01*
X108668325Y-53506081D01*
X108735000Y-53170883D01*
X108735000Y-52829117D01*
X108668325Y-52493919D01*
X108537537Y-52178169D01*
X108347663Y-51894002D01*
X108105998Y-51652337D01*
X107821831Y-51462463D01*
X107506081Y-51331675D01*
X107170883Y-51265000D01*
X106829117Y-51265000D01*
X106493919Y-51331675D01*
X106178169Y-51462463D01*
X105894002Y-51652337D01*
X105652337Y-51894002D01*
X105462463Y-52178169D01*
X105331675Y-52493919D01*
X105265000Y-52829117D01*
X105235000Y-52829117D01*
X105235000Y-52779872D01*
X105149110Y-52348075D01*
X104980631Y-51941331D01*
X104736038Y-51575271D01*
X104424729Y-51263962D01*
X104058669Y-51019369D01*
X103651925Y-50850890D01*
X103220128Y-50765000D01*
X102779872Y-50765000D01*
X102348075Y-50850890D01*
X101941331Y-51019369D01*
X101575271Y-51263962D01*
X101263962Y-51575271D01*
X101019369Y-51941331D01*
X100850890Y-52348075D01*
X100765000Y-52779872D01*
X100110000Y-52779872D01*
X100110000Y-52734720D01*
X100162665Y-52197597D01*
X100308574Y-51714326D01*
X100545570Y-51268601D01*
X100864631Y-50877393D01*
X101253593Y-50555616D01*
X101697654Y-50315514D01*
X102179898Y-50166235D01*
X102674969Y-50114200D01*
X107297813Y-50114200D01*
X107300273Y-50139184D01*
M02*
