G04 #@! TF.GenerationSoftware,KiCad,Pcbnew,5.0.2-bee76a0~70~ubuntu18.04.1*
G04 #@! TF.CreationDate,2019-05-12T18:15:27+09:00*
G04 #@! TF.ProjectId,top_pcb,746f705f-7063-4622-9e6b-696361645f70,rev?*
G04 #@! TF.SameCoordinates,Original*
G04 #@! TF.FileFunction,Copper,L1,Top*
G04 #@! TF.FilePolarity,Positive*
%FSLAX46Y46*%
G04 Gerber Fmt 4.6, Leading zero omitted, Abs format (unit mm)*
G04 Created by KiCad (PCBNEW 5.0.2-bee76a0~70~ubuntu18.04.1) date 2019年05月12日 18時15分27秒*
%MOMM*%
%LPD*%
G01*
G04 APERTURE LIST*
G04 #@! TA.AperFunction,SMDPad,CuDef*
%ADD10R,3.150000X1.000000*%
G04 #@! TD*
G04 #@! TA.AperFunction,ComponentPad*
%ADD11R,1.700000X1.700000*%
G04 #@! TD*
G04 #@! TA.AperFunction,ComponentPad*
%ADD12O,1.700000X1.700000*%
G04 #@! TD*
G04 #@! TA.AperFunction,ViaPad*
%ADD13C,0.800000*%
G04 #@! TD*
G04 #@! TA.AperFunction,Conductor*
%ADD14C,0.250000*%
G04 #@! TD*
G04 #@! TA.AperFunction,Conductor*
%ADD15C,0.254000*%
G04 #@! TD*
G04 APERTURE END LIST*
D10*
G04 #@! TO.P,J2,30*
G04 #@! TO.N,HPWR*
X146599000Y-92780000D03*
G04 #@! TO.P,J2,29*
G04 #@! TO.N,+BATT*
X141549000Y-92780000D03*
G04 #@! TO.P,J2,28*
G04 #@! TO.N,HPWR*
X146599000Y-90240000D03*
G04 #@! TO.P,J2,27*
G04 #@! TO.N,+5V*
X141549000Y-90240000D03*
G04 #@! TO.P,J2,26*
G04 #@! TO.N,HPWR*
X146599000Y-87700000D03*
G04 #@! TO.P,J2,25*
G04 #@! TO.N,G34*
X141549000Y-87700000D03*
G04 #@! TO.P,J2,24*
G04 #@! TO.N,G15*
X146599000Y-85160000D03*
G04 #@! TO.P,J2,23*
G04 #@! TO.N,G0*
X141549000Y-85160000D03*
G04 #@! TO.P,J2,22*
G04 #@! TO.N,G12*
X146599000Y-82620000D03*
G04 #@! TO.P,J2,21*
G04 #@! TO.N,G13*
X141549000Y-82620000D03*
G04 #@! TO.P,J2,20*
G04 #@! TO.N,G2*
X146599000Y-80080000D03*
G04 #@! TO.P,J2,19*
G04 #@! TO.N,G5*
X141549000Y-80080000D03*
G04 #@! TO.P,J2,18*
G04 #@! TO.N,G21*
X146599000Y-77540000D03*
G04 #@! TO.P,J2,17*
G04 #@! TO.N,G22*
X141549000Y-77540000D03*
G04 #@! TO.P,J2,16*
G04 #@! TO.N,G16*
X146599000Y-75000000D03*
G04 #@! TO.P,J2,15*
G04 #@! TO.N,G17*
X141549000Y-75000000D03*
G04 #@! TO.P,J2,14*
G04 #@! TO.N,G3*
X146599000Y-72460000D03*
G04 #@! TO.P,J2,13*
G04 #@! TO.N,G1*
X141549000Y-72460000D03*
G04 #@! TO.P,J2,12*
G04 #@! TO.N,G18*
X146599000Y-69920000D03*
G04 #@! TO.P,J2,11*
G04 #@! TO.N,+3V3*
X141549000Y-69920000D03*
G04 #@! TO.P,J2,10*
G04 #@! TO.N,G19*
X146599000Y-67380000D03*
G04 #@! TO.P,J2,9*
G04 #@! TO.N,G26*
X141549000Y-67380000D03*
G04 #@! TO.P,J2,8*
G04 #@! TO.N,G23*
X146599000Y-64840000D03*
G04 #@! TO.P,J2,7*
G04 #@! TO.N,G25*
X141549000Y-64840000D03*
G04 #@! TO.P,J2,6*
G04 #@! TO.N,GND*
X146599000Y-62300000D03*
G04 #@! TO.P,J2,5*
G04 #@! TO.N,RST*
X141549000Y-62300000D03*
G04 #@! TO.P,J2,4*
G04 #@! TO.N,GND*
X146599000Y-59760000D03*
G04 #@! TO.P,J2,3*
G04 #@! TO.N,G36*
X141549000Y-59760000D03*
G04 #@! TO.P,J2,2*
G04 #@! TO.N,GND*
X146599000Y-57220000D03*
G04 #@! TO.P,J2,1*
G04 #@! TO.N,G35*
X141549000Y-57220000D03*
G04 #@! TD*
D11*
G04 #@! TO.P,J3,1*
G04 #@! TO.N,G35*
X132105000Y-57220000D03*
D12*
G04 #@! TO.P,J3,2*
G04 #@! TO.N,GND*
X134645000Y-57220000D03*
G04 #@! TO.P,J3,3*
G04 #@! TO.N,G36*
X132105000Y-59760000D03*
G04 #@! TO.P,J3,4*
G04 #@! TO.N,GND*
X134645000Y-59760000D03*
G04 #@! TO.P,J3,5*
G04 #@! TO.N,RST*
X132105000Y-62300000D03*
G04 #@! TO.P,J3,6*
G04 #@! TO.N,GND*
X134645000Y-62300000D03*
G04 #@! TO.P,J3,7*
G04 #@! TO.N,G25*
X132105000Y-64840000D03*
G04 #@! TO.P,J3,8*
G04 #@! TO.N,G23*
X134645000Y-64840000D03*
G04 #@! TO.P,J3,9*
G04 #@! TO.N,G26*
X132105000Y-67380000D03*
G04 #@! TO.P,J3,10*
G04 #@! TO.N,G19*
X134645000Y-67380000D03*
G04 #@! TO.P,J3,11*
G04 #@! TO.N,+3V3*
X132105000Y-69920000D03*
G04 #@! TO.P,J3,12*
G04 #@! TO.N,G18*
X134645000Y-69920000D03*
G04 #@! TO.P,J3,13*
G04 #@! TO.N,G1*
X132105000Y-72460000D03*
G04 #@! TO.P,J3,14*
G04 #@! TO.N,G3*
X134645000Y-72460000D03*
G04 #@! TO.P,J3,15*
G04 #@! TO.N,G17*
X132105000Y-75000000D03*
G04 #@! TO.P,J3,16*
G04 #@! TO.N,G16*
X134645000Y-75000000D03*
G04 #@! TO.P,J3,17*
G04 #@! TO.N,G22*
X132105000Y-77540000D03*
G04 #@! TO.P,J3,18*
G04 #@! TO.N,G21*
X134645000Y-77540000D03*
G04 #@! TO.P,J3,19*
G04 #@! TO.N,G5*
X132105000Y-80080000D03*
G04 #@! TO.P,J3,20*
G04 #@! TO.N,G2*
X134645000Y-80080000D03*
G04 #@! TO.P,J3,21*
G04 #@! TO.N,G13*
X132105000Y-82620000D03*
G04 #@! TO.P,J3,22*
G04 #@! TO.N,G12*
X134645000Y-82620000D03*
G04 #@! TO.P,J3,23*
G04 #@! TO.N,G0*
X132105000Y-85160000D03*
G04 #@! TO.P,J3,24*
G04 #@! TO.N,G15*
X134645000Y-85160000D03*
G04 #@! TO.P,J3,25*
G04 #@! TO.N,G34*
X132105000Y-87700000D03*
G04 #@! TO.P,J3,26*
G04 #@! TO.N,HPWR*
X134645000Y-87700000D03*
G04 #@! TO.P,J3,27*
G04 #@! TO.N,+5V*
X132105000Y-90240000D03*
G04 #@! TO.P,J3,28*
G04 #@! TO.N,HPWR*
X134645000Y-90240000D03*
G04 #@! TO.P,J3,29*
G04 #@! TO.N,+BATT*
X132105000Y-92780000D03*
G04 #@! TO.P,J3,30*
G04 #@! TO.N,HPWR*
X134645000Y-92780000D03*
G04 #@! TD*
D13*
G04 #@! TO.N,GND*
X144411700Y-55232300D03*
X105740200Y-55270400D03*
X105638600Y-94919800D03*
X144284700Y-94856300D03*
G04 #@! TO.N,G3*
X141731600Y-73577600D03*
G04 #@! TO.N,G15*
X146481600Y-84045900D03*
G04 #@! TD*
D14*
G04 #@! TO.N,GND*
X144114500Y-62279700D02*
X143268900Y-63125300D01*
X143268900Y-63125300D02*
X136645600Y-63125300D01*
X136645600Y-63125300D02*
X135820300Y-62300000D01*
X144698700Y-62300000D02*
X144134800Y-62300000D01*
X144134800Y-62300000D02*
X144114500Y-62279700D01*
X144114500Y-62279700D02*
X142425900Y-60591100D01*
X142425900Y-60591100D02*
X136651400Y-60591100D01*
X136651400Y-60591100D02*
X135820300Y-59760000D01*
X134645000Y-59760000D02*
X135820300Y-59760000D01*
X146599000Y-59760000D02*
X148499300Y-59760000D01*
X146599000Y-57220000D02*
X148499300Y-57220000D01*
X148499300Y-57220000D02*
X148499300Y-59760000D01*
X146360500Y-62300000D02*
X146599000Y-62061500D01*
X146599000Y-62061500D02*
X146599000Y-59760000D01*
X146360500Y-62300000D02*
X144698700Y-62300000D01*
X146599000Y-62300000D02*
X146360500Y-62300000D01*
X134645000Y-62300000D02*
X135820300Y-62300000D01*
X144411700Y-55232300D02*
X139293600Y-55232300D01*
X145361300Y-55232300D02*
X144411700Y-55232300D01*
X136004300Y-51943000D02*
X117195600Y-51943000D01*
X139293600Y-55232300D02*
X136004300Y-51943000D01*
X117195600Y-51943000D02*
X115112800Y-54025800D01*
X146599000Y-57220000D02*
X146599000Y-56470000D01*
X146599000Y-56470000D02*
X145361300Y-55232300D01*
X115112800Y-54025800D02*
X114350800Y-54025800D01*
X114350800Y-54025800D02*
X113106200Y-55270400D01*
X113106200Y-55270400D02*
X105740200Y-55270400D01*
X105638600Y-94919800D02*
X106400600Y-94157800D01*
X106400600Y-94157800D02*
X118605300Y-94157800D01*
X124047490Y-99599990D02*
X135756410Y-99599990D01*
X118605300Y-94157800D02*
X124047490Y-99599990D01*
X135756410Y-99599990D02*
X140500100Y-94856300D01*
X140500100Y-94856300D02*
X144284700Y-94856300D01*
G04 #@! TO.N,G23*
X146599000Y-64840000D02*
X144698700Y-64840000D01*
X134645000Y-64840000D02*
X135820300Y-64840000D01*
X135820300Y-64840000D02*
X136645600Y-65665300D01*
X136645600Y-65665300D02*
X143873400Y-65665300D01*
X143873400Y-65665300D02*
X144698700Y-64840000D01*
G04 #@! TO.N,G19*
X146599000Y-67380000D02*
X144698700Y-67380000D01*
X134645000Y-67380000D02*
X135820300Y-67380000D01*
X135820300Y-67380000D02*
X136645600Y-68205300D01*
X136645600Y-68205300D02*
X143873400Y-68205300D01*
X143873400Y-68205300D02*
X144698700Y-67380000D01*
G04 #@! TO.N,G18*
X146599000Y-69920000D02*
X144698700Y-69920000D01*
X135820300Y-69920000D02*
X136645600Y-70745300D01*
X136645600Y-70745300D02*
X143873400Y-70745300D01*
X143873400Y-70745300D02*
X144698700Y-69920000D01*
X134645000Y-69920000D02*
X135820300Y-69920000D01*
G04 #@! TO.N,G3*
X141731600Y-73285300D02*
X141731600Y-73577600D01*
X141731600Y-73285300D02*
X143873400Y-73285300D01*
X143873400Y-73285300D02*
X144698700Y-72460000D01*
X135820300Y-72460000D02*
X136645600Y-73285300D01*
X136645600Y-73285300D02*
X141731600Y-73285300D01*
X146599000Y-72460000D02*
X144698700Y-72460000D01*
X134645000Y-72460000D02*
X135820300Y-72460000D01*
G04 #@! TO.N,G16*
X144698700Y-75000000D02*
X143873400Y-75825300D01*
X143873400Y-75825300D02*
X136645600Y-75825300D01*
X136645600Y-75825300D02*
X135820300Y-75000000D01*
X146599000Y-75000000D02*
X144698700Y-75000000D01*
X134645000Y-75000000D02*
X135820300Y-75000000D01*
G04 #@! TO.N,G21*
X146599000Y-77540000D02*
X144698700Y-77540000D01*
X134645000Y-77540000D02*
X135820300Y-77540000D01*
X135820300Y-77540000D02*
X136645600Y-78365300D01*
X136645600Y-78365300D02*
X143873400Y-78365300D01*
X143873400Y-78365300D02*
X144698700Y-77540000D01*
G04 #@! TO.N,G2*
X146599000Y-80080000D02*
X144698700Y-80080000D01*
X134645000Y-80080000D02*
X135820300Y-80080000D01*
X135820300Y-80080000D02*
X136645600Y-80905300D01*
X136645600Y-80905300D02*
X143873400Y-80905300D01*
X143873400Y-80905300D02*
X144698700Y-80080000D01*
G04 #@! TO.N,G12*
X144698700Y-82620000D02*
X143873400Y-83445300D01*
X143873400Y-83445300D02*
X136645600Y-83445300D01*
X136645600Y-83445300D02*
X135820300Y-82620000D01*
X134645000Y-82620000D02*
X135820300Y-82620000D01*
X146599000Y-82620000D02*
X144698700Y-82620000D01*
G04 #@! TO.N,G15*
X146481600Y-84045900D02*
X146481600Y-85160000D01*
X146481600Y-85160000D02*
X144698700Y-85160000D01*
X146599000Y-85160000D02*
X146481600Y-85160000D01*
X135820300Y-85160000D02*
X136667300Y-86007000D01*
X136667300Y-86007000D02*
X143851700Y-86007000D01*
X143851700Y-86007000D02*
X144698700Y-85160000D01*
X134645000Y-85160000D02*
X135820300Y-85160000D01*
G04 #@! TO.N,HPWR*
X134645000Y-90240000D02*
X135820300Y-90240000D01*
X144698700Y-91065400D02*
X144698700Y-90240000D01*
X145648900Y-92780000D02*
X144698700Y-91829800D01*
X144698700Y-91829800D02*
X144698700Y-91065400D01*
X135820300Y-90240000D02*
X136645700Y-91065400D01*
X136645700Y-91065400D02*
X144698700Y-91065400D01*
X145648900Y-90240000D02*
X146599000Y-89289900D01*
X146599000Y-89289900D02*
X146599000Y-87700000D01*
X145648900Y-90240000D02*
X144698700Y-90240000D01*
X146599000Y-90240000D02*
X145648900Y-90240000D01*
X146599000Y-92780000D02*
X145648900Y-92780000D01*
G04 #@! TO.N,+BATT*
X141549000Y-92780000D02*
X139648700Y-92780000D01*
X132105000Y-92780000D02*
X133280300Y-92780000D01*
X133280300Y-92780000D02*
X133280300Y-92412700D01*
X133280300Y-92412700D02*
X134098200Y-91594800D01*
X134098200Y-91594800D02*
X138463500Y-91594800D01*
X138463500Y-91594800D02*
X139648700Y-92780000D01*
G04 #@! TO.N,+5V*
X141549000Y-90240000D02*
X139648700Y-90240000D01*
X132105000Y-90240000D02*
X133280300Y-90240000D01*
X133280300Y-90240000D02*
X133280300Y-89872700D01*
X133280300Y-89872700D02*
X134103600Y-89049400D01*
X134103600Y-89049400D02*
X138458100Y-89049400D01*
X138458100Y-89049400D02*
X139648700Y-90240000D01*
G04 #@! TO.N,G34*
X141549000Y-87700000D02*
X139648700Y-87700000D01*
X132105000Y-87700000D02*
X133280300Y-87700000D01*
X133280300Y-87700000D02*
X133280300Y-87332700D01*
X133280300Y-87332700D02*
X134119200Y-86493800D01*
X134119200Y-86493800D02*
X138442500Y-86493800D01*
X138442500Y-86493800D02*
X139648700Y-87700000D01*
G04 #@! TO.N,G0*
X141549000Y-85160000D02*
X139648700Y-85160000D01*
X132105000Y-85160000D02*
X133280300Y-85160000D01*
X133280300Y-85160000D02*
X133280300Y-84792700D01*
X133280300Y-84792700D02*
X134098300Y-83974700D01*
X134098300Y-83974700D02*
X138463400Y-83974700D01*
X138463400Y-83974700D02*
X139648700Y-85160000D01*
G04 #@! TO.N,G13*
X141549000Y-82620000D02*
X139648700Y-82620000D01*
X132105000Y-82620000D02*
X133280300Y-82620000D01*
X133280300Y-82620000D02*
X133280300Y-82252700D01*
X133280300Y-82252700D02*
X134098300Y-81434700D01*
X134098300Y-81434700D02*
X138463400Y-81434700D01*
X138463400Y-81434700D02*
X139648700Y-82620000D01*
G04 #@! TO.N,G5*
X133280300Y-80080000D02*
X133280300Y-79712600D01*
X133280300Y-79712600D02*
X134088200Y-78904700D01*
X134088200Y-78904700D02*
X138473400Y-78904700D01*
X138473400Y-78904700D02*
X139648700Y-80080000D01*
X141549000Y-80080000D02*
X139648700Y-80080000D01*
X132105000Y-80080000D02*
X133280300Y-80080000D01*
G04 #@! TO.N,G22*
X141549000Y-77540000D02*
X139648700Y-77540000D01*
X132105000Y-77540000D02*
X133280300Y-77540000D01*
X133280300Y-77540000D02*
X133280300Y-77172700D01*
X133280300Y-77172700D02*
X134098300Y-76354700D01*
X134098300Y-76354700D02*
X138463400Y-76354700D01*
X138463400Y-76354700D02*
X139648700Y-77540000D01*
G04 #@! TO.N,G17*
X141549000Y-75000000D02*
X139648700Y-75000000D01*
X132105000Y-75000000D02*
X133280300Y-75000000D01*
X133280300Y-75000000D02*
X133280300Y-74632700D01*
X133280300Y-74632700D02*
X134106400Y-73806600D01*
X134106400Y-73806600D02*
X138455300Y-73806600D01*
X138455300Y-73806600D02*
X139648700Y-75000000D01*
G04 #@! TO.N,G1*
X141549000Y-72460000D02*
X139648700Y-72460000D01*
X132105000Y-72460000D02*
X133280300Y-72460000D01*
X133280300Y-72460000D02*
X133280300Y-72092700D01*
X133280300Y-72092700D02*
X134098300Y-71274700D01*
X134098300Y-71274700D02*
X138463400Y-71274700D01*
X138463400Y-71274700D02*
X139648700Y-72460000D01*
G04 #@! TO.N,G26*
X141549000Y-67380000D02*
X139648700Y-67380000D01*
X132105000Y-67380000D02*
X133280300Y-67380000D01*
X133280300Y-67380000D02*
X133280300Y-67012700D01*
X133280300Y-67012700D02*
X134098300Y-66194700D01*
X134098300Y-66194700D02*
X138463400Y-66194700D01*
X138463400Y-66194700D02*
X139648700Y-67380000D01*
G04 #@! TO.N,G25*
X141549000Y-64840000D02*
X139648700Y-64840000D01*
X132105000Y-64840000D02*
X133280300Y-64840000D01*
X133280300Y-64840000D02*
X133280300Y-64472700D01*
X133280300Y-64472700D02*
X134098200Y-63654800D01*
X134098200Y-63654800D02*
X138463500Y-63654800D01*
X138463500Y-63654800D02*
X139648700Y-64840000D01*
G04 #@! TO.N,RST*
X141549000Y-62300000D02*
X139648700Y-62300000D01*
X132105000Y-62300000D02*
X133280300Y-62300000D01*
X133280300Y-62300000D02*
X133280300Y-61932700D01*
X133280300Y-61932700D02*
X134092800Y-61120200D01*
X134092800Y-61120200D02*
X138468900Y-61120200D01*
X138468900Y-61120200D02*
X139648700Y-62300000D01*
G04 #@! TO.N,G36*
X141549000Y-59760000D02*
X139648700Y-59760000D01*
X132105000Y-59760000D02*
X133280300Y-59760000D01*
X133280300Y-59760000D02*
X133280300Y-59392700D01*
X133280300Y-59392700D02*
X134103600Y-58569400D01*
X134103600Y-58569400D02*
X138458100Y-58569400D01*
X138458100Y-58569400D02*
X139648700Y-59760000D01*
G04 #@! TO.N,G35*
X141549000Y-57220000D02*
X139648700Y-57220000D01*
X132105000Y-57220000D02*
X133280300Y-57220000D01*
X133280300Y-57220000D02*
X133280300Y-56852700D01*
X133280300Y-56852700D02*
X134114800Y-56018200D01*
X134114800Y-56018200D02*
X138446900Y-56018200D01*
X138446900Y-56018200D02*
X139648700Y-57220000D01*
G04 #@! TO.N,+3V3*
X141549000Y-69920000D02*
X139648700Y-69920000D01*
X132105000Y-69920000D02*
X133280300Y-69920000D01*
X133280300Y-69920000D02*
X133280300Y-69552700D01*
X133280300Y-69552700D02*
X134092800Y-68740200D01*
X134092800Y-68740200D02*
X138468900Y-68740200D01*
X138468900Y-68740200D02*
X139648700Y-69920000D01*
G04 #@! TD*
D15*
G04 #@! TO.N,GND*
G36*
X147643175Y-50847265D02*
X147444569Y-50765000D01*
X146555431Y-50765000D01*
X145733974Y-51105259D01*
X145105259Y-51733974D01*
X144765000Y-52555431D01*
X144765000Y-53444569D01*
X145105259Y-54266026D01*
X145733974Y-54894741D01*
X146555431Y-55235000D01*
X147444569Y-55235000D01*
X148266026Y-54894741D01*
X148894741Y-54266026D01*
X149235000Y-53444569D01*
X149235000Y-52555431D01*
X149152736Y-52356827D01*
X149265000Y-52469092D01*
X149265001Y-97530907D01*
X149152736Y-97643173D01*
X149235000Y-97444569D01*
X149235000Y-96555431D01*
X148894741Y-95733974D01*
X148266026Y-95105259D01*
X147444569Y-94765000D01*
X146555431Y-94765000D01*
X145733974Y-95105259D01*
X145105259Y-95733974D01*
X144765000Y-96555431D01*
X144765000Y-97444569D01*
X145105259Y-98266026D01*
X145733974Y-98894741D01*
X146555431Y-99235000D01*
X147444569Y-99235000D01*
X147643175Y-99152735D01*
X147505910Y-99290000D01*
X102494092Y-99290000D01*
X102356827Y-99152736D01*
X102555431Y-99235000D01*
X103444569Y-99235000D01*
X104266026Y-98894741D01*
X104894741Y-98266026D01*
X105235000Y-97444569D01*
X105235000Y-96654887D01*
X105265000Y-96654887D01*
X105265000Y-97345113D01*
X105529138Y-97982799D01*
X106017201Y-98470862D01*
X106654887Y-98735000D01*
X107345113Y-98735000D01*
X107982799Y-98470862D01*
X108470862Y-97982799D01*
X108735000Y-97345113D01*
X108735000Y-96654887D01*
X108470862Y-96017201D01*
X107982799Y-95529138D01*
X107345113Y-95265000D01*
X106654887Y-95265000D01*
X106017201Y-95529138D01*
X105529138Y-96017201D01*
X105265000Y-96654887D01*
X105235000Y-96654887D01*
X105235000Y-96555431D01*
X104894741Y-95733974D01*
X104266026Y-95105259D01*
X103444569Y-94765000D01*
X102555431Y-94765000D01*
X101733974Y-95105259D01*
X101105259Y-95733974D01*
X100765000Y-96555431D01*
X100765000Y-97444569D01*
X100847265Y-97643175D01*
X100710000Y-97505910D01*
X100710000Y-76000000D01*
X124276091Y-76000000D01*
X124290000Y-76069926D01*
X124290001Y-97930069D01*
X124276091Y-98000000D01*
X124331195Y-98277028D01*
X124488119Y-98511881D01*
X124722972Y-98668805D01*
X124930074Y-98710000D01*
X124930075Y-98710000D01*
X125000000Y-98723909D01*
X125069926Y-98710000D01*
X126930074Y-98710000D01*
X127000000Y-98723909D01*
X127069925Y-98710000D01*
X127069926Y-98710000D01*
X127277028Y-98668805D01*
X127511881Y-98511881D01*
X127668805Y-98277028D01*
X127708587Y-98077028D01*
X127710000Y-98069926D01*
X127710000Y-98069925D01*
X127723909Y-98000000D01*
X127710000Y-97930074D01*
X127710000Y-96654887D01*
X141265000Y-96654887D01*
X141265000Y-97345113D01*
X141529138Y-97982799D01*
X142017201Y-98470862D01*
X142654887Y-98735000D01*
X143345113Y-98735000D01*
X143982799Y-98470862D01*
X144470862Y-97982799D01*
X144735000Y-97345113D01*
X144735000Y-96654887D01*
X144470862Y-96017201D01*
X143982799Y-95529138D01*
X143345113Y-95265000D01*
X142654887Y-95265000D01*
X142017201Y-95529138D01*
X141529138Y-96017201D01*
X141265000Y-96654887D01*
X127710000Y-96654887D01*
X127710000Y-76069926D01*
X127723909Y-76000000D01*
X127668805Y-75722972D01*
X127511881Y-75488119D01*
X127277028Y-75331195D01*
X127069926Y-75290000D01*
X127000000Y-75276091D01*
X126930075Y-75290000D01*
X125069925Y-75290000D01*
X125000000Y-75276091D01*
X124930074Y-75290000D01*
X124722972Y-75331195D01*
X124488119Y-75488119D01*
X124331195Y-75722972D01*
X124276091Y-76000000D01*
X100710000Y-76000000D01*
X100710000Y-52494090D01*
X100847265Y-52356825D01*
X100765000Y-52555431D01*
X100765000Y-53444569D01*
X101105259Y-54266026D01*
X101733974Y-54894741D01*
X102555431Y-55235000D01*
X103444569Y-55235000D01*
X104266026Y-54894741D01*
X104894741Y-54266026D01*
X105235000Y-53444569D01*
X105235000Y-52654887D01*
X105265000Y-52654887D01*
X105265000Y-53345113D01*
X105529138Y-53982799D01*
X106017201Y-54470862D01*
X106654887Y-54735000D01*
X107345113Y-54735000D01*
X107982799Y-54470862D01*
X108470862Y-53982799D01*
X108735000Y-53345113D01*
X108735000Y-52654887D01*
X108470862Y-52017201D01*
X108453661Y-52000000D01*
X124276091Y-52000000D01*
X124290000Y-52069926D01*
X124290001Y-73930069D01*
X124276091Y-74000000D01*
X124331195Y-74277028D01*
X124488119Y-74511881D01*
X124722972Y-74668805D01*
X124930074Y-74710000D01*
X124930075Y-74710000D01*
X125000000Y-74723909D01*
X125069926Y-74710000D01*
X126930074Y-74710000D01*
X127000000Y-74723909D01*
X127069925Y-74710000D01*
X127069926Y-74710000D01*
X127277028Y-74668805D01*
X127511881Y-74511881D01*
X127668805Y-74277028D01*
X127723909Y-74000000D01*
X127710000Y-73930074D01*
X127710000Y-59760000D01*
X130590908Y-59760000D01*
X130706161Y-60339418D01*
X131034375Y-60830625D01*
X131332761Y-61030000D01*
X131034375Y-61229375D01*
X130706161Y-61720582D01*
X130590908Y-62300000D01*
X130706161Y-62879418D01*
X131034375Y-63370625D01*
X131332761Y-63570000D01*
X131034375Y-63769375D01*
X130706161Y-64260582D01*
X130590908Y-64840000D01*
X130706161Y-65419418D01*
X131034375Y-65910625D01*
X131332761Y-66110000D01*
X131034375Y-66309375D01*
X130706161Y-66800582D01*
X130590908Y-67380000D01*
X130706161Y-67959418D01*
X131034375Y-68450625D01*
X131332761Y-68650000D01*
X131034375Y-68849375D01*
X130706161Y-69340582D01*
X130590908Y-69920000D01*
X130706161Y-70499418D01*
X131034375Y-70990625D01*
X131332761Y-71190000D01*
X131034375Y-71389375D01*
X130706161Y-71880582D01*
X130590908Y-72460000D01*
X130706161Y-73039418D01*
X131034375Y-73530625D01*
X131332761Y-73730000D01*
X131034375Y-73929375D01*
X130706161Y-74420582D01*
X130590908Y-75000000D01*
X130706161Y-75579418D01*
X131034375Y-76070625D01*
X131332761Y-76270000D01*
X131034375Y-76469375D01*
X130706161Y-76960582D01*
X130590908Y-77540000D01*
X130706161Y-78119418D01*
X131034375Y-78610625D01*
X131332761Y-78810000D01*
X131034375Y-79009375D01*
X130706161Y-79500582D01*
X130590908Y-80080000D01*
X130706161Y-80659418D01*
X131034375Y-81150625D01*
X131332761Y-81350000D01*
X131034375Y-81549375D01*
X130706161Y-82040582D01*
X130590908Y-82620000D01*
X130706161Y-83199418D01*
X131034375Y-83690625D01*
X131332761Y-83890000D01*
X131034375Y-84089375D01*
X130706161Y-84580582D01*
X130590908Y-85160000D01*
X130706161Y-85739418D01*
X131034375Y-86230625D01*
X131332761Y-86430000D01*
X131034375Y-86629375D01*
X130706161Y-87120582D01*
X130590908Y-87700000D01*
X130706161Y-88279418D01*
X131034375Y-88770625D01*
X131332761Y-88970000D01*
X131034375Y-89169375D01*
X130706161Y-89660582D01*
X130590908Y-90240000D01*
X130706161Y-90819418D01*
X131034375Y-91310625D01*
X131332761Y-91510000D01*
X131034375Y-91709375D01*
X130706161Y-92200582D01*
X130590908Y-92780000D01*
X130706161Y-93359418D01*
X131034375Y-93850625D01*
X131525582Y-94178839D01*
X131958744Y-94265000D01*
X132251256Y-94265000D01*
X132684418Y-94178839D01*
X133175625Y-93850625D01*
X133375000Y-93552239D01*
X133574375Y-93850625D01*
X134065582Y-94178839D01*
X134498744Y-94265000D01*
X134791256Y-94265000D01*
X135224418Y-94178839D01*
X135715625Y-93850625D01*
X136043839Y-93359418D01*
X136159092Y-92780000D01*
X136074515Y-92354800D01*
X138148699Y-92354800D01*
X139058371Y-93264473D01*
X139100771Y-93327929D01*
X139352163Y-93495904D01*
X139370220Y-93499496D01*
X139375843Y-93527765D01*
X139516191Y-93737809D01*
X139726235Y-93878157D01*
X139974000Y-93927440D01*
X143124000Y-93927440D01*
X143371765Y-93878157D01*
X143581809Y-93737809D01*
X143722157Y-93527765D01*
X143771440Y-93280000D01*
X143771440Y-92280000D01*
X143722157Y-92032235D01*
X143583953Y-91825400D01*
X143924687Y-91825400D01*
X143923812Y-91829800D01*
X143938700Y-91904647D01*
X143938700Y-91904651D01*
X143982796Y-92126336D01*
X144150771Y-92377729D01*
X144214230Y-92420131D01*
X144376560Y-92582461D01*
X144376560Y-93280000D01*
X144425843Y-93527765D01*
X144566191Y-93737809D01*
X144776235Y-93878157D01*
X145024000Y-93927440D01*
X148174000Y-93927440D01*
X148421765Y-93878157D01*
X148631809Y-93737809D01*
X148772157Y-93527765D01*
X148821440Y-93280000D01*
X148821440Y-92280000D01*
X148772157Y-92032235D01*
X148631809Y-91822191D01*
X148421765Y-91681843D01*
X148174000Y-91632560D01*
X145576261Y-91632560D01*
X145458700Y-91514999D01*
X145458700Y-91387440D01*
X148174000Y-91387440D01*
X148421765Y-91338157D01*
X148631809Y-91197809D01*
X148772157Y-90987765D01*
X148821440Y-90740000D01*
X148821440Y-89740000D01*
X148772157Y-89492235D01*
X148631809Y-89282191D01*
X148421765Y-89141843D01*
X148174000Y-89092560D01*
X147359000Y-89092560D01*
X147359000Y-88847440D01*
X148174000Y-88847440D01*
X148421765Y-88798157D01*
X148631809Y-88657809D01*
X148772157Y-88447765D01*
X148821440Y-88200000D01*
X148821440Y-87200000D01*
X148772157Y-86952235D01*
X148631809Y-86742191D01*
X148421765Y-86601843D01*
X148174000Y-86552560D01*
X145024000Y-86552560D01*
X144776235Y-86601843D01*
X144566191Y-86742191D01*
X144425843Y-86952235D01*
X144376560Y-87200000D01*
X144376560Y-87920929D01*
X144289820Y-87885000D01*
X143858180Y-87885000D01*
X143771440Y-87920929D01*
X143771440Y-87200000D01*
X143722157Y-86952235D01*
X143598386Y-86767000D01*
X143776853Y-86767000D01*
X143851700Y-86781888D01*
X143926547Y-86767000D01*
X143926552Y-86767000D01*
X144148237Y-86722904D01*
X144399629Y-86554929D01*
X144442031Y-86491470D01*
X144715756Y-86217746D01*
X144776235Y-86258157D01*
X145024000Y-86307440D01*
X148174000Y-86307440D01*
X148421765Y-86258157D01*
X148631809Y-86117809D01*
X148772157Y-85907765D01*
X148821440Y-85660000D01*
X148821440Y-84660000D01*
X148772157Y-84412235D01*
X148631809Y-84202191D01*
X148421765Y-84061843D01*
X148174000Y-84012560D01*
X147516600Y-84012560D01*
X147516600Y-83840026D01*
X147486534Y-83767440D01*
X148174000Y-83767440D01*
X148421765Y-83718157D01*
X148631809Y-83577809D01*
X148772157Y-83367765D01*
X148821440Y-83120000D01*
X148821440Y-82120000D01*
X148772157Y-81872235D01*
X148631809Y-81662191D01*
X148421765Y-81521843D01*
X148174000Y-81472560D01*
X145024000Y-81472560D01*
X144776235Y-81521843D01*
X144566191Y-81662191D01*
X144425843Y-81872235D01*
X144420220Y-81900504D01*
X144402163Y-81904096D01*
X144379599Y-81919173D01*
X144214226Y-82029671D01*
X144214224Y-82029673D01*
X144150771Y-82072071D01*
X144108373Y-82135525D01*
X143771440Y-82472458D01*
X143771440Y-82120000D01*
X143722157Y-81872235D01*
X143583886Y-81665300D01*
X143798553Y-81665300D01*
X143873400Y-81680188D01*
X143948247Y-81665300D01*
X143948252Y-81665300D01*
X144169937Y-81621204D01*
X144421329Y-81453229D01*
X144463731Y-81389771D01*
X144715756Y-81137746D01*
X144776235Y-81178157D01*
X145024000Y-81227440D01*
X148174000Y-81227440D01*
X148421765Y-81178157D01*
X148631809Y-81037809D01*
X148772157Y-80827765D01*
X148821440Y-80580000D01*
X148821440Y-79580000D01*
X148772157Y-79332235D01*
X148631809Y-79122191D01*
X148421765Y-78981843D01*
X148174000Y-78932560D01*
X145024000Y-78932560D01*
X144776235Y-78981843D01*
X144566191Y-79122191D01*
X144425843Y-79332235D01*
X144420220Y-79360504D01*
X144402163Y-79364096D01*
X144402161Y-79364097D01*
X144402162Y-79364097D01*
X144214226Y-79489671D01*
X144214224Y-79489673D01*
X144150771Y-79532071D01*
X144108373Y-79595525D01*
X143771440Y-79932458D01*
X143771440Y-79580000D01*
X143722157Y-79332235D01*
X143583886Y-79125300D01*
X143798553Y-79125300D01*
X143873400Y-79140188D01*
X143948247Y-79125300D01*
X143948252Y-79125300D01*
X144169937Y-79081204D01*
X144421329Y-78913229D01*
X144463731Y-78849771D01*
X144715756Y-78597746D01*
X144776235Y-78638157D01*
X145024000Y-78687440D01*
X148174000Y-78687440D01*
X148421765Y-78638157D01*
X148631809Y-78497809D01*
X148772157Y-78287765D01*
X148821440Y-78040000D01*
X148821440Y-77040000D01*
X148772157Y-76792235D01*
X148631809Y-76582191D01*
X148421765Y-76441843D01*
X148174000Y-76392560D01*
X145024000Y-76392560D01*
X144776235Y-76441843D01*
X144566191Y-76582191D01*
X144425843Y-76792235D01*
X144420220Y-76820504D01*
X144402163Y-76824096D01*
X144379599Y-76839173D01*
X144214226Y-76949671D01*
X144214224Y-76949673D01*
X144150771Y-76992071D01*
X144108373Y-77055525D01*
X143771440Y-77392458D01*
X143771440Y-77040000D01*
X143722157Y-76792235D01*
X143583886Y-76585300D01*
X143798553Y-76585300D01*
X143873400Y-76600188D01*
X143948247Y-76585300D01*
X143948252Y-76585300D01*
X144169937Y-76541204D01*
X144421329Y-76373229D01*
X144463731Y-76309771D01*
X144715756Y-76057746D01*
X144776235Y-76098157D01*
X145024000Y-76147440D01*
X148174000Y-76147440D01*
X148421765Y-76098157D01*
X148631809Y-75957809D01*
X148772157Y-75747765D01*
X148821440Y-75500000D01*
X148821440Y-74500000D01*
X148772157Y-74252235D01*
X148631809Y-74042191D01*
X148421765Y-73901843D01*
X148174000Y-73852560D01*
X145024000Y-73852560D01*
X144776235Y-73901843D01*
X144566191Y-74042191D01*
X144425843Y-74252235D01*
X144420220Y-74280504D01*
X144402163Y-74284096D01*
X144388083Y-74293504D01*
X144214226Y-74409671D01*
X144214224Y-74409673D01*
X144150771Y-74452071D01*
X144108373Y-74515525D01*
X143771440Y-74852458D01*
X143771440Y-74500000D01*
X143722157Y-74252235D01*
X143583886Y-74045300D01*
X143798553Y-74045300D01*
X143873400Y-74060188D01*
X143948247Y-74045300D01*
X143948252Y-74045300D01*
X144169937Y-74001204D01*
X144421329Y-73833229D01*
X144463731Y-73769771D01*
X144715756Y-73517746D01*
X144776235Y-73558157D01*
X145024000Y-73607440D01*
X148174000Y-73607440D01*
X148421765Y-73558157D01*
X148631809Y-73417809D01*
X148772157Y-73207765D01*
X148821440Y-72960000D01*
X148821440Y-71960000D01*
X148772157Y-71712235D01*
X148631809Y-71502191D01*
X148421765Y-71361843D01*
X148174000Y-71312560D01*
X145024000Y-71312560D01*
X144776235Y-71361843D01*
X144566191Y-71502191D01*
X144425843Y-71712235D01*
X144420220Y-71740504D01*
X144402163Y-71744096D01*
X144379599Y-71759173D01*
X144214226Y-71869671D01*
X144214224Y-71869673D01*
X144150771Y-71912071D01*
X144108373Y-71975525D01*
X143771440Y-72312458D01*
X143771440Y-71960000D01*
X143722157Y-71712235D01*
X143583886Y-71505300D01*
X143798553Y-71505300D01*
X143873400Y-71520188D01*
X143948247Y-71505300D01*
X143948252Y-71505300D01*
X144169937Y-71461204D01*
X144421329Y-71293229D01*
X144463731Y-71229771D01*
X144715756Y-70977746D01*
X144776235Y-71018157D01*
X145024000Y-71067440D01*
X148174000Y-71067440D01*
X148421765Y-71018157D01*
X148631809Y-70877809D01*
X148772157Y-70667765D01*
X148821440Y-70420000D01*
X148821440Y-69420000D01*
X148772157Y-69172235D01*
X148631809Y-68962191D01*
X148421765Y-68821843D01*
X148174000Y-68772560D01*
X145024000Y-68772560D01*
X144776235Y-68821843D01*
X144566191Y-68962191D01*
X144425843Y-69172235D01*
X144420220Y-69200504D01*
X144402163Y-69204096D01*
X144339602Y-69245898D01*
X144214226Y-69329671D01*
X144214224Y-69329673D01*
X144150771Y-69372071D01*
X144108373Y-69435525D01*
X143771440Y-69772458D01*
X143771440Y-69420000D01*
X143722157Y-69172235D01*
X143583886Y-68965300D01*
X143798553Y-68965300D01*
X143873400Y-68980188D01*
X143948247Y-68965300D01*
X143948252Y-68965300D01*
X144169937Y-68921204D01*
X144421329Y-68753229D01*
X144463731Y-68689771D01*
X144715756Y-68437746D01*
X144776235Y-68478157D01*
X145024000Y-68527440D01*
X148174000Y-68527440D01*
X148421765Y-68478157D01*
X148631809Y-68337809D01*
X148772157Y-68127765D01*
X148821440Y-67880000D01*
X148821440Y-66880000D01*
X148772157Y-66632235D01*
X148631809Y-66422191D01*
X148421765Y-66281843D01*
X148174000Y-66232560D01*
X145024000Y-66232560D01*
X144776235Y-66281843D01*
X144566191Y-66422191D01*
X144425843Y-66632235D01*
X144420220Y-66660504D01*
X144402163Y-66664096D01*
X144379599Y-66679173D01*
X144214226Y-66789671D01*
X144214224Y-66789673D01*
X144150771Y-66832071D01*
X144108373Y-66895525D01*
X143771440Y-67232458D01*
X143771440Y-66880000D01*
X143722157Y-66632235D01*
X143583886Y-66425300D01*
X143798553Y-66425300D01*
X143873400Y-66440188D01*
X143948247Y-66425300D01*
X143948252Y-66425300D01*
X144169937Y-66381204D01*
X144421329Y-66213229D01*
X144463731Y-66149771D01*
X144715756Y-65897746D01*
X144776235Y-65938157D01*
X145024000Y-65987440D01*
X148174000Y-65987440D01*
X148421765Y-65938157D01*
X148631809Y-65797809D01*
X148772157Y-65587765D01*
X148821440Y-65340000D01*
X148821440Y-64340000D01*
X148772157Y-64092235D01*
X148631809Y-63882191D01*
X148421765Y-63741843D01*
X148174000Y-63692560D01*
X145024000Y-63692560D01*
X144776235Y-63741843D01*
X144566191Y-63882191D01*
X144425843Y-64092235D01*
X144420220Y-64120504D01*
X144402163Y-64124096D01*
X144402161Y-64124097D01*
X144402162Y-64124097D01*
X144214226Y-64249671D01*
X144214224Y-64249673D01*
X144150771Y-64292071D01*
X144108373Y-64355525D01*
X143771440Y-64692458D01*
X143771440Y-64340000D01*
X143722157Y-64092235D01*
X143581809Y-63882191D01*
X143371765Y-63741843D01*
X143124000Y-63692560D01*
X139974000Y-63692560D01*
X139726235Y-63741843D01*
X139665756Y-63782254D01*
X139053831Y-63170330D01*
X139011429Y-63106871D01*
X138760037Y-62938896D01*
X138538352Y-62894800D01*
X138538347Y-62894800D01*
X138463500Y-62879912D01*
X138388653Y-62894800D01*
X135987937Y-62894800D01*
X136086476Y-62656890D01*
X135965155Y-62427000D01*
X134772000Y-62427000D01*
X134772000Y-62447000D01*
X134518000Y-62447000D01*
X134518000Y-62427000D01*
X134498000Y-62427000D01*
X134498000Y-62173000D01*
X134518000Y-62173000D01*
X134518000Y-62153000D01*
X134772000Y-62153000D01*
X134772000Y-62173000D01*
X135965155Y-62173000D01*
X136086476Y-61943110D01*
X136060419Y-61880200D01*
X138154099Y-61880200D01*
X139058371Y-62784473D01*
X139100771Y-62847929D01*
X139352163Y-63015904D01*
X139370220Y-63019496D01*
X139375843Y-63047765D01*
X139516191Y-63257809D01*
X139726235Y-63398157D01*
X139974000Y-63447440D01*
X143124000Y-63447440D01*
X143371765Y-63398157D01*
X143581809Y-63257809D01*
X143722157Y-63047765D01*
X143771440Y-62800000D01*
X143771440Y-62585750D01*
X144389000Y-62585750D01*
X144389000Y-62926310D01*
X144485673Y-63159699D01*
X144664302Y-63338327D01*
X144897691Y-63435000D01*
X146313250Y-63435000D01*
X146472000Y-63276250D01*
X146472000Y-62427000D01*
X146726000Y-62427000D01*
X146726000Y-63276250D01*
X146884750Y-63435000D01*
X148300309Y-63435000D01*
X148533698Y-63338327D01*
X148712327Y-63159699D01*
X148809000Y-62926310D01*
X148809000Y-62585750D01*
X148650250Y-62427000D01*
X146726000Y-62427000D01*
X146472000Y-62427000D01*
X144547750Y-62427000D01*
X144389000Y-62585750D01*
X143771440Y-62585750D01*
X143771440Y-62079071D01*
X143858180Y-62115000D01*
X144289820Y-62115000D01*
X144431192Y-62056442D01*
X144547750Y-62173000D01*
X146472000Y-62173000D01*
X146472000Y-61323750D01*
X146726000Y-61323750D01*
X146726000Y-62173000D01*
X148650250Y-62173000D01*
X148809000Y-62014250D01*
X148809000Y-61673690D01*
X148712327Y-61440301D01*
X148533698Y-61261673D01*
X148300309Y-61165000D01*
X146884750Y-61165000D01*
X146726000Y-61323750D01*
X146472000Y-61323750D01*
X146313250Y-61165000D01*
X145159000Y-61165000D01*
X145159000Y-60895000D01*
X146313250Y-60895000D01*
X146472000Y-60736250D01*
X146472000Y-59887000D01*
X146726000Y-59887000D01*
X146726000Y-60736250D01*
X146884750Y-60895000D01*
X148300309Y-60895000D01*
X148533698Y-60798327D01*
X148712327Y-60619699D01*
X148809000Y-60386310D01*
X148809000Y-60045750D01*
X148650250Y-59887000D01*
X146726000Y-59887000D01*
X146472000Y-59887000D01*
X144547750Y-59887000D01*
X144431192Y-60003558D01*
X144289820Y-59945000D01*
X143858180Y-59945000D01*
X143771440Y-59980929D01*
X143771440Y-59260000D01*
X143746316Y-59133690D01*
X144389000Y-59133690D01*
X144389000Y-59474250D01*
X144547750Y-59633000D01*
X146472000Y-59633000D01*
X146472000Y-58783750D01*
X146726000Y-58783750D01*
X146726000Y-59633000D01*
X148650250Y-59633000D01*
X148809000Y-59474250D01*
X148809000Y-59133690D01*
X148712327Y-58900301D01*
X148533698Y-58721673D01*
X148300309Y-58625000D01*
X146884750Y-58625000D01*
X146726000Y-58783750D01*
X146472000Y-58783750D01*
X146313250Y-58625000D01*
X144897691Y-58625000D01*
X144664302Y-58721673D01*
X144485673Y-58900301D01*
X144389000Y-59133690D01*
X143746316Y-59133690D01*
X143722157Y-59012235D01*
X143581809Y-58802191D01*
X143371765Y-58661843D01*
X143124000Y-58612560D01*
X139974000Y-58612560D01*
X139726235Y-58661843D01*
X139665756Y-58702254D01*
X139048431Y-58084930D01*
X139006029Y-58021471D01*
X138754637Y-57853496D01*
X138532952Y-57809400D01*
X138532947Y-57809400D01*
X138458100Y-57794512D01*
X138383253Y-57809400D01*
X135990173Y-57809400D01*
X136086476Y-57576890D01*
X135965155Y-57347000D01*
X134772000Y-57347000D01*
X134772000Y-57367000D01*
X134518000Y-57367000D01*
X134518000Y-57347000D01*
X134498000Y-57347000D01*
X134498000Y-57093000D01*
X134518000Y-57093000D01*
X134518000Y-57073000D01*
X134772000Y-57073000D01*
X134772000Y-57093000D01*
X135965155Y-57093000D01*
X136086476Y-56863110D01*
X136051307Y-56778200D01*
X138132099Y-56778200D01*
X139058371Y-57704473D01*
X139100771Y-57767929D01*
X139352163Y-57935904D01*
X139370220Y-57939496D01*
X139375843Y-57967765D01*
X139516191Y-58177809D01*
X139726235Y-58318157D01*
X139974000Y-58367440D01*
X143124000Y-58367440D01*
X143371765Y-58318157D01*
X143581809Y-58177809D01*
X143722157Y-57967765D01*
X143771440Y-57720000D01*
X143771440Y-57505750D01*
X144389000Y-57505750D01*
X144389000Y-57846310D01*
X144485673Y-58079699D01*
X144664302Y-58258327D01*
X144897691Y-58355000D01*
X146313250Y-58355000D01*
X146472000Y-58196250D01*
X146472000Y-57347000D01*
X146726000Y-57347000D01*
X146726000Y-58196250D01*
X146884750Y-58355000D01*
X148300309Y-58355000D01*
X148533698Y-58258327D01*
X148712327Y-58079699D01*
X148809000Y-57846310D01*
X148809000Y-57505750D01*
X148650250Y-57347000D01*
X146726000Y-57347000D01*
X146472000Y-57347000D01*
X144547750Y-57347000D01*
X144389000Y-57505750D01*
X143771440Y-57505750D01*
X143771440Y-56720000D01*
X143746316Y-56593690D01*
X144389000Y-56593690D01*
X144389000Y-56934250D01*
X144547750Y-57093000D01*
X146472000Y-57093000D01*
X146472000Y-56243750D01*
X146726000Y-56243750D01*
X146726000Y-57093000D01*
X148650250Y-57093000D01*
X148809000Y-56934250D01*
X148809000Y-56593690D01*
X148712327Y-56360301D01*
X148533698Y-56181673D01*
X148300309Y-56085000D01*
X146884750Y-56085000D01*
X146726000Y-56243750D01*
X146472000Y-56243750D01*
X146313250Y-56085000D01*
X144897691Y-56085000D01*
X144664302Y-56181673D01*
X144485673Y-56360301D01*
X144389000Y-56593690D01*
X143746316Y-56593690D01*
X143722157Y-56472235D01*
X143581809Y-56262191D01*
X143371765Y-56121843D01*
X143124000Y-56072560D01*
X139974000Y-56072560D01*
X139726235Y-56121843D01*
X139665756Y-56162254D01*
X139037231Y-55533730D01*
X138994829Y-55470271D01*
X138743437Y-55302296D01*
X138521752Y-55258200D01*
X138521747Y-55258200D01*
X138446900Y-55243312D01*
X138372053Y-55258200D01*
X134189646Y-55258200D01*
X134114799Y-55243312D01*
X134039952Y-55258200D01*
X134039948Y-55258200D01*
X133818263Y-55302296D01*
X133566871Y-55470271D01*
X133524471Y-55533727D01*
X133252874Y-55805325D01*
X133202765Y-55771843D01*
X132955000Y-55722560D01*
X131255000Y-55722560D01*
X131007235Y-55771843D01*
X130797191Y-55912191D01*
X130656843Y-56122235D01*
X130607560Y-56370000D01*
X130607560Y-58070000D01*
X130656843Y-58317765D01*
X130797191Y-58527809D01*
X131007235Y-58668157D01*
X131052619Y-58677184D01*
X131034375Y-58689375D01*
X130706161Y-59180582D01*
X130590908Y-59760000D01*
X127710000Y-59760000D01*
X127710000Y-52654887D01*
X141265000Y-52654887D01*
X141265000Y-53345113D01*
X141529138Y-53982799D01*
X142017201Y-54470862D01*
X142654887Y-54735000D01*
X143345113Y-54735000D01*
X143982799Y-54470862D01*
X144470862Y-53982799D01*
X144735000Y-53345113D01*
X144735000Y-52654887D01*
X144470862Y-52017201D01*
X143982799Y-51529138D01*
X143345113Y-51265000D01*
X142654887Y-51265000D01*
X142017201Y-51529138D01*
X141529138Y-52017201D01*
X141265000Y-52654887D01*
X127710000Y-52654887D01*
X127710000Y-52069926D01*
X127723909Y-52000000D01*
X127668805Y-51722972D01*
X127511881Y-51488119D01*
X127277028Y-51331195D01*
X127069926Y-51290000D01*
X127000000Y-51276091D01*
X126930075Y-51290000D01*
X125069925Y-51290000D01*
X125000000Y-51276091D01*
X124930074Y-51290000D01*
X124722972Y-51331195D01*
X124488119Y-51488119D01*
X124331195Y-51722972D01*
X124276091Y-52000000D01*
X108453661Y-52000000D01*
X107982799Y-51529138D01*
X107345113Y-51265000D01*
X106654887Y-51265000D01*
X106017201Y-51529138D01*
X105529138Y-52017201D01*
X105265000Y-52654887D01*
X105235000Y-52654887D01*
X105235000Y-52555431D01*
X104894741Y-51733974D01*
X104266026Y-51105259D01*
X103444569Y-50765000D01*
X102555431Y-50765000D01*
X102356827Y-50847264D01*
X102494092Y-50710000D01*
X147505910Y-50710000D01*
X147643175Y-50847265D01*
X147643175Y-50847265D01*
G37*
X147643175Y-50847265D02*
X147444569Y-50765000D01*
X146555431Y-50765000D01*
X145733974Y-51105259D01*
X145105259Y-51733974D01*
X144765000Y-52555431D01*
X144765000Y-53444569D01*
X145105259Y-54266026D01*
X145733974Y-54894741D01*
X146555431Y-55235000D01*
X147444569Y-55235000D01*
X148266026Y-54894741D01*
X148894741Y-54266026D01*
X149235000Y-53444569D01*
X149235000Y-52555431D01*
X149152736Y-52356827D01*
X149265000Y-52469092D01*
X149265001Y-97530907D01*
X149152736Y-97643173D01*
X149235000Y-97444569D01*
X149235000Y-96555431D01*
X148894741Y-95733974D01*
X148266026Y-95105259D01*
X147444569Y-94765000D01*
X146555431Y-94765000D01*
X145733974Y-95105259D01*
X145105259Y-95733974D01*
X144765000Y-96555431D01*
X144765000Y-97444569D01*
X145105259Y-98266026D01*
X145733974Y-98894741D01*
X146555431Y-99235000D01*
X147444569Y-99235000D01*
X147643175Y-99152735D01*
X147505910Y-99290000D01*
X102494092Y-99290000D01*
X102356827Y-99152736D01*
X102555431Y-99235000D01*
X103444569Y-99235000D01*
X104266026Y-98894741D01*
X104894741Y-98266026D01*
X105235000Y-97444569D01*
X105235000Y-96654887D01*
X105265000Y-96654887D01*
X105265000Y-97345113D01*
X105529138Y-97982799D01*
X106017201Y-98470862D01*
X106654887Y-98735000D01*
X107345113Y-98735000D01*
X107982799Y-98470862D01*
X108470862Y-97982799D01*
X108735000Y-97345113D01*
X108735000Y-96654887D01*
X108470862Y-96017201D01*
X107982799Y-95529138D01*
X107345113Y-95265000D01*
X106654887Y-95265000D01*
X106017201Y-95529138D01*
X105529138Y-96017201D01*
X105265000Y-96654887D01*
X105235000Y-96654887D01*
X105235000Y-96555431D01*
X104894741Y-95733974D01*
X104266026Y-95105259D01*
X103444569Y-94765000D01*
X102555431Y-94765000D01*
X101733974Y-95105259D01*
X101105259Y-95733974D01*
X100765000Y-96555431D01*
X100765000Y-97444569D01*
X100847265Y-97643175D01*
X100710000Y-97505910D01*
X100710000Y-76000000D01*
X124276091Y-76000000D01*
X124290000Y-76069926D01*
X124290001Y-97930069D01*
X124276091Y-98000000D01*
X124331195Y-98277028D01*
X124488119Y-98511881D01*
X124722972Y-98668805D01*
X124930074Y-98710000D01*
X124930075Y-98710000D01*
X125000000Y-98723909D01*
X125069926Y-98710000D01*
X126930074Y-98710000D01*
X127000000Y-98723909D01*
X127069925Y-98710000D01*
X127069926Y-98710000D01*
X127277028Y-98668805D01*
X127511881Y-98511881D01*
X127668805Y-98277028D01*
X127708587Y-98077028D01*
X127710000Y-98069926D01*
X127710000Y-98069925D01*
X127723909Y-98000000D01*
X127710000Y-97930074D01*
X127710000Y-96654887D01*
X141265000Y-96654887D01*
X141265000Y-97345113D01*
X141529138Y-97982799D01*
X142017201Y-98470862D01*
X142654887Y-98735000D01*
X143345113Y-98735000D01*
X143982799Y-98470862D01*
X144470862Y-97982799D01*
X144735000Y-97345113D01*
X144735000Y-96654887D01*
X144470862Y-96017201D01*
X143982799Y-95529138D01*
X143345113Y-95265000D01*
X142654887Y-95265000D01*
X142017201Y-95529138D01*
X141529138Y-96017201D01*
X141265000Y-96654887D01*
X127710000Y-96654887D01*
X127710000Y-76069926D01*
X127723909Y-76000000D01*
X127668805Y-75722972D01*
X127511881Y-75488119D01*
X127277028Y-75331195D01*
X127069926Y-75290000D01*
X127000000Y-75276091D01*
X126930075Y-75290000D01*
X125069925Y-75290000D01*
X125000000Y-75276091D01*
X124930074Y-75290000D01*
X124722972Y-75331195D01*
X124488119Y-75488119D01*
X124331195Y-75722972D01*
X124276091Y-76000000D01*
X100710000Y-76000000D01*
X100710000Y-52494090D01*
X100847265Y-52356825D01*
X100765000Y-52555431D01*
X100765000Y-53444569D01*
X101105259Y-54266026D01*
X101733974Y-54894741D01*
X102555431Y-55235000D01*
X103444569Y-55235000D01*
X104266026Y-54894741D01*
X104894741Y-54266026D01*
X105235000Y-53444569D01*
X105235000Y-52654887D01*
X105265000Y-52654887D01*
X105265000Y-53345113D01*
X105529138Y-53982799D01*
X106017201Y-54470862D01*
X106654887Y-54735000D01*
X107345113Y-54735000D01*
X107982799Y-54470862D01*
X108470862Y-53982799D01*
X108735000Y-53345113D01*
X108735000Y-52654887D01*
X108470862Y-52017201D01*
X108453661Y-52000000D01*
X124276091Y-52000000D01*
X124290000Y-52069926D01*
X124290001Y-73930069D01*
X124276091Y-74000000D01*
X124331195Y-74277028D01*
X124488119Y-74511881D01*
X124722972Y-74668805D01*
X124930074Y-74710000D01*
X124930075Y-74710000D01*
X125000000Y-74723909D01*
X125069926Y-74710000D01*
X126930074Y-74710000D01*
X127000000Y-74723909D01*
X127069925Y-74710000D01*
X127069926Y-74710000D01*
X127277028Y-74668805D01*
X127511881Y-74511881D01*
X127668805Y-74277028D01*
X127723909Y-74000000D01*
X127710000Y-73930074D01*
X127710000Y-59760000D01*
X130590908Y-59760000D01*
X130706161Y-60339418D01*
X131034375Y-60830625D01*
X131332761Y-61030000D01*
X131034375Y-61229375D01*
X130706161Y-61720582D01*
X130590908Y-62300000D01*
X130706161Y-62879418D01*
X131034375Y-63370625D01*
X131332761Y-63570000D01*
X131034375Y-63769375D01*
X130706161Y-64260582D01*
X130590908Y-64840000D01*
X130706161Y-65419418D01*
X131034375Y-65910625D01*
X131332761Y-66110000D01*
X131034375Y-66309375D01*
X130706161Y-66800582D01*
X130590908Y-67380000D01*
X130706161Y-67959418D01*
X131034375Y-68450625D01*
X131332761Y-68650000D01*
X131034375Y-68849375D01*
X130706161Y-69340582D01*
X130590908Y-69920000D01*
X130706161Y-70499418D01*
X131034375Y-70990625D01*
X131332761Y-71190000D01*
X131034375Y-71389375D01*
X130706161Y-71880582D01*
X130590908Y-72460000D01*
X130706161Y-73039418D01*
X131034375Y-73530625D01*
X131332761Y-73730000D01*
X131034375Y-73929375D01*
X130706161Y-74420582D01*
X130590908Y-75000000D01*
X130706161Y-75579418D01*
X131034375Y-76070625D01*
X131332761Y-76270000D01*
X131034375Y-76469375D01*
X130706161Y-76960582D01*
X130590908Y-77540000D01*
X130706161Y-78119418D01*
X131034375Y-78610625D01*
X131332761Y-78810000D01*
X131034375Y-79009375D01*
X130706161Y-79500582D01*
X130590908Y-80080000D01*
X130706161Y-80659418D01*
X131034375Y-81150625D01*
X131332761Y-81350000D01*
X131034375Y-81549375D01*
X130706161Y-82040582D01*
X130590908Y-82620000D01*
X130706161Y-83199418D01*
X131034375Y-83690625D01*
X131332761Y-83890000D01*
X131034375Y-84089375D01*
X130706161Y-84580582D01*
X130590908Y-85160000D01*
X130706161Y-85739418D01*
X131034375Y-86230625D01*
X131332761Y-86430000D01*
X131034375Y-86629375D01*
X130706161Y-87120582D01*
X130590908Y-87700000D01*
X130706161Y-88279418D01*
X131034375Y-88770625D01*
X131332761Y-88970000D01*
X131034375Y-89169375D01*
X130706161Y-89660582D01*
X130590908Y-90240000D01*
X130706161Y-90819418D01*
X131034375Y-91310625D01*
X131332761Y-91510000D01*
X131034375Y-91709375D01*
X130706161Y-92200582D01*
X130590908Y-92780000D01*
X130706161Y-93359418D01*
X131034375Y-93850625D01*
X131525582Y-94178839D01*
X131958744Y-94265000D01*
X132251256Y-94265000D01*
X132684418Y-94178839D01*
X133175625Y-93850625D01*
X133375000Y-93552239D01*
X133574375Y-93850625D01*
X134065582Y-94178839D01*
X134498744Y-94265000D01*
X134791256Y-94265000D01*
X135224418Y-94178839D01*
X135715625Y-93850625D01*
X136043839Y-93359418D01*
X136159092Y-92780000D01*
X136074515Y-92354800D01*
X138148699Y-92354800D01*
X139058371Y-93264473D01*
X139100771Y-93327929D01*
X139352163Y-93495904D01*
X139370220Y-93499496D01*
X139375843Y-93527765D01*
X139516191Y-93737809D01*
X139726235Y-93878157D01*
X139974000Y-93927440D01*
X143124000Y-93927440D01*
X143371765Y-93878157D01*
X143581809Y-93737809D01*
X143722157Y-93527765D01*
X143771440Y-93280000D01*
X143771440Y-92280000D01*
X143722157Y-92032235D01*
X143583953Y-91825400D01*
X143924687Y-91825400D01*
X143923812Y-91829800D01*
X143938700Y-91904647D01*
X143938700Y-91904651D01*
X143982796Y-92126336D01*
X144150771Y-92377729D01*
X144214230Y-92420131D01*
X144376560Y-92582461D01*
X144376560Y-93280000D01*
X144425843Y-93527765D01*
X144566191Y-93737809D01*
X144776235Y-93878157D01*
X145024000Y-93927440D01*
X148174000Y-93927440D01*
X148421765Y-93878157D01*
X148631809Y-93737809D01*
X148772157Y-93527765D01*
X148821440Y-93280000D01*
X148821440Y-92280000D01*
X148772157Y-92032235D01*
X148631809Y-91822191D01*
X148421765Y-91681843D01*
X148174000Y-91632560D01*
X145576261Y-91632560D01*
X145458700Y-91514999D01*
X145458700Y-91387440D01*
X148174000Y-91387440D01*
X148421765Y-91338157D01*
X148631809Y-91197809D01*
X148772157Y-90987765D01*
X148821440Y-90740000D01*
X148821440Y-89740000D01*
X148772157Y-89492235D01*
X148631809Y-89282191D01*
X148421765Y-89141843D01*
X148174000Y-89092560D01*
X147359000Y-89092560D01*
X147359000Y-88847440D01*
X148174000Y-88847440D01*
X148421765Y-88798157D01*
X148631809Y-88657809D01*
X148772157Y-88447765D01*
X148821440Y-88200000D01*
X148821440Y-87200000D01*
X148772157Y-86952235D01*
X148631809Y-86742191D01*
X148421765Y-86601843D01*
X148174000Y-86552560D01*
X145024000Y-86552560D01*
X144776235Y-86601843D01*
X144566191Y-86742191D01*
X144425843Y-86952235D01*
X144376560Y-87200000D01*
X144376560Y-87920929D01*
X144289820Y-87885000D01*
X143858180Y-87885000D01*
X143771440Y-87920929D01*
X143771440Y-87200000D01*
X143722157Y-86952235D01*
X143598386Y-86767000D01*
X143776853Y-86767000D01*
X143851700Y-86781888D01*
X143926547Y-86767000D01*
X143926552Y-86767000D01*
X144148237Y-86722904D01*
X144399629Y-86554929D01*
X144442031Y-86491470D01*
X144715756Y-86217746D01*
X144776235Y-86258157D01*
X145024000Y-86307440D01*
X148174000Y-86307440D01*
X148421765Y-86258157D01*
X148631809Y-86117809D01*
X148772157Y-85907765D01*
X148821440Y-85660000D01*
X148821440Y-84660000D01*
X148772157Y-84412235D01*
X148631809Y-84202191D01*
X148421765Y-84061843D01*
X148174000Y-84012560D01*
X147516600Y-84012560D01*
X147516600Y-83840026D01*
X147486534Y-83767440D01*
X148174000Y-83767440D01*
X148421765Y-83718157D01*
X148631809Y-83577809D01*
X148772157Y-83367765D01*
X148821440Y-83120000D01*
X148821440Y-82120000D01*
X148772157Y-81872235D01*
X148631809Y-81662191D01*
X148421765Y-81521843D01*
X148174000Y-81472560D01*
X145024000Y-81472560D01*
X144776235Y-81521843D01*
X144566191Y-81662191D01*
X144425843Y-81872235D01*
X144420220Y-81900504D01*
X144402163Y-81904096D01*
X144379599Y-81919173D01*
X144214226Y-82029671D01*
X144214224Y-82029673D01*
X144150771Y-82072071D01*
X144108373Y-82135525D01*
X143771440Y-82472458D01*
X143771440Y-82120000D01*
X143722157Y-81872235D01*
X143583886Y-81665300D01*
X143798553Y-81665300D01*
X143873400Y-81680188D01*
X143948247Y-81665300D01*
X143948252Y-81665300D01*
X144169937Y-81621204D01*
X144421329Y-81453229D01*
X144463731Y-81389771D01*
X144715756Y-81137746D01*
X144776235Y-81178157D01*
X145024000Y-81227440D01*
X148174000Y-81227440D01*
X148421765Y-81178157D01*
X148631809Y-81037809D01*
X148772157Y-80827765D01*
X148821440Y-80580000D01*
X148821440Y-79580000D01*
X148772157Y-79332235D01*
X148631809Y-79122191D01*
X148421765Y-78981843D01*
X148174000Y-78932560D01*
X145024000Y-78932560D01*
X144776235Y-78981843D01*
X144566191Y-79122191D01*
X144425843Y-79332235D01*
X144420220Y-79360504D01*
X144402163Y-79364096D01*
X144402161Y-79364097D01*
X144402162Y-79364097D01*
X144214226Y-79489671D01*
X144214224Y-79489673D01*
X144150771Y-79532071D01*
X144108373Y-79595525D01*
X143771440Y-79932458D01*
X143771440Y-79580000D01*
X143722157Y-79332235D01*
X143583886Y-79125300D01*
X143798553Y-79125300D01*
X143873400Y-79140188D01*
X143948247Y-79125300D01*
X143948252Y-79125300D01*
X144169937Y-79081204D01*
X144421329Y-78913229D01*
X144463731Y-78849771D01*
X144715756Y-78597746D01*
X144776235Y-78638157D01*
X145024000Y-78687440D01*
X148174000Y-78687440D01*
X148421765Y-78638157D01*
X148631809Y-78497809D01*
X148772157Y-78287765D01*
X148821440Y-78040000D01*
X148821440Y-77040000D01*
X148772157Y-76792235D01*
X148631809Y-76582191D01*
X148421765Y-76441843D01*
X148174000Y-76392560D01*
X145024000Y-76392560D01*
X144776235Y-76441843D01*
X144566191Y-76582191D01*
X144425843Y-76792235D01*
X144420220Y-76820504D01*
X144402163Y-76824096D01*
X144379599Y-76839173D01*
X144214226Y-76949671D01*
X144214224Y-76949673D01*
X144150771Y-76992071D01*
X144108373Y-77055525D01*
X143771440Y-77392458D01*
X143771440Y-77040000D01*
X143722157Y-76792235D01*
X143583886Y-76585300D01*
X143798553Y-76585300D01*
X143873400Y-76600188D01*
X143948247Y-76585300D01*
X143948252Y-76585300D01*
X144169937Y-76541204D01*
X144421329Y-76373229D01*
X144463731Y-76309771D01*
X144715756Y-76057746D01*
X144776235Y-76098157D01*
X145024000Y-76147440D01*
X148174000Y-76147440D01*
X148421765Y-76098157D01*
X148631809Y-75957809D01*
X148772157Y-75747765D01*
X148821440Y-75500000D01*
X148821440Y-74500000D01*
X148772157Y-74252235D01*
X148631809Y-74042191D01*
X148421765Y-73901843D01*
X148174000Y-73852560D01*
X145024000Y-73852560D01*
X144776235Y-73901843D01*
X144566191Y-74042191D01*
X144425843Y-74252235D01*
X144420220Y-74280504D01*
X144402163Y-74284096D01*
X144388083Y-74293504D01*
X144214226Y-74409671D01*
X144214224Y-74409673D01*
X144150771Y-74452071D01*
X144108373Y-74515525D01*
X143771440Y-74852458D01*
X143771440Y-74500000D01*
X143722157Y-74252235D01*
X143583886Y-74045300D01*
X143798553Y-74045300D01*
X143873400Y-74060188D01*
X143948247Y-74045300D01*
X143948252Y-74045300D01*
X144169937Y-74001204D01*
X144421329Y-73833229D01*
X144463731Y-73769771D01*
X144715756Y-73517746D01*
X144776235Y-73558157D01*
X145024000Y-73607440D01*
X148174000Y-73607440D01*
X148421765Y-73558157D01*
X148631809Y-73417809D01*
X148772157Y-73207765D01*
X148821440Y-72960000D01*
X148821440Y-71960000D01*
X148772157Y-71712235D01*
X148631809Y-71502191D01*
X148421765Y-71361843D01*
X148174000Y-71312560D01*
X145024000Y-71312560D01*
X144776235Y-71361843D01*
X144566191Y-71502191D01*
X144425843Y-71712235D01*
X144420220Y-71740504D01*
X144402163Y-71744096D01*
X144379599Y-71759173D01*
X144214226Y-71869671D01*
X144214224Y-71869673D01*
X144150771Y-71912071D01*
X144108373Y-71975525D01*
X143771440Y-72312458D01*
X143771440Y-71960000D01*
X143722157Y-71712235D01*
X143583886Y-71505300D01*
X143798553Y-71505300D01*
X143873400Y-71520188D01*
X143948247Y-71505300D01*
X143948252Y-71505300D01*
X144169937Y-71461204D01*
X144421329Y-71293229D01*
X144463731Y-71229771D01*
X144715756Y-70977746D01*
X144776235Y-71018157D01*
X145024000Y-71067440D01*
X148174000Y-71067440D01*
X148421765Y-71018157D01*
X148631809Y-70877809D01*
X148772157Y-70667765D01*
X148821440Y-70420000D01*
X148821440Y-69420000D01*
X148772157Y-69172235D01*
X148631809Y-68962191D01*
X148421765Y-68821843D01*
X148174000Y-68772560D01*
X145024000Y-68772560D01*
X144776235Y-68821843D01*
X144566191Y-68962191D01*
X144425843Y-69172235D01*
X144420220Y-69200504D01*
X144402163Y-69204096D01*
X144339602Y-69245898D01*
X144214226Y-69329671D01*
X144214224Y-69329673D01*
X144150771Y-69372071D01*
X144108373Y-69435525D01*
X143771440Y-69772458D01*
X143771440Y-69420000D01*
X143722157Y-69172235D01*
X143583886Y-68965300D01*
X143798553Y-68965300D01*
X143873400Y-68980188D01*
X143948247Y-68965300D01*
X143948252Y-68965300D01*
X144169937Y-68921204D01*
X144421329Y-68753229D01*
X144463731Y-68689771D01*
X144715756Y-68437746D01*
X144776235Y-68478157D01*
X145024000Y-68527440D01*
X148174000Y-68527440D01*
X148421765Y-68478157D01*
X148631809Y-68337809D01*
X148772157Y-68127765D01*
X148821440Y-67880000D01*
X148821440Y-66880000D01*
X148772157Y-66632235D01*
X148631809Y-66422191D01*
X148421765Y-66281843D01*
X148174000Y-66232560D01*
X145024000Y-66232560D01*
X144776235Y-66281843D01*
X144566191Y-66422191D01*
X144425843Y-66632235D01*
X144420220Y-66660504D01*
X144402163Y-66664096D01*
X144379599Y-66679173D01*
X144214226Y-66789671D01*
X144214224Y-66789673D01*
X144150771Y-66832071D01*
X144108373Y-66895525D01*
X143771440Y-67232458D01*
X143771440Y-66880000D01*
X143722157Y-66632235D01*
X143583886Y-66425300D01*
X143798553Y-66425300D01*
X143873400Y-66440188D01*
X143948247Y-66425300D01*
X143948252Y-66425300D01*
X144169937Y-66381204D01*
X144421329Y-66213229D01*
X144463731Y-66149771D01*
X144715756Y-65897746D01*
X144776235Y-65938157D01*
X145024000Y-65987440D01*
X148174000Y-65987440D01*
X148421765Y-65938157D01*
X148631809Y-65797809D01*
X148772157Y-65587765D01*
X148821440Y-65340000D01*
X148821440Y-64340000D01*
X148772157Y-64092235D01*
X148631809Y-63882191D01*
X148421765Y-63741843D01*
X148174000Y-63692560D01*
X145024000Y-63692560D01*
X144776235Y-63741843D01*
X144566191Y-63882191D01*
X144425843Y-64092235D01*
X144420220Y-64120504D01*
X144402163Y-64124096D01*
X144402161Y-64124097D01*
X144402162Y-64124097D01*
X144214226Y-64249671D01*
X144214224Y-64249673D01*
X144150771Y-64292071D01*
X144108373Y-64355525D01*
X143771440Y-64692458D01*
X143771440Y-64340000D01*
X143722157Y-64092235D01*
X143581809Y-63882191D01*
X143371765Y-63741843D01*
X143124000Y-63692560D01*
X139974000Y-63692560D01*
X139726235Y-63741843D01*
X139665756Y-63782254D01*
X139053831Y-63170330D01*
X139011429Y-63106871D01*
X138760037Y-62938896D01*
X138538352Y-62894800D01*
X138538347Y-62894800D01*
X138463500Y-62879912D01*
X138388653Y-62894800D01*
X135987937Y-62894800D01*
X136086476Y-62656890D01*
X135965155Y-62427000D01*
X134772000Y-62427000D01*
X134772000Y-62447000D01*
X134518000Y-62447000D01*
X134518000Y-62427000D01*
X134498000Y-62427000D01*
X134498000Y-62173000D01*
X134518000Y-62173000D01*
X134518000Y-62153000D01*
X134772000Y-62153000D01*
X134772000Y-62173000D01*
X135965155Y-62173000D01*
X136086476Y-61943110D01*
X136060419Y-61880200D01*
X138154099Y-61880200D01*
X139058371Y-62784473D01*
X139100771Y-62847929D01*
X139352163Y-63015904D01*
X139370220Y-63019496D01*
X139375843Y-63047765D01*
X139516191Y-63257809D01*
X139726235Y-63398157D01*
X139974000Y-63447440D01*
X143124000Y-63447440D01*
X143371765Y-63398157D01*
X143581809Y-63257809D01*
X143722157Y-63047765D01*
X143771440Y-62800000D01*
X143771440Y-62585750D01*
X144389000Y-62585750D01*
X144389000Y-62926310D01*
X144485673Y-63159699D01*
X144664302Y-63338327D01*
X144897691Y-63435000D01*
X146313250Y-63435000D01*
X146472000Y-63276250D01*
X146472000Y-62427000D01*
X146726000Y-62427000D01*
X146726000Y-63276250D01*
X146884750Y-63435000D01*
X148300309Y-63435000D01*
X148533698Y-63338327D01*
X148712327Y-63159699D01*
X148809000Y-62926310D01*
X148809000Y-62585750D01*
X148650250Y-62427000D01*
X146726000Y-62427000D01*
X146472000Y-62427000D01*
X144547750Y-62427000D01*
X144389000Y-62585750D01*
X143771440Y-62585750D01*
X143771440Y-62079071D01*
X143858180Y-62115000D01*
X144289820Y-62115000D01*
X144431192Y-62056442D01*
X144547750Y-62173000D01*
X146472000Y-62173000D01*
X146472000Y-61323750D01*
X146726000Y-61323750D01*
X146726000Y-62173000D01*
X148650250Y-62173000D01*
X148809000Y-62014250D01*
X148809000Y-61673690D01*
X148712327Y-61440301D01*
X148533698Y-61261673D01*
X148300309Y-61165000D01*
X146884750Y-61165000D01*
X146726000Y-61323750D01*
X146472000Y-61323750D01*
X146313250Y-61165000D01*
X145159000Y-61165000D01*
X145159000Y-60895000D01*
X146313250Y-60895000D01*
X146472000Y-60736250D01*
X146472000Y-59887000D01*
X146726000Y-59887000D01*
X146726000Y-60736250D01*
X146884750Y-60895000D01*
X148300309Y-60895000D01*
X148533698Y-60798327D01*
X148712327Y-60619699D01*
X148809000Y-60386310D01*
X148809000Y-60045750D01*
X148650250Y-59887000D01*
X146726000Y-59887000D01*
X146472000Y-59887000D01*
X144547750Y-59887000D01*
X144431192Y-60003558D01*
X144289820Y-59945000D01*
X143858180Y-59945000D01*
X143771440Y-59980929D01*
X143771440Y-59260000D01*
X143746316Y-59133690D01*
X144389000Y-59133690D01*
X144389000Y-59474250D01*
X144547750Y-59633000D01*
X146472000Y-59633000D01*
X146472000Y-58783750D01*
X146726000Y-58783750D01*
X146726000Y-59633000D01*
X148650250Y-59633000D01*
X148809000Y-59474250D01*
X148809000Y-59133690D01*
X148712327Y-58900301D01*
X148533698Y-58721673D01*
X148300309Y-58625000D01*
X146884750Y-58625000D01*
X146726000Y-58783750D01*
X146472000Y-58783750D01*
X146313250Y-58625000D01*
X144897691Y-58625000D01*
X144664302Y-58721673D01*
X144485673Y-58900301D01*
X144389000Y-59133690D01*
X143746316Y-59133690D01*
X143722157Y-59012235D01*
X143581809Y-58802191D01*
X143371765Y-58661843D01*
X143124000Y-58612560D01*
X139974000Y-58612560D01*
X139726235Y-58661843D01*
X139665756Y-58702254D01*
X139048431Y-58084930D01*
X139006029Y-58021471D01*
X138754637Y-57853496D01*
X138532952Y-57809400D01*
X138532947Y-57809400D01*
X138458100Y-57794512D01*
X138383253Y-57809400D01*
X135990173Y-57809400D01*
X136086476Y-57576890D01*
X135965155Y-57347000D01*
X134772000Y-57347000D01*
X134772000Y-57367000D01*
X134518000Y-57367000D01*
X134518000Y-57347000D01*
X134498000Y-57347000D01*
X134498000Y-57093000D01*
X134518000Y-57093000D01*
X134518000Y-57073000D01*
X134772000Y-57073000D01*
X134772000Y-57093000D01*
X135965155Y-57093000D01*
X136086476Y-56863110D01*
X136051307Y-56778200D01*
X138132099Y-56778200D01*
X139058371Y-57704473D01*
X139100771Y-57767929D01*
X139352163Y-57935904D01*
X139370220Y-57939496D01*
X139375843Y-57967765D01*
X139516191Y-58177809D01*
X139726235Y-58318157D01*
X139974000Y-58367440D01*
X143124000Y-58367440D01*
X143371765Y-58318157D01*
X143581809Y-58177809D01*
X143722157Y-57967765D01*
X143771440Y-57720000D01*
X143771440Y-57505750D01*
X144389000Y-57505750D01*
X144389000Y-57846310D01*
X144485673Y-58079699D01*
X144664302Y-58258327D01*
X144897691Y-58355000D01*
X146313250Y-58355000D01*
X146472000Y-58196250D01*
X146472000Y-57347000D01*
X146726000Y-57347000D01*
X146726000Y-58196250D01*
X146884750Y-58355000D01*
X148300309Y-58355000D01*
X148533698Y-58258327D01*
X148712327Y-58079699D01*
X148809000Y-57846310D01*
X148809000Y-57505750D01*
X148650250Y-57347000D01*
X146726000Y-57347000D01*
X146472000Y-57347000D01*
X144547750Y-57347000D01*
X144389000Y-57505750D01*
X143771440Y-57505750D01*
X143771440Y-56720000D01*
X143746316Y-56593690D01*
X144389000Y-56593690D01*
X144389000Y-56934250D01*
X144547750Y-57093000D01*
X146472000Y-57093000D01*
X146472000Y-56243750D01*
X146726000Y-56243750D01*
X146726000Y-57093000D01*
X148650250Y-57093000D01*
X148809000Y-56934250D01*
X148809000Y-56593690D01*
X148712327Y-56360301D01*
X148533698Y-56181673D01*
X148300309Y-56085000D01*
X146884750Y-56085000D01*
X146726000Y-56243750D01*
X146472000Y-56243750D01*
X146313250Y-56085000D01*
X144897691Y-56085000D01*
X144664302Y-56181673D01*
X144485673Y-56360301D01*
X144389000Y-56593690D01*
X143746316Y-56593690D01*
X143722157Y-56472235D01*
X143581809Y-56262191D01*
X143371765Y-56121843D01*
X143124000Y-56072560D01*
X139974000Y-56072560D01*
X139726235Y-56121843D01*
X139665756Y-56162254D01*
X139037231Y-55533730D01*
X138994829Y-55470271D01*
X138743437Y-55302296D01*
X138521752Y-55258200D01*
X138521747Y-55258200D01*
X138446900Y-55243312D01*
X138372053Y-55258200D01*
X134189646Y-55258200D01*
X134114799Y-55243312D01*
X134039952Y-55258200D01*
X134039948Y-55258200D01*
X133818263Y-55302296D01*
X133566871Y-55470271D01*
X133524471Y-55533727D01*
X133252874Y-55805325D01*
X133202765Y-55771843D01*
X132955000Y-55722560D01*
X131255000Y-55722560D01*
X131007235Y-55771843D01*
X130797191Y-55912191D01*
X130656843Y-56122235D01*
X130607560Y-56370000D01*
X130607560Y-58070000D01*
X130656843Y-58317765D01*
X130797191Y-58527809D01*
X131007235Y-58668157D01*
X131052619Y-58677184D01*
X131034375Y-58689375D01*
X130706161Y-59180582D01*
X130590908Y-59760000D01*
X127710000Y-59760000D01*
X127710000Y-52654887D01*
X141265000Y-52654887D01*
X141265000Y-53345113D01*
X141529138Y-53982799D01*
X142017201Y-54470862D01*
X142654887Y-54735000D01*
X143345113Y-54735000D01*
X143982799Y-54470862D01*
X144470862Y-53982799D01*
X144735000Y-53345113D01*
X144735000Y-52654887D01*
X144470862Y-52017201D01*
X143982799Y-51529138D01*
X143345113Y-51265000D01*
X142654887Y-51265000D01*
X142017201Y-51529138D01*
X141529138Y-52017201D01*
X141265000Y-52654887D01*
X127710000Y-52654887D01*
X127710000Y-52069926D01*
X127723909Y-52000000D01*
X127668805Y-51722972D01*
X127511881Y-51488119D01*
X127277028Y-51331195D01*
X127069926Y-51290000D01*
X127000000Y-51276091D01*
X126930075Y-51290000D01*
X125069925Y-51290000D01*
X125000000Y-51276091D01*
X124930074Y-51290000D01*
X124722972Y-51331195D01*
X124488119Y-51488119D01*
X124331195Y-51722972D01*
X124276091Y-52000000D01*
X108453661Y-52000000D01*
X107982799Y-51529138D01*
X107345113Y-51265000D01*
X106654887Y-51265000D01*
X106017201Y-51529138D01*
X105529138Y-52017201D01*
X105265000Y-52654887D01*
X105235000Y-52654887D01*
X105235000Y-52555431D01*
X104894741Y-51733974D01*
X104266026Y-51105259D01*
X103444569Y-50765000D01*
X102555431Y-50765000D01*
X102356827Y-50847264D01*
X102494092Y-50710000D01*
X147505910Y-50710000D01*
X147643175Y-50847265D01*
G36*
X139058371Y-60244473D02*
X139100771Y-60307929D01*
X139164227Y-60350329D01*
X139352162Y-60475904D01*
X139370220Y-60479496D01*
X139375843Y-60507765D01*
X139516191Y-60717809D01*
X139726235Y-60858157D01*
X139974000Y-60907440D01*
X142989000Y-60907440D01*
X142989000Y-61152560D01*
X139974000Y-61152560D01*
X139726235Y-61201843D01*
X139665756Y-61242254D01*
X139059231Y-60635730D01*
X139016829Y-60572271D01*
X138765437Y-60404296D01*
X138543752Y-60360200D01*
X138543747Y-60360200D01*
X138468900Y-60345312D01*
X138394053Y-60360200D01*
X135985700Y-60360200D01*
X136086476Y-60116890D01*
X135965155Y-59887000D01*
X134772000Y-59887000D01*
X134772000Y-59907000D01*
X134518000Y-59907000D01*
X134518000Y-59887000D01*
X134498000Y-59887000D01*
X134498000Y-59633000D01*
X134518000Y-59633000D01*
X134518000Y-59613000D01*
X134772000Y-59613000D01*
X134772000Y-59633000D01*
X135965155Y-59633000D01*
X136086476Y-59403110D01*
X136055946Y-59329400D01*
X138143299Y-59329400D01*
X139058371Y-60244473D01*
X139058371Y-60244473D01*
G37*
X139058371Y-60244473D02*
X139100771Y-60307929D01*
X139164227Y-60350329D01*
X139352162Y-60475904D01*
X139370220Y-60479496D01*
X139375843Y-60507765D01*
X139516191Y-60717809D01*
X139726235Y-60858157D01*
X139974000Y-60907440D01*
X142989000Y-60907440D01*
X142989000Y-61152560D01*
X139974000Y-61152560D01*
X139726235Y-61201843D01*
X139665756Y-61242254D01*
X139059231Y-60635730D01*
X139016829Y-60572271D01*
X138765437Y-60404296D01*
X138543752Y-60360200D01*
X138543747Y-60360200D01*
X138468900Y-60345312D01*
X138394053Y-60360200D01*
X135985700Y-60360200D01*
X136086476Y-60116890D01*
X135965155Y-59887000D01*
X134772000Y-59887000D01*
X134772000Y-59907000D01*
X134518000Y-59907000D01*
X134518000Y-59887000D01*
X134498000Y-59887000D01*
X134498000Y-59633000D01*
X134518000Y-59633000D01*
X134518000Y-59613000D01*
X134772000Y-59613000D01*
X134772000Y-59633000D01*
X135965155Y-59633000D01*
X136086476Y-59403110D01*
X136055946Y-59329400D01*
X138143299Y-59329400D01*
X139058371Y-60244473D01*
G04 #@! TD*
M02*
