G04 #@! TF.GenerationSoftware,KiCad,Pcbnew,5.0.2-bee76a0~70~ubuntu18.04.1*
G04 #@! TF.CreationDate,2019-06-01T14:58:20+09:00*
G04 #@! TF.ProjectId,top_pcb,746f705f-7063-4622-9e6b-696361645f70,rev?*
G04 #@! TF.SameCoordinates,Original*
G04 #@! TF.FileFunction,Copper,L2,Bot*
G04 #@! TF.FilePolarity,Positive*
%FSLAX46Y46*%
G04 Gerber Fmt 4.6, Leading zero omitted, Abs format (unit mm)*
G04 Created by KiCad (PCBNEW 5.0.2-bee76a0~70~ubuntu18.04.1) date 2019年06月01日 14時58分20秒*
%MOMM*%
%LPD*%
G01*
G04 APERTURE LIST*
G04 #@! TA.AperFunction,SMDPad,CuDef*
%ADD10R,2.200000X1.800000*%
G04 #@! TD*
G04 #@! TA.AperFunction,SMDPad,CuDef*
%ADD11R,1.300000X0.300000*%
G04 #@! TD*
G04 #@! TA.AperFunction,ComponentPad*
%ADD12R,1.700000X1.700000*%
G04 #@! TD*
G04 #@! TA.AperFunction,ComponentPad*
%ADD13O,1.700000X1.700000*%
G04 #@! TD*
G04 #@! TA.AperFunction,ViaPad*
%ADD14C,0.800000*%
G04 #@! TD*
G04 #@! TA.AperFunction,Conductor*
%ADD15C,0.250000*%
G04 #@! TD*
G04 #@! TA.AperFunction,Conductor*
%ADD16C,0.254000*%
G04 #@! TD*
G04 APERTURE END LIST*
D10*
G04 #@! TO.P,J1,MP*
G04 #@! TO.N,N/C*
X140900000Y-84150000D03*
X140900000Y-65850000D03*
D11*
G04 #@! TO.P,J1,1*
G04 #@! TO.N,G35*
X137650000Y-67750000D03*
G04 #@! TO.P,J1,2*
G04 #@! TO.N,GND*
X137650000Y-68250000D03*
G04 #@! TO.P,J1,3*
G04 #@! TO.N,G36*
X137650000Y-68750000D03*
G04 #@! TO.P,J1,4*
G04 #@! TO.N,GND*
X137650000Y-69250000D03*
G04 #@! TO.P,J1,5*
G04 #@! TO.N,RST*
X137650000Y-69750000D03*
G04 #@! TO.P,J1,6*
G04 #@! TO.N,GND*
X137650000Y-70250000D03*
G04 #@! TO.P,J1,7*
G04 #@! TO.N,G25*
X137650000Y-70750000D03*
G04 #@! TO.P,J1,8*
G04 #@! TO.N,G23*
X137650000Y-71250000D03*
G04 #@! TO.P,J1,9*
G04 #@! TO.N,G26*
X137650000Y-71750000D03*
G04 #@! TO.P,J1,10*
G04 #@! TO.N,G19*
X137650000Y-72250000D03*
G04 #@! TO.P,J1,11*
G04 #@! TO.N,+3V3*
X137650000Y-72750000D03*
G04 #@! TO.P,J1,12*
G04 #@! TO.N,G18*
X137650000Y-73250000D03*
G04 #@! TO.P,J1,13*
G04 #@! TO.N,G1*
X137650000Y-73750000D03*
G04 #@! TO.P,J1,14*
G04 #@! TO.N,G3*
X137650000Y-74250000D03*
G04 #@! TO.P,J1,15*
G04 #@! TO.N,G17*
X137650000Y-74750000D03*
G04 #@! TO.P,J1,16*
G04 #@! TO.N,G16*
X137650000Y-75250000D03*
G04 #@! TO.P,J1,17*
G04 #@! TO.N,G22*
X137650000Y-75750000D03*
G04 #@! TO.P,J1,18*
G04 #@! TO.N,G21*
X137650000Y-76250000D03*
G04 #@! TO.P,J1,19*
G04 #@! TO.N,G5*
X137650000Y-76750000D03*
G04 #@! TO.P,J1,20*
G04 #@! TO.N,G2*
X137650000Y-77250000D03*
G04 #@! TO.P,J1,21*
G04 #@! TO.N,G13*
X137650000Y-77750000D03*
G04 #@! TO.P,J1,22*
G04 #@! TO.N,G12*
X137650000Y-78250000D03*
G04 #@! TO.P,J1,23*
G04 #@! TO.N,G0*
X137650000Y-78750000D03*
G04 #@! TO.P,J1,24*
G04 #@! TO.N,G15*
X137650000Y-79250000D03*
G04 #@! TO.P,J1,25*
G04 #@! TO.N,G34*
X137650000Y-79750000D03*
G04 #@! TO.P,J1,26*
G04 #@! TO.N,HPWR*
X137650000Y-80250000D03*
G04 #@! TO.P,J1,27*
G04 #@! TO.N,+5V*
X137650000Y-80750000D03*
G04 #@! TO.P,J1,28*
G04 #@! TO.N,HPWR*
X137650000Y-81250000D03*
G04 #@! TO.P,J1,29*
G04 #@! TO.N,+BATT*
X137650000Y-81750000D03*
G04 #@! TO.P,J1,30*
G04 #@! TO.N,HPWR*
X137650000Y-82250000D03*
G04 #@! TD*
D12*
G04 #@! TO.P,J3,1*
G04 #@! TO.N,G35*
X132105000Y-57220000D03*
D13*
G04 #@! TO.P,J3,2*
G04 #@! TO.N,GND*
X134645000Y-57220000D03*
G04 #@! TO.P,J3,3*
G04 #@! TO.N,G36*
X132105000Y-59760000D03*
G04 #@! TO.P,J3,4*
G04 #@! TO.N,GND*
X134645000Y-59760000D03*
G04 #@! TO.P,J3,5*
G04 #@! TO.N,RST*
X132105000Y-62300000D03*
G04 #@! TO.P,J3,6*
G04 #@! TO.N,GND*
X134645000Y-62300000D03*
G04 #@! TO.P,J3,7*
G04 #@! TO.N,G25*
X132105000Y-64840000D03*
G04 #@! TO.P,J3,8*
G04 #@! TO.N,G23*
X134645000Y-64840000D03*
G04 #@! TO.P,J3,9*
G04 #@! TO.N,G26*
X132105000Y-67380000D03*
G04 #@! TO.P,J3,10*
G04 #@! TO.N,G19*
X134645000Y-67380000D03*
G04 #@! TO.P,J3,11*
G04 #@! TO.N,+3V3*
X132105000Y-69920000D03*
G04 #@! TO.P,J3,12*
G04 #@! TO.N,G18*
X134645000Y-69920000D03*
G04 #@! TO.P,J3,13*
G04 #@! TO.N,G1*
X132105000Y-72460000D03*
G04 #@! TO.P,J3,14*
G04 #@! TO.N,G3*
X134645000Y-72460000D03*
G04 #@! TO.P,J3,15*
G04 #@! TO.N,G17*
X132105000Y-75000000D03*
G04 #@! TO.P,J3,16*
G04 #@! TO.N,G16*
X134645000Y-75000000D03*
G04 #@! TO.P,J3,17*
G04 #@! TO.N,G22*
X132105000Y-77540000D03*
G04 #@! TO.P,J3,18*
G04 #@! TO.N,G21*
X134645000Y-77540000D03*
G04 #@! TO.P,J3,19*
G04 #@! TO.N,G5*
X132105000Y-80080000D03*
G04 #@! TO.P,J3,20*
G04 #@! TO.N,G2*
X134645000Y-80080000D03*
G04 #@! TO.P,J3,21*
G04 #@! TO.N,G13*
X132105000Y-82620000D03*
G04 #@! TO.P,J3,22*
G04 #@! TO.N,G12*
X134645000Y-82620000D03*
G04 #@! TO.P,J3,23*
G04 #@! TO.N,G0*
X132105000Y-85160000D03*
G04 #@! TO.P,J3,24*
G04 #@! TO.N,G15*
X134645000Y-85160000D03*
G04 #@! TO.P,J3,25*
G04 #@! TO.N,G34*
X132105000Y-87700000D03*
G04 #@! TO.P,J3,26*
G04 #@! TO.N,HPWR*
X134645000Y-87700000D03*
G04 #@! TO.P,J3,27*
G04 #@! TO.N,+5V*
X132105000Y-90240000D03*
G04 #@! TO.P,J3,28*
G04 #@! TO.N,HPWR*
X134645000Y-90240000D03*
G04 #@! TO.P,J3,29*
G04 #@! TO.N,+BATT*
X132105000Y-92780000D03*
G04 #@! TO.P,J3,30*
G04 #@! TO.N,HPWR*
X134645000Y-92780000D03*
G04 #@! TD*
D14*
G04 #@! TO.N,GND*
X144602200Y-54825900D03*
X144703800Y-95529400D03*
G04 #@! TO.N,G23*
X143536000Y-65777200D03*
G04 #@! TO.N,G19*
X141792100Y-68751100D03*
G04 #@! TO.N,G18*
X141989200Y-71055400D03*
G04 #@! TO.N,G2*
X143838000Y-80080000D03*
G04 #@! TO.N,G12*
X143654500Y-83445300D03*
G04 #@! TO.N,G13*
X143808800Y-81993300D03*
G04 #@! TO.N,G17*
X139283400Y-74899800D03*
G04 #@! TO.N,+3V3*
X143726000Y-69861900D03*
G04 #@! TD*
D15*
G04 #@! TO.N,GND*
X137650000Y-68250000D02*
X138625300Y-68250000D01*
X138625300Y-68250000D02*
X138625300Y-69113100D01*
X138625300Y-69113100D02*
X138488400Y-69250000D01*
X138488400Y-69250000D02*
X137650000Y-69250000D01*
X137275000Y-68250000D02*
X137650000Y-68250000D01*
X137275000Y-68250000D02*
X136674700Y-68250000D01*
X136674700Y-68250000D02*
X136674700Y-64329700D01*
X136674700Y-64329700D02*
X134645000Y-62300000D01*
X134645000Y-59760000D02*
X134645000Y-62300000D01*
X136787300Y-69250000D02*
X136674700Y-69362600D01*
X136674700Y-69362600D02*
X136674700Y-70250000D01*
X137650000Y-69250000D02*
X136787300Y-69250000D01*
X137650000Y-70250000D02*
X136674700Y-70250000D01*
X134645000Y-59760000D02*
X134645000Y-57220000D01*
G04 #@! TO.N,G23*
X143536000Y-65777200D02*
X143536000Y-66390200D01*
X143536000Y-66390200D02*
X141900400Y-68025800D01*
X141900400Y-68025800D02*
X141491700Y-68025800D01*
X141491700Y-68025800D02*
X141066800Y-68450700D01*
X141066800Y-68450700D02*
X141066800Y-68995600D01*
X141066800Y-68995600D02*
X138812400Y-71250000D01*
X138812400Y-71250000D02*
X137650000Y-71250000D01*
G04 #@! TO.N,G19*
X137650000Y-72250000D02*
X138625300Y-72250000D01*
X141792100Y-68751100D02*
X141792100Y-69083200D01*
X141792100Y-69083200D02*
X138625300Y-72250000D01*
G04 #@! TO.N,G18*
X137650000Y-73250000D02*
X139794600Y-73250000D01*
X139794600Y-73250000D02*
X141989200Y-71055400D01*
G04 #@! TO.N,G3*
X136674700Y-74250000D02*
X134884700Y-72460000D01*
X134884700Y-72460000D02*
X134645000Y-72460000D01*
X137650000Y-74250000D02*
X136674700Y-74250000D01*
G04 #@! TO.N,G16*
X135820300Y-75000000D02*
X136070300Y-75250000D01*
X136070300Y-75250000D02*
X137650000Y-75250000D01*
X134645000Y-75000000D02*
X135820300Y-75000000D01*
G04 #@! TO.N,G21*
X137650000Y-76250000D02*
X136674700Y-76250000D01*
X134645000Y-77540000D02*
X135820300Y-77540000D01*
X135820300Y-77540000D02*
X135820300Y-77104400D01*
X135820300Y-77104400D02*
X136674700Y-76250000D01*
G04 #@! TO.N,G2*
X137650000Y-77250000D02*
X141008000Y-77250000D01*
X141008000Y-77250000D02*
X143838000Y-80080000D01*
G04 #@! TO.N,G12*
X143654500Y-83445300D02*
X143654500Y-83085800D01*
X143654500Y-83085800D02*
X138818700Y-78250000D01*
X138818700Y-78250000D02*
X138625300Y-78250000D01*
X137650000Y-78250000D02*
X138625300Y-78250000D01*
G04 #@! TO.N,G15*
X136674700Y-79250000D02*
X135820300Y-80104400D01*
X135820300Y-80104400D02*
X135820300Y-83176800D01*
X135820300Y-83176800D02*
X135012400Y-83984700D01*
X135012400Y-83984700D02*
X134645000Y-83984700D01*
X137650000Y-79250000D02*
X136674700Y-79250000D01*
X134645000Y-85160000D02*
X134645000Y-83984700D01*
G04 #@! TO.N,HPWR*
X134645000Y-90240000D02*
X134645000Y-87700000D01*
X134645000Y-92780000D02*
X134645000Y-90240000D01*
X137650000Y-80250000D02*
X136674700Y-80250000D01*
X136674700Y-81250000D02*
X136674700Y-80250000D01*
X136674700Y-82250000D02*
X136674700Y-81250000D01*
X137650000Y-82250000D02*
X136674700Y-82250000D01*
X136674700Y-82250000D02*
X136674700Y-84862300D01*
X136674700Y-84862300D02*
X135012300Y-86524700D01*
X135012300Y-86524700D02*
X134645000Y-86524700D01*
X137650000Y-81250000D02*
X136674700Y-81250000D01*
X134645000Y-87700000D02*
X134645000Y-86524700D01*
G04 #@! TO.N,+BATT*
X137650000Y-81750000D02*
X138625300Y-81750000D01*
X132105000Y-92780000D02*
X133280300Y-92780000D01*
X133280300Y-92780000D02*
X133280300Y-93155500D01*
X133280300Y-93155500D02*
X134083100Y-93958300D01*
X134083100Y-93958300D02*
X135132600Y-93958300D01*
X135132600Y-93958300D02*
X138625300Y-90465600D01*
X138625300Y-90465600D02*
X138625300Y-81750000D01*
G04 #@! TO.N,+5V*
X137650000Y-80750000D02*
X138625300Y-80750000D01*
X132105000Y-90240000D02*
X132105000Y-91415300D01*
X132105000Y-91415300D02*
X131740000Y-91415300D01*
X131740000Y-91415300D02*
X130906500Y-92248800D01*
X130906500Y-92248800D02*
X130906500Y-93246100D01*
X130906500Y-93246100D02*
X132069000Y-94408600D01*
X132069000Y-94408600D02*
X135319200Y-94408600D01*
X135319200Y-94408600D02*
X139075700Y-90652100D01*
X139075700Y-90652100D02*
X139075700Y-81200400D01*
X139075700Y-81200400D02*
X138625300Y-80750000D01*
G04 #@! TO.N,G34*
X132105000Y-87700000D02*
X132105000Y-88875300D01*
X132105000Y-88875300D02*
X131737700Y-88875300D01*
X131737700Y-88875300D02*
X130456200Y-90156800D01*
X130456200Y-90156800D02*
X130456200Y-93432700D01*
X130456200Y-93432700D02*
X131882400Y-94858900D01*
X131882400Y-94858900D02*
X135505800Y-94858900D01*
X135505800Y-94858900D02*
X142328500Y-88036200D01*
X142328500Y-88036200D02*
X142328500Y-83090100D01*
X142328500Y-83090100D02*
X138988400Y-79750000D01*
X138988400Y-79750000D02*
X137650000Y-79750000D01*
G04 #@! TO.N,G0*
X132105000Y-86335300D02*
X131774200Y-86335300D01*
X131774200Y-86335300D02*
X130005900Y-88103600D01*
X130005900Y-88103600D02*
X130005900Y-93619300D01*
X130005900Y-93619300D02*
X131695800Y-95309200D01*
X131695800Y-95309200D02*
X135692400Y-95309200D01*
X135692400Y-95309200D02*
X142778800Y-88222800D01*
X142778800Y-88222800D02*
X142778800Y-82903500D01*
X142778800Y-82903500D02*
X138625300Y-78750000D01*
X132105000Y-85160000D02*
X132105000Y-86335300D01*
X137650000Y-78750000D02*
X138625300Y-78750000D01*
G04 #@! TO.N,G13*
X137650000Y-77750000D02*
X139565500Y-77750000D01*
X139565500Y-77750000D02*
X143808800Y-81993300D01*
G04 #@! TO.N,G5*
X132105000Y-80080000D02*
X133280300Y-80080000D01*
X133280300Y-80080000D02*
X133280300Y-79712600D01*
X133280300Y-79712600D02*
X134088200Y-78904700D01*
X134088200Y-78904700D02*
X135166100Y-78904700D01*
X135166100Y-78904700D02*
X136571500Y-77499300D01*
X136571500Y-77499300D02*
X136571500Y-76990100D01*
X136571500Y-76990100D02*
X136811600Y-76750000D01*
X136811600Y-76750000D02*
X137650000Y-76750000D01*
G04 #@! TO.N,G22*
X133280300Y-77540000D02*
X133280300Y-77237100D01*
X133280300Y-77237100D02*
X134152800Y-76364600D01*
X134152800Y-76364600D02*
X135354300Y-76364600D01*
X135354300Y-76364600D02*
X135968900Y-75750000D01*
X135968900Y-75750000D02*
X137650000Y-75750000D01*
X132105000Y-77540000D02*
X133280300Y-77540000D01*
G04 #@! TO.N,G17*
X137650000Y-74750000D02*
X139133600Y-74750000D01*
X139133600Y-74750000D02*
X139283400Y-74899800D01*
X137162400Y-74750000D02*
X137650000Y-74750000D01*
X137162400Y-74750000D02*
X136674700Y-74750000D01*
X133280300Y-75000000D02*
X133280300Y-74632600D01*
X133280300Y-74632600D02*
X134088200Y-73824700D01*
X134088200Y-73824700D02*
X135371900Y-73824700D01*
X135371900Y-73824700D02*
X136297200Y-74750000D01*
X136297200Y-74750000D02*
X136674700Y-74750000D01*
X132105000Y-75000000D02*
X133280300Y-75000000D01*
G04 #@! TO.N,G1*
X132105000Y-72460000D02*
X133280300Y-72460000D01*
X133280300Y-72460000D02*
X133280300Y-72092700D01*
X133280300Y-72092700D02*
X134106200Y-71266800D01*
X134106200Y-71266800D02*
X135143200Y-71266800D01*
X135143200Y-71266800D02*
X136571500Y-72695100D01*
X136571500Y-72695100D02*
X136571500Y-73509900D01*
X136571500Y-73509900D02*
X136811600Y-73750000D01*
X136811600Y-73750000D02*
X137650000Y-73750000D01*
G04 #@! TO.N,G26*
X137650000Y-71750000D02*
X136674700Y-71750000D01*
X132105000Y-67380000D02*
X133280300Y-67380000D01*
X133280300Y-67380000D02*
X133280300Y-67747400D01*
X133280300Y-67747400D02*
X134088200Y-68555300D01*
X134088200Y-68555300D02*
X134949400Y-68555300D01*
X134949400Y-68555300D02*
X136149800Y-69755700D01*
X136149800Y-69755700D02*
X136149800Y-71225100D01*
X136149800Y-71225100D02*
X136674700Y-71750000D01*
G04 #@! TO.N,G25*
X132105000Y-63664700D02*
X131737600Y-63664700D01*
X131737600Y-63664700D02*
X130459000Y-62386100D01*
X130459000Y-62386100D02*
X130459000Y-55953900D01*
X130459000Y-55953900D02*
X131329700Y-55083200D01*
X131329700Y-55083200D02*
X135446800Y-55083200D01*
X135446800Y-55083200D02*
X142373200Y-62009600D01*
X142373200Y-62009600D02*
X142373200Y-66878400D01*
X142373200Y-66878400D02*
X141676100Y-67575500D01*
X141676100Y-67575500D02*
X141305100Y-67575500D01*
X141305100Y-67575500D02*
X140616500Y-68264100D01*
X140616500Y-68264100D02*
X140616500Y-68758800D01*
X140616500Y-68758800D02*
X138625300Y-70750000D01*
X137650000Y-70750000D02*
X138625300Y-70750000D01*
X132105000Y-64840000D02*
X132105000Y-63664700D01*
G04 #@! TO.N,RST*
X138625300Y-69750000D02*
X139083000Y-69292300D01*
X139083000Y-69292300D02*
X139083000Y-59356300D01*
X139083000Y-59356300D02*
X135260200Y-55533500D01*
X135260200Y-55533500D02*
X131623100Y-55533500D01*
X131623100Y-55533500D02*
X130923000Y-56233600D01*
X130923000Y-56233600D02*
X130923000Y-60310000D01*
X130923000Y-60310000D02*
X131737700Y-61124700D01*
X131737700Y-61124700D02*
X132105000Y-61124700D01*
X137650000Y-69750000D02*
X138625300Y-69750000D01*
X132105000Y-62300000D02*
X132105000Y-61124700D01*
G04 #@! TO.N,G36*
X132105000Y-59760000D02*
X133280300Y-60935300D01*
X133280300Y-60935300D02*
X133280300Y-62598800D01*
X133280300Y-62598800D02*
X134251500Y-63570000D01*
X134251500Y-63570000D02*
X135073300Y-63570000D01*
X135073300Y-63570000D02*
X136224400Y-64721100D01*
X136224400Y-64721100D02*
X136224400Y-68436600D01*
X136224400Y-68436600D02*
X136537700Y-68749900D01*
X136537700Y-68749900D02*
X136674700Y-68749900D01*
X136674700Y-68749900D02*
X136674700Y-68750000D01*
X137650000Y-68750000D02*
X136674700Y-68750000D01*
G04 #@! TO.N,G35*
X132105000Y-57220000D02*
X133280300Y-57220000D01*
X133280300Y-57220000D02*
X133280300Y-56852700D01*
X133280300Y-56852700D02*
X134094800Y-56038200D01*
X134094800Y-56038200D02*
X135128000Y-56038200D01*
X135128000Y-56038200D02*
X137650000Y-58560200D01*
X137650000Y-58560200D02*
X137650000Y-67750000D01*
G04 #@! TO.N,+3V3*
X137650000Y-72750000D02*
X139069100Y-72750000D01*
X139069100Y-72750000D02*
X141957200Y-69861900D01*
X141957200Y-69861900D02*
X143726000Y-69861900D01*
G04 #@! TD*
D16*
G04 #@! TO.N,GND*
G36*
X147643175Y-50847265D02*
X147444569Y-50765000D01*
X146555431Y-50765000D01*
X145733974Y-51105259D01*
X145105259Y-51733974D01*
X144765000Y-52555431D01*
X144765000Y-53444569D01*
X145105259Y-54266026D01*
X145733974Y-54894741D01*
X146555431Y-55235000D01*
X147444569Y-55235000D01*
X148266026Y-54894741D01*
X148894741Y-54266026D01*
X149235000Y-53444569D01*
X149235000Y-52555431D01*
X149152736Y-52356827D01*
X149265000Y-52469092D01*
X149265001Y-97530907D01*
X149152736Y-97643173D01*
X149235000Y-97444569D01*
X149235000Y-96555431D01*
X148894741Y-95733974D01*
X148266026Y-95105259D01*
X147444569Y-94765000D01*
X146555431Y-94765000D01*
X145733974Y-95105259D01*
X145105259Y-95733974D01*
X144765000Y-96555431D01*
X144765000Y-97444569D01*
X145105259Y-98266026D01*
X145733974Y-98894741D01*
X146555431Y-99235000D01*
X147444569Y-99235000D01*
X147643175Y-99152735D01*
X147505910Y-99290000D01*
X102494092Y-99290000D01*
X102356827Y-99152736D01*
X102555431Y-99235000D01*
X103444569Y-99235000D01*
X104266026Y-98894741D01*
X104894741Y-98266026D01*
X105235000Y-97444569D01*
X105235000Y-96654887D01*
X105265000Y-96654887D01*
X105265000Y-97345113D01*
X105529138Y-97982799D01*
X106017201Y-98470862D01*
X106654887Y-98735000D01*
X107345113Y-98735000D01*
X107982799Y-98470862D01*
X108470862Y-97982799D01*
X108735000Y-97345113D01*
X108735000Y-96654887D01*
X108470862Y-96017201D01*
X107982799Y-95529138D01*
X107345113Y-95265000D01*
X106654887Y-95265000D01*
X106017201Y-95529138D01*
X105529138Y-96017201D01*
X105265000Y-96654887D01*
X105235000Y-96654887D01*
X105235000Y-96555431D01*
X104894741Y-95733974D01*
X104266026Y-95105259D01*
X103444569Y-94765000D01*
X102555431Y-94765000D01*
X101733974Y-95105259D01*
X101105259Y-95733974D01*
X100765000Y-96555431D01*
X100765000Y-97444569D01*
X100847265Y-97643175D01*
X100710000Y-97505910D01*
X100710000Y-76000000D01*
X124276091Y-76000000D01*
X124290000Y-76069926D01*
X124290001Y-97930069D01*
X124276091Y-98000000D01*
X124331195Y-98277028D01*
X124488119Y-98511881D01*
X124722972Y-98668805D01*
X124930074Y-98710000D01*
X124930075Y-98710000D01*
X125000000Y-98723909D01*
X125069926Y-98710000D01*
X126930074Y-98710000D01*
X127000000Y-98723909D01*
X127069925Y-98710000D01*
X127069926Y-98710000D01*
X127277028Y-98668805D01*
X127511881Y-98511881D01*
X127668805Y-98277028D01*
X127708587Y-98077028D01*
X127710000Y-98069926D01*
X127710000Y-98069925D01*
X127723909Y-98000000D01*
X127710000Y-97930074D01*
X127710000Y-96654887D01*
X141265000Y-96654887D01*
X141265000Y-97345113D01*
X141529138Y-97982799D01*
X142017201Y-98470862D01*
X142654887Y-98735000D01*
X143345113Y-98735000D01*
X143982799Y-98470862D01*
X144470862Y-97982799D01*
X144735000Y-97345113D01*
X144735000Y-96654887D01*
X144470862Y-96017201D01*
X143982799Y-95529138D01*
X143345113Y-95265000D01*
X142654887Y-95265000D01*
X142017201Y-95529138D01*
X141529138Y-96017201D01*
X141265000Y-96654887D01*
X127710000Y-96654887D01*
X127710000Y-88103600D01*
X129231012Y-88103600D01*
X129245900Y-88178447D01*
X129245901Y-93544448D01*
X129231012Y-93619300D01*
X129245901Y-93694152D01*
X129289997Y-93915837D01*
X129457972Y-94167229D01*
X129521428Y-94209629D01*
X131105473Y-95793676D01*
X131147871Y-95857129D01*
X131211324Y-95899527D01*
X131211326Y-95899529D01*
X131336702Y-95983302D01*
X131399263Y-96025104D01*
X131620948Y-96069200D01*
X131620952Y-96069200D01*
X131695799Y-96084088D01*
X131770646Y-96069200D01*
X135617553Y-96069200D01*
X135692400Y-96084088D01*
X135767247Y-96069200D01*
X135767252Y-96069200D01*
X135988937Y-96025104D01*
X136240329Y-95857129D01*
X136282731Y-95793670D01*
X142989000Y-89087402D01*
X142989000Y-89185820D01*
X143154182Y-89584603D01*
X143459397Y-89889818D01*
X143858180Y-90055000D01*
X144289820Y-90055000D01*
X144688603Y-89889818D01*
X144993818Y-89584603D01*
X145159000Y-89185820D01*
X145159000Y-88754180D01*
X144993818Y-88355397D01*
X144688603Y-88050182D01*
X144289820Y-87885000D01*
X143858180Y-87885000D01*
X143538800Y-88017292D01*
X143538800Y-84480300D01*
X143860374Y-84480300D01*
X144240780Y-84322731D01*
X144531931Y-84031580D01*
X144689500Y-83651174D01*
X144689500Y-83239426D01*
X144531931Y-82859020D01*
X144469361Y-82796450D01*
X144686231Y-82579580D01*
X144843800Y-82199174D01*
X144843800Y-81787426D01*
X144686231Y-81407020D01*
X144395080Y-81115869D01*
X144218428Y-81042698D01*
X144424280Y-80957431D01*
X144715431Y-80666280D01*
X144873000Y-80285874D01*
X144873000Y-79874126D01*
X144715431Y-79493720D01*
X144424280Y-79202569D01*
X144043874Y-79045000D01*
X143877803Y-79045000D01*
X141598331Y-76765530D01*
X141555929Y-76702071D01*
X141304537Y-76534096D01*
X141082852Y-76490000D01*
X141082847Y-76490000D01*
X141008000Y-76475112D01*
X140933153Y-76490000D01*
X138929538Y-76490000D01*
X138947440Y-76400000D01*
X138947440Y-76100000D01*
X138927549Y-76000000D01*
X138947440Y-75900000D01*
X138947440Y-75880917D01*
X139077526Y-75934800D01*
X139489274Y-75934800D01*
X139869680Y-75777231D01*
X140160831Y-75486080D01*
X140318400Y-75105674D01*
X140318400Y-74693926D01*
X140160831Y-74313520D01*
X139869680Y-74022369D01*
X139849431Y-74013981D01*
X139869447Y-74010000D01*
X139869452Y-74010000D01*
X140091137Y-73965904D01*
X140342529Y-73797929D01*
X140384931Y-73734470D01*
X142029002Y-72090400D01*
X142195074Y-72090400D01*
X142575480Y-71932831D01*
X142866631Y-71641680D01*
X143024200Y-71261274D01*
X143024200Y-70849526D01*
X142929914Y-70621900D01*
X143022289Y-70621900D01*
X143139720Y-70739331D01*
X143520126Y-70896900D01*
X143931874Y-70896900D01*
X144312280Y-70739331D01*
X144603431Y-70448180D01*
X144761000Y-70067774D01*
X144761000Y-69656026D01*
X144603431Y-69275620D01*
X144312280Y-68984469D01*
X143931874Y-68826900D01*
X143520126Y-68826900D01*
X143139720Y-68984469D01*
X143022289Y-69101900D01*
X142767070Y-69101900D01*
X142827100Y-68956974D01*
X142827100Y-68545226D01*
X142718342Y-68282660D01*
X144020473Y-66980529D01*
X144083929Y-66938129D01*
X144126924Y-66873782D01*
X144251904Y-66686738D01*
X144272765Y-66581863D01*
X144292062Y-66484849D01*
X144413431Y-66363480D01*
X144571000Y-65983074D01*
X144571000Y-65571326D01*
X144413431Y-65190920D01*
X144122280Y-64899769D01*
X143741874Y-64742200D01*
X143330126Y-64742200D01*
X143133200Y-64823769D01*
X143133200Y-62084448D01*
X143148088Y-62009600D01*
X143133200Y-61934752D01*
X143133200Y-61934748D01*
X143089104Y-61713063D01*
X143089104Y-61713062D01*
X142963529Y-61525127D01*
X142921129Y-61461671D01*
X142857673Y-61419271D01*
X142252582Y-60814180D01*
X142989000Y-60814180D01*
X142989000Y-61245820D01*
X143154182Y-61644603D01*
X143459397Y-61949818D01*
X143858180Y-62115000D01*
X144289820Y-62115000D01*
X144688603Y-61949818D01*
X144993818Y-61644603D01*
X145159000Y-61245820D01*
X145159000Y-60814180D01*
X144993818Y-60415397D01*
X144688603Y-60110182D01*
X144289820Y-59945000D01*
X143858180Y-59945000D01*
X143459397Y-60110182D01*
X143154182Y-60415397D01*
X142989000Y-60814180D01*
X142252582Y-60814180D01*
X136037131Y-54598730D01*
X135994729Y-54535271D01*
X135743337Y-54367296D01*
X135521652Y-54323200D01*
X135521647Y-54323200D01*
X135446800Y-54308312D01*
X135371953Y-54323200D01*
X131404548Y-54323200D01*
X131329700Y-54308312D01*
X131254852Y-54323200D01*
X131254848Y-54323200D01*
X131081305Y-54357720D01*
X131033162Y-54367296D01*
X130878166Y-54470862D01*
X130781771Y-54535271D01*
X130739371Y-54598727D01*
X129974528Y-55363571D01*
X129911072Y-55405971D01*
X129868672Y-55469427D01*
X129868671Y-55469428D01*
X129743097Y-55657363D01*
X129684112Y-55953900D01*
X129699001Y-56028752D01*
X129699000Y-62311253D01*
X129684112Y-62386100D01*
X129699000Y-62460947D01*
X129699000Y-62460951D01*
X129743096Y-62682636D01*
X129911071Y-62934029D01*
X129974530Y-62976431D01*
X130927469Y-63929371D01*
X130706161Y-64260582D01*
X130590908Y-64840000D01*
X130706161Y-65419418D01*
X131034375Y-65910625D01*
X131332761Y-66110000D01*
X131034375Y-66309375D01*
X130706161Y-66800582D01*
X130590908Y-67380000D01*
X130706161Y-67959418D01*
X131034375Y-68450625D01*
X131332761Y-68650000D01*
X131034375Y-68849375D01*
X130706161Y-69340582D01*
X130590908Y-69920000D01*
X130706161Y-70499418D01*
X131034375Y-70990625D01*
X131332761Y-71190000D01*
X131034375Y-71389375D01*
X130706161Y-71880582D01*
X130590908Y-72460000D01*
X130706161Y-73039418D01*
X131034375Y-73530625D01*
X131332761Y-73730000D01*
X131034375Y-73929375D01*
X130706161Y-74420582D01*
X130590908Y-75000000D01*
X130706161Y-75579418D01*
X131034375Y-76070625D01*
X131332761Y-76270000D01*
X131034375Y-76469375D01*
X130706161Y-76960582D01*
X130590908Y-77540000D01*
X130706161Y-78119418D01*
X131034375Y-78610625D01*
X131332761Y-78810000D01*
X131034375Y-79009375D01*
X130706161Y-79500582D01*
X130590908Y-80080000D01*
X130706161Y-80659418D01*
X131034375Y-81150625D01*
X131332761Y-81350000D01*
X131034375Y-81549375D01*
X130706161Y-82040582D01*
X130590908Y-82620000D01*
X130706161Y-83199418D01*
X131034375Y-83690625D01*
X131332761Y-83890000D01*
X131034375Y-84089375D01*
X130706161Y-84580582D01*
X130590908Y-85160000D01*
X130706161Y-85739418D01*
X130942129Y-86092569D01*
X129521430Y-87513269D01*
X129457971Y-87555671D01*
X129289996Y-87807064D01*
X129245900Y-88028749D01*
X129245900Y-88028753D01*
X129231012Y-88103600D01*
X127710000Y-88103600D01*
X127710000Y-76069926D01*
X127723909Y-76000000D01*
X127668805Y-75722972D01*
X127511881Y-75488119D01*
X127277028Y-75331195D01*
X127069926Y-75290000D01*
X127000000Y-75276091D01*
X126930075Y-75290000D01*
X125069925Y-75290000D01*
X125000000Y-75276091D01*
X124930074Y-75290000D01*
X124722972Y-75331195D01*
X124488119Y-75488119D01*
X124331195Y-75722972D01*
X124276091Y-76000000D01*
X100710000Y-76000000D01*
X100710000Y-52494090D01*
X100847265Y-52356825D01*
X100765000Y-52555431D01*
X100765000Y-53444569D01*
X101105259Y-54266026D01*
X101733974Y-54894741D01*
X102555431Y-55235000D01*
X103444569Y-55235000D01*
X104266026Y-54894741D01*
X104894741Y-54266026D01*
X105235000Y-53444569D01*
X105235000Y-52654887D01*
X105265000Y-52654887D01*
X105265000Y-53345113D01*
X105529138Y-53982799D01*
X106017201Y-54470862D01*
X106654887Y-54735000D01*
X107345113Y-54735000D01*
X107982799Y-54470862D01*
X108470862Y-53982799D01*
X108735000Y-53345113D01*
X108735000Y-52654887D01*
X108470862Y-52017201D01*
X108453661Y-52000000D01*
X124276091Y-52000000D01*
X124290000Y-52069926D01*
X124290001Y-73930069D01*
X124276091Y-74000000D01*
X124331195Y-74277028D01*
X124488119Y-74511881D01*
X124722972Y-74668805D01*
X124930074Y-74710000D01*
X124930075Y-74710000D01*
X125000000Y-74723909D01*
X125069926Y-74710000D01*
X126930074Y-74710000D01*
X127000000Y-74723909D01*
X127069925Y-74710000D01*
X127069926Y-74710000D01*
X127277028Y-74668805D01*
X127511881Y-74511881D01*
X127668805Y-74277028D01*
X127723909Y-74000000D01*
X127710000Y-73930074D01*
X127710000Y-52654887D01*
X141265000Y-52654887D01*
X141265000Y-53345113D01*
X141529138Y-53982799D01*
X142017201Y-54470862D01*
X142654887Y-54735000D01*
X143345113Y-54735000D01*
X143982799Y-54470862D01*
X144470862Y-53982799D01*
X144735000Y-53345113D01*
X144735000Y-52654887D01*
X144470862Y-52017201D01*
X143982799Y-51529138D01*
X143345113Y-51265000D01*
X142654887Y-51265000D01*
X142017201Y-51529138D01*
X141529138Y-52017201D01*
X141265000Y-52654887D01*
X127710000Y-52654887D01*
X127710000Y-52069926D01*
X127723909Y-52000000D01*
X127668805Y-51722972D01*
X127511881Y-51488119D01*
X127277028Y-51331195D01*
X127069926Y-51290000D01*
X127000000Y-51276091D01*
X126930075Y-51290000D01*
X125069925Y-51290000D01*
X125000000Y-51276091D01*
X124930074Y-51290000D01*
X124722972Y-51331195D01*
X124488119Y-51488119D01*
X124331195Y-51722972D01*
X124276091Y-52000000D01*
X108453661Y-52000000D01*
X107982799Y-51529138D01*
X107345113Y-51265000D01*
X106654887Y-51265000D01*
X106017201Y-51529138D01*
X105529138Y-52017201D01*
X105265000Y-52654887D01*
X105235000Y-52654887D01*
X105235000Y-52555431D01*
X104894741Y-51733974D01*
X104266026Y-51105259D01*
X103444569Y-50765000D01*
X102555431Y-50765000D01*
X102356827Y-50847264D01*
X102494092Y-50710000D01*
X147505910Y-50710000D01*
X147643175Y-50847265D01*
X147643175Y-50847265D01*
G37*
X147643175Y-50847265D02*
X147444569Y-50765000D01*
X146555431Y-50765000D01*
X145733974Y-51105259D01*
X145105259Y-51733974D01*
X144765000Y-52555431D01*
X144765000Y-53444569D01*
X145105259Y-54266026D01*
X145733974Y-54894741D01*
X146555431Y-55235000D01*
X147444569Y-55235000D01*
X148266026Y-54894741D01*
X148894741Y-54266026D01*
X149235000Y-53444569D01*
X149235000Y-52555431D01*
X149152736Y-52356827D01*
X149265000Y-52469092D01*
X149265001Y-97530907D01*
X149152736Y-97643173D01*
X149235000Y-97444569D01*
X149235000Y-96555431D01*
X148894741Y-95733974D01*
X148266026Y-95105259D01*
X147444569Y-94765000D01*
X146555431Y-94765000D01*
X145733974Y-95105259D01*
X145105259Y-95733974D01*
X144765000Y-96555431D01*
X144765000Y-97444569D01*
X145105259Y-98266026D01*
X145733974Y-98894741D01*
X146555431Y-99235000D01*
X147444569Y-99235000D01*
X147643175Y-99152735D01*
X147505910Y-99290000D01*
X102494092Y-99290000D01*
X102356827Y-99152736D01*
X102555431Y-99235000D01*
X103444569Y-99235000D01*
X104266026Y-98894741D01*
X104894741Y-98266026D01*
X105235000Y-97444569D01*
X105235000Y-96654887D01*
X105265000Y-96654887D01*
X105265000Y-97345113D01*
X105529138Y-97982799D01*
X106017201Y-98470862D01*
X106654887Y-98735000D01*
X107345113Y-98735000D01*
X107982799Y-98470862D01*
X108470862Y-97982799D01*
X108735000Y-97345113D01*
X108735000Y-96654887D01*
X108470862Y-96017201D01*
X107982799Y-95529138D01*
X107345113Y-95265000D01*
X106654887Y-95265000D01*
X106017201Y-95529138D01*
X105529138Y-96017201D01*
X105265000Y-96654887D01*
X105235000Y-96654887D01*
X105235000Y-96555431D01*
X104894741Y-95733974D01*
X104266026Y-95105259D01*
X103444569Y-94765000D01*
X102555431Y-94765000D01*
X101733974Y-95105259D01*
X101105259Y-95733974D01*
X100765000Y-96555431D01*
X100765000Y-97444569D01*
X100847265Y-97643175D01*
X100710000Y-97505910D01*
X100710000Y-76000000D01*
X124276091Y-76000000D01*
X124290000Y-76069926D01*
X124290001Y-97930069D01*
X124276091Y-98000000D01*
X124331195Y-98277028D01*
X124488119Y-98511881D01*
X124722972Y-98668805D01*
X124930074Y-98710000D01*
X124930075Y-98710000D01*
X125000000Y-98723909D01*
X125069926Y-98710000D01*
X126930074Y-98710000D01*
X127000000Y-98723909D01*
X127069925Y-98710000D01*
X127069926Y-98710000D01*
X127277028Y-98668805D01*
X127511881Y-98511881D01*
X127668805Y-98277028D01*
X127708587Y-98077028D01*
X127710000Y-98069926D01*
X127710000Y-98069925D01*
X127723909Y-98000000D01*
X127710000Y-97930074D01*
X127710000Y-96654887D01*
X141265000Y-96654887D01*
X141265000Y-97345113D01*
X141529138Y-97982799D01*
X142017201Y-98470862D01*
X142654887Y-98735000D01*
X143345113Y-98735000D01*
X143982799Y-98470862D01*
X144470862Y-97982799D01*
X144735000Y-97345113D01*
X144735000Y-96654887D01*
X144470862Y-96017201D01*
X143982799Y-95529138D01*
X143345113Y-95265000D01*
X142654887Y-95265000D01*
X142017201Y-95529138D01*
X141529138Y-96017201D01*
X141265000Y-96654887D01*
X127710000Y-96654887D01*
X127710000Y-88103600D01*
X129231012Y-88103600D01*
X129245900Y-88178447D01*
X129245901Y-93544448D01*
X129231012Y-93619300D01*
X129245901Y-93694152D01*
X129289997Y-93915837D01*
X129457972Y-94167229D01*
X129521428Y-94209629D01*
X131105473Y-95793676D01*
X131147871Y-95857129D01*
X131211324Y-95899527D01*
X131211326Y-95899529D01*
X131336702Y-95983302D01*
X131399263Y-96025104D01*
X131620948Y-96069200D01*
X131620952Y-96069200D01*
X131695799Y-96084088D01*
X131770646Y-96069200D01*
X135617553Y-96069200D01*
X135692400Y-96084088D01*
X135767247Y-96069200D01*
X135767252Y-96069200D01*
X135988937Y-96025104D01*
X136240329Y-95857129D01*
X136282731Y-95793670D01*
X142989000Y-89087402D01*
X142989000Y-89185820D01*
X143154182Y-89584603D01*
X143459397Y-89889818D01*
X143858180Y-90055000D01*
X144289820Y-90055000D01*
X144688603Y-89889818D01*
X144993818Y-89584603D01*
X145159000Y-89185820D01*
X145159000Y-88754180D01*
X144993818Y-88355397D01*
X144688603Y-88050182D01*
X144289820Y-87885000D01*
X143858180Y-87885000D01*
X143538800Y-88017292D01*
X143538800Y-84480300D01*
X143860374Y-84480300D01*
X144240780Y-84322731D01*
X144531931Y-84031580D01*
X144689500Y-83651174D01*
X144689500Y-83239426D01*
X144531931Y-82859020D01*
X144469361Y-82796450D01*
X144686231Y-82579580D01*
X144843800Y-82199174D01*
X144843800Y-81787426D01*
X144686231Y-81407020D01*
X144395080Y-81115869D01*
X144218428Y-81042698D01*
X144424280Y-80957431D01*
X144715431Y-80666280D01*
X144873000Y-80285874D01*
X144873000Y-79874126D01*
X144715431Y-79493720D01*
X144424280Y-79202569D01*
X144043874Y-79045000D01*
X143877803Y-79045000D01*
X141598331Y-76765530D01*
X141555929Y-76702071D01*
X141304537Y-76534096D01*
X141082852Y-76490000D01*
X141082847Y-76490000D01*
X141008000Y-76475112D01*
X140933153Y-76490000D01*
X138929538Y-76490000D01*
X138947440Y-76400000D01*
X138947440Y-76100000D01*
X138927549Y-76000000D01*
X138947440Y-75900000D01*
X138947440Y-75880917D01*
X139077526Y-75934800D01*
X139489274Y-75934800D01*
X139869680Y-75777231D01*
X140160831Y-75486080D01*
X140318400Y-75105674D01*
X140318400Y-74693926D01*
X140160831Y-74313520D01*
X139869680Y-74022369D01*
X139849431Y-74013981D01*
X139869447Y-74010000D01*
X139869452Y-74010000D01*
X140091137Y-73965904D01*
X140342529Y-73797929D01*
X140384931Y-73734470D01*
X142029002Y-72090400D01*
X142195074Y-72090400D01*
X142575480Y-71932831D01*
X142866631Y-71641680D01*
X143024200Y-71261274D01*
X143024200Y-70849526D01*
X142929914Y-70621900D01*
X143022289Y-70621900D01*
X143139720Y-70739331D01*
X143520126Y-70896900D01*
X143931874Y-70896900D01*
X144312280Y-70739331D01*
X144603431Y-70448180D01*
X144761000Y-70067774D01*
X144761000Y-69656026D01*
X144603431Y-69275620D01*
X144312280Y-68984469D01*
X143931874Y-68826900D01*
X143520126Y-68826900D01*
X143139720Y-68984469D01*
X143022289Y-69101900D01*
X142767070Y-69101900D01*
X142827100Y-68956974D01*
X142827100Y-68545226D01*
X142718342Y-68282660D01*
X144020473Y-66980529D01*
X144083929Y-66938129D01*
X144126924Y-66873782D01*
X144251904Y-66686738D01*
X144272765Y-66581863D01*
X144292062Y-66484849D01*
X144413431Y-66363480D01*
X144571000Y-65983074D01*
X144571000Y-65571326D01*
X144413431Y-65190920D01*
X144122280Y-64899769D01*
X143741874Y-64742200D01*
X143330126Y-64742200D01*
X143133200Y-64823769D01*
X143133200Y-62084448D01*
X143148088Y-62009600D01*
X143133200Y-61934752D01*
X143133200Y-61934748D01*
X143089104Y-61713063D01*
X143089104Y-61713062D01*
X142963529Y-61525127D01*
X142921129Y-61461671D01*
X142857673Y-61419271D01*
X142252582Y-60814180D01*
X142989000Y-60814180D01*
X142989000Y-61245820D01*
X143154182Y-61644603D01*
X143459397Y-61949818D01*
X143858180Y-62115000D01*
X144289820Y-62115000D01*
X144688603Y-61949818D01*
X144993818Y-61644603D01*
X145159000Y-61245820D01*
X145159000Y-60814180D01*
X144993818Y-60415397D01*
X144688603Y-60110182D01*
X144289820Y-59945000D01*
X143858180Y-59945000D01*
X143459397Y-60110182D01*
X143154182Y-60415397D01*
X142989000Y-60814180D01*
X142252582Y-60814180D01*
X136037131Y-54598730D01*
X135994729Y-54535271D01*
X135743337Y-54367296D01*
X135521652Y-54323200D01*
X135521647Y-54323200D01*
X135446800Y-54308312D01*
X135371953Y-54323200D01*
X131404548Y-54323200D01*
X131329700Y-54308312D01*
X131254852Y-54323200D01*
X131254848Y-54323200D01*
X131081305Y-54357720D01*
X131033162Y-54367296D01*
X130878166Y-54470862D01*
X130781771Y-54535271D01*
X130739371Y-54598727D01*
X129974528Y-55363571D01*
X129911072Y-55405971D01*
X129868672Y-55469427D01*
X129868671Y-55469428D01*
X129743097Y-55657363D01*
X129684112Y-55953900D01*
X129699001Y-56028752D01*
X129699000Y-62311253D01*
X129684112Y-62386100D01*
X129699000Y-62460947D01*
X129699000Y-62460951D01*
X129743096Y-62682636D01*
X129911071Y-62934029D01*
X129974530Y-62976431D01*
X130927469Y-63929371D01*
X130706161Y-64260582D01*
X130590908Y-64840000D01*
X130706161Y-65419418D01*
X131034375Y-65910625D01*
X131332761Y-66110000D01*
X131034375Y-66309375D01*
X130706161Y-66800582D01*
X130590908Y-67380000D01*
X130706161Y-67959418D01*
X131034375Y-68450625D01*
X131332761Y-68650000D01*
X131034375Y-68849375D01*
X130706161Y-69340582D01*
X130590908Y-69920000D01*
X130706161Y-70499418D01*
X131034375Y-70990625D01*
X131332761Y-71190000D01*
X131034375Y-71389375D01*
X130706161Y-71880582D01*
X130590908Y-72460000D01*
X130706161Y-73039418D01*
X131034375Y-73530625D01*
X131332761Y-73730000D01*
X131034375Y-73929375D01*
X130706161Y-74420582D01*
X130590908Y-75000000D01*
X130706161Y-75579418D01*
X131034375Y-76070625D01*
X131332761Y-76270000D01*
X131034375Y-76469375D01*
X130706161Y-76960582D01*
X130590908Y-77540000D01*
X130706161Y-78119418D01*
X131034375Y-78610625D01*
X131332761Y-78810000D01*
X131034375Y-79009375D01*
X130706161Y-79500582D01*
X130590908Y-80080000D01*
X130706161Y-80659418D01*
X131034375Y-81150625D01*
X131332761Y-81350000D01*
X131034375Y-81549375D01*
X130706161Y-82040582D01*
X130590908Y-82620000D01*
X130706161Y-83199418D01*
X131034375Y-83690625D01*
X131332761Y-83890000D01*
X131034375Y-84089375D01*
X130706161Y-84580582D01*
X130590908Y-85160000D01*
X130706161Y-85739418D01*
X130942129Y-86092569D01*
X129521430Y-87513269D01*
X129457971Y-87555671D01*
X129289996Y-87807064D01*
X129245900Y-88028749D01*
X129245900Y-88028753D01*
X129231012Y-88103600D01*
X127710000Y-88103600D01*
X127710000Y-76069926D01*
X127723909Y-76000000D01*
X127668805Y-75722972D01*
X127511881Y-75488119D01*
X127277028Y-75331195D01*
X127069926Y-75290000D01*
X127000000Y-75276091D01*
X126930075Y-75290000D01*
X125069925Y-75290000D01*
X125000000Y-75276091D01*
X124930074Y-75290000D01*
X124722972Y-75331195D01*
X124488119Y-75488119D01*
X124331195Y-75722972D01*
X124276091Y-76000000D01*
X100710000Y-76000000D01*
X100710000Y-52494090D01*
X100847265Y-52356825D01*
X100765000Y-52555431D01*
X100765000Y-53444569D01*
X101105259Y-54266026D01*
X101733974Y-54894741D01*
X102555431Y-55235000D01*
X103444569Y-55235000D01*
X104266026Y-54894741D01*
X104894741Y-54266026D01*
X105235000Y-53444569D01*
X105235000Y-52654887D01*
X105265000Y-52654887D01*
X105265000Y-53345113D01*
X105529138Y-53982799D01*
X106017201Y-54470862D01*
X106654887Y-54735000D01*
X107345113Y-54735000D01*
X107982799Y-54470862D01*
X108470862Y-53982799D01*
X108735000Y-53345113D01*
X108735000Y-52654887D01*
X108470862Y-52017201D01*
X108453661Y-52000000D01*
X124276091Y-52000000D01*
X124290000Y-52069926D01*
X124290001Y-73930069D01*
X124276091Y-74000000D01*
X124331195Y-74277028D01*
X124488119Y-74511881D01*
X124722972Y-74668805D01*
X124930074Y-74710000D01*
X124930075Y-74710000D01*
X125000000Y-74723909D01*
X125069926Y-74710000D01*
X126930074Y-74710000D01*
X127000000Y-74723909D01*
X127069925Y-74710000D01*
X127069926Y-74710000D01*
X127277028Y-74668805D01*
X127511881Y-74511881D01*
X127668805Y-74277028D01*
X127723909Y-74000000D01*
X127710000Y-73930074D01*
X127710000Y-52654887D01*
X141265000Y-52654887D01*
X141265000Y-53345113D01*
X141529138Y-53982799D01*
X142017201Y-54470862D01*
X142654887Y-54735000D01*
X143345113Y-54735000D01*
X143982799Y-54470862D01*
X144470862Y-53982799D01*
X144735000Y-53345113D01*
X144735000Y-52654887D01*
X144470862Y-52017201D01*
X143982799Y-51529138D01*
X143345113Y-51265000D01*
X142654887Y-51265000D01*
X142017201Y-51529138D01*
X141529138Y-52017201D01*
X141265000Y-52654887D01*
X127710000Y-52654887D01*
X127710000Y-52069926D01*
X127723909Y-52000000D01*
X127668805Y-51722972D01*
X127511881Y-51488119D01*
X127277028Y-51331195D01*
X127069926Y-51290000D01*
X127000000Y-51276091D01*
X126930075Y-51290000D01*
X125069925Y-51290000D01*
X125000000Y-51276091D01*
X124930074Y-51290000D01*
X124722972Y-51331195D01*
X124488119Y-51488119D01*
X124331195Y-51722972D01*
X124276091Y-52000000D01*
X108453661Y-52000000D01*
X107982799Y-51529138D01*
X107345113Y-51265000D01*
X106654887Y-51265000D01*
X106017201Y-51529138D01*
X105529138Y-52017201D01*
X105265000Y-52654887D01*
X105235000Y-52654887D01*
X105235000Y-52555431D01*
X104894741Y-51733974D01*
X104266026Y-51105259D01*
X103444569Y-50765000D01*
X102555431Y-50765000D01*
X102356827Y-50847264D01*
X102494092Y-50710000D01*
X147505910Y-50710000D01*
X147643175Y-50847265D01*
G36*
X134772000Y-57093000D02*
X134792000Y-57093000D01*
X134792000Y-57347000D01*
X134772000Y-57347000D01*
X134772000Y-59633000D01*
X135965155Y-59633000D01*
X136086476Y-59403110D01*
X135916645Y-58993076D01*
X135526358Y-58564817D01*
X135367046Y-58490000D01*
X135526358Y-58415183D01*
X135916645Y-57986924D01*
X135941621Y-57926623D01*
X136890000Y-58875002D01*
X136890001Y-64349279D01*
X136772329Y-64173171D01*
X136708873Y-64130771D01*
X135787135Y-63209034D01*
X135916645Y-63066924D01*
X136086476Y-62656890D01*
X135965155Y-62427000D01*
X134772000Y-62427000D01*
X134772000Y-62447000D01*
X134518000Y-62447000D01*
X134518000Y-62427000D01*
X134498000Y-62427000D01*
X134498000Y-62173000D01*
X134518000Y-62173000D01*
X134518000Y-59887000D01*
X134772000Y-59887000D01*
X134772000Y-62173000D01*
X135965155Y-62173000D01*
X136086476Y-61943110D01*
X135916645Y-61533076D01*
X135526358Y-61104817D01*
X135367046Y-61030000D01*
X135526358Y-60955183D01*
X135916645Y-60526924D01*
X136086476Y-60116890D01*
X135965155Y-59887000D01*
X134772000Y-59887000D01*
X134518000Y-59887000D01*
X134498000Y-59887000D01*
X134498000Y-59633000D01*
X134518000Y-59633000D01*
X134518000Y-57347000D01*
X134498000Y-57347000D01*
X134498000Y-57093000D01*
X134518000Y-57093000D01*
X134518000Y-57073000D01*
X134772000Y-57073000D01*
X134772000Y-57093000D01*
X134772000Y-57093000D01*
G37*
X134772000Y-57093000D02*
X134792000Y-57093000D01*
X134792000Y-57347000D01*
X134772000Y-57347000D01*
X134772000Y-59633000D01*
X135965155Y-59633000D01*
X136086476Y-59403110D01*
X135916645Y-58993076D01*
X135526358Y-58564817D01*
X135367046Y-58490000D01*
X135526358Y-58415183D01*
X135916645Y-57986924D01*
X135941621Y-57926623D01*
X136890000Y-58875002D01*
X136890001Y-64349279D01*
X136772329Y-64173171D01*
X136708873Y-64130771D01*
X135787135Y-63209034D01*
X135916645Y-63066924D01*
X136086476Y-62656890D01*
X135965155Y-62427000D01*
X134772000Y-62427000D01*
X134772000Y-62447000D01*
X134518000Y-62447000D01*
X134518000Y-62427000D01*
X134498000Y-62427000D01*
X134498000Y-62173000D01*
X134518000Y-62173000D01*
X134518000Y-59887000D01*
X134772000Y-59887000D01*
X134772000Y-62173000D01*
X135965155Y-62173000D01*
X136086476Y-61943110D01*
X135916645Y-61533076D01*
X135526358Y-61104817D01*
X135367046Y-61030000D01*
X135526358Y-60955183D01*
X135916645Y-60526924D01*
X136086476Y-60116890D01*
X135965155Y-59887000D01*
X134772000Y-59887000D01*
X134518000Y-59887000D01*
X134498000Y-59887000D01*
X134498000Y-59633000D01*
X134518000Y-59633000D01*
X134518000Y-57347000D01*
X134498000Y-57347000D01*
X134498000Y-57093000D01*
X134518000Y-57093000D01*
X134518000Y-57073000D01*
X134772000Y-57073000D01*
X134772000Y-57093000D01*
G04 #@! TD*
M02*
