G04 #@! TF.GenerationSoftware,KiCad,Pcbnew,5.0.2-bee76a0~70~ubuntu18.04.1*
G04 #@! TF.CreationDate,2019-05-12T18:15:27+09:00*
G04 #@! TF.ProjectId,top_pcb,746f705f-7063-4622-9e6b-696361645f70,rev?*
G04 #@! TF.SameCoordinates,Original*
G04 #@! TF.FileFunction,Copper,L2,Bot*
G04 #@! TF.FilePolarity,Positive*
%FSLAX46Y46*%
G04 Gerber Fmt 4.6, Leading zero omitted, Abs format (unit mm)*
G04 Created by KiCad (PCBNEW 5.0.2-bee76a0~70~ubuntu18.04.1) date 2019年05月12日 18時15分27秒*
%MOMM*%
%LPD*%
G01*
G04 APERTURE LIST*
G04 #@! TA.AperFunction,SMDPad,CuDef*
%ADD10R,2.200000X1.800000*%
G04 #@! TD*
G04 #@! TA.AperFunction,SMDPad,CuDef*
%ADD11R,1.300000X0.300000*%
G04 #@! TD*
G04 #@! TA.AperFunction,ComponentPad*
%ADD12R,1.700000X1.700000*%
G04 #@! TD*
G04 #@! TA.AperFunction,ComponentPad*
%ADD13O,1.700000X1.700000*%
G04 #@! TD*
G04 #@! TA.AperFunction,ViaPad*
%ADD14C,0.800000*%
G04 #@! TD*
G04 #@! TA.AperFunction,Conductor*
%ADD15C,0.250000*%
G04 #@! TD*
G04 #@! TA.AperFunction,Conductor*
%ADD16C,0.254000*%
G04 #@! TD*
G04 APERTURE END LIST*
D10*
G04 #@! TO.P,J1,MP*
G04 #@! TO.N,N/C*
X143704000Y-84150000D03*
X143704000Y-65850000D03*
D11*
G04 #@! TO.P,J1,1*
G04 #@! TO.N,G35*
X140454000Y-67750000D03*
G04 #@! TO.P,J1,2*
G04 #@! TO.N,GND*
X140454000Y-68250000D03*
G04 #@! TO.P,J1,3*
G04 #@! TO.N,G36*
X140454000Y-68750000D03*
G04 #@! TO.P,J1,4*
G04 #@! TO.N,GND*
X140454000Y-69250000D03*
G04 #@! TO.P,J1,5*
G04 #@! TO.N,RST*
X140454000Y-69750000D03*
G04 #@! TO.P,J1,6*
G04 #@! TO.N,GND*
X140454000Y-70250000D03*
G04 #@! TO.P,J1,7*
G04 #@! TO.N,G25*
X140454000Y-70750000D03*
G04 #@! TO.P,J1,8*
G04 #@! TO.N,G23*
X140454000Y-71250000D03*
G04 #@! TO.P,J1,9*
G04 #@! TO.N,G26*
X140454000Y-71750000D03*
G04 #@! TO.P,J1,10*
G04 #@! TO.N,G19*
X140454000Y-72250000D03*
G04 #@! TO.P,J1,11*
G04 #@! TO.N,+3V3*
X140454000Y-72750000D03*
G04 #@! TO.P,J1,12*
G04 #@! TO.N,G18*
X140454000Y-73250000D03*
G04 #@! TO.P,J1,13*
G04 #@! TO.N,G1*
X140454000Y-73750000D03*
G04 #@! TO.P,J1,14*
G04 #@! TO.N,G3*
X140454000Y-74250000D03*
G04 #@! TO.P,J1,15*
G04 #@! TO.N,G17*
X140454000Y-74750000D03*
G04 #@! TO.P,J1,16*
G04 #@! TO.N,G16*
X140454000Y-75250000D03*
G04 #@! TO.P,J1,17*
G04 #@! TO.N,G22*
X140454000Y-75750000D03*
G04 #@! TO.P,J1,18*
G04 #@! TO.N,G21*
X140454000Y-76250000D03*
G04 #@! TO.P,J1,19*
G04 #@! TO.N,G5*
X140454000Y-76750000D03*
G04 #@! TO.P,J1,20*
G04 #@! TO.N,G2*
X140454000Y-77250000D03*
G04 #@! TO.P,J1,21*
G04 #@! TO.N,G13*
X140454000Y-77750000D03*
G04 #@! TO.P,J1,22*
G04 #@! TO.N,G12*
X140454000Y-78250000D03*
G04 #@! TO.P,J1,23*
G04 #@! TO.N,G0*
X140454000Y-78750000D03*
G04 #@! TO.P,J1,24*
G04 #@! TO.N,G15*
X140454000Y-79250000D03*
G04 #@! TO.P,J1,25*
G04 #@! TO.N,G34*
X140454000Y-79750000D03*
G04 #@! TO.P,J1,26*
G04 #@! TO.N,HPWR*
X140454000Y-80250000D03*
G04 #@! TO.P,J1,27*
G04 #@! TO.N,+5V*
X140454000Y-80750000D03*
G04 #@! TO.P,J1,28*
G04 #@! TO.N,HPWR*
X140454000Y-81250000D03*
G04 #@! TO.P,J1,29*
G04 #@! TO.N,+BATT*
X140454000Y-81750000D03*
G04 #@! TO.P,J1,30*
G04 #@! TO.N,HPWR*
X140454000Y-82250000D03*
G04 #@! TD*
D12*
G04 #@! TO.P,J3,1*
G04 #@! TO.N,G35*
X132105000Y-57220000D03*
D13*
G04 #@! TO.P,J3,2*
G04 #@! TO.N,GND*
X134645000Y-57220000D03*
G04 #@! TO.P,J3,3*
G04 #@! TO.N,G36*
X132105000Y-59760000D03*
G04 #@! TO.P,J3,4*
G04 #@! TO.N,GND*
X134645000Y-59760000D03*
G04 #@! TO.P,J3,5*
G04 #@! TO.N,RST*
X132105000Y-62300000D03*
G04 #@! TO.P,J3,6*
G04 #@! TO.N,GND*
X134645000Y-62300000D03*
G04 #@! TO.P,J3,7*
G04 #@! TO.N,G25*
X132105000Y-64840000D03*
G04 #@! TO.P,J3,8*
G04 #@! TO.N,G23*
X134645000Y-64840000D03*
G04 #@! TO.P,J3,9*
G04 #@! TO.N,G26*
X132105000Y-67380000D03*
G04 #@! TO.P,J3,10*
G04 #@! TO.N,G19*
X134645000Y-67380000D03*
G04 #@! TO.P,J3,11*
G04 #@! TO.N,+3V3*
X132105000Y-69920000D03*
G04 #@! TO.P,J3,12*
G04 #@! TO.N,G18*
X134645000Y-69920000D03*
G04 #@! TO.P,J3,13*
G04 #@! TO.N,G1*
X132105000Y-72460000D03*
G04 #@! TO.P,J3,14*
G04 #@! TO.N,G3*
X134645000Y-72460000D03*
G04 #@! TO.P,J3,15*
G04 #@! TO.N,G17*
X132105000Y-75000000D03*
G04 #@! TO.P,J3,16*
G04 #@! TO.N,G16*
X134645000Y-75000000D03*
G04 #@! TO.P,J3,17*
G04 #@! TO.N,G22*
X132105000Y-77540000D03*
G04 #@! TO.P,J3,18*
G04 #@! TO.N,G21*
X134645000Y-77540000D03*
G04 #@! TO.P,J3,19*
G04 #@! TO.N,G5*
X132105000Y-80080000D03*
G04 #@! TO.P,J3,20*
G04 #@! TO.N,G2*
X134645000Y-80080000D03*
G04 #@! TO.P,J3,21*
G04 #@! TO.N,G13*
X132105000Y-82620000D03*
G04 #@! TO.P,J3,22*
G04 #@! TO.N,G12*
X134645000Y-82620000D03*
G04 #@! TO.P,J3,23*
G04 #@! TO.N,G0*
X132105000Y-85160000D03*
G04 #@! TO.P,J3,24*
G04 #@! TO.N,G15*
X134645000Y-85160000D03*
G04 #@! TO.P,J3,25*
G04 #@! TO.N,G34*
X132105000Y-87700000D03*
G04 #@! TO.P,J3,26*
G04 #@! TO.N,HPWR*
X134645000Y-87700000D03*
G04 #@! TO.P,J3,27*
G04 #@! TO.N,+5V*
X132105000Y-90240000D03*
G04 #@! TO.P,J3,28*
G04 #@! TO.N,HPWR*
X134645000Y-90240000D03*
G04 #@! TO.P,J3,29*
G04 #@! TO.N,+BATT*
X132105000Y-92780000D03*
G04 #@! TO.P,J3,30*
G04 #@! TO.N,HPWR*
X134645000Y-92780000D03*
G04 #@! TD*
D14*
G04 #@! TO.N,GND*
X144411700Y-55232300D03*
X105740200Y-55270400D03*
X105638600Y-94919800D03*
X144284700Y-94856300D03*
G04 #@! TO.N,G3*
X141731600Y-73577600D03*
G04 #@! TO.N,G15*
X146481600Y-84045900D03*
G04 #@! TD*
D15*
G04 #@! TO.N,GND*
X140454000Y-69250000D02*
X139478700Y-69250000D01*
X134645000Y-62300000D02*
X138173600Y-65828600D01*
X138173600Y-65828600D02*
X138173600Y-67944900D01*
X138173600Y-67944900D02*
X139478700Y-69250000D01*
X134645000Y-57220000D02*
X134645000Y-59760000D01*
X140454000Y-68250000D02*
X141429300Y-68250000D01*
X141429300Y-69250000D02*
X141429300Y-68250000D01*
X141316700Y-69250000D02*
X141429300Y-69250000D01*
X140454000Y-69250000D02*
X141316700Y-69250000D01*
X140454000Y-70250000D02*
X141215800Y-70250000D01*
X141215800Y-70250000D02*
X141429300Y-70036500D01*
X141429300Y-70036500D02*
X141429300Y-69250000D01*
X105740200Y-55270400D02*
X105740200Y-94818200D01*
X105740200Y-94818200D02*
X105638600Y-94919800D01*
G04 #@! TO.N,G23*
X134645000Y-66015300D02*
X135096000Y-66015300D01*
X135096000Y-66015300D02*
X137168400Y-68087700D01*
X137168400Y-68087700D02*
X137168400Y-68939700D01*
X137168400Y-68939700D02*
X139478700Y-71250000D01*
X140454000Y-71250000D02*
X139478700Y-71250000D01*
X134645000Y-64840000D02*
X134645000Y-66015300D01*
G04 #@! TO.N,G19*
X135820300Y-67380000D02*
X135820300Y-68591600D01*
X135820300Y-68591600D02*
X139478700Y-72250000D01*
X140454000Y-72250000D02*
X139478700Y-72250000D01*
X134645000Y-67380000D02*
X135820300Y-67380000D01*
G04 #@! TO.N,G18*
X135820300Y-69920000D02*
X139150300Y-73250000D01*
X139150300Y-73250000D02*
X140454000Y-73250000D01*
X134645000Y-69920000D02*
X135820300Y-69920000D01*
G04 #@! TO.N,G3*
X140454000Y-74250000D02*
X141429300Y-74250000D01*
X141429300Y-74250000D02*
X141429300Y-73879900D01*
X141429300Y-73879900D02*
X141731600Y-73577600D01*
G04 #@! TO.N,G16*
X139478700Y-75250000D02*
X139228700Y-75000000D01*
X139228700Y-75000000D02*
X135820300Y-75000000D01*
X140454000Y-75250000D02*
X139478700Y-75250000D01*
X134645000Y-75000000D02*
X135820300Y-75000000D01*
G04 #@! TO.N,G21*
X134645000Y-77540000D02*
X136338400Y-77540000D01*
X136338400Y-77540000D02*
X137628400Y-76250000D01*
X137628400Y-76250000D02*
X140454000Y-76250000D01*
G04 #@! TO.N,G2*
X134645000Y-80080000D02*
X136192600Y-80080000D01*
X136192600Y-80080000D02*
X139022600Y-77250000D01*
X139022600Y-77250000D02*
X140454000Y-77250000D01*
G04 #@! TO.N,G12*
X140454000Y-78250000D02*
X139478700Y-78250000D01*
X134645000Y-82620000D02*
X135820300Y-82620000D01*
X135820300Y-82620000D02*
X135820300Y-81908400D01*
X135820300Y-81908400D02*
X139478700Y-78250000D01*
G04 #@! TO.N,G15*
X140454000Y-79250000D02*
X141957300Y-79250000D01*
X141957300Y-79250000D02*
X146481600Y-83774300D01*
X146481600Y-83774300D02*
X146481600Y-84045900D01*
G04 #@! TO.N,HPWR*
X134645000Y-90240000D02*
X134645000Y-87700000D01*
X134645000Y-92780000D02*
X134645000Y-90240000D01*
X140454000Y-80250000D02*
X139478700Y-80250000D01*
X139478700Y-81250000D02*
X139478700Y-80250000D01*
X139478700Y-82250000D02*
X139478700Y-81250000D01*
X134645000Y-86524700D02*
X135204000Y-86524700D01*
X135204000Y-86524700D02*
X139478700Y-82250000D01*
X140454000Y-81250000D02*
X139478700Y-81250000D01*
X134645000Y-87700000D02*
X134645000Y-86524700D01*
X140454000Y-82250000D02*
X139478700Y-82250000D01*
G04 #@! TO.N,+BATT*
X140454000Y-81750000D02*
X141429300Y-81750000D01*
X132105000Y-92780000D02*
X133280300Y-92780000D01*
X133280300Y-92780000D02*
X133280300Y-93147300D01*
X133280300Y-93147300D02*
X134118200Y-93985200D01*
X134118200Y-93985200D02*
X135133500Y-93985200D01*
X135133500Y-93985200D02*
X141429300Y-87689400D01*
X141429300Y-87689400D02*
X141429300Y-81750000D01*
G04 #@! TO.N,+5V*
X140454000Y-80750000D02*
X141429300Y-80750000D01*
X132105000Y-90240000D02*
X132105000Y-91415300D01*
X132105000Y-91415300D02*
X131737700Y-91415300D01*
X131737700Y-91415300D02*
X130923400Y-92229600D01*
X130923400Y-92229600D02*
X130923400Y-93310500D01*
X130923400Y-93310500D02*
X132090600Y-94477700D01*
X132090600Y-94477700D02*
X135321500Y-94477700D01*
X135321500Y-94477700D02*
X141890400Y-87908800D01*
X141890400Y-87908800D02*
X141890400Y-81211100D01*
X141890400Y-81211100D02*
X141429300Y-80750000D01*
G04 #@! TO.N,G34*
X132105000Y-88875300D02*
X131739700Y-88875300D01*
X131739700Y-88875300D02*
X130473000Y-90142000D01*
X130473000Y-90142000D02*
X130473000Y-93497000D01*
X130473000Y-93497000D02*
X131904100Y-94928100D01*
X131904100Y-94928100D02*
X135551600Y-94928100D01*
X135551600Y-94928100D02*
X145129400Y-85350300D01*
X145129400Y-85350300D02*
X145129400Y-83071000D01*
X145129400Y-83071000D02*
X141808400Y-79750000D01*
X141808400Y-79750000D02*
X140454000Y-79750000D01*
X132105000Y-87700000D02*
X132105000Y-88875300D01*
G04 #@! TO.N,G0*
X132105000Y-85160000D02*
X133280300Y-85160000D01*
X133280300Y-85160000D02*
X133280300Y-84792600D01*
X133280300Y-84792600D02*
X134088200Y-83984700D01*
X134088200Y-83984700D02*
X135105100Y-83984700D01*
X135105100Y-83984700D02*
X139375500Y-79714300D01*
X139375500Y-79714300D02*
X139375500Y-78990100D01*
X139375500Y-78990100D02*
X139615600Y-78750000D01*
X139615600Y-78750000D02*
X140454000Y-78750000D01*
G04 #@! TO.N,G13*
X140454000Y-77750000D02*
X139478700Y-77750000D01*
X133280300Y-82620000D02*
X133280300Y-82252600D01*
X133280300Y-82252600D02*
X134088200Y-81444700D01*
X134088200Y-81444700D02*
X135533200Y-81444700D01*
X135533200Y-81444700D02*
X139227900Y-77750000D01*
X139227900Y-77750000D02*
X139478700Y-77750000D01*
X132105000Y-82620000D02*
X133280300Y-82620000D01*
G04 #@! TO.N,G5*
X140454000Y-76750000D02*
X138518300Y-76750000D01*
X138518300Y-76750000D02*
X136363600Y-78904700D01*
X136363600Y-78904700D02*
X134088200Y-78904700D01*
X134088200Y-78904700D02*
X133280300Y-79712600D01*
X133280300Y-79712600D02*
X133280300Y-80080000D01*
X132105000Y-80080000D02*
X133280300Y-80080000D01*
G04 #@! TO.N,G22*
X132105000Y-77540000D02*
X133280300Y-77540000D01*
X133280300Y-77540000D02*
X133280300Y-77172600D01*
X133280300Y-77172600D02*
X134088200Y-76364700D01*
X134088200Y-76364700D02*
X136756300Y-76364700D01*
X136756300Y-76364700D02*
X137371000Y-75750000D01*
X137371000Y-75750000D02*
X140454000Y-75750000D01*
G04 #@! TO.N,G17*
X141429300Y-74750000D02*
X141682400Y-74750000D01*
X141682400Y-74750000D02*
X145625300Y-70807100D01*
X145625300Y-70807100D02*
X145625300Y-64522700D01*
X145625300Y-64522700D02*
X135796300Y-54693700D01*
X135796300Y-54693700D02*
X131029500Y-54693700D01*
X131029500Y-54693700D02*
X129986900Y-55736300D01*
X129986900Y-55736300D02*
X129986900Y-72073900D01*
X129986900Y-72073900D02*
X131737700Y-73824700D01*
X131737700Y-73824700D02*
X132105000Y-73824700D01*
X132105000Y-75000000D02*
X132105000Y-73824700D01*
X140454000Y-74750000D02*
X141429300Y-74750000D01*
G04 #@! TO.N,G1*
X132105000Y-72460000D02*
X133280300Y-72460000D01*
X133280300Y-72460000D02*
X133280300Y-72827300D01*
X133280300Y-72827300D02*
X134203000Y-73750000D01*
X134203000Y-73750000D02*
X140454000Y-73750000D01*
G04 #@! TO.N,G26*
X140454000Y-71750000D02*
X141429300Y-71750000D01*
X141429300Y-71750000D02*
X145175000Y-68004300D01*
X145175000Y-68004300D02*
X145175000Y-64709300D01*
X145175000Y-64709300D02*
X135609700Y-55144000D01*
X135609700Y-55144000D02*
X131257500Y-55144000D01*
X131257500Y-55144000D02*
X130451400Y-55950100D01*
X130451400Y-55950100D02*
X130451400Y-64918500D01*
X130451400Y-64918500D02*
X131737600Y-66204700D01*
X131737600Y-66204700D02*
X132105000Y-66204700D01*
X132105000Y-67380000D02*
X132105000Y-66204700D01*
G04 #@! TO.N,G25*
X132105000Y-64840000D02*
X132105000Y-63664700D01*
X141429300Y-70750000D02*
X141929300Y-70250000D01*
X141929300Y-70250000D02*
X141929300Y-62180100D01*
X141929300Y-62180100D02*
X135343500Y-55594300D01*
X135343500Y-55594300D02*
X131463800Y-55594300D01*
X131463800Y-55594300D02*
X130929700Y-56128400D01*
X130929700Y-56128400D02*
X130929700Y-62856800D01*
X130929700Y-62856800D02*
X131737600Y-63664700D01*
X131737600Y-63664700D02*
X132105000Y-63664700D01*
X140454000Y-70750000D02*
X141429300Y-70750000D01*
G04 #@! TO.N,RST*
X133280300Y-62300000D02*
X133280300Y-62667400D01*
X133280300Y-62667400D02*
X134088200Y-63475300D01*
X134088200Y-63475300D02*
X135012400Y-63475300D01*
X135012400Y-63475300D02*
X137618700Y-66081600D01*
X137618700Y-66081600D02*
X137618700Y-68089000D01*
X137618700Y-68089000D02*
X139279700Y-69750000D01*
X139279700Y-69750000D02*
X139478700Y-69750000D01*
X140454000Y-69750000D02*
X139478700Y-69750000D01*
X132105000Y-62300000D02*
X133280300Y-62300000D01*
G04 #@! TO.N,G36*
X132105000Y-59760000D02*
X133280300Y-59760000D01*
X133280300Y-59760000D02*
X133280300Y-60127400D01*
X133280300Y-60127400D02*
X134088200Y-60935300D01*
X134088200Y-60935300D02*
X134969700Y-60935300D01*
X134969700Y-60935300D02*
X138985000Y-64950600D01*
X138985000Y-64950600D02*
X138985000Y-68046100D01*
X138985000Y-68046100D02*
X139688900Y-68750000D01*
X139688900Y-68750000D02*
X140454000Y-68750000D01*
G04 #@! TO.N,G35*
X140454000Y-67750000D02*
X139478700Y-67750000D01*
X132105000Y-57220000D02*
X133280300Y-57220000D01*
X133280300Y-57220000D02*
X133280300Y-56852600D01*
X133280300Y-56852600D02*
X134088200Y-56044700D01*
X134088200Y-56044700D02*
X135157000Y-56044700D01*
X135157000Y-56044700D02*
X139478700Y-60366400D01*
X139478700Y-60366400D02*
X139478700Y-67750000D01*
G04 #@! TO.N,+3V3*
X132105000Y-69920000D02*
X133280300Y-69920000D01*
X133280300Y-69920000D02*
X133280300Y-69552700D01*
X133280300Y-69552700D02*
X134107000Y-68726000D01*
X134107000Y-68726000D02*
X135263200Y-68726000D01*
X135263200Y-68726000D02*
X139287200Y-72750000D01*
X139287200Y-72750000D02*
X140454000Y-72750000D01*
G04 #@! TD*
D16*
G04 #@! TO.N,GND*
G36*
X147643175Y-50847265D02*
X147444569Y-50765000D01*
X146555431Y-50765000D01*
X145733974Y-51105259D01*
X145105259Y-51733974D01*
X144765000Y-52555431D01*
X144765000Y-53444569D01*
X145105259Y-54266026D01*
X145733974Y-54894741D01*
X146555431Y-55235000D01*
X147444569Y-55235000D01*
X148266026Y-54894741D01*
X148894741Y-54266026D01*
X149235000Y-53444569D01*
X149235000Y-52555431D01*
X149152736Y-52356827D01*
X149265000Y-52469092D01*
X149265001Y-97530907D01*
X149152736Y-97643173D01*
X149235000Y-97444569D01*
X149235000Y-96555431D01*
X148894741Y-95733974D01*
X148266026Y-95105259D01*
X147444569Y-94765000D01*
X146555431Y-94765000D01*
X145733974Y-95105259D01*
X145105259Y-95733974D01*
X144765000Y-96555431D01*
X144765000Y-97444569D01*
X145105259Y-98266026D01*
X145733974Y-98894741D01*
X146555431Y-99235000D01*
X147444569Y-99235000D01*
X147643175Y-99152735D01*
X147505910Y-99290000D01*
X102494092Y-99290000D01*
X102356827Y-99152736D01*
X102555431Y-99235000D01*
X103444569Y-99235000D01*
X104266026Y-98894741D01*
X104894741Y-98266026D01*
X105235000Y-97444569D01*
X105235000Y-96654887D01*
X105265000Y-96654887D01*
X105265000Y-97345113D01*
X105529138Y-97982799D01*
X106017201Y-98470862D01*
X106654887Y-98735000D01*
X107345113Y-98735000D01*
X107982799Y-98470862D01*
X108470862Y-97982799D01*
X108735000Y-97345113D01*
X108735000Y-96654887D01*
X108470862Y-96017201D01*
X107982799Y-95529138D01*
X107345113Y-95265000D01*
X106654887Y-95265000D01*
X106017201Y-95529138D01*
X105529138Y-96017201D01*
X105265000Y-96654887D01*
X105235000Y-96654887D01*
X105235000Y-96555431D01*
X104894741Y-95733974D01*
X104266026Y-95105259D01*
X103444569Y-94765000D01*
X102555431Y-94765000D01*
X101733974Y-95105259D01*
X101105259Y-95733974D01*
X100765000Y-96555431D01*
X100765000Y-97444569D01*
X100847265Y-97643175D01*
X100710000Y-97505910D01*
X100710000Y-76000000D01*
X124276091Y-76000000D01*
X124290000Y-76069926D01*
X124290001Y-97930069D01*
X124276091Y-98000000D01*
X124331195Y-98277028D01*
X124488119Y-98511881D01*
X124722972Y-98668805D01*
X124930074Y-98710000D01*
X124930075Y-98710000D01*
X125000000Y-98723909D01*
X125069926Y-98710000D01*
X126930074Y-98710000D01*
X127000000Y-98723909D01*
X127069925Y-98710000D01*
X127069926Y-98710000D01*
X127277028Y-98668805D01*
X127511881Y-98511881D01*
X127668805Y-98277028D01*
X127708587Y-98077028D01*
X127710000Y-98069926D01*
X127710000Y-98069925D01*
X127723909Y-98000000D01*
X127710000Y-97930074D01*
X127710000Y-96654887D01*
X141265000Y-96654887D01*
X141265000Y-97345113D01*
X141529138Y-97982799D01*
X142017201Y-98470862D01*
X142654887Y-98735000D01*
X143345113Y-98735000D01*
X143982799Y-98470862D01*
X144470862Y-97982799D01*
X144735000Y-97345113D01*
X144735000Y-96654887D01*
X144470862Y-96017201D01*
X143982799Y-95529138D01*
X143345113Y-95265000D01*
X142654887Y-95265000D01*
X142017201Y-95529138D01*
X141529138Y-96017201D01*
X141265000Y-96654887D01*
X127710000Y-96654887D01*
X127710000Y-76069926D01*
X127723909Y-76000000D01*
X127668805Y-75722972D01*
X127511881Y-75488119D01*
X127277028Y-75331195D01*
X127069926Y-75290000D01*
X127000000Y-75276091D01*
X126930075Y-75290000D01*
X125069925Y-75290000D01*
X125000000Y-75276091D01*
X124930074Y-75290000D01*
X124722972Y-75331195D01*
X124488119Y-75488119D01*
X124331195Y-75722972D01*
X124276091Y-76000000D01*
X100710000Y-76000000D01*
X100710000Y-52494090D01*
X100847265Y-52356825D01*
X100765000Y-52555431D01*
X100765000Y-53444569D01*
X101105259Y-54266026D01*
X101733974Y-54894741D01*
X102555431Y-55235000D01*
X103444569Y-55235000D01*
X104266026Y-54894741D01*
X104894741Y-54266026D01*
X105235000Y-53444569D01*
X105235000Y-52654887D01*
X105265000Y-52654887D01*
X105265000Y-53345113D01*
X105529138Y-53982799D01*
X106017201Y-54470862D01*
X106654887Y-54735000D01*
X107345113Y-54735000D01*
X107982799Y-54470862D01*
X108470862Y-53982799D01*
X108735000Y-53345113D01*
X108735000Y-52654887D01*
X108470862Y-52017201D01*
X108453661Y-52000000D01*
X124276091Y-52000000D01*
X124290000Y-52069926D01*
X124290001Y-73930069D01*
X124276091Y-74000000D01*
X124331195Y-74277028D01*
X124488119Y-74511881D01*
X124722972Y-74668805D01*
X124930074Y-74710000D01*
X124930075Y-74710000D01*
X125000000Y-74723909D01*
X125069926Y-74710000D01*
X126930074Y-74710000D01*
X127000000Y-74723909D01*
X127069925Y-74710000D01*
X127069926Y-74710000D01*
X127277028Y-74668805D01*
X127511881Y-74511881D01*
X127668805Y-74277028D01*
X127723909Y-74000000D01*
X127710000Y-73930074D01*
X127710000Y-55736300D01*
X129212012Y-55736300D01*
X129226900Y-55811147D01*
X129226901Y-71999048D01*
X129212012Y-72073900D01*
X129270997Y-72370437D01*
X129389267Y-72547440D01*
X129438972Y-72621829D01*
X129502428Y-72664229D01*
X130927509Y-74089311D01*
X130706161Y-74420582D01*
X130590908Y-75000000D01*
X130706161Y-75579418D01*
X131034375Y-76070625D01*
X131332761Y-76270000D01*
X131034375Y-76469375D01*
X130706161Y-76960582D01*
X130590908Y-77540000D01*
X130706161Y-78119418D01*
X131034375Y-78610625D01*
X131332761Y-78810000D01*
X131034375Y-79009375D01*
X130706161Y-79500582D01*
X130590908Y-80080000D01*
X130706161Y-80659418D01*
X131034375Y-81150625D01*
X131332761Y-81350000D01*
X131034375Y-81549375D01*
X130706161Y-82040582D01*
X130590908Y-82620000D01*
X130706161Y-83199418D01*
X131034375Y-83690625D01*
X131332761Y-83890000D01*
X131034375Y-84089375D01*
X130706161Y-84580582D01*
X130590908Y-85160000D01*
X130706161Y-85739418D01*
X131034375Y-86230625D01*
X131332761Y-86430000D01*
X131034375Y-86629375D01*
X130706161Y-87120582D01*
X130590908Y-87700000D01*
X130706161Y-88279418D01*
X130928310Y-88611887D01*
X129988530Y-89551669D01*
X129925071Y-89594071D01*
X129757096Y-89845464D01*
X129713000Y-90067149D01*
X129713000Y-90067153D01*
X129698112Y-90142000D01*
X129713000Y-90216847D01*
X129713001Y-93422148D01*
X129698112Y-93497000D01*
X129757097Y-93793537D01*
X129843060Y-93922189D01*
X129925072Y-94044929D01*
X129988528Y-94087329D01*
X131313771Y-95412573D01*
X131356171Y-95476029D01*
X131607563Y-95644004D01*
X131829248Y-95688100D01*
X131829252Y-95688100D01*
X131904099Y-95702988D01*
X131978946Y-95688100D01*
X135476753Y-95688100D01*
X135551600Y-95702988D01*
X135626447Y-95688100D01*
X135626452Y-95688100D01*
X135848137Y-95644004D01*
X136099529Y-95476029D01*
X136141931Y-95412570D01*
X143122417Y-88432085D01*
X142989000Y-88754180D01*
X142989000Y-89185820D01*
X143154182Y-89584603D01*
X143459397Y-89889818D01*
X143858180Y-90055000D01*
X144289820Y-90055000D01*
X144688603Y-89889818D01*
X144993818Y-89584603D01*
X145159000Y-89185820D01*
X145159000Y-88754180D01*
X144993818Y-88355397D01*
X144688603Y-88050182D01*
X144289820Y-87885000D01*
X143858180Y-87885000D01*
X143536085Y-88018417D01*
X145613873Y-85940629D01*
X145677329Y-85898229D01*
X145737086Y-85808796D01*
X145845304Y-85646838D01*
X145854880Y-85598695D01*
X145889400Y-85425152D01*
X145889400Y-85425148D01*
X145904288Y-85350300D01*
X145889400Y-85275452D01*
X145889400Y-84917411D01*
X145895320Y-84923331D01*
X146275726Y-85080900D01*
X146687474Y-85080900D01*
X147067880Y-84923331D01*
X147359031Y-84632180D01*
X147516600Y-84251774D01*
X147516600Y-83840026D01*
X147359031Y-83459620D01*
X147067880Y-83168469D01*
X146867623Y-83085520D01*
X142547631Y-78765530D01*
X142505229Y-78702071D01*
X142253837Y-78534096D01*
X142032152Y-78490000D01*
X142032147Y-78490000D01*
X141957300Y-78475112D01*
X141882453Y-78490000D01*
X141733538Y-78490000D01*
X141751440Y-78400000D01*
X141751440Y-78100000D01*
X141731549Y-78000000D01*
X141751440Y-77900000D01*
X141751440Y-77600000D01*
X141731549Y-77500000D01*
X141751440Y-77400000D01*
X141751440Y-77100000D01*
X141731549Y-77000000D01*
X141751440Y-76900000D01*
X141751440Y-76600000D01*
X141731549Y-76500000D01*
X141751440Y-76400000D01*
X141751440Y-76100000D01*
X141731549Y-76000000D01*
X141751440Y-75900000D01*
X141751440Y-75600000D01*
X141734440Y-75514536D01*
X141757247Y-75510000D01*
X141757252Y-75510000D01*
X141978937Y-75465904D01*
X142230329Y-75297929D01*
X142272731Y-75234470D01*
X146109773Y-71397429D01*
X146173229Y-71355029D01*
X146243407Y-71250000D01*
X146341204Y-71103638D01*
X146361452Y-71001843D01*
X146385300Y-70881952D01*
X146385300Y-70881948D01*
X146400188Y-70807100D01*
X146385300Y-70732252D01*
X146385300Y-64597546D01*
X146400188Y-64522699D01*
X146385300Y-64447852D01*
X146385300Y-64447848D01*
X146341204Y-64226163D01*
X146173229Y-63974771D01*
X146109773Y-63932371D01*
X144291646Y-62114244D01*
X144688603Y-61949818D01*
X144993818Y-61644603D01*
X145159000Y-61245820D01*
X145159000Y-60814180D01*
X144993818Y-60415397D01*
X144688603Y-60110182D01*
X144289820Y-59945000D01*
X143858180Y-59945000D01*
X143459397Y-60110182D01*
X143154182Y-60415397D01*
X142989756Y-60812354D01*
X136386631Y-54209230D01*
X136344229Y-54145771D01*
X136092837Y-53977796D01*
X135871152Y-53933700D01*
X135871147Y-53933700D01*
X135796300Y-53918812D01*
X135721453Y-53933700D01*
X131104346Y-53933700D01*
X131029499Y-53918812D01*
X130954652Y-53933700D01*
X130954648Y-53933700D01*
X130732963Y-53977796D01*
X130481571Y-54145771D01*
X130439171Y-54209227D01*
X129502430Y-55145969D01*
X129438971Y-55188371D01*
X129270996Y-55439764D01*
X129226900Y-55661449D01*
X129226900Y-55661453D01*
X129212012Y-55736300D01*
X127710000Y-55736300D01*
X127710000Y-52654887D01*
X141265000Y-52654887D01*
X141265000Y-53345113D01*
X141529138Y-53982799D01*
X142017201Y-54470862D01*
X142654887Y-54735000D01*
X143345113Y-54735000D01*
X143982799Y-54470862D01*
X144470862Y-53982799D01*
X144735000Y-53345113D01*
X144735000Y-52654887D01*
X144470862Y-52017201D01*
X143982799Y-51529138D01*
X143345113Y-51265000D01*
X142654887Y-51265000D01*
X142017201Y-51529138D01*
X141529138Y-52017201D01*
X141265000Y-52654887D01*
X127710000Y-52654887D01*
X127710000Y-52069926D01*
X127723909Y-52000000D01*
X127668805Y-51722972D01*
X127511881Y-51488119D01*
X127277028Y-51331195D01*
X127069926Y-51290000D01*
X127000000Y-51276091D01*
X126930075Y-51290000D01*
X125069925Y-51290000D01*
X125000000Y-51276091D01*
X124930074Y-51290000D01*
X124722972Y-51331195D01*
X124488119Y-51488119D01*
X124331195Y-51722972D01*
X124276091Y-52000000D01*
X108453661Y-52000000D01*
X107982799Y-51529138D01*
X107345113Y-51265000D01*
X106654887Y-51265000D01*
X106017201Y-51529138D01*
X105529138Y-52017201D01*
X105265000Y-52654887D01*
X105235000Y-52654887D01*
X105235000Y-52555431D01*
X104894741Y-51733974D01*
X104266026Y-51105259D01*
X103444569Y-50765000D01*
X102555431Y-50765000D01*
X102356827Y-50847264D01*
X102494092Y-50710000D01*
X147505910Y-50710000D01*
X147643175Y-50847265D01*
X147643175Y-50847265D01*
G37*
X147643175Y-50847265D02*
X147444569Y-50765000D01*
X146555431Y-50765000D01*
X145733974Y-51105259D01*
X145105259Y-51733974D01*
X144765000Y-52555431D01*
X144765000Y-53444569D01*
X145105259Y-54266026D01*
X145733974Y-54894741D01*
X146555431Y-55235000D01*
X147444569Y-55235000D01*
X148266026Y-54894741D01*
X148894741Y-54266026D01*
X149235000Y-53444569D01*
X149235000Y-52555431D01*
X149152736Y-52356827D01*
X149265000Y-52469092D01*
X149265001Y-97530907D01*
X149152736Y-97643173D01*
X149235000Y-97444569D01*
X149235000Y-96555431D01*
X148894741Y-95733974D01*
X148266026Y-95105259D01*
X147444569Y-94765000D01*
X146555431Y-94765000D01*
X145733974Y-95105259D01*
X145105259Y-95733974D01*
X144765000Y-96555431D01*
X144765000Y-97444569D01*
X145105259Y-98266026D01*
X145733974Y-98894741D01*
X146555431Y-99235000D01*
X147444569Y-99235000D01*
X147643175Y-99152735D01*
X147505910Y-99290000D01*
X102494092Y-99290000D01*
X102356827Y-99152736D01*
X102555431Y-99235000D01*
X103444569Y-99235000D01*
X104266026Y-98894741D01*
X104894741Y-98266026D01*
X105235000Y-97444569D01*
X105235000Y-96654887D01*
X105265000Y-96654887D01*
X105265000Y-97345113D01*
X105529138Y-97982799D01*
X106017201Y-98470862D01*
X106654887Y-98735000D01*
X107345113Y-98735000D01*
X107982799Y-98470862D01*
X108470862Y-97982799D01*
X108735000Y-97345113D01*
X108735000Y-96654887D01*
X108470862Y-96017201D01*
X107982799Y-95529138D01*
X107345113Y-95265000D01*
X106654887Y-95265000D01*
X106017201Y-95529138D01*
X105529138Y-96017201D01*
X105265000Y-96654887D01*
X105235000Y-96654887D01*
X105235000Y-96555431D01*
X104894741Y-95733974D01*
X104266026Y-95105259D01*
X103444569Y-94765000D01*
X102555431Y-94765000D01*
X101733974Y-95105259D01*
X101105259Y-95733974D01*
X100765000Y-96555431D01*
X100765000Y-97444569D01*
X100847265Y-97643175D01*
X100710000Y-97505910D01*
X100710000Y-76000000D01*
X124276091Y-76000000D01*
X124290000Y-76069926D01*
X124290001Y-97930069D01*
X124276091Y-98000000D01*
X124331195Y-98277028D01*
X124488119Y-98511881D01*
X124722972Y-98668805D01*
X124930074Y-98710000D01*
X124930075Y-98710000D01*
X125000000Y-98723909D01*
X125069926Y-98710000D01*
X126930074Y-98710000D01*
X127000000Y-98723909D01*
X127069925Y-98710000D01*
X127069926Y-98710000D01*
X127277028Y-98668805D01*
X127511881Y-98511881D01*
X127668805Y-98277028D01*
X127708587Y-98077028D01*
X127710000Y-98069926D01*
X127710000Y-98069925D01*
X127723909Y-98000000D01*
X127710000Y-97930074D01*
X127710000Y-96654887D01*
X141265000Y-96654887D01*
X141265000Y-97345113D01*
X141529138Y-97982799D01*
X142017201Y-98470862D01*
X142654887Y-98735000D01*
X143345113Y-98735000D01*
X143982799Y-98470862D01*
X144470862Y-97982799D01*
X144735000Y-97345113D01*
X144735000Y-96654887D01*
X144470862Y-96017201D01*
X143982799Y-95529138D01*
X143345113Y-95265000D01*
X142654887Y-95265000D01*
X142017201Y-95529138D01*
X141529138Y-96017201D01*
X141265000Y-96654887D01*
X127710000Y-96654887D01*
X127710000Y-76069926D01*
X127723909Y-76000000D01*
X127668805Y-75722972D01*
X127511881Y-75488119D01*
X127277028Y-75331195D01*
X127069926Y-75290000D01*
X127000000Y-75276091D01*
X126930075Y-75290000D01*
X125069925Y-75290000D01*
X125000000Y-75276091D01*
X124930074Y-75290000D01*
X124722972Y-75331195D01*
X124488119Y-75488119D01*
X124331195Y-75722972D01*
X124276091Y-76000000D01*
X100710000Y-76000000D01*
X100710000Y-52494090D01*
X100847265Y-52356825D01*
X100765000Y-52555431D01*
X100765000Y-53444569D01*
X101105259Y-54266026D01*
X101733974Y-54894741D01*
X102555431Y-55235000D01*
X103444569Y-55235000D01*
X104266026Y-54894741D01*
X104894741Y-54266026D01*
X105235000Y-53444569D01*
X105235000Y-52654887D01*
X105265000Y-52654887D01*
X105265000Y-53345113D01*
X105529138Y-53982799D01*
X106017201Y-54470862D01*
X106654887Y-54735000D01*
X107345113Y-54735000D01*
X107982799Y-54470862D01*
X108470862Y-53982799D01*
X108735000Y-53345113D01*
X108735000Y-52654887D01*
X108470862Y-52017201D01*
X108453661Y-52000000D01*
X124276091Y-52000000D01*
X124290000Y-52069926D01*
X124290001Y-73930069D01*
X124276091Y-74000000D01*
X124331195Y-74277028D01*
X124488119Y-74511881D01*
X124722972Y-74668805D01*
X124930074Y-74710000D01*
X124930075Y-74710000D01*
X125000000Y-74723909D01*
X125069926Y-74710000D01*
X126930074Y-74710000D01*
X127000000Y-74723909D01*
X127069925Y-74710000D01*
X127069926Y-74710000D01*
X127277028Y-74668805D01*
X127511881Y-74511881D01*
X127668805Y-74277028D01*
X127723909Y-74000000D01*
X127710000Y-73930074D01*
X127710000Y-55736300D01*
X129212012Y-55736300D01*
X129226900Y-55811147D01*
X129226901Y-71999048D01*
X129212012Y-72073900D01*
X129270997Y-72370437D01*
X129389267Y-72547440D01*
X129438972Y-72621829D01*
X129502428Y-72664229D01*
X130927509Y-74089311D01*
X130706161Y-74420582D01*
X130590908Y-75000000D01*
X130706161Y-75579418D01*
X131034375Y-76070625D01*
X131332761Y-76270000D01*
X131034375Y-76469375D01*
X130706161Y-76960582D01*
X130590908Y-77540000D01*
X130706161Y-78119418D01*
X131034375Y-78610625D01*
X131332761Y-78810000D01*
X131034375Y-79009375D01*
X130706161Y-79500582D01*
X130590908Y-80080000D01*
X130706161Y-80659418D01*
X131034375Y-81150625D01*
X131332761Y-81350000D01*
X131034375Y-81549375D01*
X130706161Y-82040582D01*
X130590908Y-82620000D01*
X130706161Y-83199418D01*
X131034375Y-83690625D01*
X131332761Y-83890000D01*
X131034375Y-84089375D01*
X130706161Y-84580582D01*
X130590908Y-85160000D01*
X130706161Y-85739418D01*
X131034375Y-86230625D01*
X131332761Y-86430000D01*
X131034375Y-86629375D01*
X130706161Y-87120582D01*
X130590908Y-87700000D01*
X130706161Y-88279418D01*
X130928310Y-88611887D01*
X129988530Y-89551669D01*
X129925071Y-89594071D01*
X129757096Y-89845464D01*
X129713000Y-90067149D01*
X129713000Y-90067153D01*
X129698112Y-90142000D01*
X129713000Y-90216847D01*
X129713001Y-93422148D01*
X129698112Y-93497000D01*
X129757097Y-93793537D01*
X129843060Y-93922189D01*
X129925072Y-94044929D01*
X129988528Y-94087329D01*
X131313771Y-95412573D01*
X131356171Y-95476029D01*
X131607563Y-95644004D01*
X131829248Y-95688100D01*
X131829252Y-95688100D01*
X131904099Y-95702988D01*
X131978946Y-95688100D01*
X135476753Y-95688100D01*
X135551600Y-95702988D01*
X135626447Y-95688100D01*
X135626452Y-95688100D01*
X135848137Y-95644004D01*
X136099529Y-95476029D01*
X136141931Y-95412570D01*
X143122417Y-88432085D01*
X142989000Y-88754180D01*
X142989000Y-89185820D01*
X143154182Y-89584603D01*
X143459397Y-89889818D01*
X143858180Y-90055000D01*
X144289820Y-90055000D01*
X144688603Y-89889818D01*
X144993818Y-89584603D01*
X145159000Y-89185820D01*
X145159000Y-88754180D01*
X144993818Y-88355397D01*
X144688603Y-88050182D01*
X144289820Y-87885000D01*
X143858180Y-87885000D01*
X143536085Y-88018417D01*
X145613873Y-85940629D01*
X145677329Y-85898229D01*
X145737086Y-85808796D01*
X145845304Y-85646838D01*
X145854880Y-85598695D01*
X145889400Y-85425152D01*
X145889400Y-85425148D01*
X145904288Y-85350300D01*
X145889400Y-85275452D01*
X145889400Y-84917411D01*
X145895320Y-84923331D01*
X146275726Y-85080900D01*
X146687474Y-85080900D01*
X147067880Y-84923331D01*
X147359031Y-84632180D01*
X147516600Y-84251774D01*
X147516600Y-83840026D01*
X147359031Y-83459620D01*
X147067880Y-83168469D01*
X146867623Y-83085520D01*
X142547631Y-78765530D01*
X142505229Y-78702071D01*
X142253837Y-78534096D01*
X142032152Y-78490000D01*
X142032147Y-78490000D01*
X141957300Y-78475112D01*
X141882453Y-78490000D01*
X141733538Y-78490000D01*
X141751440Y-78400000D01*
X141751440Y-78100000D01*
X141731549Y-78000000D01*
X141751440Y-77900000D01*
X141751440Y-77600000D01*
X141731549Y-77500000D01*
X141751440Y-77400000D01*
X141751440Y-77100000D01*
X141731549Y-77000000D01*
X141751440Y-76900000D01*
X141751440Y-76600000D01*
X141731549Y-76500000D01*
X141751440Y-76400000D01*
X141751440Y-76100000D01*
X141731549Y-76000000D01*
X141751440Y-75900000D01*
X141751440Y-75600000D01*
X141734440Y-75514536D01*
X141757247Y-75510000D01*
X141757252Y-75510000D01*
X141978937Y-75465904D01*
X142230329Y-75297929D01*
X142272731Y-75234470D01*
X146109773Y-71397429D01*
X146173229Y-71355029D01*
X146243407Y-71250000D01*
X146341204Y-71103638D01*
X146361452Y-71001843D01*
X146385300Y-70881952D01*
X146385300Y-70881948D01*
X146400188Y-70807100D01*
X146385300Y-70732252D01*
X146385300Y-64597546D01*
X146400188Y-64522699D01*
X146385300Y-64447852D01*
X146385300Y-64447848D01*
X146341204Y-64226163D01*
X146173229Y-63974771D01*
X146109773Y-63932371D01*
X144291646Y-62114244D01*
X144688603Y-61949818D01*
X144993818Y-61644603D01*
X145159000Y-61245820D01*
X145159000Y-60814180D01*
X144993818Y-60415397D01*
X144688603Y-60110182D01*
X144289820Y-59945000D01*
X143858180Y-59945000D01*
X143459397Y-60110182D01*
X143154182Y-60415397D01*
X142989756Y-60812354D01*
X136386631Y-54209230D01*
X136344229Y-54145771D01*
X136092837Y-53977796D01*
X135871152Y-53933700D01*
X135871147Y-53933700D01*
X135796300Y-53918812D01*
X135721453Y-53933700D01*
X131104346Y-53933700D01*
X131029499Y-53918812D01*
X130954652Y-53933700D01*
X130954648Y-53933700D01*
X130732963Y-53977796D01*
X130481571Y-54145771D01*
X130439171Y-54209227D01*
X129502430Y-55145969D01*
X129438971Y-55188371D01*
X129270996Y-55439764D01*
X129226900Y-55661449D01*
X129226900Y-55661453D01*
X129212012Y-55736300D01*
X127710000Y-55736300D01*
X127710000Y-52654887D01*
X141265000Y-52654887D01*
X141265000Y-53345113D01*
X141529138Y-53982799D01*
X142017201Y-54470862D01*
X142654887Y-54735000D01*
X143345113Y-54735000D01*
X143982799Y-54470862D01*
X144470862Y-53982799D01*
X144735000Y-53345113D01*
X144735000Y-52654887D01*
X144470862Y-52017201D01*
X143982799Y-51529138D01*
X143345113Y-51265000D01*
X142654887Y-51265000D01*
X142017201Y-51529138D01*
X141529138Y-52017201D01*
X141265000Y-52654887D01*
X127710000Y-52654887D01*
X127710000Y-52069926D01*
X127723909Y-52000000D01*
X127668805Y-51722972D01*
X127511881Y-51488119D01*
X127277028Y-51331195D01*
X127069926Y-51290000D01*
X127000000Y-51276091D01*
X126930075Y-51290000D01*
X125069925Y-51290000D01*
X125000000Y-51276091D01*
X124930074Y-51290000D01*
X124722972Y-51331195D01*
X124488119Y-51488119D01*
X124331195Y-51722972D01*
X124276091Y-52000000D01*
X108453661Y-52000000D01*
X107982799Y-51529138D01*
X107345113Y-51265000D01*
X106654887Y-51265000D01*
X106017201Y-51529138D01*
X105529138Y-52017201D01*
X105265000Y-52654887D01*
X105235000Y-52654887D01*
X105235000Y-52555431D01*
X104894741Y-51733974D01*
X104266026Y-51105259D01*
X103444569Y-50765000D01*
X102555431Y-50765000D01*
X102356827Y-50847264D01*
X102494092Y-50710000D01*
X147505910Y-50710000D01*
X147643175Y-50847265D01*
G36*
X138225000Y-65265402D02*
X138225000Y-65621029D01*
X138209029Y-65597127D01*
X138166629Y-65533671D01*
X138103173Y-65491271D01*
X135803251Y-63191350D01*
X135916645Y-63066924D01*
X135948826Y-62989227D01*
X138225000Y-65265402D01*
X138225000Y-65265402D01*
G37*
X138225000Y-65265402D02*
X138225000Y-65621029D01*
X138209029Y-65597127D01*
X138166629Y-65533671D01*
X138103173Y-65491271D01*
X135803251Y-63191350D01*
X135916645Y-63066924D01*
X135948826Y-62989227D01*
X138225000Y-65265402D01*
G36*
X134772000Y-57093000D02*
X134792000Y-57093000D01*
X134792000Y-57347000D01*
X134772000Y-57347000D01*
X134772000Y-59633000D01*
X135965155Y-59633000D01*
X136086476Y-59403110D01*
X135916645Y-58993076D01*
X135526358Y-58564817D01*
X135367046Y-58490000D01*
X135526358Y-58415183D01*
X135916645Y-57986924D01*
X135948211Y-57910712D01*
X138718700Y-60681202D01*
X138718700Y-63609499D01*
X135782892Y-60673691D01*
X135916645Y-60526924D01*
X136086476Y-60116890D01*
X135965155Y-59887000D01*
X134772000Y-59887000D01*
X134772000Y-59907000D01*
X134518000Y-59907000D01*
X134518000Y-59887000D01*
X134498000Y-59887000D01*
X134498000Y-59633000D01*
X134518000Y-59633000D01*
X134518000Y-57347000D01*
X134498000Y-57347000D01*
X134498000Y-57093000D01*
X134518000Y-57093000D01*
X134518000Y-57073000D01*
X134772000Y-57073000D01*
X134772000Y-57093000D01*
X134772000Y-57093000D01*
G37*
X134772000Y-57093000D02*
X134792000Y-57093000D01*
X134792000Y-57347000D01*
X134772000Y-57347000D01*
X134772000Y-59633000D01*
X135965155Y-59633000D01*
X136086476Y-59403110D01*
X135916645Y-58993076D01*
X135526358Y-58564817D01*
X135367046Y-58490000D01*
X135526358Y-58415183D01*
X135916645Y-57986924D01*
X135948211Y-57910712D01*
X138718700Y-60681202D01*
X138718700Y-63609499D01*
X135782892Y-60673691D01*
X135916645Y-60526924D01*
X136086476Y-60116890D01*
X135965155Y-59887000D01*
X134772000Y-59887000D01*
X134772000Y-59907000D01*
X134518000Y-59907000D01*
X134518000Y-59887000D01*
X134498000Y-59887000D01*
X134498000Y-59633000D01*
X134518000Y-59633000D01*
X134518000Y-57347000D01*
X134498000Y-57347000D01*
X134498000Y-57093000D01*
X134518000Y-57093000D01*
X134518000Y-57073000D01*
X134772000Y-57073000D01*
X134772000Y-57093000D01*
G36*
X134772000Y-62173000D02*
X134792000Y-62173000D01*
X134792000Y-62427000D01*
X134772000Y-62427000D01*
X134772000Y-62447000D01*
X134518000Y-62447000D01*
X134518000Y-62427000D01*
X134498000Y-62427000D01*
X134498000Y-62173000D01*
X134518000Y-62173000D01*
X134518000Y-62153000D01*
X134772000Y-62153000D01*
X134772000Y-62173000D01*
X134772000Y-62173000D01*
G37*
X134772000Y-62173000D02*
X134792000Y-62173000D01*
X134792000Y-62427000D01*
X134772000Y-62427000D01*
X134772000Y-62447000D01*
X134518000Y-62447000D01*
X134518000Y-62427000D01*
X134498000Y-62427000D01*
X134498000Y-62173000D01*
X134518000Y-62173000D01*
X134518000Y-62153000D01*
X134772000Y-62153000D01*
X134772000Y-62173000D01*
G04 #@! TD*
M02*
