G04 #@! TF.GenerationSoftware,KiCad,Pcbnew,5.1.2-f72e74a~84~ubuntu18.04.1*
G04 #@! TF.CreationDate,2019-07-12T15:09:15+09:00*
G04 #@! TF.ProjectId,top_pcb,746f705f-7063-4622-9e6b-696361645f70,rev?*
G04 #@! TF.SameCoordinates,Original*
G04 #@! TF.FileFunction,Legend,Bot*
G04 #@! TF.FilePolarity,Positive*
%FSLAX46Y46*%
G04 Gerber Fmt 4.6, Leading zero omitted, Abs format (unit mm)*
G04 Created by KiCad (PCBNEW 5.1.2-f72e74a~84~ubuntu18.04.1) date 2019-07-12 15:09:15*
%MOMM*%
%LPD*%
G04 APERTURE LIST*
%ADD10C,0.250000*%
%ADD11C,0.175000*%
%ADD12C,0.010000*%
%ADD13C,0.120000*%
G04 APERTURE END LIST*
D10*
X149215123Y-64035014D02*
X148834171Y-64035014D01*
X149072266Y-63701680D02*
X149072266Y-64558823D01*
X149024647Y-64654061D01*
X148929409Y-64701680D01*
X148834171Y-64701680D01*
X148357980Y-64701680D02*
X148453219Y-64654061D01*
X148500838Y-64606442D01*
X148548457Y-64511204D01*
X148548457Y-64225490D01*
X148500838Y-64130252D01*
X148453219Y-64082633D01*
X148357980Y-64035014D01*
X148215123Y-64035014D01*
X148119885Y-64082633D01*
X148072266Y-64130252D01*
X148024647Y-64225490D01*
X148024647Y-64511204D01*
X148072266Y-64606442D01*
X148119885Y-64654061D01*
X148215123Y-64701680D01*
X148357980Y-64701680D01*
X147596076Y-64035014D02*
X147596076Y-65035014D01*
X147596076Y-64082633D02*
X147500838Y-64035014D01*
X147310361Y-64035014D01*
X147215123Y-64082633D01*
X147167504Y-64130252D01*
X147119885Y-64225490D01*
X147119885Y-64511204D01*
X147167504Y-64606442D01*
X147215123Y-64654061D01*
X147310361Y-64701680D01*
X147500838Y-64701680D01*
X147596076Y-64654061D01*
X146929409Y-64796919D02*
X146167504Y-64796919D01*
X145929409Y-64035014D02*
X145929409Y-65035014D01*
X145929409Y-64082633D02*
X145834171Y-64035014D01*
X145643695Y-64035014D01*
X145548457Y-64082633D01*
X145500838Y-64130252D01*
X145453219Y-64225490D01*
X145453219Y-64511204D01*
X145500838Y-64606442D01*
X145548457Y-64654061D01*
X145643695Y-64701680D01*
X145834171Y-64701680D01*
X145929409Y-64654061D01*
X144596076Y-64654061D02*
X144691314Y-64701680D01*
X144881790Y-64701680D01*
X144977028Y-64654061D01*
X145024647Y-64606442D01*
X145072266Y-64511204D01*
X145072266Y-64225490D01*
X145024647Y-64130252D01*
X144977028Y-64082633D01*
X144881790Y-64035014D01*
X144691314Y-64035014D01*
X144596076Y-64082633D01*
X144167504Y-64701680D02*
X144167504Y-63701680D01*
X144167504Y-64082633D02*
X144072266Y-64035014D01*
X143881790Y-64035014D01*
X143786552Y-64082633D01*
X143738933Y-64130252D01*
X143691314Y-64225490D01*
X143691314Y-64511204D01*
X143738933Y-64606442D01*
X143786552Y-64654061D01*
X143881790Y-64701680D01*
X144072266Y-64701680D01*
X144167504Y-64654061D01*
D11*
X138510800Y-93763266D02*
X138510800Y-93063266D01*
X138510800Y-93396600D02*
X138110800Y-93396600D01*
X138110800Y-93763266D02*
X138110800Y-93063266D01*
X137777466Y-93763266D02*
X137777466Y-93063266D01*
X137510800Y-93063266D01*
X137444133Y-93096600D01*
X137410800Y-93129933D01*
X137377466Y-93196600D01*
X137377466Y-93296600D01*
X137410800Y-93363266D01*
X137444133Y-93396600D01*
X137510800Y-93429933D01*
X137777466Y-93429933D01*
X137144133Y-93063266D02*
X136977466Y-93763266D01*
X136844133Y-93263266D01*
X136710800Y-93763266D01*
X136544133Y-93063266D01*
X135877466Y-93763266D02*
X136110800Y-93429933D01*
X136277466Y-93763266D02*
X136277466Y-93063266D01*
X136010800Y-93063266D01*
X135944133Y-93096600D01*
X135910800Y-93129933D01*
X135877466Y-93196600D01*
X135877466Y-93296600D01*
X135910800Y-93363266D01*
X135944133Y-93396600D01*
X136010800Y-93429933D01*
X136277466Y-93429933D01*
X138485400Y-91197866D02*
X138485400Y-90497866D01*
X138485400Y-90831200D02*
X138085400Y-90831200D01*
X138085400Y-91197866D02*
X138085400Y-90497866D01*
X137752066Y-91197866D02*
X137752066Y-90497866D01*
X137485400Y-90497866D01*
X137418733Y-90531200D01*
X137385400Y-90564533D01*
X137352066Y-90631200D01*
X137352066Y-90731200D01*
X137385400Y-90797866D01*
X137418733Y-90831200D01*
X137485400Y-90864533D01*
X137752066Y-90864533D01*
X137118733Y-90497866D02*
X136952066Y-91197866D01*
X136818733Y-90697866D01*
X136685400Y-91197866D01*
X136518733Y-90497866D01*
X135852066Y-91197866D02*
X136085400Y-90864533D01*
X136252066Y-91197866D02*
X136252066Y-90497866D01*
X135985400Y-90497866D01*
X135918733Y-90531200D01*
X135885400Y-90564533D01*
X135852066Y-90631200D01*
X135852066Y-90731200D01*
X135885400Y-90797866D01*
X135918733Y-90831200D01*
X135985400Y-90864533D01*
X136252066Y-90864533D01*
X136531333Y-86155966D02*
X136931333Y-86155966D01*
X136731333Y-86155966D02*
X136731333Y-85455966D01*
X136798000Y-85555966D01*
X136864666Y-85622633D01*
X136931333Y-85655966D01*
X135898000Y-85455966D02*
X136231333Y-85455966D01*
X136264666Y-85789300D01*
X136231333Y-85755966D01*
X136164666Y-85722633D01*
X135998000Y-85722633D01*
X135931333Y-85755966D01*
X135898000Y-85789300D01*
X135864666Y-85855966D01*
X135864666Y-86022633D01*
X135898000Y-86089300D01*
X135931333Y-86122633D01*
X135998000Y-86155966D01*
X136164666Y-86155966D01*
X136231333Y-86122633D01*
X136264666Y-86089300D01*
X137388533Y-62692800D02*
X137455200Y-62659466D01*
X137555200Y-62659466D01*
X137655200Y-62692800D01*
X137721866Y-62759466D01*
X137755200Y-62826133D01*
X137788533Y-62959466D01*
X137788533Y-63059466D01*
X137755200Y-63192800D01*
X137721866Y-63259466D01*
X137655200Y-63326133D01*
X137555200Y-63359466D01*
X137488533Y-63359466D01*
X137388533Y-63326133D01*
X137355200Y-63292800D01*
X137355200Y-63059466D01*
X137488533Y-63059466D01*
X137055200Y-63359466D02*
X137055200Y-62659466D01*
X136655200Y-63359466D01*
X136655200Y-62659466D01*
X136321866Y-63359466D02*
X136321866Y-62659466D01*
X136155200Y-62659466D01*
X136055200Y-62692800D01*
X135988533Y-62759466D01*
X135955200Y-62826133D01*
X135921866Y-62959466D01*
X135921866Y-63059466D01*
X135955200Y-63192800D01*
X135988533Y-63259466D01*
X136055200Y-63326133D01*
X136155200Y-63359466D01*
X136321866Y-63359466D01*
X137388533Y-60127400D02*
X137455200Y-60094066D01*
X137555200Y-60094066D01*
X137655200Y-60127400D01*
X137721866Y-60194066D01*
X137755200Y-60260733D01*
X137788533Y-60394066D01*
X137788533Y-60494066D01*
X137755200Y-60627400D01*
X137721866Y-60694066D01*
X137655200Y-60760733D01*
X137555200Y-60794066D01*
X137488533Y-60794066D01*
X137388533Y-60760733D01*
X137355200Y-60727400D01*
X137355200Y-60494066D01*
X137488533Y-60494066D01*
X137055200Y-60794066D02*
X137055200Y-60094066D01*
X136655200Y-60794066D01*
X136655200Y-60094066D01*
X136321866Y-60794066D02*
X136321866Y-60094066D01*
X136155200Y-60094066D01*
X136055200Y-60127400D01*
X135988533Y-60194066D01*
X135955200Y-60260733D01*
X135921866Y-60394066D01*
X135921866Y-60494066D01*
X135955200Y-60627400D01*
X135988533Y-60694066D01*
X136055200Y-60760733D01*
X136155200Y-60794066D01*
X136321866Y-60794066D01*
D10*
X149214838Y-63050680D02*
X149214838Y-62050680D01*
X148881504Y-62764966D01*
X148548171Y-62050680D01*
X148548171Y-63050680D01*
X147595790Y-62050680D02*
X148071980Y-62050680D01*
X148119600Y-62526871D01*
X148071980Y-62479252D01*
X147976742Y-62431633D01*
X147738647Y-62431633D01*
X147643409Y-62479252D01*
X147595790Y-62526871D01*
X147548171Y-62622109D01*
X147548171Y-62860204D01*
X147595790Y-62955442D01*
X147643409Y-63003061D01*
X147738647Y-63050680D01*
X147976742Y-63050680D01*
X148071980Y-63003061D01*
X148119600Y-62955442D01*
X147167219Y-63003061D02*
X147024361Y-63050680D01*
X146786266Y-63050680D01*
X146691028Y-63003061D01*
X146643409Y-62955442D01*
X146595790Y-62860204D01*
X146595790Y-62764966D01*
X146643409Y-62669728D01*
X146691028Y-62622109D01*
X146786266Y-62574490D01*
X146976742Y-62526871D01*
X147071980Y-62479252D01*
X147119600Y-62431633D01*
X147167219Y-62336395D01*
X147167219Y-62241157D01*
X147119600Y-62145919D01*
X147071980Y-62098300D01*
X146976742Y-62050680D01*
X146738647Y-62050680D01*
X146595790Y-62098300D01*
X146310076Y-62384014D02*
X145929123Y-62384014D01*
X146167219Y-62050680D02*
X146167219Y-62907823D01*
X146119600Y-63003061D01*
X146024361Y-63050680D01*
X145929123Y-63050680D01*
X145167219Y-63050680D02*
X145167219Y-62526871D01*
X145214838Y-62431633D01*
X145310076Y-62384014D01*
X145500552Y-62384014D01*
X145595790Y-62431633D01*
X145167219Y-63003061D02*
X145262457Y-63050680D01*
X145500552Y-63050680D01*
X145595790Y-63003061D01*
X145643409Y-62907823D01*
X145643409Y-62812585D01*
X145595790Y-62717347D01*
X145500552Y-62669728D01*
X145262457Y-62669728D01*
X145167219Y-62622109D01*
X144262457Y-63003061D02*
X144357695Y-63050680D01*
X144548171Y-63050680D01*
X144643409Y-63003061D01*
X144691028Y-62955442D01*
X144738647Y-62860204D01*
X144738647Y-62574490D01*
X144691028Y-62479252D01*
X144643409Y-62431633D01*
X144548171Y-62384014D01*
X144357695Y-62384014D01*
X144262457Y-62431633D01*
X143833885Y-63050680D02*
X143833885Y-62050680D01*
X143738647Y-62669728D02*
X143452933Y-63050680D01*
X143452933Y-62384014D02*
X143833885Y-62764966D01*
X142452933Y-62955442D02*
X142500552Y-63003061D01*
X142643409Y-63050680D01*
X142738647Y-63050680D01*
X142881504Y-63003061D01*
X142976742Y-62907823D01*
X143024361Y-62812585D01*
X143071980Y-62622109D01*
X143071980Y-62479252D01*
X143024361Y-62288776D01*
X142976742Y-62193538D01*
X142881504Y-62098300D01*
X142738647Y-62050680D01*
X142643409Y-62050680D01*
X142500552Y-62098300D01*
X142452933Y-62145919D01*
X141595790Y-63050680D02*
X141595790Y-62526871D01*
X141643409Y-62431633D01*
X141738647Y-62384014D01*
X141929123Y-62384014D01*
X142024361Y-62431633D01*
X141595790Y-63003061D02*
X141691028Y-63050680D01*
X141929123Y-63050680D01*
X142024361Y-63003061D01*
X142071980Y-62907823D01*
X142071980Y-62812585D01*
X142024361Y-62717347D01*
X141929123Y-62669728D01*
X141691028Y-62669728D01*
X141595790Y-62622109D01*
X141214838Y-62384014D02*
X140976742Y-63050680D01*
X140738647Y-62384014D01*
X140357695Y-63050680D02*
X140357695Y-62384014D01*
X140357695Y-62050680D02*
X140405314Y-62098300D01*
X140357695Y-62145919D01*
X140310076Y-62098300D01*
X140357695Y-62050680D01*
X140357695Y-62145919D01*
X140024361Y-62384014D02*
X139643409Y-62384014D01*
X139881504Y-62050680D02*
X139881504Y-62907823D01*
X139833885Y-63003061D01*
X139738647Y-63050680D01*
X139643409Y-63050680D01*
X139405314Y-62384014D02*
X139167219Y-63050680D01*
X138929123Y-62384014D02*
X139167219Y-63050680D01*
X139262457Y-63288776D01*
X139310076Y-63336395D01*
X139405314Y-63384014D01*
D11*
X136964666Y-86713266D02*
X136531333Y-86713266D01*
X136764666Y-86979933D01*
X136664666Y-86979933D01*
X136598000Y-87013266D01*
X136564666Y-87046600D01*
X136531333Y-87113266D01*
X136531333Y-87279933D01*
X136564666Y-87346600D01*
X136598000Y-87379933D01*
X136664666Y-87413266D01*
X136864666Y-87413266D01*
X136931333Y-87379933D01*
X136964666Y-87346600D01*
X135931333Y-86946600D02*
X135931333Y-87413266D01*
X136098000Y-86679933D02*
X136264666Y-87179933D01*
X135831333Y-87179933D01*
X136228133Y-84135166D02*
X136161466Y-84135166D01*
X136094800Y-84168500D01*
X136061466Y-84201833D01*
X136028133Y-84268500D01*
X135994800Y-84401833D01*
X135994800Y-84568500D01*
X136028133Y-84701833D01*
X136061466Y-84768500D01*
X136094800Y-84801833D01*
X136161466Y-84835166D01*
X136228133Y-84835166D01*
X136294800Y-84801833D01*
X136328133Y-84768500D01*
X136361466Y-84701833D01*
X136394800Y-84568500D01*
X136394800Y-84401833D01*
X136361466Y-84268500D01*
X136328133Y-84201833D01*
X136294800Y-84168500D01*
X136228133Y-84135166D01*
X136505933Y-83654066D02*
X136905933Y-83654066D01*
X136705933Y-83654066D02*
X136705933Y-82954066D01*
X136772600Y-83054066D01*
X136839266Y-83120733D01*
X136905933Y-83154066D01*
X136239266Y-83020733D02*
X136205933Y-82987400D01*
X136139266Y-82954066D01*
X135972600Y-82954066D01*
X135905933Y-82987400D01*
X135872600Y-83020733D01*
X135839266Y-83087400D01*
X135839266Y-83154066D01*
X135872600Y-83254066D01*
X136272600Y-83654066D01*
X135839266Y-83654066D01*
X136442433Y-82409466D02*
X136842433Y-82409466D01*
X136642433Y-82409466D02*
X136642433Y-81709466D01*
X136709100Y-81809466D01*
X136775766Y-81876133D01*
X136842433Y-81909466D01*
X136209100Y-81709466D02*
X135775766Y-81709466D01*
X136009100Y-81976133D01*
X135909100Y-81976133D01*
X135842433Y-82009466D01*
X135809100Y-82042800D01*
X135775766Y-82109466D01*
X135775766Y-82276133D01*
X135809100Y-82342800D01*
X135842433Y-82376133D01*
X135909100Y-82409466D01*
X136109100Y-82409466D01*
X136175766Y-82376133D01*
X136209100Y-82342800D01*
X138485400Y-88708666D02*
X138485400Y-88008666D01*
X138485400Y-88342000D02*
X138085400Y-88342000D01*
X138085400Y-88708666D02*
X138085400Y-88008666D01*
X137752066Y-88708666D02*
X137752066Y-88008666D01*
X137485400Y-88008666D01*
X137418733Y-88042000D01*
X137385400Y-88075333D01*
X137352066Y-88142000D01*
X137352066Y-88242000D01*
X137385400Y-88308666D01*
X137418733Y-88342000D01*
X137485400Y-88375333D01*
X137752066Y-88375333D01*
X137118733Y-88008666D02*
X136952066Y-88708666D01*
X136818733Y-88208666D01*
X136685400Y-88708666D01*
X136518733Y-88008666D01*
X135852066Y-88708666D02*
X136085400Y-88375333D01*
X136252066Y-88708666D02*
X136252066Y-88008666D01*
X135985400Y-88008666D01*
X135918733Y-88042000D01*
X135885400Y-88075333D01*
X135852066Y-88142000D01*
X135852066Y-88242000D01*
X135885400Y-88308666D01*
X135918733Y-88342000D01*
X135985400Y-88375333D01*
X136252066Y-88375333D01*
X136455133Y-70915966D02*
X136855133Y-70915966D01*
X136655133Y-70915966D02*
X136655133Y-70215966D01*
X136721800Y-70315966D01*
X136788466Y-70382633D01*
X136855133Y-70415966D01*
X136055133Y-70515966D02*
X136121800Y-70482633D01*
X136155133Y-70449300D01*
X136188466Y-70382633D01*
X136188466Y-70349300D01*
X136155133Y-70282633D01*
X136121800Y-70249300D01*
X136055133Y-70215966D01*
X135921800Y-70215966D01*
X135855133Y-70249300D01*
X135821800Y-70282633D01*
X135788466Y-70349300D01*
X135788466Y-70382633D01*
X135821800Y-70449300D01*
X135855133Y-70482633D01*
X135921800Y-70515966D01*
X136055133Y-70515966D01*
X136121800Y-70549300D01*
X136155133Y-70582633D01*
X136188466Y-70649300D01*
X136188466Y-70782633D01*
X136155133Y-70849300D01*
X136121800Y-70882633D01*
X136055133Y-70915966D01*
X135921800Y-70915966D01*
X135855133Y-70882633D01*
X135821800Y-70849300D01*
X135788466Y-70782633D01*
X135788466Y-70649300D01*
X135821800Y-70582633D01*
X135855133Y-70549300D01*
X135921800Y-70515966D01*
X136417033Y-68414066D02*
X136817033Y-68414066D01*
X136617033Y-68414066D02*
X136617033Y-67714066D01*
X136683700Y-67814066D01*
X136750366Y-67880733D01*
X136817033Y-67914066D01*
X136083700Y-68414066D02*
X135950366Y-68414066D01*
X135883700Y-68380733D01*
X135850366Y-68347400D01*
X135783700Y-68247400D01*
X135750366Y-68114066D01*
X135750366Y-67847400D01*
X135783700Y-67780733D01*
X135817033Y-67747400D01*
X135883700Y-67714066D01*
X136017033Y-67714066D01*
X136083700Y-67747400D01*
X136117033Y-67780733D01*
X136150366Y-67847400D01*
X136150366Y-68014066D01*
X136117033Y-68080733D01*
X136083700Y-68114066D01*
X136017033Y-68147400D01*
X135883700Y-68147400D01*
X135817033Y-68114066D01*
X135783700Y-68080733D01*
X135750366Y-68014066D01*
X137032933Y-65215333D02*
X136999600Y-65182000D01*
X136932933Y-65148666D01*
X136766266Y-65148666D01*
X136699600Y-65182000D01*
X136666266Y-65215333D01*
X136632933Y-65282000D01*
X136632933Y-65348666D01*
X136666266Y-65448666D01*
X137066266Y-65848666D01*
X136632933Y-65848666D01*
X136399600Y-65148666D02*
X135966266Y-65148666D01*
X136199600Y-65415333D01*
X136099600Y-65415333D01*
X136032933Y-65448666D01*
X135999600Y-65482000D01*
X135966266Y-65548666D01*
X135966266Y-65715333D01*
X135999600Y-65782000D01*
X136032933Y-65815333D01*
X136099600Y-65848666D01*
X136299600Y-65848666D01*
X136366266Y-65815333D01*
X136399600Y-65782000D01*
X136728133Y-76632633D02*
X136694800Y-76599300D01*
X136628133Y-76565966D01*
X136461466Y-76565966D01*
X136394800Y-76599300D01*
X136361466Y-76632633D01*
X136328133Y-76699300D01*
X136328133Y-76765966D01*
X136361466Y-76865966D01*
X136761466Y-77265966D01*
X136328133Y-77265966D01*
X136061466Y-76632633D02*
X136028133Y-76599300D01*
X135961466Y-76565966D01*
X135794800Y-76565966D01*
X135728133Y-76599300D01*
X135694800Y-76632633D01*
X135661466Y-76699300D01*
X135661466Y-76765966D01*
X135694800Y-76865966D01*
X136094800Y-77265966D01*
X135661466Y-77265966D01*
X137426633Y-57600100D02*
X137493300Y-57566766D01*
X137593300Y-57566766D01*
X137693300Y-57600100D01*
X137759966Y-57666766D01*
X137793300Y-57733433D01*
X137826633Y-57866766D01*
X137826633Y-57966766D01*
X137793300Y-58100100D01*
X137759966Y-58166766D01*
X137693300Y-58233433D01*
X137593300Y-58266766D01*
X137526633Y-58266766D01*
X137426633Y-58233433D01*
X137393300Y-58200100D01*
X137393300Y-57966766D01*
X137526633Y-57966766D01*
X137093300Y-58266766D02*
X137093300Y-57566766D01*
X136693300Y-58266766D01*
X136693300Y-57566766D01*
X136359966Y-58266766D02*
X136359966Y-57566766D01*
X136193300Y-57566766D01*
X136093300Y-57600100D01*
X136026633Y-57666766D01*
X135993300Y-57733433D01*
X135959966Y-57866766D01*
X135959966Y-57966766D01*
X135993300Y-58100100D01*
X136026633Y-58166766D01*
X136093300Y-58233433D01*
X136193300Y-58266766D01*
X136359966Y-58266766D01*
X136817033Y-77915333D02*
X136783700Y-77882000D01*
X136717033Y-77848666D01*
X136550366Y-77848666D01*
X136483700Y-77882000D01*
X136450366Y-77915333D01*
X136417033Y-77982000D01*
X136417033Y-78048666D01*
X136450366Y-78148666D01*
X136850366Y-78548666D01*
X136417033Y-78548666D01*
X135750366Y-78548666D02*
X136150366Y-78548666D01*
X135950366Y-78548666D02*
X135950366Y-77848666D01*
X136017033Y-77948666D01*
X136083700Y-78015333D01*
X136150366Y-78048666D01*
X137066266Y-58773266D02*
X136632933Y-58773266D01*
X136866266Y-59039933D01*
X136766266Y-59039933D01*
X136699600Y-59073266D01*
X136666266Y-59106600D01*
X136632933Y-59173266D01*
X136632933Y-59339933D01*
X136666266Y-59406600D01*
X136699600Y-59439933D01*
X136766266Y-59473266D01*
X136966266Y-59473266D01*
X137032933Y-59439933D01*
X137066266Y-59406600D01*
X136032933Y-58773266D02*
X136166266Y-58773266D01*
X136232933Y-58806600D01*
X136266266Y-58839933D01*
X136332933Y-58939933D01*
X136366266Y-59073266D01*
X136366266Y-59339933D01*
X136332933Y-59406600D01*
X136299600Y-59439933D01*
X136232933Y-59473266D01*
X136099600Y-59473266D01*
X136032933Y-59439933D01*
X135999600Y-59406600D01*
X135966266Y-59339933D01*
X135966266Y-59173266D01*
X135999600Y-59106600D01*
X136032933Y-59073266D01*
X136099600Y-59039933D01*
X136232933Y-59039933D01*
X136299600Y-59073266D01*
X136332933Y-59106600D01*
X136366266Y-59173266D01*
X136645600Y-69022166D02*
X136212266Y-69022166D01*
X136445600Y-69288833D01*
X136345600Y-69288833D01*
X136278933Y-69322166D01*
X136245600Y-69355500D01*
X136212266Y-69422166D01*
X136212266Y-69588833D01*
X136245600Y-69655500D01*
X136278933Y-69688833D01*
X136345600Y-69722166D01*
X136545600Y-69722166D01*
X136612266Y-69688833D01*
X136645600Y-69655500D01*
X135912266Y-69655500D02*
X135878933Y-69688833D01*
X135912266Y-69722166D01*
X135945600Y-69688833D01*
X135912266Y-69655500D01*
X135912266Y-69722166D01*
X137117066Y-56309466D02*
X136683733Y-56309466D01*
X136917066Y-56576133D01*
X136817066Y-56576133D01*
X136750400Y-56609466D01*
X136717066Y-56642800D01*
X136683733Y-56709466D01*
X136683733Y-56876133D01*
X136717066Y-56942800D01*
X136750400Y-56976133D01*
X136817066Y-57009466D01*
X137017066Y-57009466D01*
X137083733Y-56976133D01*
X137117066Y-56942800D01*
X136050400Y-56309466D02*
X136383733Y-56309466D01*
X136417066Y-56642800D01*
X136383733Y-56609466D01*
X136317066Y-56576133D01*
X136150400Y-56576133D01*
X136083733Y-56609466D01*
X136050400Y-56642800D01*
X136017066Y-56709466D01*
X136017066Y-56876133D01*
X136050400Y-56942800D01*
X136083733Y-56976133D01*
X136150400Y-57009466D01*
X136317066Y-57009466D01*
X136383733Y-56976133D01*
X136417066Y-56942800D01*
X137206766Y-92202800D02*
X137106766Y-92236133D01*
X137073433Y-92269466D01*
X137040100Y-92336133D01*
X137040100Y-92436133D01*
X137073433Y-92502800D01*
X137106766Y-92536133D01*
X137173433Y-92569466D01*
X137440100Y-92569466D01*
X137440100Y-91869466D01*
X137206766Y-91869466D01*
X137140100Y-91902800D01*
X137106766Y-91936133D01*
X137073433Y-92002800D01*
X137073433Y-92069466D01*
X137106766Y-92136133D01*
X137140100Y-92169466D01*
X137206766Y-92202800D01*
X137440100Y-92202800D01*
X136773433Y-92369466D02*
X136440100Y-92369466D01*
X136840100Y-92569466D02*
X136606766Y-91869466D01*
X136373433Y-92569466D01*
X136240100Y-91869466D02*
X135840100Y-91869466D01*
X136040100Y-92569466D02*
X136040100Y-91869466D01*
X137175033Y-62076766D02*
X137408366Y-61743433D01*
X137575033Y-62076766D02*
X137575033Y-61376766D01*
X137308366Y-61376766D01*
X137241700Y-61410100D01*
X137208366Y-61443433D01*
X137175033Y-61510100D01*
X137175033Y-61610100D01*
X137208366Y-61676766D01*
X137241700Y-61710100D01*
X137308366Y-61743433D01*
X137575033Y-61743433D01*
X136908366Y-62043433D02*
X136808366Y-62076766D01*
X136641700Y-62076766D01*
X136575033Y-62043433D01*
X136541700Y-62010100D01*
X136508366Y-61943433D01*
X136508366Y-61876766D01*
X136541700Y-61810100D01*
X136575033Y-61776766D01*
X136641700Y-61743433D01*
X136775033Y-61710100D01*
X136841700Y-61676766D01*
X136875033Y-61643433D01*
X136908366Y-61576766D01*
X136908366Y-61510100D01*
X136875033Y-61443433D01*
X136841700Y-61410100D01*
X136775033Y-61376766D01*
X136608366Y-61376766D01*
X136508366Y-61410100D01*
X136308366Y-61376766D02*
X135908366Y-61376766D01*
X136108366Y-62076766D02*
X136108366Y-61376766D01*
X136518633Y-89189766D02*
X136851966Y-89189766D01*
X136885300Y-89523100D01*
X136851966Y-89489766D01*
X136785300Y-89456433D01*
X136618633Y-89456433D01*
X136551966Y-89489766D01*
X136518633Y-89523100D01*
X136485300Y-89589766D01*
X136485300Y-89756433D01*
X136518633Y-89823100D01*
X136551966Y-89856433D01*
X136618633Y-89889766D01*
X136785300Y-89889766D01*
X136851966Y-89856433D01*
X136885300Y-89823100D01*
X136285300Y-89189766D02*
X136051966Y-89889766D01*
X135818633Y-89189766D01*
X136982133Y-66421833D02*
X136948800Y-66388500D01*
X136882133Y-66355166D01*
X136715466Y-66355166D01*
X136648800Y-66388500D01*
X136615466Y-66421833D01*
X136582133Y-66488500D01*
X136582133Y-66555166D01*
X136615466Y-66655166D01*
X137015466Y-67055166D01*
X136582133Y-67055166D01*
X135982133Y-66355166D02*
X136115466Y-66355166D01*
X136182133Y-66388500D01*
X136215466Y-66421833D01*
X136282133Y-66521833D01*
X136315466Y-66655166D01*
X136315466Y-66921833D01*
X136282133Y-66988500D01*
X136248800Y-67021833D01*
X136182133Y-67055166D01*
X136048800Y-67055166D01*
X135982133Y-67021833D01*
X135948800Y-66988500D01*
X135915466Y-66921833D01*
X135915466Y-66755166D01*
X135948800Y-66688500D01*
X135982133Y-66655166D01*
X136048800Y-66621833D01*
X136182133Y-66621833D01*
X136248800Y-66655166D01*
X136282133Y-66688500D01*
X136315466Y-66755166D01*
X136956733Y-63894533D02*
X136923400Y-63861200D01*
X136856733Y-63827866D01*
X136690066Y-63827866D01*
X136623400Y-63861200D01*
X136590066Y-63894533D01*
X136556733Y-63961200D01*
X136556733Y-64027866D01*
X136590066Y-64127866D01*
X136990066Y-64527866D01*
X136556733Y-64527866D01*
X135923400Y-63827866D02*
X136256733Y-63827866D01*
X136290066Y-64161200D01*
X136256733Y-64127866D01*
X136190066Y-64094533D01*
X136023400Y-64094533D01*
X135956733Y-64127866D01*
X135923400Y-64161200D01*
X135890066Y-64227866D01*
X135890066Y-64394533D01*
X135923400Y-64461200D01*
X135956733Y-64494533D01*
X136023400Y-64527866D01*
X136190066Y-64527866D01*
X136256733Y-64494533D01*
X136290066Y-64461200D01*
X136028133Y-79105966D02*
X136361466Y-79105966D01*
X136394800Y-79439300D01*
X136361466Y-79405966D01*
X136294800Y-79372633D01*
X136128133Y-79372633D01*
X136061466Y-79405966D01*
X136028133Y-79439300D01*
X135994800Y-79505966D01*
X135994800Y-79672633D01*
X136028133Y-79739300D01*
X136061466Y-79772633D01*
X136128133Y-79805966D01*
X136294800Y-79805966D01*
X136361466Y-79772633D01*
X136394800Y-79739300D01*
X136407500Y-80468033D02*
X136374166Y-80434700D01*
X136307500Y-80401366D01*
X136140833Y-80401366D01*
X136074166Y-80434700D01*
X136040833Y-80468033D01*
X136007500Y-80534700D01*
X136007500Y-80601366D01*
X136040833Y-80701366D01*
X136440833Y-81101366D01*
X136007500Y-81101366D01*
X136480533Y-74725966D02*
X136880533Y-74725966D01*
X136680533Y-74725966D02*
X136680533Y-74025966D01*
X136747200Y-74125966D01*
X136813866Y-74192633D01*
X136880533Y-74225966D01*
X136247200Y-74025966D02*
X135780533Y-74025966D01*
X136080533Y-74725966D01*
X136429733Y-76021366D02*
X136829733Y-76021366D01*
X136629733Y-76021366D02*
X136629733Y-75321366D01*
X136696400Y-75421366D01*
X136763066Y-75488033D01*
X136829733Y-75521366D01*
X135829733Y-75321366D02*
X135963066Y-75321366D01*
X136029733Y-75354700D01*
X136063066Y-75388033D01*
X136129733Y-75488033D01*
X136163066Y-75621366D01*
X136163066Y-75888033D01*
X136129733Y-75954700D01*
X136096400Y-75988033D01*
X136029733Y-76021366D01*
X135896400Y-76021366D01*
X135829733Y-75988033D01*
X135796400Y-75954700D01*
X135763066Y-75888033D01*
X135763066Y-75721366D01*
X135796400Y-75654700D01*
X135829733Y-75621366D01*
X135896400Y-75588033D01*
X136029733Y-75588033D01*
X136096400Y-75621366D01*
X136129733Y-75654700D01*
X136163066Y-75721366D01*
X135918600Y-72058966D02*
X136318600Y-72058966D01*
X136118600Y-72058966D02*
X136118600Y-71358966D01*
X136185266Y-71458966D01*
X136251933Y-71525633D01*
X136318600Y-71558966D01*
X136453533Y-72819466D02*
X136020200Y-72819466D01*
X136253533Y-73086133D01*
X136153533Y-73086133D01*
X136086866Y-73119466D01*
X136053533Y-73152800D01*
X136020200Y-73219466D01*
X136020200Y-73386133D01*
X136053533Y-73452800D01*
X136086866Y-73486133D01*
X136153533Y-73519466D01*
X136353533Y-73519466D01*
X136420200Y-73486133D01*
X136453533Y-73452800D01*
D12*
G36*
X146605440Y-91957368D02*
G01*
X146570208Y-91974774D01*
X146526760Y-92005106D01*
X146495094Y-92038183D01*
X146473406Y-92079717D01*
X146459897Y-92135422D01*
X146452762Y-92211011D01*
X146450200Y-92312196D01*
X146450050Y-92355697D01*
X146450488Y-92451035D01*
X146452304Y-92519171D01*
X146456255Y-92566318D01*
X146463098Y-92598690D01*
X146473589Y-92622500D01*
X146484504Y-92638743D01*
X146554181Y-92707852D01*
X146636234Y-92749421D01*
X146724750Y-92761923D01*
X146813819Y-92743834D01*
X146842037Y-92731042D01*
X146909590Y-92695831D01*
X146909590Y-93247600D01*
X146860288Y-93222105D01*
X146795327Y-93202380D01*
X146715480Y-93197327D01*
X146635748Y-93206656D01*
X146575535Y-93227614D01*
X146525592Y-93267527D01*
X146482919Y-93324641D01*
X146479710Y-93330505D01*
X146466178Y-93358127D01*
X146456295Y-93385968D01*
X146449491Y-93419694D01*
X146445199Y-93464971D01*
X146442849Y-93527462D01*
X146441872Y-93612835D01*
X146441695Y-93708910D01*
X146441695Y-94015426D01*
X146625511Y-94015426D01*
X146625511Y-93450239D01*
X146676925Y-93406977D01*
X146730334Y-93372372D01*
X146780912Y-93366080D01*
X146831770Y-93382272D01*
X146858875Y-93398127D01*
X146879049Y-93420710D01*
X146893397Y-93454840D01*
X146903024Y-93505334D01*
X146909037Y-93577011D01*
X146912540Y-93674688D01*
X146913774Y-93739702D01*
X146917945Y-94007071D01*
X147005675Y-94012122D01*
X147093406Y-94017173D01*
X147093406Y-92358001D01*
X146909590Y-92358001D01*
X146904904Y-92450500D01*
X146889112Y-92514709D01*
X146859617Y-92554659D01*
X146813820Y-92574380D01*
X146767550Y-92578321D01*
X146715172Y-92573792D01*
X146680410Y-92555969D01*
X146658672Y-92532419D01*
X146641560Y-92507089D01*
X146631373Y-92478869D01*
X146626840Y-92439331D01*
X146626691Y-92380042D01*
X146628216Y-92330398D01*
X146631719Y-92255610D01*
X146636933Y-92206511D01*
X146645713Y-92175367D01*
X146659914Y-92154445D01*
X146673316Y-92142352D01*
X146729313Y-92115981D01*
X146795589Y-92111722D01*
X146833644Y-92120806D01*
X146871323Y-92153096D01*
X146896281Y-92215906D01*
X146908378Y-92308794D01*
X146909590Y-92358001D01*
X147093406Y-92358001D01*
X147093406Y-91943321D01*
X147001498Y-91943321D01*
X146946317Y-91945503D01*
X146917848Y-91953251D01*
X146909594Y-91968368D01*
X146909590Y-91968816D01*
X146905760Y-91983620D01*
X146888867Y-91981939D01*
X146855281Y-91965672D01*
X146777022Y-91940787D01*
X146688973Y-91938171D01*
X146605440Y-91957368D01*
X146605440Y-91957368D01*
G37*
X146605440Y-91957368D02*
X146570208Y-91974774D01*
X146526760Y-92005106D01*
X146495094Y-92038183D01*
X146473406Y-92079717D01*
X146459897Y-92135422D01*
X146452762Y-92211011D01*
X146450200Y-92312196D01*
X146450050Y-92355697D01*
X146450488Y-92451035D01*
X146452304Y-92519171D01*
X146456255Y-92566318D01*
X146463098Y-92598690D01*
X146473589Y-92622500D01*
X146484504Y-92638743D01*
X146554181Y-92707852D01*
X146636234Y-92749421D01*
X146724750Y-92761923D01*
X146813819Y-92743834D01*
X146842037Y-92731042D01*
X146909590Y-92695831D01*
X146909590Y-93247600D01*
X146860288Y-93222105D01*
X146795327Y-93202380D01*
X146715480Y-93197327D01*
X146635748Y-93206656D01*
X146575535Y-93227614D01*
X146525592Y-93267527D01*
X146482919Y-93324641D01*
X146479710Y-93330505D01*
X146466178Y-93358127D01*
X146456295Y-93385968D01*
X146449491Y-93419694D01*
X146445199Y-93464971D01*
X146442849Y-93527462D01*
X146441872Y-93612835D01*
X146441695Y-93708910D01*
X146441695Y-94015426D01*
X146625511Y-94015426D01*
X146625511Y-93450239D01*
X146676925Y-93406977D01*
X146730334Y-93372372D01*
X146780912Y-93366080D01*
X146831770Y-93382272D01*
X146858875Y-93398127D01*
X146879049Y-93420710D01*
X146893397Y-93454840D01*
X146903024Y-93505334D01*
X146909037Y-93577011D01*
X146912540Y-93674688D01*
X146913774Y-93739702D01*
X146917945Y-94007071D01*
X147005675Y-94012122D01*
X147093406Y-94017173D01*
X147093406Y-92358001D01*
X146909590Y-92358001D01*
X146904904Y-92450500D01*
X146889112Y-92514709D01*
X146859617Y-92554659D01*
X146813820Y-92574380D01*
X146767550Y-92578321D01*
X146715172Y-92573792D01*
X146680410Y-92555969D01*
X146658672Y-92532419D01*
X146641560Y-92507089D01*
X146631373Y-92478869D01*
X146626840Y-92439331D01*
X146626691Y-92380042D01*
X146628216Y-92330398D01*
X146631719Y-92255610D01*
X146636933Y-92206511D01*
X146645713Y-92175367D01*
X146659914Y-92154445D01*
X146673316Y-92142352D01*
X146729313Y-92115981D01*
X146795589Y-92111722D01*
X146833644Y-92120806D01*
X146871323Y-92153096D01*
X146896281Y-92215906D01*
X146908378Y-92308794D01*
X146909590Y-92358001D01*
X147093406Y-92358001D01*
X147093406Y-91943321D01*
X147001498Y-91943321D01*
X146946317Y-91945503D01*
X146917848Y-91953251D01*
X146909594Y-91968368D01*
X146909590Y-91968816D01*
X146905760Y-91983620D01*
X146888867Y-91981939D01*
X146855281Y-91965672D01*
X146777022Y-91940787D01*
X146688973Y-91938171D01*
X146605440Y-91957368D01*
G36*
X145908343Y-93203084D02*
G01*
X145829730Y-93224060D01*
X145769884Y-93262080D01*
X145727653Y-93311878D01*
X145714525Y-93333130D01*
X145704832Y-93355392D01*
X145698056Y-93383870D01*
X145693677Y-93423771D01*
X145691176Y-93480301D01*
X145690032Y-93558667D01*
X145689728Y-93664076D01*
X145689722Y-93692042D01*
X145689722Y-94015426D01*
X145769932Y-94015426D01*
X145821094Y-94011843D01*
X145858923Y-94002766D01*
X145868401Y-93997168D01*
X145894312Y-93987506D01*
X145920776Y-93997168D01*
X145964348Y-94009230D01*
X146027640Y-94014085D01*
X146097790Y-94011978D01*
X146161940Y-94003156D01*
X146199393Y-93991837D01*
X146271867Y-93945312D01*
X146317160Y-93880746D01*
X146337522Y-93794900D01*
X146337712Y-93792696D01*
X146335925Y-93754613D01*
X146174327Y-93754613D01*
X146160199Y-93797930D01*
X146137188Y-93822308D01*
X146090996Y-93840745D01*
X146030025Y-93848105D01*
X145967851Y-93844483D01*
X145918049Y-93829974D01*
X145904097Y-93820665D01*
X145879715Y-93777653D01*
X145873537Y-93728757D01*
X145873537Y-93664505D01*
X145965982Y-93664505D01*
X146053805Y-93671266D01*
X146120382Y-93690420D01*
X146161798Y-93720276D01*
X146174327Y-93754613D01*
X146335925Y-93754613D01*
X146333310Y-93698904D01*
X146302376Y-93624747D01*
X146244219Y-93568667D01*
X146236180Y-93563565D01*
X146201637Y-93546955D01*
X146158882Y-93536896D01*
X146099114Y-93532007D01*
X146028110Y-93530883D01*
X145873537Y-93530821D01*
X145873537Y-93466025D01*
X145880094Y-93415750D01*
X145896825Y-93382069D01*
X145898784Y-93380276D01*
X145936017Y-93365542D01*
X145992220Y-93359831D01*
X146054333Y-93362637D01*
X146109290Y-93373456D01*
X146141901Y-93389682D01*
X146159572Y-93402680D01*
X146178231Y-93405162D01*
X146203981Y-93394513D01*
X146242927Y-93368118D01*
X146301170Y-93323365D01*
X146306516Y-93319173D01*
X146303777Y-93303660D01*
X146280924Y-93277860D01*
X146246191Y-93249189D01*
X146207810Y-93225066D01*
X146195752Y-93219370D01*
X146151766Y-93208003D01*
X146087313Y-93199895D01*
X146015303Y-93196643D01*
X146011936Y-93196636D01*
X145908343Y-93203084D01*
X145908343Y-93203084D01*
G37*
X145908343Y-93203084D02*
X145829730Y-93224060D01*
X145769884Y-93262080D01*
X145727653Y-93311878D01*
X145714525Y-93333130D01*
X145704832Y-93355392D01*
X145698056Y-93383870D01*
X145693677Y-93423771D01*
X145691176Y-93480301D01*
X145690032Y-93558667D01*
X145689728Y-93664076D01*
X145689722Y-93692042D01*
X145689722Y-94015426D01*
X145769932Y-94015426D01*
X145821094Y-94011843D01*
X145858923Y-94002766D01*
X145868401Y-93997168D01*
X145894312Y-93987506D01*
X145920776Y-93997168D01*
X145964348Y-94009230D01*
X146027640Y-94014085D01*
X146097790Y-94011978D01*
X146161940Y-94003156D01*
X146199393Y-93991837D01*
X146271867Y-93945312D01*
X146317160Y-93880746D01*
X146337522Y-93794900D01*
X146337712Y-93792696D01*
X146335925Y-93754613D01*
X146174327Y-93754613D01*
X146160199Y-93797930D01*
X146137188Y-93822308D01*
X146090996Y-93840745D01*
X146030025Y-93848105D01*
X145967851Y-93844483D01*
X145918049Y-93829974D01*
X145904097Y-93820665D01*
X145879715Y-93777653D01*
X145873537Y-93728757D01*
X145873537Y-93664505D01*
X145965982Y-93664505D01*
X146053805Y-93671266D01*
X146120382Y-93690420D01*
X146161798Y-93720276D01*
X146174327Y-93754613D01*
X146335925Y-93754613D01*
X146333310Y-93698904D01*
X146302376Y-93624747D01*
X146244219Y-93568667D01*
X146236180Y-93563565D01*
X146201637Y-93546955D01*
X146158882Y-93536896D01*
X146099114Y-93532007D01*
X146028110Y-93530883D01*
X145873537Y-93530821D01*
X145873537Y-93466025D01*
X145880094Y-93415750D01*
X145896825Y-93382069D01*
X145898784Y-93380276D01*
X145936017Y-93365542D01*
X145992220Y-93359831D01*
X146054333Y-93362637D01*
X146109290Y-93373456D01*
X146141901Y-93389682D01*
X146159572Y-93402680D01*
X146178231Y-93405162D01*
X146203981Y-93394513D01*
X146242927Y-93368118D01*
X146301170Y-93323365D01*
X146306516Y-93319173D01*
X146303777Y-93303660D01*
X146280924Y-93277860D01*
X146246191Y-93249189D01*
X146207810Y-93225066D01*
X146195752Y-93219370D01*
X146151766Y-93208003D01*
X146087313Y-93199895D01*
X146015303Y-93196643D01*
X146011936Y-93196636D01*
X145908343Y-93203084D01*
G36*
X145388919Y-93198386D02*
G01*
X145363912Y-93205882D01*
X145355850Y-93222351D01*
X145355511Y-93229786D01*
X145354064Y-93250494D01*
X145344102Y-93253745D01*
X145317188Y-93239548D01*
X145301202Y-93229848D01*
X145250767Y-93209075D01*
X145190528Y-93198804D01*
X145127366Y-93198014D01*
X145068163Y-93205686D01*
X145019798Y-93220798D01*
X144989154Y-93242332D01*
X144983111Y-93269266D01*
X144986161Y-93276560D01*
X145008394Y-93306837D01*
X145042870Y-93344075D01*
X145049106Y-93350095D01*
X145081967Y-93377775D01*
X145110320Y-93386718D01*
X145149973Y-93380476D01*
X145165858Y-93376329D01*
X145215291Y-93366367D01*
X145250048Y-93370847D01*
X145279400Y-93386646D01*
X145306287Y-93407849D01*
X145326090Y-93434514D01*
X145339852Y-93471727D01*
X145348616Y-93524573D01*
X145353426Y-93598137D01*
X145355326Y-93697505D01*
X145355511Y-93757501D01*
X145355511Y-94015426D01*
X145522616Y-94015426D01*
X145522616Y-93196610D01*
X145439064Y-93196610D01*
X145388919Y-93198386D01*
X145388919Y-93198386D01*
G37*
X145388919Y-93198386D02*
X145363912Y-93205882D01*
X145355850Y-93222351D01*
X145355511Y-93229786D01*
X145354064Y-93250494D01*
X145344102Y-93253745D01*
X145317188Y-93239548D01*
X145301202Y-93229848D01*
X145250767Y-93209075D01*
X145190528Y-93198804D01*
X145127366Y-93198014D01*
X145068163Y-93205686D01*
X145019798Y-93220798D01*
X144989154Y-93242332D01*
X144983111Y-93269266D01*
X144986161Y-93276560D01*
X145008394Y-93306837D01*
X145042870Y-93344075D01*
X145049106Y-93350095D01*
X145081967Y-93377775D01*
X145110320Y-93386718D01*
X145149973Y-93380476D01*
X145165858Y-93376329D01*
X145215291Y-93366367D01*
X145250048Y-93370847D01*
X145279400Y-93386646D01*
X145306287Y-93407849D01*
X145326090Y-93434514D01*
X145339852Y-93471727D01*
X145348616Y-93524573D01*
X145353426Y-93598137D01*
X145355326Y-93697505D01*
X145355511Y-93757501D01*
X145355511Y-94015426D01*
X145522616Y-94015426D01*
X145522616Y-93196610D01*
X145439064Y-93196610D01*
X145388919Y-93198386D01*
G36*
X144336169Y-94015426D02*
G01*
X144428077Y-94015426D01*
X144481423Y-94013862D01*
X144509207Y-94007385D01*
X144519210Y-93993318D01*
X144519985Y-93983806D01*
X144521672Y-93964732D01*
X144532310Y-93961074D01*
X144560265Y-93972832D01*
X144582005Y-93983806D01*
X144665468Y-94009811D01*
X144756196Y-94011316D01*
X144829958Y-93991921D01*
X144898646Y-93945065D01*
X144951006Y-93875904D01*
X144979678Y-93794327D01*
X144980408Y-93789766D01*
X144984668Y-93740001D01*
X144986786Y-93668559D01*
X144986616Y-93614526D01*
X144804080Y-93614526D01*
X144799851Y-93686341D01*
X144790232Y-93745534D01*
X144777210Y-93778960D01*
X144727944Y-93824640D01*
X144669450Y-93841015D01*
X144609129Y-93827773D01*
X144557583Y-93788273D01*
X144538062Y-93761707D01*
X144526648Y-93730006D01*
X144521302Y-93683732D01*
X144519985Y-93614228D01*
X144522342Y-93545399D01*
X144528567Y-93484926D01*
X144537392Y-93444456D01*
X144538863Y-93440829D01*
X144574453Y-93397702D01*
X144626400Y-93374024D01*
X144684522Y-93370201D01*
X144738640Y-93386638D01*
X144778574Y-93423740D01*
X144782717Y-93431122D01*
X144795684Y-93476139D01*
X144802748Y-93540867D01*
X144804080Y-93614526D01*
X144986616Y-93614526D01*
X144986529Y-93587130D01*
X144985328Y-93543305D01*
X144977155Y-93434888D01*
X144960170Y-93353488D01*
X144931913Y-93293312D01*
X144889928Y-93248566D01*
X144849168Y-93222300D01*
X144792219Y-93203835D01*
X144721389Y-93197502D01*
X144648859Y-93202660D01*
X144586814Y-93218669D01*
X144554032Y-93237820D01*
X144519985Y-93268632D01*
X144519985Y-92879110D01*
X144336169Y-92879110D01*
X144336169Y-94015426D01*
X144336169Y-94015426D01*
G37*
X144336169Y-94015426D02*
X144428077Y-94015426D01*
X144481423Y-94013862D01*
X144509207Y-94007385D01*
X144519210Y-93993318D01*
X144519985Y-93983806D01*
X144521672Y-93964732D01*
X144532310Y-93961074D01*
X144560265Y-93972832D01*
X144582005Y-93983806D01*
X144665468Y-94009811D01*
X144756196Y-94011316D01*
X144829958Y-93991921D01*
X144898646Y-93945065D01*
X144951006Y-93875904D01*
X144979678Y-93794327D01*
X144980408Y-93789766D01*
X144984668Y-93740001D01*
X144986786Y-93668559D01*
X144986616Y-93614526D01*
X144804080Y-93614526D01*
X144799851Y-93686341D01*
X144790232Y-93745534D01*
X144777210Y-93778960D01*
X144727944Y-93824640D01*
X144669450Y-93841015D01*
X144609129Y-93827773D01*
X144557583Y-93788273D01*
X144538062Y-93761707D01*
X144526648Y-93730006D01*
X144521302Y-93683732D01*
X144519985Y-93614228D01*
X144522342Y-93545399D01*
X144528567Y-93484926D01*
X144537392Y-93444456D01*
X144538863Y-93440829D01*
X144574453Y-93397702D01*
X144626400Y-93374024D01*
X144684522Y-93370201D01*
X144738640Y-93386638D01*
X144778574Y-93423740D01*
X144782717Y-93431122D01*
X144795684Y-93476139D01*
X144802748Y-93540867D01*
X144804080Y-93614526D01*
X144986616Y-93614526D01*
X144986529Y-93587130D01*
X144985328Y-93543305D01*
X144977155Y-93434888D01*
X144960170Y-93353488D01*
X144931913Y-93293312D01*
X144889928Y-93248566D01*
X144849168Y-93222300D01*
X144792219Y-93203835D01*
X144721389Y-93197502D01*
X144648859Y-93202660D01*
X144586814Y-93218669D01*
X144554032Y-93237820D01*
X144519985Y-93268632D01*
X144519985Y-92879110D01*
X144336169Y-92879110D01*
X144336169Y-94015426D01*
G36*
X143694670Y-93200004D02*
G01*
X143628580Y-93204966D01*
X143542174Y-93463979D01*
X143455769Y-93722992D01*
X143428676Y-93631084D01*
X143412372Y-93574284D01*
X143390925Y-93497525D01*
X143367765Y-93413151D01*
X143355520Y-93367893D01*
X143309456Y-93196610D01*
X143119413Y-93196610D01*
X143176218Y-93376249D01*
X143204193Y-93464604D01*
X143237987Y-93571181D01*
X143273280Y-93682354D01*
X143304787Y-93781479D01*
X143376550Y-94007071D01*
X143531514Y-94017153D01*
X143573530Y-93878428D01*
X143599441Y-93792251D01*
X143627717Y-93697247D01*
X143652431Y-93613341D01*
X143653406Y-93610002D01*
X143671865Y-93553148D01*
X143688151Y-93514356D01*
X143699558Y-93499687D01*
X143701902Y-93501383D01*
X143710129Y-93524125D01*
X143725762Y-93572840D01*
X143746896Y-93641402D01*
X143771630Y-93723685D01*
X143785013Y-93768946D01*
X143857489Y-94015426D01*
X144011305Y-94015426D01*
X144134269Y-93626906D01*
X144168812Y-93517922D01*
X144200279Y-93418948D01*
X144227184Y-93334636D01*
X144248041Y-93269634D01*
X144261362Y-93228592D01*
X144265412Y-93216601D01*
X144262206Y-93204323D01*
X144237035Y-93198946D01*
X144184654Y-93199484D01*
X144176455Y-93199890D01*
X144079318Y-93204966D01*
X144015700Y-93438913D01*
X143992316Y-93524233D01*
X143971419Y-93599235D01*
X143954849Y-93657407D01*
X143944446Y-93692237D01*
X143942524Y-93697916D01*
X143934559Y-93691386D01*
X143918496Y-93657554D01*
X143896179Y-93601027D01*
X143869455Y-93526410D01*
X143846863Y-93459007D01*
X143760759Y-93195043D01*
X143694670Y-93200004D01*
X143694670Y-93200004D01*
G37*
X143694670Y-93200004D02*
X143628580Y-93204966D01*
X143542174Y-93463979D01*
X143455769Y-93722992D01*
X143428676Y-93631084D01*
X143412372Y-93574284D01*
X143390925Y-93497525D01*
X143367765Y-93413151D01*
X143355520Y-93367893D01*
X143309456Y-93196610D01*
X143119413Y-93196610D01*
X143176218Y-93376249D01*
X143204193Y-93464604D01*
X143237987Y-93571181D01*
X143273280Y-93682354D01*
X143304787Y-93781479D01*
X143376550Y-94007071D01*
X143531514Y-94017153D01*
X143573530Y-93878428D01*
X143599441Y-93792251D01*
X143627717Y-93697247D01*
X143652431Y-93613341D01*
X143653406Y-93610002D01*
X143671865Y-93553148D01*
X143688151Y-93514356D01*
X143699558Y-93499687D01*
X143701902Y-93501383D01*
X143710129Y-93524125D01*
X143725762Y-93572840D01*
X143746896Y-93641402D01*
X143771630Y-93723685D01*
X143785013Y-93768946D01*
X143857489Y-94015426D01*
X144011305Y-94015426D01*
X144134269Y-93626906D01*
X144168812Y-93517922D01*
X144200279Y-93418948D01*
X144227184Y-93334636D01*
X144248041Y-93269634D01*
X144261362Y-93228592D01*
X144265412Y-93216601D01*
X144262206Y-93204323D01*
X144237035Y-93198946D01*
X144184654Y-93199484D01*
X144176455Y-93199890D01*
X144079318Y-93204966D01*
X144015700Y-93438913D01*
X143992316Y-93524233D01*
X143971419Y-93599235D01*
X143954849Y-93657407D01*
X143944446Y-93692237D01*
X143942524Y-93697916D01*
X143934559Y-93691386D01*
X143918496Y-93657554D01*
X143896179Y-93601027D01*
X143869455Y-93526410D01*
X143846863Y-93459007D01*
X143760759Y-93195043D01*
X143694670Y-93200004D01*
G36*
X142688808Y-93201573D02*
G01*
X142618373Y-93218680D01*
X142598013Y-93227744D01*
X142558547Y-93251483D01*
X142528259Y-93278221D01*
X142505848Y-93312599D01*
X142490014Y-93359260D01*
X142479457Y-93422846D01*
X142472876Y-93507999D01*
X142468972Y-93619362D01*
X142467490Y-93693749D01*
X142462035Y-94015426D01*
X142555220Y-94015426D01*
X142611753Y-94013056D01*
X142640878Y-94004955D01*
X142648406Y-93991351D01*
X142652380Y-93976641D01*
X142670148Y-93979454D01*
X142694360Y-93991248D01*
X142754972Y-94009327D01*
X142832871Y-94014199D01*
X142914805Y-94006230D01*
X142987519Y-93985789D01*
X142994041Y-93982951D01*
X143060498Y-93936265D01*
X143104309Y-93871364D01*
X143124468Y-93795500D01*
X143122928Y-93768244D01*
X142958455Y-93768244D01*
X142943963Y-93804924D01*
X142900995Y-93831209D01*
X142831671Y-93845317D01*
X142794623Y-93847190D01*
X142732881Y-93842394D01*
X142691840Y-93823758D01*
X142681827Y-93814900D01*
X142654700Y-93766706D01*
X142648406Y-93722992D01*
X142648406Y-93664505D01*
X142729870Y-93664505D01*
X142824566Y-93669332D01*
X142890987Y-93684513D01*
X142932954Y-93711100D01*
X142942351Y-93722952D01*
X142958455Y-93768244D01*
X143122928Y-93768244D01*
X143119971Y-93715926D01*
X143089815Y-93639895D01*
X143048669Y-93588512D01*
X143023748Y-93566297D01*
X142999352Y-93551698D01*
X142967609Y-93542797D01*
X142920648Y-93537675D01*
X142850596Y-93534415D01*
X142822810Y-93533477D01*
X142648406Y-93527779D01*
X142648662Y-93474991D01*
X142655416Y-93419503D01*
X142679836Y-93385952D01*
X142729170Y-93364518D01*
X142730494Y-93364136D01*
X142800440Y-93355708D01*
X142868886Y-93366716D01*
X142919753Y-93393485D01*
X142940163Y-93406703D01*
X142962146Y-93404874D01*
X142995974Y-93385724D01*
X143015839Y-93372208D01*
X143054694Y-93343332D01*
X143078762Y-93321686D01*
X143082624Y-93315489D01*
X143066721Y-93283419D01*
X143019735Y-93245119D01*
X142999327Y-93232197D01*
X142940657Y-93209941D01*
X142861588Y-93197332D01*
X142773759Y-93194500D01*
X142688808Y-93201573D01*
X142688808Y-93201573D01*
G37*
X142688808Y-93201573D02*
X142618373Y-93218680D01*
X142598013Y-93227744D01*
X142558547Y-93251483D01*
X142528259Y-93278221D01*
X142505848Y-93312599D01*
X142490014Y-93359260D01*
X142479457Y-93422846D01*
X142472876Y-93507999D01*
X142468972Y-93619362D01*
X142467490Y-93693749D01*
X142462035Y-94015426D01*
X142555220Y-94015426D01*
X142611753Y-94013056D01*
X142640878Y-94004955D01*
X142648406Y-93991351D01*
X142652380Y-93976641D01*
X142670148Y-93979454D01*
X142694360Y-93991248D01*
X142754972Y-94009327D01*
X142832871Y-94014199D01*
X142914805Y-94006230D01*
X142987519Y-93985789D01*
X142994041Y-93982951D01*
X143060498Y-93936265D01*
X143104309Y-93871364D01*
X143124468Y-93795500D01*
X143122928Y-93768244D01*
X142958455Y-93768244D01*
X142943963Y-93804924D01*
X142900995Y-93831209D01*
X142831671Y-93845317D01*
X142794623Y-93847190D01*
X142732881Y-93842394D01*
X142691840Y-93823758D01*
X142681827Y-93814900D01*
X142654700Y-93766706D01*
X142648406Y-93722992D01*
X142648406Y-93664505D01*
X142729870Y-93664505D01*
X142824566Y-93669332D01*
X142890987Y-93684513D01*
X142932954Y-93711100D01*
X142942351Y-93722952D01*
X142958455Y-93768244D01*
X143122928Y-93768244D01*
X143119971Y-93715926D01*
X143089815Y-93639895D01*
X143048669Y-93588512D01*
X143023748Y-93566297D01*
X142999352Y-93551698D01*
X142967609Y-93542797D01*
X142920648Y-93537675D01*
X142850596Y-93534415D01*
X142822810Y-93533477D01*
X142648406Y-93527779D01*
X142648662Y-93474991D01*
X142655416Y-93419503D01*
X142679836Y-93385952D01*
X142729170Y-93364518D01*
X142730494Y-93364136D01*
X142800440Y-93355708D01*
X142868886Y-93366716D01*
X142919753Y-93393485D01*
X142940163Y-93406703D01*
X142962146Y-93404874D01*
X142995974Y-93385724D01*
X143015839Y-93372208D01*
X143054694Y-93343332D01*
X143078762Y-93321686D01*
X143082624Y-93315489D01*
X143066721Y-93283419D01*
X143019735Y-93245119D01*
X142999327Y-93232197D01*
X142940657Y-93209941D01*
X142861588Y-93197332D01*
X142773759Y-93194500D01*
X142688808Y-93201573D01*
G36*
X141895633Y-93196347D02*
G01*
X141831392Y-93209012D01*
X141794820Y-93227764D01*
X141756347Y-93258917D01*
X141811083Y-93328027D01*
X141844831Y-93369879D01*
X141867747Y-93390298D01*
X141890521Y-93393417D01*
X141923844Y-93383372D01*
X141939486Y-93377689D01*
X142003258Y-93369304D01*
X142061660Y-93387278D01*
X142104536Y-93427882D01*
X142111501Y-93440829D01*
X142119087Y-93475124D01*
X142124941Y-93538327D01*
X142128789Y-93625960D01*
X142130357Y-93733540D01*
X142130379Y-93748844D01*
X142130379Y-94015426D01*
X142314195Y-94015426D01*
X142314195Y-93196610D01*
X142222287Y-93196610D01*
X142169293Y-93197994D01*
X142141685Y-93204152D01*
X142131476Y-93218094D01*
X142130379Y-93231244D01*
X142130379Y-93265878D01*
X142086350Y-93231244D01*
X142035863Y-93207616D01*
X141968040Y-93195933D01*
X141895633Y-93196347D01*
X141895633Y-93196347D01*
G37*
X141895633Y-93196347D02*
X141831392Y-93209012D01*
X141794820Y-93227764D01*
X141756347Y-93258917D01*
X141811083Y-93328027D01*
X141844831Y-93369879D01*
X141867747Y-93390298D01*
X141890521Y-93393417D01*
X141923844Y-93383372D01*
X141939486Y-93377689D01*
X142003258Y-93369304D01*
X142061660Y-93387278D01*
X142104536Y-93427882D01*
X142111501Y-93440829D01*
X142119087Y-93475124D01*
X142124941Y-93538327D01*
X142128789Y-93625960D01*
X142130357Y-93733540D01*
X142130379Y-93748844D01*
X142130379Y-94015426D01*
X142314195Y-94015426D01*
X142314195Y-93196610D01*
X142222287Y-93196610D01*
X142169293Y-93197994D01*
X142141685Y-93204152D01*
X142131476Y-93218094D01*
X142130379Y-93231244D01*
X142130379Y-93265878D01*
X142086350Y-93231244D01*
X142035863Y-93207616D01*
X141968040Y-93195933D01*
X141895633Y-93196347D01*
G36*
X141367607Y-93200978D02*
G01*
X141287732Y-93221745D01*
X141220838Y-93264605D01*
X141188449Y-93296623D01*
X141135355Y-93372313D01*
X141104927Y-93460116D01*
X141094473Y-93568050D01*
X141094420Y-93576775D01*
X141094327Y-93664505D01*
X141599266Y-93664505D01*
X141588502Y-93710459D01*
X141569068Y-93752078D01*
X141535055Y-93795444D01*
X141527940Y-93802367D01*
X141466797Y-93839835D01*
X141397071Y-93846189D01*
X141316813Y-93821538D01*
X141303208Y-93814900D01*
X141261481Y-93794719D01*
X141233532Y-93783221D01*
X141228655Y-93782158D01*
X141211632Y-93792483D01*
X141179167Y-93817745D01*
X141162686Y-93831550D01*
X141128536Y-93863261D01*
X141117322Y-93884199D01*
X141125105Y-93903460D01*
X141129265Y-93908727D01*
X141157443Y-93931778D01*
X141203938Y-93959792D01*
X141236366Y-93976146D01*
X141328415Y-94004959D01*
X141430324Y-94014295D01*
X141526837Y-94003232D01*
X141553866Y-93995312D01*
X141637524Y-93950481D01*
X141699534Y-93881498D01*
X141740255Y-93787694D01*
X141760045Y-93668398D01*
X141762218Y-93606018D01*
X141755874Y-93515198D01*
X141595643Y-93515198D01*
X141580145Y-93521912D01*
X141538488Y-93527180D01*
X141477924Y-93530289D01*
X141436893Y-93530821D01*
X141363089Y-93530308D01*
X141316507Y-93527906D01*
X141290952Y-93522322D01*
X141280231Y-93512261D01*
X141278143Y-93497663D01*
X141292469Y-93452696D01*
X141328538Y-93408253D01*
X141375985Y-93374142D01*
X141423451Y-93360188D01*
X141487921Y-93372566D01*
X141543730Y-93408352D01*
X141582426Y-93459933D01*
X141595643Y-93515198D01*
X141755874Y-93515198D01*
X141752979Y-93473766D01*
X141724464Y-93368398D01*
X141676071Y-93289078D01*
X141607196Y-93234971D01*
X141517235Y-93205243D01*
X141468500Y-93199518D01*
X141367607Y-93200978D01*
X141367607Y-93200978D01*
G37*
X141367607Y-93200978D02*
X141287732Y-93221745D01*
X141220838Y-93264605D01*
X141188449Y-93296623D01*
X141135355Y-93372313D01*
X141104927Y-93460116D01*
X141094473Y-93568050D01*
X141094420Y-93576775D01*
X141094327Y-93664505D01*
X141599266Y-93664505D01*
X141588502Y-93710459D01*
X141569068Y-93752078D01*
X141535055Y-93795444D01*
X141527940Y-93802367D01*
X141466797Y-93839835D01*
X141397071Y-93846189D01*
X141316813Y-93821538D01*
X141303208Y-93814900D01*
X141261481Y-93794719D01*
X141233532Y-93783221D01*
X141228655Y-93782158D01*
X141211632Y-93792483D01*
X141179167Y-93817745D01*
X141162686Y-93831550D01*
X141128536Y-93863261D01*
X141117322Y-93884199D01*
X141125105Y-93903460D01*
X141129265Y-93908727D01*
X141157443Y-93931778D01*
X141203938Y-93959792D01*
X141236366Y-93976146D01*
X141328415Y-94004959D01*
X141430324Y-94014295D01*
X141526837Y-94003232D01*
X141553866Y-93995312D01*
X141637524Y-93950481D01*
X141699534Y-93881498D01*
X141740255Y-93787694D01*
X141760045Y-93668398D01*
X141762218Y-93606018D01*
X141755874Y-93515198D01*
X141595643Y-93515198D01*
X141580145Y-93521912D01*
X141538488Y-93527180D01*
X141477924Y-93530289D01*
X141436893Y-93530821D01*
X141363089Y-93530308D01*
X141316507Y-93527906D01*
X141290952Y-93522322D01*
X141280231Y-93512261D01*
X141278143Y-93497663D01*
X141292469Y-93452696D01*
X141328538Y-93408253D01*
X141375985Y-93374142D01*
X141423451Y-93360188D01*
X141487921Y-93372566D01*
X141543730Y-93408352D01*
X141582426Y-93459933D01*
X141595643Y-93515198D01*
X141755874Y-93515198D01*
X141752979Y-93473766D01*
X141724464Y-93368398D01*
X141676071Y-93289078D01*
X141607196Y-93234971D01*
X141517235Y-93205243D01*
X141468500Y-93199518D01*
X141367607Y-93200978D01*
G36*
X147442016Y-91952004D02*
G01*
X147354595Y-91990654D01*
X147288230Y-92055190D01*
X147242824Y-92145712D01*
X147218282Y-92262318D01*
X147216523Y-92280524D01*
X147215144Y-92408884D01*
X147233016Y-92521396D01*
X147269050Y-92612588D01*
X147288345Y-92641922D01*
X147355555Y-92704006D01*
X147441150Y-92744216D01*
X147536910Y-92760903D01*
X147634613Y-92752417D01*
X147708883Y-92726280D01*
X147772753Y-92682235D01*
X147824954Y-92624487D01*
X147825857Y-92623136D01*
X147847056Y-92587493D01*
X147860833Y-92551652D01*
X147869176Y-92506419D01*
X147874073Y-92442601D01*
X147876231Y-92390268D01*
X147877129Y-92342810D01*
X147710057Y-92342810D01*
X147708424Y-92390054D01*
X147702496Y-92452946D01*
X147692039Y-92493307D01*
X147673181Y-92522022D01*
X147655519Y-92538796D01*
X147592906Y-92573916D01*
X147527392Y-92578610D01*
X147466379Y-92553340D01*
X147435872Y-92525024D01*
X147413889Y-92496489D01*
X147401031Y-92469184D01*
X147395388Y-92433650D01*
X147395049Y-92380424D01*
X147396788Y-92331406D01*
X147400529Y-92261382D01*
X147406459Y-92215964D01*
X147417147Y-92186340D01*
X147435161Y-92163697D01*
X147449437Y-92150755D01*
X147509149Y-92116760D01*
X147573566Y-92115065D01*
X147627581Y-92135201D01*
X147673660Y-92177252D01*
X147701111Y-92246328D01*
X147710057Y-92342810D01*
X147877129Y-92342810D01*
X147878201Y-92286199D01*
X147874836Y-92208368D01*
X147864755Y-92149830D01*
X147846574Y-92103637D01*
X147818910Y-92062842D01*
X147808654Y-92050728D01*
X147744522Y-91990374D01*
X147675734Y-91955120D01*
X147591611Y-91940350D01*
X147550591Y-91939143D01*
X147442016Y-91952004D01*
X147442016Y-91952004D01*
G37*
X147442016Y-91952004D02*
X147354595Y-91990654D01*
X147288230Y-92055190D01*
X147242824Y-92145712D01*
X147218282Y-92262318D01*
X147216523Y-92280524D01*
X147215144Y-92408884D01*
X147233016Y-92521396D01*
X147269050Y-92612588D01*
X147288345Y-92641922D01*
X147355555Y-92704006D01*
X147441150Y-92744216D01*
X147536910Y-92760903D01*
X147634613Y-92752417D01*
X147708883Y-92726280D01*
X147772753Y-92682235D01*
X147824954Y-92624487D01*
X147825857Y-92623136D01*
X147847056Y-92587493D01*
X147860833Y-92551652D01*
X147869176Y-92506419D01*
X147874073Y-92442601D01*
X147876231Y-92390268D01*
X147877129Y-92342810D01*
X147710057Y-92342810D01*
X147708424Y-92390054D01*
X147702496Y-92452946D01*
X147692039Y-92493307D01*
X147673181Y-92522022D01*
X147655519Y-92538796D01*
X147592906Y-92573916D01*
X147527392Y-92578610D01*
X147466379Y-92553340D01*
X147435872Y-92525024D01*
X147413889Y-92496489D01*
X147401031Y-92469184D01*
X147395388Y-92433650D01*
X147395049Y-92380424D01*
X147396788Y-92331406D01*
X147400529Y-92261382D01*
X147406459Y-92215964D01*
X147417147Y-92186340D01*
X147435161Y-92163697D01*
X147449437Y-92150755D01*
X147509149Y-92116760D01*
X147573566Y-92115065D01*
X147627581Y-92135201D01*
X147673660Y-92177252D01*
X147701111Y-92246328D01*
X147710057Y-92342810D01*
X147877129Y-92342810D01*
X147878201Y-92286199D01*
X147874836Y-92208368D01*
X147864755Y-92149830D01*
X147846574Y-92103637D01*
X147818910Y-92062842D01*
X147808654Y-92050728D01*
X147744522Y-91990374D01*
X147675734Y-91955120D01*
X147591611Y-91940350D01*
X147550591Y-91939143D01*
X147442016Y-91952004D01*
G36*
X145871782Y-91961927D02*
G01*
X145855130Y-91969766D01*
X145797495Y-92011986D01*
X145742995Y-92073600D01*
X145702301Y-92141443D01*
X145690726Y-92172634D01*
X145680166Y-92228349D01*
X145673869Y-92295681D01*
X145673104Y-92323485D01*
X145673011Y-92411216D01*
X146177950Y-92411216D01*
X146167187Y-92457170D01*
X146140767Y-92511520D01*
X146094578Y-92558491D01*
X146039628Y-92588748D01*
X146004611Y-92595031D01*
X145957123Y-92587406D01*
X145900465Y-92568283D01*
X145881218Y-92559484D01*
X145810041Y-92523936D01*
X145749298Y-92570267D01*
X145714248Y-92601603D01*
X145695598Y-92627467D01*
X145694653Y-92635058D01*
X145711315Y-92653456D01*
X145747830Y-92681415D01*
X145780972Y-92703227D01*
X145870407Y-92742437D01*
X145970671Y-92760185D01*
X146070046Y-92755570D01*
X146149261Y-92731451D01*
X146230920Y-92679784D01*
X146288951Y-92611756D01*
X146325254Y-92523743D01*
X146341728Y-92412116D01*
X146343189Y-92361038D01*
X146337343Y-92243991D01*
X146336625Y-92240586D01*
X146169311Y-92240586D01*
X146164703Y-92251562D01*
X146145764Y-92257615D01*
X146106702Y-92260210D01*
X146041723Y-92260810D01*
X146016703Y-92260821D01*
X145940579Y-92259914D01*
X145892304Y-92256620D01*
X145866340Y-92250081D01*
X145857152Y-92239437D01*
X145856827Y-92236019D01*
X145867313Y-92208856D01*
X145893558Y-92170803D01*
X145904841Y-92157479D01*
X145946728Y-92119796D01*
X145990391Y-92104980D01*
X146013915Y-92103742D01*
X146077557Y-92119229D01*
X146130927Y-92160830D01*
X146164781Y-92221253D01*
X146165381Y-92223222D01*
X146169311Y-92240586D01*
X146336625Y-92240586D01*
X146317901Y-92151828D01*
X146282878Y-92078090D01*
X146240044Y-92025748D01*
X146160852Y-91968992D01*
X146067760Y-91938662D01*
X145968745Y-91935921D01*
X145871782Y-91961927D01*
X145871782Y-91961927D01*
G37*
X145871782Y-91961927D02*
X145855130Y-91969766D01*
X145797495Y-92011986D01*
X145742995Y-92073600D01*
X145702301Y-92141443D01*
X145690726Y-92172634D01*
X145680166Y-92228349D01*
X145673869Y-92295681D01*
X145673104Y-92323485D01*
X145673011Y-92411216D01*
X146177950Y-92411216D01*
X146167187Y-92457170D01*
X146140767Y-92511520D01*
X146094578Y-92558491D01*
X146039628Y-92588748D01*
X146004611Y-92595031D01*
X145957123Y-92587406D01*
X145900465Y-92568283D01*
X145881218Y-92559484D01*
X145810041Y-92523936D01*
X145749298Y-92570267D01*
X145714248Y-92601603D01*
X145695598Y-92627467D01*
X145694653Y-92635058D01*
X145711315Y-92653456D01*
X145747830Y-92681415D01*
X145780972Y-92703227D01*
X145870407Y-92742437D01*
X145970671Y-92760185D01*
X146070046Y-92755570D01*
X146149261Y-92731451D01*
X146230920Y-92679784D01*
X146288951Y-92611756D01*
X146325254Y-92523743D01*
X146341728Y-92412116D01*
X146343189Y-92361038D01*
X146337343Y-92243991D01*
X146336625Y-92240586D01*
X146169311Y-92240586D01*
X146164703Y-92251562D01*
X146145764Y-92257615D01*
X146106702Y-92260210D01*
X146041723Y-92260810D01*
X146016703Y-92260821D01*
X145940579Y-92259914D01*
X145892304Y-92256620D01*
X145866340Y-92250081D01*
X145857152Y-92239437D01*
X145856827Y-92236019D01*
X145867313Y-92208856D01*
X145893558Y-92170803D01*
X145904841Y-92157479D01*
X145946728Y-92119796D01*
X145990391Y-92104980D01*
X146013915Y-92103742D01*
X146077557Y-92119229D01*
X146130927Y-92160830D01*
X146164781Y-92221253D01*
X146165381Y-92223222D01*
X146169311Y-92240586D01*
X146336625Y-92240586D01*
X146317901Y-92151828D01*
X146282878Y-92078090D01*
X146240044Y-92025748D01*
X146160852Y-91968992D01*
X146067760Y-91938662D01*
X145968745Y-91935921D01*
X145871782Y-91961927D01*
G36*
X144050172Y-91940447D02*
G01*
X143986892Y-91952448D01*
X143921243Y-91977548D01*
X143914228Y-91980748D01*
X143864444Y-92006926D01*
X143829966Y-92031253D01*
X143818822Y-92046837D01*
X143829434Y-92072253D01*
X143855212Y-92109753D01*
X143866654Y-92123752D01*
X143913808Y-92178854D01*
X143974599Y-92142986D01*
X144032453Y-92119092D01*
X144099300Y-92106320D01*
X144163406Y-92105513D01*
X144213036Y-92117515D01*
X144224946Y-92125005D01*
X144247628Y-92159350D01*
X144250384Y-92198913D01*
X144233412Y-92229820D01*
X144223373Y-92235813D01*
X144193290Y-92243257D01*
X144140411Y-92252006D01*
X144075225Y-92260367D01*
X144063200Y-92261678D01*
X143958503Y-92279788D01*
X143882568Y-92310551D01*
X143832208Y-92356807D01*
X143804236Y-92421397D01*
X143795522Y-92500287D01*
X143807560Y-92589965D01*
X143846649Y-92660386D01*
X143912945Y-92711677D01*
X144006606Y-92743967D01*
X144110577Y-92756707D01*
X144195362Y-92756554D01*
X144264135Y-92744983D01*
X144311103Y-92729009D01*
X144370450Y-92701175D01*
X144425294Y-92668873D01*
X144444787Y-92654655D01*
X144494919Y-92613735D01*
X144373997Y-92491377D01*
X144305257Y-92536867D01*
X144236312Y-92571033D01*
X144162689Y-92588904D01*
X144091917Y-92590789D01*
X144031526Y-92577001D01*
X143989043Y-92547849D01*
X143975326Y-92523252D01*
X143977383Y-92483804D01*
X144011470Y-92453637D01*
X144077492Y-92432806D01*
X144149826Y-92423179D01*
X144261148Y-92404810D01*
X144343848Y-92370154D01*
X144399035Y-92318197D01*
X144427812Y-92247923D01*
X144431799Y-92164607D01*
X144412107Y-92077581D01*
X144367211Y-92011802D01*
X144296709Y-91966968D01*
X144200199Y-91942779D01*
X144128700Y-91938037D01*
X144050172Y-91940447D01*
X144050172Y-91940447D01*
G37*
X144050172Y-91940447D02*
X143986892Y-91952448D01*
X143921243Y-91977548D01*
X143914228Y-91980748D01*
X143864444Y-92006926D01*
X143829966Y-92031253D01*
X143818822Y-92046837D01*
X143829434Y-92072253D01*
X143855212Y-92109753D01*
X143866654Y-92123752D01*
X143913808Y-92178854D01*
X143974599Y-92142986D01*
X144032453Y-92119092D01*
X144099300Y-92106320D01*
X144163406Y-92105513D01*
X144213036Y-92117515D01*
X144224946Y-92125005D01*
X144247628Y-92159350D01*
X144250384Y-92198913D01*
X144233412Y-92229820D01*
X144223373Y-92235813D01*
X144193290Y-92243257D01*
X144140411Y-92252006D01*
X144075225Y-92260367D01*
X144063200Y-92261678D01*
X143958503Y-92279788D01*
X143882568Y-92310551D01*
X143832208Y-92356807D01*
X143804236Y-92421397D01*
X143795522Y-92500287D01*
X143807560Y-92589965D01*
X143846649Y-92660386D01*
X143912945Y-92711677D01*
X144006606Y-92743967D01*
X144110577Y-92756707D01*
X144195362Y-92756554D01*
X144264135Y-92744983D01*
X144311103Y-92729009D01*
X144370450Y-92701175D01*
X144425294Y-92668873D01*
X144444787Y-92654655D01*
X144494919Y-92613735D01*
X144373997Y-92491377D01*
X144305257Y-92536867D01*
X144236312Y-92571033D01*
X144162689Y-92588904D01*
X144091917Y-92590789D01*
X144031526Y-92577001D01*
X143989043Y-92547849D01*
X143975326Y-92523252D01*
X143977383Y-92483804D01*
X144011470Y-92453637D01*
X144077492Y-92432806D01*
X144149826Y-92423179D01*
X144261148Y-92404810D01*
X144343848Y-92370154D01*
X144399035Y-92318197D01*
X144427812Y-92247923D01*
X144431799Y-92164607D01*
X144412107Y-92077581D01*
X144367211Y-92011802D01*
X144296709Y-91966968D01*
X144200199Y-91942779D01*
X144128700Y-91938037D01*
X144050172Y-91940447D01*
G36*
X143257131Y-91953210D02*
G01*
X143172608Y-91999240D01*
X143106479Y-92071906D01*
X143075322Y-92131006D01*
X143061945Y-92183205D01*
X143053278Y-92257619D01*
X143049563Y-92343342D01*
X143051046Y-92429469D01*
X143057969Y-92505093D01*
X143066055Y-92545484D01*
X143093335Y-92600740D01*
X143140580Y-92659430D01*
X143197518Y-92710752D01*
X143253876Y-92743905D01*
X143255250Y-92744431D01*
X143325184Y-92758918D01*
X143408063Y-92759277D01*
X143486823Y-92746088D01*
X143517234Y-92735517D01*
X143595561Y-92691101D01*
X143651657Y-92632907D01*
X143688514Y-92555865D01*
X143709120Y-92454901D01*
X143713782Y-92402016D01*
X143713187Y-92335563D01*
X143534064Y-92335563D01*
X143528030Y-92432530D01*
X143510662Y-92506423D01*
X143483060Y-92553636D01*
X143463396Y-92567137D01*
X143413013Y-92576551D01*
X143353127Y-92573764D01*
X143301351Y-92560216D01*
X143287773Y-92552762D01*
X143251951Y-92509351D01*
X143228307Y-92442914D01*
X143218242Y-92362061D01*
X143223158Y-92275402D01*
X143234145Y-92223249D01*
X143265691Y-92162851D01*
X143315489Y-92125097D01*
X143375463Y-92112043D01*
X143437536Y-92125749D01*
X143485218Y-92159272D01*
X143510275Y-92186931D01*
X143524900Y-92214194D01*
X143531871Y-92251090D01*
X143533967Y-92307650D01*
X143534064Y-92335563D01*
X143713187Y-92335563D01*
X143712518Y-92260894D01*
X143689535Y-92145171D01*
X143644828Y-92054841D01*
X143578395Y-91989900D01*
X143490235Y-91950345D01*
X143471305Y-91945758D01*
X143357534Y-91934990D01*
X143257131Y-91953210D01*
X143257131Y-91953210D01*
G37*
X143257131Y-91953210D02*
X143172608Y-91999240D01*
X143106479Y-92071906D01*
X143075322Y-92131006D01*
X143061945Y-92183205D01*
X143053278Y-92257619D01*
X143049563Y-92343342D01*
X143051046Y-92429469D01*
X143057969Y-92505093D01*
X143066055Y-92545484D01*
X143093335Y-92600740D01*
X143140580Y-92659430D01*
X143197518Y-92710752D01*
X143253876Y-92743905D01*
X143255250Y-92744431D01*
X143325184Y-92758918D01*
X143408063Y-92759277D01*
X143486823Y-92746088D01*
X143517234Y-92735517D01*
X143595561Y-92691101D01*
X143651657Y-92632907D01*
X143688514Y-92555865D01*
X143709120Y-92454901D01*
X143713782Y-92402016D01*
X143713187Y-92335563D01*
X143534064Y-92335563D01*
X143528030Y-92432530D01*
X143510662Y-92506423D01*
X143483060Y-92553636D01*
X143463396Y-92567137D01*
X143413013Y-92576551D01*
X143353127Y-92573764D01*
X143301351Y-92560216D01*
X143287773Y-92552762D01*
X143251951Y-92509351D01*
X143228307Y-92442914D01*
X143218242Y-92362061D01*
X143223158Y-92275402D01*
X143234145Y-92223249D01*
X143265691Y-92162851D01*
X143315489Y-92125097D01*
X143375463Y-92112043D01*
X143437536Y-92125749D01*
X143485218Y-92159272D01*
X143510275Y-92186931D01*
X143524900Y-92214194D01*
X143531871Y-92251090D01*
X143533967Y-92307650D01*
X143534064Y-92335563D01*
X143713187Y-92335563D01*
X143712518Y-92260894D01*
X143689535Y-92145171D01*
X143644828Y-92054841D01*
X143578395Y-91989900D01*
X143490235Y-91950345D01*
X143471305Y-91945758D01*
X143357534Y-91934990D01*
X143257131Y-91953210D01*
G36*
X142748669Y-92203433D02*
G01*
X142747090Y-92325989D01*
X142741319Y-92419079D01*
X142729809Y-92486551D01*
X142711010Y-92532255D01*
X142683374Y-92560039D01*
X142645352Y-92573754D01*
X142598274Y-92577258D01*
X142548968Y-92573332D01*
X142511517Y-92558989D01*
X142484372Y-92530378D01*
X142465985Y-92483651D01*
X142454807Y-92414958D01*
X142449289Y-92320450D01*
X142447879Y-92203433D01*
X142447879Y-91943321D01*
X142264064Y-91943321D01*
X142264064Y-92745426D01*
X142355972Y-92745426D01*
X142411378Y-92743181D01*
X142439909Y-92735296D01*
X142447879Y-92720328D01*
X142452680Y-92706997D01*
X142471786Y-92709817D01*
X142510296Y-92728683D01*
X142598561Y-92757787D01*
X142692177Y-92755725D01*
X142781879Y-92724121D01*
X142824596Y-92699157D01*
X142857179Y-92672126D01*
X142880983Y-92638305D01*
X142897361Y-92592968D01*
X142907669Y-92531389D01*
X142913259Y-92448843D01*
X142915488Y-92340605D01*
X142915774Y-92256904D01*
X142915774Y-91943321D01*
X142748669Y-91943321D01*
X142748669Y-92203433D01*
X142748669Y-92203433D01*
G37*
X142748669Y-92203433D02*
X142747090Y-92325989D01*
X142741319Y-92419079D01*
X142729809Y-92486551D01*
X142711010Y-92532255D01*
X142683374Y-92560039D01*
X142645352Y-92573754D01*
X142598274Y-92577258D01*
X142548968Y-92573332D01*
X142511517Y-92558989D01*
X142484372Y-92530378D01*
X142465985Y-92483651D01*
X142454807Y-92414958D01*
X142449289Y-92320450D01*
X142447879Y-92203433D01*
X142447879Y-91943321D01*
X142264064Y-91943321D01*
X142264064Y-92745426D01*
X142355972Y-92745426D01*
X142411378Y-92743181D01*
X142439909Y-92735296D01*
X142447879Y-92720328D01*
X142452680Y-92706997D01*
X142471786Y-92709817D01*
X142510296Y-92728683D01*
X142598561Y-92757787D01*
X142692177Y-92755725D01*
X142781879Y-92724121D01*
X142824596Y-92699157D01*
X142857179Y-92672126D01*
X142880983Y-92638305D01*
X142897361Y-92592968D01*
X142907669Y-92531389D01*
X142913259Y-92448843D01*
X142915488Y-92340605D01*
X142915774Y-92256904D01*
X142915774Y-91943321D01*
X142748669Y-91943321D01*
X142748669Y-92203433D01*
G36*
X141122224Y-91950319D02*
G01*
X141025405Y-91991449D01*
X140994910Y-92011471D01*
X140955935Y-92042240D01*
X140931469Y-92066433D01*
X140927222Y-92074313D01*
X140939216Y-92091799D01*
X140969913Y-92121470D01*
X140994488Y-92142179D01*
X141061754Y-92196236D01*
X141114870Y-92151542D01*
X141155916Y-92122689D01*
X141195937Y-92112729D01*
X141241741Y-92115161D01*
X141314476Y-92133245D01*
X141364544Y-92170781D01*
X141394971Y-92231462D01*
X141408783Y-92318981D01*
X141408787Y-92319036D01*
X141407592Y-92416858D01*
X141389028Y-92488630D01*
X141351996Y-92537495D01*
X141326750Y-92554043D01*
X141259703Y-92574649D01*
X141188091Y-92574662D01*
X141125785Y-92554668D01*
X141111037Y-92544900D01*
X141074050Y-92519947D01*
X141045132Y-92515858D01*
X141013944Y-92534430D01*
X140979464Y-92567787D01*
X140924888Y-92624096D01*
X140985482Y-92674042D01*
X141079102Y-92730413D01*
X141184675Y-92758193D01*
X141295002Y-92756182D01*
X141367457Y-92737762D01*
X141452144Y-92692210D01*
X141519873Y-92620550D01*
X141550643Y-92569966D01*
X141575564Y-92497388D01*
X141588034Y-92405469D01*
X141588130Y-92305848D01*
X141575930Y-92210167D01*
X141551510Y-92130069D01*
X141547664Y-92121856D01*
X141490707Y-92041313D01*
X141413591Y-91982671D01*
X141322410Y-91947147D01*
X141223257Y-91935957D01*
X141122224Y-91950319D01*
X141122224Y-91950319D01*
G37*
X141122224Y-91950319D02*
X141025405Y-91991449D01*
X140994910Y-92011471D01*
X140955935Y-92042240D01*
X140931469Y-92066433D01*
X140927222Y-92074313D01*
X140939216Y-92091799D01*
X140969913Y-92121470D01*
X140994488Y-92142179D01*
X141061754Y-92196236D01*
X141114870Y-92151542D01*
X141155916Y-92122689D01*
X141195937Y-92112729D01*
X141241741Y-92115161D01*
X141314476Y-92133245D01*
X141364544Y-92170781D01*
X141394971Y-92231462D01*
X141408783Y-92318981D01*
X141408787Y-92319036D01*
X141407592Y-92416858D01*
X141389028Y-92488630D01*
X141351996Y-92537495D01*
X141326750Y-92554043D01*
X141259703Y-92574649D01*
X141188091Y-92574662D01*
X141125785Y-92554668D01*
X141111037Y-92544900D01*
X141074050Y-92519947D01*
X141045132Y-92515858D01*
X141013944Y-92534430D01*
X140979464Y-92567787D01*
X140924888Y-92624096D01*
X140985482Y-92674042D01*
X141079102Y-92730413D01*
X141184675Y-92758193D01*
X141295002Y-92756182D01*
X141367457Y-92737762D01*
X141452144Y-92692210D01*
X141519873Y-92620550D01*
X141550643Y-92569966D01*
X141575564Y-92497388D01*
X141588034Y-92405469D01*
X141588130Y-92305848D01*
X141575930Y-92210167D01*
X141551510Y-92130069D01*
X141547664Y-92121856D01*
X141490707Y-92041313D01*
X141413591Y-91982671D01*
X141322410Y-91947147D01*
X141223257Y-91935957D01*
X141122224Y-91950319D01*
G36*
X140510016Y-91940454D02*
G01*
X140467226Y-91950849D01*
X140385191Y-91988913D01*
X140315043Y-92047049D01*
X140266495Y-92116752D01*
X140259825Y-92132402D01*
X140250676Y-92173396D01*
X140244271Y-92234038D01*
X140242090Y-92295330D01*
X140242090Y-92411216D01*
X140484393Y-92411216D01*
X140584329Y-92411593D01*
X140654731Y-92413887D01*
X140699487Y-92419838D01*
X140722485Y-92431185D01*
X140727611Y-92449671D01*
X140718752Y-92477036D01*
X140702883Y-92509055D01*
X140658616Y-92562492D01*
X140597101Y-92589115D01*
X140521915Y-92588247D01*
X140436747Y-92559271D01*
X140363141Y-92523511D01*
X140302066Y-92571804D01*
X140240990Y-92620097D01*
X140298449Y-92673185D01*
X140375159Y-92723345D01*
X140469498Y-92753588D01*
X140570973Y-92762051D01*
X140669089Y-92746874D01*
X140684919Y-92741724D01*
X140771153Y-92696691D01*
X140835299Y-92629552D01*
X140878709Y-92538305D01*
X140902736Y-92420944D01*
X140903016Y-92418429D01*
X140905167Y-92290527D01*
X140896471Y-92244897D01*
X140726695Y-92244897D01*
X140711103Y-92251913D01*
X140668771Y-92257288D01*
X140606366Y-92260357D01*
X140566819Y-92260821D01*
X140493072Y-92260530D01*
X140446960Y-92258683D01*
X140422700Y-92253812D01*
X140414506Y-92244455D01*
X140416594Y-92229145D01*
X140418345Y-92223222D01*
X140448240Y-92167568D01*
X140495258Y-92122715D01*
X140536751Y-92103005D01*
X140591874Y-92104195D01*
X140647732Y-92128775D01*
X140694588Y-92169470D01*
X140722706Y-92219008D01*
X140726695Y-92244897D01*
X140896471Y-92244897D01*
X140883726Y-92178033D01*
X140841189Y-92083627D01*
X140780053Y-92009988D01*
X140702815Y-91959793D01*
X140611970Y-91935722D01*
X140510016Y-91940454D01*
X140510016Y-91940454D01*
G37*
X140510016Y-91940454D02*
X140467226Y-91950849D01*
X140385191Y-91988913D01*
X140315043Y-92047049D01*
X140266495Y-92116752D01*
X140259825Y-92132402D01*
X140250676Y-92173396D01*
X140244271Y-92234038D01*
X140242090Y-92295330D01*
X140242090Y-92411216D01*
X140484393Y-92411216D01*
X140584329Y-92411593D01*
X140654731Y-92413887D01*
X140699487Y-92419838D01*
X140722485Y-92431185D01*
X140727611Y-92449671D01*
X140718752Y-92477036D01*
X140702883Y-92509055D01*
X140658616Y-92562492D01*
X140597101Y-92589115D01*
X140521915Y-92588247D01*
X140436747Y-92559271D01*
X140363141Y-92523511D01*
X140302066Y-92571804D01*
X140240990Y-92620097D01*
X140298449Y-92673185D01*
X140375159Y-92723345D01*
X140469498Y-92753588D01*
X140570973Y-92762051D01*
X140669089Y-92746874D01*
X140684919Y-92741724D01*
X140771153Y-92696691D01*
X140835299Y-92629552D01*
X140878709Y-92538305D01*
X140902736Y-92420944D01*
X140903016Y-92418429D01*
X140905167Y-92290527D01*
X140896471Y-92244897D01*
X140726695Y-92244897D01*
X140711103Y-92251913D01*
X140668771Y-92257288D01*
X140606366Y-92260357D01*
X140566819Y-92260821D01*
X140493072Y-92260530D01*
X140446960Y-92258683D01*
X140422700Y-92253812D01*
X140414506Y-92244455D01*
X140416594Y-92229145D01*
X140418345Y-92223222D01*
X140448240Y-92167568D01*
X140495258Y-92122715D01*
X140536751Y-92103005D01*
X140591874Y-92104195D01*
X140647732Y-92128775D01*
X140694588Y-92169470D01*
X140722706Y-92219008D01*
X140726695Y-92244897D01*
X140896471Y-92244897D01*
X140883726Y-92178033D01*
X140841189Y-92083627D01*
X140780053Y-92009988D01*
X140702815Y-91959793D01*
X140611970Y-91935722D01*
X140510016Y-91940454D01*
G36*
X145070843Y-91957126D02*
G01*
X145029254Y-91976990D01*
X144988975Y-92005684D01*
X144958290Y-92038709D01*
X144935939Y-92080831D01*
X144920664Y-92136815D01*
X144911208Y-92211428D01*
X144906313Y-92309435D01*
X144904719Y-92435602D01*
X144904694Y-92448814D01*
X144904327Y-92745426D01*
X145088143Y-92745426D01*
X145088143Y-92471981D01*
X145088273Y-92370677D01*
X145089179Y-92297253D01*
X145091627Y-92246171D01*
X145096386Y-92211890D01*
X145104226Y-92188871D01*
X145115915Y-92171573D01*
X145132198Y-92154481D01*
X145189166Y-92117757D01*
X145251355Y-92110942D01*
X145310601Y-92134161D01*
X145331205Y-92151443D01*
X145346330Y-92167691D01*
X145357190Y-92185091D01*
X145364490Y-92209112D01*
X145368937Y-92245222D01*
X145371236Y-92298888D01*
X145372096Y-92375580D01*
X145372222Y-92468943D01*
X145372222Y-92745426D01*
X145556037Y-92745426D01*
X145556037Y-91943321D01*
X145464129Y-91943321D01*
X145408949Y-91945503D01*
X145380480Y-91953251D01*
X145372225Y-91968368D01*
X145372222Y-91968816D01*
X145368392Y-91983620D01*
X145351499Y-91981940D01*
X145317912Y-91965673D01*
X145241737Y-91941740D01*
X145154600Y-91939078D01*
X145070843Y-91957126D01*
X145070843Y-91957126D01*
G37*
X145070843Y-91957126D02*
X145029254Y-91976990D01*
X144988975Y-92005684D01*
X144958290Y-92038709D01*
X144935939Y-92080831D01*
X144920664Y-92136815D01*
X144911208Y-92211428D01*
X144906313Y-92309435D01*
X144904719Y-92435602D01*
X144904694Y-92448814D01*
X144904327Y-92745426D01*
X145088143Y-92745426D01*
X145088143Y-92471981D01*
X145088273Y-92370677D01*
X145089179Y-92297253D01*
X145091627Y-92246171D01*
X145096386Y-92211890D01*
X145104226Y-92188871D01*
X145115915Y-92171573D01*
X145132198Y-92154481D01*
X145189166Y-92117757D01*
X145251355Y-92110942D01*
X145310601Y-92134161D01*
X145331205Y-92151443D01*
X145346330Y-92167691D01*
X145357190Y-92185091D01*
X145364490Y-92209112D01*
X145368937Y-92245222D01*
X145371236Y-92298888D01*
X145372096Y-92375580D01*
X145372222Y-92468943D01*
X145372222Y-92745426D01*
X145556037Y-92745426D01*
X145556037Y-91943321D01*
X145464129Y-91943321D01*
X145408949Y-91945503D01*
X145380480Y-91953251D01*
X145372225Y-91968368D01*
X145372222Y-91968816D01*
X145368392Y-91983620D01*
X145351499Y-91981940D01*
X145317912Y-91965673D01*
X145241737Y-91941740D01*
X145154600Y-91939078D01*
X145070843Y-91957126D01*
G36*
X141677412Y-91942545D02*
G01*
X141619935Y-91960106D01*
X141582928Y-91982295D01*
X141570873Y-91999842D01*
X141574191Y-92020642D01*
X141595721Y-92053319D01*
X141613926Y-92076462D01*
X141651456Y-92118302D01*
X141679652Y-92135905D01*
X141703689Y-92134756D01*
X141774992Y-92116610D01*
X141827358Y-92117434D01*
X141869882Y-92137998D01*
X141884158Y-92150034D01*
X141929853Y-92192383D01*
X141929853Y-92745426D01*
X142113669Y-92745426D01*
X142113669Y-91943321D01*
X142021761Y-91943321D01*
X141966581Y-91945503D01*
X141938112Y-91953251D01*
X141929857Y-91968368D01*
X141929853Y-91968816D01*
X141925955Y-91984649D01*
X141908326Y-91982584D01*
X141883899Y-91971161D01*
X141833450Y-91949905D01*
X141792484Y-91937116D01*
X141739772Y-91933838D01*
X141677412Y-91942545D01*
X141677412Y-91942545D01*
G37*
X141677412Y-91942545D02*
X141619935Y-91960106D01*
X141582928Y-91982295D01*
X141570873Y-91999842D01*
X141574191Y-92020642D01*
X141595721Y-92053319D01*
X141613926Y-92076462D01*
X141651456Y-92118302D01*
X141679652Y-92135905D01*
X141703689Y-92134756D01*
X141774992Y-92116610D01*
X141827358Y-92117434D01*
X141869882Y-92137998D01*
X141884158Y-92150034D01*
X141929853Y-92192383D01*
X141929853Y-92745426D01*
X142113669Y-92745426D01*
X142113669Y-91943321D01*
X142021761Y-91943321D01*
X141966581Y-91945503D01*
X141938112Y-91953251D01*
X141929857Y-91968368D01*
X141929853Y-91968816D01*
X141925955Y-91984649D01*
X141908326Y-91982584D01*
X141883899Y-91971161D01*
X141833450Y-91949905D01*
X141792484Y-91937116D01*
X141739772Y-91933838D01*
X141677412Y-91942545D01*
G36*
X143567836Y-86403476D02*
G01*
X143492287Y-86804222D01*
X142934759Y-87034054D01*
X142600335Y-86806648D01*
X142506678Y-86743331D01*
X142422018Y-86686796D01*
X142350305Y-86639627D01*
X142295489Y-86604402D01*
X142261520Y-86583705D01*
X142252270Y-86579242D01*
X142235605Y-86590720D01*
X142199994Y-86622451D01*
X142149429Y-86670383D01*
X142087900Y-86730462D01*
X142019401Y-86798633D01*
X141947921Y-86870845D01*
X141877453Y-86943042D01*
X141811989Y-87011173D01*
X141755520Y-87071183D01*
X141712037Y-87119019D01*
X141685532Y-87150627D01*
X141679195Y-87161205D01*
X141688314Y-87180706D01*
X141713880Y-87223431D01*
X141753203Y-87285198D01*
X141803597Y-87361831D01*
X141862373Y-87449148D01*
X141896432Y-87498952D01*
X141958511Y-87589893D01*
X142013674Y-87671959D01*
X142059246Y-87741063D01*
X142092550Y-87793122D01*
X142110910Y-87824050D01*
X142113669Y-87830550D01*
X142107415Y-87849021D01*
X142090366Y-87892072D01*
X142065097Y-87953649D01*
X142034178Y-88027699D01*
X142000182Y-88108170D01*
X141965682Y-88189007D01*
X141933249Y-88264158D01*
X141905457Y-88327571D01*
X141884877Y-88373193D01*
X141874081Y-88394969D01*
X141873444Y-88395826D01*
X141856493Y-88399984D01*
X141811349Y-88409261D01*
X141742690Y-88422744D01*
X141655198Y-88439521D01*
X141553550Y-88458681D01*
X141494244Y-88469730D01*
X141385628Y-88490410D01*
X141287523Y-88510089D01*
X141204891Y-88527689D01*
X141142696Y-88542133D01*
X141105901Y-88552346D01*
X141098504Y-88555586D01*
X141091260Y-88577517D01*
X141085415Y-88627047D01*
X141080965Y-88698385D01*
X141077907Y-88785739D01*
X141076235Y-88883317D01*
X141075947Y-88985326D01*
X141077039Y-89085975D01*
X141079506Y-89179472D01*
X141083344Y-89260025D01*
X141088550Y-89321842D01*
X141095119Y-89359130D01*
X141099059Y-89366893D01*
X141122612Y-89376198D01*
X141172518Y-89389500D01*
X141242177Y-89405237D01*
X141324987Y-89421846D01*
X141353895Y-89427219D01*
X141493269Y-89452748D01*
X141603364Y-89473308D01*
X141687818Y-89489715D01*
X141750270Y-89502787D01*
X141794356Y-89513341D01*
X141823715Y-89522194D01*
X141841985Y-89530163D01*
X141852802Y-89538065D01*
X141854315Y-89539627D01*
X141869423Y-89564786D01*
X141892471Y-89613750D01*
X141921156Y-89680521D01*
X141953178Y-89759105D01*
X141986235Y-89843507D01*
X142018027Y-89927730D01*
X142046251Y-90005779D01*
X142068607Y-90071659D01*
X142082793Y-90119373D01*
X142086507Y-90142927D01*
X142086198Y-90143752D01*
X142073611Y-90163004D01*
X142045056Y-90205363D01*
X142003533Y-90266421D01*
X141952044Y-90341768D01*
X141893589Y-90426996D01*
X141876942Y-90451215D01*
X141817585Y-90539023D01*
X141765353Y-90619138D01*
X141723092Y-90686962D01*
X141693647Y-90737893D01*
X141679863Y-90767331D01*
X141679195Y-90770948D01*
X141690776Y-90789957D01*
X141722776Y-90827614D01*
X141771082Y-90879873D01*
X141831580Y-90942686D01*
X141900156Y-91012006D01*
X141972696Y-91083785D01*
X142045088Y-91153977D01*
X142113216Y-91218535D01*
X142172968Y-91273410D01*
X142220229Y-91314556D01*
X142250887Y-91337926D01*
X142259368Y-91341742D01*
X142279109Y-91332755D01*
X142319526Y-91308516D01*
X142374037Y-91273109D01*
X142415977Y-91244611D01*
X142491971Y-91192318D01*
X142581966Y-91130745D01*
X142672236Y-91069270D01*
X142720768Y-91036369D01*
X142885038Y-90925259D01*
X143022931Y-90999816D01*
X143085751Y-91032478D01*
X143139171Y-91057866D01*
X143175316Y-91072346D01*
X143184516Y-91074360D01*
X143195579Y-91059484D01*
X143217406Y-91017447D01*
X143248366Y-90952127D01*
X143286830Y-90867400D01*
X143331168Y-90767145D01*
X143379753Y-90655239D01*
X143430954Y-90535559D01*
X143483141Y-90411984D01*
X143534687Y-90288391D01*
X143583960Y-90168657D01*
X143629333Y-90056659D01*
X143669175Y-89956277D01*
X143701858Y-89871386D01*
X143725751Y-89805865D01*
X143739226Y-89763590D01*
X143741394Y-89749072D01*
X143724217Y-89730553D01*
X143686610Y-89700490D01*
X143636434Y-89665132D01*
X143632222Y-89662334D01*
X143502536Y-89558525D01*
X143397966Y-89437415D01*
X143319419Y-89302876D01*
X143267801Y-89158782D01*
X143244018Y-89009005D01*
X143248977Y-88857417D01*
X143283583Y-88707892D01*
X143348743Y-88564300D01*
X143367914Y-88532884D01*
X143467626Y-88406025D01*
X143585423Y-88304155D01*
X143717229Y-88227804D01*
X143858967Y-88177502D01*
X144006558Y-88153779D01*
X144155927Y-88157165D01*
X144302997Y-88188188D01*
X144443689Y-88247380D01*
X144573927Y-88335269D01*
X144614214Y-88370942D01*
X144716745Y-88482606D01*
X144791459Y-88600157D01*
X144842710Y-88731920D01*
X144871254Y-88862407D01*
X144878300Y-89009116D01*
X144854804Y-89156553D01*
X144803151Y-89299734D01*
X144725729Y-89433677D01*
X144624925Y-89553398D01*
X144503124Y-89653914D01*
X144487116Y-89664509D01*
X144436402Y-89699206D01*
X144397850Y-89729270D01*
X144379419Y-89748465D01*
X144379151Y-89749072D01*
X144383108Y-89769836D01*
X144398793Y-89816962D01*
X144424578Y-89886573D01*
X144458831Y-89974793D01*
X144499923Y-90077744D01*
X144546224Y-90191550D01*
X144596104Y-90312335D01*
X144647933Y-90436221D01*
X144700081Y-90559332D01*
X144750918Y-90677791D01*
X144798813Y-90787723D01*
X144842138Y-90885249D01*
X144879262Y-90966493D01*
X144908556Y-91027579D01*
X144928388Y-91064630D01*
X144936374Y-91074360D01*
X144960779Y-91066783D01*
X145006442Y-91046460D01*
X145065490Y-91017025D01*
X145097960Y-90999816D01*
X145235853Y-90925259D01*
X145400123Y-91036369D01*
X145483979Y-91093290D01*
X145575787Y-91155930D01*
X145661820Y-91214911D01*
X145704913Y-91244611D01*
X145765523Y-91285310D01*
X145816845Y-91317563D01*
X145852185Y-91337284D01*
X145863663Y-91341454D01*
X145880370Y-91330207D01*
X145917346Y-91298811D01*
X145971005Y-91250524D01*
X146037762Y-91188608D01*
X146114034Y-91116321D01*
X146162273Y-91069908D01*
X146246667Y-90986987D01*
X146319603Y-90912820D01*
X146378131Y-90850580D01*
X146419303Y-90803441D01*
X146440172Y-90774573D01*
X146442174Y-90768715D01*
X146432883Y-90746432D01*
X146407209Y-90701377D01*
X146368000Y-90638111D01*
X146318103Y-90561195D01*
X146260367Y-90475192D01*
X146243949Y-90451215D01*
X146184123Y-90364070D01*
X146130450Y-90285610D01*
X146085930Y-90220245D01*
X146053565Y-90172384D01*
X146036355Y-90146435D01*
X146034693Y-90143752D01*
X146037179Y-90123072D01*
X146050377Y-90077604D01*
X146071986Y-90013344D01*
X146099704Y-89936287D01*
X146131230Y-89852429D01*
X146164263Y-89767766D01*
X146196501Y-89688292D01*
X146225643Y-89620004D01*
X146249388Y-89568897D01*
X146265435Y-89540967D01*
X146266575Y-89539627D01*
X146276388Y-89531645D01*
X146292961Y-89523751D01*
X146319932Y-89515129D01*
X146360939Y-89504962D01*
X146419620Y-89492431D01*
X146499613Y-89476721D01*
X146604555Y-89457013D01*
X146738085Y-89432492D01*
X146766996Y-89427219D01*
X146852682Y-89410664D01*
X146927382Y-89394469D01*
X146984494Y-89380196D01*
X147017417Y-89369408D01*
X147021831Y-89366893D01*
X147029106Y-89344596D01*
X147035019Y-89294769D01*
X147039566Y-89223204D01*
X147042745Y-89135693D01*
X147044549Y-89038028D01*
X147044977Y-88936001D01*
X147044023Y-88835403D01*
X147041684Y-88742027D01*
X147037956Y-88661665D01*
X147032834Y-88600109D01*
X147026316Y-88563150D01*
X147022386Y-88555586D01*
X147000508Y-88547956D01*
X146950691Y-88535542D01*
X146877897Y-88519422D01*
X146787089Y-88500673D01*
X146683231Y-88480371D01*
X146626646Y-88469730D01*
X146519286Y-88449660D01*
X146423546Y-88431480D01*
X146344106Y-88416099D01*
X146285646Y-88404431D01*
X146252845Y-88397388D01*
X146247446Y-88395826D01*
X146238322Y-88378222D01*
X146219035Y-88335818D01*
X146192155Y-88274672D01*
X146160254Y-88200843D01*
X146125902Y-88120389D01*
X146091671Y-88039368D01*
X146060131Y-87963837D01*
X146033854Y-87899855D01*
X146015411Y-87853480D01*
X146007371Y-87830769D01*
X146007222Y-87829776D01*
X146016335Y-87811861D01*
X146041886Y-87770633D01*
X146081188Y-87710191D01*
X146131557Y-87634631D01*
X146190306Y-87548052D01*
X146224458Y-87498321D01*
X146286690Y-87407136D01*
X146341964Y-87324349D01*
X146387582Y-87254149D01*
X146420848Y-87200724D01*
X146439064Y-87168261D01*
X146441695Y-87160983D01*
X146430386Y-87144045D01*
X146399119Y-87107878D01*
X146351890Y-87056535D01*
X146292692Y-86994067D01*
X146225519Y-86924526D01*
X146154366Y-86851965D01*
X146083226Y-86780435D01*
X146016093Y-86713987D01*
X145956961Y-86656674D01*
X145909825Y-86612547D01*
X145878677Y-86585659D01*
X145868257Y-86579242D01*
X145851291Y-86588265D01*
X145810711Y-86613615D01*
X145750463Y-86652710D01*
X145674493Y-86702971D01*
X145586746Y-86761817D01*
X145520556Y-86806648D01*
X145186132Y-87034054D01*
X144907367Y-86919138D01*
X144628603Y-86804222D01*
X144553054Y-86403476D01*
X144477506Y-86002729D01*
X143643385Y-86002729D01*
X143567836Y-86403476D01*
X143567836Y-86403476D01*
G37*
X143567836Y-86403476D02*
X143492287Y-86804222D01*
X142934759Y-87034054D01*
X142600335Y-86806648D01*
X142506678Y-86743331D01*
X142422018Y-86686796D01*
X142350305Y-86639627D01*
X142295489Y-86604402D01*
X142261520Y-86583705D01*
X142252270Y-86579242D01*
X142235605Y-86590720D01*
X142199994Y-86622451D01*
X142149429Y-86670383D01*
X142087900Y-86730462D01*
X142019401Y-86798633D01*
X141947921Y-86870845D01*
X141877453Y-86943042D01*
X141811989Y-87011173D01*
X141755520Y-87071183D01*
X141712037Y-87119019D01*
X141685532Y-87150627D01*
X141679195Y-87161205D01*
X141688314Y-87180706D01*
X141713880Y-87223431D01*
X141753203Y-87285198D01*
X141803597Y-87361831D01*
X141862373Y-87449148D01*
X141896432Y-87498952D01*
X141958511Y-87589893D01*
X142013674Y-87671959D01*
X142059246Y-87741063D01*
X142092550Y-87793122D01*
X142110910Y-87824050D01*
X142113669Y-87830550D01*
X142107415Y-87849021D01*
X142090366Y-87892072D01*
X142065097Y-87953649D01*
X142034178Y-88027699D01*
X142000182Y-88108170D01*
X141965682Y-88189007D01*
X141933249Y-88264158D01*
X141905457Y-88327571D01*
X141884877Y-88373193D01*
X141874081Y-88394969D01*
X141873444Y-88395826D01*
X141856493Y-88399984D01*
X141811349Y-88409261D01*
X141742690Y-88422744D01*
X141655198Y-88439521D01*
X141553550Y-88458681D01*
X141494244Y-88469730D01*
X141385628Y-88490410D01*
X141287523Y-88510089D01*
X141204891Y-88527689D01*
X141142696Y-88542133D01*
X141105901Y-88552346D01*
X141098504Y-88555586D01*
X141091260Y-88577517D01*
X141085415Y-88627047D01*
X141080965Y-88698385D01*
X141077907Y-88785739D01*
X141076235Y-88883317D01*
X141075947Y-88985326D01*
X141077039Y-89085975D01*
X141079506Y-89179472D01*
X141083344Y-89260025D01*
X141088550Y-89321842D01*
X141095119Y-89359130D01*
X141099059Y-89366893D01*
X141122612Y-89376198D01*
X141172518Y-89389500D01*
X141242177Y-89405237D01*
X141324987Y-89421846D01*
X141353895Y-89427219D01*
X141493269Y-89452748D01*
X141603364Y-89473308D01*
X141687818Y-89489715D01*
X141750270Y-89502787D01*
X141794356Y-89513341D01*
X141823715Y-89522194D01*
X141841985Y-89530163D01*
X141852802Y-89538065D01*
X141854315Y-89539627D01*
X141869423Y-89564786D01*
X141892471Y-89613750D01*
X141921156Y-89680521D01*
X141953178Y-89759105D01*
X141986235Y-89843507D01*
X142018027Y-89927730D01*
X142046251Y-90005779D01*
X142068607Y-90071659D01*
X142082793Y-90119373D01*
X142086507Y-90142927D01*
X142086198Y-90143752D01*
X142073611Y-90163004D01*
X142045056Y-90205363D01*
X142003533Y-90266421D01*
X141952044Y-90341768D01*
X141893589Y-90426996D01*
X141876942Y-90451215D01*
X141817585Y-90539023D01*
X141765353Y-90619138D01*
X141723092Y-90686962D01*
X141693647Y-90737893D01*
X141679863Y-90767331D01*
X141679195Y-90770948D01*
X141690776Y-90789957D01*
X141722776Y-90827614D01*
X141771082Y-90879873D01*
X141831580Y-90942686D01*
X141900156Y-91012006D01*
X141972696Y-91083785D01*
X142045088Y-91153977D01*
X142113216Y-91218535D01*
X142172968Y-91273410D01*
X142220229Y-91314556D01*
X142250887Y-91337926D01*
X142259368Y-91341742D01*
X142279109Y-91332755D01*
X142319526Y-91308516D01*
X142374037Y-91273109D01*
X142415977Y-91244611D01*
X142491971Y-91192318D01*
X142581966Y-91130745D01*
X142672236Y-91069270D01*
X142720768Y-91036369D01*
X142885038Y-90925259D01*
X143022931Y-90999816D01*
X143085751Y-91032478D01*
X143139171Y-91057866D01*
X143175316Y-91072346D01*
X143184516Y-91074360D01*
X143195579Y-91059484D01*
X143217406Y-91017447D01*
X143248366Y-90952127D01*
X143286830Y-90867400D01*
X143331168Y-90767145D01*
X143379753Y-90655239D01*
X143430954Y-90535559D01*
X143483141Y-90411984D01*
X143534687Y-90288391D01*
X143583960Y-90168657D01*
X143629333Y-90056659D01*
X143669175Y-89956277D01*
X143701858Y-89871386D01*
X143725751Y-89805865D01*
X143739226Y-89763590D01*
X143741394Y-89749072D01*
X143724217Y-89730553D01*
X143686610Y-89700490D01*
X143636434Y-89665132D01*
X143632222Y-89662334D01*
X143502536Y-89558525D01*
X143397966Y-89437415D01*
X143319419Y-89302876D01*
X143267801Y-89158782D01*
X143244018Y-89009005D01*
X143248977Y-88857417D01*
X143283583Y-88707892D01*
X143348743Y-88564300D01*
X143367914Y-88532884D01*
X143467626Y-88406025D01*
X143585423Y-88304155D01*
X143717229Y-88227804D01*
X143858967Y-88177502D01*
X144006558Y-88153779D01*
X144155927Y-88157165D01*
X144302997Y-88188188D01*
X144443689Y-88247380D01*
X144573927Y-88335269D01*
X144614214Y-88370942D01*
X144716745Y-88482606D01*
X144791459Y-88600157D01*
X144842710Y-88731920D01*
X144871254Y-88862407D01*
X144878300Y-89009116D01*
X144854804Y-89156553D01*
X144803151Y-89299734D01*
X144725729Y-89433677D01*
X144624925Y-89553398D01*
X144503124Y-89653914D01*
X144487116Y-89664509D01*
X144436402Y-89699206D01*
X144397850Y-89729270D01*
X144379419Y-89748465D01*
X144379151Y-89749072D01*
X144383108Y-89769836D01*
X144398793Y-89816962D01*
X144424578Y-89886573D01*
X144458831Y-89974793D01*
X144499923Y-90077744D01*
X144546224Y-90191550D01*
X144596104Y-90312335D01*
X144647933Y-90436221D01*
X144700081Y-90559332D01*
X144750918Y-90677791D01*
X144798813Y-90787723D01*
X144842138Y-90885249D01*
X144879262Y-90966493D01*
X144908556Y-91027579D01*
X144928388Y-91064630D01*
X144936374Y-91074360D01*
X144960779Y-91066783D01*
X145006442Y-91046460D01*
X145065490Y-91017025D01*
X145097960Y-90999816D01*
X145235853Y-90925259D01*
X145400123Y-91036369D01*
X145483979Y-91093290D01*
X145575787Y-91155930D01*
X145661820Y-91214911D01*
X145704913Y-91244611D01*
X145765523Y-91285310D01*
X145816845Y-91317563D01*
X145852185Y-91337284D01*
X145863663Y-91341454D01*
X145880370Y-91330207D01*
X145917346Y-91298811D01*
X145971005Y-91250524D01*
X146037762Y-91188608D01*
X146114034Y-91116321D01*
X146162273Y-91069908D01*
X146246667Y-90986987D01*
X146319603Y-90912820D01*
X146378131Y-90850580D01*
X146419303Y-90803441D01*
X146440172Y-90774573D01*
X146442174Y-90768715D01*
X146432883Y-90746432D01*
X146407209Y-90701377D01*
X146368000Y-90638111D01*
X146318103Y-90561195D01*
X146260367Y-90475192D01*
X146243949Y-90451215D01*
X146184123Y-90364070D01*
X146130450Y-90285610D01*
X146085930Y-90220245D01*
X146053565Y-90172384D01*
X146036355Y-90146435D01*
X146034693Y-90143752D01*
X146037179Y-90123072D01*
X146050377Y-90077604D01*
X146071986Y-90013344D01*
X146099704Y-89936287D01*
X146131230Y-89852429D01*
X146164263Y-89767766D01*
X146196501Y-89688292D01*
X146225643Y-89620004D01*
X146249388Y-89568897D01*
X146265435Y-89540967D01*
X146266575Y-89539627D01*
X146276388Y-89531645D01*
X146292961Y-89523751D01*
X146319932Y-89515129D01*
X146360939Y-89504962D01*
X146419620Y-89492431D01*
X146499613Y-89476721D01*
X146604555Y-89457013D01*
X146738085Y-89432492D01*
X146766996Y-89427219D01*
X146852682Y-89410664D01*
X146927382Y-89394469D01*
X146984494Y-89380196D01*
X147017417Y-89369408D01*
X147021831Y-89366893D01*
X147029106Y-89344596D01*
X147035019Y-89294769D01*
X147039566Y-89223204D01*
X147042745Y-89135693D01*
X147044549Y-89038028D01*
X147044977Y-88936001D01*
X147044023Y-88835403D01*
X147041684Y-88742027D01*
X147037956Y-88661665D01*
X147032834Y-88600109D01*
X147026316Y-88563150D01*
X147022386Y-88555586D01*
X147000508Y-88547956D01*
X146950691Y-88535542D01*
X146877897Y-88519422D01*
X146787089Y-88500673D01*
X146683231Y-88480371D01*
X146626646Y-88469730D01*
X146519286Y-88449660D01*
X146423546Y-88431480D01*
X146344106Y-88416099D01*
X146285646Y-88404431D01*
X146252845Y-88397388D01*
X146247446Y-88395826D01*
X146238322Y-88378222D01*
X146219035Y-88335818D01*
X146192155Y-88274672D01*
X146160254Y-88200843D01*
X146125902Y-88120389D01*
X146091671Y-88039368D01*
X146060131Y-87963837D01*
X146033854Y-87899855D01*
X146015411Y-87853480D01*
X146007371Y-87830769D01*
X146007222Y-87829776D01*
X146016335Y-87811861D01*
X146041886Y-87770633D01*
X146081188Y-87710191D01*
X146131557Y-87634631D01*
X146190306Y-87548052D01*
X146224458Y-87498321D01*
X146286690Y-87407136D01*
X146341964Y-87324349D01*
X146387582Y-87254149D01*
X146420848Y-87200724D01*
X146439064Y-87168261D01*
X146441695Y-87160983D01*
X146430386Y-87144045D01*
X146399119Y-87107878D01*
X146351890Y-87056535D01*
X146292692Y-86994067D01*
X146225519Y-86924526D01*
X146154366Y-86851965D01*
X146083226Y-86780435D01*
X146016093Y-86713987D01*
X145956961Y-86656674D01*
X145909825Y-86612547D01*
X145878677Y-86585659D01*
X145868257Y-86579242D01*
X145851291Y-86588265D01*
X145810711Y-86613615D01*
X145750463Y-86652710D01*
X145674493Y-86702971D01*
X145586746Y-86761817D01*
X145520556Y-86806648D01*
X145186132Y-87034054D01*
X144907367Y-86919138D01*
X144628603Y-86804222D01*
X144553054Y-86403476D01*
X144477506Y-86002729D01*
X143643385Y-86002729D01*
X143567836Y-86403476D01*
D13*
X138200000Y-67340000D02*
X138200000Y-65850000D01*
X138200000Y-65850000D02*
X139540000Y-65850000D01*
X138200000Y-82660000D02*
X138200000Y-84150000D01*
X138200000Y-84150000D02*
X139540000Y-84150000D01*
X142260000Y-65850000D02*
X144000000Y-65850000D01*
X144000000Y-65850000D02*
X144000000Y-84150000D01*
X144000000Y-84150000D02*
X142260000Y-84150000D01*
X138200000Y-67340000D02*
X137000000Y-67340000D01*
M02*
