G04 #@! TF.GenerationSoftware,KiCad,Pcbnew,5.0.2-bee76a0~70~ubuntu18.04.1*
G04 #@! TF.CreationDate,2019-06-01T14:58:20+09:00*
G04 #@! TF.ProjectId,top_pcb,746f705f-7063-4622-9e6b-696361645f70,rev?*
G04 #@! TF.SameCoordinates,Original*
G04 #@! TF.FileFunction,Legend,Bot*
G04 #@! TF.FilePolarity,Positive*
%FSLAX46Y46*%
G04 Gerber Fmt 4.6, Leading zero omitted, Abs format (unit mm)*
G04 Created by KiCad (PCBNEW 5.0.2-bee76a0~70~ubuntu18.04.1) date 2019年06月01日 14時58分20秒*
%MOMM*%
%LPD*%
G01*
G04 APERTURE LIST*
%ADD10C,0.200000*%
%ADD11C,0.250000*%
%ADD12C,0.175000*%
%ADD13C,0.120000*%
G04 APERTURE END LIST*
D10*
X135915400Y-86715600D02*
X135915400Y-93878400D01*
X135902700Y-63347600D02*
X135940800Y-56413400D01*
D11*
X139905738Y-98178880D02*
X139905738Y-97178880D01*
X139572404Y-97893166D01*
X139239071Y-97178880D01*
X139239071Y-98178880D01*
X138286690Y-97178880D02*
X138762880Y-97178880D01*
X138810500Y-97655071D01*
X138762880Y-97607452D01*
X138667642Y-97559833D01*
X138429547Y-97559833D01*
X138334309Y-97607452D01*
X138286690Y-97655071D01*
X138239071Y-97750309D01*
X138239071Y-97988404D01*
X138286690Y-98083642D01*
X138334309Y-98131261D01*
X138429547Y-98178880D01*
X138667642Y-98178880D01*
X138762880Y-98131261D01*
X138810500Y-98083642D01*
X137858119Y-98131261D02*
X137715261Y-98178880D01*
X137477166Y-98178880D01*
X137381928Y-98131261D01*
X137334309Y-98083642D01*
X137286690Y-97988404D01*
X137286690Y-97893166D01*
X137334309Y-97797928D01*
X137381928Y-97750309D01*
X137477166Y-97702690D01*
X137667642Y-97655071D01*
X137762880Y-97607452D01*
X137810500Y-97559833D01*
X137858119Y-97464595D01*
X137858119Y-97369357D01*
X137810500Y-97274119D01*
X137762880Y-97226500D01*
X137667642Y-97178880D01*
X137429547Y-97178880D01*
X137286690Y-97226500D01*
X137000976Y-97512214D02*
X136620023Y-97512214D01*
X136858119Y-97178880D02*
X136858119Y-98036023D01*
X136810500Y-98131261D01*
X136715261Y-98178880D01*
X136620023Y-98178880D01*
X135858119Y-98178880D02*
X135858119Y-97655071D01*
X135905738Y-97559833D01*
X136000976Y-97512214D01*
X136191452Y-97512214D01*
X136286690Y-97559833D01*
X135858119Y-98131261D02*
X135953357Y-98178880D01*
X136191452Y-98178880D01*
X136286690Y-98131261D01*
X136334309Y-98036023D01*
X136334309Y-97940785D01*
X136286690Y-97845547D01*
X136191452Y-97797928D01*
X135953357Y-97797928D01*
X135858119Y-97750309D01*
X134953357Y-98131261D02*
X135048595Y-98178880D01*
X135239071Y-98178880D01*
X135334309Y-98131261D01*
X135381928Y-98083642D01*
X135429547Y-97988404D01*
X135429547Y-97702690D01*
X135381928Y-97607452D01*
X135334309Y-97559833D01*
X135239071Y-97512214D01*
X135048595Y-97512214D01*
X134953357Y-97559833D01*
X134524785Y-98178880D02*
X134524785Y-97178880D01*
X134429547Y-97797928D02*
X134143833Y-98178880D01*
X134143833Y-97512214D02*
X134524785Y-97893166D01*
X133143833Y-98083642D02*
X133191452Y-98131261D01*
X133334309Y-98178880D01*
X133429547Y-98178880D01*
X133572404Y-98131261D01*
X133667642Y-98036023D01*
X133715261Y-97940785D01*
X133762880Y-97750309D01*
X133762880Y-97607452D01*
X133715261Y-97416976D01*
X133667642Y-97321738D01*
X133572404Y-97226500D01*
X133429547Y-97178880D01*
X133334309Y-97178880D01*
X133191452Y-97226500D01*
X133143833Y-97274119D01*
X132286690Y-98178880D02*
X132286690Y-97655071D01*
X132334309Y-97559833D01*
X132429547Y-97512214D01*
X132620023Y-97512214D01*
X132715261Y-97559833D01*
X132286690Y-98131261D02*
X132381928Y-98178880D01*
X132620023Y-98178880D01*
X132715261Y-98131261D01*
X132762880Y-98036023D01*
X132762880Y-97940785D01*
X132715261Y-97845547D01*
X132620023Y-97797928D01*
X132381928Y-97797928D01*
X132286690Y-97750309D01*
X131905738Y-97512214D02*
X131667642Y-98178880D01*
X131429547Y-97512214D01*
X131048595Y-98178880D02*
X131048595Y-97512214D01*
X131048595Y-97178880D02*
X131096214Y-97226500D01*
X131048595Y-97274119D01*
X131000976Y-97226500D01*
X131048595Y-97178880D01*
X131048595Y-97274119D01*
X130715261Y-97512214D02*
X130334309Y-97512214D01*
X130572404Y-97178880D02*
X130572404Y-98036023D01*
X130524785Y-98131261D01*
X130429547Y-98178880D01*
X130334309Y-98178880D01*
X130096214Y-97512214D02*
X129858119Y-98178880D01*
X129620023Y-97512214D02*
X129858119Y-98178880D01*
X129953357Y-98416976D01*
X130000976Y-98464595D01*
X130096214Y-98512214D01*
X130481319Y-88337923D02*
X130481319Y-87718876D01*
X130100366Y-88052209D01*
X130100366Y-87909352D01*
X130052747Y-87814114D01*
X130005128Y-87766495D01*
X129909890Y-87718876D01*
X129671795Y-87718876D01*
X129576557Y-87766495D01*
X129528938Y-87814114D01*
X129481319Y-87909352D01*
X129481319Y-88195066D01*
X129528938Y-88290304D01*
X129576557Y-88337923D01*
X130147985Y-86861733D02*
X129481319Y-86861733D01*
X130528938Y-87099828D02*
X129814652Y-87337923D01*
X129814652Y-86718876D01*
X127931919Y-88014109D02*
X128931919Y-88014109D01*
X127931919Y-87537919D02*
X128931919Y-87537919D01*
X127931919Y-86966490D01*
X128931919Y-86966490D01*
X130532119Y-85036019D02*
X130532119Y-84940780D01*
X130484500Y-84845542D01*
X130436880Y-84797923D01*
X130341642Y-84750304D01*
X130151166Y-84702685D01*
X129913071Y-84702685D01*
X129722595Y-84750304D01*
X129627357Y-84797923D01*
X129579738Y-84845542D01*
X129532119Y-84940780D01*
X129532119Y-85036019D01*
X129579738Y-85131257D01*
X129627357Y-85178876D01*
X129722595Y-85226495D01*
X129913071Y-85274114D01*
X130151166Y-85274114D01*
X130341642Y-85226495D01*
X130436880Y-85178876D01*
X130484500Y-85131257D01*
X130532119Y-85036019D01*
X127931919Y-85796333D02*
X128931919Y-85796333D01*
X128217633Y-85463000D01*
X128931919Y-85129666D01*
X127931919Y-85129666D01*
X127931919Y-84653476D02*
X128931919Y-84653476D01*
X127931919Y-84082047D02*
X128503347Y-84510619D01*
X128931919Y-84082047D02*
X128360490Y-84653476D01*
D12*
X136536866Y-85045566D02*
X136536866Y-84645566D01*
X136536866Y-84845566D02*
X135836866Y-84845566D01*
X135936866Y-84778900D01*
X136003533Y-84712233D01*
X136036866Y-84645566D01*
X135836866Y-85678900D02*
X135836866Y-85345566D01*
X136170200Y-85312233D01*
X136136866Y-85345566D01*
X136103533Y-85412233D01*
X136103533Y-85578900D01*
X136136866Y-85645566D01*
X136170200Y-85678900D01*
X136236866Y-85712233D01*
X136403533Y-85712233D01*
X136470200Y-85678900D01*
X136503533Y-85645566D01*
X136536866Y-85578900D01*
X136536866Y-85412233D01*
X136503533Y-85345566D01*
X136470200Y-85312233D01*
X136536866Y-82467466D02*
X136536866Y-82067466D01*
X136536866Y-82267466D02*
X135836866Y-82267466D01*
X135936866Y-82200800D01*
X136003533Y-82134133D01*
X136036866Y-82067466D01*
X135903533Y-82734133D02*
X135870200Y-82767466D01*
X135836866Y-82834133D01*
X135836866Y-83000800D01*
X135870200Y-83067466D01*
X135903533Y-83100800D01*
X135970200Y-83134133D01*
X136036866Y-83134133D01*
X136136866Y-83100800D01*
X136536866Y-82700800D01*
X136536866Y-83134133D01*
D11*
X129557519Y-82727776D02*
X129557519Y-83299204D01*
X129557519Y-83013490D02*
X130557519Y-83013490D01*
X130414661Y-83108728D01*
X130319423Y-83203966D01*
X130271804Y-83299204D01*
X130557519Y-82394442D02*
X130557519Y-81775395D01*
X130176566Y-82108728D01*
X130176566Y-81965871D01*
X130128947Y-81870633D01*
X130081328Y-81823014D01*
X129986090Y-81775395D01*
X129747995Y-81775395D01*
X129652757Y-81823014D01*
X129605138Y-81870633D01*
X129557519Y-81965871D01*
X129557519Y-82251585D01*
X129605138Y-82346823D01*
X129652757Y-82394442D01*
X128906519Y-83442061D02*
X127906519Y-83203966D01*
X128620804Y-83013490D01*
X127906519Y-82823014D01*
X128906519Y-82584919D01*
X127954138Y-82251585D02*
X127906519Y-82108728D01*
X127906519Y-81870633D01*
X127954138Y-81775395D01*
X128001757Y-81727776D01*
X128096995Y-81680157D01*
X128192233Y-81680157D01*
X128287471Y-81727776D01*
X128335090Y-81775395D01*
X128382709Y-81870633D01*
X128430328Y-82061109D01*
X128477947Y-82156347D01*
X128525566Y-82203966D01*
X128620804Y-82251585D01*
X128716042Y-82251585D01*
X128811280Y-82203966D01*
X128858900Y-82156347D01*
X128906519Y-82061109D01*
X128906519Y-81823014D01*
X128858900Y-81680157D01*
X137282180Y-88058857D02*
X136282180Y-88058857D01*
X136758371Y-88058857D02*
X136758371Y-88630285D01*
X137282180Y-88630285D02*
X136282180Y-88630285D01*
X137282180Y-89106476D02*
X136282180Y-89106476D01*
X136282180Y-89487428D01*
X136329800Y-89582666D01*
X136377419Y-89630285D01*
X136472657Y-89677904D01*
X136615514Y-89677904D01*
X136710752Y-89630285D01*
X136758371Y-89582666D01*
X136805990Y-89487428D01*
X136805990Y-89106476D01*
X136282180Y-90011238D02*
X137282180Y-90249333D01*
X136567895Y-90439809D01*
X137282180Y-90630285D01*
X136282180Y-90868380D01*
X137282180Y-91820761D02*
X136805990Y-91487428D01*
X137282180Y-91249333D02*
X136282180Y-91249333D01*
X136282180Y-91630285D01*
X136329800Y-91725523D01*
X136377419Y-91773142D01*
X136472657Y-91820761D01*
X136615514Y-91820761D01*
X136710752Y-91773142D01*
X136758371Y-91725523D01*
X136805990Y-91630285D01*
X136805990Y-91249333D01*
X128957319Y-73177304D02*
X128957319Y-72605876D01*
X127957319Y-72891590D02*
X128957319Y-72891590D01*
X128957319Y-72082066D02*
X128957319Y-71986828D01*
X128909700Y-71891590D01*
X128862080Y-71843971D01*
X128766842Y-71796352D01*
X128576366Y-71748733D01*
X128338271Y-71748733D01*
X128147795Y-71796352D01*
X128052557Y-71843971D01*
X128004938Y-71891590D01*
X127957319Y-71986828D01*
X127957319Y-72082066D01*
X128004938Y-72177304D01*
X128052557Y-72224923D01*
X128147795Y-72272542D01*
X128338271Y-72320161D01*
X128576366Y-72320161D01*
X128766842Y-72272542D01*
X128862080Y-72224923D01*
X128909700Y-72177304D01*
X128957319Y-72082066D01*
X128906519Y-75653804D02*
X128906519Y-75082376D01*
X127906519Y-75368090D02*
X128906519Y-75368090D01*
X128811280Y-74796661D02*
X128858900Y-74749042D01*
X128906519Y-74653804D01*
X128906519Y-74415709D01*
X128858900Y-74320471D01*
X128811280Y-74272852D01*
X128716042Y-74225233D01*
X128620804Y-74225233D01*
X128477947Y-74272852D01*
X127906519Y-74844280D01*
X127906519Y-74225233D01*
X127957319Y-65562076D02*
X128957319Y-65562076D01*
X128957319Y-65323980D01*
X128909700Y-65181123D01*
X128814461Y-65085885D01*
X128719223Y-65038266D01*
X128528747Y-64990647D01*
X128385890Y-64990647D01*
X128195414Y-65038266D01*
X128100176Y-65085885D01*
X128004938Y-65181123D01*
X127957319Y-65323980D01*
X127957319Y-65562076D01*
X128243033Y-64609695D02*
X128243033Y-64133504D01*
X127957319Y-64704933D02*
X128957319Y-64371600D01*
X127957319Y-64038266D01*
X127881119Y-68076676D02*
X128881119Y-68076676D01*
X128881119Y-67838580D01*
X128833500Y-67695723D01*
X128738261Y-67600485D01*
X128643023Y-67552866D01*
X128452547Y-67505247D01*
X128309690Y-67505247D01*
X128119214Y-67552866D01*
X128023976Y-67600485D01*
X127928738Y-67695723D01*
X127881119Y-67838580D01*
X127881119Y-68076676D01*
X128166833Y-67124295D02*
X128166833Y-66648104D01*
X127881119Y-67219533D02*
X128881119Y-66886200D01*
X127881119Y-66552866D01*
X128281133Y-57989695D02*
X128281133Y-57513504D01*
X127995419Y-58084933D02*
X128995419Y-57751600D01*
X127995419Y-57418266D01*
X127995419Y-57084933D02*
X128995419Y-57084933D01*
X128995419Y-56846838D01*
X128947800Y-56703980D01*
X128852561Y-56608742D01*
X128757323Y-56561123D01*
X128566847Y-56513504D01*
X128423990Y-56513504D01*
X128233514Y-56561123D01*
X128138276Y-56608742D01*
X128043038Y-56703980D01*
X127995419Y-56846838D01*
X127995419Y-57084933D01*
X128217633Y-60301095D02*
X128217633Y-59824904D01*
X127931919Y-60396333D02*
X128931919Y-60063000D01*
X127931919Y-59729666D01*
X127931919Y-59396333D02*
X128931919Y-59396333D01*
X128931919Y-59158238D01*
X128884300Y-59015380D01*
X128789061Y-58920142D01*
X128693823Y-58872523D01*
X128503347Y-58824904D01*
X128360490Y-58824904D01*
X128170014Y-58872523D01*
X128074776Y-58920142D01*
X127979538Y-59015380D01*
X127931919Y-59158238D01*
X127931919Y-59396333D01*
D12*
X136676566Y-69754766D02*
X136676566Y-69354766D01*
X136676566Y-69554766D02*
X135976566Y-69554766D01*
X136076566Y-69488100D01*
X136143233Y-69421433D01*
X136176566Y-69354766D01*
X136276566Y-70154766D02*
X136243233Y-70088100D01*
X136209900Y-70054766D01*
X136143233Y-70021433D01*
X136109900Y-70021433D01*
X136043233Y-70054766D01*
X136009900Y-70088100D01*
X135976566Y-70154766D01*
X135976566Y-70288100D01*
X136009900Y-70354766D01*
X136043233Y-70388100D01*
X136109900Y-70421433D01*
X136143233Y-70421433D01*
X136209900Y-70388100D01*
X136243233Y-70354766D01*
X136276566Y-70288100D01*
X136276566Y-70154766D01*
X136309900Y-70088100D01*
X136343233Y-70054766D01*
X136409900Y-70021433D01*
X136543233Y-70021433D01*
X136609900Y-70054766D01*
X136643233Y-70088100D01*
X136676566Y-70154766D01*
X136676566Y-70288100D01*
X136643233Y-70354766D01*
X136609900Y-70388100D01*
X136543233Y-70421433D01*
X136409900Y-70421433D01*
X136343233Y-70388100D01*
X136309900Y-70354766D01*
X136276566Y-70288100D01*
X136625766Y-67290966D02*
X136625766Y-66890966D01*
X136625766Y-67090966D02*
X135925766Y-67090966D01*
X136025766Y-67024300D01*
X136092433Y-66957633D01*
X136125766Y-66890966D01*
X136625766Y-67624300D02*
X136625766Y-67757633D01*
X136592433Y-67824300D01*
X136559100Y-67857633D01*
X136459100Y-67924300D01*
X136325766Y-67957633D01*
X136059100Y-67957633D01*
X135992433Y-67924300D01*
X135959100Y-67890966D01*
X135925766Y-67824300D01*
X135925766Y-67690966D01*
X135959100Y-67624300D01*
X135992433Y-67590966D01*
X136059100Y-67557633D01*
X136225766Y-67557633D01*
X136292433Y-67590966D01*
X136325766Y-67624300D01*
X136359100Y-67690966D01*
X136359100Y-67824300D01*
X136325766Y-67890966D01*
X136292433Y-67924300D01*
X136225766Y-67957633D01*
X136017833Y-64376366D02*
X135984500Y-64409700D01*
X135951166Y-64476366D01*
X135951166Y-64643033D01*
X135984500Y-64709700D01*
X136017833Y-64743033D01*
X136084500Y-64776366D01*
X136151166Y-64776366D01*
X136251166Y-64743033D01*
X136651166Y-64343033D01*
X136651166Y-64776366D01*
X135951166Y-65009700D02*
X135951166Y-65443033D01*
X136217833Y-65209700D01*
X136217833Y-65309700D01*
X136251166Y-65376366D01*
X136284500Y-65409700D01*
X136351166Y-65443033D01*
X136517833Y-65443033D01*
X136584500Y-65409700D01*
X136617833Y-65376366D01*
X136651166Y-65309700D01*
X136651166Y-65109700D01*
X136617833Y-65043033D01*
X136584500Y-65009700D01*
D11*
X128685883Y-78559903D02*
X128551196Y-78492560D01*
X128382838Y-78324201D01*
X128349166Y-78223186D01*
X128349166Y-78155842D01*
X128382838Y-78054827D01*
X128450181Y-77987483D01*
X128551196Y-77953812D01*
X128618540Y-77953812D01*
X128719555Y-77987483D01*
X128887914Y-78088499D01*
X128988929Y-78122170D01*
X129056273Y-78122170D01*
X129157288Y-78088499D01*
X129224631Y-78021155D01*
X129258303Y-77920140D01*
X129258303Y-77852796D01*
X129224631Y-77751781D01*
X129056273Y-77583422D01*
X128921586Y-77516079D01*
X127608387Y-77415064D02*
X127608387Y-77482407D01*
X127675731Y-77617094D01*
X127743074Y-77684438D01*
X127877761Y-77751781D01*
X128012448Y-77751781D01*
X128113464Y-77718109D01*
X128281822Y-77617094D01*
X128382838Y-77516079D01*
X128483853Y-77347720D01*
X128517525Y-77246705D01*
X128517525Y-77112018D01*
X128450181Y-76977331D01*
X128382838Y-76909987D01*
X128248151Y-76842644D01*
X128180807Y-76842644D01*
X126901281Y-76842644D02*
X127237998Y-77179361D01*
X127945105Y-76472255D01*
X130411480Y-78320804D02*
X130459100Y-78273185D01*
X130506719Y-78177947D01*
X130506719Y-77939852D01*
X130459100Y-77844614D01*
X130411480Y-77796995D01*
X130316242Y-77749376D01*
X130221004Y-77749376D01*
X130078147Y-77796995D01*
X129506719Y-78368423D01*
X129506719Y-77749376D01*
X130411480Y-77368423D02*
X130459100Y-77320804D01*
X130506719Y-77225566D01*
X130506719Y-76987471D01*
X130459100Y-76892233D01*
X130411480Y-76844614D01*
X130316242Y-76796995D01*
X130221004Y-76796995D01*
X130078147Y-76844614D01*
X129506719Y-77416042D01*
X129506719Y-76796995D01*
X136279000Y-59016995D02*
X136231380Y-58921757D01*
X136231380Y-58778900D01*
X136279000Y-58636042D01*
X136374238Y-58540804D01*
X136469476Y-58493185D01*
X136659952Y-58445566D01*
X136802809Y-58445566D01*
X136993285Y-58493185D01*
X137088523Y-58540804D01*
X137183761Y-58636042D01*
X137231380Y-58778900D01*
X137231380Y-58874138D01*
X137183761Y-59016995D01*
X137136142Y-59064614D01*
X136802809Y-59064614D01*
X136802809Y-58874138D01*
X137231380Y-59493185D02*
X136231380Y-59493185D01*
X137231380Y-60064614D01*
X136231380Y-60064614D01*
X137231380Y-60540804D02*
X136231380Y-60540804D01*
X136231380Y-60778900D01*
X136279000Y-60921757D01*
X136374238Y-61016995D01*
X136469476Y-61064614D01*
X136659952Y-61112233D01*
X136802809Y-61112233D01*
X136993285Y-61064614D01*
X137088523Y-61016995D01*
X137183761Y-60921757D01*
X137231380Y-60778900D01*
X137231380Y-60540804D01*
D12*
X135992433Y-77000166D02*
X135959100Y-77033500D01*
X135925766Y-77100166D01*
X135925766Y-77266833D01*
X135959100Y-77333500D01*
X135992433Y-77366833D01*
X136059100Y-77400166D01*
X136125766Y-77400166D01*
X136225766Y-77366833D01*
X136625766Y-76966833D01*
X136625766Y-77400166D01*
X136625766Y-78066833D02*
X136625766Y-77666833D01*
X136625766Y-77866833D02*
X135925766Y-77866833D01*
X136025766Y-77800166D01*
X136092433Y-77733500D01*
X136125766Y-77666833D01*
D11*
X130392419Y-60347123D02*
X130392419Y-59728076D01*
X130011466Y-60061409D01*
X130011466Y-59918552D01*
X129963847Y-59823314D01*
X129916228Y-59775695D01*
X129820990Y-59728076D01*
X129582895Y-59728076D01*
X129487657Y-59775695D01*
X129440038Y-59823314D01*
X129392419Y-59918552D01*
X129392419Y-60204266D01*
X129440038Y-60299504D01*
X129487657Y-60347123D01*
X130392419Y-58870933D02*
X130392419Y-59061409D01*
X130344800Y-59156647D01*
X130297180Y-59204266D01*
X130154323Y-59299504D01*
X129963847Y-59347123D01*
X129582895Y-59347123D01*
X129487657Y-59299504D01*
X129440038Y-59251885D01*
X129392419Y-59156647D01*
X129392419Y-58966171D01*
X129440038Y-58870933D01*
X129487657Y-58823314D01*
X129582895Y-58775695D01*
X129820990Y-58775695D01*
X129916228Y-58823314D01*
X129963847Y-58870933D01*
X130011466Y-58966171D01*
X130011466Y-59156647D01*
X129963847Y-59251885D01*
X129916228Y-59299504D01*
X129820990Y-59347123D01*
X130561390Y-70274740D02*
X130123657Y-69837007D01*
X130089986Y-70342083D01*
X129988970Y-70241068D01*
X129887955Y-70207396D01*
X129820612Y-70207396D01*
X129719596Y-70241068D01*
X129551238Y-70409427D01*
X129517566Y-70510442D01*
X129517566Y-70577786D01*
X129551238Y-70678801D01*
X129753268Y-70880831D01*
X129854283Y-70914503D01*
X129921627Y-70914503D01*
X129921627Y-69634977D02*
X128978818Y-70106381D01*
X129450222Y-69163572D01*
X129281864Y-68995213D02*
X128844131Y-68557481D01*
X128810459Y-69062557D01*
X128709444Y-68961542D01*
X128608429Y-68927870D01*
X128541085Y-68927870D01*
X128440070Y-68961542D01*
X128271711Y-69129900D01*
X128238039Y-69230916D01*
X128238039Y-69298259D01*
X128271711Y-69399274D01*
X128473742Y-69601305D01*
X128574757Y-69634977D01*
X128642100Y-69634977D01*
X130443219Y-58010323D02*
X130443219Y-57391276D01*
X130062266Y-57724609D01*
X130062266Y-57581752D01*
X130014647Y-57486514D01*
X129967028Y-57438895D01*
X129871790Y-57391276D01*
X129633695Y-57391276D01*
X129538457Y-57438895D01*
X129490838Y-57486514D01*
X129443219Y-57581752D01*
X129443219Y-57867466D01*
X129490838Y-57962704D01*
X129538457Y-58010323D01*
X130443219Y-56486514D02*
X130443219Y-56962704D01*
X129967028Y-57010323D01*
X130014647Y-56962704D01*
X130062266Y-56867466D01*
X130062266Y-56629371D01*
X130014647Y-56534133D01*
X129967028Y-56486514D01*
X129871790Y-56438895D01*
X129633695Y-56438895D01*
X129538457Y-56486514D01*
X129490838Y-56534133D01*
X129443219Y-56629371D01*
X129443219Y-56867466D01*
X129490838Y-56962704D01*
X129538457Y-57010323D01*
X130061619Y-93143304D02*
X129926932Y-93075961D01*
X129859589Y-93075961D01*
X129758574Y-93109632D01*
X129657558Y-93210648D01*
X129623887Y-93311663D01*
X129623887Y-93379006D01*
X129657558Y-93480022D01*
X129926932Y-93749396D01*
X130634039Y-93042289D01*
X130398337Y-92806587D01*
X130297322Y-92772915D01*
X130229978Y-92772915D01*
X130128963Y-92806587D01*
X130061619Y-92873930D01*
X130027948Y-92974945D01*
X130027948Y-93042289D01*
X130061619Y-93143304D01*
X130297322Y-93379006D01*
X129455528Y-92873930D02*
X129118810Y-92537212D01*
X129320841Y-93143304D02*
X129792245Y-92200495D01*
X128849436Y-92671900D01*
X129421856Y-91830106D02*
X129017795Y-91426045D01*
X128512719Y-92335182D02*
X129219825Y-91628075D01*
X129353343Y-62721206D02*
X129925763Y-62620191D01*
X129757404Y-63125267D02*
X130464511Y-62418161D01*
X130195137Y-62148787D01*
X130094122Y-62115115D01*
X130026778Y-62115115D01*
X129925763Y-62148787D01*
X129824748Y-62249802D01*
X129791076Y-62350817D01*
X129791076Y-62418161D01*
X129824748Y-62519176D01*
X130094122Y-62788550D01*
X129117641Y-62418161D02*
X128982954Y-62350817D01*
X128814595Y-62182458D01*
X128780923Y-62081443D01*
X128780923Y-62014100D01*
X128814595Y-61913084D01*
X128881938Y-61845741D01*
X128982954Y-61812069D01*
X129050297Y-61812069D01*
X129151312Y-61845741D01*
X129319671Y-61946756D01*
X129420687Y-61980428D01*
X129488030Y-61980428D01*
X129589045Y-61946756D01*
X129656389Y-61879412D01*
X129690061Y-61778397D01*
X129690061Y-61711054D01*
X129656389Y-61610038D01*
X129488030Y-61441680D01*
X129353343Y-61374336D01*
X129184984Y-61138634D02*
X128780923Y-60734573D01*
X128275847Y-61643710D02*
X128982954Y-60936603D01*
X130481319Y-90360476D02*
X130481319Y-90836666D01*
X130005128Y-90884285D01*
X130052747Y-90836666D01*
X130100366Y-90741428D01*
X130100366Y-90503333D01*
X130052747Y-90408095D01*
X130005128Y-90360476D01*
X129909890Y-90312857D01*
X129671795Y-90312857D01*
X129576557Y-90360476D01*
X129528938Y-90408095D01*
X129481319Y-90503333D01*
X129481319Y-90741428D01*
X129528938Y-90836666D01*
X129576557Y-90884285D01*
X130481319Y-90027142D02*
X129481319Y-89693809D01*
X130481319Y-89360476D01*
X130436880Y-68071904D02*
X130484500Y-68024285D01*
X130532119Y-67929047D01*
X130532119Y-67690952D01*
X130484500Y-67595714D01*
X130436880Y-67548095D01*
X130341642Y-67500476D01*
X130246404Y-67500476D01*
X130103547Y-67548095D01*
X129532119Y-68119523D01*
X129532119Y-67500476D01*
X130532119Y-66643333D02*
X130532119Y-66833809D01*
X130484500Y-66929047D01*
X130436880Y-66976666D01*
X130294023Y-67071904D01*
X130103547Y-67119523D01*
X129722595Y-67119523D01*
X129627357Y-67071904D01*
X129579738Y-67024285D01*
X129532119Y-66929047D01*
X129532119Y-66738571D01*
X129579738Y-66643333D01*
X129627357Y-66595714D01*
X129722595Y-66548095D01*
X129960690Y-66548095D01*
X130055928Y-66595714D01*
X130103547Y-66643333D01*
X130151166Y-66738571D01*
X130151166Y-66929047D01*
X130103547Y-67024285D01*
X130055928Y-67071904D01*
X129960690Y-67119523D01*
X130411480Y-65608104D02*
X130459100Y-65560485D01*
X130506719Y-65465247D01*
X130506719Y-65227152D01*
X130459100Y-65131914D01*
X130411480Y-65084295D01*
X130316242Y-65036676D01*
X130221004Y-65036676D01*
X130078147Y-65084295D01*
X129506719Y-65655723D01*
X129506719Y-65036676D01*
X130506719Y-64131914D02*
X130506719Y-64608104D01*
X130030528Y-64655723D01*
X130078147Y-64608104D01*
X130125766Y-64512866D01*
X130125766Y-64274771D01*
X130078147Y-64179533D01*
X130030528Y-64131914D01*
X129935290Y-64084295D01*
X129697195Y-64084295D01*
X129601957Y-64131914D01*
X129554338Y-64179533D01*
X129506719Y-64274771D01*
X129506719Y-64512866D01*
X129554338Y-64608104D01*
X129601957Y-64655723D01*
X130506719Y-79797304D02*
X130506719Y-80273495D01*
X130030528Y-80321114D01*
X130078147Y-80273495D01*
X130125766Y-80178257D01*
X130125766Y-79940161D01*
X130078147Y-79844923D01*
X130030528Y-79797304D01*
X129935290Y-79749685D01*
X129697195Y-79749685D01*
X129601957Y-79797304D01*
X129554338Y-79844923D01*
X129506719Y-79940161D01*
X129506719Y-80178257D01*
X129554338Y-80273495D01*
X129601957Y-80321114D01*
D12*
X135928933Y-79835400D02*
X135895600Y-79868733D01*
X135862266Y-79935400D01*
X135862266Y-80102066D01*
X135895600Y-80168733D01*
X135928933Y-80202066D01*
X135995600Y-80235400D01*
X136062266Y-80235400D01*
X136162266Y-80202066D01*
X136562266Y-79802066D01*
X136562266Y-80235400D01*
D11*
X129532119Y-75056976D02*
X129532119Y-75628404D01*
X129532119Y-75342690D02*
X130532119Y-75342690D01*
X130389261Y-75437928D01*
X130294023Y-75533166D01*
X130246404Y-75628404D01*
X130532119Y-74723642D02*
X130532119Y-74056976D01*
X129532119Y-74485547D01*
D12*
X136574966Y-74809366D02*
X136574966Y-74409366D01*
X136574966Y-74609366D02*
X135874966Y-74609366D01*
X135974966Y-74542700D01*
X136041633Y-74476033D01*
X136074966Y-74409366D01*
X135874966Y-75409366D02*
X135874966Y-75276033D01*
X135908300Y-75209366D01*
X135941633Y-75176033D01*
X136041633Y-75109366D01*
X136174966Y-75076033D01*
X136441633Y-75076033D01*
X136508300Y-75109366D01*
X136541633Y-75142700D01*
X136574966Y-75209366D01*
X136574966Y-75342700D01*
X136541633Y-75409366D01*
X136508300Y-75442700D01*
X136441633Y-75476033D01*
X136274966Y-75476033D01*
X136208300Y-75442700D01*
X136174966Y-75409366D01*
X136141633Y-75342700D01*
X136141633Y-75209366D01*
X136174966Y-75142700D01*
X136208300Y-75109366D01*
X136274966Y-75076033D01*
D11*
X129582919Y-71989985D02*
X129582919Y-72561414D01*
X129582919Y-72275700D02*
X130582919Y-72275700D01*
X130440061Y-72370938D01*
X130344823Y-72466176D01*
X130297204Y-72561414D01*
D12*
X135925766Y-72207466D02*
X135925766Y-72640800D01*
X136192433Y-72407466D01*
X136192433Y-72507466D01*
X136225766Y-72574133D01*
X136259100Y-72607466D01*
X136325766Y-72640800D01*
X136492433Y-72640800D01*
X136559100Y-72607466D01*
X136592433Y-72574133D01*
X136625766Y-72507466D01*
X136625766Y-72307466D01*
X136592433Y-72240800D01*
X136559100Y-72207466D01*
D13*
G04 #@! TO.C,J1*
X138200000Y-67340000D02*
X138200000Y-65850000D01*
X138200000Y-65850000D02*
X139540000Y-65850000D01*
X138200000Y-82660000D02*
X138200000Y-84150000D01*
X138200000Y-84150000D02*
X139540000Y-84150000D01*
X142260000Y-65850000D02*
X144000000Y-65850000D01*
X144000000Y-65850000D02*
X144000000Y-84150000D01*
X144000000Y-84150000D02*
X142260000Y-84150000D01*
X138200000Y-67340000D02*
X137000000Y-67340000D01*
G04 #@! TD*
M02*
