G04 #@! TF.GenerationSoftware,KiCad,Pcbnew,5.0.2-bee76a0~70~ubuntu18.04.1*
G04 #@! TF.CreationDate,2019-05-12T18:15:27+09:00*
G04 #@! TF.ProjectId,top_pcb,746f705f-7063-4622-9e6b-696361645f70,rev?*
G04 #@! TF.SameCoordinates,Original*
G04 #@! TF.FileFunction,Legend,Bot*
G04 #@! TF.FilePolarity,Positive*
%FSLAX46Y46*%
G04 Gerber Fmt 4.6, Leading zero omitted, Abs format (unit mm)*
G04 Created by KiCad (PCBNEW 5.0.2-bee76a0~70~ubuntu18.04.1) date 2019年05月12日 18時15分27秒*
%MOMM*%
%LPD*%
G01*
G04 APERTURE LIST*
%ADD10C,0.200000*%
%ADD11C,0.250000*%
%ADD12C,0.120000*%
G04 APERTURE END LIST*
D10*
X135915400Y-86715600D02*
X135915400Y-93878400D01*
X135902700Y-63347600D02*
X135940800Y-56413400D01*
D11*
X139905738Y-98178880D02*
X139905738Y-97178880D01*
X139572404Y-97893166D01*
X139239071Y-97178880D01*
X139239071Y-98178880D01*
X138286690Y-97178880D02*
X138762880Y-97178880D01*
X138810500Y-97655071D01*
X138762880Y-97607452D01*
X138667642Y-97559833D01*
X138429547Y-97559833D01*
X138334309Y-97607452D01*
X138286690Y-97655071D01*
X138239071Y-97750309D01*
X138239071Y-97988404D01*
X138286690Y-98083642D01*
X138334309Y-98131261D01*
X138429547Y-98178880D01*
X138667642Y-98178880D01*
X138762880Y-98131261D01*
X138810500Y-98083642D01*
X137858119Y-98131261D02*
X137715261Y-98178880D01*
X137477166Y-98178880D01*
X137381928Y-98131261D01*
X137334309Y-98083642D01*
X137286690Y-97988404D01*
X137286690Y-97893166D01*
X137334309Y-97797928D01*
X137381928Y-97750309D01*
X137477166Y-97702690D01*
X137667642Y-97655071D01*
X137762880Y-97607452D01*
X137810500Y-97559833D01*
X137858119Y-97464595D01*
X137858119Y-97369357D01*
X137810500Y-97274119D01*
X137762880Y-97226500D01*
X137667642Y-97178880D01*
X137429547Y-97178880D01*
X137286690Y-97226500D01*
X137000976Y-97512214D02*
X136620023Y-97512214D01*
X136858119Y-97178880D02*
X136858119Y-98036023D01*
X136810500Y-98131261D01*
X136715261Y-98178880D01*
X136620023Y-98178880D01*
X135858119Y-98178880D02*
X135858119Y-97655071D01*
X135905738Y-97559833D01*
X136000976Y-97512214D01*
X136191452Y-97512214D01*
X136286690Y-97559833D01*
X135858119Y-98131261D02*
X135953357Y-98178880D01*
X136191452Y-98178880D01*
X136286690Y-98131261D01*
X136334309Y-98036023D01*
X136334309Y-97940785D01*
X136286690Y-97845547D01*
X136191452Y-97797928D01*
X135953357Y-97797928D01*
X135858119Y-97750309D01*
X134953357Y-98131261D02*
X135048595Y-98178880D01*
X135239071Y-98178880D01*
X135334309Y-98131261D01*
X135381928Y-98083642D01*
X135429547Y-97988404D01*
X135429547Y-97702690D01*
X135381928Y-97607452D01*
X135334309Y-97559833D01*
X135239071Y-97512214D01*
X135048595Y-97512214D01*
X134953357Y-97559833D01*
X134524785Y-98178880D02*
X134524785Y-97178880D01*
X134429547Y-97797928D02*
X134143833Y-98178880D01*
X134143833Y-97512214D02*
X134524785Y-97893166D01*
X133143833Y-98083642D02*
X133191452Y-98131261D01*
X133334309Y-98178880D01*
X133429547Y-98178880D01*
X133572404Y-98131261D01*
X133667642Y-98036023D01*
X133715261Y-97940785D01*
X133762880Y-97750309D01*
X133762880Y-97607452D01*
X133715261Y-97416976D01*
X133667642Y-97321738D01*
X133572404Y-97226500D01*
X133429547Y-97178880D01*
X133334309Y-97178880D01*
X133191452Y-97226500D01*
X133143833Y-97274119D01*
X132286690Y-98178880D02*
X132286690Y-97655071D01*
X132334309Y-97559833D01*
X132429547Y-97512214D01*
X132620023Y-97512214D01*
X132715261Y-97559833D01*
X132286690Y-98131261D02*
X132381928Y-98178880D01*
X132620023Y-98178880D01*
X132715261Y-98131261D01*
X132762880Y-98036023D01*
X132762880Y-97940785D01*
X132715261Y-97845547D01*
X132620023Y-97797928D01*
X132381928Y-97797928D01*
X132286690Y-97750309D01*
X131905738Y-97512214D02*
X131667642Y-98178880D01*
X131429547Y-97512214D01*
X131048595Y-98178880D02*
X131048595Y-97512214D01*
X131048595Y-97178880D02*
X131096214Y-97226500D01*
X131048595Y-97274119D01*
X131000976Y-97226500D01*
X131048595Y-97178880D01*
X131048595Y-97274119D01*
X130715261Y-97512214D02*
X130334309Y-97512214D01*
X130572404Y-97178880D02*
X130572404Y-98036023D01*
X130524785Y-98131261D01*
X130429547Y-98178880D01*
X130334309Y-98178880D01*
X130096214Y-97512214D02*
X129858119Y-98178880D01*
X129620023Y-97512214D02*
X129858119Y-98178880D01*
X129953357Y-98416976D01*
X130000976Y-98464595D01*
X130096214Y-98512214D01*
X130481319Y-88337923D02*
X130481319Y-87718876D01*
X130100366Y-88052209D01*
X130100366Y-87909352D01*
X130052747Y-87814114D01*
X130005128Y-87766495D01*
X129909890Y-87718876D01*
X129671795Y-87718876D01*
X129576557Y-87766495D01*
X129528938Y-87814114D01*
X129481319Y-87909352D01*
X129481319Y-88195066D01*
X129528938Y-88290304D01*
X129576557Y-88337923D01*
X130147985Y-86861733D02*
X129481319Y-86861733D01*
X130528938Y-87099828D02*
X129814652Y-87337923D01*
X129814652Y-86718876D01*
X127931919Y-88014109D02*
X128931919Y-88014109D01*
X127931919Y-87537919D02*
X128931919Y-87537919D01*
X127931919Y-86966490D01*
X128931919Y-86966490D01*
X130532119Y-85036019D02*
X130532119Y-84940780D01*
X130484500Y-84845542D01*
X130436880Y-84797923D01*
X130341642Y-84750304D01*
X130151166Y-84702685D01*
X129913071Y-84702685D01*
X129722595Y-84750304D01*
X129627357Y-84797923D01*
X129579738Y-84845542D01*
X129532119Y-84940780D01*
X129532119Y-85036019D01*
X129579738Y-85131257D01*
X129627357Y-85178876D01*
X129722595Y-85226495D01*
X129913071Y-85274114D01*
X130151166Y-85274114D01*
X130341642Y-85226495D01*
X130436880Y-85178876D01*
X130484500Y-85131257D01*
X130532119Y-85036019D01*
X127931919Y-85796333D02*
X128931919Y-85796333D01*
X128217633Y-85463000D01*
X128931919Y-85129666D01*
X127931919Y-85129666D01*
X127931919Y-84653476D02*
X128931919Y-84653476D01*
X127931919Y-84082047D02*
X128503347Y-84510619D01*
X128931919Y-84082047D02*
X128360490Y-84653476D01*
X137231380Y-84823323D02*
X137231380Y-84251895D01*
X137231380Y-84537609D02*
X136231380Y-84537609D01*
X136374238Y-84442371D01*
X136469476Y-84347133D01*
X136517095Y-84251895D01*
X136231380Y-85728085D02*
X136231380Y-85251895D01*
X136707571Y-85204276D01*
X136659952Y-85251895D01*
X136612333Y-85347133D01*
X136612333Y-85585228D01*
X136659952Y-85680466D01*
X136707571Y-85728085D01*
X136802809Y-85775704D01*
X137040904Y-85775704D01*
X137136142Y-85728085D01*
X137183761Y-85680466D01*
X137231380Y-85585228D01*
X137231380Y-85347133D01*
X137183761Y-85251895D01*
X137136142Y-85204276D01*
X137589668Y-84973318D02*
X137724355Y-85108005D01*
X137825370Y-85141677D01*
X137960057Y-85141677D01*
X138128416Y-85040661D01*
X138364118Y-84804959D01*
X138465133Y-84636600D01*
X138465133Y-84501913D01*
X138431461Y-84400898D01*
X138296774Y-84266211D01*
X138195759Y-84232539D01*
X138061072Y-84232539D01*
X137892713Y-84333555D01*
X137657011Y-84569257D01*
X137555996Y-84737616D01*
X137555996Y-84872303D01*
X137589668Y-84973318D01*
X138195759Y-85579409D02*
X138768179Y-85006990D01*
X138869194Y-84973318D01*
X138936538Y-84973318D01*
X139037553Y-85006990D01*
X139172240Y-85141677D01*
X139205912Y-85242692D01*
X139205912Y-85310035D01*
X139172240Y-85411051D01*
X138599820Y-85983470D01*
X138835522Y-86219173D02*
X139239583Y-86623234D01*
X139744660Y-85714096D02*
X139037553Y-86421203D01*
X137205980Y-82296023D02*
X137205980Y-81724595D01*
X137205980Y-82010309D02*
X136205980Y-82010309D01*
X136348838Y-81915071D01*
X136444076Y-81819833D01*
X136491695Y-81724595D01*
X136301219Y-82676976D02*
X136253600Y-82724595D01*
X136205980Y-82819833D01*
X136205980Y-83057928D01*
X136253600Y-83153166D01*
X136301219Y-83200785D01*
X136396457Y-83248404D01*
X136491695Y-83248404D01*
X136634552Y-83200785D01*
X137205980Y-82629357D01*
X137205980Y-83248404D01*
X129557519Y-82727776D02*
X129557519Y-83299204D01*
X129557519Y-83013490D02*
X130557519Y-83013490D01*
X130414661Y-83108728D01*
X130319423Y-83203966D01*
X130271804Y-83299204D01*
X130557519Y-82394442D02*
X130557519Y-81775395D01*
X130176566Y-82108728D01*
X130176566Y-81965871D01*
X130128947Y-81870633D01*
X130081328Y-81823014D01*
X129986090Y-81775395D01*
X129747995Y-81775395D01*
X129652757Y-81823014D01*
X129605138Y-81870633D01*
X129557519Y-81965871D01*
X129557519Y-82251585D01*
X129605138Y-82346823D01*
X129652757Y-82394442D01*
X128906519Y-83442061D02*
X127906519Y-83203966D01*
X128620804Y-83013490D01*
X127906519Y-82823014D01*
X128906519Y-82584919D01*
X127954138Y-82251585D02*
X127906519Y-82108728D01*
X127906519Y-81870633D01*
X127954138Y-81775395D01*
X128001757Y-81727776D01*
X128096995Y-81680157D01*
X128192233Y-81680157D01*
X128287471Y-81727776D01*
X128335090Y-81775395D01*
X128382709Y-81870633D01*
X128430328Y-82061109D01*
X128477947Y-82156347D01*
X128525566Y-82203966D01*
X128620804Y-82251585D01*
X128716042Y-82251585D01*
X128811280Y-82203966D01*
X128858900Y-82156347D01*
X128906519Y-82061109D01*
X128906519Y-81823014D01*
X128858900Y-81680157D01*
X139025261Y-81738885D02*
X139072880Y-81881742D01*
X139072880Y-82119838D01*
X139025261Y-82215076D01*
X138977642Y-82262695D01*
X138882404Y-82310314D01*
X138787166Y-82310314D01*
X138691928Y-82262695D01*
X138644309Y-82215076D01*
X138596690Y-82119838D01*
X138549071Y-81929361D01*
X138501452Y-81834123D01*
X138453833Y-81786504D01*
X138358595Y-81738885D01*
X138263357Y-81738885D01*
X138168119Y-81786504D01*
X138120500Y-81834123D01*
X138072880Y-81929361D01*
X138072880Y-82167457D01*
X138120500Y-82310314D01*
X139072880Y-82738885D02*
X138072880Y-82738885D01*
X139072880Y-83310314D02*
X138501452Y-82881742D01*
X138072880Y-83310314D02*
X138644309Y-82738885D01*
X137282180Y-88058857D02*
X136282180Y-88058857D01*
X136758371Y-88058857D02*
X136758371Y-88630285D01*
X137282180Y-88630285D02*
X136282180Y-88630285D01*
X137282180Y-89106476D02*
X136282180Y-89106476D01*
X136282180Y-89487428D01*
X136329800Y-89582666D01*
X136377419Y-89630285D01*
X136472657Y-89677904D01*
X136615514Y-89677904D01*
X136710752Y-89630285D01*
X136758371Y-89582666D01*
X136805990Y-89487428D01*
X136805990Y-89106476D01*
X136282180Y-90011238D02*
X137282180Y-90249333D01*
X136567895Y-90439809D01*
X137282180Y-90630285D01*
X136282180Y-90868380D01*
X137282180Y-91820761D02*
X136805990Y-91487428D01*
X137282180Y-91249333D02*
X136282180Y-91249333D01*
X136282180Y-91630285D01*
X136329800Y-91725523D01*
X136377419Y-91773142D01*
X136472657Y-91820761D01*
X136615514Y-91820761D01*
X136710752Y-91773142D01*
X136758371Y-91725523D01*
X136805990Y-91630285D01*
X136805990Y-91249333D01*
X139098280Y-72261433D02*
X138622090Y-71928100D01*
X139098280Y-71690004D02*
X138098280Y-71690004D01*
X138098280Y-72070957D01*
X138145900Y-72166195D01*
X138193519Y-72213814D01*
X138288757Y-72261433D01*
X138431614Y-72261433D01*
X138526852Y-72213814D01*
X138574471Y-72166195D01*
X138622090Y-72070957D01*
X138622090Y-71690004D01*
X138098280Y-72880480D02*
X138098280Y-72975719D01*
X138145900Y-73070957D01*
X138193519Y-73118576D01*
X138288757Y-73166195D01*
X138479233Y-73213814D01*
X138717328Y-73213814D01*
X138907804Y-73166195D01*
X139003042Y-73118576D01*
X139050661Y-73070957D01*
X139098280Y-72975719D01*
X139098280Y-72880480D01*
X139050661Y-72785242D01*
X139003042Y-72737623D01*
X138907804Y-72690004D01*
X138717328Y-72642385D01*
X138479233Y-72642385D01*
X138288757Y-72690004D01*
X138193519Y-72737623D01*
X138145900Y-72785242D01*
X138098280Y-72880480D01*
X128957319Y-73177304D02*
X128957319Y-72605876D01*
X127957319Y-72891590D02*
X128957319Y-72891590D01*
X128957319Y-72082066D02*
X128957319Y-71986828D01*
X128909700Y-71891590D01*
X128862080Y-71843971D01*
X128766842Y-71796352D01*
X128576366Y-71748733D01*
X128338271Y-71748733D01*
X128147795Y-71796352D01*
X128052557Y-71843971D01*
X128004938Y-71891590D01*
X127957319Y-71986828D01*
X127957319Y-72082066D01*
X128004938Y-72177304D01*
X128052557Y-72224923D01*
X128147795Y-72272542D01*
X128338271Y-72320161D01*
X128576366Y-72320161D01*
X128766842Y-72272542D01*
X128862080Y-72224923D01*
X128909700Y-72177304D01*
X128957319Y-72082066D01*
X139212580Y-74826833D02*
X138736390Y-74493500D01*
X139212580Y-74255404D02*
X138212580Y-74255404D01*
X138212580Y-74636357D01*
X138260200Y-74731595D01*
X138307819Y-74779214D01*
X138403057Y-74826833D01*
X138545914Y-74826833D01*
X138641152Y-74779214D01*
X138688771Y-74731595D01*
X138736390Y-74636357D01*
X138736390Y-74255404D01*
X138307819Y-75207785D02*
X138260200Y-75255404D01*
X138212580Y-75350642D01*
X138212580Y-75588738D01*
X138260200Y-75683976D01*
X138307819Y-75731595D01*
X138403057Y-75779214D01*
X138498295Y-75779214D01*
X138641152Y-75731595D01*
X139212580Y-75160166D01*
X139212580Y-75779214D01*
X128906519Y-75653804D02*
X128906519Y-75082376D01*
X127906519Y-75368090D02*
X128906519Y-75368090D01*
X128811280Y-74796661D02*
X128858900Y-74749042D01*
X128906519Y-74653804D01*
X128906519Y-74415709D01*
X128858900Y-74320471D01*
X128811280Y-74272852D01*
X128716042Y-74225233D01*
X128620804Y-74225233D01*
X128477947Y-74272852D01*
X127906519Y-74844280D01*
X127906519Y-74225233D01*
X127957319Y-65562076D02*
X128957319Y-65562076D01*
X128957319Y-65323980D01*
X128909700Y-65181123D01*
X128814461Y-65085885D01*
X128719223Y-65038266D01*
X128528747Y-64990647D01*
X128385890Y-64990647D01*
X128195414Y-65038266D01*
X128100176Y-65085885D01*
X128004938Y-65181123D01*
X127957319Y-65323980D01*
X127957319Y-65562076D01*
X128243033Y-64609695D02*
X128243033Y-64133504D01*
X127957319Y-64704933D02*
X128957319Y-64371600D01*
X127957319Y-64038266D01*
X127881119Y-68076676D02*
X128881119Y-68076676D01*
X128881119Y-67838580D01*
X128833500Y-67695723D01*
X128738261Y-67600485D01*
X128643023Y-67552866D01*
X128452547Y-67505247D01*
X128309690Y-67505247D01*
X128119214Y-67552866D01*
X128023976Y-67600485D01*
X127928738Y-67695723D01*
X127881119Y-67838580D01*
X127881119Y-68076676D01*
X128166833Y-67124295D02*
X128166833Y-66648104D01*
X127881119Y-67219533D02*
X128881119Y-66886200D01*
X127881119Y-66552866D01*
X128281133Y-57989695D02*
X128281133Y-57513504D01*
X127995419Y-58084933D02*
X128995419Y-57751600D01*
X127995419Y-57418266D01*
X127995419Y-57084933D02*
X128995419Y-57084933D01*
X128995419Y-56846838D01*
X128947800Y-56703980D01*
X128852561Y-56608742D01*
X128757323Y-56561123D01*
X128566847Y-56513504D01*
X128423990Y-56513504D01*
X128233514Y-56561123D01*
X128138276Y-56608742D01*
X128043038Y-56703980D01*
X127995419Y-56846838D01*
X127995419Y-57084933D01*
X128217633Y-60301095D02*
X128217633Y-59824904D01*
X127931919Y-60396333D02*
X128931919Y-60063000D01*
X127931919Y-59729666D01*
X127931919Y-59396333D02*
X128931919Y-59396333D01*
X128931919Y-59158238D01*
X128884300Y-59015380D01*
X128789061Y-58920142D01*
X128693823Y-58872523D01*
X128503347Y-58824904D01*
X128360490Y-58824904D01*
X128170014Y-58872523D01*
X128074776Y-58920142D01*
X127979538Y-59015380D01*
X127931919Y-59158238D01*
X127931919Y-59396333D01*
X137934072Y-68502252D02*
X138068759Y-68569596D01*
X138237118Y-68737955D01*
X138270790Y-68838970D01*
X138270790Y-68906313D01*
X138237118Y-69007329D01*
X138169774Y-69074672D01*
X138068759Y-69108344D01*
X138001416Y-69108344D01*
X137900400Y-69074672D01*
X137732042Y-68973657D01*
X137631026Y-68939985D01*
X137563683Y-68939985D01*
X137462668Y-68973657D01*
X137395324Y-69041000D01*
X137361652Y-69142016D01*
X137361652Y-69209359D01*
X137395324Y-69310374D01*
X137563683Y-69478733D01*
X137698370Y-69546077D01*
X139011568Y-69647092D02*
X139011568Y-69579748D01*
X138944225Y-69445061D01*
X138876881Y-69377718D01*
X138742194Y-69310374D01*
X138607507Y-69310374D01*
X138506492Y-69344046D01*
X138338133Y-69445061D01*
X138237118Y-69546077D01*
X138136103Y-69714435D01*
X138102431Y-69815451D01*
X138102431Y-69950138D01*
X138169774Y-70084825D01*
X138237118Y-70152168D01*
X138371805Y-70219512D01*
X138439148Y-70219512D01*
X139381957Y-69882794D02*
X138674851Y-70589901D01*
X139786018Y-70286855D02*
X139078912Y-70387870D01*
X139078912Y-70993962D02*
X139078912Y-70185840D01*
X137231380Y-69570623D02*
X137231380Y-68999195D01*
X137231380Y-69284909D02*
X136231380Y-69284909D01*
X136374238Y-69189671D01*
X136469476Y-69094433D01*
X136517095Y-68999195D01*
X136659952Y-70142052D02*
X136612333Y-70046814D01*
X136564714Y-69999195D01*
X136469476Y-69951576D01*
X136421857Y-69951576D01*
X136326619Y-69999195D01*
X136279000Y-70046814D01*
X136231380Y-70142052D01*
X136231380Y-70332528D01*
X136279000Y-70427766D01*
X136326619Y-70475385D01*
X136421857Y-70523004D01*
X136469476Y-70523004D01*
X136564714Y-70475385D01*
X136612333Y-70427766D01*
X136659952Y-70332528D01*
X136659952Y-70142052D01*
X136707571Y-70046814D01*
X136755190Y-69999195D01*
X136850428Y-69951576D01*
X137040904Y-69951576D01*
X137136142Y-69999195D01*
X137183761Y-70046814D01*
X137231380Y-70142052D01*
X137231380Y-70332528D01*
X137183761Y-70427766D01*
X137136142Y-70475385D01*
X137040904Y-70523004D01*
X136850428Y-70523004D01*
X136755190Y-70475385D01*
X136707571Y-70427766D01*
X136659952Y-70332528D01*
X139022080Y-63938257D02*
X138022080Y-63938257D01*
X138736366Y-64271590D01*
X138022080Y-64604923D01*
X139022080Y-64604923D01*
X138022080Y-65271590D02*
X138022080Y-65462066D01*
X138069700Y-65557304D01*
X138164938Y-65652542D01*
X138355414Y-65700161D01*
X138688747Y-65700161D01*
X138879223Y-65652542D01*
X138974461Y-65557304D01*
X139022080Y-65462066D01*
X139022080Y-65271590D01*
X138974461Y-65176352D01*
X138879223Y-65081114D01*
X138688747Y-65033495D01*
X138355414Y-65033495D01*
X138164938Y-65081114D01*
X138069700Y-65176352D01*
X138022080Y-65271590D01*
X137307580Y-67119523D02*
X137307580Y-66548095D01*
X137307580Y-66833809D02*
X136307580Y-66833809D01*
X136450438Y-66738571D01*
X136545676Y-66643333D01*
X136593295Y-66548095D01*
X137307580Y-67595714D02*
X137307580Y-67786190D01*
X137259961Y-67881428D01*
X137212342Y-67929047D01*
X137069485Y-68024285D01*
X136879009Y-68071904D01*
X136498057Y-68071904D01*
X136402819Y-68024285D01*
X136355200Y-67976666D01*
X136307580Y-67881428D01*
X136307580Y-67690952D01*
X136355200Y-67595714D01*
X136402819Y-67548095D01*
X136498057Y-67500476D01*
X136736152Y-67500476D01*
X136831390Y-67548095D01*
X136879009Y-67595714D01*
X136926628Y-67690952D01*
X136926628Y-67881428D01*
X136879009Y-67976666D01*
X136831390Y-68024285D01*
X136736152Y-68071904D01*
X136352019Y-63982695D02*
X136304400Y-64030314D01*
X136256780Y-64125552D01*
X136256780Y-64363647D01*
X136304400Y-64458885D01*
X136352019Y-64506504D01*
X136447257Y-64554123D01*
X136542495Y-64554123D01*
X136685352Y-64506504D01*
X137256780Y-63935076D01*
X137256780Y-64554123D01*
X136256780Y-64887457D02*
X136256780Y-65506504D01*
X136637733Y-65173171D01*
X136637733Y-65316028D01*
X136685352Y-65411266D01*
X136732971Y-65458885D01*
X136828209Y-65506504D01*
X137066304Y-65506504D01*
X137161542Y-65458885D01*
X137209161Y-65411266D01*
X137256780Y-65316028D01*
X137256780Y-65030314D01*
X137209161Y-64935076D01*
X137161542Y-64887457D01*
X139161780Y-66662371D02*
X138161780Y-66662371D01*
X138876066Y-66995704D01*
X138161780Y-67329038D01*
X139161780Y-67329038D01*
X139161780Y-67805228D02*
X138161780Y-67805228D01*
X128685883Y-78559903D02*
X128551196Y-78492560D01*
X128382838Y-78324201D01*
X128349166Y-78223186D01*
X128349166Y-78155842D01*
X128382838Y-78054827D01*
X128450181Y-77987483D01*
X128551196Y-77953812D01*
X128618540Y-77953812D01*
X128719555Y-77987483D01*
X128887914Y-78088499D01*
X128988929Y-78122170D01*
X129056273Y-78122170D01*
X129157288Y-78088499D01*
X129224631Y-78021155D01*
X129258303Y-77920140D01*
X129258303Y-77852796D01*
X129224631Y-77751781D01*
X129056273Y-77583422D01*
X128921586Y-77516079D01*
X127608387Y-77415064D02*
X127608387Y-77482407D01*
X127675731Y-77617094D01*
X127743074Y-77684438D01*
X127877761Y-77751781D01*
X128012448Y-77751781D01*
X128113464Y-77718109D01*
X128281822Y-77617094D01*
X128382838Y-77516079D01*
X128483853Y-77347720D01*
X128517525Y-77246705D01*
X128517525Y-77112018D01*
X128450181Y-76977331D01*
X128382838Y-76909987D01*
X128248151Y-76842644D01*
X128180807Y-76842644D01*
X126901281Y-76842644D02*
X127237998Y-77179361D01*
X127945105Y-76472255D01*
X137984580Y-76325160D02*
X138119267Y-76392503D01*
X138287625Y-76560862D01*
X138321297Y-76661877D01*
X138321297Y-76729221D01*
X138287625Y-76830236D01*
X138220282Y-76897580D01*
X138119267Y-76931251D01*
X138051923Y-76931251D01*
X137950908Y-76897580D01*
X137782549Y-76796564D01*
X137681534Y-76762893D01*
X137614190Y-76762893D01*
X137513175Y-76796564D01*
X137445832Y-76863908D01*
X137412160Y-76964923D01*
X137412160Y-77032267D01*
X137445832Y-77133282D01*
X137614190Y-77301641D01*
X137748877Y-77368984D01*
X138725358Y-76998595D02*
X138018251Y-77705702D01*
X138186610Y-77874061D01*
X138321297Y-77941404D01*
X138455984Y-77941404D01*
X138557000Y-77907732D01*
X138725358Y-77806717D01*
X138826374Y-77705702D01*
X138927389Y-77537343D01*
X138961061Y-77436328D01*
X138961061Y-77301641D01*
X138893717Y-77166954D01*
X138725358Y-76998595D01*
X139196763Y-77874061D02*
X139533480Y-78210778D01*
X139331450Y-77604687D02*
X138860045Y-78547496D01*
X139802854Y-78076091D01*
X130411480Y-78320804D02*
X130459100Y-78273185D01*
X130506719Y-78177947D01*
X130506719Y-77939852D01*
X130459100Y-77844614D01*
X130411480Y-77796995D01*
X130316242Y-77749376D01*
X130221004Y-77749376D01*
X130078147Y-77796995D01*
X129506719Y-78368423D01*
X129506719Y-77749376D01*
X130411480Y-77368423D02*
X130459100Y-77320804D01*
X130506719Y-77225566D01*
X130506719Y-76987471D01*
X130459100Y-76892233D01*
X130411480Y-76844614D01*
X130316242Y-76796995D01*
X130221004Y-76796995D01*
X130078147Y-76844614D01*
X129506719Y-77416042D01*
X129506719Y-76796995D01*
X136279000Y-59016995D02*
X136231380Y-58921757D01*
X136231380Y-58778900D01*
X136279000Y-58636042D01*
X136374238Y-58540804D01*
X136469476Y-58493185D01*
X136659952Y-58445566D01*
X136802809Y-58445566D01*
X136993285Y-58493185D01*
X137088523Y-58540804D01*
X137183761Y-58636042D01*
X137231380Y-58778900D01*
X137231380Y-58874138D01*
X137183761Y-59016995D01*
X137136142Y-59064614D01*
X136802809Y-59064614D01*
X136802809Y-58874138D01*
X137231380Y-59493185D02*
X136231380Y-59493185D01*
X137231380Y-60064614D01*
X136231380Y-60064614D01*
X137231380Y-60540804D02*
X136231380Y-60540804D01*
X136231380Y-60778900D01*
X136279000Y-60921757D01*
X136374238Y-61016995D01*
X136469476Y-61064614D01*
X136659952Y-61112233D01*
X136802809Y-61112233D01*
X136993285Y-61064614D01*
X137088523Y-61016995D01*
X137183761Y-60921757D01*
X137231380Y-60778900D01*
X137231380Y-60540804D01*
D10*
X136275819Y-76695395D02*
X136228200Y-76743014D01*
X136180580Y-76838252D01*
X136180580Y-77076347D01*
X136228200Y-77171585D01*
X136275819Y-77219204D01*
X136371057Y-77266823D01*
X136466295Y-77266823D01*
X136609152Y-77219204D01*
X137180580Y-76647776D01*
X137180580Y-77266823D01*
X137180580Y-78219204D02*
X137180580Y-77647776D01*
X137180580Y-77933490D02*
X136180580Y-77933490D01*
X136323438Y-77838252D01*
X136418676Y-77743014D01*
X136466295Y-77647776D01*
D11*
X130392419Y-60347123D02*
X130392419Y-59728076D01*
X130011466Y-60061409D01*
X130011466Y-59918552D01*
X129963847Y-59823314D01*
X129916228Y-59775695D01*
X129820990Y-59728076D01*
X129582895Y-59728076D01*
X129487657Y-59775695D01*
X129440038Y-59823314D01*
X129392419Y-59918552D01*
X129392419Y-60204266D01*
X129440038Y-60299504D01*
X129487657Y-60347123D01*
X130392419Y-58870933D02*
X130392419Y-59061409D01*
X130344800Y-59156647D01*
X130297180Y-59204266D01*
X130154323Y-59299504D01*
X129963847Y-59347123D01*
X129582895Y-59347123D01*
X129487657Y-59299504D01*
X129440038Y-59251885D01*
X129392419Y-59156647D01*
X129392419Y-58966171D01*
X129440038Y-58870933D01*
X129487657Y-58823314D01*
X129582895Y-58775695D01*
X129820990Y-58775695D01*
X129916228Y-58823314D01*
X129963847Y-58870933D01*
X130011466Y-58966171D01*
X130011466Y-59156647D01*
X129963847Y-59251885D01*
X129916228Y-59299504D01*
X129820990Y-59347123D01*
X130561390Y-70274740D02*
X130123657Y-69837007D01*
X130089986Y-70342083D01*
X129988970Y-70241068D01*
X129887955Y-70207396D01*
X129820612Y-70207396D01*
X129719596Y-70241068D01*
X129551238Y-70409427D01*
X129517566Y-70510442D01*
X129517566Y-70577786D01*
X129551238Y-70678801D01*
X129753268Y-70880831D01*
X129854283Y-70914503D01*
X129921627Y-70914503D01*
X129921627Y-69634977D02*
X128978818Y-70106381D01*
X129450222Y-69163572D01*
X129281864Y-68995213D02*
X128844131Y-68557481D01*
X128810459Y-69062557D01*
X128709444Y-68961542D01*
X128608429Y-68927870D01*
X128541085Y-68927870D01*
X128440070Y-68961542D01*
X128271711Y-69129900D01*
X128238039Y-69230916D01*
X128238039Y-69298259D01*
X128271711Y-69399274D01*
X128473742Y-69601305D01*
X128574757Y-69634977D01*
X128642100Y-69634977D01*
X130443219Y-58010323D02*
X130443219Y-57391276D01*
X130062266Y-57724609D01*
X130062266Y-57581752D01*
X130014647Y-57486514D01*
X129967028Y-57438895D01*
X129871790Y-57391276D01*
X129633695Y-57391276D01*
X129538457Y-57438895D01*
X129490838Y-57486514D01*
X129443219Y-57581752D01*
X129443219Y-57867466D01*
X129490838Y-57962704D01*
X129538457Y-58010323D01*
X130443219Y-56486514D02*
X130443219Y-56962704D01*
X129967028Y-57010323D01*
X130014647Y-56962704D01*
X130062266Y-56867466D01*
X130062266Y-56629371D01*
X130014647Y-56534133D01*
X129967028Y-56486514D01*
X129871790Y-56438895D01*
X129633695Y-56438895D01*
X129538457Y-56486514D01*
X129490838Y-56534133D01*
X129443219Y-56629371D01*
X129443219Y-56867466D01*
X129490838Y-56962704D01*
X129538457Y-57010323D01*
X130061619Y-93143304D02*
X129926932Y-93075961D01*
X129859589Y-93075961D01*
X129758574Y-93109632D01*
X129657558Y-93210648D01*
X129623887Y-93311663D01*
X129623887Y-93379006D01*
X129657558Y-93480022D01*
X129926932Y-93749396D01*
X130634039Y-93042289D01*
X130398337Y-92806587D01*
X130297322Y-92772915D01*
X130229978Y-92772915D01*
X130128963Y-92806587D01*
X130061619Y-92873930D01*
X130027948Y-92974945D01*
X130027948Y-93042289D01*
X130061619Y-93143304D01*
X130297322Y-93379006D01*
X129455528Y-92873930D02*
X129118810Y-92537212D01*
X129320841Y-93143304D02*
X129792245Y-92200495D01*
X128849436Y-92671900D01*
X129421856Y-91830106D02*
X129017795Y-91426045D01*
X128512719Y-92335182D02*
X129219825Y-91628075D01*
X129353343Y-62721206D02*
X129925763Y-62620191D01*
X129757404Y-63125267D02*
X130464511Y-62418161D01*
X130195137Y-62148787D01*
X130094122Y-62115115D01*
X130026778Y-62115115D01*
X129925763Y-62148787D01*
X129824748Y-62249802D01*
X129791076Y-62350817D01*
X129791076Y-62418161D01*
X129824748Y-62519176D01*
X130094122Y-62788550D01*
X129117641Y-62418161D02*
X128982954Y-62350817D01*
X128814595Y-62182458D01*
X128780923Y-62081443D01*
X128780923Y-62014100D01*
X128814595Y-61913084D01*
X128881938Y-61845741D01*
X128982954Y-61812069D01*
X129050297Y-61812069D01*
X129151312Y-61845741D01*
X129319671Y-61946756D01*
X129420687Y-61980428D01*
X129488030Y-61980428D01*
X129589045Y-61946756D01*
X129656389Y-61879412D01*
X129690061Y-61778397D01*
X129690061Y-61711054D01*
X129656389Y-61610038D01*
X129488030Y-61441680D01*
X129353343Y-61374336D01*
X129184984Y-61138634D02*
X128780923Y-60734573D01*
X128275847Y-61643710D02*
X128982954Y-60936603D01*
X130481319Y-90360476D02*
X130481319Y-90836666D01*
X130005128Y-90884285D01*
X130052747Y-90836666D01*
X130100366Y-90741428D01*
X130100366Y-90503333D01*
X130052747Y-90408095D01*
X130005128Y-90360476D01*
X129909890Y-90312857D01*
X129671795Y-90312857D01*
X129576557Y-90360476D01*
X129528938Y-90408095D01*
X129481319Y-90503333D01*
X129481319Y-90741428D01*
X129528938Y-90836666D01*
X129576557Y-90884285D01*
X130481319Y-90027142D02*
X129481319Y-89693809D01*
X130481319Y-89360476D01*
X130436880Y-68071904D02*
X130484500Y-68024285D01*
X130532119Y-67929047D01*
X130532119Y-67690952D01*
X130484500Y-67595714D01*
X130436880Y-67548095D01*
X130341642Y-67500476D01*
X130246404Y-67500476D01*
X130103547Y-67548095D01*
X129532119Y-68119523D01*
X129532119Y-67500476D01*
X130532119Y-66643333D02*
X130532119Y-66833809D01*
X130484500Y-66929047D01*
X130436880Y-66976666D01*
X130294023Y-67071904D01*
X130103547Y-67119523D01*
X129722595Y-67119523D01*
X129627357Y-67071904D01*
X129579738Y-67024285D01*
X129532119Y-66929047D01*
X129532119Y-66738571D01*
X129579738Y-66643333D01*
X129627357Y-66595714D01*
X129722595Y-66548095D01*
X129960690Y-66548095D01*
X130055928Y-66595714D01*
X130103547Y-66643333D01*
X130151166Y-66738571D01*
X130151166Y-66929047D01*
X130103547Y-67024285D01*
X130055928Y-67071904D01*
X129960690Y-67119523D01*
X130411480Y-65608104D02*
X130459100Y-65560485D01*
X130506719Y-65465247D01*
X130506719Y-65227152D01*
X130459100Y-65131914D01*
X130411480Y-65084295D01*
X130316242Y-65036676D01*
X130221004Y-65036676D01*
X130078147Y-65084295D01*
X129506719Y-65655723D01*
X129506719Y-65036676D01*
X130506719Y-64131914D02*
X130506719Y-64608104D01*
X130030528Y-64655723D01*
X130078147Y-64608104D01*
X130125766Y-64512866D01*
X130125766Y-64274771D01*
X130078147Y-64179533D01*
X130030528Y-64131914D01*
X129935290Y-64084295D01*
X129697195Y-64084295D01*
X129601957Y-64131914D01*
X129554338Y-64179533D01*
X129506719Y-64274771D01*
X129506719Y-64512866D01*
X129554338Y-64608104D01*
X129601957Y-64655723D01*
X130506719Y-79797304D02*
X130506719Y-80273495D01*
X130030528Y-80321114D01*
X130078147Y-80273495D01*
X130125766Y-80178257D01*
X130125766Y-79940161D01*
X130078147Y-79844923D01*
X130030528Y-79797304D01*
X129935290Y-79749685D01*
X129697195Y-79749685D01*
X129601957Y-79797304D01*
X129554338Y-79844923D01*
X129506719Y-79940161D01*
X129506719Y-80178257D01*
X129554338Y-80273495D01*
X129601957Y-80321114D01*
X136352019Y-79559185D02*
X136304400Y-79606804D01*
X136256780Y-79702042D01*
X136256780Y-79940138D01*
X136304400Y-80035376D01*
X136352019Y-80082995D01*
X136447257Y-80130614D01*
X136542495Y-80130614D01*
X136685352Y-80082995D01*
X137256780Y-79511566D01*
X137256780Y-80130614D01*
X129532119Y-75056976D02*
X129532119Y-75628404D01*
X129532119Y-75342690D02*
X130532119Y-75342690D01*
X130389261Y-75437928D01*
X130294023Y-75533166D01*
X130246404Y-75628404D01*
X130532119Y-74723642D02*
X130532119Y-74056976D01*
X129532119Y-74485547D01*
X137256780Y-74714123D02*
X137256780Y-74142695D01*
X137256780Y-74428409D02*
X136256780Y-74428409D01*
X136399638Y-74333171D01*
X136494876Y-74237933D01*
X136542495Y-74142695D01*
X136256780Y-75571266D02*
X136256780Y-75380790D01*
X136304400Y-75285552D01*
X136352019Y-75237933D01*
X136494876Y-75142695D01*
X136685352Y-75095076D01*
X137066304Y-75095076D01*
X137161542Y-75142695D01*
X137209161Y-75190314D01*
X137256780Y-75285552D01*
X137256780Y-75476028D01*
X137209161Y-75571266D01*
X137161542Y-75618885D01*
X137066304Y-75666504D01*
X136828209Y-75666504D01*
X136732971Y-75618885D01*
X136685352Y-75571266D01*
X136637733Y-75476028D01*
X136637733Y-75285552D01*
X136685352Y-75190314D01*
X136732971Y-75142695D01*
X136828209Y-75095076D01*
X129582919Y-71989985D02*
X129582919Y-72561414D01*
X129582919Y-72275700D02*
X130582919Y-72275700D01*
X130440061Y-72370938D01*
X130344823Y-72466176D01*
X130297204Y-72561414D01*
X136307580Y-71993166D02*
X136307580Y-72612214D01*
X136688533Y-72278880D01*
X136688533Y-72421738D01*
X136736152Y-72516976D01*
X136783771Y-72564595D01*
X136879009Y-72612214D01*
X137117104Y-72612214D01*
X137212342Y-72564595D01*
X137259961Y-72516976D01*
X137307580Y-72421738D01*
X137307580Y-72136023D01*
X137259961Y-72040785D01*
X137212342Y-71993166D01*
D12*
G04 #@! TO.C,J1*
X141004000Y-67340000D02*
X141004000Y-65850000D01*
X141004000Y-65850000D02*
X142344000Y-65850000D01*
X141004000Y-82660000D02*
X141004000Y-84150000D01*
X141004000Y-84150000D02*
X142344000Y-84150000D01*
X145064000Y-65850000D02*
X146804000Y-65850000D01*
X146804000Y-65850000D02*
X146804000Y-84150000D01*
X146804000Y-84150000D02*
X145064000Y-84150000D01*
X141004000Y-67340000D02*
X139804000Y-67340000D01*
G04 #@! TD*
M02*
