G04 #@! TF.GenerationSoftware,KiCad,Pcbnew,5.0.2-bee76a0~70~ubuntu18.04.1*
G04 #@! TF.CreationDate,2019-05-12T18:15:27+09:00*
G04 #@! TF.ProjectId,top_pcb,746f705f-7063-4622-9e6b-696361645f70,rev?*
G04 #@! TF.SameCoordinates,Original*
G04 #@! TF.FileFunction,Legend,Top*
G04 #@! TF.FilePolarity,Positive*
%FSLAX46Y46*%
G04 Gerber Fmt 4.6, Leading zero omitted, Abs format (unit mm)*
G04 Created by KiCad (PCBNEW 5.0.2-bee76a0~70~ubuntu18.04.1) date 2019年05月12日 18時15分27秒*
%MOMM*%
%LPD*%
G01*
G04 APERTURE LIST*
%ADD10C,0.250000*%
%ADD11C,0.500000*%
%ADD12C,0.010000*%
%ADD13C,0.120000*%
G04 APERTURE END LIST*
D10*
X107592785Y-80019876D02*
X107592785Y-80400828D01*
X107926119Y-80162733D02*
X107068976Y-80162733D01*
X106973738Y-80210352D01*
X106926119Y-80305590D01*
X106926119Y-80400828D01*
X106926119Y-80877019D02*
X106973738Y-80781780D01*
X107021357Y-80734161D01*
X107116595Y-80686542D01*
X107402309Y-80686542D01*
X107497547Y-80734161D01*
X107545166Y-80781780D01*
X107592785Y-80877019D01*
X107592785Y-81019876D01*
X107545166Y-81115114D01*
X107497547Y-81162733D01*
X107402309Y-81210352D01*
X107116595Y-81210352D01*
X107021357Y-81162733D01*
X106973738Y-81115114D01*
X106926119Y-81019876D01*
X106926119Y-80877019D01*
X107592785Y-81638923D02*
X106592785Y-81638923D01*
X107545166Y-81638923D02*
X107592785Y-81734161D01*
X107592785Y-81924638D01*
X107545166Y-82019876D01*
X107497547Y-82067495D01*
X107402309Y-82115114D01*
X107116595Y-82115114D01*
X107021357Y-82067495D01*
X106973738Y-82019876D01*
X106926119Y-81924638D01*
X106926119Y-81734161D01*
X106973738Y-81638923D01*
X106830880Y-82305590D02*
X106830880Y-83067495D01*
X107592785Y-83305590D02*
X106592785Y-83305590D01*
X107545166Y-83305590D02*
X107592785Y-83400828D01*
X107592785Y-83591304D01*
X107545166Y-83686542D01*
X107497547Y-83734161D01*
X107402309Y-83781780D01*
X107116595Y-83781780D01*
X107021357Y-83734161D01*
X106973738Y-83686542D01*
X106926119Y-83591304D01*
X106926119Y-83400828D01*
X106973738Y-83305590D01*
X106973738Y-84638923D02*
X106926119Y-84543685D01*
X106926119Y-84353209D01*
X106973738Y-84257971D01*
X107021357Y-84210352D01*
X107116595Y-84162733D01*
X107402309Y-84162733D01*
X107497547Y-84210352D01*
X107545166Y-84257971D01*
X107592785Y-84353209D01*
X107592785Y-84543685D01*
X107545166Y-84638923D01*
X106926119Y-85067495D02*
X107926119Y-85067495D01*
X107545166Y-85067495D02*
X107592785Y-85162733D01*
X107592785Y-85353209D01*
X107545166Y-85448447D01*
X107497547Y-85496066D01*
X107402309Y-85543685D01*
X107116595Y-85543685D01*
X107021357Y-85496066D01*
X106973738Y-85448447D01*
X106926119Y-85353209D01*
X106926119Y-85162733D01*
X106973738Y-85067495D01*
D11*
X105533938Y-58224423D02*
X107533938Y-58224423D01*
X106105366Y-58891090D01*
X107533938Y-59557757D01*
X105533938Y-59557757D01*
X107533938Y-61462519D02*
X107533938Y-60510138D01*
X106581557Y-60414900D01*
X106676795Y-60510138D01*
X106772033Y-60700614D01*
X106772033Y-61176804D01*
X106676795Y-61367280D01*
X106581557Y-61462519D01*
X106391080Y-61557757D01*
X105914890Y-61557757D01*
X105724414Y-61462519D01*
X105629176Y-61367280D01*
X105533938Y-61176804D01*
X105533938Y-60700614D01*
X105629176Y-60510138D01*
X105724414Y-60414900D01*
X105629176Y-62319661D02*
X105533938Y-62605376D01*
X105533938Y-63081566D01*
X105629176Y-63272042D01*
X105724414Y-63367280D01*
X105914890Y-63462519D01*
X106105366Y-63462519D01*
X106295842Y-63367280D01*
X106391080Y-63272042D01*
X106486319Y-63081566D01*
X106581557Y-62700614D01*
X106676795Y-62510138D01*
X106772033Y-62414900D01*
X106962509Y-62319661D01*
X107152985Y-62319661D01*
X107343461Y-62414900D01*
X107438700Y-62510138D01*
X107533938Y-62700614D01*
X107533938Y-63176804D01*
X107438700Y-63462519D01*
X106867271Y-64033947D02*
X106867271Y-64795852D01*
X107533938Y-64319661D02*
X105819652Y-64319661D01*
X105629176Y-64414900D01*
X105533938Y-64605376D01*
X105533938Y-64795852D01*
X105533938Y-66319661D02*
X106581557Y-66319661D01*
X106772033Y-66224423D01*
X106867271Y-66033947D01*
X106867271Y-65652995D01*
X106772033Y-65462519D01*
X105629176Y-66319661D02*
X105533938Y-66129185D01*
X105533938Y-65652995D01*
X105629176Y-65462519D01*
X105819652Y-65367280D01*
X106010128Y-65367280D01*
X106200604Y-65462519D01*
X106295842Y-65652995D01*
X106295842Y-66129185D01*
X106391080Y-66319661D01*
X105629176Y-68129185D02*
X105533938Y-67938709D01*
X105533938Y-67557757D01*
X105629176Y-67367280D01*
X105724414Y-67272042D01*
X105914890Y-67176804D01*
X106486319Y-67176804D01*
X106676795Y-67272042D01*
X106772033Y-67367280D01*
X106867271Y-67557757D01*
X106867271Y-67938709D01*
X106772033Y-68129185D01*
X105533938Y-68986328D02*
X107533938Y-68986328D01*
X106295842Y-69176804D02*
X105533938Y-69748233D01*
X106867271Y-69748233D02*
X106105366Y-68986328D01*
X105724414Y-71748233D02*
X105629176Y-71652995D01*
X105533938Y-71367280D01*
X105533938Y-71176804D01*
X105629176Y-70891090D01*
X105819652Y-70700614D01*
X106010128Y-70605376D01*
X106391080Y-70510138D01*
X106676795Y-70510138D01*
X107057747Y-70605376D01*
X107248223Y-70700614D01*
X107438700Y-70891090D01*
X107533938Y-71176804D01*
X107533938Y-71367280D01*
X107438700Y-71652995D01*
X107343461Y-71748233D01*
X105533938Y-73462519D02*
X106581557Y-73462519D01*
X106772033Y-73367280D01*
X106867271Y-73176804D01*
X106867271Y-72795852D01*
X106772033Y-72605376D01*
X105629176Y-73462519D02*
X105533938Y-73272042D01*
X105533938Y-72795852D01*
X105629176Y-72605376D01*
X105819652Y-72510138D01*
X106010128Y-72510138D01*
X106200604Y-72605376D01*
X106295842Y-72795852D01*
X106295842Y-73272042D01*
X106391080Y-73462519D01*
X106867271Y-74224423D02*
X105533938Y-74700614D01*
X106867271Y-75176804D01*
X105533938Y-75938709D02*
X106867271Y-75938709D01*
X107533938Y-75938709D02*
X107438700Y-75843471D01*
X107343461Y-75938709D01*
X107438700Y-76033947D01*
X107533938Y-75938709D01*
X107343461Y-75938709D01*
X106867271Y-76605376D02*
X106867271Y-77367280D01*
X107533938Y-76891090D02*
X105819652Y-76891090D01*
X105629176Y-76986328D01*
X105533938Y-77176804D01*
X105533938Y-77367280D01*
X106867271Y-77843471D02*
X105533938Y-78319661D01*
X106867271Y-78795852D02*
X105533938Y-78319661D01*
X105057747Y-78129185D01*
X104962509Y-78033947D01*
X104867271Y-77843471D01*
D10*
X104983019Y-80593109D02*
X105459209Y-80259776D01*
X104983019Y-80021680D02*
X105983019Y-80021680D01*
X105983019Y-80402633D01*
X105935400Y-80497871D01*
X105887780Y-80545490D01*
X105792542Y-80593109D01*
X105649685Y-80593109D01*
X105554447Y-80545490D01*
X105506828Y-80497871D01*
X105459209Y-80402633D01*
X105459209Y-80021680D01*
X105030638Y-81402633D02*
X104983019Y-81307395D01*
X104983019Y-81116919D01*
X105030638Y-81021680D01*
X105125876Y-80974061D01*
X105506828Y-80974061D01*
X105602066Y-81021680D01*
X105649685Y-81116919D01*
X105649685Y-81307395D01*
X105602066Y-81402633D01*
X105506828Y-81450252D01*
X105411590Y-81450252D01*
X105316352Y-80974061D01*
X105649685Y-81783585D02*
X104983019Y-82021680D01*
X105649685Y-82259776D01*
X105887780Y-83355014D02*
X105935400Y-83402633D01*
X105983019Y-83497871D01*
X105983019Y-83735966D01*
X105935400Y-83831204D01*
X105887780Y-83878823D01*
X105792542Y-83926442D01*
X105697304Y-83926442D01*
X105554447Y-83878823D01*
X104983019Y-83307395D01*
X104983019Y-83926442D01*
X105983019Y-84545490D02*
X105983019Y-84640728D01*
X105935400Y-84735966D01*
X105887780Y-84783585D01*
X105792542Y-84831204D01*
X105602066Y-84878823D01*
X105363971Y-84878823D01*
X105173495Y-84831204D01*
X105078257Y-84783585D01*
X105030638Y-84735966D01*
X104983019Y-84640728D01*
X104983019Y-84545490D01*
X105030638Y-84450252D01*
X105078257Y-84402633D01*
X105173495Y-84355014D01*
X105363971Y-84307395D01*
X105602066Y-84307395D01*
X105792542Y-84355014D01*
X105887780Y-84402633D01*
X105935400Y-84450252D01*
X105983019Y-84545490D01*
X104983019Y-85831204D02*
X104983019Y-85259776D01*
X104983019Y-85545490D02*
X105983019Y-85545490D01*
X105840161Y-85450252D01*
X105744923Y-85355014D01*
X105697304Y-85259776D01*
X104983019Y-86307395D02*
X104983019Y-86497871D01*
X105030638Y-86593109D01*
X105078257Y-86640728D01*
X105221114Y-86735966D01*
X105411590Y-86783585D01*
X105792542Y-86783585D01*
X105887780Y-86735966D01*
X105935400Y-86688347D01*
X105983019Y-86593109D01*
X105983019Y-86402633D01*
X105935400Y-86307395D01*
X105887780Y-86259776D01*
X105792542Y-86212157D01*
X105554447Y-86212157D01*
X105459209Y-86259776D01*
X105411590Y-86307395D01*
X105363971Y-86402633D01*
X105363971Y-86593109D01*
X105411590Y-86688347D01*
X105459209Y-86735966D01*
X105554447Y-86783585D01*
X105078257Y-87212157D02*
X105030638Y-87259776D01*
X104983019Y-87212157D01*
X105030638Y-87164538D01*
X105078257Y-87212157D01*
X104983019Y-87212157D01*
X105983019Y-87878823D02*
X105983019Y-87974061D01*
X105935400Y-88069300D01*
X105887780Y-88116919D01*
X105792542Y-88164538D01*
X105602066Y-88212157D01*
X105363971Y-88212157D01*
X105173495Y-88164538D01*
X105078257Y-88116919D01*
X105030638Y-88069300D01*
X104983019Y-87974061D01*
X104983019Y-87878823D01*
X105030638Y-87783585D01*
X105078257Y-87735966D01*
X105173495Y-87688347D01*
X105363971Y-87640728D01*
X105602066Y-87640728D01*
X105792542Y-87688347D01*
X105887780Y-87735966D01*
X105935400Y-87783585D01*
X105983019Y-87878823D01*
X105983019Y-89116919D02*
X105983019Y-88640728D01*
X105506828Y-88593109D01*
X105554447Y-88640728D01*
X105602066Y-88735966D01*
X105602066Y-88974061D01*
X105554447Y-89069300D01*
X105506828Y-89116919D01*
X105411590Y-89164538D01*
X105173495Y-89164538D01*
X105078257Y-89116919D01*
X105030638Y-89069300D01*
X104983019Y-88974061D01*
X104983019Y-88735966D01*
X105030638Y-88640728D01*
X105078257Y-88593109D01*
X102341419Y-58318904D02*
X103341419Y-58318904D01*
X102341419Y-58747476D02*
X102865228Y-58747476D01*
X102960466Y-58699857D01*
X103008085Y-58604619D01*
X103008085Y-58461761D01*
X102960466Y-58366523D01*
X102912847Y-58318904D01*
X103008085Y-59080809D02*
X103008085Y-59461761D01*
X103341419Y-59223666D02*
X102484276Y-59223666D01*
X102389038Y-59271285D01*
X102341419Y-59366523D01*
X102341419Y-59461761D01*
X103008085Y-59652238D02*
X103008085Y-60033190D01*
X103341419Y-59795095D02*
X102484276Y-59795095D01*
X102389038Y-59842714D01*
X102341419Y-59937952D01*
X102341419Y-60033190D01*
X103008085Y-60366523D02*
X102008085Y-60366523D01*
X102960466Y-60366523D02*
X103008085Y-60461761D01*
X103008085Y-60652238D01*
X102960466Y-60747476D01*
X102912847Y-60795095D01*
X102817609Y-60842714D01*
X102531895Y-60842714D01*
X102436657Y-60795095D01*
X102389038Y-60747476D01*
X102341419Y-60652238D01*
X102341419Y-60461761D01*
X102389038Y-60366523D01*
X102389038Y-61223666D02*
X102341419Y-61318904D01*
X102341419Y-61509380D01*
X102389038Y-61604619D01*
X102484276Y-61652238D01*
X102531895Y-61652238D01*
X102627133Y-61604619D01*
X102674752Y-61509380D01*
X102674752Y-61366523D01*
X102722371Y-61271285D01*
X102817609Y-61223666D01*
X102865228Y-61223666D01*
X102960466Y-61271285D01*
X103008085Y-61366523D01*
X103008085Y-61509380D01*
X102960466Y-61604619D01*
X102436657Y-62080809D02*
X102389038Y-62128428D01*
X102341419Y-62080809D01*
X102389038Y-62033190D01*
X102436657Y-62080809D01*
X102341419Y-62080809D01*
X102960466Y-62080809D02*
X102912847Y-62128428D01*
X102865228Y-62080809D01*
X102912847Y-62033190D01*
X102960466Y-62080809D01*
X102865228Y-62080809D01*
X103389038Y-63271285D02*
X102103323Y-62414142D01*
X103389038Y-64318904D02*
X102103323Y-63461761D01*
X103008085Y-65080809D02*
X102198561Y-65080809D01*
X102103323Y-65033190D01*
X102055704Y-64985571D01*
X102008085Y-64890333D01*
X102008085Y-64747476D01*
X102055704Y-64652238D01*
X102389038Y-65080809D02*
X102341419Y-64985571D01*
X102341419Y-64795095D01*
X102389038Y-64699857D01*
X102436657Y-64652238D01*
X102531895Y-64604619D01*
X102817609Y-64604619D01*
X102912847Y-64652238D01*
X102960466Y-64699857D01*
X103008085Y-64795095D01*
X103008085Y-64985571D01*
X102960466Y-65080809D01*
X102341419Y-65557000D02*
X103008085Y-65557000D01*
X103341419Y-65557000D02*
X103293800Y-65509380D01*
X103246180Y-65557000D01*
X103293800Y-65604619D01*
X103341419Y-65557000D01*
X103246180Y-65557000D01*
X103008085Y-65890333D02*
X103008085Y-66271285D01*
X103341419Y-66033190D02*
X102484276Y-66033190D01*
X102389038Y-66080809D01*
X102341419Y-66176047D01*
X102341419Y-66271285D01*
X102341419Y-66604619D02*
X103341419Y-66604619D01*
X102341419Y-67033190D02*
X102865228Y-67033190D01*
X102960466Y-66985571D01*
X103008085Y-66890333D01*
X103008085Y-66747476D01*
X102960466Y-66652238D01*
X102912847Y-66604619D01*
X103008085Y-67937952D02*
X102341419Y-67937952D01*
X103008085Y-67509380D02*
X102484276Y-67509380D01*
X102389038Y-67557000D01*
X102341419Y-67652238D01*
X102341419Y-67795095D01*
X102389038Y-67890333D01*
X102436657Y-67937952D01*
X102341419Y-68414142D02*
X103341419Y-68414142D01*
X102960466Y-68414142D02*
X103008085Y-68509380D01*
X103008085Y-68699857D01*
X102960466Y-68795095D01*
X102912847Y-68842714D01*
X102817609Y-68890333D01*
X102531895Y-68890333D01*
X102436657Y-68842714D01*
X102389038Y-68795095D01*
X102341419Y-68699857D01*
X102341419Y-68509380D01*
X102389038Y-68414142D01*
X102436657Y-69318904D02*
X102389038Y-69366523D01*
X102341419Y-69318904D01*
X102389038Y-69271285D01*
X102436657Y-69318904D01*
X102341419Y-69318904D01*
X102389038Y-70223666D02*
X102341419Y-70128428D01*
X102341419Y-69937952D01*
X102389038Y-69842714D01*
X102436657Y-69795095D01*
X102531895Y-69747476D01*
X102817609Y-69747476D01*
X102912847Y-69795095D01*
X102960466Y-69842714D01*
X103008085Y-69937952D01*
X103008085Y-70128428D01*
X102960466Y-70223666D01*
X102341419Y-70795095D02*
X102389038Y-70699857D01*
X102436657Y-70652238D01*
X102531895Y-70604619D01*
X102817609Y-70604619D01*
X102912847Y-70652238D01*
X102960466Y-70699857D01*
X103008085Y-70795095D01*
X103008085Y-70937952D01*
X102960466Y-71033190D01*
X102912847Y-71080809D01*
X102817609Y-71128428D01*
X102531895Y-71128428D01*
X102436657Y-71080809D01*
X102389038Y-71033190D01*
X102341419Y-70937952D01*
X102341419Y-70795095D01*
X102341419Y-71557000D02*
X103008085Y-71557000D01*
X102912847Y-71557000D02*
X102960466Y-71604619D01*
X103008085Y-71699857D01*
X103008085Y-71842714D01*
X102960466Y-71937952D01*
X102865228Y-71985571D01*
X102341419Y-71985571D01*
X102865228Y-71985571D02*
X102960466Y-72033190D01*
X103008085Y-72128428D01*
X103008085Y-72271285D01*
X102960466Y-72366523D01*
X102865228Y-72414142D01*
X102341419Y-72414142D01*
X103389038Y-73604619D02*
X102103323Y-72747476D01*
X102341419Y-74366523D02*
X102865228Y-74366523D01*
X102960466Y-74318904D01*
X103008085Y-74223666D01*
X103008085Y-74033190D01*
X102960466Y-73937952D01*
X102389038Y-74366523D02*
X102341419Y-74271285D01*
X102341419Y-74033190D01*
X102389038Y-73937952D01*
X102484276Y-73890333D01*
X102579514Y-73890333D01*
X102674752Y-73937952D01*
X102722371Y-74033190D01*
X102722371Y-74271285D01*
X102769990Y-74366523D01*
X102389038Y-74795095D02*
X102341419Y-74890333D01*
X102341419Y-75080809D01*
X102389038Y-75176047D01*
X102484276Y-75223666D01*
X102531895Y-75223666D01*
X102627133Y-75176047D01*
X102674752Y-75080809D01*
X102674752Y-74937952D01*
X102722371Y-74842714D01*
X102817609Y-74795095D01*
X102865228Y-74795095D01*
X102960466Y-74842714D01*
X103008085Y-74937952D01*
X103008085Y-75080809D01*
X102960466Y-75176047D01*
X103008085Y-76080809D02*
X102341419Y-76080809D01*
X103008085Y-75652238D02*
X102484276Y-75652238D01*
X102389038Y-75699857D01*
X102341419Y-75795095D01*
X102341419Y-75937952D01*
X102389038Y-76033190D01*
X102436657Y-76080809D01*
X102341419Y-76557000D02*
X103341419Y-76557000D01*
X102722371Y-76652238D02*
X102341419Y-76937952D01*
X103008085Y-76937952D02*
X102627133Y-76557000D01*
X102341419Y-77366523D02*
X103008085Y-77366523D01*
X103341419Y-77366523D02*
X103293800Y-77318904D01*
X103246180Y-77366523D01*
X103293800Y-77414142D01*
X103341419Y-77366523D01*
X103246180Y-77366523D01*
X102341419Y-78271285D02*
X102865228Y-78271285D01*
X102960466Y-78223666D01*
X103008085Y-78128428D01*
X103008085Y-77937952D01*
X102960466Y-77842714D01*
X102389038Y-78271285D02*
X102341419Y-78176047D01*
X102341419Y-77937952D01*
X102389038Y-77842714D01*
X102484276Y-77795095D01*
X102579514Y-77795095D01*
X102674752Y-77842714D01*
X102722371Y-77937952D01*
X102722371Y-78176047D01*
X102769990Y-78271285D01*
X102341419Y-79176047D02*
X102865228Y-79176047D01*
X102960466Y-79128428D01*
X103008085Y-79033190D01*
X103008085Y-78842714D01*
X102960466Y-78747476D01*
X102389038Y-79176047D02*
X102341419Y-79080809D01*
X102341419Y-78842714D01*
X102389038Y-78747476D01*
X102484276Y-78699857D01*
X102579514Y-78699857D01*
X102674752Y-78747476D01*
X102722371Y-78842714D01*
X102722371Y-79080809D01*
X102769990Y-79176047D01*
X102341419Y-80080809D02*
X102865228Y-80080809D01*
X102960466Y-80033190D01*
X103008085Y-79937952D01*
X103008085Y-79747476D01*
X102960466Y-79652238D01*
X102389038Y-80080809D02*
X102341419Y-79985571D01*
X102341419Y-79747476D01*
X102389038Y-79652238D01*
X102484276Y-79604619D01*
X102579514Y-79604619D01*
X102674752Y-79652238D01*
X102722371Y-79747476D01*
X102722371Y-79985571D01*
X102769990Y-80080809D01*
X103389038Y-81271285D02*
X102103323Y-80414142D01*
X102341419Y-81604619D02*
X103341419Y-81604619D01*
X102627133Y-81937952D01*
X103341419Y-82271285D01*
X102341419Y-82271285D01*
X103341419Y-83223666D02*
X103341419Y-82747476D01*
X102865228Y-82699857D01*
X102912847Y-82747476D01*
X102960466Y-82842714D01*
X102960466Y-83080809D01*
X102912847Y-83176047D01*
X102865228Y-83223666D01*
X102769990Y-83271285D01*
X102531895Y-83271285D01*
X102436657Y-83223666D01*
X102389038Y-83176047D01*
X102341419Y-83080809D01*
X102341419Y-82842714D01*
X102389038Y-82747476D01*
X102436657Y-82699857D01*
X102389038Y-83652238D02*
X102341419Y-83795095D01*
X102341419Y-84033190D01*
X102389038Y-84128428D01*
X102436657Y-84176047D01*
X102531895Y-84223666D01*
X102627133Y-84223666D01*
X102722371Y-84176047D01*
X102769990Y-84128428D01*
X102817609Y-84033190D01*
X102865228Y-83842714D01*
X102912847Y-83747476D01*
X102960466Y-83699857D01*
X103055704Y-83652238D01*
X103150942Y-83652238D01*
X103246180Y-83699857D01*
X103293800Y-83747476D01*
X103341419Y-83842714D01*
X103341419Y-84080809D01*
X103293800Y-84223666D01*
X103008085Y-84509380D02*
X103008085Y-84890333D01*
X103341419Y-84652238D02*
X102484276Y-84652238D01*
X102389038Y-84699857D01*
X102341419Y-84795095D01*
X102341419Y-84890333D01*
X102341419Y-85652238D02*
X102865228Y-85652238D01*
X102960466Y-85604619D01*
X103008085Y-85509380D01*
X103008085Y-85318904D01*
X102960466Y-85223666D01*
X102389038Y-85652238D02*
X102341419Y-85556999D01*
X102341419Y-85318904D01*
X102389038Y-85223666D01*
X102484276Y-85176047D01*
X102579514Y-85176047D01*
X102674752Y-85223666D01*
X102722371Y-85318904D01*
X102722371Y-85556999D01*
X102769990Y-85652238D01*
X102389038Y-86556999D02*
X102341419Y-86461761D01*
X102341419Y-86271285D01*
X102389038Y-86176047D01*
X102436657Y-86128428D01*
X102531895Y-86080809D01*
X102817609Y-86080809D01*
X102912847Y-86128428D01*
X102960466Y-86176047D01*
X103008085Y-86271285D01*
X103008085Y-86461761D01*
X102960466Y-86556999D01*
X102341419Y-86985571D02*
X103341419Y-86985571D01*
X102722371Y-87080809D02*
X102341419Y-87366523D01*
X103008085Y-87366523D02*
X102627133Y-86985571D01*
X102436657Y-88366523D02*
X102389038Y-88318904D01*
X102341419Y-88176047D01*
X102341419Y-88080809D01*
X102389038Y-87937952D01*
X102484276Y-87842714D01*
X102579514Y-87795095D01*
X102769990Y-87747476D01*
X102912847Y-87747476D01*
X103103323Y-87795095D01*
X103198561Y-87842714D01*
X103293800Y-87937952D01*
X103341419Y-88080809D01*
X103341419Y-88176047D01*
X103293800Y-88318904D01*
X103246180Y-88366523D01*
X102341419Y-89223666D02*
X102865228Y-89223666D01*
X102960466Y-89176047D01*
X103008085Y-89080809D01*
X103008085Y-88890333D01*
X102960466Y-88795095D01*
X102389038Y-89223666D02*
X102341419Y-89128428D01*
X102341419Y-88890333D01*
X102389038Y-88795095D01*
X102484276Y-88747476D01*
X102579514Y-88747476D01*
X102674752Y-88795095D01*
X102722371Y-88890333D01*
X102722371Y-89128428D01*
X102769990Y-89223666D01*
X103008085Y-89604619D02*
X102341419Y-89842714D01*
X103008085Y-90080809D01*
X102341419Y-90461761D02*
X103008085Y-90461761D01*
X103341419Y-90461761D02*
X103293800Y-90414142D01*
X103246180Y-90461761D01*
X103293800Y-90509380D01*
X103341419Y-90461761D01*
X103246180Y-90461761D01*
X103008085Y-90795095D02*
X103008085Y-91176047D01*
X103341419Y-90937952D02*
X102484276Y-90937952D01*
X102389038Y-90985571D01*
X102341419Y-91080809D01*
X102341419Y-91176047D01*
X103008085Y-91414142D02*
X102341419Y-91652238D01*
X103008085Y-91890333D02*
X102341419Y-91652238D01*
X102103323Y-91556999D01*
X102055704Y-91509380D01*
X102008085Y-91414142D01*
D12*
G04 #@! TO.C,OSHWREF2*
G36*
X111687132Y-59769560D02*
X111669726Y-59804792D01*
X111639394Y-59848240D01*
X111606317Y-59879906D01*
X111564783Y-59901594D01*
X111509078Y-59915103D01*
X111433489Y-59922238D01*
X111332304Y-59924800D01*
X111288803Y-59924950D01*
X111193465Y-59924512D01*
X111125329Y-59922696D01*
X111078182Y-59918745D01*
X111045810Y-59911902D01*
X111022000Y-59901411D01*
X111005757Y-59890496D01*
X110936648Y-59820819D01*
X110895079Y-59738766D01*
X110882577Y-59650250D01*
X110900666Y-59561181D01*
X110913458Y-59532963D01*
X110948669Y-59465410D01*
X110396900Y-59465410D01*
X110422395Y-59514712D01*
X110442120Y-59579673D01*
X110447173Y-59659520D01*
X110437844Y-59739252D01*
X110416886Y-59799465D01*
X110376973Y-59849408D01*
X110319859Y-59892081D01*
X110313995Y-59895290D01*
X110286373Y-59908822D01*
X110258532Y-59918705D01*
X110224806Y-59925509D01*
X110179529Y-59929801D01*
X110117038Y-59932151D01*
X110031665Y-59933128D01*
X109935590Y-59933305D01*
X109629074Y-59933305D01*
X109629074Y-59749489D01*
X110194261Y-59749489D01*
X110237523Y-59698075D01*
X110272128Y-59644666D01*
X110278420Y-59594088D01*
X110262228Y-59543230D01*
X110246373Y-59516125D01*
X110223790Y-59495951D01*
X110189660Y-59481603D01*
X110139166Y-59471976D01*
X110067489Y-59465963D01*
X109969812Y-59462460D01*
X109904798Y-59461226D01*
X109637429Y-59457055D01*
X109632378Y-59369325D01*
X109627327Y-59281594D01*
X111286499Y-59281594D01*
X111286499Y-59465410D01*
X111194000Y-59470096D01*
X111129791Y-59485888D01*
X111089841Y-59515383D01*
X111070120Y-59561180D01*
X111066179Y-59607450D01*
X111070708Y-59659828D01*
X111088531Y-59694590D01*
X111112081Y-59716328D01*
X111137411Y-59733440D01*
X111165631Y-59743627D01*
X111205169Y-59748160D01*
X111264458Y-59748309D01*
X111314102Y-59746784D01*
X111388890Y-59743281D01*
X111437989Y-59738067D01*
X111469133Y-59729287D01*
X111490055Y-59715086D01*
X111502148Y-59701684D01*
X111528519Y-59645687D01*
X111532778Y-59579411D01*
X111523694Y-59541356D01*
X111491404Y-59503677D01*
X111428594Y-59478719D01*
X111335706Y-59466622D01*
X111286499Y-59465410D01*
X111286499Y-59281594D01*
X111701179Y-59281594D01*
X111701179Y-59373502D01*
X111698997Y-59428683D01*
X111691249Y-59457152D01*
X111676132Y-59465406D01*
X111675684Y-59465410D01*
X111660880Y-59469240D01*
X111662561Y-59486133D01*
X111678828Y-59519719D01*
X111703713Y-59597978D01*
X111706329Y-59686027D01*
X111687132Y-59769560D01*
X111687132Y-59769560D01*
G37*
X111687132Y-59769560D02*
X111669726Y-59804792D01*
X111639394Y-59848240D01*
X111606317Y-59879906D01*
X111564783Y-59901594D01*
X111509078Y-59915103D01*
X111433489Y-59922238D01*
X111332304Y-59924800D01*
X111288803Y-59924950D01*
X111193465Y-59924512D01*
X111125329Y-59922696D01*
X111078182Y-59918745D01*
X111045810Y-59911902D01*
X111022000Y-59901411D01*
X111005757Y-59890496D01*
X110936648Y-59820819D01*
X110895079Y-59738766D01*
X110882577Y-59650250D01*
X110900666Y-59561181D01*
X110913458Y-59532963D01*
X110948669Y-59465410D01*
X110396900Y-59465410D01*
X110422395Y-59514712D01*
X110442120Y-59579673D01*
X110447173Y-59659520D01*
X110437844Y-59739252D01*
X110416886Y-59799465D01*
X110376973Y-59849408D01*
X110319859Y-59892081D01*
X110313995Y-59895290D01*
X110286373Y-59908822D01*
X110258532Y-59918705D01*
X110224806Y-59925509D01*
X110179529Y-59929801D01*
X110117038Y-59932151D01*
X110031665Y-59933128D01*
X109935590Y-59933305D01*
X109629074Y-59933305D01*
X109629074Y-59749489D01*
X110194261Y-59749489D01*
X110237523Y-59698075D01*
X110272128Y-59644666D01*
X110278420Y-59594088D01*
X110262228Y-59543230D01*
X110246373Y-59516125D01*
X110223790Y-59495951D01*
X110189660Y-59481603D01*
X110139166Y-59471976D01*
X110067489Y-59465963D01*
X109969812Y-59462460D01*
X109904798Y-59461226D01*
X109637429Y-59457055D01*
X109632378Y-59369325D01*
X109627327Y-59281594D01*
X111286499Y-59281594D01*
X111286499Y-59465410D01*
X111194000Y-59470096D01*
X111129791Y-59485888D01*
X111089841Y-59515383D01*
X111070120Y-59561180D01*
X111066179Y-59607450D01*
X111070708Y-59659828D01*
X111088531Y-59694590D01*
X111112081Y-59716328D01*
X111137411Y-59733440D01*
X111165631Y-59743627D01*
X111205169Y-59748160D01*
X111264458Y-59748309D01*
X111314102Y-59746784D01*
X111388890Y-59743281D01*
X111437989Y-59738067D01*
X111469133Y-59729287D01*
X111490055Y-59715086D01*
X111502148Y-59701684D01*
X111528519Y-59645687D01*
X111532778Y-59579411D01*
X111523694Y-59541356D01*
X111491404Y-59503677D01*
X111428594Y-59478719D01*
X111335706Y-59466622D01*
X111286499Y-59465410D01*
X111286499Y-59281594D01*
X111701179Y-59281594D01*
X111701179Y-59373502D01*
X111698997Y-59428683D01*
X111691249Y-59457152D01*
X111676132Y-59465406D01*
X111675684Y-59465410D01*
X111660880Y-59469240D01*
X111662561Y-59486133D01*
X111678828Y-59519719D01*
X111703713Y-59597978D01*
X111706329Y-59686027D01*
X111687132Y-59769560D01*
G36*
X110441416Y-60466657D02*
X110420440Y-60545270D01*
X110382420Y-60605116D01*
X110332622Y-60647347D01*
X110311370Y-60660475D01*
X110289108Y-60670168D01*
X110260630Y-60676944D01*
X110220729Y-60681323D01*
X110164199Y-60683824D01*
X110085833Y-60684968D01*
X109980424Y-60685272D01*
X109952458Y-60685278D01*
X109629074Y-60685278D01*
X109629074Y-60605068D01*
X109632657Y-60553906D01*
X109641734Y-60516077D01*
X109647332Y-60506599D01*
X109656994Y-60480688D01*
X109647332Y-60454224D01*
X109635270Y-60410652D01*
X109630415Y-60347360D01*
X109632522Y-60277210D01*
X109641344Y-60213060D01*
X109652663Y-60175607D01*
X109699188Y-60103133D01*
X109763754Y-60057840D01*
X109849600Y-60037478D01*
X109851804Y-60037288D01*
X109889887Y-60039075D01*
X109889887Y-60200673D01*
X109846570Y-60214801D01*
X109822192Y-60237812D01*
X109803755Y-60284004D01*
X109796395Y-60344975D01*
X109800017Y-60407149D01*
X109814526Y-60456951D01*
X109823835Y-60470903D01*
X109866847Y-60495285D01*
X109915743Y-60501463D01*
X109979995Y-60501463D01*
X109979995Y-60409018D01*
X109973234Y-60321195D01*
X109954080Y-60254618D01*
X109924224Y-60213202D01*
X109889887Y-60200673D01*
X109889887Y-60039075D01*
X109945596Y-60041690D01*
X110019753Y-60072624D01*
X110075833Y-60130781D01*
X110080935Y-60138820D01*
X110097545Y-60173363D01*
X110107604Y-60216118D01*
X110112493Y-60275886D01*
X110113617Y-60346890D01*
X110113679Y-60501463D01*
X110178475Y-60501463D01*
X110228750Y-60494906D01*
X110262431Y-60478175D01*
X110264224Y-60476216D01*
X110278958Y-60438983D01*
X110284669Y-60382780D01*
X110281863Y-60320667D01*
X110271044Y-60265710D01*
X110254818Y-60233099D01*
X110241820Y-60215428D01*
X110239338Y-60196769D01*
X110249987Y-60171019D01*
X110276382Y-60132073D01*
X110321135Y-60073830D01*
X110325327Y-60068484D01*
X110340840Y-60071223D01*
X110366640Y-60094076D01*
X110395311Y-60128809D01*
X110419434Y-60167190D01*
X110425130Y-60179248D01*
X110436497Y-60223234D01*
X110444605Y-60287687D01*
X110447857Y-60359697D01*
X110447864Y-60363064D01*
X110441416Y-60466657D01*
X110441416Y-60466657D01*
G37*
X110441416Y-60466657D02*
X110420440Y-60545270D01*
X110382420Y-60605116D01*
X110332622Y-60647347D01*
X110311370Y-60660475D01*
X110289108Y-60670168D01*
X110260630Y-60676944D01*
X110220729Y-60681323D01*
X110164199Y-60683824D01*
X110085833Y-60684968D01*
X109980424Y-60685272D01*
X109952458Y-60685278D01*
X109629074Y-60685278D01*
X109629074Y-60605068D01*
X109632657Y-60553906D01*
X109641734Y-60516077D01*
X109647332Y-60506599D01*
X109656994Y-60480688D01*
X109647332Y-60454224D01*
X109635270Y-60410652D01*
X109630415Y-60347360D01*
X109632522Y-60277210D01*
X109641344Y-60213060D01*
X109652663Y-60175607D01*
X109699188Y-60103133D01*
X109763754Y-60057840D01*
X109849600Y-60037478D01*
X109851804Y-60037288D01*
X109889887Y-60039075D01*
X109889887Y-60200673D01*
X109846570Y-60214801D01*
X109822192Y-60237812D01*
X109803755Y-60284004D01*
X109796395Y-60344975D01*
X109800017Y-60407149D01*
X109814526Y-60456951D01*
X109823835Y-60470903D01*
X109866847Y-60495285D01*
X109915743Y-60501463D01*
X109979995Y-60501463D01*
X109979995Y-60409018D01*
X109973234Y-60321195D01*
X109954080Y-60254618D01*
X109924224Y-60213202D01*
X109889887Y-60200673D01*
X109889887Y-60039075D01*
X109945596Y-60041690D01*
X110019753Y-60072624D01*
X110075833Y-60130781D01*
X110080935Y-60138820D01*
X110097545Y-60173363D01*
X110107604Y-60216118D01*
X110112493Y-60275886D01*
X110113617Y-60346890D01*
X110113679Y-60501463D01*
X110178475Y-60501463D01*
X110228750Y-60494906D01*
X110262431Y-60478175D01*
X110264224Y-60476216D01*
X110278958Y-60438983D01*
X110284669Y-60382780D01*
X110281863Y-60320667D01*
X110271044Y-60265710D01*
X110254818Y-60233099D01*
X110241820Y-60215428D01*
X110239338Y-60196769D01*
X110249987Y-60171019D01*
X110276382Y-60132073D01*
X110321135Y-60073830D01*
X110325327Y-60068484D01*
X110340840Y-60071223D01*
X110366640Y-60094076D01*
X110395311Y-60128809D01*
X110419434Y-60167190D01*
X110425130Y-60179248D01*
X110436497Y-60223234D01*
X110444605Y-60287687D01*
X110447857Y-60359697D01*
X110447864Y-60363064D01*
X110441416Y-60466657D01*
G36*
X110446114Y-60986081D02*
X110438618Y-61011088D01*
X110422149Y-61019150D01*
X110414714Y-61019489D01*
X110394006Y-61020936D01*
X110390755Y-61030898D01*
X110404952Y-61057812D01*
X110414652Y-61073798D01*
X110435425Y-61124233D01*
X110445696Y-61184472D01*
X110446486Y-61247634D01*
X110438814Y-61306837D01*
X110423702Y-61355202D01*
X110402168Y-61385846D01*
X110375234Y-61391889D01*
X110367940Y-61388839D01*
X110337663Y-61366606D01*
X110300425Y-61332130D01*
X110294405Y-61325894D01*
X110266725Y-61293033D01*
X110257782Y-61264680D01*
X110264024Y-61225027D01*
X110268171Y-61209142D01*
X110278133Y-61159709D01*
X110273653Y-61124952D01*
X110257854Y-61095600D01*
X110236651Y-61068713D01*
X110209986Y-61048910D01*
X110172773Y-61035148D01*
X110119927Y-61026384D01*
X110046363Y-61021574D01*
X109946995Y-61019674D01*
X109886999Y-61019489D01*
X109629074Y-61019489D01*
X109629074Y-60852384D01*
X110447890Y-60852384D01*
X110447890Y-60935936D01*
X110446114Y-60986081D01*
X110446114Y-60986081D01*
G37*
X110446114Y-60986081D02*
X110438618Y-61011088D01*
X110422149Y-61019150D01*
X110414714Y-61019489D01*
X110394006Y-61020936D01*
X110390755Y-61030898D01*
X110404952Y-61057812D01*
X110414652Y-61073798D01*
X110435425Y-61124233D01*
X110445696Y-61184472D01*
X110446486Y-61247634D01*
X110438814Y-61306837D01*
X110423702Y-61355202D01*
X110402168Y-61385846D01*
X110375234Y-61391889D01*
X110367940Y-61388839D01*
X110337663Y-61366606D01*
X110300425Y-61332130D01*
X110294405Y-61325894D01*
X110266725Y-61293033D01*
X110257782Y-61264680D01*
X110264024Y-61225027D01*
X110268171Y-61209142D01*
X110278133Y-61159709D01*
X110273653Y-61124952D01*
X110257854Y-61095600D01*
X110236651Y-61068713D01*
X110209986Y-61048910D01*
X110172773Y-61035148D01*
X110119927Y-61026384D01*
X110046363Y-61021574D01*
X109946995Y-61019674D01*
X109886999Y-61019489D01*
X109629074Y-61019489D01*
X109629074Y-60852384D01*
X110447890Y-60852384D01*
X110447890Y-60935936D01*
X110446114Y-60986081D01*
G36*
X109629074Y-62038831D02*
X109629074Y-61946923D01*
X109630638Y-61893577D01*
X109637115Y-61865793D01*
X109651182Y-61855790D01*
X109660694Y-61855015D01*
X109679768Y-61853328D01*
X109683426Y-61842690D01*
X109671668Y-61814735D01*
X109660694Y-61792995D01*
X109634689Y-61709532D01*
X109633184Y-61618804D01*
X109652579Y-61545042D01*
X109699435Y-61476354D01*
X109768596Y-61423994D01*
X109850173Y-61395322D01*
X109854734Y-61394592D01*
X109904499Y-61390332D01*
X109975941Y-61388214D01*
X110029974Y-61388384D01*
X110029974Y-61570920D01*
X109958159Y-61575149D01*
X109898966Y-61584768D01*
X109865540Y-61597790D01*
X109819860Y-61647056D01*
X109803485Y-61705550D01*
X109816727Y-61765871D01*
X109856227Y-61817417D01*
X109882793Y-61836938D01*
X109914494Y-61848352D01*
X109960768Y-61853698D01*
X110030272Y-61855015D01*
X110099101Y-61852658D01*
X110159574Y-61846433D01*
X110200044Y-61837608D01*
X110203671Y-61836137D01*
X110246798Y-61800547D01*
X110270476Y-61748600D01*
X110274299Y-61690478D01*
X110257862Y-61636360D01*
X110220760Y-61596426D01*
X110213378Y-61592283D01*
X110168361Y-61579316D01*
X110103633Y-61572252D01*
X110029974Y-61570920D01*
X110029974Y-61388384D01*
X110057370Y-61388471D01*
X110101195Y-61389672D01*
X110209612Y-61397845D01*
X110291012Y-61414830D01*
X110351188Y-61443087D01*
X110395934Y-61485072D01*
X110422200Y-61525832D01*
X110440665Y-61582781D01*
X110446998Y-61653611D01*
X110441840Y-61726141D01*
X110425831Y-61788186D01*
X110406680Y-61820968D01*
X110375868Y-61855015D01*
X110765390Y-61855015D01*
X110765390Y-62038831D01*
X109629074Y-62038831D01*
X109629074Y-62038831D01*
G37*
X109629074Y-62038831D02*
X109629074Y-61946923D01*
X109630638Y-61893577D01*
X109637115Y-61865793D01*
X109651182Y-61855790D01*
X109660694Y-61855015D01*
X109679768Y-61853328D01*
X109683426Y-61842690D01*
X109671668Y-61814735D01*
X109660694Y-61792995D01*
X109634689Y-61709532D01*
X109633184Y-61618804D01*
X109652579Y-61545042D01*
X109699435Y-61476354D01*
X109768596Y-61423994D01*
X109850173Y-61395322D01*
X109854734Y-61394592D01*
X109904499Y-61390332D01*
X109975941Y-61388214D01*
X110029974Y-61388384D01*
X110029974Y-61570920D01*
X109958159Y-61575149D01*
X109898966Y-61584768D01*
X109865540Y-61597790D01*
X109819860Y-61647056D01*
X109803485Y-61705550D01*
X109816727Y-61765871D01*
X109856227Y-61817417D01*
X109882793Y-61836938D01*
X109914494Y-61848352D01*
X109960768Y-61853698D01*
X110030272Y-61855015D01*
X110099101Y-61852658D01*
X110159574Y-61846433D01*
X110200044Y-61837608D01*
X110203671Y-61836137D01*
X110246798Y-61800547D01*
X110270476Y-61748600D01*
X110274299Y-61690478D01*
X110257862Y-61636360D01*
X110220760Y-61596426D01*
X110213378Y-61592283D01*
X110168361Y-61579316D01*
X110103633Y-61572252D01*
X110029974Y-61570920D01*
X110029974Y-61388384D01*
X110057370Y-61388471D01*
X110101195Y-61389672D01*
X110209612Y-61397845D01*
X110291012Y-61414830D01*
X110351188Y-61443087D01*
X110395934Y-61485072D01*
X110422200Y-61525832D01*
X110440665Y-61582781D01*
X110446998Y-61653611D01*
X110441840Y-61726141D01*
X110425831Y-61788186D01*
X110406680Y-61820968D01*
X110375868Y-61855015D01*
X110765390Y-61855015D01*
X110765390Y-62038831D01*
X109629074Y-62038831D01*
G36*
X110444496Y-62680330D02*
X110439534Y-62746420D01*
X110180521Y-62832826D01*
X109921508Y-62919231D01*
X110013416Y-62946324D01*
X110070216Y-62962628D01*
X110146975Y-62984075D01*
X110231349Y-63007235D01*
X110276607Y-63019480D01*
X110447890Y-63065544D01*
X110447890Y-63255587D01*
X110268251Y-63198782D01*
X110179896Y-63170807D01*
X110073319Y-63137013D01*
X109962146Y-63101720D01*
X109863021Y-63070213D01*
X109637429Y-62998450D01*
X109627347Y-62843486D01*
X109766072Y-62801470D01*
X109852249Y-62775559D01*
X109947253Y-62747283D01*
X110031159Y-62722569D01*
X110034498Y-62721594D01*
X110091352Y-62703135D01*
X110130144Y-62686849D01*
X110144813Y-62675442D01*
X110143117Y-62673098D01*
X110120375Y-62664871D01*
X110071660Y-62649238D01*
X110003098Y-62628104D01*
X109920815Y-62603370D01*
X109875554Y-62589987D01*
X109629074Y-62517511D01*
X109629074Y-62363695D01*
X110017594Y-62240731D01*
X110126578Y-62206188D01*
X110225552Y-62174721D01*
X110309864Y-62147816D01*
X110374866Y-62126959D01*
X110415908Y-62113638D01*
X110427899Y-62109588D01*
X110440177Y-62112794D01*
X110445554Y-62137965D01*
X110445016Y-62190346D01*
X110444610Y-62198545D01*
X110439534Y-62295682D01*
X110205587Y-62359300D01*
X110120267Y-62382684D01*
X110045265Y-62403581D01*
X109987093Y-62420151D01*
X109952263Y-62430554D01*
X109946584Y-62432476D01*
X109953114Y-62440441D01*
X109986946Y-62456504D01*
X110043473Y-62478821D01*
X110118090Y-62505545D01*
X110185493Y-62528137D01*
X110449457Y-62614241D01*
X110444496Y-62680330D01*
X110444496Y-62680330D01*
G37*
X110444496Y-62680330D02*
X110439534Y-62746420D01*
X110180521Y-62832826D01*
X109921508Y-62919231D01*
X110013416Y-62946324D01*
X110070216Y-62962628D01*
X110146975Y-62984075D01*
X110231349Y-63007235D01*
X110276607Y-63019480D01*
X110447890Y-63065544D01*
X110447890Y-63255587D01*
X110268251Y-63198782D01*
X110179896Y-63170807D01*
X110073319Y-63137013D01*
X109962146Y-63101720D01*
X109863021Y-63070213D01*
X109637429Y-62998450D01*
X109627347Y-62843486D01*
X109766072Y-62801470D01*
X109852249Y-62775559D01*
X109947253Y-62747283D01*
X110031159Y-62722569D01*
X110034498Y-62721594D01*
X110091352Y-62703135D01*
X110130144Y-62686849D01*
X110144813Y-62675442D01*
X110143117Y-62673098D01*
X110120375Y-62664871D01*
X110071660Y-62649238D01*
X110003098Y-62628104D01*
X109920815Y-62603370D01*
X109875554Y-62589987D01*
X109629074Y-62517511D01*
X109629074Y-62363695D01*
X110017594Y-62240731D01*
X110126578Y-62206188D01*
X110225552Y-62174721D01*
X110309864Y-62147816D01*
X110374866Y-62126959D01*
X110415908Y-62113638D01*
X110427899Y-62109588D01*
X110440177Y-62112794D01*
X110445554Y-62137965D01*
X110445016Y-62190346D01*
X110444610Y-62198545D01*
X110439534Y-62295682D01*
X110205587Y-62359300D01*
X110120267Y-62382684D01*
X110045265Y-62403581D01*
X109987093Y-62420151D01*
X109952263Y-62430554D01*
X109946584Y-62432476D01*
X109953114Y-62440441D01*
X109986946Y-62456504D01*
X110043473Y-62478821D01*
X110118090Y-62505545D01*
X110185493Y-62528137D01*
X110449457Y-62614241D01*
X110444496Y-62680330D01*
G36*
X110442927Y-63686192D02*
X110425820Y-63756627D01*
X110416756Y-63776987D01*
X110393017Y-63816453D01*
X110366279Y-63846741D01*
X110331901Y-63869152D01*
X110285240Y-63884986D01*
X110221654Y-63895543D01*
X110136501Y-63902124D01*
X110025138Y-63906028D01*
X109950751Y-63907510D01*
X109629074Y-63912965D01*
X109629074Y-63819780D01*
X109631444Y-63763247D01*
X109639545Y-63734122D01*
X109653149Y-63726594D01*
X109667859Y-63722620D01*
X109665046Y-63704852D01*
X109653252Y-63680640D01*
X109635173Y-63620028D01*
X109630301Y-63542129D01*
X109638270Y-63460195D01*
X109658711Y-63387481D01*
X109661549Y-63380959D01*
X109708235Y-63314502D01*
X109773136Y-63270691D01*
X109849000Y-63250532D01*
X109876256Y-63252072D01*
X109876256Y-63416545D01*
X109839576Y-63431037D01*
X109813291Y-63474005D01*
X109799183Y-63543329D01*
X109797310Y-63580377D01*
X109802106Y-63642119D01*
X109820742Y-63683160D01*
X109829600Y-63693173D01*
X109877794Y-63720300D01*
X109921508Y-63726594D01*
X109979995Y-63726594D01*
X109979995Y-63645130D01*
X109975168Y-63550434D01*
X109959987Y-63484013D01*
X109933400Y-63442046D01*
X109921548Y-63432649D01*
X109876256Y-63416545D01*
X109876256Y-63252072D01*
X109928574Y-63255029D01*
X110004605Y-63285185D01*
X110055988Y-63326331D01*
X110078203Y-63351252D01*
X110092802Y-63375648D01*
X110101703Y-63407391D01*
X110106825Y-63454352D01*
X110110085Y-63524404D01*
X110111023Y-63552190D01*
X110116721Y-63726594D01*
X110169509Y-63726338D01*
X110224997Y-63719584D01*
X110258548Y-63695164D01*
X110279982Y-63645830D01*
X110280364Y-63644506D01*
X110288792Y-63574560D01*
X110277784Y-63506114D01*
X110251015Y-63455247D01*
X110237797Y-63434837D01*
X110239626Y-63412854D01*
X110258776Y-63379026D01*
X110272292Y-63359161D01*
X110301168Y-63320306D01*
X110322814Y-63296238D01*
X110329011Y-63292376D01*
X110361081Y-63308279D01*
X110399381Y-63355265D01*
X110412303Y-63375673D01*
X110434559Y-63434343D01*
X110447168Y-63513412D01*
X110450000Y-63601241D01*
X110442927Y-63686192D01*
X110442927Y-63686192D01*
G37*
X110442927Y-63686192D02*
X110425820Y-63756627D01*
X110416756Y-63776987D01*
X110393017Y-63816453D01*
X110366279Y-63846741D01*
X110331901Y-63869152D01*
X110285240Y-63884986D01*
X110221654Y-63895543D01*
X110136501Y-63902124D01*
X110025138Y-63906028D01*
X109950751Y-63907510D01*
X109629074Y-63912965D01*
X109629074Y-63819780D01*
X109631444Y-63763247D01*
X109639545Y-63734122D01*
X109653149Y-63726594D01*
X109667859Y-63722620D01*
X109665046Y-63704852D01*
X109653252Y-63680640D01*
X109635173Y-63620028D01*
X109630301Y-63542129D01*
X109638270Y-63460195D01*
X109658711Y-63387481D01*
X109661549Y-63380959D01*
X109708235Y-63314502D01*
X109773136Y-63270691D01*
X109849000Y-63250532D01*
X109876256Y-63252072D01*
X109876256Y-63416545D01*
X109839576Y-63431037D01*
X109813291Y-63474005D01*
X109799183Y-63543329D01*
X109797310Y-63580377D01*
X109802106Y-63642119D01*
X109820742Y-63683160D01*
X109829600Y-63693173D01*
X109877794Y-63720300D01*
X109921508Y-63726594D01*
X109979995Y-63726594D01*
X109979995Y-63645130D01*
X109975168Y-63550434D01*
X109959987Y-63484013D01*
X109933400Y-63442046D01*
X109921548Y-63432649D01*
X109876256Y-63416545D01*
X109876256Y-63252072D01*
X109928574Y-63255029D01*
X110004605Y-63285185D01*
X110055988Y-63326331D01*
X110078203Y-63351252D01*
X110092802Y-63375648D01*
X110101703Y-63407391D01*
X110106825Y-63454352D01*
X110110085Y-63524404D01*
X110111023Y-63552190D01*
X110116721Y-63726594D01*
X110169509Y-63726338D01*
X110224997Y-63719584D01*
X110258548Y-63695164D01*
X110279982Y-63645830D01*
X110280364Y-63644506D01*
X110288792Y-63574560D01*
X110277784Y-63506114D01*
X110251015Y-63455247D01*
X110237797Y-63434837D01*
X110239626Y-63412854D01*
X110258776Y-63379026D01*
X110272292Y-63359161D01*
X110301168Y-63320306D01*
X110322814Y-63296238D01*
X110329011Y-63292376D01*
X110361081Y-63308279D01*
X110399381Y-63355265D01*
X110412303Y-63375673D01*
X110434559Y-63434343D01*
X110447168Y-63513412D01*
X110450000Y-63601241D01*
X110442927Y-63686192D01*
G36*
X110448153Y-64479367D02*
X110435488Y-64543608D01*
X110416736Y-64580180D01*
X110385583Y-64618653D01*
X110316473Y-64563917D01*
X110274621Y-64530169D01*
X110254202Y-64507253D01*
X110251083Y-64484479D01*
X110261128Y-64451156D01*
X110266811Y-64435514D01*
X110275196Y-64371742D01*
X110257222Y-64313340D01*
X110216618Y-64270464D01*
X110203671Y-64263499D01*
X110169376Y-64255913D01*
X110106173Y-64250059D01*
X110018540Y-64246211D01*
X109910960Y-64244643D01*
X109895656Y-64244621D01*
X109629074Y-64244621D01*
X109629074Y-64060805D01*
X110447890Y-64060805D01*
X110447890Y-64152713D01*
X110446506Y-64205707D01*
X110440348Y-64233315D01*
X110426406Y-64243524D01*
X110413256Y-64244621D01*
X110378622Y-64244621D01*
X110413256Y-64288650D01*
X110436884Y-64339137D01*
X110448567Y-64406960D01*
X110448153Y-64479367D01*
X110448153Y-64479367D01*
G37*
X110448153Y-64479367D02*
X110435488Y-64543608D01*
X110416736Y-64580180D01*
X110385583Y-64618653D01*
X110316473Y-64563917D01*
X110274621Y-64530169D01*
X110254202Y-64507253D01*
X110251083Y-64484479D01*
X110261128Y-64451156D01*
X110266811Y-64435514D01*
X110275196Y-64371742D01*
X110257222Y-64313340D01*
X110216618Y-64270464D01*
X110203671Y-64263499D01*
X110169376Y-64255913D01*
X110106173Y-64250059D01*
X110018540Y-64246211D01*
X109910960Y-64244643D01*
X109895656Y-64244621D01*
X109629074Y-64244621D01*
X109629074Y-64060805D01*
X110447890Y-64060805D01*
X110447890Y-64152713D01*
X110446506Y-64205707D01*
X110440348Y-64233315D01*
X110426406Y-64243524D01*
X110413256Y-64244621D01*
X110378622Y-64244621D01*
X110413256Y-64288650D01*
X110436884Y-64339137D01*
X110448567Y-64406960D01*
X110448153Y-64479367D01*
G36*
X110443522Y-65007393D02*
X110422755Y-65087268D01*
X110379895Y-65154162D01*
X110347877Y-65186551D01*
X110272187Y-65239645D01*
X110184384Y-65270073D01*
X110076450Y-65280527D01*
X110067725Y-65280580D01*
X109979995Y-65280673D01*
X109979995Y-64775734D01*
X109934041Y-64786498D01*
X109892422Y-64805932D01*
X109849056Y-64839945D01*
X109842133Y-64847060D01*
X109804665Y-64908203D01*
X109798311Y-64977929D01*
X109822962Y-65058187D01*
X109829600Y-65071792D01*
X109849781Y-65113519D01*
X109861279Y-65141468D01*
X109862342Y-65146345D01*
X109852017Y-65163368D01*
X109826755Y-65195833D01*
X109812950Y-65212314D01*
X109781239Y-65246464D01*
X109760301Y-65257678D01*
X109741040Y-65249895D01*
X109735773Y-65245735D01*
X109712722Y-65217557D01*
X109684708Y-65171062D01*
X109668354Y-65138634D01*
X109639541Y-65046585D01*
X109630205Y-64944676D01*
X109641268Y-64848163D01*
X109649188Y-64821134D01*
X109694019Y-64737476D01*
X109763002Y-64675466D01*
X109856806Y-64634745D01*
X109976102Y-64614955D01*
X110038482Y-64612782D01*
X110129302Y-64619126D01*
X110129302Y-64779357D01*
X110122588Y-64794855D01*
X110117320Y-64836512D01*
X110114211Y-64897076D01*
X110113679Y-64938107D01*
X110114192Y-65011911D01*
X110116594Y-65058493D01*
X110122178Y-65084048D01*
X110132239Y-65094769D01*
X110146837Y-65096857D01*
X110191804Y-65082531D01*
X110236247Y-65046462D01*
X110270358Y-64999015D01*
X110284312Y-64951549D01*
X110271934Y-64887079D01*
X110236148Y-64831270D01*
X110184567Y-64792574D01*
X110129302Y-64779357D01*
X110129302Y-64619126D01*
X110170734Y-64622021D01*
X110276102Y-64650536D01*
X110355422Y-64698929D01*
X110409529Y-64767804D01*
X110439257Y-64857765D01*
X110444982Y-64906500D01*
X110443522Y-65007393D01*
X110443522Y-65007393D01*
G37*
X110443522Y-65007393D02*
X110422755Y-65087268D01*
X110379895Y-65154162D01*
X110347877Y-65186551D01*
X110272187Y-65239645D01*
X110184384Y-65270073D01*
X110076450Y-65280527D01*
X110067725Y-65280580D01*
X109979995Y-65280673D01*
X109979995Y-64775734D01*
X109934041Y-64786498D01*
X109892422Y-64805932D01*
X109849056Y-64839945D01*
X109842133Y-64847060D01*
X109804665Y-64908203D01*
X109798311Y-64977929D01*
X109822962Y-65058187D01*
X109829600Y-65071792D01*
X109849781Y-65113519D01*
X109861279Y-65141468D01*
X109862342Y-65146345D01*
X109852017Y-65163368D01*
X109826755Y-65195833D01*
X109812950Y-65212314D01*
X109781239Y-65246464D01*
X109760301Y-65257678D01*
X109741040Y-65249895D01*
X109735773Y-65245735D01*
X109712722Y-65217557D01*
X109684708Y-65171062D01*
X109668354Y-65138634D01*
X109639541Y-65046585D01*
X109630205Y-64944676D01*
X109641268Y-64848163D01*
X109649188Y-64821134D01*
X109694019Y-64737476D01*
X109763002Y-64675466D01*
X109856806Y-64634745D01*
X109976102Y-64614955D01*
X110038482Y-64612782D01*
X110129302Y-64619126D01*
X110129302Y-64779357D01*
X110122588Y-64794855D01*
X110117320Y-64836512D01*
X110114211Y-64897076D01*
X110113679Y-64938107D01*
X110114192Y-65011911D01*
X110116594Y-65058493D01*
X110122178Y-65084048D01*
X110132239Y-65094769D01*
X110146837Y-65096857D01*
X110191804Y-65082531D01*
X110236247Y-65046462D01*
X110270358Y-64999015D01*
X110284312Y-64951549D01*
X110271934Y-64887079D01*
X110236148Y-64831270D01*
X110184567Y-64792574D01*
X110129302Y-64779357D01*
X110129302Y-64619126D01*
X110170734Y-64622021D01*
X110276102Y-64650536D01*
X110355422Y-64698929D01*
X110409529Y-64767804D01*
X110439257Y-64857765D01*
X110444982Y-64906500D01*
X110443522Y-65007393D01*
G36*
X111692496Y-58932984D02*
X111653846Y-59020405D01*
X111589310Y-59086770D01*
X111498788Y-59132176D01*
X111382182Y-59156718D01*
X111363976Y-59158477D01*
X111235616Y-59159856D01*
X111123104Y-59141984D01*
X111031912Y-59105950D01*
X111002578Y-59086655D01*
X110940494Y-59019445D01*
X110900284Y-58933850D01*
X110883597Y-58838090D01*
X110892083Y-58740387D01*
X110918220Y-58666117D01*
X110962265Y-58602247D01*
X111020013Y-58550046D01*
X111021364Y-58549143D01*
X111057007Y-58527944D01*
X111092848Y-58514167D01*
X111138081Y-58505824D01*
X111201899Y-58500927D01*
X111254232Y-58498769D01*
X111301690Y-58497871D01*
X111301690Y-58664943D01*
X111254446Y-58666576D01*
X111191554Y-58672504D01*
X111151193Y-58682961D01*
X111122478Y-58701819D01*
X111105704Y-58719481D01*
X111070584Y-58782094D01*
X111065890Y-58847608D01*
X111091160Y-58908621D01*
X111119476Y-58939128D01*
X111148011Y-58961111D01*
X111175316Y-58973969D01*
X111210850Y-58979612D01*
X111264076Y-58979951D01*
X111313094Y-58978212D01*
X111383118Y-58974471D01*
X111428536Y-58968541D01*
X111458160Y-58957853D01*
X111480803Y-58939839D01*
X111493745Y-58925563D01*
X111527740Y-58865851D01*
X111529435Y-58801434D01*
X111509299Y-58747419D01*
X111467248Y-58701340D01*
X111398172Y-58673889D01*
X111301690Y-58664943D01*
X111301690Y-58497871D01*
X111358301Y-58496799D01*
X111436132Y-58500164D01*
X111494670Y-58510245D01*
X111540863Y-58528426D01*
X111581658Y-58556090D01*
X111593772Y-58566346D01*
X111654126Y-58630478D01*
X111689380Y-58699266D01*
X111704150Y-58783389D01*
X111705357Y-58824409D01*
X111692496Y-58932984D01*
X111692496Y-58932984D01*
G37*
X111692496Y-58932984D02*
X111653846Y-59020405D01*
X111589310Y-59086770D01*
X111498788Y-59132176D01*
X111382182Y-59156718D01*
X111363976Y-59158477D01*
X111235616Y-59159856D01*
X111123104Y-59141984D01*
X111031912Y-59105950D01*
X111002578Y-59086655D01*
X110940494Y-59019445D01*
X110900284Y-58933850D01*
X110883597Y-58838090D01*
X110892083Y-58740387D01*
X110918220Y-58666117D01*
X110962265Y-58602247D01*
X111020013Y-58550046D01*
X111021364Y-58549143D01*
X111057007Y-58527944D01*
X111092848Y-58514167D01*
X111138081Y-58505824D01*
X111201899Y-58500927D01*
X111254232Y-58498769D01*
X111301690Y-58497871D01*
X111301690Y-58664943D01*
X111254446Y-58666576D01*
X111191554Y-58672504D01*
X111151193Y-58682961D01*
X111122478Y-58701819D01*
X111105704Y-58719481D01*
X111070584Y-58782094D01*
X111065890Y-58847608D01*
X111091160Y-58908621D01*
X111119476Y-58939128D01*
X111148011Y-58961111D01*
X111175316Y-58973969D01*
X111210850Y-58979612D01*
X111264076Y-58979951D01*
X111313094Y-58978212D01*
X111383118Y-58974471D01*
X111428536Y-58968541D01*
X111458160Y-58957853D01*
X111480803Y-58939839D01*
X111493745Y-58925563D01*
X111527740Y-58865851D01*
X111529435Y-58801434D01*
X111509299Y-58747419D01*
X111467248Y-58701340D01*
X111398172Y-58673889D01*
X111301690Y-58664943D01*
X111301690Y-58497871D01*
X111358301Y-58496799D01*
X111436132Y-58500164D01*
X111494670Y-58510245D01*
X111540863Y-58528426D01*
X111581658Y-58556090D01*
X111593772Y-58566346D01*
X111654126Y-58630478D01*
X111689380Y-58699266D01*
X111704150Y-58783389D01*
X111705357Y-58824409D01*
X111692496Y-58932984D01*
G36*
X111682573Y-60503218D02*
X111674734Y-60519870D01*
X111632514Y-60577505D01*
X111570900Y-60632005D01*
X111503057Y-60672699D01*
X111471866Y-60684274D01*
X111416151Y-60694834D01*
X111348819Y-60701131D01*
X111321015Y-60701896D01*
X111233284Y-60701989D01*
X111233284Y-60197050D01*
X111187330Y-60207813D01*
X111132980Y-60234233D01*
X111086009Y-60280422D01*
X111055752Y-60335372D01*
X111049469Y-60370389D01*
X111057094Y-60417877D01*
X111076217Y-60474535D01*
X111085016Y-60493782D01*
X111120564Y-60564959D01*
X111074233Y-60625702D01*
X111042897Y-60660752D01*
X111017033Y-60679402D01*
X111009442Y-60680347D01*
X110991044Y-60663685D01*
X110963085Y-60627170D01*
X110941273Y-60594028D01*
X110902063Y-60504593D01*
X110884315Y-60404329D01*
X110888930Y-60304954D01*
X110913049Y-60225739D01*
X110964716Y-60144080D01*
X111032744Y-60086049D01*
X111120757Y-60049746D01*
X111232384Y-60033272D01*
X111283462Y-60031811D01*
X111400509Y-60037657D01*
X111403914Y-60038375D01*
X111403914Y-60205689D01*
X111392938Y-60210297D01*
X111386885Y-60229236D01*
X111384290Y-60268298D01*
X111383690Y-60333277D01*
X111383679Y-60358297D01*
X111384586Y-60434421D01*
X111387880Y-60482696D01*
X111394419Y-60508660D01*
X111405063Y-60517848D01*
X111408481Y-60518173D01*
X111435644Y-60507687D01*
X111473697Y-60481442D01*
X111487021Y-60470159D01*
X111524704Y-60428272D01*
X111539520Y-60384609D01*
X111540758Y-60361085D01*
X111525271Y-60297443D01*
X111483670Y-60244073D01*
X111423247Y-60210219D01*
X111421278Y-60209619D01*
X111403914Y-60205689D01*
X111403914Y-60038375D01*
X111492672Y-60057099D01*
X111566410Y-60092122D01*
X111618752Y-60134956D01*
X111675508Y-60214148D01*
X111705838Y-60307240D01*
X111708579Y-60406255D01*
X111682573Y-60503218D01*
X111682573Y-60503218D01*
G37*
X111682573Y-60503218D02*
X111674734Y-60519870D01*
X111632514Y-60577505D01*
X111570900Y-60632005D01*
X111503057Y-60672699D01*
X111471866Y-60684274D01*
X111416151Y-60694834D01*
X111348819Y-60701131D01*
X111321015Y-60701896D01*
X111233284Y-60701989D01*
X111233284Y-60197050D01*
X111187330Y-60207813D01*
X111132980Y-60234233D01*
X111086009Y-60280422D01*
X111055752Y-60335372D01*
X111049469Y-60370389D01*
X111057094Y-60417877D01*
X111076217Y-60474535D01*
X111085016Y-60493782D01*
X111120564Y-60564959D01*
X111074233Y-60625702D01*
X111042897Y-60660752D01*
X111017033Y-60679402D01*
X111009442Y-60680347D01*
X110991044Y-60663685D01*
X110963085Y-60627170D01*
X110941273Y-60594028D01*
X110902063Y-60504593D01*
X110884315Y-60404329D01*
X110888930Y-60304954D01*
X110913049Y-60225739D01*
X110964716Y-60144080D01*
X111032744Y-60086049D01*
X111120757Y-60049746D01*
X111232384Y-60033272D01*
X111283462Y-60031811D01*
X111400509Y-60037657D01*
X111403914Y-60038375D01*
X111403914Y-60205689D01*
X111392938Y-60210297D01*
X111386885Y-60229236D01*
X111384290Y-60268298D01*
X111383690Y-60333277D01*
X111383679Y-60358297D01*
X111384586Y-60434421D01*
X111387880Y-60482696D01*
X111394419Y-60508660D01*
X111405063Y-60517848D01*
X111408481Y-60518173D01*
X111435644Y-60507687D01*
X111473697Y-60481442D01*
X111487021Y-60470159D01*
X111524704Y-60428272D01*
X111539520Y-60384609D01*
X111540758Y-60361085D01*
X111525271Y-60297443D01*
X111483670Y-60244073D01*
X111423247Y-60210219D01*
X111421278Y-60209619D01*
X111403914Y-60205689D01*
X111403914Y-60038375D01*
X111492672Y-60057099D01*
X111566410Y-60092122D01*
X111618752Y-60134956D01*
X111675508Y-60214148D01*
X111705838Y-60307240D01*
X111708579Y-60406255D01*
X111682573Y-60503218D01*
G36*
X111704053Y-62324828D02*
X111692052Y-62388108D01*
X111666952Y-62453757D01*
X111663752Y-62460772D01*
X111637574Y-62510556D01*
X111613247Y-62545034D01*
X111597663Y-62556178D01*
X111572247Y-62545566D01*
X111534747Y-62519788D01*
X111520748Y-62508346D01*
X111465646Y-62461192D01*
X111501514Y-62400401D01*
X111525408Y-62342547D01*
X111538180Y-62275700D01*
X111538987Y-62211594D01*
X111526985Y-62161964D01*
X111519495Y-62150054D01*
X111485150Y-62127372D01*
X111445587Y-62124616D01*
X111414680Y-62141588D01*
X111408687Y-62151627D01*
X111401243Y-62181710D01*
X111392494Y-62234589D01*
X111384133Y-62299775D01*
X111382822Y-62311800D01*
X111364712Y-62416497D01*
X111333949Y-62492432D01*
X111287693Y-62542792D01*
X111223103Y-62570764D01*
X111144213Y-62579478D01*
X111054535Y-62567440D01*
X110984114Y-62528351D01*
X110932823Y-62462055D01*
X110900533Y-62368394D01*
X110887793Y-62264423D01*
X110887946Y-62179638D01*
X110899517Y-62110865D01*
X110915491Y-62063897D01*
X110943325Y-62004550D01*
X110975627Y-61949706D01*
X110989845Y-61930213D01*
X111030765Y-61880081D01*
X111153123Y-62001003D01*
X111107633Y-62069743D01*
X111073467Y-62138688D01*
X111055596Y-62212311D01*
X111053711Y-62283083D01*
X111067499Y-62343474D01*
X111096651Y-62385957D01*
X111121248Y-62399674D01*
X111160696Y-62397617D01*
X111190863Y-62363530D01*
X111211694Y-62297508D01*
X111221321Y-62225174D01*
X111239690Y-62113852D01*
X111274346Y-62031152D01*
X111326303Y-61975965D01*
X111396577Y-61947188D01*
X111479893Y-61943201D01*
X111566919Y-61962893D01*
X111632698Y-62007789D01*
X111677532Y-62078291D01*
X111701721Y-62174801D01*
X111706463Y-62246300D01*
X111704053Y-62324828D01*
X111704053Y-62324828D01*
G37*
X111704053Y-62324828D02*
X111692052Y-62388108D01*
X111666952Y-62453757D01*
X111663752Y-62460772D01*
X111637574Y-62510556D01*
X111613247Y-62545034D01*
X111597663Y-62556178D01*
X111572247Y-62545566D01*
X111534747Y-62519788D01*
X111520748Y-62508346D01*
X111465646Y-62461192D01*
X111501514Y-62400401D01*
X111525408Y-62342547D01*
X111538180Y-62275700D01*
X111538987Y-62211594D01*
X111526985Y-62161964D01*
X111519495Y-62150054D01*
X111485150Y-62127372D01*
X111445587Y-62124616D01*
X111414680Y-62141588D01*
X111408687Y-62151627D01*
X111401243Y-62181710D01*
X111392494Y-62234589D01*
X111384133Y-62299775D01*
X111382822Y-62311800D01*
X111364712Y-62416497D01*
X111333949Y-62492432D01*
X111287693Y-62542792D01*
X111223103Y-62570764D01*
X111144213Y-62579478D01*
X111054535Y-62567440D01*
X110984114Y-62528351D01*
X110932823Y-62462055D01*
X110900533Y-62368394D01*
X110887793Y-62264423D01*
X110887946Y-62179638D01*
X110899517Y-62110865D01*
X110915491Y-62063897D01*
X110943325Y-62004550D01*
X110975627Y-61949706D01*
X110989845Y-61930213D01*
X111030765Y-61880081D01*
X111153123Y-62001003D01*
X111107633Y-62069743D01*
X111073467Y-62138688D01*
X111055596Y-62212311D01*
X111053711Y-62283083D01*
X111067499Y-62343474D01*
X111096651Y-62385957D01*
X111121248Y-62399674D01*
X111160696Y-62397617D01*
X111190863Y-62363530D01*
X111211694Y-62297508D01*
X111221321Y-62225174D01*
X111239690Y-62113852D01*
X111274346Y-62031152D01*
X111326303Y-61975965D01*
X111396577Y-61947188D01*
X111479893Y-61943201D01*
X111566919Y-61962893D01*
X111632698Y-62007789D01*
X111677532Y-62078291D01*
X111701721Y-62174801D01*
X111706463Y-62246300D01*
X111704053Y-62324828D01*
G36*
X111691290Y-63117869D02*
X111645260Y-63202392D01*
X111572594Y-63268521D01*
X111513494Y-63299678D01*
X111461295Y-63313055D01*
X111386881Y-63321722D01*
X111301158Y-63325437D01*
X111215031Y-63323954D01*
X111139407Y-63317031D01*
X111099016Y-63308945D01*
X111043760Y-63281665D01*
X110985070Y-63234420D01*
X110933748Y-63177482D01*
X110900595Y-63121124D01*
X110900069Y-63119750D01*
X110885582Y-63049816D01*
X110885223Y-62966937D01*
X110898412Y-62888177D01*
X110908983Y-62857766D01*
X110953399Y-62779439D01*
X111011593Y-62723343D01*
X111088635Y-62686486D01*
X111189599Y-62665880D01*
X111242484Y-62661218D01*
X111308937Y-62661813D01*
X111308937Y-62840936D01*
X111211970Y-62846970D01*
X111138077Y-62864338D01*
X111090864Y-62891940D01*
X111077363Y-62911604D01*
X111067949Y-62961987D01*
X111070736Y-63021873D01*
X111084284Y-63073649D01*
X111091738Y-63087227D01*
X111135149Y-63123049D01*
X111201586Y-63146693D01*
X111282439Y-63156758D01*
X111369098Y-63151842D01*
X111421251Y-63140855D01*
X111481649Y-63109309D01*
X111519403Y-63059511D01*
X111532457Y-62999537D01*
X111518751Y-62937464D01*
X111485228Y-62889782D01*
X111457569Y-62864725D01*
X111430306Y-62850100D01*
X111393410Y-62843129D01*
X111336850Y-62841033D01*
X111308937Y-62840936D01*
X111308937Y-62661813D01*
X111383606Y-62662482D01*
X111499329Y-62685465D01*
X111589659Y-62730172D01*
X111654600Y-62796605D01*
X111694155Y-62884765D01*
X111698742Y-62903695D01*
X111709510Y-63017466D01*
X111691290Y-63117869D01*
X111691290Y-63117869D01*
G37*
X111691290Y-63117869D02*
X111645260Y-63202392D01*
X111572594Y-63268521D01*
X111513494Y-63299678D01*
X111461295Y-63313055D01*
X111386881Y-63321722D01*
X111301158Y-63325437D01*
X111215031Y-63323954D01*
X111139407Y-63317031D01*
X111099016Y-63308945D01*
X111043760Y-63281665D01*
X110985070Y-63234420D01*
X110933748Y-63177482D01*
X110900595Y-63121124D01*
X110900069Y-63119750D01*
X110885582Y-63049816D01*
X110885223Y-62966937D01*
X110898412Y-62888177D01*
X110908983Y-62857766D01*
X110953399Y-62779439D01*
X111011593Y-62723343D01*
X111088635Y-62686486D01*
X111189599Y-62665880D01*
X111242484Y-62661218D01*
X111308937Y-62661813D01*
X111308937Y-62840936D01*
X111211970Y-62846970D01*
X111138077Y-62864338D01*
X111090864Y-62891940D01*
X111077363Y-62911604D01*
X111067949Y-62961987D01*
X111070736Y-63021873D01*
X111084284Y-63073649D01*
X111091738Y-63087227D01*
X111135149Y-63123049D01*
X111201586Y-63146693D01*
X111282439Y-63156758D01*
X111369098Y-63151842D01*
X111421251Y-63140855D01*
X111481649Y-63109309D01*
X111519403Y-63059511D01*
X111532457Y-62999537D01*
X111518751Y-62937464D01*
X111485228Y-62889782D01*
X111457569Y-62864725D01*
X111430306Y-62850100D01*
X111393410Y-62843129D01*
X111336850Y-62841033D01*
X111308937Y-62840936D01*
X111308937Y-62661813D01*
X111383606Y-62662482D01*
X111499329Y-62685465D01*
X111589659Y-62730172D01*
X111654600Y-62796605D01*
X111694155Y-62884765D01*
X111698742Y-62903695D01*
X111709510Y-63017466D01*
X111691290Y-63117869D01*
G36*
X111441067Y-63626331D02*
X111318511Y-63627910D01*
X111225421Y-63633681D01*
X111157949Y-63645191D01*
X111112245Y-63663990D01*
X111084461Y-63691626D01*
X111070746Y-63729648D01*
X111067242Y-63776726D01*
X111071168Y-63826032D01*
X111085511Y-63863483D01*
X111114122Y-63890628D01*
X111160849Y-63909015D01*
X111229542Y-63920193D01*
X111324050Y-63925711D01*
X111441067Y-63927121D01*
X111701179Y-63927121D01*
X111701179Y-64110936D01*
X110899074Y-64110936D01*
X110899074Y-64019028D01*
X110901319Y-63963622D01*
X110909204Y-63935091D01*
X110924172Y-63927121D01*
X110937503Y-63922320D01*
X110934683Y-63903214D01*
X110915817Y-63864704D01*
X110886713Y-63776439D01*
X110888775Y-63682823D01*
X110920379Y-63593121D01*
X110945343Y-63550404D01*
X110972374Y-63517821D01*
X111006195Y-63494017D01*
X111051532Y-63477639D01*
X111113111Y-63467331D01*
X111195657Y-63461741D01*
X111303895Y-63459512D01*
X111387596Y-63459226D01*
X111701179Y-63459226D01*
X111701179Y-63626331D01*
X111441067Y-63626331D01*
X111441067Y-63626331D01*
G37*
X111441067Y-63626331D02*
X111318511Y-63627910D01*
X111225421Y-63633681D01*
X111157949Y-63645191D01*
X111112245Y-63663990D01*
X111084461Y-63691626D01*
X111070746Y-63729648D01*
X111067242Y-63776726D01*
X111071168Y-63826032D01*
X111085511Y-63863483D01*
X111114122Y-63890628D01*
X111160849Y-63909015D01*
X111229542Y-63920193D01*
X111324050Y-63925711D01*
X111441067Y-63927121D01*
X111701179Y-63927121D01*
X111701179Y-64110936D01*
X110899074Y-64110936D01*
X110899074Y-64019028D01*
X110901319Y-63963622D01*
X110909204Y-63935091D01*
X110924172Y-63927121D01*
X110937503Y-63922320D01*
X110934683Y-63903214D01*
X110915817Y-63864704D01*
X110886713Y-63776439D01*
X110888775Y-63682823D01*
X110920379Y-63593121D01*
X110945343Y-63550404D01*
X110972374Y-63517821D01*
X111006195Y-63494017D01*
X111051532Y-63477639D01*
X111113111Y-63467331D01*
X111195657Y-63461741D01*
X111303895Y-63459512D01*
X111387596Y-63459226D01*
X111701179Y-63459226D01*
X111701179Y-63626331D01*
X111441067Y-63626331D01*
G36*
X111694181Y-65252776D02*
X111653051Y-65349595D01*
X111633029Y-65380090D01*
X111602260Y-65419065D01*
X111578067Y-65443531D01*
X111570187Y-65447778D01*
X111552701Y-65435784D01*
X111523030Y-65405087D01*
X111502321Y-65380512D01*
X111448264Y-65313246D01*
X111492958Y-65260130D01*
X111521811Y-65219084D01*
X111531771Y-65179063D01*
X111529339Y-65133259D01*
X111511255Y-65060524D01*
X111473719Y-65010456D01*
X111413038Y-64980029D01*
X111325519Y-64966217D01*
X111325464Y-64966213D01*
X111227642Y-64967408D01*
X111155870Y-64985972D01*
X111107005Y-65023004D01*
X111090457Y-65048250D01*
X111069851Y-65115297D01*
X111069838Y-65186909D01*
X111089832Y-65249215D01*
X111099600Y-65263963D01*
X111124553Y-65300950D01*
X111128642Y-65329868D01*
X111110070Y-65361056D01*
X111076713Y-65395536D01*
X111020404Y-65450112D01*
X110970458Y-65389518D01*
X110914087Y-65295898D01*
X110886307Y-65190325D01*
X110888318Y-65079998D01*
X110906738Y-65007543D01*
X110952290Y-64922856D01*
X111023950Y-64855127D01*
X111074534Y-64824357D01*
X111147112Y-64799436D01*
X111239031Y-64786966D01*
X111338652Y-64786870D01*
X111434333Y-64799070D01*
X111514431Y-64823490D01*
X111522644Y-64827336D01*
X111603187Y-64884293D01*
X111661829Y-64961409D01*
X111697353Y-65052590D01*
X111708543Y-65151743D01*
X111694181Y-65252776D01*
X111694181Y-65252776D01*
G37*
X111694181Y-65252776D02*
X111653051Y-65349595D01*
X111633029Y-65380090D01*
X111602260Y-65419065D01*
X111578067Y-65443531D01*
X111570187Y-65447778D01*
X111552701Y-65435784D01*
X111523030Y-65405087D01*
X111502321Y-65380512D01*
X111448264Y-65313246D01*
X111492958Y-65260130D01*
X111521811Y-65219084D01*
X111531771Y-65179063D01*
X111529339Y-65133259D01*
X111511255Y-65060524D01*
X111473719Y-65010456D01*
X111413038Y-64980029D01*
X111325519Y-64966217D01*
X111325464Y-64966213D01*
X111227642Y-64967408D01*
X111155870Y-64985972D01*
X111107005Y-65023004D01*
X111090457Y-65048250D01*
X111069851Y-65115297D01*
X111069838Y-65186909D01*
X111089832Y-65249215D01*
X111099600Y-65263963D01*
X111124553Y-65300950D01*
X111128642Y-65329868D01*
X111110070Y-65361056D01*
X111076713Y-65395536D01*
X111020404Y-65450112D01*
X110970458Y-65389518D01*
X110914087Y-65295898D01*
X110886307Y-65190325D01*
X110888318Y-65079998D01*
X110906738Y-65007543D01*
X110952290Y-64922856D01*
X111023950Y-64855127D01*
X111074534Y-64824357D01*
X111147112Y-64799436D01*
X111239031Y-64786966D01*
X111338652Y-64786870D01*
X111434333Y-64799070D01*
X111514431Y-64823490D01*
X111522644Y-64827336D01*
X111603187Y-64884293D01*
X111661829Y-64961409D01*
X111697353Y-65052590D01*
X111708543Y-65151743D01*
X111694181Y-65252776D01*
G36*
X111704046Y-65864984D02*
X111693651Y-65907774D01*
X111655587Y-65989809D01*
X111597451Y-66059957D01*
X111527748Y-66108505D01*
X111512098Y-66115175D01*
X111471104Y-66124324D01*
X111410462Y-66130729D01*
X111349170Y-66132910D01*
X111233284Y-66132910D01*
X111233284Y-65890607D01*
X111232907Y-65790671D01*
X111230613Y-65720269D01*
X111224662Y-65675513D01*
X111213315Y-65652515D01*
X111194829Y-65647389D01*
X111167464Y-65656248D01*
X111135445Y-65672117D01*
X111082008Y-65716384D01*
X111055385Y-65777899D01*
X111056253Y-65853085D01*
X111085229Y-65938253D01*
X111120989Y-66011859D01*
X111072696Y-66072934D01*
X111024403Y-66134010D01*
X110971315Y-66076551D01*
X110921155Y-65999841D01*
X110890912Y-65905502D01*
X110882449Y-65804027D01*
X110897626Y-65705911D01*
X110902776Y-65690081D01*
X110947809Y-65603847D01*
X111014948Y-65539701D01*
X111106195Y-65496291D01*
X111223556Y-65472264D01*
X111226071Y-65471984D01*
X111353973Y-65469833D01*
X111399603Y-65478529D01*
X111399603Y-65648305D01*
X111392587Y-65663897D01*
X111387212Y-65706229D01*
X111384143Y-65768634D01*
X111383679Y-65808181D01*
X111383970Y-65881928D01*
X111385817Y-65928040D01*
X111390688Y-65952300D01*
X111400045Y-65960494D01*
X111415355Y-65958406D01*
X111421278Y-65956655D01*
X111476932Y-65926760D01*
X111521785Y-65879742D01*
X111541495Y-65838249D01*
X111540305Y-65783126D01*
X111515725Y-65727268D01*
X111475030Y-65680412D01*
X111425492Y-65652294D01*
X111399603Y-65648305D01*
X111399603Y-65478529D01*
X111466467Y-65491274D01*
X111560873Y-65533811D01*
X111634512Y-65594947D01*
X111684707Y-65672185D01*
X111708778Y-65763030D01*
X111704046Y-65864984D01*
X111704046Y-65864984D01*
G37*
X111704046Y-65864984D02*
X111693651Y-65907774D01*
X111655587Y-65989809D01*
X111597451Y-66059957D01*
X111527748Y-66108505D01*
X111512098Y-66115175D01*
X111471104Y-66124324D01*
X111410462Y-66130729D01*
X111349170Y-66132910D01*
X111233284Y-66132910D01*
X111233284Y-65890607D01*
X111232907Y-65790671D01*
X111230613Y-65720269D01*
X111224662Y-65675513D01*
X111213315Y-65652515D01*
X111194829Y-65647389D01*
X111167464Y-65656248D01*
X111135445Y-65672117D01*
X111082008Y-65716384D01*
X111055385Y-65777899D01*
X111056253Y-65853085D01*
X111085229Y-65938253D01*
X111120989Y-66011859D01*
X111072696Y-66072934D01*
X111024403Y-66134010D01*
X110971315Y-66076551D01*
X110921155Y-65999841D01*
X110890912Y-65905502D01*
X110882449Y-65804027D01*
X110897626Y-65705911D01*
X110902776Y-65690081D01*
X110947809Y-65603847D01*
X111014948Y-65539701D01*
X111106195Y-65496291D01*
X111223556Y-65472264D01*
X111226071Y-65471984D01*
X111353973Y-65469833D01*
X111399603Y-65478529D01*
X111399603Y-65648305D01*
X111392587Y-65663897D01*
X111387212Y-65706229D01*
X111384143Y-65768634D01*
X111383679Y-65808181D01*
X111383970Y-65881928D01*
X111385817Y-65928040D01*
X111390688Y-65952300D01*
X111400045Y-65960494D01*
X111415355Y-65958406D01*
X111421278Y-65956655D01*
X111476932Y-65926760D01*
X111521785Y-65879742D01*
X111541495Y-65838249D01*
X111540305Y-65783126D01*
X111515725Y-65727268D01*
X111475030Y-65680412D01*
X111425492Y-65652294D01*
X111399603Y-65648305D01*
X111399603Y-65478529D01*
X111466467Y-65491274D01*
X111560873Y-65533811D01*
X111634512Y-65594947D01*
X111684707Y-65672185D01*
X111708778Y-65763030D01*
X111704046Y-65864984D01*
G36*
X111687374Y-61304157D02*
X111667510Y-61345746D01*
X111638816Y-61386025D01*
X111605791Y-61416710D01*
X111563669Y-61439061D01*
X111507685Y-61454336D01*
X111433072Y-61463792D01*
X111335065Y-61468687D01*
X111208898Y-61470281D01*
X111195686Y-61470306D01*
X110899074Y-61470673D01*
X110899074Y-61286857D01*
X111172519Y-61286857D01*
X111273823Y-61286727D01*
X111347247Y-61285821D01*
X111398329Y-61283373D01*
X111432610Y-61278614D01*
X111455629Y-61270774D01*
X111472927Y-61259085D01*
X111490019Y-61242802D01*
X111526743Y-61185834D01*
X111533558Y-61123645D01*
X111510339Y-61064399D01*
X111493057Y-61043795D01*
X111476809Y-61028670D01*
X111459409Y-61017810D01*
X111435388Y-61010510D01*
X111399278Y-61006063D01*
X111345612Y-61003764D01*
X111268920Y-61002904D01*
X111175557Y-61002778D01*
X110899074Y-61002778D01*
X110899074Y-60818963D01*
X111701179Y-60818963D01*
X111701179Y-60910871D01*
X111698997Y-60966051D01*
X111691249Y-60994520D01*
X111676132Y-61002775D01*
X111675684Y-61002778D01*
X111660880Y-61006608D01*
X111662560Y-61023501D01*
X111678827Y-61057088D01*
X111702760Y-61133263D01*
X111705422Y-61220400D01*
X111687374Y-61304157D01*
X111687374Y-61304157D01*
G37*
X111687374Y-61304157D02*
X111667510Y-61345746D01*
X111638816Y-61386025D01*
X111605791Y-61416710D01*
X111563669Y-61439061D01*
X111507685Y-61454336D01*
X111433072Y-61463792D01*
X111335065Y-61468687D01*
X111208898Y-61470281D01*
X111195686Y-61470306D01*
X110899074Y-61470673D01*
X110899074Y-61286857D01*
X111172519Y-61286857D01*
X111273823Y-61286727D01*
X111347247Y-61285821D01*
X111398329Y-61283373D01*
X111432610Y-61278614D01*
X111455629Y-61270774D01*
X111472927Y-61259085D01*
X111490019Y-61242802D01*
X111526743Y-61185834D01*
X111533558Y-61123645D01*
X111510339Y-61064399D01*
X111493057Y-61043795D01*
X111476809Y-61028670D01*
X111459409Y-61017810D01*
X111435388Y-61010510D01*
X111399278Y-61006063D01*
X111345612Y-61003764D01*
X111268920Y-61002904D01*
X111175557Y-61002778D01*
X110899074Y-61002778D01*
X110899074Y-60818963D01*
X111701179Y-60818963D01*
X111701179Y-60910871D01*
X111698997Y-60966051D01*
X111691249Y-60994520D01*
X111676132Y-61002775D01*
X111675684Y-61002778D01*
X111660880Y-61006608D01*
X111662560Y-61023501D01*
X111678827Y-61057088D01*
X111702760Y-61133263D01*
X111705422Y-61220400D01*
X111687374Y-61304157D01*
G36*
X111701955Y-64697588D02*
X111684394Y-64755065D01*
X111662205Y-64792072D01*
X111644658Y-64804127D01*
X111623858Y-64800809D01*
X111591181Y-64779279D01*
X111568038Y-64761074D01*
X111526198Y-64723544D01*
X111508595Y-64695348D01*
X111509744Y-64671311D01*
X111527890Y-64600008D01*
X111527066Y-64547642D01*
X111506502Y-64505118D01*
X111494466Y-64490842D01*
X111452117Y-64445147D01*
X110899074Y-64445147D01*
X110899074Y-64261331D01*
X111701179Y-64261331D01*
X111701179Y-64353239D01*
X111698997Y-64408419D01*
X111691249Y-64436888D01*
X111676132Y-64445143D01*
X111675684Y-64445147D01*
X111659851Y-64449045D01*
X111661916Y-64466674D01*
X111673339Y-64491101D01*
X111694595Y-64541550D01*
X111707384Y-64582516D01*
X111710662Y-64635228D01*
X111701955Y-64697588D01*
X111701955Y-64697588D01*
G37*
X111701955Y-64697588D02*
X111684394Y-64755065D01*
X111662205Y-64792072D01*
X111644658Y-64804127D01*
X111623858Y-64800809D01*
X111591181Y-64779279D01*
X111568038Y-64761074D01*
X111526198Y-64723544D01*
X111508595Y-64695348D01*
X111509744Y-64671311D01*
X111527890Y-64600008D01*
X111527066Y-64547642D01*
X111506502Y-64505118D01*
X111494466Y-64490842D01*
X111452117Y-64445147D01*
X110899074Y-64445147D01*
X110899074Y-64261331D01*
X111701179Y-64261331D01*
X111701179Y-64353239D01*
X111698997Y-64408419D01*
X111691249Y-64436888D01*
X111676132Y-64445143D01*
X111675684Y-64445147D01*
X111659851Y-64449045D01*
X111661916Y-64466674D01*
X111673339Y-64491101D01*
X111694595Y-64541550D01*
X111707384Y-64582516D01*
X111710662Y-64635228D01*
X111701955Y-64697588D01*
G36*
X117241024Y-62807164D02*
X116840278Y-62882713D01*
X116610446Y-63440241D01*
X116837852Y-63774665D01*
X116901169Y-63868322D01*
X116957704Y-63952982D01*
X117004873Y-64024695D01*
X117040098Y-64079511D01*
X117060795Y-64113480D01*
X117065258Y-64122730D01*
X117053780Y-64139395D01*
X117022049Y-64175006D01*
X116974117Y-64225571D01*
X116914038Y-64287100D01*
X116845867Y-64355599D01*
X116773655Y-64427079D01*
X116701458Y-64497547D01*
X116633327Y-64563011D01*
X116573317Y-64619480D01*
X116525481Y-64662963D01*
X116493873Y-64689468D01*
X116483295Y-64695805D01*
X116463794Y-64686686D01*
X116421069Y-64661120D01*
X116359302Y-64621797D01*
X116282669Y-64571403D01*
X116195352Y-64512627D01*
X116145548Y-64478568D01*
X116054607Y-64416489D01*
X115972541Y-64361326D01*
X115903437Y-64315754D01*
X115851378Y-64282450D01*
X115820450Y-64264090D01*
X115813950Y-64261331D01*
X115795479Y-64267585D01*
X115752428Y-64284634D01*
X115690851Y-64309903D01*
X115616801Y-64340822D01*
X115536330Y-64374818D01*
X115455493Y-64409318D01*
X115380342Y-64441751D01*
X115316929Y-64469543D01*
X115271307Y-64490123D01*
X115249531Y-64500919D01*
X115248674Y-64501556D01*
X115244516Y-64518507D01*
X115235239Y-64563651D01*
X115221756Y-64632310D01*
X115204979Y-64719802D01*
X115185819Y-64821450D01*
X115174770Y-64880756D01*
X115154090Y-64989372D01*
X115134411Y-65087477D01*
X115116811Y-65170109D01*
X115102367Y-65232304D01*
X115092154Y-65269099D01*
X115088914Y-65276496D01*
X115066983Y-65283740D01*
X115017453Y-65289585D01*
X114946115Y-65294035D01*
X114858761Y-65297093D01*
X114761183Y-65298765D01*
X114659174Y-65299053D01*
X114558525Y-65297961D01*
X114465028Y-65295494D01*
X114384475Y-65291656D01*
X114322658Y-65286450D01*
X114285370Y-65279881D01*
X114277607Y-65275941D01*
X114268302Y-65252388D01*
X114255000Y-65202482D01*
X114239263Y-65132823D01*
X114222654Y-65050013D01*
X114217281Y-65021105D01*
X114191752Y-64881731D01*
X114171192Y-64771636D01*
X114154785Y-64687182D01*
X114141713Y-64624730D01*
X114131159Y-64580644D01*
X114122306Y-64551285D01*
X114114337Y-64533015D01*
X114106435Y-64522198D01*
X114104873Y-64520685D01*
X114079714Y-64505577D01*
X114030750Y-64482529D01*
X113963979Y-64453844D01*
X113885395Y-64421822D01*
X113800993Y-64388765D01*
X113716770Y-64356973D01*
X113638721Y-64328749D01*
X113572841Y-64306393D01*
X113525127Y-64292207D01*
X113501573Y-64288493D01*
X113500748Y-64288802D01*
X113481496Y-64301389D01*
X113439137Y-64329944D01*
X113378079Y-64371467D01*
X113302732Y-64422956D01*
X113217504Y-64481411D01*
X113193285Y-64498058D01*
X113105477Y-64557415D01*
X113025362Y-64609647D01*
X112957538Y-64651908D01*
X112906607Y-64681353D01*
X112877169Y-64695137D01*
X112873552Y-64695805D01*
X112854543Y-64684224D01*
X112816886Y-64652224D01*
X112764627Y-64603918D01*
X112701814Y-64543420D01*
X112632494Y-64474844D01*
X112560715Y-64402304D01*
X112490523Y-64329912D01*
X112425965Y-64261784D01*
X112371090Y-64202032D01*
X112329944Y-64154771D01*
X112306574Y-64124113D01*
X112302758Y-64115632D01*
X112311745Y-64095891D01*
X112335984Y-64055474D01*
X112371391Y-64000963D01*
X112399889Y-63959023D01*
X112452182Y-63883029D01*
X112513755Y-63793034D01*
X112575230Y-63702764D01*
X112608131Y-63654232D01*
X112719241Y-63489962D01*
X112644684Y-63352069D01*
X112612022Y-63289249D01*
X112586634Y-63235829D01*
X112572154Y-63199684D01*
X112570140Y-63190484D01*
X112585016Y-63179421D01*
X112627053Y-63157594D01*
X112692373Y-63126634D01*
X112777100Y-63088170D01*
X112877355Y-63043832D01*
X112989261Y-62995247D01*
X113108941Y-62944046D01*
X113232516Y-62891859D01*
X113356109Y-62840313D01*
X113475843Y-62791040D01*
X113587841Y-62745667D01*
X113688223Y-62705825D01*
X113773114Y-62673142D01*
X113838635Y-62649249D01*
X113880910Y-62635774D01*
X113895428Y-62633606D01*
X113913947Y-62650783D01*
X113944010Y-62688390D01*
X113979368Y-62738566D01*
X113982166Y-62742778D01*
X114085975Y-62872464D01*
X114207085Y-62977034D01*
X114341624Y-63055581D01*
X114485718Y-63107199D01*
X114635495Y-63130982D01*
X114787083Y-63126023D01*
X114936608Y-63091417D01*
X115080200Y-63026257D01*
X115111616Y-63007086D01*
X115238475Y-62907374D01*
X115340345Y-62789577D01*
X115416696Y-62657771D01*
X115466998Y-62516033D01*
X115490721Y-62368442D01*
X115487335Y-62219073D01*
X115456312Y-62072003D01*
X115397120Y-61931311D01*
X115309231Y-61801073D01*
X115273558Y-61760786D01*
X115161894Y-61658255D01*
X115044343Y-61583541D01*
X114912580Y-61532290D01*
X114782093Y-61503746D01*
X114635384Y-61496700D01*
X114487947Y-61520196D01*
X114344766Y-61571849D01*
X114210823Y-61649271D01*
X114091102Y-61750075D01*
X113990586Y-61871876D01*
X113979991Y-61887884D01*
X113945294Y-61938598D01*
X113915230Y-61977150D01*
X113896035Y-61995581D01*
X113895428Y-61995849D01*
X113874664Y-61991892D01*
X113827538Y-61976207D01*
X113757927Y-61950422D01*
X113669707Y-61916169D01*
X113566756Y-61875077D01*
X113452950Y-61828776D01*
X113332165Y-61778896D01*
X113208279Y-61727067D01*
X113085168Y-61674919D01*
X112966709Y-61624082D01*
X112856777Y-61576187D01*
X112759251Y-61532862D01*
X112678007Y-61495738D01*
X112616921Y-61466444D01*
X112579870Y-61446612D01*
X112570140Y-61438626D01*
X112577717Y-61414221D01*
X112598040Y-61368558D01*
X112627475Y-61309510D01*
X112644684Y-61277040D01*
X112719241Y-61139147D01*
X112608131Y-60974877D01*
X112551210Y-60891021D01*
X112488570Y-60799213D01*
X112429589Y-60713180D01*
X112399889Y-60670087D01*
X112359190Y-60609477D01*
X112326937Y-60558155D01*
X112307216Y-60522815D01*
X112303046Y-60511337D01*
X112314293Y-60494630D01*
X112345689Y-60457654D01*
X112393976Y-60403995D01*
X112455892Y-60337238D01*
X112528179Y-60260966D01*
X112574592Y-60212727D01*
X112657513Y-60128333D01*
X112731680Y-60055397D01*
X112793920Y-59996869D01*
X112841059Y-59955697D01*
X112869927Y-59934828D01*
X112875785Y-59932826D01*
X112898068Y-59942117D01*
X112943123Y-59967791D01*
X113006389Y-60007000D01*
X113083305Y-60056897D01*
X113169308Y-60114633D01*
X113193285Y-60131051D01*
X113280430Y-60190877D01*
X113358890Y-60244550D01*
X113424255Y-60289070D01*
X113472116Y-60321435D01*
X113498065Y-60338645D01*
X113500748Y-60340307D01*
X113521428Y-60337821D01*
X113566896Y-60324623D01*
X113631156Y-60303014D01*
X113708213Y-60275296D01*
X113792071Y-60243770D01*
X113876734Y-60210737D01*
X113956208Y-60178499D01*
X114024496Y-60149357D01*
X114075603Y-60125612D01*
X114103533Y-60109565D01*
X114104873Y-60108425D01*
X114112855Y-60098612D01*
X114120749Y-60082039D01*
X114129371Y-60055068D01*
X114139538Y-60014061D01*
X114152069Y-59955380D01*
X114167779Y-59875387D01*
X114187487Y-59770445D01*
X114212008Y-59636915D01*
X114217281Y-59608004D01*
X114233836Y-59522318D01*
X114250031Y-59447618D01*
X114264304Y-59390506D01*
X114275092Y-59357583D01*
X114277607Y-59353169D01*
X114299904Y-59345894D01*
X114349731Y-59339981D01*
X114421296Y-59335434D01*
X114508807Y-59332255D01*
X114606472Y-59330451D01*
X114708499Y-59330023D01*
X114809097Y-59330977D01*
X114902473Y-59333316D01*
X114982835Y-59337044D01*
X115044391Y-59342166D01*
X115081350Y-59348684D01*
X115088914Y-59352614D01*
X115096544Y-59374492D01*
X115108958Y-59424309D01*
X115125078Y-59497103D01*
X115143827Y-59587911D01*
X115164129Y-59691769D01*
X115174770Y-59748354D01*
X115194840Y-59855714D01*
X115213020Y-59951454D01*
X115228401Y-60030894D01*
X115240069Y-60089354D01*
X115247112Y-60122155D01*
X115248674Y-60127554D01*
X115266278Y-60136678D01*
X115308682Y-60155965D01*
X115369828Y-60182845D01*
X115443657Y-60214746D01*
X115524111Y-60249098D01*
X115605132Y-60283329D01*
X115680663Y-60314869D01*
X115744645Y-60341146D01*
X115791020Y-60359589D01*
X115813731Y-60367629D01*
X115814724Y-60367778D01*
X115832639Y-60358665D01*
X115873867Y-60333114D01*
X115934309Y-60293812D01*
X116009869Y-60243443D01*
X116096448Y-60184694D01*
X116146179Y-60150542D01*
X116237364Y-60088310D01*
X116320151Y-60033036D01*
X116390351Y-59987418D01*
X116443776Y-59954152D01*
X116476239Y-59935936D01*
X116483517Y-59933305D01*
X116500455Y-59944614D01*
X116536622Y-59975881D01*
X116587965Y-60023110D01*
X116650433Y-60082308D01*
X116719974Y-60149481D01*
X116792535Y-60220634D01*
X116864065Y-60291774D01*
X116930513Y-60358907D01*
X116987826Y-60418039D01*
X117031953Y-60465175D01*
X117058841Y-60496323D01*
X117065258Y-60506743D01*
X117056235Y-60523709D01*
X117030885Y-60564289D01*
X116991790Y-60624537D01*
X116941529Y-60700507D01*
X116882683Y-60788254D01*
X116837852Y-60854444D01*
X116610446Y-61188868D01*
X116725362Y-61467633D01*
X116840278Y-61746397D01*
X117241024Y-61821946D01*
X117641771Y-61897494D01*
X117641771Y-62731615D01*
X117241024Y-62807164D01*
X117241024Y-62807164D01*
G37*
X117241024Y-62807164D02*
X116840278Y-62882713D01*
X116610446Y-63440241D01*
X116837852Y-63774665D01*
X116901169Y-63868322D01*
X116957704Y-63952982D01*
X117004873Y-64024695D01*
X117040098Y-64079511D01*
X117060795Y-64113480D01*
X117065258Y-64122730D01*
X117053780Y-64139395D01*
X117022049Y-64175006D01*
X116974117Y-64225571D01*
X116914038Y-64287100D01*
X116845867Y-64355599D01*
X116773655Y-64427079D01*
X116701458Y-64497547D01*
X116633327Y-64563011D01*
X116573317Y-64619480D01*
X116525481Y-64662963D01*
X116493873Y-64689468D01*
X116483295Y-64695805D01*
X116463794Y-64686686D01*
X116421069Y-64661120D01*
X116359302Y-64621797D01*
X116282669Y-64571403D01*
X116195352Y-64512627D01*
X116145548Y-64478568D01*
X116054607Y-64416489D01*
X115972541Y-64361326D01*
X115903437Y-64315754D01*
X115851378Y-64282450D01*
X115820450Y-64264090D01*
X115813950Y-64261331D01*
X115795479Y-64267585D01*
X115752428Y-64284634D01*
X115690851Y-64309903D01*
X115616801Y-64340822D01*
X115536330Y-64374818D01*
X115455493Y-64409318D01*
X115380342Y-64441751D01*
X115316929Y-64469543D01*
X115271307Y-64490123D01*
X115249531Y-64500919D01*
X115248674Y-64501556D01*
X115244516Y-64518507D01*
X115235239Y-64563651D01*
X115221756Y-64632310D01*
X115204979Y-64719802D01*
X115185819Y-64821450D01*
X115174770Y-64880756D01*
X115154090Y-64989372D01*
X115134411Y-65087477D01*
X115116811Y-65170109D01*
X115102367Y-65232304D01*
X115092154Y-65269099D01*
X115088914Y-65276496D01*
X115066983Y-65283740D01*
X115017453Y-65289585D01*
X114946115Y-65294035D01*
X114858761Y-65297093D01*
X114761183Y-65298765D01*
X114659174Y-65299053D01*
X114558525Y-65297961D01*
X114465028Y-65295494D01*
X114384475Y-65291656D01*
X114322658Y-65286450D01*
X114285370Y-65279881D01*
X114277607Y-65275941D01*
X114268302Y-65252388D01*
X114255000Y-65202482D01*
X114239263Y-65132823D01*
X114222654Y-65050013D01*
X114217281Y-65021105D01*
X114191752Y-64881731D01*
X114171192Y-64771636D01*
X114154785Y-64687182D01*
X114141713Y-64624730D01*
X114131159Y-64580644D01*
X114122306Y-64551285D01*
X114114337Y-64533015D01*
X114106435Y-64522198D01*
X114104873Y-64520685D01*
X114079714Y-64505577D01*
X114030750Y-64482529D01*
X113963979Y-64453844D01*
X113885395Y-64421822D01*
X113800993Y-64388765D01*
X113716770Y-64356973D01*
X113638721Y-64328749D01*
X113572841Y-64306393D01*
X113525127Y-64292207D01*
X113501573Y-64288493D01*
X113500748Y-64288802D01*
X113481496Y-64301389D01*
X113439137Y-64329944D01*
X113378079Y-64371467D01*
X113302732Y-64422956D01*
X113217504Y-64481411D01*
X113193285Y-64498058D01*
X113105477Y-64557415D01*
X113025362Y-64609647D01*
X112957538Y-64651908D01*
X112906607Y-64681353D01*
X112877169Y-64695137D01*
X112873552Y-64695805D01*
X112854543Y-64684224D01*
X112816886Y-64652224D01*
X112764627Y-64603918D01*
X112701814Y-64543420D01*
X112632494Y-64474844D01*
X112560715Y-64402304D01*
X112490523Y-64329912D01*
X112425965Y-64261784D01*
X112371090Y-64202032D01*
X112329944Y-64154771D01*
X112306574Y-64124113D01*
X112302758Y-64115632D01*
X112311745Y-64095891D01*
X112335984Y-64055474D01*
X112371391Y-64000963D01*
X112399889Y-63959023D01*
X112452182Y-63883029D01*
X112513755Y-63793034D01*
X112575230Y-63702764D01*
X112608131Y-63654232D01*
X112719241Y-63489962D01*
X112644684Y-63352069D01*
X112612022Y-63289249D01*
X112586634Y-63235829D01*
X112572154Y-63199684D01*
X112570140Y-63190484D01*
X112585016Y-63179421D01*
X112627053Y-63157594D01*
X112692373Y-63126634D01*
X112777100Y-63088170D01*
X112877355Y-63043832D01*
X112989261Y-62995247D01*
X113108941Y-62944046D01*
X113232516Y-62891859D01*
X113356109Y-62840313D01*
X113475843Y-62791040D01*
X113587841Y-62745667D01*
X113688223Y-62705825D01*
X113773114Y-62673142D01*
X113838635Y-62649249D01*
X113880910Y-62635774D01*
X113895428Y-62633606D01*
X113913947Y-62650783D01*
X113944010Y-62688390D01*
X113979368Y-62738566D01*
X113982166Y-62742778D01*
X114085975Y-62872464D01*
X114207085Y-62977034D01*
X114341624Y-63055581D01*
X114485718Y-63107199D01*
X114635495Y-63130982D01*
X114787083Y-63126023D01*
X114936608Y-63091417D01*
X115080200Y-63026257D01*
X115111616Y-63007086D01*
X115238475Y-62907374D01*
X115340345Y-62789577D01*
X115416696Y-62657771D01*
X115466998Y-62516033D01*
X115490721Y-62368442D01*
X115487335Y-62219073D01*
X115456312Y-62072003D01*
X115397120Y-61931311D01*
X115309231Y-61801073D01*
X115273558Y-61760786D01*
X115161894Y-61658255D01*
X115044343Y-61583541D01*
X114912580Y-61532290D01*
X114782093Y-61503746D01*
X114635384Y-61496700D01*
X114487947Y-61520196D01*
X114344766Y-61571849D01*
X114210823Y-61649271D01*
X114091102Y-61750075D01*
X113990586Y-61871876D01*
X113979991Y-61887884D01*
X113945294Y-61938598D01*
X113915230Y-61977150D01*
X113896035Y-61995581D01*
X113895428Y-61995849D01*
X113874664Y-61991892D01*
X113827538Y-61976207D01*
X113757927Y-61950422D01*
X113669707Y-61916169D01*
X113566756Y-61875077D01*
X113452950Y-61828776D01*
X113332165Y-61778896D01*
X113208279Y-61727067D01*
X113085168Y-61674919D01*
X112966709Y-61624082D01*
X112856777Y-61576187D01*
X112759251Y-61532862D01*
X112678007Y-61495738D01*
X112616921Y-61466444D01*
X112579870Y-61446612D01*
X112570140Y-61438626D01*
X112577717Y-61414221D01*
X112598040Y-61368558D01*
X112627475Y-61309510D01*
X112644684Y-61277040D01*
X112719241Y-61139147D01*
X112608131Y-60974877D01*
X112551210Y-60891021D01*
X112488570Y-60799213D01*
X112429589Y-60713180D01*
X112399889Y-60670087D01*
X112359190Y-60609477D01*
X112326937Y-60558155D01*
X112307216Y-60522815D01*
X112303046Y-60511337D01*
X112314293Y-60494630D01*
X112345689Y-60457654D01*
X112393976Y-60403995D01*
X112455892Y-60337238D01*
X112528179Y-60260966D01*
X112574592Y-60212727D01*
X112657513Y-60128333D01*
X112731680Y-60055397D01*
X112793920Y-59996869D01*
X112841059Y-59955697D01*
X112869927Y-59934828D01*
X112875785Y-59932826D01*
X112898068Y-59942117D01*
X112943123Y-59967791D01*
X113006389Y-60007000D01*
X113083305Y-60056897D01*
X113169308Y-60114633D01*
X113193285Y-60131051D01*
X113280430Y-60190877D01*
X113358890Y-60244550D01*
X113424255Y-60289070D01*
X113472116Y-60321435D01*
X113498065Y-60338645D01*
X113500748Y-60340307D01*
X113521428Y-60337821D01*
X113566896Y-60324623D01*
X113631156Y-60303014D01*
X113708213Y-60275296D01*
X113792071Y-60243770D01*
X113876734Y-60210737D01*
X113956208Y-60178499D01*
X114024496Y-60149357D01*
X114075603Y-60125612D01*
X114103533Y-60109565D01*
X114104873Y-60108425D01*
X114112855Y-60098612D01*
X114120749Y-60082039D01*
X114129371Y-60055068D01*
X114139538Y-60014061D01*
X114152069Y-59955380D01*
X114167779Y-59875387D01*
X114187487Y-59770445D01*
X114212008Y-59636915D01*
X114217281Y-59608004D01*
X114233836Y-59522318D01*
X114250031Y-59447618D01*
X114264304Y-59390506D01*
X114275092Y-59357583D01*
X114277607Y-59353169D01*
X114299904Y-59345894D01*
X114349731Y-59339981D01*
X114421296Y-59335434D01*
X114508807Y-59332255D01*
X114606472Y-59330451D01*
X114708499Y-59330023D01*
X114809097Y-59330977D01*
X114902473Y-59333316D01*
X114982835Y-59337044D01*
X115044391Y-59342166D01*
X115081350Y-59348684D01*
X115088914Y-59352614D01*
X115096544Y-59374492D01*
X115108958Y-59424309D01*
X115125078Y-59497103D01*
X115143827Y-59587911D01*
X115164129Y-59691769D01*
X115174770Y-59748354D01*
X115194840Y-59855714D01*
X115213020Y-59951454D01*
X115228401Y-60030894D01*
X115240069Y-60089354D01*
X115247112Y-60122155D01*
X115248674Y-60127554D01*
X115266278Y-60136678D01*
X115308682Y-60155965D01*
X115369828Y-60182845D01*
X115443657Y-60214746D01*
X115524111Y-60249098D01*
X115605132Y-60283329D01*
X115680663Y-60314869D01*
X115744645Y-60341146D01*
X115791020Y-60359589D01*
X115813731Y-60367629D01*
X115814724Y-60367778D01*
X115832639Y-60358665D01*
X115873867Y-60333114D01*
X115934309Y-60293812D01*
X116009869Y-60243443D01*
X116096448Y-60184694D01*
X116146179Y-60150542D01*
X116237364Y-60088310D01*
X116320151Y-60033036D01*
X116390351Y-59987418D01*
X116443776Y-59954152D01*
X116476239Y-59935936D01*
X116483517Y-59933305D01*
X116500455Y-59944614D01*
X116536622Y-59975881D01*
X116587965Y-60023110D01*
X116650433Y-60082308D01*
X116719974Y-60149481D01*
X116792535Y-60220634D01*
X116864065Y-60291774D01*
X116930513Y-60358907D01*
X116987826Y-60418039D01*
X117031953Y-60465175D01*
X117058841Y-60496323D01*
X117065258Y-60506743D01*
X117056235Y-60523709D01*
X117030885Y-60564289D01*
X116991790Y-60624537D01*
X116941529Y-60700507D01*
X116882683Y-60788254D01*
X116837852Y-60854444D01*
X116610446Y-61188868D01*
X116725362Y-61467633D01*
X116840278Y-61746397D01*
X117241024Y-61821946D01*
X117641771Y-61897494D01*
X117641771Y-62731615D01*
X117241024Y-62807164D01*
D13*
G04 #@! TO.C,J2*
X146674000Y-91000000D02*
X146674000Y-92020000D01*
X141474000Y-91000000D02*
X141474000Y-92020000D01*
X146674000Y-88460000D02*
X146674000Y-89480000D01*
X141474000Y-88460000D02*
X141474000Y-89480000D01*
X146674000Y-85920000D02*
X146674000Y-86940000D01*
X141474000Y-85920000D02*
X141474000Y-86940000D01*
X146674000Y-83380000D02*
X146674000Y-84400000D01*
X141474000Y-83380000D02*
X141474000Y-84400000D01*
X146674000Y-80840000D02*
X146674000Y-81860000D01*
X141474000Y-80840000D02*
X141474000Y-81860000D01*
X146674000Y-78300000D02*
X146674000Y-79320000D01*
X141474000Y-78300000D02*
X141474000Y-79320000D01*
X146674000Y-75760000D02*
X146674000Y-76780000D01*
X141474000Y-75760000D02*
X141474000Y-76780000D01*
X146674000Y-73220000D02*
X146674000Y-74240000D01*
X141474000Y-73220000D02*
X141474000Y-74240000D01*
X146674000Y-70680000D02*
X146674000Y-71700000D01*
X141474000Y-70680000D02*
X141474000Y-71700000D01*
X146674000Y-68140000D02*
X146674000Y-69160000D01*
X141474000Y-68140000D02*
X141474000Y-69160000D01*
X146674000Y-65600000D02*
X146674000Y-66620000D01*
X141474000Y-65600000D02*
X141474000Y-66620000D01*
X146674000Y-63060000D02*
X146674000Y-64080000D01*
X141474000Y-63060000D02*
X141474000Y-64080000D01*
X146674000Y-60520000D02*
X146674000Y-61540000D01*
X141474000Y-60520000D02*
X141474000Y-61540000D01*
X146674000Y-57980000D02*
X146674000Y-59000000D01*
X141474000Y-57980000D02*
X141474000Y-59000000D01*
X146674000Y-93540000D02*
X146674000Y-94110000D01*
X141474000Y-93540000D02*
X141474000Y-94110000D01*
X146674000Y-55890000D02*
X146674000Y-56460000D01*
X141474000Y-55890000D02*
X141474000Y-56460000D01*
X140034000Y-56460000D02*
X141474000Y-56460000D01*
X141474000Y-94110000D02*
X146674000Y-94110000D01*
X141474000Y-55890000D02*
X146674000Y-55890000D01*
G04 #@! TD*
M02*
