G04 #@! TF.GenerationSoftware,KiCad,Pcbnew,5.1.2-f72e74a~84~ubuntu18.04.1*
G04 #@! TF.CreationDate,2019-06-23T16:21:06+09:00*
G04 #@! TF.ProjectId,top_pcb,746f705f-7063-4622-9e6b-696361645f70,rev?*
G04 #@! TF.SameCoordinates,Original*
G04 #@! TF.FileFunction,Copper,L1,Top*
G04 #@! TF.FilePolarity,Positive*
%FSLAX46Y46*%
G04 Gerber Fmt 4.6, Leading zero omitted, Abs format (unit mm)*
G04 Created by KiCad (PCBNEW 5.1.2-f72e74a~84~ubuntu18.04.1) date 2019-06-23 16:21:06*
%MOMM*%
%LPD*%
G04 APERTURE LIST*
%ADD10R,3.150000X1.000000*%
%ADD11R,1.000000X1.000000*%
%ADD12O,1.000000X1.000000*%
%ADD13C,0.800000*%
%ADD14C,0.250000*%
%ADD15C,0.254000*%
G04 APERTURE END LIST*
D10*
X146599000Y-92780000D03*
X141549000Y-92780000D03*
X146599000Y-90240000D03*
X141549000Y-90240000D03*
X146599000Y-87700000D03*
X141549000Y-87700000D03*
X146599000Y-85160000D03*
X141549000Y-85160000D03*
X146599000Y-82620000D03*
X141549000Y-82620000D03*
X146599000Y-80080000D03*
X141549000Y-80080000D03*
X146599000Y-77540000D03*
X141549000Y-77540000D03*
X146599000Y-75000000D03*
X141549000Y-75000000D03*
X146599000Y-72460000D03*
X141549000Y-72460000D03*
X146599000Y-69920000D03*
X141549000Y-69920000D03*
X146599000Y-67380000D03*
X141549000Y-67380000D03*
X146599000Y-64840000D03*
X141549000Y-64840000D03*
X146599000Y-62300000D03*
X141549000Y-62300000D03*
X146599000Y-59760000D03*
X141549000Y-59760000D03*
X146599000Y-57220000D03*
X141549000Y-57220000D03*
D11*
X135000000Y-56585000D03*
D12*
X135000000Y-57855000D03*
X135000000Y-59125000D03*
X135000000Y-60395000D03*
X135000000Y-61665000D03*
X135000000Y-62935000D03*
X135000000Y-64205000D03*
X135000000Y-65475000D03*
X135000000Y-66745000D03*
X135000000Y-68015000D03*
X135000000Y-69285000D03*
X135000000Y-70555000D03*
X135000000Y-71825000D03*
X135000000Y-73095000D03*
X135000000Y-74365000D03*
X135000000Y-75635000D03*
X135000000Y-76905000D03*
X135000000Y-78175000D03*
X135000000Y-79445000D03*
X135000000Y-80715000D03*
X135000000Y-81985000D03*
X135000000Y-83255000D03*
X135000000Y-84525000D03*
X135000000Y-85795000D03*
X135000000Y-87065000D03*
X135000000Y-88335000D03*
X135000000Y-89605000D03*
X135000000Y-90875000D03*
X135000000Y-92145000D03*
X135000000Y-93415000D03*
D13*
X137922000Y-62979300D03*
X138823700Y-60401200D03*
X139039600Y-57924700D03*
X143904163Y-55040424D03*
X144416310Y-94721210D03*
X106047125Y-99553165D03*
X106299000Y-50698400D03*
X138923433Y-65834545D03*
X140657300Y-68482800D03*
X144074000Y-67429500D03*
X141587400Y-71335400D03*
X138958500Y-74125000D03*
X139141200Y-76365100D03*
X144237200Y-79541500D03*
X143900600Y-83209500D03*
X140522600Y-86265300D03*
X138150500Y-88191800D03*
X143760500Y-85084700D03*
X143826800Y-81865500D03*
X141657600Y-68749900D03*
X138679700Y-64864700D03*
D14*
X135044300Y-62979300D02*
X135000000Y-62935000D01*
X137922000Y-62979300D02*
X135044300Y-62979300D01*
X135000000Y-60395000D02*
X138817500Y-60395000D01*
X138817500Y-60395000D02*
X138823700Y-60401200D01*
X135069700Y-57924700D02*
X135000000Y-57855000D01*
X139039600Y-57924700D02*
X135069700Y-57924700D01*
X146599000Y-57220000D02*
X145524000Y-57220000D01*
X143904163Y-55600163D02*
X143904163Y-55040424D01*
X145524000Y-57220000D02*
X143904163Y-55600163D01*
X144416310Y-94721210D02*
X139187390Y-94721210D01*
X139187390Y-94721210D02*
X134924800Y-98983800D01*
X110020100Y-98983800D02*
X109082834Y-98046533D01*
X134924800Y-98983800D02*
X110020100Y-98983800D01*
X107614085Y-99553165D02*
X106047125Y-99553165D01*
X109082834Y-98046533D02*
X109076898Y-98090352D01*
X109076898Y-98090352D02*
X107614085Y-99553165D01*
X138519600Y-65665300D02*
X136015600Y-65665300D01*
X136015600Y-65665300D02*
X135825300Y-65475000D01*
X144698700Y-64840000D02*
X143873400Y-65665300D01*
X143873400Y-65665300D02*
X138519600Y-65665300D01*
X146599000Y-64840000D02*
X144698700Y-64840000D01*
X135000000Y-65475000D02*
X135825300Y-65475000D01*
X138519600Y-65665300D02*
X138519600Y-66208700D01*
X138549278Y-66208700D02*
X138923433Y-65834545D01*
X138519600Y-66208700D02*
X138549278Y-66208700D01*
X135825300Y-68015000D02*
X136293100Y-68482800D01*
X136293100Y-68482800D02*
X140657300Y-68482800D01*
X135000000Y-68015000D02*
X135825300Y-68015000D01*
X146599000Y-67380000D02*
X144698700Y-67380000D01*
X144074000Y-67429500D02*
X144649200Y-67429500D01*
X144649200Y-67429500D02*
X144698700Y-67380000D01*
X141587400Y-70745400D02*
X136015700Y-70745400D01*
X136015700Y-70745400D02*
X135825300Y-70555000D01*
X144698700Y-69920000D02*
X143873300Y-70745400D01*
X143873300Y-70745400D02*
X141587400Y-70745400D01*
X141587400Y-70745400D02*
X141587400Y-71335400D01*
X135000000Y-70555000D02*
X135825300Y-70555000D01*
X146599000Y-69920000D02*
X144698700Y-69920000D01*
X138958500Y-73285300D02*
X143873400Y-73285300D01*
X143873400Y-73285300D02*
X144698700Y-72460000D01*
X135825300Y-73095000D02*
X136015600Y-73285300D01*
X136015600Y-73285300D02*
X138958500Y-73285300D01*
X138958500Y-73285300D02*
X138958500Y-74125000D01*
X146599000Y-72460000D02*
X144698700Y-72460000D01*
X135000000Y-73095000D02*
X135825300Y-73095000D01*
X144698700Y-75000000D02*
X143873400Y-75825300D01*
X143873400Y-75825300D02*
X139627200Y-75825300D01*
X139627200Y-75825300D02*
X139436900Y-75635000D01*
X139436900Y-75635000D02*
X135825300Y-75635000D01*
X146599000Y-75000000D02*
X144698700Y-75000000D01*
X135000000Y-75635000D02*
X135825300Y-75635000D01*
X144119400Y-77532000D02*
X143286100Y-78365300D01*
X143286100Y-78365300D02*
X139291800Y-78365300D01*
X139291800Y-78365300D02*
X139101500Y-78175000D01*
X139101500Y-78175000D02*
X135825300Y-78175000D01*
X144119400Y-77532000D02*
X142952500Y-76365100D01*
X142952500Y-76365100D02*
X139141200Y-76365100D01*
X144698700Y-77540000D02*
X144127400Y-77540000D01*
X144127400Y-77540000D02*
X144119400Y-77532000D01*
X146599000Y-77540000D02*
X144698700Y-77540000D01*
X135000000Y-78175000D02*
X135825300Y-78175000D01*
X144237200Y-80080000D02*
X144237200Y-79541500D01*
X135825300Y-80715000D02*
X136015600Y-80905300D01*
X136015600Y-80905300D02*
X143411900Y-80905300D01*
X143411900Y-80905300D02*
X144237200Y-80080000D01*
X144698700Y-80080000D02*
X144237200Y-80080000D01*
X146599000Y-80080000D02*
X144698700Y-80080000D01*
X135000000Y-80715000D02*
X135825300Y-80715000D01*
X144698700Y-82620000D02*
X144109200Y-83209500D01*
X144109200Y-83209500D02*
X143900600Y-83209500D01*
X135825300Y-83255000D02*
X136015600Y-83445300D01*
X136015600Y-83445300D02*
X143664800Y-83445300D01*
X143664800Y-83445300D02*
X143900600Y-83209500D01*
X146599000Y-82620000D02*
X144698700Y-82620000D01*
X135000000Y-83255000D02*
X135825300Y-83255000D01*
X140522600Y-85985300D02*
X143885700Y-85985300D01*
X143885700Y-85985300D02*
X144698700Y-85172300D01*
X144698700Y-85172300D02*
X144698700Y-85160000D01*
X135825300Y-85795000D02*
X136015600Y-85985300D01*
X136015600Y-85985300D02*
X140522600Y-85985300D01*
X140522600Y-85985300D02*
X140522600Y-86265300D01*
X146599000Y-85160000D02*
X144698700Y-85160000D01*
X135000000Y-85795000D02*
X135825300Y-85795000D01*
X143873400Y-91065300D02*
X136015600Y-91065300D01*
X136015600Y-91065300D02*
X135825300Y-90875000D01*
X144698700Y-90240000D02*
X143873400Y-91065300D01*
X143873400Y-91065300D02*
X144698700Y-91890600D01*
X144698700Y-91890600D02*
X144698700Y-92780000D01*
X146599000Y-92780000D02*
X144698700Y-92780000D01*
X135000000Y-93415000D02*
X135825300Y-93415000D01*
X135825300Y-93415000D02*
X136015600Y-93605300D01*
X136015600Y-93605300D02*
X143873400Y-93605300D01*
X143873400Y-93605300D02*
X144698700Y-92780000D01*
X145648900Y-90240000D02*
X146599000Y-89289900D01*
X146599000Y-89289900D02*
X146599000Y-87700000D01*
X145648900Y-90240000D02*
X144698700Y-90240000D01*
X146599000Y-90240000D02*
X145648900Y-90240000D01*
X135000000Y-90875000D02*
X135825300Y-90875000D01*
X141549000Y-92780000D02*
X139648700Y-92780000D01*
X135000000Y-92145000D02*
X139013700Y-92145000D01*
X139013700Y-92145000D02*
X139648700Y-92780000D01*
X138150500Y-89605000D02*
X135825300Y-89605000D01*
X141549000Y-90240000D02*
X138785500Y-90240000D01*
X138785500Y-90240000D02*
X138150500Y-89605000D01*
X138150500Y-89605000D02*
X138150500Y-88191800D01*
X135000000Y-89605000D02*
X135825300Y-89605000D01*
X139648700Y-87700000D02*
X139013700Y-87065000D01*
X139013700Y-87065000D02*
X135000000Y-87065000D01*
X141549000Y-87700000D02*
X139648700Y-87700000D01*
X141549000Y-85160000D02*
X139648700Y-85160000D01*
X135000000Y-84525000D02*
X139013700Y-84525000D01*
X139013700Y-84525000D02*
X139648700Y-85160000D01*
X141549000Y-85160000D02*
X143685200Y-85160000D01*
X143685200Y-85160000D02*
X143760500Y-85084700D01*
X141549000Y-82620000D02*
X139648700Y-82620000D01*
X135000000Y-81985000D02*
X139013700Y-81985000D01*
X139013700Y-81985000D02*
X139648700Y-82620000D01*
X141549000Y-82620000D02*
X143449300Y-82620000D01*
X143449300Y-82620000D02*
X143449300Y-82243000D01*
X143449300Y-82243000D02*
X143826800Y-81865500D01*
X141549000Y-80080000D02*
X139648700Y-80080000D01*
X135000000Y-79445000D02*
X139013700Y-79445000D01*
X139013700Y-79445000D02*
X139648700Y-80080000D01*
X135000000Y-76905000D02*
X135825300Y-76905000D01*
X135825300Y-76905000D02*
X136460300Y-77540000D01*
X136460300Y-77540000D02*
X139648700Y-77540000D01*
X141549000Y-77540000D02*
X139648700Y-77540000D01*
X135000000Y-74365000D02*
X135825300Y-74365000D01*
X141549000Y-75000000D02*
X136460300Y-75000000D01*
X136460300Y-75000000D02*
X135825300Y-74365000D01*
X135000000Y-71825000D02*
X135825300Y-71825000D01*
X135825300Y-71825000D02*
X136460300Y-72460000D01*
X136460300Y-72460000D02*
X139648700Y-72460000D01*
X141549000Y-72460000D02*
X139648700Y-72460000D01*
X141549000Y-67380000D02*
X141549000Y-68641300D01*
X141549000Y-68641300D02*
X141657600Y-68749900D01*
X141343700Y-67380000D02*
X141549000Y-67380000D01*
X135000000Y-66745000D02*
X135825300Y-66745000D01*
X135825300Y-66745000D02*
X136460300Y-67380000D01*
X136460300Y-67380000D02*
X139648700Y-67380000D01*
X141343700Y-67380000D02*
X139648700Y-67380000D01*
X141549000Y-64840000D02*
X139648700Y-64840000D01*
X138679700Y-64852300D02*
X139636400Y-64852300D01*
X139636400Y-64852300D02*
X139648700Y-64840000D01*
X138679700Y-64852300D02*
X138032400Y-64205000D01*
X138032400Y-64205000D02*
X135825300Y-64205000D01*
X135000000Y-64205000D02*
X135825300Y-64205000D01*
X138679700Y-64864700D02*
X138679700Y-64852300D01*
X141549000Y-62300000D02*
X139648700Y-62300000D01*
X135000000Y-61665000D02*
X139013700Y-61665000D01*
X139013700Y-61665000D02*
X139648700Y-62300000D01*
X141549000Y-59760000D02*
X139648700Y-59760000D01*
X135000000Y-59125000D02*
X139013700Y-59125000D01*
X139013700Y-59125000D02*
X139648700Y-59760000D01*
X141549000Y-57220000D02*
X139648700Y-57220000D01*
X135000000Y-56585000D02*
X139013700Y-56585000D01*
X139013700Y-56585000D02*
X139648700Y-57220000D01*
X139648700Y-69920000D02*
X139013700Y-69285000D01*
X139013700Y-69285000D02*
X135825300Y-69285000D01*
X141549000Y-69920000D02*
X139648700Y-69920000D01*
X135000000Y-69285000D02*
X135825300Y-69285000D01*
D15*
G36*
X107300273Y-50139184D02*
G01*
X107340872Y-50273020D01*
X107406800Y-50396363D01*
X107495525Y-50504475D01*
X107575128Y-50569803D01*
X107603637Y-50593200D01*
X107726980Y-50659128D01*
X107860816Y-50699727D01*
X108000000Y-50713435D01*
X108034877Y-50710000D01*
X141965123Y-50710000D01*
X142000000Y-50713435D01*
X142034877Y-50710000D01*
X142139184Y-50699727D01*
X142273020Y-50659128D01*
X142396363Y-50593200D01*
X142504475Y-50504475D01*
X142593200Y-50396363D01*
X142659128Y-50273020D01*
X142699727Y-50139184D01*
X142702187Y-50114200D01*
X147208106Y-50114200D01*
X147721830Y-50164571D01*
X148223785Y-50316120D01*
X148686737Y-50562276D01*
X149093069Y-50893673D01*
X149427287Y-51297672D01*
X149676672Y-51758898D01*
X149831722Y-52259785D01*
X149847300Y-52408001D01*
X149847300Y-54278248D01*
X149717367Y-54317663D01*
X149589680Y-54385913D01*
X149477762Y-54477763D01*
X149385913Y-54589681D01*
X149317663Y-54717368D01*
X149275635Y-54855916D01*
X149265000Y-54963896D01*
X149265001Y-95036105D01*
X149275636Y-95144085D01*
X149317664Y-95282633D01*
X149385914Y-95410320D01*
X149477763Y-95522238D01*
X149589681Y-95614087D01*
X149717368Y-95682337D01*
X149847300Y-95721751D01*
X149847300Y-97700771D01*
X149837335Y-97802403D01*
X149691427Y-98285673D01*
X149454429Y-98731402D01*
X149135371Y-99122604D01*
X148746407Y-99444384D01*
X148302348Y-99684485D01*
X147820102Y-99833765D01*
X147285071Y-99890000D01*
X142702601Y-99890000D01*
X142699727Y-99860816D01*
X142659128Y-99726980D01*
X142593200Y-99603637D01*
X142504475Y-99495525D01*
X142396363Y-99406800D01*
X142273020Y-99340872D01*
X142139184Y-99300273D01*
X142034877Y-99290000D01*
X142000000Y-99286565D01*
X141965123Y-99290000D01*
X108034877Y-99290000D01*
X108000000Y-99286565D01*
X107965123Y-99290000D01*
X107860816Y-99300273D01*
X107726980Y-99340872D01*
X107603637Y-99406800D01*
X107495525Y-99495525D01*
X107406800Y-99603637D01*
X107340872Y-99726980D01*
X107300273Y-99860816D01*
X107297399Y-99890000D01*
X102834720Y-99890000D01*
X102278169Y-99835429D01*
X101776219Y-99683881D01*
X101313262Y-99437723D01*
X100906932Y-99106329D01*
X100572713Y-98702328D01*
X100323326Y-98241097D01*
X100168278Y-97740215D01*
X100119211Y-97273367D01*
X100117965Y-96779872D01*
X100765000Y-96779872D01*
X100765000Y-97220128D01*
X100850890Y-97651925D01*
X101019369Y-98058669D01*
X101263962Y-98424729D01*
X101575271Y-98736038D01*
X101941331Y-98980631D01*
X102348075Y-99149110D01*
X102779872Y-99235000D01*
X103220128Y-99235000D01*
X103651925Y-99149110D01*
X104058669Y-98980631D01*
X104424729Y-98736038D01*
X104736038Y-98424729D01*
X104980631Y-98058669D01*
X105149110Y-97651925D01*
X105235000Y-97220128D01*
X105235000Y-96829117D01*
X105265000Y-96829117D01*
X105265000Y-97170883D01*
X105331675Y-97506081D01*
X105462463Y-97821831D01*
X105652337Y-98105998D01*
X105894002Y-98347663D01*
X106178169Y-98537537D01*
X106493919Y-98668325D01*
X106829117Y-98735000D01*
X107170883Y-98735000D01*
X107506081Y-98668325D01*
X107821831Y-98537537D01*
X108105998Y-98347663D01*
X108347663Y-98105998D01*
X108537537Y-97821831D01*
X108668325Y-97506081D01*
X108735000Y-97170883D01*
X108735000Y-96829117D01*
X108668325Y-96493919D01*
X108537537Y-96178169D01*
X108347663Y-95894002D01*
X108105998Y-95652337D01*
X107821831Y-95462463D01*
X107506081Y-95331675D01*
X107170883Y-95265000D01*
X106829117Y-95265000D01*
X106493919Y-95331675D01*
X106178169Y-95462463D01*
X105894002Y-95652337D01*
X105652337Y-95894002D01*
X105462463Y-96178169D01*
X105331675Y-96493919D01*
X105265000Y-96829117D01*
X105235000Y-96829117D01*
X105235000Y-96779872D01*
X105149110Y-96348075D01*
X104980631Y-95941331D01*
X104736038Y-95575271D01*
X104424729Y-95263962D01*
X104058669Y-95019369D01*
X103651925Y-94850890D01*
X103220128Y-94765000D01*
X102779872Y-94765000D01*
X102348075Y-94850890D01*
X101941331Y-95019369D01*
X101575271Y-95263962D01*
X101263962Y-95575271D01*
X101019369Y-95941331D01*
X100850890Y-96348075D01*
X100765000Y-96779872D01*
X100117965Y-96779872D01*
X100115243Y-95702085D01*
X100139184Y-95699727D01*
X100273020Y-95659128D01*
X100396363Y-95593200D01*
X100504475Y-95504475D01*
X100593200Y-95396363D01*
X100659128Y-95273020D01*
X100699727Y-95139184D01*
X100713435Y-95000000D01*
X100710000Y-94965123D01*
X100710000Y-57965124D01*
X101290000Y-57965124D01*
X101290001Y-92034877D01*
X101293058Y-92065912D01*
X101292971Y-92078313D01*
X101293939Y-92088179D01*
X101334739Y-92476371D01*
X101347677Y-92539396D01*
X101359737Y-92602618D01*
X101362602Y-92612109D01*
X101478026Y-92984983D01*
X101502960Y-93044299D01*
X101527069Y-93103971D01*
X101531723Y-93112724D01*
X101717374Y-93456079D01*
X101753356Y-93509424D01*
X101788596Y-93563276D01*
X101794861Y-93570958D01*
X102043668Y-93871713D01*
X102089323Y-93917050D01*
X102134353Y-93963033D01*
X102141991Y-93969351D01*
X102444476Y-94216052D01*
X102498041Y-94251640D01*
X102551171Y-94288020D01*
X102559891Y-94292734D01*
X102904533Y-94475984D01*
X102963995Y-94500492D01*
X103023177Y-94525858D01*
X103032647Y-94528789D01*
X103406318Y-94641607D01*
X103469456Y-94654108D01*
X103532388Y-94667485D01*
X103542247Y-94668521D01*
X103929984Y-94706539D01*
X103965123Y-94710000D01*
X107965279Y-94710000D01*
X108249899Y-94737907D01*
X108490285Y-94810484D01*
X108711991Y-94928368D01*
X108906577Y-95087068D01*
X109066635Y-95280545D01*
X109186064Y-95501424D01*
X109260317Y-95741297D01*
X109293143Y-96053623D01*
X109292971Y-96078313D01*
X109293939Y-96088179D01*
X109334739Y-96476371D01*
X109347677Y-96539396D01*
X109359737Y-96602618D01*
X109362602Y-96612109D01*
X109478026Y-96984983D01*
X109502960Y-97044299D01*
X109527069Y-97103971D01*
X109531723Y-97112724D01*
X109717374Y-97456079D01*
X109753356Y-97509424D01*
X109788596Y-97563276D01*
X109794861Y-97570958D01*
X110043668Y-97871713D01*
X110089323Y-97917050D01*
X110134353Y-97963033D01*
X110141991Y-97969351D01*
X110444476Y-98216052D01*
X110498041Y-98251640D01*
X110551171Y-98288020D01*
X110559891Y-98292734D01*
X110904533Y-98475984D01*
X110963995Y-98500492D01*
X111023177Y-98525858D01*
X111032647Y-98528789D01*
X111406318Y-98641607D01*
X111469456Y-98654108D01*
X111532388Y-98667485D01*
X111542247Y-98668521D01*
X111929984Y-98706539D01*
X111965123Y-98710000D01*
X133034877Y-98710000D01*
X133065921Y-98706943D01*
X133078313Y-98707029D01*
X133088179Y-98706061D01*
X133476371Y-98665261D01*
X133539396Y-98652323D01*
X133602618Y-98640263D01*
X133612109Y-98637398D01*
X133984983Y-98521974D01*
X134044299Y-98497040D01*
X134103971Y-98472931D01*
X134112724Y-98468277D01*
X134456079Y-98282626D01*
X134509424Y-98246644D01*
X134563276Y-98211404D01*
X134570958Y-98205139D01*
X134871713Y-97956332D01*
X134917050Y-97910677D01*
X134963033Y-97865647D01*
X134969351Y-97858009D01*
X135216052Y-97555524D01*
X135251640Y-97501959D01*
X135288020Y-97448829D01*
X135292734Y-97440109D01*
X135475984Y-97095467D01*
X135500492Y-97036005D01*
X135525858Y-96976823D01*
X135528789Y-96967353D01*
X135570524Y-96829117D01*
X141265000Y-96829117D01*
X141265000Y-97170883D01*
X141331675Y-97506081D01*
X141462463Y-97821831D01*
X141652337Y-98105998D01*
X141894002Y-98347663D01*
X142178169Y-98537537D01*
X142493919Y-98668325D01*
X142829117Y-98735000D01*
X143170883Y-98735000D01*
X143506081Y-98668325D01*
X143821831Y-98537537D01*
X144105998Y-98347663D01*
X144347663Y-98105998D01*
X144537537Y-97821831D01*
X144668325Y-97506081D01*
X144735000Y-97170883D01*
X144735000Y-96829117D01*
X144725205Y-96779872D01*
X144765000Y-96779872D01*
X144765000Y-97220128D01*
X144850890Y-97651925D01*
X145019369Y-98058669D01*
X145263962Y-98424729D01*
X145575271Y-98736038D01*
X145941331Y-98980631D01*
X146348075Y-99149110D01*
X146779872Y-99235000D01*
X147220128Y-99235000D01*
X147651925Y-99149110D01*
X148058669Y-98980631D01*
X148424729Y-98736038D01*
X148736038Y-98424729D01*
X148980631Y-98058669D01*
X149149110Y-97651925D01*
X149235000Y-97220128D01*
X149235000Y-96779872D01*
X149149110Y-96348075D01*
X148980631Y-95941331D01*
X148736038Y-95575271D01*
X148424729Y-95263962D01*
X148058669Y-95019369D01*
X147651925Y-94850890D01*
X147220128Y-94765000D01*
X146779872Y-94765000D01*
X146348075Y-94850890D01*
X145941331Y-95019369D01*
X145575271Y-95263962D01*
X145263962Y-95575271D01*
X145019369Y-95941331D01*
X144850890Y-96348075D01*
X144765000Y-96779872D01*
X144725205Y-96779872D01*
X144668325Y-96493919D01*
X144537537Y-96178169D01*
X144347663Y-95894002D01*
X144105998Y-95652337D01*
X143821831Y-95462463D01*
X143506081Y-95331675D01*
X143170883Y-95265000D01*
X142829117Y-95265000D01*
X142493919Y-95331675D01*
X142178169Y-95462463D01*
X141894002Y-95652337D01*
X141652337Y-95894002D01*
X141462463Y-96178169D01*
X141331675Y-96493919D01*
X141265000Y-96829117D01*
X135570524Y-96829117D01*
X135641607Y-96593682D01*
X135654108Y-96530544D01*
X135667485Y-96467612D01*
X135668521Y-96457753D01*
X135706611Y-96069284D01*
X135710000Y-96034877D01*
X135710000Y-94303709D01*
X135723353Y-94310846D01*
X135866614Y-94354303D01*
X135978267Y-94365300D01*
X135978277Y-94365300D01*
X136015600Y-94368976D01*
X136052923Y-94365300D01*
X143836078Y-94365300D01*
X143873400Y-94368976D01*
X143910722Y-94365300D01*
X143910733Y-94365300D01*
X144022386Y-94354303D01*
X144165647Y-94310846D01*
X144297676Y-94240274D01*
X144413401Y-94145301D01*
X144437203Y-94116298D01*
X144717377Y-93836125D01*
X144779820Y-93869502D01*
X144899518Y-93905812D01*
X145024000Y-93918072D01*
X148174000Y-93918072D01*
X148298482Y-93905812D01*
X148418180Y-93869502D01*
X148528494Y-93810537D01*
X148625185Y-93731185D01*
X148704537Y-93634494D01*
X148763502Y-93524180D01*
X148799812Y-93404482D01*
X148812072Y-93280000D01*
X148812072Y-92280000D01*
X148799812Y-92155518D01*
X148763502Y-92035820D01*
X148704537Y-91925506D01*
X148625185Y-91828815D01*
X148528494Y-91749463D01*
X148418180Y-91690498D01*
X148298482Y-91654188D01*
X148174000Y-91641928D01*
X145417464Y-91641928D01*
X145404246Y-91598353D01*
X145333674Y-91466324D01*
X145311622Y-91439454D01*
X145262499Y-91379596D01*
X145262495Y-91379592D01*
X145261247Y-91378072D01*
X148174000Y-91378072D01*
X148298482Y-91365812D01*
X148418180Y-91329502D01*
X148528494Y-91270537D01*
X148625185Y-91191185D01*
X148704537Y-91094494D01*
X148763502Y-90984180D01*
X148799812Y-90864482D01*
X148812072Y-90740000D01*
X148812072Y-89740000D01*
X148799812Y-89615518D01*
X148763502Y-89495820D01*
X148704537Y-89385506D01*
X148625185Y-89288815D01*
X148528494Y-89209463D01*
X148418180Y-89150498D01*
X148298482Y-89114188D01*
X148174000Y-89101928D01*
X147359000Y-89101928D01*
X147359000Y-88838072D01*
X148174000Y-88838072D01*
X148298482Y-88825812D01*
X148418180Y-88789502D01*
X148528494Y-88730537D01*
X148625185Y-88651185D01*
X148704537Y-88554494D01*
X148763502Y-88444180D01*
X148799812Y-88324482D01*
X148812072Y-88200000D01*
X148812072Y-87200000D01*
X148799812Y-87075518D01*
X148763502Y-86955820D01*
X148704537Y-86845506D01*
X148625185Y-86748815D01*
X148528494Y-86669463D01*
X148418180Y-86610498D01*
X148298482Y-86574188D01*
X148174000Y-86561928D01*
X145024000Y-86561928D01*
X144899518Y-86574188D01*
X144779820Y-86610498D01*
X144669506Y-86669463D01*
X144572815Y-86748815D01*
X144493463Y-86845506D01*
X144434498Y-86955820D01*
X144398188Y-87075518D01*
X144385928Y-87200000D01*
X144385928Y-87925790D01*
X144180863Y-87885000D01*
X143967137Y-87885000D01*
X143762072Y-87925790D01*
X143762072Y-87200000D01*
X143749812Y-87075518D01*
X143713502Y-86955820D01*
X143654537Y-86845506D01*
X143575185Y-86748815D01*
X143570902Y-86745300D01*
X143848378Y-86745300D01*
X143885700Y-86748976D01*
X143923022Y-86745300D01*
X143923033Y-86745300D01*
X144034686Y-86734303D01*
X144177947Y-86690846D01*
X144309976Y-86620274D01*
X144425701Y-86525301D01*
X144449503Y-86496298D01*
X144725392Y-86220409D01*
X144779820Y-86249502D01*
X144899518Y-86285812D01*
X145024000Y-86298072D01*
X148174000Y-86298072D01*
X148298482Y-86285812D01*
X148418180Y-86249502D01*
X148528494Y-86190537D01*
X148625185Y-86111185D01*
X148704537Y-86014494D01*
X148763502Y-85904180D01*
X148799812Y-85784482D01*
X148812072Y-85660000D01*
X148812072Y-84660000D01*
X148799812Y-84535518D01*
X148763502Y-84415820D01*
X148704537Y-84305506D01*
X148625185Y-84208815D01*
X148528494Y-84129463D01*
X148418180Y-84070498D01*
X148298482Y-84034188D01*
X148174000Y-84021928D01*
X145024000Y-84021928D01*
X144899518Y-84034188D01*
X144779820Y-84070498D01*
X144669506Y-84129463D01*
X144572815Y-84208815D01*
X144493463Y-84305506D01*
X144476588Y-84337077D01*
X144420274Y-84280763D01*
X144266685Y-84178139D01*
X144390856Y-84126705D01*
X144560374Y-84013437D01*
X144704537Y-83869274D01*
X144805989Y-83717440D01*
X144899518Y-83745812D01*
X145024000Y-83758072D01*
X148174000Y-83758072D01*
X148298482Y-83745812D01*
X148418180Y-83709502D01*
X148528494Y-83650537D01*
X148625185Y-83571185D01*
X148704537Y-83474494D01*
X148763502Y-83364180D01*
X148799812Y-83244482D01*
X148812072Y-83120000D01*
X148812072Y-82120000D01*
X148799812Y-81995518D01*
X148763502Y-81875820D01*
X148704537Y-81765506D01*
X148625185Y-81668815D01*
X148528494Y-81589463D01*
X148418180Y-81530498D01*
X148298482Y-81494188D01*
X148174000Y-81481928D01*
X145024000Y-81481928D01*
X144899518Y-81494188D01*
X144805133Y-81522819D01*
X144744005Y-81375244D01*
X144630737Y-81205726D01*
X144486574Y-81061563D01*
X144392978Y-80999024D01*
X144480939Y-80911063D01*
X144493463Y-80934494D01*
X144572815Y-81031185D01*
X144669506Y-81110537D01*
X144779820Y-81169502D01*
X144899518Y-81205812D01*
X145024000Y-81218072D01*
X148174000Y-81218072D01*
X148298482Y-81205812D01*
X148418180Y-81169502D01*
X148528494Y-81110537D01*
X148625185Y-81031185D01*
X148704537Y-80934494D01*
X148763502Y-80824180D01*
X148799812Y-80704482D01*
X148812072Y-80580000D01*
X148812072Y-79580000D01*
X148799812Y-79455518D01*
X148763502Y-79335820D01*
X148704537Y-79225506D01*
X148625185Y-79128815D01*
X148528494Y-79049463D01*
X148418180Y-78990498D01*
X148298482Y-78954188D01*
X148174000Y-78941928D01*
X145081363Y-78941928D01*
X145041137Y-78881726D01*
X144896974Y-78737563D01*
X144727456Y-78624295D01*
X144539098Y-78546274D01*
X144339139Y-78506500D01*
X144219701Y-78506500D01*
X144426202Y-78300000D01*
X144442954Y-78300000D01*
X144493463Y-78394494D01*
X144572815Y-78491185D01*
X144669506Y-78570537D01*
X144779820Y-78629502D01*
X144899518Y-78665812D01*
X145024000Y-78678072D01*
X148174000Y-78678072D01*
X148298482Y-78665812D01*
X148418180Y-78629502D01*
X148528494Y-78570537D01*
X148625185Y-78491185D01*
X148704537Y-78394494D01*
X148763502Y-78284180D01*
X148799812Y-78164482D01*
X148812072Y-78040000D01*
X148812072Y-77040000D01*
X148799812Y-76915518D01*
X148763502Y-76795820D01*
X148704537Y-76685506D01*
X148625185Y-76588815D01*
X148528494Y-76509463D01*
X148418180Y-76450498D01*
X148298482Y-76414188D01*
X148174000Y-76401928D01*
X145024000Y-76401928D01*
X144899518Y-76414188D01*
X144779820Y-76450498D01*
X144669506Y-76509463D01*
X144572815Y-76588815D01*
X144493463Y-76685506D01*
X144442954Y-76780000D01*
X144442202Y-76780000D01*
X144183503Y-76521302D01*
X144297676Y-76460274D01*
X144413401Y-76365301D01*
X144437203Y-76336298D01*
X144717377Y-76056125D01*
X144779820Y-76089502D01*
X144899518Y-76125812D01*
X145024000Y-76138072D01*
X148174000Y-76138072D01*
X148298482Y-76125812D01*
X148418180Y-76089502D01*
X148528494Y-76030537D01*
X148625185Y-75951185D01*
X148704537Y-75854494D01*
X148763502Y-75744180D01*
X148799812Y-75624482D01*
X148812072Y-75500000D01*
X148812072Y-74500000D01*
X148799812Y-74375518D01*
X148763502Y-74255820D01*
X148704537Y-74145506D01*
X148625185Y-74048815D01*
X148528494Y-73969463D01*
X148418180Y-73910498D01*
X148298482Y-73874188D01*
X148174000Y-73861928D01*
X145024000Y-73861928D01*
X144899518Y-73874188D01*
X144779820Y-73910498D01*
X144669506Y-73969463D01*
X144572815Y-74048815D01*
X144493463Y-74145506D01*
X144434498Y-74255820D01*
X144424433Y-74289000D01*
X144406453Y-74294454D01*
X144274424Y-74365026D01*
X144274422Y-74365027D01*
X144274423Y-74365027D01*
X144187696Y-74436201D01*
X144187692Y-74436205D01*
X144158699Y-74459999D01*
X144134905Y-74488992D01*
X143762072Y-74861826D01*
X143762072Y-74500000D01*
X143749812Y-74375518D01*
X143713502Y-74255820D01*
X143654537Y-74145506D01*
X143575185Y-74048815D01*
X143570902Y-74045300D01*
X143836078Y-74045300D01*
X143873400Y-74048976D01*
X143910722Y-74045300D01*
X143910733Y-74045300D01*
X144022386Y-74034303D01*
X144165647Y-73990846D01*
X144297676Y-73920274D01*
X144413401Y-73825301D01*
X144437203Y-73796298D01*
X144717377Y-73516125D01*
X144779820Y-73549502D01*
X144899518Y-73585812D01*
X145024000Y-73598072D01*
X148174000Y-73598072D01*
X148298482Y-73585812D01*
X148418180Y-73549502D01*
X148528494Y-73490537D01*
X148625185Y-73411185D01*
X148704537Y-73314494D01*
X148763502Y-73204180D01*
X148799812Y-73084482D01*
X148812072Y-72960000D01*
X148812072Y-71960000D01*
X148799812Y-71835518D01*
X148763502Y-71715820D01*
X148704537Y-71605506D01*
X148625185Y-71508815D01*
X148528494Y-71429463D01*
X148418180Y-71370498D01*
X148298482Y-71334188D01*
X148174000Y-71321928D01*
X145024000Y-71321928D01*
X144899518Y-71334188D01*
X144779820Y-71370498D01*
X144669506Y-71429463D01*
X144572815Y-71508815D01*
X144493463Y-71605506D01*
X144434498Y-71715820D01*
X144424433Y-71749000D01*
X144406453Y-71754454D01*
X144274424Y-71825026D01*
X144261639Y-71835518D01*
X144187696Y-71896201D01*
X144187692Y-71896205D01*
X144158699Y-71919999D01*
X144134905Y-71948992D01*
X143762072Y-72321826D01*
X143762072Y-71960000D01*
X143749812Y-71835518D01*
X143713502Y-71715820D01*
X143654537Y-71605506D01*
X143575185Y-71508815D01*
X143571024Y-71505400D01*
X143835978Y-71505400D01*
X143873300Y-71509076D01*
X143910622Y-71505400D01*
X143910633Y-71505400D01*
X144022286Y-71494403D01*
X144165547Y-71450946D01*
X144297576Y-71380374D01*
X144413301Y-71285401D01*
X144437103Y-71256398D01*
X144717377Y-70976125D01*
X144779820Y-71009502D01*
X144899518Y-71045812D01*
X145024000Y-71058072D01*
X148174000Y-71058072D01*
X148298482Y-71045812D01*
X148418180Y-71009502D01*
X148528494Y-70950537D01*
X148625185Y-70871185D01*
X148704537Y-70774494D01*
X148763502Y-70664180D01*
X148799812Y-70544482D01*
X148812072Y-70420000D01*
X148812072Y-69420000D01*
X148799812Y-69295518D01*
X148763502Y-69175820D01*
X148704537Y-69065506D01*
X148625185Y-68968815D01*
X148528494Y-68889463D01*
X148418180Y-68830498D01*
X148298482Y-68794188D01*
X148174000Y-68781928D01*
X145024000Y-68781928D01*
X144899518Y-68794188D01*
X144779820Y-68830498D01*
X144669506Y-68889463D01*
X144572815Y-68968815D01*
X144493463Y-69065506D01*
X144434498Y-69175820D01*
X144424433Y-69209000D01*
X144406453Y-69214454D01*
X144274423Y-69285026D01*
X144199096Y-69346846D01*
X144158699Y-69379999D01*
X144134901Y-69408997D01*
X143762072Y-69781826D01*
X143762072Y-69420000D01*
X143749812Y-69295518D01*
X143713502Y-69175820D01*
X143654537Y-69065506D01*
X143575185Y-68968815D01*
X143478494Y-68889463D01*
X143368180Y-68830498D01*
X143248482Y-68794188D01*
X143124000Y-68781928D01*
X142692600Y-68781928D01*
X142692600Y-68647961D01*
X142666764Y-68518072D01*
X143124000Y-68518072D01*
X143248482Y-68505812D01*
X143368180Y-68469502D01*
X143478494Y-68410537D01*
X143568602Y-68336587D01*
X143583744Y-68346705D01*
X143772102Y-68424726D01*
X143972061Y-68464500D01*
X144175939Y-68464500D01*
X144375898Y-68424726D01*
X144564256Y-68346705D01*
X144579398Y-68336587D01*
X144669506Y-68410537D01*
X144779820Y-68469502D01*
X144899518Y-68505812D01*
X145024000Y-68518072D01*
X148174000Y-68518072D01*
X148298482Y-68505812D01*
X148418180Y-68469502D01*
X148528494Y-68410537D01*
X148625185Y-68331185D01*
X148704537Y-68234494D01*
X148763502Y-68124180D01*
X148799812Y-68004482D01*
X148812072Y-67880000D01*
X148812072Y-66880000D01*
X148799812Y-66755518D01*
X148763502Y-66635820D01*
X148704537Y-66525506D01*
X148625185Y-66428815D01*
X148528494Y-66349463D01*
X148418180Y-66290498D01*
X148298482Y-66254188D01*
X148174000Y-66241928D01*
X145024000Y-66241928D01*
X144899518Y-66254188D01*
X144779820Y-66290498D01*
X144669506Y-66349463D01*
X144572815Y-66428815D01*
X144519514Y-66493762D01*
X144375898Y-66434274D01*
X144175939Y-66394500D01*
X144087669Y-66394500D01*
X144165647Y-66370846D01*
X144297676Y-66300274D01*
X144413401Y-66205301D01*
X144437203Y-66176298D01*
X144717377Y-65896125D01*
X144779820Y-65929502D01*
X144899518Y-65965812D01*
X145024000Y-65978072D01*
X148174000Y-65978072D01*
X148298482Y-65965812D01*
X148418180Y-65929502D01*
X148528494Y-65870537D01*
X148625185Y-65791185D01*
X148704537Y-65694494D01*
X148763502Y-65584180D01*
X148799812Y-65464482D01*
X148812072Y-65340000D01*
X148812072Y-64340000D01*
X148799812Y-64215518D01*
X148763502Y-64095820D01*
X148704537Y-63985506D01*
X148625185Y-63888815D01*
X148528494Y-63809463D01*
X148418180Y-63750498D01*
X148298482Y-63714188D01*
X148174000Y-63701928D01*
X145024000Y-63701928D01*
X144899518Y-63714188D01*
X144779820Y-63750498D01*
X144669506Y-63809463D01*
X144572815Y-63888815D01*
X144493463Y-63985506D01*
X144434498Y-64095820D01*
X144424433Y-64129000D01*
X144406453Y-64134454D01*
X144274424Y-64205026D01*
X144274422Y-64205027D01*
X144274423Y-64205027D01*
X144187696Y-64276201D01*
X144187692Y-64276205D01*
X144158699Y-64299999D01*
X144134905Y-64328992D01*
X143762072Y-64701826D01*
X143762072Y-64340000D01*
X143749812Y-64215518D01*
X143713502Y-64095820D01*
X143654537Y-63985506D01*
X143575185Y-63888815D01*
X143478494Y-63809463D01*
X143368180Y-63750498D01*
X143248482Y-63714188D01*
X143124000Y-63701928D01*
X139974000Y-63701928D01*
X139849518Y-63714188D01*
X139729820Y-63750498D01*
X139619506Y-63809463D01*
X139522815Y-63888815D01*
X139443463Y-63985506D01*
X139386380Y-64092300D01*
X139371011Y-64092300D01*
X139339474Y-64060763D01*
X139169956Y-63947495D01*
X138981598Y-63869474D01*
X138781639Y-63829700D01*
X138731902Y-63829700D01*
X138596203Y-63694002D01*
X138572401Y-63664999D01*
X138456676Y-63570026D01*
X138324647Y-63499454D01*
X138181386Y-63455997D01*
X138069733Y-63445000D01*
X138069722Y-63445000D01*
X138032400Y-63441324D01*
X137995078Y-63445000D01*
X136009424Y-63445000D01*
X136077446Y-63291864D01*
X136094119Y-63236874D01*
X135967954Y-63062000D01*
X135710000Y-63062000D01*
X135710000Y-62808000D01*
X135967954Y-62808000D01*
X136094119Y-62633126D01*
X136077446Y-62578136D01*
X136009424Y-62425000D01*
X138698899Y-62425000D01*
X139084900Y-62811002D01*
X139108699Y-62840001D01*
X139137697Y-62863799D01*
X139224424Y-62934974D01*
X139356453Y-63005546D01*
X139374433Y-63011000D01*
X139384498Y-63044180D01*
X139443463Y-63154494D01*
X139522815Y-63251185D01*
X139619506Y-63330537D01*
X139729820Y-63389502D01*
X139849518Y-63425812D01*
X139974000Y-63438072D01*
X143124000Y-63438072D01*
X143248482Y-63425812D01*
X143368180Y-63389502D01*
X143478494Y-63330537D01*
X143575185Y-63251185D01*
X143654537Y-63154494D01*
X143713502Y-63044180D01*
X143749812Y-62924482D01*
X143762072Y-62800000D01*
X144385928Y-62800000D01*
X144398188Y-62924482D01*
X144434498Y-63044180D01*
X144493463Y-63154494D01*
X144572815Y-63251185D01*
X144669506Y-63330537D01*
X144779820Y-63389502D01*
X144899518Y-63425812D01*
X145024000Y-63438072D01*
X146313250Y-63435000D01*
X146472000Y-63276250D01*
X146472000Y-62427000D01*
X146726000Y-62427000D01*
X146726000Y-63276250D01*
X146884750Y-63435000D01*
X148174000Y-63438072D01*
X148298482Y-63425812D01*
X148418180Y-63389502D01*
X148528494Y-63330537D01*
X148625185Y-63251185D01*
X148704537Y-63154494D01*
X148763502Y-63044180D01*
X148799812Y-62924482D01*
X148812072Y-62800000D01*
X148809000Y-62585750D01*
X148650250Y-62427000D01*
X146726000Y-62427000D01*
X146472000Y-62427000D01*
X144547750Y-62427000D01*
X144389000Y-62585750D01*
X144385928Y-62800000D01*
X143762072Y-62800000D01*
X143762072Y-62074210D01*
X143967137Y-62115000D01*
X144180863Y-62115000D01*
X144390483Y-62073304D01*
X144431192Y-62056442D01*
X144547750Y-62173000D01*
X146472000Y-62173000D01*
X146472000Y-61323750D01*
X146726000Y-61323750D01*
X146726000Y-62173000D01*
X148650250Y-62173000D01*
X148809000Y-62014250D01*
X148812072Y-61800000D01*
X148799812Y-61675518D01*
X148763502Y-61555820D01*
X148704537Y-61445506D01*
X148625185Y-61348815D01*
X148528494Y-61269463D01*
X148418180Y-61210498D01*
X148298482Y-61174188D01*
X148174000Y-61161928D01*
X146884750Y-61165000D01*
X146726000Y-61323750D01*
X146472000Y-61323750D01*
X146313250Y-61165000D01*
X145153953Y-61162238D01*
X145159000Y-61136863D01*
X145159000Y-60923137D01*
X145153953Y-60897762D01*
X146313250Y-60895000D01*
X146472000Y-60736250D01*
X146472000Y-59887000D01*
X146726000Y-59887000D01*
X146726000Y-60736250D01*
X146884750Y-60895000D01*
X148174000Y-60898072D01*
X148298482Y-60885812D01*
X148418180Y-60849502D01*
X148528494Y-60790537D01*
X148625185Y-60711185D01*
X148704537Y-60614494D01*
X148763502Y-60504180D01*
X148799812Y-60384482D01*
X148812072Y-60260000D01*
X148809000Y-60045750D01*
X148650250Y-59887000D01*
X146726000Y-59887000D01*
X146472000Y-59887000D01*
X144547750Y-59887000D01*
X144431192Y-60003558D01*
X144390483Y-59986696D01*
X144180863Y-59945000D01*
X143967137Y-59945000D01*
X143762072Y-59985790D01*
X143762072Y-59260000D01*
X144385928Y-59260000D01*
X144389000Y-59474250D01*
X144547750Y-59633000D01*
X146472000Y-59633000D01*
X146472000Y-58783750D01*
X146726000Y-58783750D01*
X146726000Y-59633000D01*
X148650250Y-59633000D01*
X148809000Y-59474250D01*
X148812072Y-59260000D01*
X148799812Y-59135518D01*
X148763502Y-59015820D01*
X148704537Y-58905506D01*
X148625185Y-58808815D01*
X148528494Y-58729463D01*
X148418180Y-58670498D01*
X148298482Y-58634188D01*
X148174000Y-58621928D01*
X146884750Y-58625000D01*
X146726000Y-58783750D01*
X146472000Y-58783750D01*
X146313250Y-58625000D01*
X145024000Y-58621928D01*
X144899518Y-58634188D01*
X144779820Y-58670498D01*
X144669506Y-58729463D01*
X144572815Y-58808815D01*
X144493463Y-58905506D01*
X144434498Y-59015820D01*
X144398188Y-59135518D01*
X144385928Y-59260000D01*
X143762072Y-59260000D01*
X143749812Y-59135518D01*
X143713502Y-59015820D01*
X143654537Y-58905506D01*
X143575185Y-58808815D01*
X143478494Y-58729463D01*
X143368180Y-58670498D01*
X143248482Y-58634188D01*
X143124000Y-58621928D01*
X139974000Y-58621928D01*
X139849518Y-58634188D01*
X139729820Y-58670498D01*
X139667376Y-58703875D01*
X139577503Y-58614002D01*
X139553701Y-58584999D01*
X139437976Y-58490026D01*
X139305947Y-58419454D01*
X139162686Y-58375997D01*
X139051033Y-58365000D01*
X139051022Y-58365000D01*
X139013700Y-58361324D01*
X138976378Y-58365000D01*
X136009424Y-58365000D01*
X136077446Y-58211864D01*
X136094119Y-58156874D01*
X135967954Y-57982000D01*
X135710000Y-57982000D01*
X135710000Y-57728000D01*
X135967954Y-57728000D01*
X136094119Y-57553126D01*
X136077446Y-57498136D01*
X136041930Y-57418180D01*
X136081046Y-57345000D01*
X138698899Y-57345000D01*
X139084900Y-57731002D01*
X139108699Y-57760001D01*
X139137697Y-57783799D01*
X139224424Y-57854974D01*
X139356453Y-57925546D01*
X139374433Y-57931000D01*
X139384498Y-57964180D01*
X139443463Y-58074494D01*
X139522815Y-58171185D01*
X139619506Y-58250537D01*
X139729820Y-58309502D01*
X139849518Y-58345812D01*
X139974000Y-58358072D01*
X143124000Y-58358072D01*
X143248482Y-58345812D01*
X143368180Y-58309502D01*
X143478494Y-58250537D01*
X143575185Y-58171185D01*
X143654537Y-58074494D01*
X143713502Y-57964180D01*
X143749812Y-57844482D01*
X143762072Y-57720000D01*
X144385928Y-57720000D01*
X144398188Y-57844482D01*
X144434498Y-57964180D01*
X144493463Y-58074494D01*
X144572815Y-58171185D01*
X144669506Y-58250537D01*
X144779820Y-58309502D01*
X144899518Y-58345812D01*
X145024000Y-58358072D01*
X146313250Y-58355000D01*
X146472000Y-58196250D01*
X146472000Y-57347000D01*
X146726000Y-57347000D01*
X146726000Y-58196250D01*
X146884750Y-58355000D01*
X148174000Y-58358072D01*
X148298482Y-58345812D01*
X148418180Y-58309502D01*
X148528494Y-58250537D01*
X148625185Y-58171185D01*
X148704537Y-58074494D01*
X148763502Y-57964180D01*
X148799812Y-57844482D01*
X148812072Y-57720000D01*
X148809000Y-57505750D01*
X148650250Y-57347000D01*
X146726000Y-57347000D01*
X146472000Y-57347000D01*
X144547750Y-57347000D01*
X144389000Y-57505750D01*
X144385928Y-57720000D01*
X143762072Y-57720000D01*
X143762072Y-56720000D01*
X144385928Y-56720000D01*
X144389000Y-56934250D01*
X144547750Y-57093000D01*
X146472000Y-57093000D01*
X146472000Y-56243750D01*
X146726000Y-56243750D01*
X146726000Y-57093000D01*
X148650250Y-57093000D01*
X148809000Y-56934250D01*
X148812072Y-56720000D01*
X148799812Y-56595518D01*
X148763502Y-56475820D01*
X148704537Y-56365506D01*
X148625185Y-56268815D01*
X148528494Y-56189463D01*
X148418180Y-56130498D01*
X148298482Y-56094188D01*
X148174000Y-56081928D01*
X146884750Y-56085000D01*
X146726000Y-56243750D01*
X146472000Y-56243750D01*
X146313250Y-56085000D01*
X145024000Y-56081928D01*
X144899518Y-56094188D01*
X144779820Y-56130498D01*
X144669506Y-56189463D01*
X144572815Y-56268815D01*
X144493463Y-56365506D01*
X144434498Y-56475820D01*
X144398188Y-56595518D01*
X144385928Y-56720000D01*
X143762072Y-56720000D01*
X143749812Y-56595518D01*
X143713502Y-56475820D01*
X143654537Y-56365506D01*
X143575185Y-56268815D01*
X143478494Y-56189463D01*
X143368180Y-56130498D01*
X143248482Y-56094188D01*
X143124000Y-56081928D01*
X139974000Y-56081928D01*
X139849518Y-56094188D01*
X139729820Y-56130498D01*
X139667376Y-56163875D01*
X139577503Y-56074002D01*
X139553701Y-56044999D01*
X139437976Y-55950026D01*
X139305947Y-55879454D01*
X139162686Y-55835997D01*
X139051033Y-55825000D01*
X139051022Y-55825000D01*
X139013700Y-55821324D01*
X138976378Y-55825000D01*
X136081046Y-55825000D01*
X136030537Y-55730506D01*
X135951185Y-55633815D01*
X135854494Y-55554463D01*
X135744180Y-55495498D01*
X135710000Y-55485130D01*
X135710000Y-53965123D01*
X135706943Y-53934079D01*
X135707029Y-53921687D01*
X135706061Y-53911821D01*
X135665260Y-53523628D01*
X135652330Y-53460640D01*
X135640263Y-53397381D01*
X135637398Y-53387891D01*
X135521974Y-53015016D01*
X135497029Y-52955675D01*
X135472931Y-52896029D01*
X135468277Y-52887276D01*
X135436831Y-52829117D01*
X141265000Y-52829117D01*
X141265000Y-53170883D01*
X141331675Y-53506081D01*
X141462463Y-53821831D01*
X141652337Y-54105998D01*
X141894002Y-54347663D01*
X142178169Y-54537537D01*
X142493919Y-54668325D01*
X142829117Y-54735000D01*
X143170883Y-54735000D01*
X143506081Y-54668325D01*
X143821831Y-54537537D01*
X144105998Y-54347663D01*
X144347663Y-54105998D01*
X144537537Y-53821831D01*
X144668325Y-53506081D01*
X144735000Y-53170883D01*
X144735000Y-52829117D01*
X144725205Y-52779872D01*
X144765000Y-52779872D01*
X144765000Y-53220128D01*
X144850890Y-53651925D01*
X145019369Y-54058669D01*
X145263962Y-54424729D01*
X145575271Y-54736038D01*
X145941331Y-54980631D01*
X146348075Y-55149110D01*
X146779872Y-55235000D01*
X147220128Y-55235000D01*
X147651925Y-55149110D01*
X148058669Y-54980631D01*
X148424729Y-54736038D01*
X148736038Y-54424729D01*
X148980631Y-54058669D01*
X149149110Y-53651925D01*
X149235000Y-53220128D01*
X149235000Y-52779872D01*
X149149110Y-52348075D01*
X148980631Y-51941331D01*
X148736038Y-51575271D01*
X148424729Y-51263962D01*
X148058669Y-51019369D01*
X147651925Y-50850890D01*
X147220128Y-50765000D01*
X146779872Y-50765000D01*
X146348075Y-50850890D01*
X145941331Y-51019369D01*
X145575271Y-51263962D01*
X145263962Y-51575271D01*
X145019369Y-51941331D01*
X144850890Y-52348075D01*
X144765000Y-52779872D01*
X144725205Y-52779872D01*
X144668325Y-52493919D01*
X144537537Y-52178169D01*
X144347663Y-51894002D01*
X144105998Y-51652337D01*
X143821831Y-51462463D01*
X143506081Y-51331675D01*
X143170883Y-51265000D01*
X142829117Y-51265000D01*
X142493919Y-51331675D01*
X142178169Y-51462463D01*
X141894002Y-51652337D01*
X141652337Y-51894002D01*
X141462463Y-52178169D01*
X141331675Y-52493919D01*
X141265000Y-52829117D01*
X135436831Y-52829117D01*
X135282626Y-52543921D01*
X135246644Y-52490576D01*
X135211404Y-52436724D01*
X135205138Y-52429042D01*
X134956332Y-52128287D01*
X134910677Y-52082950D01*
X134865647Y-52036967D01*
X134858009Y-52030648D01*
X134555524Y-51783948D01*
X134501941Y-51748348D01*
X134448828Y-51711980D01*
X134440108Y-51707265D01*
X134095467Y-51524016D01*
X134035993Y-51499503D01*
X133976823Y-51474142D01*
X133967353Y-51471211D01*
X133593681Y-51358393D01*
X133530551Y-51345893D01*
X133467612Y-51332515D01*
X133457753Y-51331479D01*
X133070016Y-51293461D01*
X133034877Y-51290000D01*
X111965123Y-51290000D01*
X111934079Y-51293057D01*
X111921687Y-51292971D01*
X111911821Y-51293939D01*
X111523628Y-51334740D01*
X111460640Y-51347670D01*
X111397381Y-51359737D01*
X111387891Y-51362602D01*
X111015016Y-51478026D01*
X110955675Y-51502971D01*
X110896029Y-51527069D01*
X110887276Y-51531723D01*
X110543921Y-51717374D01*
X110490576Y-51753356D01*
X110436724Y-51788596D01*
X110429042Y-51794862D01*
X110128287Y-52043668D01*
X110082950Y-52089323D01*
X110036967Y-52134353D01*
X110030648Y-52141991D01*
X109783948Y-52444476D01*
X109748348Y-52498059D01*
X109711980Y-52551172D01*
X109707265Y-52559892D01*
X109524016Y-52904533D01*
X109499503Y-52964007D01*
X109474142Y-53023177D01*
X109471211Y-53032647D01*
X109358393Y-53406319D01*
X109345893Y-53469449D01*
X109332515Y-53532388D01*
X109331479Y-53542247D01*
X109293389Y-53930716D01*
X109262093Y-54249899D01*
X109189517Y-54490282D01*
X109071633Y-54711989D01*
X108912929Y-54906580D01*
X108719455Y-55066635D01*
X108498576Y-55186064D01*
X108258701Y-55260317D01*
X107976291Y-55290000D01*
X103965123Y-55290000D01*
X103934079Y-55293057D01*
X103921687Y-55292971D01*
X103911821Y-55293939D01*
X103523628Y-55334740D01*
X103460640Y-55347670D01*
X103397381Y-55359737D01*
X103387891Y-55362602D01*
X103015016Y-55478026D01*
X102955675Y-55502971D01*
X102896029Y-55527069D01*
X102887276Y-55531723D01*
X102543921Y-55717374D01*
X102490576Y-55753356D01*
X102436724Y-55788596D01*
X102429042Y-55794862D01*
X102128287Y-56043668D01*
X102082950Y-56089323D01*
X102036967Y-56134353D01*
X102030648Y-56141991D01*
X101783948Y-56444476D01*
X101748348Y-56498059D01*
X101711980Y-56551172D01*
X101707265Y-56559892D01*
X101524016Y-56904533D01*
X101499503Y-56964007D01*
X101474142Y-57023177D01*
X101471211Y-57032647D01*
X101358393Y-57406319D01*
X101345893Y-57469449D01*
X101332515Y-57532388D01*
X101331479Y-57542247D01*
X101293439Y-57930210D01*
X101290000Y-57965124D01*
X100710000Y-57965124D01*
X100710000Y-55034877D01*
X100713435Y-55000000D01*
X100699727Y-54860816D01*
X100659128Y-54726980D01*
X100593200Y-54603637D01*
X100504475Y-54495525D01*
X100396363Y-54406800D01*
X100273020Y-54340872D01*
X100139184Y-54300273D01*
X100110000Y-54297399D01*
X100110000Y-52779872D01*
X100765000Y-52779872D01*
X100765000Y-53220128D01*
X100850890Y-53651925D01*
X101019369Y-54058669D01*
X101263962Y-54424729D01*
X101575271Y-54736038D01*
X101941331Y-54980631D01*
X102348075Y-55149110D01*
X102779872Y-55235000D01*
X103220128Y-55235000D01*
X103651925Y-55149110D01*
X104058669Y-54980631D01*
X104424729Y-54736038D01*
X104736038Y-54424729D01*
X104980631Y-54058669D01*
X105149110Y-53651925D01*
X105235000Y-53220128D01*
X105235000Y-52829117D01*
X105265000Y-52829117D01*
X105265000Y-53170883D01*
X105331675Y-53506081D01*
X105462463Y-53821831D01*
X105652337Y-54105998D01*
X105894002Y-54347663D01*
X106178169Y-54537537D01*
X106493919Y-54668325D01*
X106829117Y-54735000D01*
X107170883Y-54735000D01*
X107506081Y-54668325D01*
X107821831Y-54537537D01*
X108105998Y-54347663D01*
X108347663Y-54105998D01*
X108537537Y-53821831D01*
X108668325Y-53506081D01*
X108735000Y-53170883D01*
X108735000Y-52829117D01*
X108668325Y-52493919D01*
X108537537Y-52178169D01*
X108347663Y-51894002D01*
X108105998Y-51652337D01*
X107821831Y-51462463D01*
X107506081Y-51331675D01*
X107170883Y-51265000D01*
X106829117Y-51265000D01*
X106493919Y-51331675D01*
X106178169Y-51462463D01*
X105894002Y-51652337D01*
X105652337Y-51894002D01*
X105462463Y-52178169D01*
X105331675Y-52493919D01*
X105265000Y-52829117D01*
X105235000Y-52829117D01*
X105235000Y-52779872D01*
X105149110Y-52348075D01*
X104980631Y-51941331D01*
X104736038Y-51575271D01*
X104424729Y-51263962D01*
X104058669Y-51019369D01*
X103651925Y-50850890D01*
X103220128Y-50765000D01*
X102779872Y-50765000D01*
X102348075Y-50850890D01*
X101941331Y-51019369D01*
X101575271Y-51263962D01*
X101263962Y-51575271D01*
X101019369Y-51941331D01*
X100850890Y-52348075D01*
X100765000Y-52779872D01*
X100110000Y-52779872D01*
X100110000Y-52734720D01*
X100162665Y-52197597D01*
X100308574Y-51714326D01*
X100545570Y-51268601D01*
X100864631Y-50877393D01*
X101253593Y-50555616D01*
X101697654Y-50315514D01*
X102179898Y-50166235D01*
X102674969Y-50114200D01*
X107297813Y-50114200D01*
X107300273Y-50139184D01*
X107300273Y-50139184D01*
G37*
X107300273Y-50139184D02*
X107340872Y-50273020D01*
X107406800Y-50396363D01*
X107495525Y-50504475D01*
X107575128Y-50569803D01*
X107603637Y-50593200D01*
X107726980Y-50659128D01*
X107860816Y-50699727D01*
X108000000Y-50713435D01*
X108034877Y-50710000D01*
X141965123Y-50710000D01*
X142000000Y-50713435D01*
X142034877Y-50710000D01*
X142139184Y-50699727D01*
X142273020Y-50659128D01*
X142396363Y-50593200D01*
X142504475Y-50504475D01*
X142593200Y-50396363D01*
X142659128Y-50273020D01*
X142699727Y-50139184D01*
X142702187Y-50114200D01*
X147208106Y-50114200D01*
X147721830Y-50164571D01*
X148223785Y-50316120D01*
X148686737Y-50562276D01*
X149093069Y-50893673D01*
X149427287Y-51297672D01*
X149676672Y-51758898D01*
X149831722Y-52259785D01*
X149847300Y-52408001D01*
X149847300Y-54278248D01*
X149717367Y-54317663D01*
X149589680Y-54385913D01*
X149477762Y-54477763D01*
X149385913Y-54589681D01*
X149317663Y-54717368D01*
X149275635Y-54855916D01*
X149265000Y-54963896D01*
X149265001Y-95036105D01*
X149275636Y-95144085D01*
X149317664Y-95282633D01*
X149385914Y-95410320D01*
X149477763Y-95522238D01*
X149589681Y-95614087D01*
X149717368Y-95682337D01*
X149847300Y-95721751D01*
X149847300Y-97700771D01*
X149837335Y-97802403D01*
X149691427Y-98285673D01*
X149454429Y-98731402D01*
X149135371Y-99122604D01*
X148746407Y-99444384D01*
X148302348Y-99684485D01*
X147820102Y-99833765D01*
X147285071Y-99890000D01*
X142702601Y-99890000D01*
X142699727Y-99860816D01*
X142659128Y-99726980D01*
X142593200Y-99603637D01*
X142504475Y-99495525D01*
X142396363Y-99406800D01*
X142273020Y-99340872D01*
X142139184Y-99300273D01*
X142034877Y-99290000D01*
X142000000Y-99286565D01*
X141965123Y-99290000D01*
X108034877Y-99290000D01*
X108000000Y-99286565D01*
X107965123Y-99290000D01*
X107860816Y-99300273D01*
X107726980Y-99340872D01*
X107603637Y-99406800D01*
X107495525Y-99495525D01*
X107406800Y-99603637D01*
X107340872Y-99726980D01*
X107300273Y-99860816D01*
X107297399Y-99890000D01*
X102834720Y-99890000D01*
X102278169Y-99835429D01*
X101776219Y-99683881D01*
X101313262Y-99437723D01*
X100906932Y-99106329D01*
X100572713Y-98702328D01*
X100323326Y-98241097D01*
X100168278Y-97740215D01*
X100119211Y-97273367D01*
X100117965Y-96779872D01*
X100765000Y-96779872D01*
X100765000Y-97220128D01*
X100850890Y-97651925D01*
X101019369Y-98058669D01*
X101263962Y-98424729D01*
X101575271Y-98736038D01*
X101941331Y-98980631D01*
X102348075Y-99149110D01*
X102779872Y-99235000D01*
X103220128Y-99235000D01*
X103651925Y-99149110D01*
X104058669Y-98980631D01*
X104424729Y-98736038D01*
X104736038Y-98424729D01*
X104980631Y-98058669D01*
X105149110Y-97651925D01*
X105235000Y-97220128D01*
X105235000Y-96829117D01*
X105265000Y-96829117D01*
X105265000Y-97170883D01*
X105331675Y-97506081D01*
X105462463Y-97821831D01*
X105652337Y-98105998D01*
X105894002Y-98347663D01*
X106178169Y-98537537D01*
X106493919Y-98668325D01*
X106829117Y-98735000D01*
X107170883Y-98735000D01*
X107506081Y-98668325D01*
X107821831Y-98537537D01*
X108105998Y-98347663D01*
X108347663Y-98105998D01*
X108537537Y-97821831D01*
X108668325Y-97506081D01*
X108735000Y-97170883D01*
X108735000Y-96829117D01*
X108668325Y-96493919D01*
X108537537Y-96178169D01*
X108347663Y-95894002D01*
X108105998Y-95652337D01*
X107821831Y-95462463D01*
X107506081Y-95331675D01*
X107170883Y-95265000D01*
X106829117Y-95265000D01*
X106493919Y-95331675D01*
X106178169Y-95462463D01*
X105894002Y-95652337D01*
X105652337Y-95894002D01*
X105462463Y-96178169D01*
X105331675Y-96493919D01*
X105265000Y-96829117D01*
X105235000Y-96829117D01*
X105235000Y-96779872D01*
X105149110Y-96348075D01*
X104980631Y-95941331D01*
X104736038Y-95575271D01*
X104424729Y-95263962D01*
X104058669Y-95019369D01*
X103651925Y-94850890D01*
X103220128Y-94765000D01*
X102779872Y-94765000D01*
X102348075Y-94850890D01*
X101941331Y-95019369D01*
X101575271Y-95263962D01*
X101263962Y-95575271D01*
X101019369Y-95941331D01*
X100850890Y-96348075D01*
X100765000Y-96779872D01*
X100117965Y-96779872D01*
X100115243Y-95702085D01*
X100139184Y-95699727D01*
X100273020Y-95659128D01*
X100396363Y-95593200D01*
X100504475Y-95504475D01*
X100593200Y-95396363D01*
X100659128Y-95273020D01*
X100699727Y-95139184D01*
X100713435Y-95000000D01*
X100710000Y-94965123D01*
X100710000Y-57965124D01*
X101290000Y-57965124D01*
X101290001Y-92034877D01*
X101293058Y-92065912D01*
X101292971Y-92078313D01*
X101293939Y-92088179D01*
X101334739Y-92476371D01*
X101347677Y-92539396D01*
X101359737Y-92602618D01*
X101362602Y-92612109D01*
X101478026Y-92984983D01*
X101502960Y-93044299D01*
X101527069Y-93103971D01*
X101531723Y-93112724D01*
X101717374Y-93456079D01*
X101753356Y-93509424D01*
X101788596Y-93563276D01*
X101794861Y-93570958D01*
X102043668Y-93871713D01*
X102089323Y-93917050D01*
X102134353Y-93963033D01*
X102141991Y-93969351D01*
X102444476Y-94216052D01*
X102498041Y-94251640D01*
X102551171Y-94288020D01*
X102559891Y-94292734D01*
X102904533Y-94475984D01*
X102963995Y-94500492D01*
X103023177Y-94525858D01*
X103032647Y-94528789D01*
X103406318Y-94641607D01*
X103469456Y-94654108D01*
X103532388Y-94667485D01*
X103542247Y-94668521D01*
X103929984Y-94706539D01*
X103965123Y-94710000D01*
X107965279Y-94710000D01*
X108249899Y-94737907D01*
X108490285Y-94810484D01*
X108711991Y-94928368D01*
X108906577Y-95087068D01*
X109066635Y-95280545D01*
X109186064Y-95501424D01*
X109260317Y-95741297D01*
X109293143Y-96053623D01*
X109292971Y-96078313D01*
X109293939Y-96088179D01*
X109334739Y-96476371D01*
X109347677Y-96539396D01*
X109359737Y-96602618D01*
X109362602Y-96612109D01*
X109478026Y-96984983D01*
X109502960Y-97044299D01*
X109527069Y-97103971D01*
X109531723Y-97112724D01*
X109717374Y-97456079D01*
X109753356Y-97509424D01*
X109788596Y-97563276D01*
X109794861Y-97570958D01*
X110043668Y-97871713D01*
X110089323Y-97917050D01*
X110134353Y-97963033D01*
X110141991Y-97969351D01*
X110444476Y-98216052D01*
X110498041Y-98251640D01*
X110551171Y-98288020D01*
X110559891Y-98292734D01*
X110904533Y-98475984D01*
X110963995Y-98500492D01*
X111023177Y-98525858D01*
X111032647Y-98528789D01*
X111406318Y-98641607D01*
X111469456Y-98654108D01*
X111532388Y-98667485D01*
X111542247Y-98668521D01*
X111929984Y-98706539D01*
X111965123Y-98710000D01*
X133034877Y-98710000D01*
X133065921Y-98706943D01*
X133078313Y-98707029D01*
X133088179Y-98706061D01*
X133476371Y-98665261D01*
X133539396Y-98652323D01*
X133602618Y-98640263D01*
X133612109Y-98637398D01*
X133984983Y-98521974D01*
X134044299Y-98497040D01*
X134103971Y-98472931D01*
X134112724Y-98468277D01*
X134456079Y-98282626D01*
X134509424Y-98246644D01*
X134563276Y-98211404D01*
X134570958Y-98205139D01*
X134871713Y-97956332D01*
X134917050Y-97910677D01*
X134963033Y-97865647D01*
X134969351Y-97858009D01*
X135216052Y-97555524D01*
X135251640Y-97501959D01*
X135288020Y-97448829D01*
X135292734Y-97440109D01*
X135475984Y-97095467D01*
X135500492Y-97036005D01*
X135525858Y-96976823D01*
X135528789Y-96967353D01*
X135570524Y-96829117D01*
X141265000Y-96829117D01*
X141265000Y-97170883D01*
X141331675Y-97506081D01*
X141462463Y-97821831D01*
X141652337Y-98105998D01*
X141894002Y-98347663D01*
X142178169Y-98537537D01*
X142493919Y-98668325D01*
X142829117Y-98735000D01*
X143170883Y-98735000D01*
X143506081Y-98668325D01*
X143821831Y-98537537D01*
X144105998Y-98347663D01*
X144347663Y-98105998D01*
X144537537Y-97821831D01*
X144668325Y-97506081D01*
X144735000Y-97170883D01*
X144735000Y-96829117D01*
X144725205Y-96779872D01*
X144765000Y-96779872D01*
X144765000Y-97220128D01*
X144850890Y-97651925D01*
X145019369Y-98058669D01*
X145263962Y-98424729D01*
X145575271Y-98736038D01*
X145941331Y-98980631D01*
X146348075Y-99149110D01*
X146779872Y-99235000D01*
X147220128Y-99235000D01*
X147651925Y-99149110D01*
X148058669Y-98980631D01*
X148424729Y-98736038D01*
X148736038Y-98424729D01*
X148980631Y-98058669D01*
X149149110Y-97651925D01*
X149235000Y-97220128D01*
X149235000Y-96779872D01*
X149149110Y-96348075D01*
X148980631Y-95941331D01*
X148736038Y-95575271D01*
X148424729Y-95263962D01*
X148058669Y-95019369D01*
X147651925Y-94850890D01*
X147220128Y-94765000D01*
X146779872Y-94765000D01*
X146348075Y-94850890D01*
X145941331Y-95019369D01*
X145575271Y-95263962D01*
X145263962Y-95575271D01*
X145019369Y-95941331D01*
X144850890Y-96348075D01*
X144765000Y-96779872D01*
X144725205Y-96779872D01*
X144668325Y-96493919D01*
X144537537Y-96178169D01*
X144347663Y-95894002D01*
X144105998Y-95652337D01*
X143821831Y-95462463D01*
X143506081Y-95331675D01*
X143170883Y-95265000D01*
X142829117Y-95265000D01*
X142493919Y-95331675D01*
X142178169Y-95462463D01*
X141894002Y-95652337D01*
X141652337Y-95894002D01*
X141462463Y-96178169D01*
X141331675Y-96493919D01*
X141265000Y-96829117D01*
X135570524Y-96829117D01*
X135641607Y-96593682D01*
X135654108Y-96530544D01*
X135667485Y-96467612D01*
X135668521Y-96457753D01*
X135706611Y-96069284D01*
X135710000Y-96034877D01*
X135710000Y-94303709D01*
X135723353Y-94310846D01*
X135866614Y-94354303D01*
X135978267Y-94365300D01*
X135978277Y-94365300D01*
X136015600Y-94368976D01*
X136052923Y-94365300D01*
X143836078Y-94365300D01*
X143873400Y-94368976D01*
X143910722Y-94365300D01*
X143910733Y-94365300D01*
X144022386Y-94354303D01*
X144165647Y-94310846D01*
X144297676Y-94240274D01*
X144413401Y-94145301D01*
X144437203Y-94116298D01*
X144717377Y-93836125D01*
X144779820Y-93869502D01*
X144899518Y-93905812D01*
X145024000Y-93918072D01*
X148174000Y-93918072D01*
X148298482Y-93905812D01*
X148418180Y-93869502D01*
X148528494Y-93810537D01*
X148625185Y-93731185D01*
X148704537Y-93634494D01*
X148763502Y-93524180D01*
X148799812Y-93404482D01*
X148812072Y-93280000D01*
X148812072Y-92280000D01*
X148799812Y-92155518D01*
X148763502Y-92035820D01*
X148704537Y-91925506D01*
X148625185Y-91828815D01*
X148528494Y-91749463D01*
X148418180Y-91690498D01*
X148298482Y-91654188D01*
X148174000Y-91641928D01*
X145417464Y-91641928D01*
X145404246Y-91598353D01*
X145333674Y-91466324D01*
X145311622Y-91439454D01*
X145262499Y-91379596D01*
X145262495Y-91379592D01*
X145261247Y-91378072D01*
X148174000Y-91378072D01*
X148298482Y-91365812D01*
X148418180Y-91329502D01*
X148528494Y-91270537D01*
X148625185Y-91191185D01*
X148704537Y-91094494D01*
X148763502Y-90984180D01*
X148799812Y-90864482D01*
X148812072Y-90740000D01*
X148812072Y-89740000D01*
X148799812Y-89615518D01*
X148763502Y-89495820D01*
X148704537Y-89385506D01*
X148625185Y-89288815D01*
X148528494Y-89209463D01*
X148418180Y-89150498D01*
X148298482Y-89114188D01*
X148174000Y-89101928D01*
X147359000Y-89101928D01*
X147359000Y-88838072D01*
X148174000Y-88838072D01*
X148298482Y-88825812D01*
X148418180Y-88789502D01*
X148528494Y-88730537D01*
X148625185Y-88651185D01*
X148704537Y-88554494D01*
X148763502Y-88444180D01*
X148799812Y-88324482D01*
X148812072Y-88200000D01*
X148812072Y-87200000D01*
X148799812Y-87075518D01*
X148763502Y-86955820D01*
X148704537Y-86845506D01*
X148625185Y-86748815D01*
X148528494Y-86669463D01*
X148418180Y-86610498D01*
X148298482Y-86574188D01*
X148174000Y-86561928D01*
X145024000Y-86561928D01*
X144899518Y-86574188D01*
X144779820Y-86610498D01*
X144669506Y-86669463D01*
X144572815Y-86748815D01*
X144493463Y-86845506D01*
X144434498Y-86955820D01*
X144398188Y-87075518D01*
X144385928Y-87200000D01*
X144385928Y-87925790D01*
X144180863Y-87885000D01*
X143967137Y-87885000D01*
X143762072Y-87925790D01*
X143762072Y-87200000D01*
X143749812Y-87075518D01*
X143713502Y-86955820D01*
X143654537Y-86845506D01*
X143575185Y-86748815D01*
X143570902Y-86745300D01*
X143848378Y-86745300D01*
X143885700Y-86748976D01*
X143923022Y-86745300D01*
X143923033Y-86745300D01*
X144034686Y-86734303D01*
X144177947Y-86690846D01*
X144309976Y-86620274D01*
X144425701Y-86525301D01*
X144449503Y-86496298D01*
X144725392Y-86220409D01*
X144779820Y-86249502D01*
X144899518Y-86285812D01*
X145024000Y-86298072D01*
X148174000Y-86298072D01*
X148298482Y-86285812D01*
X148418180Y-86249502D01*
X148528494Y-86190537D01*
X148625185Y-86111185D01*
X148704537Y-86014494D01*
X148763502Y-85904180D01*
X148799812Y-85784482D01*
X148812072Y-85660000D01*
X148812072Y-84660000D01*
X148799812Y-84535518D01*
X148763502Y-84415820D01*
X148704537Y-84305506D01*
X148625185Y-84208815D01*
X148528494Y-84129463D01*
X148418180Y-84070498D01*
X148298482Y-84034188D01*
X148174000Y-84021928D01*
X145024000Y-84021928D01*
X144899518Y-84034188D01*
X144779820Y-84070498D01*
X144669506Y-84129463D01*
X144572815Y-84208815D01*
X144493463Y-84305506D01*
X144476588Y-84337077D01*
X144420274Y-84280763D01*
X144266685Y-84178139D01*
X144390856Y-84126705D01*
X144560374Y-84013437D01*
X144704537Y-83869274D01*
X144805989Y-83717440D01*
X144899518Y-83745812D01*
X145024000Y-83758072D01*
X148174000Y-83758072D01*
X148298482Y-83745812D01*
X148418180Y-83709502D01*
X148528494Y-83650537D01*
X148625185Y-83571185D01*
X148704537Y-83474494D01*
X148763502Y-83364180D01*
X148799812Y-83244482D01*
X148812072Y-83120000D01*
X148812072Y-82120000D01*
X148799812Y-81995518D01*
X148763502Y-81875820D01*
X148704537Y-81765506D01*
X148625185Y-81668815D01*
X148528494Y-81589463D01*
X148418180Y-81530498D01*
X148298482Y-81494188D01*
X148174000Y-81481928D01*
X145024000Y-81481928D01*
X144899518Y-81494188D01*
X144805133Y-81522819D01*
X144744005Y-81375244D01*
X144630737Y-81205726D01*
X144486574Y-81061563D01*
X144392978Y-80999024D01*
X144480939Y-80911063D01*
X144493463Y-80934494D01*
X144572815Y-81031185D01*
X144669506Y-81110537D01*
X144779820Y-81169502D01*
X144899518Y-81205812D01*
X145024000Y-81218072D01*
X148174000Y-81218072D01*
X148298482Y-81205812D01*
X148418180Y-81169502D01*
X148528494Y-81110537D01*
X148625185Y-81031185D01*
X148704537Y-80934494D01*
X148763502Y-80824180D01*
X148799812Y-80704482D01*
X148812072Y-80580000D01*
X148812072Y-79580000D01*
X148799812Y-79455518D01*
X148763502Y-79335820D01*
X148704537Y-79225506D01*
X148625185Y-79128815D01*
X148528494Y-79049463D01*
X148418180Y-78990498D01*
X148298482Y-78954188D01*
X148174000Y-78941928D01*
X145081363Y-78941928D01*
X145041137Y-78881726D01*
X144896974Y-78737563D01*
X144727456Y-78624295D01*
X144539098Y-78546274D01*
X144339139Y-78506500D01*
X144219701Y-78506500D01*
X144426202Y-78300000D01*
X144442954Y-78300000D01*
X144493463Y-78394494D01*
X144572815Y-78491185D01*
X144669506Y-78570537D01*
X144779820Y-78629502D01*
X144899518Y-78665812D01*
X145024000Y-78678072D01*
X148174000Y-78678072D01*
X148298482Y-78665812D01*
X148418180Y-78629502D01*
X148528494Y-78570537D01*
X148625185Y-78491185D01*
X148704537Y-78394494D01*
X148763502Y-78284180D01*
X148799812Y-78164482D01*
X148812072Y-78040000D01*
X148812072Y-77040000D01*
X148799812Y-76915518D01*
X148763502Y-76795820D01*
X148704537Y-76685506D01*
X148625185Y-76588815D01*
X148528494Y-76509463D01*
X148418180Y-76450498D01*
X148298482Y-76414188D01*
X148174000Y-76401928D01*
X145024000Y-76401928D01*
X144899518Y-76414188D01*
X144779820Y-76450498D01*
X144669506Y-76509463D01*
X144572815Y-76588815D01*
X144493463Y-76685506D01*
X144442954Y-76780000D01*
X144442202Y-76780000D01*
X144183503Y-76521302D01*
X144297676Y-76460274D01*
X144413401Y-76365301D01*
X144437203Y-76336298D01*
X144717377Y-76056125D01*
X144779820Y-76089502D01*
X144899518Y-76125812D01*
X145024000Y-76138072D01*
X148174000Y-76138072D01*
X148298482Y-76125812D01*
X148418180Y-76089502D01*
X148528494Y-76030537D01*
X148625185Y-75951185D01*
X148704537Y-75854494D01*
X148763502Y-75744180D01*
X148799812Y-75624482D01*
X148812072Y-75500000D01*
X148812072Y-74500000D01*
X148799812Y-74375518D01*
X148763502Y-74255820D01*
X148704537Y-74145506D01*
X148625185Y-74048815D01*
X148528494Y-73969463D01*
X148418180Y-73910498D01*
X148298482Y-73874188D01*
X148174000Y-73861928D01*
X145024000Y-73861928D01*
X144899518Y-73874188D01*
X144779820Y-73910498D01*
X144669506Y-73969463D01*
X144572815Y-74048815D01*
X144493463Y-74145506D01*
X144434498Y-74255820D01*
X144424433Y-74289000D01*
X144406453Y-74294454D01*
X144274424Y-74365026D01*
X144274422Y-74365027D01*
X144274423Y-74365027D01*
X144187696Y-74436201D01*
X144187692Y-74436205D01*
X144158699Y-74459999D01*
X144134905Y-74488992D01*
X143762072Y-74861826D01*
X143762072Y-74500000D01*
X143749812Y-74375518D01*
X143713502Y-74255820D01*
X143654537Y-74145506D01*
X143575185Y-74048815D01*
X143570902Y-74045300D01*
X143836078Y-74045300D01*
X143873400Y-74048976D01*
X143910722Y-74045300D01*
X143910733Y-74045300D01*
X144022386Y-74034303D01*
X144165647Y-73990846D01*
X144297676Y-73920274D01*
X144413401Y-73825301D01*
X144437203Y-73796298D01*
X144717377Y-73516125D01*
X144779820Y-73549502D01*
X144899518Y-73585812D01*
X145024000Y-73598072D01*
X148174000Y-73598072D01*
X148298482Y-73585812D01*
X148418180Y-73549502D01*
X148528494Y-73490537D01*
X148625185Y-73411185D01*
X148704537Y-73314494D01*
X148763502Y-73204180D01*
X148799812Y-73084482D01*
X148812072Y-72960000D01*
X148812072Y-71960000D01*
X148799812Y-71835518D01*
X148763502Y-71715820D01*
X148704537Y-71605506D01*
X148625185Y-71508815D01*
X148528494Y-71429463D01*
X148418180Y-71370498D01*
X148298482Y-71334188D01*
X148174000Y-71321928D01*
X145024000Y-71321928D01*
X144899518Y-71334188D01*
X144779820Y-71370498D01*
X144669506Y-71429463D01*
X144572815Y-71508815D01*
X144493463Y-71605506D01*
X144434498Y-71715820D01*
X144424433Y-71749000D01*
X144406453Y-71754454D01*
X144274424Y-71825026D01*
X144261639Y-71835518D01*
X144187696Y-71896201D01*
X144187692Y-71896205D01*
X144158699Y-71919999D01*
X144134905Y-71948992D01*
X143762072Y-72321826D01*
X143762072Y-71960000D01*
X143749812Y-71835518D01*
X143713502Y-71715820D01*
X143654537Y-71605506D01*
X143575185Y-71508815D01*
X143571024Y-71505400D01*
X143835978Y-71505400D01*
X143873300Y-71509076D01*
X143910622Y-71505400D01*
X143910633Y-71505400D01*
X144022286Y-71494403D01*
X144165547Y-71450946D01*
X144297576Y-71380374D01*
X144413301Y-71285401D01*
X144437103Y-71256398D01*
X144717377Y-70976125D01*
X144779820Y-71009502D01*
X144899518Y-71045812D01*
X145024000Y-71058072D01*
X148174000Y-71058072D01*
X148298482Y-71045812D01*
X148418180Y-71009502D01*
X148528494Y-70950537D01*
X148625185Y-70871185D01*
X148704537Y-70774494D01*
X148763502Y-70664180D01*
X148799812Y-70544482D01*
X148812072Y-70420000D01*
X148812072Y-69420000D01*
X148799812Y-69295518D01*
X148763502Y-69175820D01*
X148704537Y-69065506D01*
X148625185Y-68968815D01*
X148528494Y-68889463D01*
X148418180Y-68830498D01*
X148298482Y-68794188D01*
X148174000Y-68781928D01*
X145024000Y-68781928D01*
X144899518Y-68794188D01*
X144779820Y-68830498D01*
X144669506Y-68889463D01*
X144572815Y-68968815D01*
X144493463Y-69065506D01*
X144434498Y-69175820D01*
X144424433Y-69209000D01*
X144406453Y-69214454D01*
X144274423Y-69285026D01*
X144199096Y-69346846D01*
X144158699Y-69379999D01*
X144134901Y-69408997D01*
X143762072Y-69781826D01*
X143762072Y-69420000D01*
X143749812Y-69295518D01*
X143713502Y-69175820D01*
X143654537Y-69065506D01*
X143575185Y-68968815D01*
X143478494Y-68889463D01*
X143368180Y-68830498D01*
X143248482Y-68794188D01*
X143124000Y-68781928D01*
X142692600Y-68781928D01*
X142692600Y-68647961D01*
X142666764Y-68518072D01*
X143124000Y-68518072D01*
X143248482Y-68505812D01*
X143368180Y-68469502D01*
X143478494Y-68410537D01*
X143568602Y-68336587D01*
X143583744Y-68346705D01*
X143772102Y-68424726D01*
X143972061Y-68464500D01*
X144175939Y-68464500D01*
X144375898Y-68424726D01*
X144564256Y-68346705D01*
X144579398Y-68336587D01*
X144669506Y-68410537D01*
X144779820Y-68469502D01*
X144899518Y-68505812D01*
X145024000Y-68518072D01*
X148174000Y-68518072D01*
X148298482Y-68505812D01*
X148418180Y-68469502D01*
X148528494Y-68410537D01*
X148625185Y-68331185D01*
X148704537Y-68234494D01*
X148763502Y-68124180D01*
X148799812Y-68004482D01*
X148812072Y-67880000D01*
X148812072Y-66880000D01*
X148799812Y-66755518D01*
X148763502Y-66635820D01*
X148704537Y-66525506D01*
X148625185Y-66428815D01*
X148528494Y-66349463D01*
X148418180Y-66290498D01*
X148298482Y-66254188D01*
X148174000Y-66241928D01*
X145024000Y-66241928D01*
X144899518Y-66254188D01*
X144779820Y-66290498D01*
X144669506Y-66349463D01*
X144572815Y-66428815D01*
X144519514Y-66493762D01*
X144375898Y-66434274D01*
X144175939Y-66394500D01*
X144087669Y-66394500D01*
X144165647Y-66370846D01*
X144297676Y-66300274D01*
X144413401Y-66205301D01*
X144437203Y-66176298D01*
X144717377Y-65896125D01*
X144779820Y-65929502D01*
X144899518Y-65965812D01*
X145024000Y-65978072D01*
X148174000Y-65978072D01*
X148298482Y-65965812D01*
X148418180Y-65929502D01*
X148528494Y-65870537D01*
X148625185Y-65791185D01*
X148704537Y-65694494D01*
X148763502Y-65584180D01*
X148799812Y-65464482D01*
X148812072Y-65340000D01*
X148812072Y-64340000D01*
X148799812Y-64215518D01*
X148763502Y-64095820D01*
X148704537Y-63985506D01*
X148625185Y-63888815D01*
X148528494Y-63809463D01*
X148418180Y-63750498D01*
X148298482Y-63714188D01*
X148174000Y-63701928D01*
X145024000Y-63701928D01*
X144899518Y-63714188D01*
X144779820Y-63750498D01*
X144669506Y-63809463D01*
X144572815Y-63888815D01*
X144493463Y-63985506D01*
X144434498Y-64095820D01*
X144424433Y-64129000D01*
X144406453Y-64134454D01*
X144274424Y-64205026D01*
X144274422Y-64205027D01*
X144274423Y-64205027D01*
X144187696Y-64276201D01*
X144187692Y-64276205D01*
X144158699Y-64299999D01*
X144134905Y-64328992D01*
X143762072Y-64701826D01*
X143762072Y-64340000D01*
X143749812Y-64215518D01*
X143713502Y-64095820D01*
X143654537Y-63985506D01*
X143575185Y-63888815D01*
X143478494Y-63809463D01*
X143368180Y-63750498D01*
X143248482Y-63714188D01*
X143124000Y-63701928D01*
X139974000Y-63701928D01*
X139849518Y-63714188D01*
X139729820Y-63750498D01*
X139619506Y-63809463D01*
X139522815Y-63888815D01*
X139443463Y-63985506D01*
X139386380Y-64092300D01*
X139371011Y-64092300D01*
X139339474Y-64060763D01*
X139169956Y-63947495D01*
X138981598Y-63869474D01*
X138781639Y-63829700D01*
X138731902Y-63829700D01*
X138596203Y-63694002D01*
X138572401Y-63664999D01*
X138456676Y-63570026D01*
X138324647Y-63499454D01*
X138181386Y-63455997D01*
X138069733Y-63445000D01*
X138069722Y-63445000D01*
X138032400Y-63441324D01*
X137995078Y-63445000D01*
X136009424Y-63445000D01*
X136077446Y-63291864D01*
X136094119Y-63236874D01*
X135967954Y-63062000D01*
X135710000Y-63062000D01*
X135710000Y-62808000D01*
X135967954Y-62808000D01*
X136094119Y-62633126D01*
X136077446Y-62578136D01*
X136009424Y-62425000D01*
X138698899Y-62425000D01*
X139084900Y-62811002D01*
X139108699Y-62840001D01*
X139137697Y-62863799D01*
X139224424Y-62934974D01*
X139356453Y-63005546D01*
X139374433Y-63011000D01*
X139384498Y-63044180D01*
X139443463Y-63154494D01*
X139522815Y-63251185D01*
X139619506Y-63330537D01*
X139729820Y-63389502D01*
X139849518Y-63425812D01*
X139974000Y-63438072D01*
X143124000Y-63438072D01*
X143248482Y-63425812D01*
X143368180Y-63389502D01*
X143478494Y-63330537D01*
X143575185Y-63251185D01*
X143654537Y-63154494D01*
X143713502Y-63044180D01*
X143749812Y-62924482D01*
X143762072Y-62800000D01*
X144385928Y-62800000D01*
X144398188Y-62924482D01*
X144434498Y-63044180D01*
X144493463Y-63154494D01*
X144572815Y-63251185D01*
X144669506Y-63330537D01*
X144779820Y-63389502D01*
X144899518Y-63425812D01*
X145024000Y-63438072D01*
X146313250Y-63435000D01*
X146472000Y-63276250D01*
X146472000Y-62427000D01*
X146726000Y-62427000D01*
X146726000Y-63276250D01*
X146884750Y-63435000D01*
X148174000Y-63438072D01*
X148298482Y-63425812D01*
X148418180Y-63389502D01*
X148528494Y-63330537D01*
X148625185Y-63251185D01*
X148704537Y-63154494D01*
X148763502Y-63044180D01*
X148799812Y-62924482D01*
X148812072Y-62800000D01*
X148809000Y-62585750D01*
X148650250Y-62427000D01*
X146726000Y-62427000D01*
X146472000Y-62427000D01*
X144547750Y-62427000D01*
X144389000Y-62585750D01*
X144385928Y-62800000D01*
X143762072Y-62800000D01*
X143762072Y-62074210D01*
X143967137Y-62115000D01*
X144180863Y-62115000D01*
X144390483Y-62073304D01*
X144431192Y-62056442D01*
X144547750Y-62173000D01*
X146472000Y-62173000D01*
X146472000Y-61323750D01*
X146726000Y-61323750D01*
X146726000Y-62173000D01*
X148650250Y-62173000D01*
X148809000Y-62014250D01*
X148812072Y-61800000D01*
X148799812Y-61675518D01*
X148763502Y-61555820D01*
X148704537Y-61445506D01*
X148625185Y-61348815D01*
X148528494Y-61269463D01*
X148418180Y-61210498D01*
X148298482Y-61174188D01*
X148174000Y-61161928D01*
X146884750Y-61165000D01*
X146726000Y-61323750D01*
X146472000Y-61323750D01*
X146313250Y-61165000D01*
X145153953Y-61162238D01*
X145159000Y-61136863D01*
X145159000Y-60923137D01*
X145153953Y-60897762D01*
X146313250Y-60895000D01*
X146472000Y-60736250D01*
X146472000Y-59887000D01*
X146726000Y-59887000D01*
X146726000Y-60736250D01*
X146884750Y-60895000D01*
X148174000Y-60898072D01*
X148298482Y-60885812D01*
X148418180Y-60849502D01*
X148528494Y-60790537D01*
X148625185Y-60711185D01*
X148704537Y-60614494D01*
X148763502Y-60504180D01*
X148799812Y-60384482D01*
X148812072Y-60260000D01*
X148809000Y-60045750D01*
X148650250Y-59887000D01*
X146726000Y-59887000D01*
X146472000Y-59887000D01*
X144547750Y-59887000D01*
X144431192Y-60003558D01*
X144390483Y-59986696D01*
X144180863Y-59945000D01*
X143967137Y-59945000D01*
X143762072Y-59985790D01*
X143762072Y-59260000D01*
X144385928Y-59260000D01*
X144389000Y-59474250D01*
X144547750Y-59633000D01*
X146472000Y-59633000D01*
X146472000Y-58783750D01*
X146726000Y-58783750D01*
X146726000Y-59633000D01*
X148650250Y-59633000D01*
X148809000Y-59474250D01*
X148812072Y-59260000D01*
X148799812Y-59135518D01*
X148763502Y-59015820D01*
X148704537Y-58905506D01*
X148625185Y-58808815D01*
X148528494Y-58729463D01*
X148418180Y-58670498D01*
X148298482Y-58634188D01*
X148174000Y-58621928D01*
X146884750Y-58625000D01*
X146726000Y-58783750D01*
X146472000Y-58783750D01*
X146313250Y-58625000D01*
X145024000Y-58621928D01*
X144899518Y-58634188D01*
X144779820Y-58670498D01*
X144669506Y-58729463D01*
X144572815Y-58808815D01*
X144493463Y-58905506D01*
X144434498Y-59015820D01*
X144398188Y-59135518D01*
X144385928Y-59260000D01*
X143762072Y-59260000D01*
X143749812Y-59135518D01*
X143713502Y-59015820D01*
X143654537Y-58905506D01*
X143575185Y-58808815D01*
X143478494Y-58729463D01*
X143368180Y-58670498D01*
X143248482Y-58634188D01*
X143124000Y-58621928D01*
X139974000Y-58621928D01*
X139849518Y-58634188D01*
X139729820Y-58670498D01*
X139667376Y-58703875D01*
X139577503Y-58614002D01*
X139553701Y-58584999D01*
X139437976Y-58490026D01*
X139305947Y-58419454D01*
X139162686Y-58375997D01*
X139051033Y-58365000D01*
X139051022Y-58365000D01*
X139013700Y-58361324D01*
X138976378Y-58365000D01*
X136009424Y-58365000D01*
X136077446Y-58211864D01*
X136094119Y-58156874D01*
X135967954Y-57982000D01*
X135710000Y-57982000D01*
X135710000Y-57728000D01*
X135967954Y-57728000D01*
X136094119Y-57553126D01*
X136077446Y-57498136D01*
X136041930Y-57418180D01*
X136081046Y-57345000D01*
X138698899Y-57345000D01*
X139084900Y-57731002D01*
X139108699Y-57760001D01*
X139137697Y-57783799D01*
X139224424Y-57854974D01*
X139356453Y-57925546D01*
X139374433Y-57931000D01*
X139384498Y-57964180D01*
X139443463Y-58074494D01*
X139522815Y-58171185D01*
X139619506Y-58250537D01*
X139729820Y-58309502D01*
X139849518Y-58345812D01*
X139974000Y-58358072D01*
X143124000Y-58358072D01*
X143248482Y-58345812D01*
X143368180Y-58309502D01*
X143478494Y-58250537D01*
X143575185Y-58171185D01*
X143654537Y-58074494D01*
X143713502Y-57964180D01*
X143749812Y-57844482D01*
X143762072Y-57720000D01*
X144385928Y-57720000D01*
X144398188Y-57844482D01*
X144434498Y-57964180D01*
X144493463Y-58074494D01*
X144572815Y-58171185D01*
X144669506Y-58250537D01*
X144779820Y-58309502D01*
X144899518Y-58345812D01*
X145024000Y-58358072D01*
X146313250Y-58355000D01*
X146472000Y-58196250D01*
X146472000Y-57347000D01*
X146726000Y-57347000D01*
X146726000Y-58196250D01*
X146884750Y-58355000D01*
X148174000Y-58358072D01*
X148298482Y-58345812D01*
X148418180Y-58309502D01*
X148528494Y-58250537D01*
X148625185Y-58171185D01*
X148704537Y-58074494D01*
X148763502Y-57964180D01*
X148799812Y-57844482D01*
X148812072Y-57720000D01*
X148809000Y-57505750D01*
X148650250Y-57347000D01*
X146726000Y-57347000D01*
X146472000Y-57347000D01*
X144547750Y-57347000D01*
X144389000Y-57505750D01*
X144385928Y-57720000D01*
X143762072Y-57720000D01*
X143762072Y-56720000D01*
X144385928Y-56720000D01*
X144389000Y-56934250D01*
X144547750Y-57093000D01*
X146472000Y-57093000D01*
X146472000Y-56243750D01*
X146726000Y-56243750D01*
X146726000Y-57093000D01*
X148650250Y-57093000D01*
X148809000Y-56934250D01*
X148812072Y-56720000D01*
X148799812Y-56595518D01*
X148763502Y-56475820D01*
X148704537Y-56365506D01*
X148625185Y-56268815D01*
X148528494Y-56189463D01*
X148418180Y-56130498D01*
X148298482Y-56094188D01*
X148174000Y-56081928D01*
X146884750Y-56085000D01*
X146726000Y-56243750D01*
X146472000Y-56243750D01*
X146313250Y-56085000D01*
X145024000Y-56081928D01*
X144899518Y-56094188D01*
X144779820Y-56130498D01*
X144669506Y-56189463D01*
X144572815Y-56268815D01*
X144493463Y-56365506D01*
X144434498Y-56475820D01*
X144398188Y-56595518D01*
X144385928Y-56720000D01*
X143762072Y-56720000D01*
X143749812Y-56595518D01*
X143713502Y-56475820D01*
X143654537Y-56365506D01*
X143575185Y-56268815D01*
X143478494Y-56189463D01*
X143368180Y-56130498D01*
X143248482Y-56094188D01*
X143124000Y-56081928D01*
X139974000Y-56081928D01*
X139849518Y-56094188D01*
X139729820Y-56130498D01*
X139667376Y-56163875D01*
X139577503Y-56074002D01*
X139553701Y-56044999D01*
X139437976Y-55950026D01*
X139305947Y-55879454D01*
X139162686Y-55835997D01*
X139051033Y-55825000D01*
X139051022Y-55825000D01*
X139013700Y-55821324D01*
X138976378Y-55825000D01*
X136081046Y-55825000D01*
X136030537Y-55730506D01*
X135951185Y-55633815D01*
X135854494Y-55554463D01*
X135744180Y-55495498D01*
X135710000Y-55485130D01*
X135710000Y-53965123D01*
X135706943Y-53934079D01*
X135707029Y-53921687D01*
X135706061Y-53911821D01*
X135665260Y-53523628D01*
X135652330Y-53460640D01*
X135640263Y-53397381D01*
X135637398Y-53387891D01*
X135521974Y-53015016D01*
X135497029Y-52955675D01*
X135472931Y-52896029D01*
X135468277Y-52887276D01*
X135436831Y-52829117D01*
X141265000Y-52829117D01*
X141265000Y-53170883D01*
X141331675Y-53506081D01*
X141462463Y-53821831D01*
X141652337Y-54105998D01*
X141894002Y-54347663D01*
X142178169Y-54537537D01*
X142493919Y-54668325D01*
X142829117Y-54735000D01*
X143170883Y-54735000D01*
X143506081Y-54668325D01*
X143821831Y-54537537D01*
X144105998Y-54347663D01*
X144347663Y-54105998D01*
X144537537Y-53821831D01*
X144668325Y-53506081D01*
X144735000Y-53170883D01*
X144735000Y-52829117D01*
X144725205Y-52779872D01*
X144765000Y-52779872D01*
X144765000Y-53220128D01*
X144850890Y-53651925D01*
X145019369Y-54058669D01*
X145263962Y-54424729D01*
X145575271Y-54736038D01*
X145941331Y-54980631D01*
X146348075Y-55149110D01*
X146779872Y-55235000D01*
X147220128Y-55235000D01*
X147651925Y-55149110D01*
X148058669Y-54980631D01*
X148424729Y-54736038D01*
X148736038Y-54424729D01*
X148980631Y-54058669D01*
X149149110Y-53651925D01*
X149235000Y-53220128D01*
X149235000Y-52779872D01*
X149149110Y-52348075D01*
X148980631Y-51941331D01*
X148736038Y-51575271D01*
X148424729Y-51263962D01*
X148058669Y-51019369D01*
X147651925Y-50850890D01*
X147220128Y-50765000D01*
X146779872Y-50765000D01*
X146348075Y-50850890D01*
X145941331Y-51019369D01*
X145575271Y-51263962D01*
X145263962Y-51575271D01*
X145019369Y-51941331D01*
X144850890Y-52348075D01*
X144765000Y-52779872D01*
X144725205Y-52779872D01*
X144668325Y-52493919D01*
X144537537Y-52178169D01*
X144347663Y-51894002D01*
X144105998Y-51652337D01*
X143821831Y-51462463D01*
X143506081Y-51331675D01*
X143170883Y-51265000D01*
X142829117Y-51265000D01*
X142493919Y-51331675D01*
X142178169Y-51462463D01*
X141894002Y-51652337D01*
X141652337Y-51894002D01*
X141462463Y-52178169D01*
X141331675Y-52493919D01*
X141265000Y-52829117D01*
X135436831Y-52829117D01*
X135282626Y-52543921D01*
X135246644Y-52490576D01*
X135211404Y-52436724D01*
X135205138Y-52429042D01*
X134956332Y-52128287D01*
X134910677Y-52082950D01*
X134865647Y-52036967D01*
X134858009Y-52030648D01*
X134555524Y-51783948D01*
X134501941Y-51748348D01*
X134448828Y-51711980D01*
X134440108Y-51707265D01*
X134095467Y-51524016D01*
X134035993Y-51499503D01*
X133976823Y-51474142D01*
X133967353Y-51471211D01*
X133593681Y-51358393D01*
X133530551Y-51345893D01*
X133467612Y-51332515D01*
X133457753Y-51331479D01*
X133070016Y-51293461D01*
X133034877Y-51290000D01*
X111965123Y-51290000D01*
X111934079Y-51293057D01*
X111921687Y-51292971D01*
X111911821Y-51293939D01*
X111523628Y-51334740D01*
X111460640Y-51347670D01*
X111397381Y-51359737D01*
X111387891Y-51362602D01*
X111015016Y-51478026D01*
X110955675Y-51502971D01*
X110896029Y-51527069D01*
X110887276Y-51531723D01*
X110543921Y-51717374D01*
X110490576Y-51753356D01*
X110436724Y-51788596D01*
X110429042Y-51794862D01*
X110128287Y-52043668D01*
X110082950Y-52089323D01*
X110036967Y-52134353D01*
X110030648Y-52141991D01*
X109783948Y-52444476D01*
X109748348Y-52498059D01*
X109711980Y-52551172D01*
X109707265Y-52559892D01*
X109524016Y-52904533D01*
X109499503Y-52964007D01*
X109474142Y-53023177D01*
X109471211Y-53032647D01*
X109358393Y-53406319D01*
X109345893Y-53469449D01*
X109332515Y-53532388D01*
X109331479Y-53542247D01*
X109293389Y-53930716D01*
X109262093Y-54249899D01*
X109189517Y-54490282D01*
X109071633Y-54711989D01*
X108912929Y-54906580D01*
X108719455Y-55066635D01*
X108498576Y-55186064D01*
X108258701Y-55260317D01*
X107976291Y-55290000D01*
X103965123Y-55290000D01*
X103934079Y-55293057D01*
X103921687Y-55292971D01*
X103911821Y-55293939D01*
X103523628Y-55334740D01*
X103460640Y-55347670D01*
X103397381Y-55359737D01*
X103387891Y-55362602D01*
X103015016Y-55478026D01*
X102955675Y-55502971D01*
X102896029Y-55527069D01*
X102887276Y-55531723D01*
X102543921Y-55717374D01*
X102490576Y-55753356D01*
X102436724Y-55788596D01*
X102429042Y-55794862D01*
X102128287Y-56043668D01*
X102082950Y-56089323D01*
X102036967Y-56134353D01*
X102030648Y-56141991D01*
X101783948Y-56444476D01*
X101748348Y-56498059D01*
X101711980Y-56551172D01*
X101707265Y-56559892D01*
X101524016Y-56904533D01*
X101499503Y-56964007D01*
X101474142Y-57023177D01*
X101471211Y-57032647D01*
X101358393Y-57406319D01*
X101345893Y-57469449D01*
X101332515Y-57532388D01*
X101331479Y-57542247D01*
X101293439Y-57930210D01*
X101290000Y-57965124D01*
X100710000Y-57965124D01*
X100710000Y-55034877D01*
X100713435Y-55000000D01*
X100699727Y-54860816D01*
X100659128Y-54726980D01*
X100593200Y-54603637D01*
X100504475Y-54495525D01*
X100396363Y-54406800D01*
X100273020Y-54340872D01*
X100139184Y-54300273D01*
X100110000Y-54297399D01*
X100110000Y-52779872D01*
X100765000Y-52779872D01*
X100765000Y-53220128D01*
X100850890Y-53651925D01*
X101019369Y-54058669D01*
X101263962Y-54424729D01*
X101575271Y-54736038D01*
X101941331Y-54980631D01*
X102348075Y-55149110D01*
X102779872Y-55235000D01*
X103220128Y-55235000D01*
X103651925Y-55149110D01*
X104058669Y-54980631D01*
X104424729Y-54736038D01*
X104736038Y-54424729D01*
X104980631Y-54058669D01*
X105149110Y-53651925D01*
X105235000Y-53220128D01*
X105235000Y-52829117D01*
X105265000Y-52829117D01*
X105265000Y-53170883D01*
X105331675Y-53506081D01*
X105462463Y-53821831D01*
X105652337Y-54105998D01*
X105894002Y-54347663D01*
X106178169Y-54537537D01*
X106493919Y-54668325D01*
X106829117Y-54735000D01*
X107170883Y-54735000D01*
X107506081Y-54668325D01*
X107821831Y-54537537D01*
X108105998Y-54347663D01*
X108347663Y-54105998D01*
X108537537Y-53821831D01*
X108668325Y-53506081D01*
X108735000Y-53170883D01*
X108735000Y-52829117D01*
X108668325Y-52493919D01*
X108537537Y-52178169D01*
X108347663Y-51894002D01*
X108105998Y-51652337D01*
X107821831Y-51462463D01*
X107506081Y-51331675D01*
X107170883Y-51265000D01*
X106829117Y-51265000D01*
X106493919Y-51331675D01*
X106178169Y-51462463D01*
X105894002Y-51652337D01*
X105652337Y-51894002D01*
X105462463Y-52178169D01*
X105331675Y-52493919D01*
X105265000Y-52829117D01*
X105235000Y-52829117D01*
X105235000Y-52779872D01*
X105149110Y-52348075D01*
X104980631Y-51941331D01*
X104736038Y-51575271D01*
X104424729Y-51263962D01*
X104058669Y-51019369D01*
X103651925Y-50850890D01*
X103220128Y-50765000D01*
X102779872Y-50765000D01*
X102348075Y-50850890D01*
X101941331Y-51019369D01*
X101575271Y-51263962D01*
X101263962Y-51575271D01*
X101019369Y-51941331D01*
X100850890Y-52348075D01*
X100765000Y-52779872D01*
X100110000Y-52779872D01*
X100110000Y-52734720D01*
X100162665Y-52197597D01*
X100308574Y-51714326D01*
X100545570Y-51268601D01*
X100864631Y-50877393D01*
X101253593Y-50555616D01*
X101697654Y-50315514D01*
X102179898Y-50166235D01*
X102674969Y-50114200D01*
X107297813Y-50114200D01*
X107300273Y-50139184D01*
G36*
X139084900Y-60271002D02*
G01*
X139108699Y-60300001D01*
X139137697Y-60323799D01*
X139224424Y-60394974D01*
X139356453Y-60465546D01*
X139374433Y-60471000D01*
X139384498Y-60504180D01*
X139443463Y-60614494D01*
X139522815Y-60711185D01*
X139619506Y-60790537D01*
X139729820Y-60849502D01*
X139849518Y-60885812D01*
X139974000Y-60898072D01*
X142993986Y-60898072D01*
X142989000Y-60923137D01*
X142989000Y-61136863D01*
X142993986Y-61161928D01*
X139974000Y-61161928D01*
X139849518Y-61174188D01*
X139729820Y-61210498D01*
X139667376Y-61243875D01*
X139577503Y-61154002D01*
X139553701Y-61124999D01*
X139437976Y-61030026D01*
X139305947Y-60959454D01*
X139162686Y-60915997D01*
X139051033Y-60905000D01*
X139051022Y-60905000D01*
X139013700Y-60901324D01*
X138976378Y-60905000D01*
X136009424Y-60905000D01*
X136077446Y-60751864D01*
X136094119Y-60696874D01*
X135967954Y-60522000D01*
X135710000Y-60522000D01*
X135710000Y-60268000D01*
X135967954Y-60268000D01*
X136094119Y-60093126D01*
X136077446Y-60038136D01*
X136009424Y-59885000D01*
X138698899Y-59885000D01*
X139084900Y-60271002D01*
X139084900Y-60271002D01*
G37*
X139084900Y-60271002D02*
X139108699Y-60300001D01*
X139137697Y-60323799D01*
X139224424Y-60394974D01*
X139356453Y-60465546D01*
X139374433Y-60471000D01*
X139384498Y-60504180D01*
X139443463Y-60614494D01*
X139522815Y-60711185D01*
X139619506Y-60790537D01*
X139729820Y-60849502D01*
X139849518Y-60885812D01*
X139974000Y-60898072D01*
X142993986Y-60898072D01*
X142989000Y-60923137D01*
X142989000Y-61136863D01*
X142993986Y-61161928D01*
X139974000Y-61161928D01*
X139849518Y-61174188D01*
X139729820Y-61210498D01*
X139667376Y-61243875D01*
X139577503Y-61154002D01*
X139553701Y-61124999D01*
X139437976Y-61030026D01*
X139305947Y-60959454D01*
X139162686Y-60915997D01*
X139051033Y-60905000D01*
X139051022Y-60905000D01*
X139013700Y-60901324D01*
X138976378Y-60905000D01*
X136009424Y-60905000D01*
X136077446Y-60751864D01*
X136094119Y-60696874D01*
X135967954Y-60522000D01*
X135710000Y-60522000D01*
X135710000Y-60268000D01*
X135967954Y-60268000D01*
X136094119Y-60093126D01*
X136077446Y-60038136D01*
X136009424Y-59885000D01*
X138698899Y-59885000D01*
X139084900Y-60271002D01*
M02*
