M48
; DRILL file {KiCad 5.1.2-f72e74a~84~ubuntu18.04.1} date 2019年06月23日 16時21分09秒
; FORMAT={-:-/ absolute / metric / decimal}
; #@! TF.CreationDate,2019-06-23T16:21:09+09:00
; #@! TF.GenerationSoftware,Kicad,Pcbnew,5.1.2-f72e74a~84~ubuntu18.04.1
; #@! TF.FileFunction,Plated,1,2,PTH
FMAT,2
METRIC
T1C0.400
T2C0.650
%
G90
G05
T1
X106.047Y-99.553
X106.299Y-50.698
X137.922Y-62.979
X138.15Y-88.192
X138.68Y-64.865
X138.824Y-60.401
X138.923Y-65.835
X138.958Y-74.125
X139.04Y-57.925
X139.141Y-76.365
X140.523Y-86.265
X140.657Y-68.483
X141.587Y-71.335
X141.658Y-68.75
X143.761Y-85.085
X143.827Y-81.865
X143.901Y-83.209
X143.904Y-55.04
X144.074Y-67.429
X144.237Y-79.541
X144.416Y-94.721
T2
X135.0Y-56.585
X135.0Y-57.855
X135.0Y-59.125
X135.0Y-60.395
X135.0Y-61.665
X135.0Y-62.935
X135.0Y-64.205
X135.0Y-65.475
X135.0Y-66.745
X135.0Y-68.015
X135.0Y-69.285
X135.0Y-70.555
X135.0Y-71.825
X135.0Y-73.095
X135.0Y-74.365
X135.0Y-75.635
X135.0Y-76.905
X135.0Y-78.175
X135.0Y-79.445
X135.0Y-80.715
X135.0Y-81.985
X135.0Y-83.255
X135.0Y-84.525
X135.0Y-85.795
X135.0Y-87.065
X135.0Y-88.335
X135.0Y-89.605
X135.0Y-90.875
X135.0Y-92.145
X135.0Y-93.415
T0
M30
