G04 #@! TF.GenerationSoftware,KiCad,Pcbnew,5.0.2-bee76a0~70~ubuntu18.04.1*
G04 #@! TF.CreationDate,2019-05-13T00:01:04+09:00*
G04 #@! TF.ProjectId,bottom_pcb,626f7474-6f6d-45f7-9063-622e6b696361,rev?*
G04 #@! TF.SameCoordinates,Original*
G04 #@! TF.FileFunction,Legend,Bot*
G04 #@! TF.FilePolarity,Positive*
%FSLAX46Y46*%
G04 Gerber Fmt 4.6, Leading zero omitted, Abs format (unit mm)*
G04 Created by KiCad (PCBNEW 5.0.2-bee76a0~70~ubuntu18.04.1) date 2019年05月13日 00時01分04秒*
%MOMM*%
%LPD*%
G01*
G04 APERTURE LIST*
%ADD10C,0.300000*%
%ADD11C,0.250000*%
%ADD12C,0.600000*%
%ADD13C,0.120000*%
%ADD14C,0.010000*%
G04 APERTURE END LIST*
D10*
X113140514Y-86001157D02*
X113140514Y-84801157D01*
X113140514Y-85258300D02*
X113026228Y-85201157D01*
X112797657Y-85201157D01*
X112683371Y-85258300D01*
X112626228Y-85315442D01*
X112569085Y-85429728D01*
X112569085Y-85772585D01*
X112626228Y-85886871D01*
X112683371Y-85944014D01*
X112797657Y-86001157D01*
X113026228Y-86001157D01*
X113140514Y-85944014D01*
X111883371Y-86001157D02*
X111997657Y-85944014D01*
X112054800Y-85886871D01*
X112111942Y-85772585D01*
X112111942Y-85429728D01*
X112054800Y-85315442D01*
X111997657Y-85258300D01*
X111883371Y-85201157D01*
X111711942Y-85201157D01*
X111597657Y-85258300D01*
X111540514Y-85315442D01*
X111483371Y-85429728D01*
X111483371Y-85772585D01*
X111540514Y-85886871D01*
X111597657Y-85944014D01*
X111711942Y-86001157D01*
X111883371Y-86001157D01*
X111140514Y-85201157D02*
X110683371Y-85201157D01*
X110969085Y-84801157D02*
X110969085Y-85829728D01*
X110911942Y-85944014D01*
X110797657Y-86001157D01*
X110683371Y-86001157D01*
X110454800Y-85201157D02*
X109997657Y-85201157D01*
X110283371Y-84801157D02*
X110283371Y-85829728D01*
X110226228Y-85944014D01*
X110111942Y-86001157D01*
X109997657Y-86001157D01*
X109426228Y-86001157D02*
X109540514Y-85944014D01*
X109597657Y-85886871D01*
X109654800Y-85772585D01*
X109654800Y-85429728D01*
X109597657Y-85315442D01*
X109540514Y-85258300D01*
X109426228Y-85201157D01*
X109254800Y-85201157D01*
X109140514Y-85258300D01*
X109083371Y-85315442D01*
X109026228Y-85429728D01*
X109026228Y-85772585D01*
X109083371Y-85886871D01*
X109140514Y-85944014D01*
X109254800Y-86001157D01*
X109426228Y-86001157D01*
X108511942Y-86001157D02*
X108511942Y-85201157D01*
X108511942Y-85315442D02*
X108454800Y-85258300D01*
X108340514Y-85201157D01*
X108169085Y-85201157D01*
X108054800Y-85258300D01*
X107997657Y-85372585D01*
X107997657Y-86001157D01*
X107997657Y-85372585D02*
X107940514Y-85258300D01*
X107826228Y-85201157D01*
X107654800Y-85201157D01*
X107540514Y-85258300D01*
X107483371Y-85372585D01*
X107483371Y-86001157D01*
X107197657Y-86115442D02*
X106283371Y-86115442D01*
X105997657Y-85201157D02*
X105997657Y-86401157D01*
X105997657Y-85258300D02*
X105883371Y-85201157D01*
X105654800Y-85201157D01*
X105540514Y-85258300D01*
X105483371Y-85315442D01*
X105426228Y-85429728D01*
X105426228Y-85772585D01*
X105483371Y-85886871D01*
X105540514Y-85944014D01*
X105654800Y-86001157D01*
X105883371Y-86001157D01*
X105997657Y-85944014D01*
X104397657Y-85944014D02*
X104511942Y-86001157D01*
X104740514Y-86001157D01*
X104854800Y-85944014D01*
X104911942Y-85886871D01*
X104969085Y-85772585D01*
X104969085Y-85429728D01*
X104911942Y-85315442D01*
X104854800Y-85258300D01*
X104740514Y-85201157D01*
X104511942Y-85201157D01*
X104397657Y-85258300D01*
X103883371Y-86001157D02*
X103883371Y-84801157D01*
X103883371Y-85258300D02*
X103769085Y-85201157D01*
X103540514Y-85201157D01*
X103426228Y-85258300D01*
X103369085Y-85315442D01*
X103311942Y-85429728D01*
X103311942Y-85772585D01*
X103369085Y-85886871D01*
X103426228Y-85944014D01*
X103540514Y-86001157D01*
X103769085Y-86001157D01*
X103883371Y-85944014D01*
D11*
X139455604Y-90939880D02*
X139455604Y-89939880D01*
X138984176Y-90939880D02*
X138984176Y-90416071D01*
X139036557Y-90320833D01*
X139141319Y-90273214D01*
X139298461Y-90273214D01*
X139403223Y-90320833D01*
X139455604Y-90368452D01*
X138617509Y-90273214D02*
X138198461Y-90273214D01*
X138460366Y-89939880D02*
X138460366Y-90797023D01*
X138407985Y-90892261D01*
X138303223Y-90939880D01*
X138198461Y-90939880D01*
X137988938Y-90273214D02*
X137569890Y-90273214D01*
X137831795Y-89939880D02*
X137831795Y-90797023D01*
X137779414Y-90892261D01*
X137674652Y-90939880D01*
X137569890Y-90939880D01*
X137203223Y-90273214D02*
X137203223Y-91273214D01*
X137203223Y-90320833D02*
X137098461Y-90273214D01*
X136888938Y-90273214D01*
X136784176Y-90320833D01*
X136731795Y-90368452D01*
X136679414Y-90463690D01*
X136679414Y-90749404D01*
X136731795Y-90844642D01*
X136784176Y-90892261D01*
X136888938Y-90939880D01*
X137098461Y-90939880D01*
X137203223Y-90892261D01*
X136260366Y-90892261D02*
X136155604Y-90939880D01*
X135946080Y-90939880D01*
X135841319Y-90892261D01*
X135788938Y-90797023D01*
X135788938Y-90749404D01*
X135841319Y-90654166D01*
X135946080Y-90606547D01*
X136103223Y-90606547D01*
X136207985Y-90558928D01*
X136260366Y-90463690D01*
X136260366Y-90416071D01*
X136207985Y-90320833D01*
X136103223Y-90273214D01*
X135946080Y-90273214D01*
X135841319Y-90320833D01*
X135317509Y-90844642D02*
X135265128Y-90892261D01*
X135317509Y-90939880D01*
X135369890Y-90892261D01*
X135317509Y-90844642D01*
X135317509Y-90939880D01*
X135317509Y-90320833D02*
X135265128Y-90368452D01*
X135317509Y-90416071D01*
X135369890Y-90368452D01*
X135317509Y-90320833D01*
X135317509Y-90416071D01*
X134007985Y-89892261D02*
X134950842Y-91177976D01*
X132855604Y-89892261D02*
X133798461Y-91177976D01*
X132017509Y-90273214D02*
X132017509Y-91082738D01*
X132069890Y-91177976D01*
X132122271Y-91225595D01*
X132227033Y-91273214D01*
X132384176Y-91273214D01*
X132488938Y-91225595D01*
X132017509Y-90892261D02*
X132122271Y-90939880D01*
X132331795Y-90939880D01*
X132436557Y-90892261D01*
X132488938Y-90844642D01*
X132541319Y-90749404D01*
X132541319Y-90463690D01*
X132488938Y-90368452D01*
X132436557Y-90320833D01*
X132331795Y-90273214D01*
X132122271Y-90273214D01*
X132017509Y-90320833D01*
X131493700Y-90939880D02*
X131493700Y-90273214D01*
X131493700Y-89939880D02*
X131546080Y-89987500D01*
X131493700Y-90035119D01*
X131441319Y-89987500D01*
X131493700Y-89939880D01*
X131493700Y-90035119D01*
X131127033Y-90273214D02*
X130707985Y-90273214D01*
X130969890Y-89939880D02*
X130969890Y-90797023D01*
X130917509Y-90892261D01*
X130812747Y-90939880D01*
X130707985Y-90939880D01*
X130341319Y-90939880D02*
X130341319Y-89939880D01*
X129869890Y-90939880D02*
X129869890Y-90416071D01*
X129922271Y-90320833D01*
X130027033Y-90273214D01*
X130184176Y-90273214D01*
X130288938Y-90320833D01*
X130341319Y-90368452D01*
X128874652Y-90273214D02*
X128874652Y-90939880D01*
X129346080Y-90273214D02*
X129346080Y-90797023D01*
X129293700Y-90892261D01*
X129188938Y-90939880D01*
X129031795Y-90939880D01*
X128927033Y-90892261D01*
X128874652Y-90844642D01*
X128350842Y-90939880D02*
X128350842Y-89939880D01*
X128350842Y-90320833D02*
X128246080Y-90273214D01*
X128036557Y-90273214D01*
X127931795Y-90320833D01*
X127879414Y-90368452D01*
X127827033Y-90463690D01*
X127827033Y-90749404D01*
X127879414Y-90844642D01*
X127931795Y-90892261D01*
X128036557Y-90939880D01*
X128246080Y-90939880D01*
X128350842Y-90892261D01*
X127355604Y-90844642D02*
X127303223Y-90892261D01*
X127355604Y-90939880D01*
X127407985Y-90892261D01*
X127355604Y-90844642D01*
X127355604Y-90939880D01*
X126360366Y-90892261D02*
X126465128Y-90939880D01*
X126674652Y-90939880D01*
X126779414Y-90892261D01*
X126831795Y-90844642D01*
X126884176Y-90749404D01*
X126884176Y-90463690D01*
X126831795Y-90368452D01*
X126779414Y-90320833D01*
X126674652Y-90273214D01*
X126465128Y-90273214D01*
X126360366Y-90320833D01*
X125731795Y-90939880D02*
X125836557Y-90892261D01*
X125888938Y-90844642D01*
X125941319Y-90749404D01*
X125941319Y-90463690D01*
X125888938Y-90368452D01*
X125836557Y-90320833D01*
X125731795Y-90273214D01*
X125574652Y-90273214D01*
X125469890Y-90320833D01*
X125417509Y-90368452D01*
X125365128Y-90463690D01*
X125365128Y-90749404D01*
X125417509Y-90844642D01*
X125469890Y-90892261D01*
X125574652Y-90939880D01*
X125731795Y-90939880D01*
X124893700Y-90939880D02*
X124893700Y-90273214D01*
X124893700Y-90368452D02*
X124841319Y-90320833D01*
X124736557Y-90273214D01*
X124579414Y-90273214D01*
X124474652Y-90320833D01*
X124422271Y-90416071D01*
X124422271Y-90939880D01*
X124422271Y-90416071D02*
X124369890Y-90320833D01*
X124265128Y-90273214D01*
X124107985Y-90273214D01*
X124003223Y-90320833D01*
X123950842Y-90416071D01*
X123950842Y-90939880D01*
X122641319Y-89892261D02*
X123584176Y-91177976D01*
X121803223Y-90939880D02*
X121803223Y-90416071D01*
X121855604Y-90320833D01*
X121960366Y-90273214D01*
X122169890Y-90273214D01*
X122274652Y-90320833D01*
X121803223Y-90892261D02*
X121907985Y-90939880D01*
X122169890Y-90939880D01*
X122274652Y-90892261D01*
X122327033Y-90797023D01*
X122327033Y-90701785D01*
X122274652Y-90606547D01*
X122169890Y-90558928D01*
X121907985Y-90558928D01*
X121803223Y-90511309D01*
X121331795Y-90892261D02*
X121227033Y-90939880D01*
X121017509Y-90939880D01*
X120912747Y-90892261D01*
X120860366Y-90797023D01*
X120860366Y-90749404D01*
X120912747Y-90654166D01*
X121017509Y-90606547D01*
X121174652Y-90606547D01*
X121279414Y-90558928D01*
X121331795Y-90463690D01*
X121331795Y-90416071D01*
X121279414Y-90320833D01*
X121174652Y-90273214D01*
X121017509Y-90273214D01*
X120912747Y-90320833D01*
X119917509Y-90273214D02*
X119917509Y-90939880D01*
X120388938Y-90273214D02*
X120388938Y-90797023D01*
X120336557Y-90892261D01*
X120231795Y-90939880D01*
X120074652Y-90939880D01*
X119969890Y-90892261D01*
X119917509Y-90844642D01*
X119393700Y-90939880D02*
X119393700Y-89939880D01*
X119288938Y-90558928D02*
X118974652Y-90939880D01*
X118974652Y-90273214D02*
X119393700Y-90654166D01*
X118503223Y-90939880D02*
X118503223Y-90273214D01*
X118503223Y-89939880D02*
X118555604Y-89987500D01*
X118503223Y-90035119D01*
X118450842Y-89987500D01*
X118503223Y-89939880D01*
X118503223Y-90035119D01*
X117507985Y-90939880D02*
X117507985Y-90416071D01*
X117560366Y-90320833D01*
X117665128Y-90273214D01*
X117874652Y-90273214D01*
X117979414Y-90320833D01*
X117507985Y-90892261D02*
X117612747Y-90939880D01*
X117874652Y-90939880D01*
X117979414Y-90892261D01*
X118031795Y-90797023D01*
X118031795Y-90701785D01*
X117979414Y-90606547D01*
X117874652Y-90558928D01*
X117612747Y-90558928D01*
X117507985Y-90511309D01*
X116512747Y-90939880D02*
X116512747Y-90416071D01*
X116565128Y-90320833D01*
X116669890Y-90273214D01*
X116879414Y-90273214D01*
X116984176Y-90320833D01*
X116512747Y-90892261D02*
X116617509Y-90939880D01*
X116879414Y-90939880D01*
X116984176Y-90892261D01*
X117036557Y-90797023D01*
X117036557Y-90701785D01*
X116984176Y-90606547D01*
X116879414Y-90558928D01*
X116617509Y-90558928D01*
X116512747Y-90511309D01*
X115517509Y-90939880D02*
X115517509Y-90416071D01*
X115569890Y-90320833D01*
X115674652Y-90273214D01*
X115884176Y-90273214D01*
X115988938Y-90320833D01*
X115517509Y-90892261D02*
X115622271Y-90939880D01*
X115884176Y-90939880D01*
X115988938Y-90892261D01*
X116041319Y-90797023D01*
X116041319Y-90701785D01*
X115988938Y-90606547D01*
X115884176Y-90558928D01*
X115622271Y-90558928D01*
X115517509Y-90511309D01*
X114207985Y-89892261D02*
X115150842Y-91177976D01*
X113841319Y-90939880D02*
X113841319Y-89939880D01*
X113474652Y-90654166D01*
X113107985Y-89939880D01*
X113107985Y-90939880D01*
X112060366Y-89939880D02*
X112584176Y-89939880D01*
X112636557Y-90416071D01*
X112584176Y-90368452D01*
X112479414Y-90320833D01*
X112217509Y-90320833D01*
X112112747Y-90368452D01*
X112060366Y-90416071D01*
X112007985Y-90511309D01*
X112007985Y-90749404D01*
X112060366Y-90844642D01*
X112112747Y-90892261D01*
X112217509Y-90939880D01*
X112479414Y-90939880D01*
X112584176Y-90892261D01*
X112636557Y-90844642D01*
X111588938Y-90892261D02*
X111431795Y-90939880D01*
X111169890Y-90939880D01*
X111065128Y-90892261D01*
X111012747Y-90844642D01*
X110960366Y-90749404D01*
X110960366Y-90654166D01*
X111012747Y-90558928D01*
X111065128Y-90511309D01*
X111169890Y-90463690D01*
X111379414Y-90416071D01*
X111484176Y-90368452D01*
X111536557Y-90320833D01*
X111588938Y-90225595D01*
X111588938Y-90130357D01*
X111536557Y-90035119D01*
X111484176Y-89987500D01*
X111379414Y-89939880D01*
X111117509Y-89939880D01*
X110960366Y-89987500D01*
X110646080Y-90273214D02*
X110227033Y-90273214D01*
X110488938Y-89939880D02*
X110488938Y-90797023D01*
X110436557Y-90892261D01*
X110331795Y-90939880D01*
X110227033Y-90939880D01*
X109388938Y-90939880D02*
X109388938Y-90416071D01*
X109441319Y-90320833D01*
X109546080Y-90273214D01*
X109755604Y-90273214D01*
X109860366Y-90320833D01*
X109388938Y-90892261D02*
X109493700Y-90939880D01*
X109755604Y-90939880D01*
X109860366Y-90892261D01*
X109912747Y-90797023D01*
X109912747Y-90701785D01*
X109860366Y-90606547D01*
X109755604Y-90558928D01*
X109493700Y-90558928D01*
X109388938Y-90511309D01*
X108393700Y-90892261D02*
X108498461Y-90939880D01*
X108707985Y-90939880D01*
X108812747Y-90892261D01*
X108865128Y-90844642D01*
X108917509Y-90749404D01*
X108917509Y-90463690D01*
X108865128Y-90368452D01*
X108812747Y-90320833D01*
X108707985Y-90273214D01*
X108498461Y-90273214D01*
X108393700Y-90320833D01*
X107922271Y-90939880D02*
X107922271Y-89939880D01*
X107817509Y-90558928D02*
X107503223Y-90939880D01*
X107503223Y-90273214D02*
X107922271Y-90654166D01*
X106403223Y-90844642D02*
X106455604Y-90892261D01*
X106612747Y-90939880D01*
X106717509Y-90939880D01*
X106874652Y-90892261D01*
X106979414Y-90797023D01*
X107031795Y-90701785D01*
X107084176Y-90511309D01*
X107084176Y-90368452D01*
X107031795Y-90177976D01*
X106979414Y-90082738D01*
X106874652Y-89987500D01*
X106717509Y-89939880D01*
X106612747Y-89939880D01*
X106455604Y-89987500D01*
X106403223Y-90035119D01*
X105460366Y-90939880D02*
X105460366Y-90416071D01*
X105512747Y-90320833D01*
X105617509Y-90273214D01*
X105827033Y-90273214D01*
X105931795Y-90320833D01*
X105460366Y-90892261D02*
X105565128Y-90939880D01*
X105827033Y-90939880D01*
X105931795Y-90892261D01*
X105984176Y-90797023D01*
X105984176Y-90701785D01*
X105931795Y-90606547D01*
X105827033Y-90558928D01*
X105565128Y-90558928D01*
X105460366Y-90511309D01*
X105041319Y-90273214D02*
X104779414Y-90939880D01*
X104517509Y-90273214D01*
X104098461Y-90939880D02*
X104098461Y-90273214D01*
X104098461Y-89939880D02*
X104150842Y-89987500D01*
X104098461Y-90035119D01*
X104046080Y-89987500D01*
X104098461Y-89939880D01*
X104098461Y-90035119D01*
X103731795Y-90273214D02*
X103312747Y-90273214D01*
X103574652Y-89939880D02*
X103574652Y-90797023D01*
X103522271Y-90892261D01*
X103417509Y-90939880D01*
X103312747Y-90939880D01*
X103050842Y-90273214D02*
X102788938Y-90939880D01*
X102527033Y-90273214D02*
X102788938Y-90939880D01*
X102893700Y-91177976D01*
X102946080Y-91225595D01*
X103050842Y-91273214D01*
D10*
X112276928Y-88172857D02*
X112676928Y-87601428D01*
X112962642Y-88172857D02*
X112962642Y-86972857D01*
X112505500Y-86972857D01*
X112391214Y-87030000D01*
X112334071Y-87087142D01*
X112276928Y-87201428D01*
X112276928Y-87372857D01*
X112334071Y-87487142D01*
X112391214Y-87544285D01*
X112505500Y-87601428D01*
X112962642Y-87601428D01*
X111305500Y-88115714D02*
X111419785Y-88172857D01*
X111648357Y-88172857D01*
X111762642Y-88115714D01*
X111819785Y-88001428D01*
X111819785Y-87544285D01*
X111762642Y-87430000D01*
X111648357Y-87372857D01*
X111419785Y-87372857D01*
X111305500Y-87430000D01*
X111248357Y-87544285D01*
X111248357Y-87658571D01*
X111819785Y-87772857D01*
X110848357Y-87372857D02*
X110562642Y-88172857D01*
X110276928Y-87372857D01*
X108962642Y-87087142D02*
X108905500Y-87030000D01*
X108791214Y-86972857D01*
X108505500Y-86972857D01*
X108391214Y-87030000D01*
X108334071Y-87087142D01*
X108276928Y-87201428D01*
X108276928Y-87315714D01*
X108334071Y-87487142D01*
X109019785Y-88172857D01*
X108276928Y-88172857D01*
X107534071Y-86972857D02*
X107419785Y-86972857D01*
X107305500Y-87030000D01*
X107248357Y-87087142D01*
X107191214Y-87201428D01*
X107134071Y-87430000D01*
X107134071Y-87715714D01*
X107191214Y-87944285D01*
X107248357Y-88058571D01*
X107305500Y-88115714D01*
X107419785Y-88172857D01*
X107534071Y-88172857D01*
X107648357Y-88115714D01*
X107705500Y-88058571D01*
X107762642Y-87944285D01*
X107819785Y-87715714D01*
X107819785Y-87430000D01*
X107762642Y-87201428D01*
X107705500Y-87087142D01*
X107648357Y-87030000D01*
X107534071Y-86972857D01*
X105991214Y-88172857D02*
X106676928Y-88172857D01*
X106334071Y-88172857D02*
X106334071Y-86972857D01*
X106448357Y-87144285D01*
X106562642Y-87258571D01*
X106676928Y-87315714D01*
X105419785Y-88172857D02*
X105191214Y-88172857D01*
X105076928Y-88115714D01*
X105019785Y-88058571D01*
X104905500Y-87887142D01*
X104848357Y-87658571D01*
X104848357Y-87201428D01*
X104905500Y-87087142D01*
X104962642Y-87030000D01*
X105076928Y-86972857D01*
X105305500Y-86972857D01*
X105419785Y-87030000D01*
X105476928Y-87087142D01*
X105534071Y-87201428D01*
X105534071Y-87487142D01*
X105476928Y-87601428D01*
X105419785Y-87658571D01*
X105305500Y-87715714D01*
X105076928Y-87715714D01*
X104962642Y-87658571D01*
X104905500Y-87601428D01*
X104848357Y-87487142D01*
X104334071Y-88058571D02*
X104276928Y-88115714D01*
X104334071Y-88172857D01*
X104391214Y-88115714D01*
X104334071Y-88058571D01*
X104334071Y-88172857D01*
X103534071Y-86972857D02*
X103419785Y-86972857D01*
X103305500Y-87030000D01*
X103248357Y-87087142D01*
X103191214Y-87201428D01*
X103134071Y-87430000D01*
X103134071Y-87715714D01*
X103191214Y-87944285D01*
X103248357Y-88058571D01*
X103305500Y-88115714D01*
X103419785Y-88172857D01*
X103534071Y-88172857D01*
X103648357Y-88115714D01*
X103705500Y-88058571D01*
X103762642Y-87944285D01*
X103819785Y-87715714D01*
X103819785Y-87430000D01*
X103762642Y-87201428D01*
X103705500Y-87087142D01*
X103648357Y-87030000D01*
X103534071Y-86972857D01*
X102048357Y-86972857D02*
X102619785Y-86972857D01*
X102676928Y-87544285D01*
X102619785Y-87487142D01*
X102505500Y-87430000D01*
X102219785Y-87430000D01*
X102105500Y-87487142D01*
X102048357Y-87544285D01*
X101991214Y-87658571D01*
X101991214Y-87944285D01*
X102048357Y-88058571D01*
X102105500Y-88115714D01*
X102219785Y-88172857D01*
X102505500Y-88172857D01*
X102619785Y-88115714D01*
X102676928Y-88058571D01*
D12*
X139304771Y-88004514D02*
X139304771Y-85604514D01*
X138504771Y-87318800D01*
X137704771Y-85604514D01*
X137704771Y-88004514D01*
X135419057Y-85604514D02*
X136561914Y-85604514D01*
X136676200Y-86747371D01*
X136561914Y-86633085D01*
X136333342Y-86518800D01*
X135761914Y-86518800D01*
X135533342Y-86633085D01*
X135419057Y-86747371D01*
X135304771Y-86975942D01*
X135304771Y-87547371D01*
X135419057Y-87775942D01*
X135533342Y-87890228D01*
X135761914Y-88004514D01*
X136333342Y-88004514D01*
X136561914Y-87890228D01*
X136676200Y-87775942D01*
X134390485Y-87890228D02*
X134047628Y-88004514D01*
X133476200Y-88004514D01*
X133247628Y-87890228D01*
X133133342Y-87775942D01*
X133019057Y-87547371D01*
X133019057Y-87318800D01*
X133133342Y-87090228D01*
X133247628Y-86975942D01*
X133476200Y-86861657D01*
X133933342Y-86747371D01*
X134161914Y-86633085D01*
X134276200Y-86518800D01*
X134390485Y-86290228D01*
X134390485Y-86061657D01*
X134276200Y-85833085D01*
X134161914Y-85718800D01*
X133933342Y-85604514D01*
X133361914Y-85604514D01*
X133019057Y-85718800D01*
X132333342Y-86404514D02*
X131419057Y-86404514D01*
X131990485Y-85604514D02*
X131990485Y-87661657D01*
X131876200Y-87890228D01*
X131647628Y-88004514D01*
X131419057Y-88004514D01*
X129590485Y-88004514D02*
X129590485Y-86747371D01*
X129704771Y-86518800D01*
X129933342Y-86404514D01*
X130390485Y-86404514D01*
X130619057Y-86518800D01*
X129590485Y-87890228D02*
X129819057Y-88004514D01*
X130390485Y-88004514D01*
X130619057Y-87890228D01*
X130733342Y-87661657D01*
X130733342Y-87433085D01*
X130619057Y-87204514D01*
X130390485Y-87090228D01*
X129819057Y-87090228D01*
X129590485Y-86975942D01*
X127419057Y-87890228D02*
X127647628Y-88004514D01*
X128104771Y-88004514D01*
X128333342Y-87890228D01*
X128447628Y-87775942D01*
X128561914Y-87547371D01*
X128561914Y-86861657D01*
X128447628Y-86633085D01*
X128333342Y-86518800D01*
X128104771Y-86404514D01*
X127647628Y-86404514D01*
X127419057Y-86518800D01*
X126390485Y-88004514D02*
X126390485Y-85604514D01*
X126161914Y-87090228D02*
X125476200Y-88004514D01*
X125476200Y-86404514D02*
X126390485Y-87318800D01*
X123076200Y-87775942D02*
X123190485Y-87890228D01*
X123533342Y-88004514D01*
X123761914Y-88004514D01*
X124104771Y-87890228D01*
X124333342Y-87661657D01*
X124447628Y-87433085D01*
X124561914Y-86975942D01*
X124561914Y-86633085D01*
X124447628Y-86175942D01*
X124333342Y-85947371D01*
X124104771Y-85718800D01*
X123761914Y-85604514D01*
X123533342Y-85604514D01*
X123190485Y-85718800D01*
X123076200Y-85833085D01*
X121019057Y-88004514D02*
X121019057Y-86747371D01*
X121133342Y-86518800D01*
X121361914Y-86404514D01*
X121819057Y-86404514D01*
X122047628Y-86518800D01*
X121019057Y-87890228D02*
X121247628Y-88004514D01*
X121819057Y-88004514D01*
X122047628Y-87890228D01*
X122161914Y-87661657D01*
X122161914Y-87433085D01*
X122047628Y-87204514D01*
X121819057Y-87090228D01*
X121247628Y-87090228D01*
X121019057Y-86975942D01*
X120104771Y-86404514D02*
X119533342Y-88004514D01*
X118961914Y-86404514D01*
X118047628Y-88004514D02*
X118047628Y-86404514D01*
X118047628Y-85604514D02*
X118161914Y-85718800D01*
X118047628Y-85833085D01*
X117933342Y-85718800D01*
X118047628Y-85604514D01*
X118047628Y-85833085D01*
X117247628Y-86404514D02*
X116333342Y-86404514D01*
X116904771Y-85604514D02*
X116904771Y-87661657D01*
X116790485Y-87890228D01*
X116561914Y-88004514D01*
X116333342Y-88004514D01*
X115761914Y-86404514D02*
X115190485Y-88004514D01*
X114619057Y-86404514D02*
X115190485Y-88004514D01*
X115419057Y-88575942D01*
X115533342Y-88690228D01*
X115761914Y-88804514D01*
D13*
G04 #@! TO.C,J4*
X146674000Y-55890000D02*
X141474000Y-55890000D01*
X141474000Y-55890000D02*
X141474000Y-56460000D01*
X141474000Y-57980000D02*
X141474000Y-59000000D01*
X141474000Y-60520000D02*
X141474000Y-61540000D01*
X141474000Y-63060000D02*
X141474000Y-64080000D01*
X141474000Y-65600000D02*
X141474000Y-66620000D01*
X141474000Y-68140000D02*
X141474000Y-69160000D01*
X141474000Y-70680000D02*
X141474000Y-71700000D01*
X141474000Y-73220000D02*
X141474000Y-74240000D01*
X141474000Y-75760000D02*
X141474000Y-76780000D01*
X141474000Y-78300000D02*
X141474000Y-79320000D01*
X141474000Y-80840000D02*
X141474000Y-81860000D01*
X141474000Y-83380000D02*
X141474000Y-84400000D01*
X141474000Y-85920000D02*
X141474000Y-86940000D01*
X141474000Y-88460000D02*
X141474000Y-89480000D01*
X141474000Y-91000000D02*
X141474000Y-92020000D01*
X141474000Y-93540000D02*
X141474000Y-94110000D01*
X146674000Y-94110000D02*
X141474000Y-94110000D01*
X146674000Y-55890000D02*
X146674000Y-56460000D01*
X146674000Y-57980000D02*
X146674000Y-59000000D01*
X146674000Y-60520000D02*
X146674000Y-61540000D01*
X146674000Y-63060000D02*
X146674000Y-64080000D01*
X146674000Y-65600000D02*
X146674000Y-66620000D01*
X146674000Y-68140000D02*
X146674000Y-69160000D01*
X146674000Y-70680000D02*
X146674000Y-71700000D01*
X146674000Y-73220000D02*
X146674000Y-74240000D01*
X146674000Y-75760000D02*
X146674000Y-76780000D01*
X146674000Y-78300000D02*
X146674000Y-79320000D01*
X146674000Y-80840000D02*
X146674000Y-81860000D01*
X146674000Y-83380000D02*
X146674000Y-84400000D01*
X146674000Y-85920000D02*
X146674000Y-86940000D01*
X146674000Y-88460000D02*
X146674000Y-89480000D01*
X146674000Y-91000000D02*
X146674000Y-92020000D01*
X146674000Y-93540000D02*
X146674000Y-94110000D01*
X141474000Y-56460000D02*
X140114000Y-56460000D01*
D14*
G04 #@! TO.C,OSHWREF1*
G36*
X109519136Y-74897276D02*
X109443587Y-75298022D01*
X108886059Y-75527854D01*
X108551635Y-75300448D01*
X108457978Y-75237131D01*
X108373318Y-75180596D01*
X108301605Y-75133427D01*
X108246789Y-75098202D01*
X108212820Y-75077505D01*
X108203570Y-75073042D01*
X108186905Y-75084520D01*
X108151294Y-75116251D01*
X108100729Y-75164183D01*
X108039200Y-75224262D01*
X107970701Y-75292433D01*
X107899221Y-75364645D01*
X107828753Y-75436842D01*
X107763289Y-75504973D01*
X107706820Y-75564983D01*
X107663337Y-75612819D01*
X107636832Y-75644427D01*
X107630495Y-75655005D01*
X107639614Y-75674506D01*
X107665180Y-75717231D01*
X107704503Y-75778998D01*
X107754897Y-75855631D01*
X107813673Y-75942948D01*
X107847732Y-75992752D01*
X107909811Y-76083693D01*
X107964974Y-76165759D01*
X108010546Y-76234863D01*
X108043850Y-76286922D01*
X108062210Y-76317850D01*
X108064969Y-76324350D01*
X108058715Y-76342821D01*
X108041666Y-76385872D01*
X108016397Y-76447449D01*
X107985478Y-76521499D01*
X107951482Y-76601970D01*
X107916982Y-76682807D01*
X107884549Y-76757958D01*
X107856757Y-76821371D01*
X107836177Y-76866993D01*
X107825381Y-76888769D01*
X107824744Y-76889626D01*
X107807793Y-76893784D01*
X107762649Y-76903061D01*
X107693990Y-76916544D01*
X107606498Y-76933321D01*
X107504850Y-76952481D01*
X107445544Y-76963530D01*
X107336928Y-76984210D01*
X107238823Y-77003889D01*
X107156191Y-77021489D01*
X107093996Y-77035933D01*
X107057201Y-77046146D01*
X107049804Y-77049386D01*
X107042560Y-77071317D01*
X107036715Y-77120847D01*
X107032265Y-77192185D01*
X107029207Y-77279539D01*
X107027535Y-77377117D01*
X107027247Y-77479126D01*
X107028339Y-77579775D01*
X107030806Y-77673272D01*
X107034644Y-77753825D01*
X107039850Y-77815642D01*
X107046419Y-77852930D01*
X107050359Y-77860693D01*
X107073912Y-77869998D01*
X107123818Y-77883300D01*
X107193477Y-77899037D01*
X107276287Y-77915646D01*
X107305195Y-77921019D01*
X107444569Y-77946548D01*
X107554664Y-77967108D01*
X107639118Y-77983515D01*
X107701570Y-77996587D01*
X107745656Y-78007141D01*
X107775015Y-78015994D01*
X107793285Y-78023963D01*
X107804102Y-78031865D01*
X107805615Y-78033427D01*
X107820723Y-78058586D01*
X107843771Y-78107550D01*
X107872456Y-78174321D01*
X107904478Y-78252905D01*
X107937535Y-78337307D01*
X107969327Y-78421530D01*
X107997551Y-78499579D01*
X108019907Y-78565459D01*
X108034093Y-78613173D01*
X108037807Y-78636727D01*
X108037498Y-78637552D01*
X108024911Y-78656804D01*
X107996356Y-78699163D01*
X107954833Y-78760221D01*
X107903344Y-78835568D01*
X107844889Y-78920796D01*
X107828242Y-78945015D01*
X107768885Y-79032823D01*
X107716653Y-79112938D01*
X107674392Y-79180762D01*
X107644947Y-79231693D01*
X107631163Y-79261131D01*
X107630495Y-79264748D01*
X107642076Y-79283757D01*
X107674076Y-79321414D01*
X107722382Y-79373673D01*
X107782880Y-79436486D01*
X107851456Y-79505806D01*
X107923996Y-79577585D01*
X107996388Y-79647777D01*
X108064516Y-79712335D01*
X108124268Y-79767210D01*
X108171529Y-79808356D01*
X108202187Y-79831726D01*
X108210668Y-79835542D01*
X108230409Y-79826555D01*
X108270826Y-79802316D01*
X108325337Y-79766909D01*
X108367277Y-79738411D01*
X108443271Y-79686118D01*
X108533266Y-79624545D01*
X108623536Y-79563070D01*
X108672068Y-79530169D01*
X108836338Y-79419059D01*
X108974231Y-79493616D01*
X109037051Y-79526278D01*
X109090471Y-79551666D01*
X109126616Y-79566146D01*
X109135816Y-79568160D01*
X109146879Y-79553284D01*
X109168706Y-79511247D01*
X109199666Y-79445927D01*
X109238130Y-79361200D01*
X109282468Y-79260945D01*
X109331053Y-79149039D01*
X109382254Y-79029359D01*
X109434441Y-78905784D01*
X109485987Y-78782191D01*
X109535260Y-78662457D01*
X109580633Y-78550459D01*
X109620475Y-78450077D01*
X109653158Y-78365186D01*
X109677051Y-78299665D01*
X109690526Y-78257390D01*
X109692694Y-78242872D01*
X109675517Y-78224353D01*
X109637910Y-78194290D01*
X109587734Y-78158932D01*
X109583522Y-78156134D01*
X109453836Y-78052325D01*
X109349266Y-77931215D01*
X109270719Y-77796676D01*
X109219101Y-77652582D01*
X109195318Y-77502805D01*
X109200277Y-77351217D01*
X109234883Y-77201692D01*
X109300043Y-77058100D01*
X109319214Y-77026684D01*
X109418926Y-76899825D01*
X109536723Y-76797955D01*
X109668529Y-76721604D01*
X109810267Y-76671302D01*
X109957858Y-76647579D01*
X110107227Y-76650965D01*
X110254297Y-76681988D01*
X110394989Y-76741180D01*
X110525227Y-76829069D01*
X110565514Y-76864742D01*
X110668045Y-76976406D01*
X110742759Y-77093957D01*
X110794010Y-77225720D01*
X110822554Y-77356207D01*
X110829600Y-77502916D01*
X110806104Y-77650353D01*
X110754451Y-77793534D01*
X110677029Y-77927477D01*
X110576225Y-78047198D01*
X110454424Y-78147714D01*
X110438416Y-78158309D01*
X110387702Y-78193006D01*
X110349150Y-78223070D01*
X110330719Y-78242265D01*
X110330451Y-78242872D01*
X110334408Y-78263636D01*
X110350093Y-78310762D01*
X110375878Y-78380373D01*
X110410131Y-78468593D01*
X110451223Y-78571544D01*
X110497524Y-78685350D01*
X110547404Y-78806135D01*
X110599233Y-78930021D01*
X110651381Y-79053132D01*
X110702218Y-79171591D01*
X110750113Y-79281523D01*
X110793438Y-79379049D01*
X110830562Y-79460293D01*
X110859856Y-79521379D01*
X110879688Y-79558430D01*
X110887674Y-79568160D01*
X110912079Y-79560583D01*
X110957742Y-79540260D01*
X111016790Y-79510825D01*
X111049260Y-79493616D01*
X111187153Y-79419059D01*
X111351423Y-79530169D01*
X111435279Y-79587090D01*
X111527087Y-79649730D01*
X111613120Y-79708711D01*
X111656213Y-79738411D01*
X111716823Y-79779110D01*
X111768145Y-79811363D01*
X111803485Y-79831084D01*
X111814963Y-79835254D01*
X111831670Y-79824007D01*
X111868646Y-79792611D01*
X111922305Y-79744324D01*
X111989062Y-79682408D01*
X112065334Y-79610121D01*
X112113573Y-79563708D01*
X112197967Y-79480787D01*
X112270903Y-79406620D01*
X112329431Y-79344380D01*
X112370603Y-79297241D01*
X112391472Y-79268373D01*
X112393474Y-79262515D01*
X112384183Y-79240232D01*
X112358509Y-79195177D01*
X112319300Y-79131911D01*
X112269403Y-79054995D01*
X112211667Y-78968992D01*
X112195249Y-78945015D01*
X112135423Y-78857870D01*
X112081750Y-78779410D01*
X112037230Y-78714045D01*
X112004865Y-78666184D01*
X111987655Y-78640235D01*
X111985993Y-78637552D01*
X111988479Y-78616872D01*
X112001677Y-78571404D01*
X112023286Y-78507144D01*
X112051004Y-78430087D01*
X112082530Y-78346229D01*
X112115563Y-78261566D01*
X112147801Y-78182092D01*
X112176943Y-78113804D01*
X112200688Y-78062697D01*
X112216735Y-78034767D01*
X112217875Y-78033427D01*
X112227688Y-78025445D01*
X112244261Y-78017551D01*
X112271232Y-78008929D01*
X112312239Y-77998762D01*
X112370920Y-77986231D01*
X112450913Y-77970521D01*
X112555855Y-77950813D01*
X112689385Y-77926292D01*
X112718296Y-77921019D01*
X112803982Y-77904464D01*
X112878682Y-77888269D01*
X112935794Y-77873996D01*
X112968717Y-77863208D01*
X112973131Y-77860693D01*
X112980406Y-77838396D01*
X112986319Y-77788569D01*
X112990866Y-77717004D01*
X112994045Y-77629493D01*
X112995849Y-77531828D01*
X112996277Y-77429801D01*
X112995323Y-77329203D01*
X112992984Y-77235827D01*
X112989256Y-77155465D01*
X112984134Y-77093909D01*
X112977616Y-77056950D01*
X112973686Y-77049386D01*
X112951808Y-77041756D01*
X112901991Y-77029342D01*
X112829197Y-77013222D01*
X112738389Y-76994473D01*
X112634531Y-76974171D01*
X112577946Y-76963530D01*
X112470586Y-76943460D01*
X112374846Y-76925280D01*
X112295406Y-76909899D01*
X112236946Y-76898231D01*
X112204145Y-76891188D01*
X112198746Y-76889626D01*
X112189622Y-76872022D01*
X112170335Y-76829618D01*
X112143455Y-76768472D01*
X112111554Y-76694643D01*
X112077202Y-76614189D01*
X112042971Y-76533168D01*
X112011431Y-76457637D01*
X111985154Y-76393655D01*
X111966711Y-76347280D01*
X111958671Y-76324569D01*
X111958522Y-76323576D01*
X111967635Y-76305661D01*
X111993186Y-76264433D01*
X112032488Y-76203991D01*
X112082857Y-76128431D01*
X112141606Y-76041852D01*
X112175758Y-75992121D01*
X112237990Y-75900936D01*
X112293264Y-75818149D01*
X112338882Y-75747949D01*
X112372148Y-75694524D01*
X112390364Y-75662061D01*
X112392995Y-75654783D01*
X112381686Y-75637845D01*
X112350419Y-75601678D01*
X112303190Y-75550335D01*
X112243992Y-75487867D01*
X112176819Y-75418326D01*
X112105666Y-75345765D01*
X112034526Y-75274235D01*
X111967393Y-75207787D01*
X111908261Y-75150474D01*
X111861125Y-75106347D01*
X111829977Y-75079459D01*
X111819557Y-75073042D01*
X111802591Y-75082065D01*
X111762011Y-75107415D01*
X111701763Y-75146510D01*
X111625793Y-75196771D01*
X111538046Y-75255617D01*
X111471856Y-75300448D01*
X111137432Y-75527854D01*
X110858667Y-75412938D01*
X110579903Y-75298022D01*
X110504354Y-74897276D01*
X110428806Y-74496529D01*
X109594685Y-74496529D01*
X109519136Y-74897276D01*
X109519136Y-74897276D01*
G37*
X109519136Y-74897276D02*
X109443587Y-75298022D01*
X108886059Y-75527854D01*
X108551635Y-75300448D01*
X108457978Y-75237131D01*
X108373318Y-75180596D01*
X108301605Y-75133427D01*
X108246789Y-75098202D01*
X108212820Y-75077505D01*
X108203570Y-75073042D01*
X108186905Y-75084520D01*
X108151294Y-75116251D01*
X108100729Y-75164183D01*
X108039200Y-75224262D01*
X107970701Y-75292433D01*
X107899221Y-75364645D01*
X107828753Y-75436842D01*
X107763289Y-75504973D01*
X107706820Y-75564983D01*
X107663337Y-75612819D01*
X107636832Y-75644427D01*
X107630495Y-75655005D01*
X107639614Y-75674506D01*
X107665180Y-75717231D01*
X107704503Y-75778998D01*
X107754897Y-75855631D01*
X107813673Y-75942948D01*
X107847732Y-75992752D01*
X107909811Y-76083693D01*
X107964974Y-76165759D01*
X108010546Y-76234863D01*
X108043850Y-76286922D01*
X108062210Y-76317850D01*
X108064969Y-76324350D01*
X108058715Y-76342821D01*
X108041666Y-76385872D01*
X108016397Y-76447449D01*
X107985478Y-76521499D01*
X107951482Y-76601970D01*
X107916982Y-76682807D01*
X107884549Y-76757958D01*
X107856757Y-76821371D01*
X107836177Y-76866993D01*
X107825381Y-76888769D01*
X107824744Y-76889626D01*
X107807793Y-76893784D01*
X107762649Y-76903061D01*
X107693990Y-76916544D01*
X107606498Y-76933321D01*
X107504850Y-76952481D01*
X107445544Y-76963530D01*
X107336928Y-76984210D01*
X107238823Y-77003889D01*
X107156191Y-77021489D01*
X107093996Y-77035933D01*
X107057201Y-77046146D01*
X107049804Y-77049386D01*
X107042560Y-77071317D01*
X107036715Y-77120847D01*
X107032265Y-77192185D01*
X107029207Y-77279539D01*
X107027535Y-77377117D01*
X107027247Y-77479126D01*
X107028339Y-77579775D01*
X107030806Y-77673272D01*
X107034644Y-77753825D01*
X107039850Y-77815642D01*
X107046419Y-77852930D01*
X107050359Y-77860693D01*
X107073912Y-77869998D01*
X107123818Y-77883300D01*
X107193477Y-77899037D01*
X107276287Y-77915646D01*
X107305195Y-77921019D01*
X107444569Y-77946548D01*
X107554664Y-77967108D01*
X107639118Y-77983515D01*
X107701570Y-77996587D01*
X107745656Y-78007141D01*
X107775015Y-78015994D01*
X107793285Y-78023963D01*
X107804102Y-78031865D01*
X107805615Y-78033427D01*
X107820723Y-78058586D01*
X107843771Y-78107550D01*
X107872456Y-78174321D01*
X107904478Y-78252905D01*
X107937535Y-78337307D01*
X107969327Y-78421530D01*
X107997551Y-78499579D01*
X108019907Y-78565459D01*
X108034093Y-78613173D01*
X108037807Y-78636727D01*
X108037498Y-78637552D01*
X108024911Y-78656804D01*
X107996356Y-78699163D01*
X107954833Y-78760221D01*
X107903344Y-78835568D01*
X107844889Y-78920796D01*
X107828242Y-78945015D01*
X107768885Y-79032823D01*
X107716653Y-79112938D01*
X107674392Y-79180762D01*
X107644947Y-79231693D01*
X107631163Y-79261131D01*
X107630495Y-79264748D01*
X107642076Y-79283757D01*
X107674076Y-79321414D01*
X107722382Y-79373673D01*
X107782880Y-79436486D01*
X107851456Y-79505806D01*
X107923996Y-79577585D01*
X107996388Y-79647777D01*
X108064516Y-79712335D01*
X108124268Y-79767210D01*
X108171529Y-79808356D01*
X108202187Y-79831726D01*
X108210668Y-79835542D01*
X108230409Y-79826555D01*
X108270826Y-79802316D01*
X108325337Y-79766909D01*
X108367277Y-79738411D01*
X108443271Y-79686118D01*
X108533266Y-79624545D01*
X108623536Y-79563070D01*
X108672068Y-79530169D01*
X108836338Y-79419059D01*
X108974231Y-79493616D01*
X109037051Y-79526278D01*
X109090471Y-79551666D01*
X109126616Y-79566146D01*
X109135816Y-79568160D01*
X109146879Y-79553284D01*
X109168706Y-79511247D01*
X109199666Y-79445927D01*
X109238130Y-79361200D01*
X109282468Y-79260945D01*
X109331053Y-79149039D01*
X109382254Y-79029359D01*
X109434441Y-78905784D01*
X109485987Y-78782191D01*
X109535260Y-78662457D01*
X109580633Y-78550459D01*
X109620475Y-78450077D01*
X109653158Y-78365186D01*
X109677051Y-78299665D01*
X109690526Y-78257390D01*
X109692694Y-78242872D01*
X109675517Y-78224353D01*
X109637910Y-78194290D01*
X109587734Y-78158932D01*
X109583522Y-78156134D01*
X109453836Y-78052325D01*
X109349266Y-77931215D01*
X109270719Y-77796676D01*
X109219101Y-77652582D01*
X109195318Y-77502805D01*
X109200277Y-77351217D01*
X109234883Y-77201692D01*
X109300043Y-77058100D01*
X109319214Y-77026684D01*
X109418926Y-76899825D01*
X109536723Y-76797955D01*
X109668529Y-76721604D01*
X109810267Y-76671302D01*
X109957858Y-76647579D01*
X110107227Y-76650965D01*
X110254297Y-76681988D01*
X110394989Y-76741180D01*
X110525227Y-76829069D01*
X110565514Y-76864742D01*
X110668045Y-76976406D01*
X110742759Y-77093957D01*
X110794010Y-77225720D01*
X110822554Y-77356207D01*
X110829600Y-77502916D01*
X110806104Y-77650353D01*
X110754451Y-77793534D01*
X110677029Y-77927477D01*
X110576225Y-78047198D01*
X110454424Y-78147714D01*
X110438416Y-78158309D01*
X110387702Y-78193006D01*
X110349150Y-78223070D01*
X110330719Y-78242265D01*
X110330451Y-78242872D01*
X110334408Y-78263636D01*
X110350093Y-78310762D01*
X110375878Y-78380373D01*
X110410131Y-78468593D01*
X110451223Y-78571544D01*
X110497524Y-78685350D01*
X110547404Y-78806135D01*
X110599233Y-78930021D01*
X110651381Y-79053132D01*
X110702218Y-79171591D01*
X110750113Y-79281523D01*
X110793438Y-79379049D01*
X110830562Y-79460293D01*
X110859856Y-79521379D01*
X110879688Y-79558430D01*
X110887674Y-79568160D01*
X110912079Y-79560583D01*
X110957742Y-79540260D01*
X111016790Y-79510825D01*
X111049260Y-79493616D01*
X111187153Y-79419059D01*
X111351423Y-79530169D01*
X111435279Y-79587090D01*
X111527087Y-79649730D01*
X111613120Y-79708711D01*
X111656213Y-79738411D01*
X111716823Y-79779110D01*
X111768145Y-79811363D01*
X111803485Y-79831084D01*
X111814963Y-79835254D01*
X111831670Y-79824007D01*
X111868646Y-79792611D01*
X111922305Y-79744324D01*
X111989062Y-79682408D01*
X112065334Y-79610121D01*
X112113573Y-79563708D01*
X112197967Y-79480787D01*
X112270903Y-79406620D01*
X112329431Y-79344380D01*
X112370603Y-79297241D01*
X112391472Y-79268373D01*
X112393474Y-79262515D01*
X112384183Y-79240232D01*
X112358509Y-79195177D01*
X112319300Y-79131911D01*
X112269403Y-79054995D01*
X112211667Y-78968992D01*
X112195249Y-78945015D01*
X112135423Y-78857870D01*
X112081750Y-78779410D01*
X112037230Y-78714045D01*
X112004865Y-78666184D01*
X111987655Y-78640235D01*
X111985993Y-78637552D01*
X111988479Y-78616872D01*
X112001677Y-78571404D01*
X112023286Y-78507144D01*
X112051004Y-78430087D01*
X112082530Y-78346229D01*
X112115563Y-78261566D01*
X112147801Y-78182092D01*
X112176943Y-78113804D01*
X112200688Y-78062697D01*
X112216735Y-78034767D01*
X112217875Y-78033427D01*
X112227688Y-78025445D01*
X112244261Y-78017551D01*
X112271232Y-78008929D01*
X112312239Y-77998762D01*
X112370920Y-77986231D01*
X112450913Y-77970521D01*
X112555855Y-77950813D01*
X112689385Y-77926292D01*
X112718296Y-77921019D01*
X112803982Y-77904464D01*
X112878682Y-77888269D01*
X112935794Y-77873996D01*
X112968717Y-77863208D01*
X112973131Y-77860693D01*
X112980406Y-77838396D01*
X112986319Y-77788569D01*
X112990866Y-77717004D01*
X112994045Y-77629493D01*
X112995849Y-77531828D01*
X112996277Y-77429801D01*
X112995323Y-77329203D01*
X112992984Y-77235827D01*
X112989256Y-77155465D01*
X112984134Y-77093909D01*
X112977616Y-77056950D01*
X112973686Y-77049386D01*
X112951808Y-77041756D01*
X112901991Y-77029342D01*
X112829197Y-77013222D01*
X112738389Y-76994473D01*
X112634531Y-76974171D01*
X112577946Y-76963530D01*
X112470586Y-76943460D01*
X112374846Y-76925280D01*
X112295406Y-76909899D01*
X112236946Y-76898231D01*
X112204145Y-76891188D01*
X112198746Y-76889626D01*
X112189622Y-76872022D01*
X112170335Y-76829618D01*
X112143455Y-76768472D01*
X112111554Y-76694643D01*
X112077202Y-76614189D01*
X112042971Y-76533168D01*
X112011431Y-76457637D01*
X111985154Y-76393655D01*
X111966711Y-76347280D01*
X111958671Y-76324569D01*
X111958522Y-76323576D01*
X111967635Y-76305661D01*
X111993186Y-76264433D01*
X112032488Y-76203991D01*
X112082857Y-76128431D01*
X112141606Y-76041852D01*
X112175758Y-75992121D01*
X112237990Y-75900936D01*
X112293264Y-75818149D01*
X112338882Y-75747949D01*
X112372148Y-75694524D01*
X112390364Y-75662061D01*
X112392995Y-75654783D01*
X112381686Y-75637845D01*
X112350419Y-75601678D01*
X112303190Y-75550335D01*
X112243992Y-75487867D01*
X112176819Y-75418326D01*
X112105666Y-75345765D01*
X112034526Y-75274235D01*
X111967393Y-75207787D01*
X111908261Y-75150474D01*
X111861125Y-75106347D01*
X111829977Y-75079459D01*
X111819557Y-75073042D01*
X111802591Y-75082065D01*
X111762011Y-75107415D01*
X111701763Y-75146510D01*
X111625793Y-75196771D01*
X111538046Y-75255617D01*
X111471856Y-75300448D01*
X111137432Y-75527854D01*
X110858667Y-75412938D01*
X110579903Y-75298022D01*
X110504354Y-74897276D01*
X110428806Y-74496529D01*
X109594685Y-74496529D01*
X109519136Y-74897276D01*
G36*
X107628712Y-80436345D02*
X107571235Y-80453906D01*
X107534228Y-80476095D01*
X107522173Y-80493642D01*
X107525491Y-80514442D01*
X107547021Y-80547119D01*
X107565226Y-80570262D01*
X107602756Y-80612102D01*
X107630952Y-80629705D01*
X107654989Y-80628556D01*
X107726292Y-80610410D01*
X107778658Y-80611234D01*
X107821182Y-80631798D01*
X107835458Y-80643834D01*
X107881153Y-80686183D01*
X107881153Y-81239226D01*
X108064969Y-81239226D01*
X108064969Y-80437121D01*
X107973061Y-80437121D01*
X107917881Y-80439303D01*
X107889412Y-80447051D01*
X107881157Y-80462168D01*
X107881153Y-80462616D01*
X107877255Y-80478449D01*
X107859626Y-80476384D01*
X107835199Y-80464961D01*
X107784750Y-80443705D01*
X107743784Y-80430916D01*
X107691072Y-80427638D01*
X107628712Y-80436345D01*
X107628712Y-80436345D01*
G37*
X107628712Y-80436345D02*
X107571235Y-80453906D01*
X107534228Y-80476095D01*
X107522173Y-80493642D01*
X107525491Y-80514442D01*
X107547021Y-80547119D01*
X107565226Y-80570262D01*
X107602756Y-80612102D01*
X107630952Y-80629705D01*
X107654989Y-80628556D01*
X107726292Y-80610410D01*
X107778658Y-80611234D01*
X107821182Y-80631798D01*
X107835458Y-80643834D01*
X107881153Y-80686183D01*
X107881153Y-81239226D01*
X108064969Y-81239226D01*
X108064969Y-80437121D01*
X107973061Y-80437121D01*
X107917881Y-80439303D01*
X107889412Y-80447051D01*
X107881157Y-80462168D01*
X107881153Y-80462616D01*
X107877255Y-80478449D01*
X107859626Y-80476384D01*
X107835199Y-80464961D01*
X107784750Y-80443705D01*
X107743784Y-80430916D01*
X107691072Y-80427638D01*
X107628712Y-80436345D01*
G36*
X111022143Y-80450926D02*
X110980554Y-80470790D01*
X110940275Y-80499484D01*
X110909590Y-80532509D01*
X110887239Y-80574631D01*
X110871964Y-80630615D01*
X110862508Y-80705228D01*
X110857613Y-80803235D01*
X110856019Y-80929402D01*
X110855994Y-80942614D01*
X110855627Y-81239226D01*
X111039443Y-81239226D01*
X111039443Y-80965781D01*
X111039573Y-80864477D01*
X111040479Y-80791053D01*
X111042927Y-80739971D01*
X111047686Y-80705690D01*
X111055526Y-80682671D01*
X111067215Y-80665373D01*
X111083498Y-80648281D01*
X111140466Y-80611557D01*
X111202655Y-80604742D01*
X111261901Y-80627961D01*
X111282505Y-80645243D01*
X111297630Y-80661491D01*
X111308490Y-80678891D01*
X111315790Y-80702912D01*
X111320237Y-80739022D01*
X111322536Y-80792688D01*
X111323396Y-80869380D01*
X111323522Y-80962743D01*
X111323522Y-81239226D01*
X111507337Y-81239226D01*
X111507337Y-80437121D01*
X111415429Y-80437121D01*
X111360249Y-80439303D01*
X111331780Y-80447051D01*
X111323525Y-80462168D01*
X111323522Y-80462616D01*
X111319692Y-80477420D01*
X111302799Y-80475740D01*
X111269212Y-80459473D01*
X111193037Y-80435540D01*
X111105900Y-80432878D01*
X111022143Y-80450926D01*
X111022143Y-80450926D01*
G37*
X111022143Y-80450926D02*
X110980554Y-80470790D01*
X110940275Y-80499484D01*
X110909590Y-80532509D01*
X110887239Y-80574631D01*
X110871964Y-80630615D01*
X110862508Y-80705228D01*
X110857613Y-80803235D01*
X110856019Y-80929402D01*
X110855994Y-80942614D01*
X110855627Y-81239226D01*
X111039443Y-81239226D01*
X111039443Y-80965781D01*
X111039573Y-80864477D01*
X111040479Y-80791053D01*
X111042927Y-80739971D01*
X111047686Y-80705690D01*
X111055526Y-80682671D01*
X111067215Y-80665373D01*
X111083498Y-80648281D01*
X111140466Y-80611557D01*
X111202655Y-80604742D01*
X111261901Y-80627961D01*
X111282505Y-80645243D01*
X111297630Y-80661491D01*
X111308490Y-80678891D01*
X111315790Y-80702912D01*
X111320237Y-80739022D01*
X111322536Y-80792688D01*
X111323396Y-80869380D01*
X111323522Y-80962743D01*
X111323522Y-81239226D01*
X111507337Y-81239226D01*
X111507337Y-80437121D01*
X111415429Y-80437121D01*
X111360249Y-80439303D01*
X111331780Y-80447051D01*
X111323525Y-80462168D01*
X111323522Y-80462616D01*
X111319692Y-80477420D01*
X111302799Y-80475740D01*
X111269212Y-80459473D01*
X111193037Y-80435540D01*
X111105900Y-80432878D01*
X111022143Y-80450926D01*
G36*
X106461316Y-80434254D02*
X106418526Y-80444649D01*
X106336491Y-80482713D01*
X106266343Y-80540849D01*
X106217795Y-80610552D01*
X106211125Y-80626202D01*
X106201976Y-80667196D01*
X106195571Y-80727838D01*
X106193390Y-80789130D01*
X106193390Y-80905016D01*
X106435693Y-80905016D01*
X106535629Y-80905393D01*
X106606031Y-80907687D01*
X106650787Y-80913638D01*
X106673785Y-80924985D01*
X106678911Y-80943471D01*
X106670052Y-80970836D01*
X106654183Y-81002855D01*
X106609916Y-81056292D01*
X106548401Y-81082915D01*
X106473215Y-81082047D01*
X106388047Y-81053071D01*
X106314441Y-81017311D01*
X106253366Y-81065604D01*
X106192290Y-81113897D01*
X106249749Y-81166985D01*
X106326459Y-81217145D01*
X106420798Y-81247388D01*
X106522273Y-81255851D01*
X106620389Y-81240674D01*
X106636219Y-81235524D01*
X106722453Y-81190491D01*
X106786599Y-81123352D01*
X106830009Y-81032105D01*
X106854036Y-80914744D01*
X106854316Y-80912229D01*
X106856467Y-80784327D01*
X106847771Y-80738697D01*
X106677995Y-80738697D01*
X106662403Y-80745713D01*
X106620071Y-80751088D01*
X106557666Y-80754157D01*
X106518119Y-80754621D01*
X106444372Y-80754330D01*
X106398260Y-80752483D01*
X106374000Y-80747612D01*
X106365806Y-80738255D01*
X106367894Y-80722945D01*
X106369645Y-80717022D01*
X106399540Y-80661368D01*
X106446558Y-80616515D01*
X106488051Y-80596805D01*
X106543174Y-80597995D01*
X106599032Y-80622575D01*
X106645888Y-80663270D01*
X106674006Y-80712808D01*
X106677995Y-80738697D01*
X106847771Y-80738697D01*
X106835026Y-80671833D01*
X106792489Y-80577427D01*
X106731353Y-80503788D01*
X106654115Y-80453593D01*
X106563270Y-80429522D01*
X106461316Y-80434254D01*
X106461316Y-80434254D01*
G37*
X106461316Y-80434254D02*
X106418526Y-80444649D01*
X106336491Y-80482713D01*
X106266343Y-80540849D01*
X106217795Y-80610552D01*
X106211125Y-80626202D01*
X106201976Y-80667196D01*
X106195571Y-80727838D01*
X106193390Y-80789130D01*
X106193390Y-80905016D01*
X106435693Y-80905016D01*
X106535629Y-80905393D01*
X106606031Y-80907687D01*
X106650787Y-80913638D01*
X106673785Y-80924985D01*
X106678911Y-80943471D01*
X106670052Y-80970836D01*
X106654183Y-81002855D01*
X106609916Y-81056292D01*
X106548401Y-81082915D01*
X106473215Y-81082047D01*
X106388047Y-81053071D01*
X106314441Y-81017311D01*
X106253366Y-81065604D01*
X106192290Y-81113897D01*
X106249749Y-81166985D01*
X106326459Y-81217145D01*
X106420798Y-81247388D01*
X106522273Y-81255851D01*
X106620389Y-81240674D01*
X106636219Y-81235524D01*
X106722453Y-81190491D01*
X106786599Y-81123352D01*
X106830009Y-81032105D01*
X106854036Y-80914744D01*
X106854316Y-80912229D01*
X106856467Y-80784327D01*
X106847771Y-80738697D01*
X106677995Y-80738697D01*
X106662403Y-80745713D01*
X106620071Y-80751088D01*
X106557666Y-80754157D01*
X106518119Y-80754621D01*
X106444372Y-80754330D01*
X106398260Y-80752483D01*
X106374000Y-80747612D01*
X106365806Y-80738255D01*
X106367894Y-80722945D01*
X106369645Y-80717022D01*
X106399540Y-80661368D01*
X106446558Y-80616515D01*
X106488051Y-80596805D01*
X106543174Y-80597995D01*
X106599032Y-80622575D01*
X106645888Y-80663270D01*
X106674006Y-80712808D01*
X106677995Y-80738697D01*
X106847771Y-80738697D01*
X106835026Y-80671833D01*
X106792489Y-80577427D01*
X106731353Y-80503788D01*
X106654115Y-80453593D01*
X106563270Y-80429522D01*
X106461316Y-80434254D01*
G36*
X107073524Y-80444119D02*
X106976705Y-80485249D01*
X106946210Y-80505271D01*
X106907235Y-80536040D01*
X106882769Y-80560233D01*
X106878522Y-80568113D01*
X106890516Y-80585599D01*
X106921213Y-80615270D01*
X106945788Y-80635979D01*
X107013054Y-80690036D01*
X107066170Y-80645342D01*
X107107216Y-80616489D01*
X107147237Y-80606529D01*
X107193041Y-80608961D01*
X107265776Y-80627045D01*
X107315844Y-80664581D01*
X107346271Y-80725262D01*
X107360083Y-80812781D01*
X107360087Y-80812836D01*
X107358892Y-80910658D01*
X107340328Y-80982430D01*
X107303296Y-81031295D01*
X107278050Y-81047843D01*
X107211003Y-81068449D01*
X107139391Y-81068462D01*
X107077085Y-81048468D01*
X107062337Y-81038700D01*
X107025350Y-81013747D01*
X106996432Y-81009658D01*
X106965244Y-81028230D01*
X106930764Y-81061587D01*
X106876188Y-81117896D01*
X106936782Y-81167842D01*
X107030402Y-81224213D01*
X107135975Y-81251993D01*
X107246302Y-81249982D01*
X107318757Y-81231562D01*
X107403444Y-81186010D01*
X107471173Y-81114350D01*
X107501943Y-81063766D01*
X107526864Y-80991188D01*
X107539334Y-80899269D01*
X107539430Y-80799648D01*
X107527230Y-80703967D01*
X107502810Y-80623869D01*
X107498964Y-80615656D01*
X107442007Y-80535113D01*
X107364891Y-80476471D01*
X107273710Y-80440947D01*
X107174557Y-80429757D01*
X107073524Y-80444119D01*
X107073524Y-80444119D01*
G37*
X107073524Y-80444119D02*
X106976705Y-80485249D01*
X106946210Y-80505271D01*
X106907235Y-80536040D01*
X106882769Y-80560233D01*
X106878522Y-80568113D01*
X106890516Y-80585599D01*
X106921213Y-80615270D01*
X106945788Y-80635979D01*
X107013054Y-80690036D01*
X107066170Y-80645342D01*
X107107216Y-80616489D01*
X107147237Y-80606529D01*
X107193041Y-80608961D01*
X107265776Y-80627045D01*
X107315844Y-80664581D01*
X107346271Y-80725262D01*
X107360083Y-80812781D01*
X107360087Y-80812836D01*
X107358892Y-80910658D01*
X107340328Y-80982430D01*
X107303296Y-81031295D01*
X107278050Y-81047843D01*
X107211003Y-81068449D01*
X107139391Y-81068462D01*
X107077085Y-81048468D01*
X107062337Y-81038700D01*
X107025350Y-81013747D01*
X106996432Y-81009658D01*
X106965244Y-81028230D01*
X106930764Y-81061587D01*
X106876188Y-81117896D01*
X106936782Y-81167842D01*
X107030402Y-81224213D01*
X107135975Y-81251993D01*
X107246302Y-81249982D01*
X107318757Y-81231562D01*
X107403444Y-81186010D01*
X107471173Y-81114350D01*
X107501943Y-81063766D01*
X107526864Y-80991188D01*
X107539334Y-80899269D01*
X107539430Y-80799648D01*
X107527230Y-80703967D01*
X107502810Y-80623869D01*
X107498964Y-80615656D01*
X107442007Y-80535113D01*
X107364891Y-80476471D01*
X107273710Y-80440947D01*
X107174557Y-80429757D01*
X107073524Y-80444119D01*
G36*
X108699969Y-80697233D02*
X108698390Y-80819789D01*
X108692619Y-80912879D01*
X108681109Y-80980351D01*
X108662310Y-81026055D01*
X108634674Y-81053839D01*
X108596652Y-81067554D01*
X108549574Y-81071058D01*
X108500268Y-81067132D01*
X108462817Y-81052789D01*
X108435672Y-81024178D01*
X108417285Y-80977451D01*
X108406107Y-80908758D01*
X108400589Y-80814250D01*
X108399179Y-80697233D01*
X108399179Y-80437121D01*
X108215364Y-80437121D01*
X108215364Y-81239226D01*
X108307272Y-81239226D01*
X108362678Y-81236981D01*
X108391209Y-81229096D01*
X108399179Y-81214128D01*
X108403980Y-81200797D01*
X108423086Y-81203617D01*
X108461596Y-81222483D01*
X108549861Y-81251587D01*
X108643477Y-81249525D01*
X108733179Y-81217921D01*
X108775896Y-81192957D01*
X108808479Y-81165926D01*
X108832283Y-81132105D01*
X108848661Y-81086768D01*
X108858969Y-81025189D01*
X108864559Y-80942643D01*
X108866788Y-80834405D01*
X108867074Y-80750704D01*
X108867074Y-80437121D01*
X108699969Y-80437121D01*
X108699969Y-80697233D01*
X108699969Y-80697233D01*
G37*
X108699969Y-80697233D02*
X108698390Y-80819789D01*
X108692619Y-80912879D01*
X108681109Y-80980351D01*
X108662310Y-81026055D01*
X108634674Y-81053839D01*
X108596652Y-81067554D01*
X108549574Y-81071058D01*
X108500268Y-81067132D01*
X108462817Y-81052789D01*
X108435672Y-81024178D01*
X108417285Y-80977451D01*
X108406107Y-80908758D01*
X108400589Y-80814250D01*
X108399179Y-80697233D01*
X108399179Y-80437121D01*
X108215364Y-80437121D01*
X108215364Y-81239226D01*
X108307272Y-81239226D01*
X108362678Y-81236981D01*
X108391209Y-81229096D01*
X108399179Y-81214128D01*
X108403980Y-81200797D01*
X108423086Y-81203617D01*
X108461596Y-81222483D01*
X108549861Y-81251587D01*
X108643477Y-81249525D01*
X108733179Y-81217921D01*
X108775896Y-81192957D01*
X108808479Y-81165926D01*
X108832283Y-81132105D01*
X108848661Y-81086768D01*
X108858969Y-81025189D01*
X108864559Y-80942643D01*
X108866788Y-80834405D01*
X108867074Y-80750704D01*
X108867074Y-80437121D01*
X108699969Y-80437121D01*
X108699969Y-80697233D01*
G36*
X109208431Y-80447010D02*
X109123908Y-80493040D01*
X109057779Y-80565706D01*
X109026622Y-80624806D01*
X109013245Y-80677005D01*
X109004578Y-80751419D01*
X109000863Y-80837142D01*
X109002346Y-80923269D01*
X109009269Y-80998893D01*
X109017355Y-81039284D01*
X109044635Y-81094540D01*
X109091880Y-81153230D01*
X109148818Y-81204552D01*
X109205176Y-81237705D01*
X109206550Y-81238231D01*
X109276484Y-81252718D01*
X109359363Y-81253077D01*
X109438123Y-81239888D01*
X109468534Y-81229317D01*
X109546861Y-81184901D01*
X109602957Y-81126707D01*
X109639814Y-81049665D01*
X109660420Y-80948701D01*
X109665082Y-80895816D01*
X109664487Y-80829363D01*
X109485364Y-80829363D01*
X109479330Y-80926330D01*
X109461962Y-81000223D01*
X109434360Y-81047436D01*
X109414696Y-81060937D01*
X109364313Y-81070351D01*
X109304427Y-81067564D01*
X109252651Y-81054016D01*
X109239073Y-81046562D01*
X109203251Y-81003151D01*
X109179607Y-80936714D01*
X109169542Y-80855861D01*
X109174458Y-80769202D01*
X109185445Y-80717049D01*
X109216991Y-80656651D01*
X109266789Y-80618897D01*
X109326763Y-80605843D01*
X109388836Y-80619549D01*
X109436518Y-80653072D01*
X109461575Y-80680731D01*
X109476200Y-80707994D01*
X109483171Y-80744890D01*
X109485267Y-80801450D01*
X109485364Y-80829363D01*
X109664487Y-80829363D01*
X109663818Y-80754694D01*
X109640835Y-80638971D01*
X109596128Y-80548641D01*
X109529695Y-80483700D01*
X109441535Y-80444145D01*
X109422605Y-80439558D01*
X109308834Y-80428790D01*
X109208431Y-80447010D01*
X109208431Y-80447010D01*
G37*
X109208431Y-80447010D02*
X109123908Y-80493040D01*
X109057779Y-80565706D01*
X109026622Y-80624806D01*
X109013245Y-80677005D01*
X109004578Y-80751419D01*
X109000863Y-80837142D01*
X109002346Y-80923269D01*
X109009269Y-80998893D01*
X109017355Y-81039284D01*
X109044635Y-81094540D01*
X109091880Y-81153230D01*
X109148818Y-81204552D01*
X109205176Y-81237705D01*
X109206550Y-81238231D01*
X109276484Y-81252718D01*
X109359363Y-81253077D01*
X109438123Y-81239888D01*
X109468534Y-81229317D01*
X109546861Y-81184901D01*
X109602957Y-81126707D01*
X109639814Y-81049665D01*
X109660420Y-80948701D01*
X109665082Y-80895816D01*
X109664487Y-80829363D01*
X109485364Y-80829363D01*
X109479330Y-80926330D01*
X109461962Y-81000223D01*
X109434360Y-81047436D01*
X109414696Y-81060937D01*
X109364313Y-81070351D01*
X109304427Y-81067564D01*
X109252651Y-81054016D01*
X109239073Y-81046562D01*
X109203251Y-81003151D01*
X109179607Y-80936714D01*
X109169542Y-80855861D01*
X109174458Y-80769202D01*
X109185445Y-80717049D01*
X109216991Y-80656651D01*
X109266789Y-80618897D01*
X109326763Y-80605843D01*
X109388836Y-80619549D01*
X109436518Y-80653072D01*
X109461575Y-80680731D01*
X109476200Y-80707994D01*
X109483171Y-80744890D01*
X109485267Y-80801450D01*
X109485364Y-80829363D01*
X109664487Y-80829363D01*
X109663818Y-80754694D01*
X109640835Y-80638971D01*
X109596128Y-80548641D01*
X109529695Y-80483700D01*
X109441535Y-80444145D01*
X109422605Y-80439558D01*
X109308834Y-80428790D01*
X109208431Y-80447010D01*
G36*
X110001472Y-80434247D02*
X109938192Y-80446248D01*
X109872543Y-80471348D01*
X109865528Y-80474548D01*
X109815744Y-80500726D01*
X109781266Y-80525053D01*
X109770122Y-80540637D01*
X109780734Y-80566053D01*
X109806512Y-80603553D01*
X109817954Y-80617552D01*
X109865108Y-80672654D01*
X109925899Y-80636786D01*
X109983753Y-80612892D01*
X110050600Y-80600120D01*
X110114706Y-80599313D01*
X110164336Y-80611315D01*
X110176246Y-80618805D01*
X110198928Y-80653150D01*
X110201684Y-80692713D01*
X110184712Y-80723620D01*
X110174673Y-80729613D01*
X110144590Y-80737057D01*
X110091711Y-80745806D01*
X110026525Y-80754167D01*
X110014500Y-80755478D01*
X109909803Y-80773588D01*
X109833868Y-80804351D01*
X109783508Y-80850607D01*
X109755536Y-80915197D01*
X109746822Y-80994087D01*
X109758860Y-81083765D01*
X109797949Y-81154186D01*
X109864245Y-81205477D01*
X109957906Y-81237767D01*
X110061877Y-81250507D01*
X110146662Y-81250354D01*
X110215435Y-81238783D01*
X110262403Y-81222809D01*
X110321750Y-81194975D01*
X110376594Y-81162673D01*
X110396087Y-81148455D01*
X110446219Y-81107535D01*
X110325297Y-80985177D01*
X110256557Y-81030667D01*
X110187612Y-81064833D01*
X110113989Y-81082704D01*
X110043217Y-81084589D01*
X109982826Y-81070801D01*
X109940343Y-81041649D01*
X109926626Y-81017052D01*
X109928683Y-80977604D01*
X109962770Y-80947437D01*
X110028792Y-80926606D01*
X110101126Y-80916979D01*
X110212448Y-80898610D01*
X110295148Y-80863954D01*
X110350335Y-80811997D01*
X110379112Y-80741723D01*
X110383099Y-80658407D01*
X110363407Y-80571381D01*
X110318511Y-80505602D01*
X110248009Y-80460768D01*
X110151499Y-80436579D01*
X110080000Y-80431837D01*
X110001472Y-80434247D01*
X110001472Y-80434247D01*
G37*
X110001472Y-80434247D02*
X109938192Y-80446248D01*
X109872543Y-80471348D01*
X109865528Y-80474548D01*
X109815744Y-80500726D01*
X109781266Y-80525053D01*
X109770122Y-80540637D01*
X109780734Y-80566053D01*
X109806512Y-80603553D01*
X109817954Y-80617552D01*
X109865108Y-80672654D01*
X109925899Y-80636786D01*
X109983753Y-80612892D01*
X110050600Y-80600120D01*
X110114706Y-80599313D01*
X110164336Y-80611315D01*
X110176246Y-80618805D01*
X110198928Y-80653150D01*
X110201684Y-80692713D01*
X110184712Y-80723620D01*
X110174673Y-80729613D01*
X110144590Y-80737057D01*
X110091711Y-80745806D01*
X110026525Y-80754167D01*
X110014500Y-80755478D01*
X109909803Y-80773588D01*
X109833868Y-80804351D01*
X109783508Y-80850607D01*
X109755536Y-80915197D01*
X109746822Y-80994087D01*
X109758860Y-81083765D01*
X109797949Y-81154186D01*
X109864245Y-81205477D01*
X109957906Y-81237767D01*
X110061877Y-81250507D01*
X110146662Y-81250354D01*
X110215435Y-81238783D01*
X110262403Y-81222809D01*
X110321750Y-81194975D01*
X110376594Y-81162673D01*
X110396087Y-81148455D01*
X110446219Y-81107535D01*
X110325297Y-80985177D01*
X110256557Y-81030667D01*
X110187612Y-81064833D01*
X110113989Y-81082704D01*
X110043217Y-81084589D01*
X109982826Y-81070801D01*
X109940343Y-81041649D01*
X109926626Y-81017052D01*
X109928683Y-80977604D01*
X109962770Y-80947437D01*
X110028792Y-80926606D01*
X110101126Y-80916979D01*
X110212448Y-80898610D01*
X110295148Y-80863954D01*
X110350335Y-80811997D01*
X110379112Y-80741723D01*
X110383099Y-80658407D01*
X110363407Y-80571381D01*
X110318511Y-80505602D01*
X110248009Y-80460768D01*
X110151499Y-80436579D01*
X110080000Y-80431837D01*
X110001472Y-80434247D01*
G36*
X111823082Y-80455727D02*
X111806430Y-80463566D01*
X111748795Y-80505786D01*
X111694295Y-80567400D01*
X111653601Y-80635243D01*
X111642026Y-80666434D01*
X111631466Y-80722149D01*
X111625169Y-80789481D01*
X111624404Y-80817285D01*
X111624311Y-80905016D01*
X112129250Y-80905016D01*
X112118487Y-80950970D01*
X112092067Y-81005320D01*
X112045878Y-81052291D01*
X111990928Y-81082548D01*
X111955911Y-81088831D01*
X111908423Y-81081206D01*
X111851765Y-81062083D01*
X111832518Y-81053284D01*
X111761341Y-81017736D01*
X111700598Y-81064067D01*
X111665548Y-81095403D01*
X111646898Y-81121267D01*
X111645953Y-81128858D01*
X111662615Y-81147256D01*
X111699130Y-81175215D01*
X111732272Y-81197027D01*
X111821707Y-81236237D01*
X111921971Y-81253985D01*
X112021346Y-81249370D01*
X112100561Y-81225251D01*
X112182220Y-81173584D01*
X112240251Y-81105556D01*
X112276554Y-81017543D01*
X112293028Y-80905916D01*
X112294489Y-80854838D01*
X112288643Y-80737791D01*
X112287925Y-80734386D01*
X112120611Y-80734386D01*
X112116003Y-80745362D01*
X112097064Y-80751415D01*
X112058002Y-80754010D01*
X111993023Y-80754610D01*
X111968003Y-80754621D01*
X111891879Y-80753714D01*
X111843604Y-80750420D01*
X111817640Y-80743881D01*
X111808452Y-80733237D01*
X111808127Y-80729819D01*
X111818613Y-80702656D01*
X111844858Y-80664603D01*
X111856141Y-80651279D01*
X111898028Y-80613596D01*
X111941691Y-80598780D01*
X111965215Y-80597542D01*
X112028857Y-80613029D01*
X112082227Y-80654630D01*
X112116081Y-80715053D01*
X112116681Y-80717022D01*
X112120611Y-80734386D01*
X112287925Y-80734386D01*
X112269201Y-80645628D01*
X112234178Y-80571890D01*
X112191344Y-80519548D01*
X112112152Y-80462792D01*
X112019060Y-80432462D01*
X111920045Y-80429721D01*
X111823082Y-80455727D01*
X111823082Y-80455727D01*
G37*
X111823082Y-80455727D02*
X111806430Y-80463566D01*
X111748795Y-80505786D01*
X111694295Y-80567400D01*
X111653601Y-80635243D01*
X111642026Y-80666434D01*
X111631466Y-80722149D01*
X111625169Y-80789481D01*
X111624404Y-80817285D01*
X111624311Y-80905016D01*
X112129250Y-80905016D01*
X112118487Y-80950970D01*
X112092067Y-81005320D01*
X112045878Y-81052291D01*
X111990928Y-81082548D01*
X111955911Y-81088831D01*
X111908423Y-81081206D01*
X111851765Y-81062083D01*
X111832518Y-81053284D01*
X111761341Y-81017736D01*
X111700598Y-81064067D01*
X111665548Y-81095403D01*
X111646898Y-81121267D01*
X111645953Y-81128858D01*
X111662615Y-81147256D01*
X111699130Y-81175215D01*
X111732272Y-81197027D01*
X111821707Y-81236237D01*
X111921971Y-81253985D01*
X112021346Y-81249370D01*
X112100561Y-81225251D01*
X112182220Y-81173584D01*
X112240251Y-81105556D01*
X112276554Y-81017543D01*
X112293028Y-80905916D01*
X112294489Y-80854838D01*
X112288643Y-80737791D01*
X112287925Y-80734386D01*
X112120611Y-80734386D01*
X112116003Y-80745362D01*
X112097064Y-80751415D01*
X112058002Y-80754010D01*
X111993023Y-80754610D01*
X111968003Y-80754621D01*
X111891879Y-80753714D01*
X111843604Y-80750420D01*
X111817640Y-80743881D01*
X111808452Y-80733237D01*
X111808127Y-80729819D01*
X111818613Y-80702656D01*
X111844858Y-80664603D01*
X111856141Y-80651279D01*
X111898028Y-80613596D01*
X111941691Y-80598780D01*
X111965215Y-80597542D01*
X112028857Y-80613029D01*
X112082227Y-80654630D01*
X112116081Y-80715053D01*
X112116681Y-80717022D01*
X112120611Y-80734386D01*
X112287925Y-80734386D01*
X112269201Y-80645628D01*
X112234178Y-80571890D01*
X112191344Y-80519548D01*
X112112152Y-80462792D01*
X112019060Y-80432462D01*
X111920045Y-80429721D01*
X111823082Y-80455727D01*
G36*
X113393316Y-80445804D02*
X113305895Y-80484454D01*
X113239530Y-80548990D01*
X113194124Y-80639512D01*
X113169582Y-80756118D01*
X113167823Y-80774324D01*
X113166444Y-80902684D01*
X113184316Y-81015196D01*
X113220350Y-81106388D01*
X113239645Y-81135722D01*
X113306855Y-81197806D01*
X113392450Y-81238016D01*
X113488210Y-81254703D01*
X113585913Y-81246217D01*
X113660183Y-81220080D01*
X113724053Y-81176035D01*
X113776254Y-81118287D01*
X113777157Y-81116936D01*
X113798356Y-81081293D01*
X113812133Y-81045452D01*
X113820476Y-81000219D01*
X113825373Y-80936401D01*
X113827531Y-80884068D01*
X113828429Y-80836610D01*
X113661357Y-80836610D01*
X113659724Y-80883854D01*
X113653796Y-80946746D01*
X113643339Y-80987107D01*
X113624481Y-81015822D01*
X113606819Y-81032596D01*
X113544206Y-81067716D01*
X113478692Y-81072410D01*
X113417679Y-81047140D01*
X113387172Y-81018824D01*
X113365189Y-80990289D01*
X113352331Y-80962984D01*
X113346688Y-80927450D01*
X113346349Y-80874224D01*
X113348088Y-80825206D01*
X113351829Y-80755182D01*
X113357759Y-80709764D01*
X113368447Y-80680140D01*
X113386461Y-80657497D01*
X113400737Y-80644555D01*
X113460449Y-80610560D01*
X113524866Y-80608865D01*
X113578881Y-80629001D01*
X113624960Y-80671052D01*
X113652411Y-80740128D01*
X113661357Y-80836610D01*
X113828429Y-80836610D01*
X113829501Y-80779999D01*
X113826136Y-80702168D01*
X113816055Y-80643630D01*
X113797874Y-80597437D01*
X113770210Y-80556642D01*
X113759954Y-80544528D01*
X113695822Y-80484174D01*
X113627034Y-80448920D01*
X113542911Y-80434150D01*
X113501891Y-80432943D01*
X113393316Y-80445804D01*
X113393316Y-80445804D01*
G37*
X113393316Y-80445804D02*
X113305895Y-80484454D01*
X113239530Y-80548990D01*
X113194124Y-80639512D01*
X113169582Y-80756118D01*
X113167823Y-80774324D01*
X113166444Y-80902684D01*
X113184316Y-81015196D01*
X113220350Y-81106388D01*
X113239645Y-81135722D01*
X113306855Y-81197806D01*
X113392450Y-81238016D01*
X113488210Y-81254703D01*
X113585913Y-81246217D01*
X113660183Y-81220080D01*
X113724053Y-81176035D01*
X113776254Y-81118287D01*
X113777157Y-81116936D01*
X113798356Y-81081293D01*
X113812133Y-81045452D01*
X113820476Y-81000219D01*
X113825373Y-80936401D01*
X113827531Y-80884068D01*
X113828429Y-80836610D01*
X113661357Y-80836610D01*
X113659724Y-80883854D01*
X113653796Y-80946746D01*
X113643339Y-80987107D01*
X113624481Y-81015822D01*
X113606819Y-81032596D01*
X113544206Y-81067716D01*
X113478692Y-81072410D01*
X113417679Y-81047140D01*
X113387172Y-81018824D01*
X113365189Y-80990289D01*
X113352331Y-80962984D01*
X113346688Y-80927450D01*
X113346349Y-80874224D01*
X113348088Y-80825206D01*
X113351829Y-80755182D01*
X113357759Y-80709764D01*
X113368447Y-80680140D01*
X113386461Y-80657497D01*
X113400737Y-80644555D01*
X113460449Y-80610560D01*
X113524866Y-80608865D01*
X113578881Y-80629001D01*
X113624960Y-80671052D01*
X113652411Y-80740128D01*
X113661357Y-80836610D01*
X113828429Y-80836610D01*
X113829501Y-80779999D01*
X113826136Y-80702168D01*
X113816055Y-80643630D01*
X113797874Y-80597437D01*
X113770210Y-80556642D01*
X113759954Y-80544528D01*
X113695822Y-80484174D01*
X113627034Y-80448920D01*
X113542911Y-80434150D01*
X113501891Y-80432943D01*
X113393316Y-80445804D01*
G36*
X107318907Y-81694778D02*
X107239032Y-81715545D01*
X107172138Y-81758405D01*
X107139749Y-81790423D01*
X107086655Y-81866113D01*
X107056227Y-81953916D01*
X107045773Y-82061850D01*
X107045720Y-82070575D01*
X107045627Y-82158305D01*
X107550566Y-82158305D01*
X107539802Y-82204259D01*
X107520368Y-82245878D01*
X107486355Y-82289244D01*
X107479240Y-82296167D01*
X107418097Y-82333635D01*
X107348371Y-82339989D01*
X107268113Y-82315338D01*
X107254508Y-82308700D01*
X107212781Y-82288519D01*
X107184832Y-82277021D01*
X107179955Y-82275958D01*
X107162932Y-82286283D01*
X107130467Y-82311545D01*
X107113986Y-82325350D01*
X107079836Y-82357061D01*
X107068622Y-82377999D01*
X107076405Y-82397260D01*
X107080565Y-82402527D01*
X107108743Y-82425578D01*
X107155238Y-82453592D01*
X107187666Y-82469946D01*
X107279715Y-82498759D01*
X107381624Y-82508095D01*
X107478137Y-82497032D01*
X107505166Y-82489112D01*
X107588824Y-82444281D01*
X107650834Y-82375298D01*
X107691555Y-82281494D01*
X107711345Y-82162198D01*
X107713518Y-82099818D01*
X107707174Y-82008998D01*
X107546943Y-82008998D01*
X107531445Y-82015712D01*
X107489788Y-82020980D01*
X107429224Y-82024089D01*
X107388193Y-82024621D01*
X107314389Y-82024108D01*
X107267807Y-82021706D01*
X107242252Y-82016122D01*
X107231531Y-82006061D01*
X107229443Y-81991463D01*
X107243769Y-81946496D01*
X107279838Y-81902053D01*
X107327285Y-81867942D01*
X107374751Y-81853988D01*
X107439221Y-81866366D01*
X107495030Y-81902152D01*
X107533726Y-81953733D01*
X107546943Y-82008998D01*
X107707174Y-82008998D01*
X107704279Y-81967566D01*
X107675764Y-81862198D01*
X107627371Y-81782878D01*
X107558496Y-81728771D01*
X107468535Y-81699043D01*
X107419800Y-81693318D01*
X107318907Y-81694778D01*
X107318907Y-81694778D01*
G37*
X107318907Y-81694778D02*
X107239032Y-81715545D01*
X107172138Y-81758405D01*
X107139749Y-81790423D01*
X107086655Y-81866113D01*
X107056227Y-81953916D01*
X107045773Y-82061850D01*
X107045720Y-82070575D01*
X107045627Y-82158305D01*
X107550566Y-82158305D01*
X107539802Y-82204259D01*
X107520368Y-82245878D01*
X107486355Y-82289244D01*
X107479240Y-82296167D01*
X107418097Y-82333635D01*
X107348371Y-82339989D01*
X107268113Y-82315338D01*
X107254508Y-82308700D01*
X107212781Y-82288519D01*
X107184832Y-82277021D01*
X107179955Y-82275958D01*
X107162932Y-82286283D01*
X107130467Y-82311545D01*
X107113986Y-82325350D01*
X107079836Y-82357061D01*
X107068622Y-82377999D01*
X107076405Y-82397260D01*
X107080565Y-82402527D01*
X107108743Y-82425578D01*
X107155238Y-82453592D01*
X107187666Y-82469946D01*
X107279715Y-82498759D01*
X107381624Y-82508095D01*
X107478137Y-82497032D01*
X107505166Y-82489112D01*
X107588824Y-82444281D01*
X107650834Y-82375298D01*
X107691555Y-82281494D01*
X107711345Y-82162198D01*
X107713518Y-82099818D01*
X107707174Y-82008998D01*
X107546943Y-82008998D01*
X107531445Y-82015712D01*
X107489788Y-82020980D01*
X107429224Y-82024089D01*
X107388193Y-82024621D01*
X107314389Y-82024108D01*
X107267807Y-82021706D01*
X107242252Y-82016122D01*
X107231531Y-82006061D01*
X107229443Y-81991463D01*
X107243769Y-81946496D01*
X107279838Y-81902053D01*
X107327285Y-81867942D01*
X107374751Y-81853988D01*
X107439221Y-81866366D01*
X107495030Y-81902152D01*
X107533726Y-81953733D01*
X107546943Y-82008998D01*
X107707174Y-82008998D01*
X107704279Y-81967566D01*
X107675764Y-81862198D01*
X107627371Y-81782878D01*
X107558496Y-81728771D01*
X107468535Y-81699043D01*
X107419800Y-81693318D01*
X107318907Y-81694778D01*
G36*
X107846933Y-81690147D02*
X107782692Y-81702812D01*
X107746120Y-81721564D01*
X107707647Y-81752717D01*
X107762383Y-81821827D01*
X107796131Y-81863679D01*
X107819047Y-81884098D01*
X107841821Y-81887217D01*
X107875144Y-81877172D01*
X107890786Y-81871489D01*
X107954558Y-81863104D01*
X108012960Y-81881078D01*
X108055836Y-81921682D01*
X108062801Y-81934629D01*
X108070387Y-81968924D01*
X108076241Y-82032127D01*
X108080089Y-82119760D01*
X108081657Y-82227340D01*
X108081679Y-82242644D01*
X108081679Y-82509226D01*
X108265495Y-82509226D01*
X108265495Y-81690410D01*
X108173587Y-81690410D01*
X108120593Y-81691794D01*
X108092985Y-81697952D01*
X108082776Y-81711894D01*
X108081679Y-81725044D01*
X108081679Y-81759678D01*
X108037650Y-81725044D01*
X107987163Y-81701416D01*
X107919340Y-81689733D01*
X107846933Y-81690147D01*
X107846933Y-81690147D01*
G37*
X107846933Y-81690147D02*
X107782692Y-81702812D01*
X107746120Y-81721564D01*
X107707647Y-81752717D01*
X107762383Y-81821827D01*
X107796131Y-81863679D01*
X107819047Y-81884098D01*
X107841821Y-81887217D01*
X107875144Y-81877172D01*
X107890786Y-81871489D01*
X107954558Y-81863104D01*
X108012960Y-81881078D01*
X108055836Y-81921682D01*
X108062801Y-81934629D01*
X108070387Y-81968924D01*
X108076241Y-82032127D01*
X108080089Y-82119760D01*
X108081657Y-82227340D01*
X108081679Y-82242644D01*
X108081679Y-82509226D01*
X108265495Y-82509226D01*
X108265495Y-81690410D01*
X108173587Y-81690410D01*
X108120593Y-81691794D01*
X108092985Y-81697952D01*
X108082776Y-81711894D01*
X108081679Y-81725044D01*
X108081679Y-81759678D01*
X108037650Y-81725044D01*
X107987163Y-81701416D01*
X107919340Y-81689733D01*
X107846933Y-81690147D01*
G36*
X108640108Y-81695373D02*
X108569673Y-81712480D01*
X108549313Y-81721544D01*
X108509847Y-81745283D01*
X108479559Y-81772021D01*
X108457148Y-81806399D01*
X108441314Y-81853060D01*
X108430757Y-81916646D01*
X108424176Y-82001799D01*
X108420272Y-82113162D01*
X108418790Y-82187549D01*
X108413335Y-82509226D01*
X108506520Y-82509226D01*
X108563053Y-82506856D01*
X108592178Y-82498755D01*
X108599706Y-82485151D01*
X108603680Y-82470441D01*
X108621448Y-82473254D01*
X108645660Y-82485048D01*
X108706272Y-82503127D01*
X108784171Y-82507999D01*
X108866105Y-82500030D01*
X108938819Y-82479589D01*
X108945341Y-82476751D01*
X109011798Y-82430065D01*
X109055609Y-82365164D01*
X109075768Y-82289300D01*
X109074228Y-82262044D01*
X108909755Y-82262044D01*
X108895263Y-82298724D01*
X108852295Y-82325009D01*
X108782971Y-82339117D01*
X108745923Y-82340990D01*
X108684181Y-82336194D01*
X108643140Y-82317558D01*
X108633127Y-82308700D01*
X108606000Y-82260506D01*
X108599706Y-82216792D01*
X108599706Y-82158305D01*
X108681170Y-82158305D01*
X108775866Y-82163132D01*
X108842287Y-82178313D01*
X108884254Y-82204900D01*
X108893651Y-82216752D01*
X108909755Y-82262044D01*
X109074228Y-82262044D01*
X109071271Y-82209726D01*
X109041115Y-82133695D01*
X108999969Y-82082312D01*
X108975048Y-82060097D01*
X108950652Y-82045498D01*
X108918909Y-82036597D01*
X108871948Y-82031475D01*
X108801896Y-82028215D01*
X108774110Y-82027277D01*
X108599706Y-82021579D01*
X108599962Y-81968791D01*
X108606716Y-81913303D01*
X108631136Y-81879752D01*
X108680470Y-81858318D01*
X108681794Y-81857936D01*
X108751740Y-81849508D01*
X108820186Y-81860516D01*
X108871053Y-81887285D01*
X108891463Y-81900503D01*
X108913446Y-81898674D01*
X108947274Y-81879524D01*
X108967139Y-81866008D01*
X109005994Y-81837132D01*
X109030062Y-81815486D01*
X109033924Y-81809289D01*
X109018021Y-81777219D01*
X108971035Y-81738919D01*
X108950627Y-81725997D01*
X108891957Y-81703741D01*
X108812888Y-81691132D01*
X108725059Y-81688300D01*
X108640108Y-81695373D01*
X108640108Y-81695373D01*
G37*
X108640108Y-81695373D02*
X108569673Y-81712480D01*
X108549313Y-81721544D01*
X108509847Y-81745283D01*
X108479559Y-81772021D01*
X108457148Y-81806399D01*
X108441314Y-81853060D01*
X108430757Y-81916646D01*
X108424176Y-82001799D01*
X108420272Y-82113162D01*
X108418790Y-82187549D01*
X108413335Y-82509226D01*
X108506520Y-82509226D01*
X108563053Y-82506856D01*
X108592178Y-82498755D01*
X108599706Y-82485151D01*
X108603680Y-82470441D01*
X108621448Y-82473254D01*
X108645660Y-82485048D01*
X108706272Y-82503127D01*
X108784171Y-82507999D01*
X108866105Y-82500030D01*
X108938819Y-82479589D01*
X108945341Y-82476751D01*
X109011798Y-82430065D01*
X109055609Y-82365164D01*
X109075768Y-82289300D01*
X109074228Y-82262044D01*
X108909755Y-82262044D01*
X108895263Y-82298724D01*
X108852295Y-82325009D01*
X108782971Y-82339117D01*
X108745923Y-82340990D01*
X108684181Y-82336194D01*
X108643140Y-82317558D01*
X108633127Y-82308700D01*
X108606000Y-82260506D01*
X108599706Y-82216792D01*
X108599706Y-82158305D01*
X108681170Y-82158305D01*
X108775866Y-82163132D01*
X108842287Y-82178313D01*
X108884254Y-82204900D01*
X108893651Y-82216752D01*
X108909755Y-82262044D01*
X109074228Y-82262044D01*
X109071271Y-82209726D01*
X109041115Y-82133695D01*
X108999969Y-82082312D01*
X108975048Y-82060097D01*
X108950652Y-82045498D01*
X108918909Y-82036597D01*
X108871948Y-82031475D01*
X108801896Y-82028215D01*
X108774110Y-82027277D01*
X108599706Y-82021579D01*
X108599962Y-81968791D01*
X108606716Y-81913303D01*
X108631136Y-81879752D01*
X108680470Y-81858318D01*
X108681794Y-81857936D01*
X108751740Y-81849508D01*
X108820186Y-81860516D01*
X108871053Y-81887285D01*
X108891463Y-81900503D01*
X108913446Y-81898674D01*
X108947274Y-81879524D01*
X108967139Y-81866008D01*
X109005994Y-81837132D01*
X109030062Y-81815486D01*
X109033924Y-81809289D01*
X109018021Y-81777219D01*
X108971035Y-81738919D01*
X108950627Y-81725997D01*
X108891957Y-81703741D01*
X108812888Y-81691132D01*
X108725059Y-81688300D01*
X108640108Y-81695373D01*
G36*
X109645970Y-81693804D02*
X109579880Y-81698766D01*
X109493474Y-81957779D01*
X109407069Y-82216792D01*
X109379976Y-82124884D01*
X109363672Y-82068084D01*
X109342225Y-81991325D01*
X109319065Y-81906951D01*
X109306820Y-81861693D01*
X109260756Y-81690410D01*
X109070713Y-81690410D01*
X109127518Y-81870049D01*
X109155493Y-81958404D01*
X109189287Y-82064981D01*
X109224580Y-82176154D01*
X109256087Y-82275279D01*
X109327850Y-82500871D01*
X109482814Y-82510953D01*
X109524830Y-82372228D01*
X109550741Y-82286051D01*
X109579017Y-82191047D01*
X109603731Y-82107141D01*
X109604706Y-82103802D01*
X109623165Y-82046948D01*
X109639451Y-82008156D01*
X109650858Y-81993487D01*
X109653202Y-81995183D01*
X109661429Y-82017925D01*
X109677062Y-82066640D01*
X109698196Y-82135202D01*
X109722930Y-82217485D01*
X109736313Y-82262746D01*
X109808789Y-82509226D01*
X109962605Y-82509226D01*
X110085569Y-82120706D01*
X110120112Y-82011722D01*
X110151579Y-81912748D01*
X110178484Y-81828436D01*
X110199341Y-81763434D01*
X110212662Y-81722392D01*
X110216712Y-81710401D01*
X110213506Y-81698123D01*
X110188335Y-81692746D01*
X110135954Y-81693284D01*
X110127755Y-81693690D01*
X110030618Y-81698766D01*
X109967000Y-81932713D01*
X109943616Y-82018033D01*
X109922719Y-82093035D01*
X109906149Y-82151207D01*
X109895746Y-82186037D01*
X109893824Y-82191716D01*
X109885859Y-82185186D01*
X109869796Y-82151354D01*
X109847479Y-82094827D01*
X109820755Y-82020210D01*
X109798163Y-81952807D01*
X109712059Y-81688843D01*
X109645970Y-81693804D01*
X109645970Y-81693804D01*
G37*
X109645970Y-81693804D02*
X109579880Y-81698766D01*
X109493474Y-81957779D01*
X109407069Y-82216792D01*
X109379976Y-82124884D01*
X109363672Y-82068084D01*
X109342225Y-81991325D01*
X109319065Y-81906951D01*
X109306820Y-81861693D01*
X109260756Y-81690410D01*
X109070713Y-81690410D01*
X109127518Y-81870049D01*
X109155493Y-81958404D01*
X109189287Y-82064981D01*
X109224580Y-82176154D01*
X109256087Y-82275279D01*
X109327850Y-82500871D01*
X109482814Y-82510953D01*
X109524830Y-82372228D01*
X109550741Y-82286051D01*
X109579017Y-82191047D01*
X109603731Y-82107141D01*
X109604706Y-82103802D01*
X109623165Y-82046948D01*
X109639451Y-82008156D01*
X109650858Y-81993487D01*
X109653202Y-81995183D01*
X109661429Y-82017925D01*
X109677062Y-82066640D01*
X109698196Y-82135202D01*
X109722930Y-82217485D01*
X109736313Y-82262746D01*
X109808789Y-82509226D01*
X109962605Y-82509226D01*
X110085569Y-82120706D01*
X110120112Y-82011722D01*
X110151579Y-81912748D01*
X110178484Y-81828436D01*
X110199341Y-81763434D01*
X110212662Y-81722392D01*
X110216712Y-81710401D01*
X110213506Y-81698123D01*
X110188335Y-81692746D01*
X110135954Y-81693284D01*
X110127755Y-81693690D01*
X110030618Y-81698766D01*
X109967000Y-81932713D01*
X109943616Y-82018033D01*
X109922719Y-82093035D01*
X109906149Y-82151207D01*
X109895746Y-82186037D01*
X109893824Y-82191716D01*
X109885859Y-82185186D01*
X109869796Y-82151354D01*
X109847479Y-82094827D01*
X109820755Y-82020210D01*
X109798163Y-81952807D01*
X109712059Y-81688843D01*
X109645970Y-81693804D01*
G36*
X110287469Y-82509226D02*
X110379377Y-82509226D01*
X110432723Y-82507662D01*
X110460507Y-82501185D01*
X110470510Y-82487118D01*
X110471285Y-82477606D01*
X110472972Y-82458532D01*
X110483610Y-82454874D01*
X110511565Y-82466632D01*
X110533305Y-82477606D01*
X110616768Y-82503611D01*
X110707496Y-82505116D01*
X110781258Y-82485721D01*
X110849946Y-82438865D01*
X110902306Y-82369704D01*
X110930978Y-82288127D01*
X110931708Y-82283566D01*
X110935968Y-82233801D01*
X110938086Y-82162359D01*
X110937916Y-82108326D01*
X110755380Y-82108326D01*
X110751151Y-82180141D01*
X110741532Y-82239334D01*
X110728510Y-82272760D01*
X110679244Y-82318440D01*
X110620750Y-82334815D01*
X110560429Y-82321573D01*
X110508883Y-82282073D01*
X110489362Y-82255507D01*
X110477948Y-82223806D01*
X110472602Y-82177532D01*
X110471285Y-82108028D01*
X110473642Y-82039199D01*
X110479867Y-81978726D01*
X110488692Y-81938256D01*
X110490163Y-81934629D01*
X110525753Y-81891502D01*
X110577700Y-81867824D01*
X110635822Y-81864001D01*
X110689940Y-81880438D01*
X110729874Y-81917540D01*
X110734017Y-81924922D01*
X110746984Y-81969939D01*
X110754048Y-82034667D01*
X110755380Y-82108326D01*
X110937916Y-82108326D01*
X110937829Y-82080930D01*
X110936628Y-82037105D01*
X110928455Y-81928688D01*
X110911470Y-81847288D01*
X110883213Y-81787112D01*
X110841228Y-81742366D01*
X110800468Y-81716100D01*
X110743519Y-81697635D01*
X110672689Y-81691302D01*
X110600159Y-81696460D01*
X110538114Y-81712469D01*
X110505332Y-81731620D01*
X110471285Y-81762432D01*
X110471285Y-81372910D01*
X110287469Y-81372910D01*
X110287469Y-82509226D01*
X110287469Y-82509226D01*
G37*
X110287469Y-82509226D02*
X110379377Y-82509226D01*
X110432723Y-82507662D01*
X110460507Y-82501185D01*
X110470510Y-82487118D01*
X110471285Y-82477606D01*
X110472972Y-82458532D01*
X110483610Y-82454874D01*
X110511565Y-82466632D01*
X110533305Y-82477606D01*
X110616768Y-82503611D01*
X110707496Y-82505116D01*
X110781258Y-82485721D01*
X110849946Y-82438865D01*
X110902306Y-82369704D01*
X110930978Y-82288127D01*
X110931708Y-82283566D01*
X110935968Y-82233801D01*
X110938086Y-82162359D01*
X110937916Y-82108326D01*
X110755380Y-82108326D01*
X110751151Y-82180141D01*
X110741532Y-82239334D01*
X110728510Y-82272760D01*
X110679244Y-82318440D01*
X110620750Y-82334815D01*
X110560429Y-82321573D01*
X110508883Y-82282073D01*
X110489362Y-82255507D01*
X110477948Y-82223806D01*
X110472602Y-82177532D01*
X110471285Y-82108028D01*
X110473642Y-82039199D01*
X110479867Y-81978726D01*
X110488692Y-81938256D01*
X110490163Y-81934629D01*
X110525753Y-81891502D01*
X110577700Y-81867824D01*
X110635822Y-81864001D01*
X110689940Y-81880438D01*
X110729874Y-81917540D01*
X110734017Y-81924922D01*
X110746984Y-81969939D01*
X110754048Y-82034667D01*
X110755380Y-82108326D01*
X110937916Y-82108326D01*
X110937829Y-82080930D01*
X110936628Y-82037105D01*
X110928455Y-81928688D01*
X110911470Y-81847288D01*
X110883213Y-81787112D01*
X110841228Y-81742366D01*
X110800468Y-81716100D01*
X110743519Y-81697635D01*
X110672689Y-81691302D01*
X110600159Y-81696460D01*
X110538114Y-81712469D01*
X110505332Y-81731620D01*
X110471285Y-81762432D01*
X110471285Y-81372910D01*
X110287469Y-81372910D01*
X110287469Y-82509226D01*
G36*
X111340219Y-81692186D02*
X111315212Y-81699682D01*
X111307150Y-81716151D01*
X111306811Y-81723586D01*
X111305364Y-81744294D01*
X111295402Y-81747545D01*
X111268488Y-81733348D01*
X111252502Y-81723648D01*
X111202067Y-81702875D01*
X111141828Y-81692604D01*
X111078666Y-81691814D01*
X111019463Y-81699486D01*
X110971098Y-81714598D01*
X110940454Y-81736132D01*
X110934411Y-81763066D01*
X110937461Y-81770360D01*
X110959694Y-81800637D01*
X110994170Y-81837875D01*
X111000406Y-81843895D01*
X111033267Y-81871575D01*
X111061620Y-81880518D01*
X111101273Y-81874276D01*
X111117158Y-81870129D01*
X111166591Y-81860167D01*
X111201348Y-81864647D01*
X111230700Y-81880446D01*
X111257587Y-81901649D01*
X111277390Y-81928314D01*
X111291152Y-81965527D01*
X111299916Y-82018373D01*
X111304726Y-82091937D01*
X111306626Y-82191305D01*
X111306811Y-82251301D01*
X111306811Y-82509226D01*
X111473916Y-82509226D01*
X111473916Y-81690410D01*
X111390364Y-81690410D01*
X111340219Y-81692186D01*
X111340219Y-81692186D01*
G37*
X111340219Y-81692186D02*
X111315212Y-81699682D01*
X111307150Y-81716151D01*
X111306811Y-81723586D01*
X111305364Y-81744294D01*
X111295402Y-81747545D01*
X111268488Y-81733348D01*
X111252502Y-81723648D01*
X111202067Y-81702875D01*
X111141828Y-81692604D01*
X111078666Y-81691814D01*
X111019463Y-81699486D01*
X110971098Y-81714598D01*
X110940454Y-81736132D01*
X110934411Y-81763066D01*
X110937461Y-81770360D01*
X110959694Y-81800637D01*
X110994170Y-81837875D01*
X111000406Y-81843895D01*
X111033267Y-81871575D01*
X111061620Y-81880518D01*
X111101273Y-81874276D01*
X111117158Y-81870129D01*
X111166591Y-81860167D01*
X111201348Y-81864647D01*
X111230700Y-81880446D01*
X111257587Y-81901649D01*
X111277390Y-81928314D01*
X111291152Y-81965527D01*
X111299916Y-82018373D01*
X111304726Y-82091937D01*
X111306626Y-82191305D01*
X111306811Y-82251301D01*
X111306811Y-82509226D01*
X111473916Y-82509226D01*
X111473916Y-81690410D01*
X111390364Y-81690410D01*
X111340219Y-81692186D01*
G36*
X111859643Y-81696884D02*
X111781030Y-81717860D01*
X111721184Y-81755880D01*
X111678953Y-81805678D01*
X111665825Y-81826930D01*
X111656132Y-81849192D01*
X111649356Y-81877670D01*
X111644977Y-81917571D01*
X111642476Y-81974101D01*
X111641332Y-82052467D01*
X111641028Y-82157876D01*
X111641022Y-82185842D01*
X111641022Y-82509226D01*
X111721232Y-82509226D01*
X111772394Y-82505643D01*
X111810223Y-82496566D01*
X111819701Y-82490968D01*
X111845612Y-82481306D01*
X111872076Y-82490968D01*
X111915648Y-82503030D01*
X111978940Y-82507885D01*
X112049090Y-82505778D01*
X112113240Y-82496956D01*
X112150693Y-82485637D01*
X112223167Y-82439112D01*
X112268460Y-82374546D01*
X112288822Y-82288700D01*
X112289012Y-82286496D01*
X112287225Y-82248413D01*
X112125627Y-82248413D01*
X112111499Y-82291730D01*
X112088488Y-82316108D01*
X112042296Y-82334545D01*
X111981325Y-82341905D01*
X111919151Y-82338283D01*
X111869349Y-82323774D01*
X111855397Y-82314465D01*
X111831015Y-82271453D01*
X111824837Y-82222557D01*
X111824837Y-82158305D01*
X111917282Y-82158305D01*
X112005105Y-82165066D01*
X112071682Y-82184220D01*
X112113098Y-82214076D01*
X112125627Y-82248413D01*
X112287225Y-82248413D01*
X112284610Y-82192704D01*
X112253676Y-82118547D01*
X112195519Y-82062467D01*
X112187480Y-82057365D01*
X112152937Y-82040755D01*
X112110182Y-82030696D01*
X112050414Y-82025807D01*
X111979410Y-82024683D01*
X111824837Y-82024621D01*
X111824837Y-81959825D01*
X111831394Y-81909550D01*
X111848125Y-81875869D01*
X111850084Y-81874076D01*
X111887317Y-81859342D01*
X111943520Y-81853631D01*
X112005633Y-81856437D01*
X112060590Y-81867256D01*
X112093201Y-81883482D01*
X112110872Y-81896480D01*
X112129531Y-81898962D01*
X112155281Y-81888313D01*
X112194227Y-81861918D01*
X112252470Y-81817165D01*
X112257816Y-81812973D01*
X112255077Y-81797460D01*
X112232224Y-81771660D01*
X112197491Y-81742989D01*
X112159110Y-81718866D01*
X112147052Y-81713170D01*
X112103066Y-81701803D01*
X112038613Y-81693695D01*
X111966603Y-81690443D01*
X111963236Y-81690436D01*
X111859643Y-81696884D01*
X111859643Y-81696884D01*
G37*
X111859643Y-81696884D02*
X111781030Y-81717860D01*
X111721184Y-81755880D01*
X111678953Y-81805678D01*
X111665825Y-81826930D01*
X111656132Y-81849192D01*
X111649356Y-81877670D01*
X111644977Y-81917571D01*
X111642476Y-81974101D01*
X111641332Y-82052467D01*
X111641028Y-82157876D01*
X111641022Y-82185842D01*
X111641022Y-82509226D01*
X111721232Y-82509226D01*
X111772394Y-82505643D01*
X111810223Y-82496566D01*
X111819701Y-82490968D01*
X111845612Y-82481306D01*
X111872076Y-82490968D01*
X111915648Y-82503030D01*
X111978940Y-82507885D01*
X112049090Y-82505778D01*
X112113240Y-82496956D01*
X112150693Y-82485637D01*
X112223167Y-82439112D01*
X112268460Y-82374546D01*
X112288822Y-82288700D01*
X112289012Y-82286496D01*
X112287225Y-82248413D01*
X112125627Y-82248413D01*
X112111499Y-82291730D01*
X112088488Y-82316108D01*
X112042296Y-82334545D01*
X111981325Y-82341905D01*
X111919151Y-82338283D01*
X111869349Y-82323774D01*
X111855397Y-82314465D01*
X111831015Y-82271453D01*
X111824837Y-82222557D01*
X111824837Y-82158305D01*
X111917282Y-82158305D01*
X112005105Y-82165066D01*
X112071682Y-82184220D01*
X112113098Y-82214076D01*
X112125627Y-82248413D01*
X112287225Y-82248413D01*
X112284610Y-82192704D01*
X112253676Y-82118547D01*
X112195519Y-82062467D01*
X112187480Y-82057365D01*
X112152937Y-82040755D01*
X112110182Y-82030696D01*
X112050414Y-82025807D01*
X111979410Y-82024683D01*
X111824837Y-82024621D01*
X111824837Y-81959825D01*
X111831394Y-81909550D01*
X111848125Y-81875869D01*
X111850084Y-81874076D01*
X111887317Y-81859342D01*
X111943520Y-81853631D01*
X112005633Y-81856437D01*
X112060590Y-81867256D01*
X112093201Y-81883482D01*
X112110872Y-81896480D01*
X112129531Y-81898962D01*
X112155281Y-81888313D01*
X112194227Y-81861918D01*
X112252470Y-81817165D01*
X112257816Y-81812973D01*
X112255077Y-81797460D01*
X112232224Y-81771660D01*
X112197491Y-81742989D01*
X112159110Y-81718866D01*
X112147052Y-81713170D01*
X112103066Y-81701803D01*
X112038613Y-81693695D01*
X111966603Y-81690443D01*
X111963236Y-81690436D01*
X111859643Y-81696884D01*
G36*
X112556740Y-80451168D02*
X112521508Y-80468574D01*
X112478060Y-80498906D01*
X112446394Y-80531983D01*
X112424706Y-80573517D01*
X112411197Y-80629222D01*
X112404062Y-80704811D01*
X112401500Y-80805996D01*
X112401350Y-80849497D01*
X112401788Y-80944835D01*
X112403604Y-81012971D01*
X112407555Y-81060118D01*
X112414398Y-81092490D01*
X112424889Y-81116300D01*
X112435804Y-81132543D01*
X112505481Y-81201652D01*
X112587534Y-81243221D01*
X112676050Y-81255723D01*
X112765119Y-81237634D01*
X112793337Y-81224842D01*
X112860890Y-81189631D01*
X112860890Y-81741400D01*
X112811588Y-81715905D01*
X112746627Y-81696180D01*
X112666780Y-81691127D01*
X112587048Y-81700456D01*
X112526835Y-81721414D01*
X112476892Y-81761327D01*
X112434219Y-81818441D01*
X112431010Y-81824305D01*
X112417478Y-81851927D01*
X112407595Y-81879768D01*
X112400791Y-81913494D01*
X112396499Y-81958771D01*
X112394149Y-82021262D01*
X112393172Y-82106635D01*
X112392995Y-82202710D01*
X112392995Y-82509226D01*
X112576811Y-82509226D01*
X112576811Y-81944039D01*
X112628225Y-81900777D01*
X112681634Y-81866172D01*
X112732212Y-81859880D01*
X112783070Y-81876072D01*
X112810175Y-81891927D01*
X112830349Y-81914510D01*
X112844697Y-81948640D01*
X112854324Y-81999134D01*
X112860337Y-82070811D01*
X112863840Y-82168488D01*
X112865074Y-82233502D01*
X112869245Y-82500871D01*
X112956975Y-82505922D01*
X113044706Y-82510973D01*
X113044706Y-80851801D01*
X112860890Y-80851801D01*
X112856204Y-80944300D01*
X112840412Y-81008509D01*
X112810917Y-81048459D01*
X112765120Y-81068180D01*
X112718850Y-81072121D01*
X112666472Y-81067592D01*
X112631710Y-81049769D01*
X112609972Y-81026219D01*
X112592860Y-81000889D01*
X112582673Y-80972669D01*
X112578140Y-80933131D01*
X112577991Y-80873842D01*
X112579516Y-80824198D01*
X112583019Y-80749410D01*
X112588233Y-80700311D01*
X112597013Y-80669167D01*
X112611214Y-80648245D01*
X112624616Y-80636152D01*
X112680613Y-80609781D01*
X112746889Y-80605522D01*
X112784944Y-80614606D01*
X112822623Y-80646896D01*
X112847581Y-80709706D01*
X112859678Y-80802594D01*
X112860890Y-80851801D01*
X113044706Y-80851801D01*
X113044706Y-80437121D01*
X112952798Y-80437121D01*
X112897617Y-80439303D01*
X112869148Y-80447051D01*
X112860894Y-80462168D01*
X112860890Y-80462616D01*
X112857060Y-80477420D01*
X112840167Y-80475739D01*
X112806581Y-80459472D01*
X112728322Y-80434587D01*
X112640273Y-80431971D01*
X112556740Y-80451168D01*
X112556740Y-80451168D01*
G37*
X112556740Y-80451168D02*
X112521508Y-80468574D01*
X112478060Y-80498906D01*
X112446394Y-80531983D01*
X112424706Y-80573517D01*
X112411197Y-80629222D01*
X112404062Y-80704811D01*
X112401500Y-80805996D01*
X112401350Y-80849497D01*
X112401788Y-80944835D01*
X112403604Y-81012971D01*
X112407555Y-81060118D01*
X112414398Y-81092490D01*
X112424889Y-81116300D01*
X112435804Y-81132543D01*
X112505481Y-81201652D01*
X112587534Y-81243221D01*
X112676050Y-81255723D01*
X112765119Y-81237634D01*
X112793337Y-81224842D01*
X112860890Y-81189631D01*
X112860890Y-81741400D01*
X112811588Y-81715905D01*
X112746627Y-81696180D01*
X112666780Y-81691127D01*
X112587048Y-81700456D01*
X112526835Y-81721414D01*
X112476892Y-81761327D01*
X112434219Y-81818441D01*
X112431010Y-81824305D01*
X112417478Y-81851927D01*
X112407595Y-81879768D01*
X112400791Y-81913494D01*
X112396499Y-81958771D01*
X112394149Y-82021262D01*
X112393172Y-82106635D01*
X112392995Y-82202710D01*
X112392995Y-82509226D01*
X112576811Y-82509226D01*
X112576811Y-81944039D01*
X112628225Y-81900777D01*
X112681634Y-81866172D01*
X112732212Y-81859880D01*
X112783070Y-81876072D01*
X112810175Y-81891927D01*
X112830349Y-81914510D01*
X112844697Y-81948640D01*
X112854324Y-81999134D01*
X112860337Y-82070811D01*
X112863840Y-82168488D01*
X112865074Y-82233502D01*
X112869245Y-82500871D01*
X112956975Y-82505922D01*
X113044706Y-82510973D01*
X113044706Y-80851801D01*
X112860890Y-80851801D01*
X112856204Y-80944300D01*
X112840412Y-81008509D01*
X112810917Y-81048459D01*
X112765120Y-81068180D01*
X112718850Y-81072121D01*
X112666472Y-81067592D01*
X112631710Y-81049769D01*
X112609972Y-81026219D01*
X112592860Y-81000889D01*
X112582673Y-80972669D01*
X112578140Y-80933131D01*
X112577991Y-80873842D01*
X112579516Y-80824198D01*
X112583019Y-80749410D01*
X112588233Y-80700311D01*
X112597013Y-80669167D01*
X112611214Y-80648245D01*
X112624616Y-80636152D01*
X112680613Y-80609781D01*
X112746889Y-80605522D01*
X112784944Y-80614606D01*
X112822623Y-80646896D01*
X112847581Y-80709706D01*
X112859678Y-80802594D01*
X112860890Y-80851801D01*
X113044706Y-80851801D01*
X113044706Y-80437121D01*
X112952798Y-80437121D01*
X112897617Y-80439303D01*
X112869148Y-80447051D01*
X112860894Y-80462168D01*
X112860890Y-80462616D01*
X112857060Y-80477420D01*
X112840167Y-80475739D01*
X112806581Y-80459472D01*
X112728322Y-80434587D01*
X112640273Y-80431971D01*
X112556740Y-80451168D01*
D13*
G04 #@! TO.C,J3*
X136149000Y-81853400D02*
X136149000Y-83343400D01*
X136149000Y-83343400D02*
X134809000Y-83343400D01*
X136149000Y-66533400D02*
X136149000Y-65043400D01*
X136149000Y-65043400D02*
X134809000Y-65043400D01*
X132089000Y-83343400D02*
X130349000Y-83343400D01*
X130349000Y-83343400D02*
X130349000Y-65043400D01*
X130349000Y-65043400D02*
X132089000Y-65043400D01*
X136149000Y-81853400D02*
X137349000Y-81853400D01*
G04 #@! TD*
M02*
