G04 #@! TF.GenerationSoftware,KiCad,Pcbnew,5.1.2-f72e74a~84~ubuntu18.04.1*
G04 #@! TF.CreationDate,2019-07-12T15:11:00+09:00*
G04 #@! TF.ProjectId,bottom_pcb,626f7474-6f6d-45f7-9063-622e6b696361,rev?*
G04 #@! TF.SameCoordinates,Original*
G04 #@! TF.FileFunction,Soldermask,Bot*
G04 #@! TF.FilePolarity,Negative*
%FSLAX46Y46*%
G04 Gerber Fmt 4.6, Leading zero omitted, Abs format (unit mm)*
G04 Created by KiCad (PCBNEW 5.1.2-f72e74a~84~ubuntu18.04.1) date 2019-07-12 15:11:00*
%MOMM*%
%LPD*%
G04 APERTURE LIST*
%ADD10C,0.100000*%
G04 APERTURE END LIST*
D10*
G36*
X147351163Y-95234587D02*
G01*
X147525041Y-95269173D01*
X147852620Y-95404861D01*
X148147433Y-95601849D01*
X148398151Y-95852567D01*
X148595139Y-96147380D01*
X148730827Y-96474959D01*
X148800000Y-96822716D01*
X148800000Y-97177284D01*
X148730827Y-97525041D01*
X148595139Y-97852620D01*
X148398151Y-98147433D01*
X148147433Y-98398151D01*
X147852620Y-98595139D01*
X147525041Y-98730827D01*
X147351162Y-98765414D01*
X147177286Y-98800000D01*
X146822714Y-98800000D01*
X146648837Y-98765413D01*
X146474959Y-98730827D01*
X146147380Y-98595139D01*
X145852567Y-98398151D01*
X145601849Y-98147433D01*
X145404861Y-97852620D01*
X145269173Y-97525041D01*
X145200000Y-97177284D01*
X145200000Y-96822716D01*
X145269173Y-96474959D01*
X145404861Y-96147380D01*
X145601849Y-95852567D01*
X145852567Y-95601849D01*
X146147380Y-95404861D01*
X146474959Y-95269173D01*
X146648838Y-95234586D01*
X146822714Y-95200000D01*
X147177286Y-95200000D01*
X147351163Y-95234587D01*
X147351163Y-95234587D01*
G37*
G36*
X103351163Y-95234587D02*
G01*
X103525041Y-95269173D01*
X103852620Y-95404861D01*
X104147433Y-95601849D01*
X104398151Y-95852567D01*
X104595139Y-96147380D01*
X104730827Y-96474959D01*
X104800000Y-96822716D01*
X104800000Y-97177284D01*
X104730827Y-97525041D01*
X104595139Y-97852620D01*
X104398151Y-98147433D01*
X104147433Y-98398151D01*
X103852620Y-98595139D01*
X103525041Y-98730827D01*
X103351162Y-98765414D01*
X103177286Y-98800000D01*
X102822714Y-98800000D01*
X102648837Y-98765413D01*
X102474959Y-98730827D01*
X102147380Y-98595139D01*
X101852567Y-98398151D01*
X101601849Y-98147433D01*
X101404861Y-97852620D01*
X101269173Y-97525041D01*
X101200000Y-97177284D01*
X101200000Y-96822716D01*
X101269173Y-96474959D01*
X101404861Y-96147380D01*
X101601849Y-95852567D01*
X101852567Y-95601849D01*
X102147380Y-95404861D01*
X102474959Y-95269173D01*
X102648838Y-95234586D01*
X102822714Y-95200000D01*
X103177286Y-95200000D01*
X103351163Y-95234587D01*
X103351163Y-95234587D01*
G37*
G36*
X143253617Y-95724979D02*
G01*
X143379196Y-95749958D01*
X143615781Y-95847955D01*
X143828702Y-95990224D01*
X144009776Y-96171298D01*
X144152045Y-96384219D01*
X144250042Y-96620804D01*
X144300000Y-96871961D01*
X144300000Y-97128039D01*
X144250042Y-97379196D01*
X144152045Y-97615781D01*
X144009776Y-97828702D01*
X143828702Y-98009776D01*
X143615781Y-98152045D01*
X143379196Y-98250042D01*
X143128040Y-98300000D01*
X142871960Y-98300000D01*
X142746383Y-98275021D01*
X142620804Y-98250042D01*
X142384219Y-98152045D01*
X142171298Y-98009776D01*
X141990224Y-97828702D01*
X141847955Y-97615781D01*
X141749958Y-97379196D01*
X141700000Y-97128039D01*
X141700000Y-96871961D01*
X141749958Y-96620804D01*
X141847955Y-96384219D01*
X141990224Y-96171298D01*
X142171298Y-95990224D01*
X142384219Y-95847955D01*
X142620804Y-95749958D01*
X142746383Y-95724979D01*
X142871960Y-95700000D01*
X143128040Y-95700000D01*
X143253617Y-95724979D01*
X143253617Y-95724979D01*
G37*
G36*
X107253617Y-95724979D02*
G01*
X107379196Y-95749958D01*
X107615781Y-95847955D01*
X107828702Y-95990224D01*
X108009776Y-96171298D01*
X108152045Y-96384219D01*
X108250042Y-96620804D01*
X108300000Y-96871961D01*
X108300000Y-97128039D01*
X108250042Y-97379196D01*
X108152045Y-97615781D01*
X108009776Y-97828702D01*
X107828702Y-98009776D01*
X107615781Y-98152045D01*
X107379196Y-98250042D01*
X107128040Y-98300000D01*
X106871960Y-98300000D01*
X106746383Y-98275021D01*
X106620804Y-98250042D01*
X106384219Y-98152045D01*
X106171298Y-98009776D01*
X105990224Y-97828702D01*
X105847955Y-97615781D01*
X105749958Y-97379196D01*
X105700000Y-97128039D01*
X105700000Y-96871961D01*
X105749958Y-96620804D01*
X105847955Y-96384219D01*
X105990224Y-96171298D01*
X106171298Y-95990224D01*
X106384219Y-95847955D01*
X106620804Y-95749958D01*
X106746383Y-95724979D01*
X106871960Y-95700000D01*
X107128040Y-95700000D01*
X107253617Y-95724979D01*
X107253617Y-95724979D01*
G37*
G36*
X142754000Y-93480000D02*
G01*
X141322881Y-93480000D01*
X141298495Y-93482402D01*
X141275046Y-93489515D01*
X141253435Y-93501066D01*
X141234493Y-93516611D01*
X141218948Y-93535553D01*
X141207397Y-93557164D01*
X141200284Y-93580613D01*
X141197882Y-93604999D01*
X141203264Y-93641284D01*
X141204766Y-93646237D01*
X141204767Y-93646238D01*
X141264807Y-93844164D01*
X141285080Y-94050000D01*
X141264807Y-94255836D01*
X141204767Y-94453762D01*
X141204766Y-94453765D01*
X141107268Y-94636170D01*
X140976055Y-94796055D01*
X140816170Y-94927268D01*
X140633765Y-95024766D01*
X140633762Y-95024767D01*
X140435836Y-95084807D01*
X140358707Y-95092403D01*
X140281580Y-95100000D01*
X140178420Y-95100000D01*
X140101293Y-95092403D01*
X140024164Y-95084807D01*
X139826238Y-95024767D01*
X139826235Y-95024766D01*
X139643830Y-94927268D01*
X139483945Y-94796055D01*
X139352732Y-94636170D01*
X139255234Y-94453765D01*
X139255233Y-94453762D01*
X139195193Y-94255836D01*
X139174920Y-94050000D01*
X139195193Y-93844164D01*
X139255233Y-93646238D01*
X139255234Y-93646235D01*
X139352732Y-93463830D01*
X139483945Y-93303945D01*
X139643830Y-93172732D01*
X139826235Y-93075234D01*
X139826238Y-93075233D01*
X140024164Y-93015193D01*
X140101293Y-93007596D01*
X140178420Y-93000000D01*
X140281580Y-93000000D01*
X140416749Y-93013313D01*
X140441253Y-93013313D01*
X140465286Y-93008533D01*
X140487925Y-92999155D01*
X140508300Y-92985542D01*
X140525627Y-92968215D01*
X140539240Y-92947840D01*
X140548618Y-92925201D01*
X140553398Y-92901168D01*
X140554000Y-92888916D01*
X140554000Y-92080000D01*
X142754000Y-92080000D01*
X142754000Y-93480000D01*
X142754000Y-93480000D01*
G37*
G36*
X137818707Y-93007596D02*
G01*
X137895836Y-93015193D01*
X138093762Y-93075233D01*
X138093765Y-93075234D01*
X138276170Y-93172732D01*
X138436055Y-93303945D01*
X138567268Y-93463830D01*
X138664766Y-93646235D01*
X138664767Y-93646238D01*
X138724807Y-93844164D01*
X138745080Y-94050000D01*
X138724807Y-94255836D01*
X138664767Y-94453762D01*
X138664766Y-94453765D01*
X138567268Y-94636170D01*
X138436055Y-94796055D01*
X138276170Y-94927268D01*
X138093765Y-95024766D01*
X138093762Y-95024767D01*
X137895836Y-95084807D01*
X137818707Y-95092403D01*
X137741580Y-95100000D01*
X137638420Y-95100000D01*
X137561293Y-95092403D01*
X137484164Y-95084807D01*
X137286238Y-95024767D01*
X137286235Y-95024766D01*
X137103830Y-94927268D01*
X136943945Y-94796055D01*
X136812732Y-94636170D01*
X136715234Y-94453765D01*
X136715233Y-94453762D01*
X136655193Y-94255836D01*
X136634920Y-94050000D01*
X136655193Y-93844164D01*
X136715233Y-93646238D01*
X136715234Y-93646235D01*
X136812732Y-93463830D01*
X136943945Y-93303945D01*
X137103830Y-93172732D01*
X137286235Y-93075234D01*
X137286238Y-93075233D01*
X137484164Y-93015193D01*
X137561293Y-93007596D01*
X137638420Y-93000000D01*
X137741580Y-93000000D01*
X137818707Y-93007596D01*
X137818707Y-93007596D01*
G37*
G36*
X135278707Y-93007596D02*
G01*
X135355836Y-93015193D01*
X135553762Y-93075233D01*
X135553765Y-93075234D01*
X135736170Y-93172732D01*
X135896055Y-93303945D01*
X136027268Y-93463830D01*
X136124766Y-93646235D01*
X136124767Y-93646238D01*
X136184807Y-93844164D01*
X136205080Y-94050000D01*
X136184807Y-94255836D01*
X136124767Y-94453762D01*
X136124766Y-94453765D01*
X136027268Y-94636170D01*
X135896055Y-94796055D01*
X135736170Y-94927268D01*
X135553765Y-95024766D01*
X135553762Y-95024767D01*
X135355836Y-95084807D01*
X135278707Y-95092403D01*
X135201580Y-95100000D01*
X135098420Y-95100000D01*
X135021293Y-95092403D01*
X134944164Y-95084807D01*
X134746238Y-95024767D01*
X134746235Y-95024766D01*
X134563830Y-94927268D01*
X134403945Y-94796055D01*
X134272732Y-94636170D01*
X134175234Y-94453765D01*
X134175233Y-94453762D01*
X134115193Y-94255836D01*
X134094920Y-94050000D01*
X134115193Y-93844164D01*
X134175233Y-93646238D01*
X134175234Y-93646235D01*
X134272732Y-93463830D01*
X134403945Y-93303945D01*
X134563830Y-93172732D01*
X134746235Y-93075234D01*
X134746238Y-93075233D01*
X134944164Y-93015193D01*
X135021293Y-93007596D01*
X135098420Y-93000000D01*
X135201580Y-93000000D01*
X135278707Y-93007596D01*
X135278707Y-93007596D01*
G37*
G36*
X132738707Y-93007596D02*
G01*
X132815836Y-93015193D01*
X133013762Y-93075233D01*
X133013765Y-93075234D01*
X133196170Y-93172732D01*
X133356055Y-93303945D01*
X133487268Y-93463830D01*
X133584766Y-93646235D01*
X133584767Y-93646238D01*
X133644807Y-93844164D01*
X133665080Y-94050000D01*
X133644807Y-94255836D01*
X133584767Y-94453762D01*
X133584766Y-94453765D01*
X133487268Y-94636170D01*
X133356055Y-94796055D01*
X133196170Y-94927268D01*
X133013765Y-95024766D01*
X133013762Y-95024767D01*
X132815836Y-95084807D01*
X132738707Y-95092403D01*
X132661580Y-95100000D01*
X132558420Y-95100000D01*
X132481293Y-95092403D01*
X132404164Y-95084807D01*
X132206238Y-95024767D01*
X132206235Y-95024766D01*
X132023830Y-94927268D01*
X131863945Y-94796055D01*
X131732732Y-94636170D01*
X131635234Y-94453765D01*
X131635233Y-94453762D01*
X131575193Y-94255836D01*
X131554920Y-94050000D01*
X131575193Y-93844164D01*
X131635233Y-93646238D01*
X131635234Y-93646235D01*
X131732732Y-93463830D01*
X131863945Y-93303945D01*
X132023830Y-93172732D01*
X132206235Y-93075234D01*
X132206238Y-93075233D01*
X132404164Y-93015193D01*
X132481293Y-93007596D01*
X132558420Y-93000000D01*
X132661580Y-93000000D01*
X132738707Y-93007596D01*
X132738707Y-93007596D01*
G37*
G36*
X130198707Y-93007596D02*
G01*
X130275836Y-93015193D01*
X130473762Y-93075233D01*
X130473765Y-93075234D01*
X130656170Y-93172732D01*
X130816055Y-93303945D01*
X130947268Y-93463830D01*
X131044766Y-93646235D01*
X131044767Y-93646238D01*
X131104807Y-93844164D01*
X131125080Y-94050000D01*
X131104807Y-94255836D01*
X131044767Y-94453762D01*
X131044766Y-94453765D01*
X130947268Y-94636170D01*
X130816055Y-94796055D01*
X130656170Y-94927268D01*
X130473765Y-95024766D01*
X130473762Y-95024767D01*
X130275836Y-95084807D01*
X130198707Y-95092403D01*
X130121580Y-95100000D01*
X130018420Y-95100000D01*
X129941293Y-95092403D01*
X129864164Y-95084807D01*
X129666238Y-95024767D01*
X129666235Y-95024766D01*
X129483830Y-94927268D01*
X129323945Y-94796055D01*
X129192732Y-94636170D01*
X129095234Y-94453765D01*
X129095233Y-94453762D01*
X129035193Y-94255836D01*
X129014920Y-94050000D01*
X129035193Y-93844164D01*
X129095233Y-93646238D01*
X129095234Y-93646235D01*
X129192732Y-93463830D01*
X129323945Y-93303945D01*
X129483830Y-93172732D01*
X129666235Y-93075234D01*
X129666238Y-93075233D01*
X129864164Y-93015193D01*
X129941293Y-93007596D01*
X130018420Y-93000000D01*
X130121580Y-93000000D01*
X130198707Y-93007596D01*
X130198707Y-93007596D01*
G37*
G36*
X127658707Y-93007596D02*
G01*
X127735836Y-93015193D01*
X127933762Y-93075233D01*
X127933765Y-93075234D01*
X128116170Y-93172732D01*
X128276055Y-93303945D01*
X128407268Y-93463830D01*
X128504766Y-93646235D01*
X128504767Y-93646238D01*
X128564807Y-93844164D01*
X128585080Y-94050000D01*
X128564807Y-94255836D01*
X128504767Y-94453762D01*
X128504766Y-94453765D01*
X128407268Y-94636170D01*
X128276055Y-94796055D01*
X128116170Y-94927268D01*
X127933765Y-95024766D01*
X127933762Y-95024767D01*
X127735836Y-95084807D01*
X127658707Y-95092403D01*
X127581580Y-95100000D01*
X127478420Y-95100000D01*
X127401293Y-95092403D01*
X127324164Y-95084807D01*
X127126238Y-95024767D01*
X127126235Y-95024766D01*
X126943830Y-94927268D01*
X126783945Y-94796055D01*
X126652732Y-94636170D01*
X126555234Y-94453765D01*
X126555233Y-94453762D01*
X126495193Y-94255836D01*
X126474920Y-94050000D01*
X126495193Y-93844164D01*
X126555233Y-93646238D01*
X126555234Y-93646235D01*
X126652732Y-93463830D01*
X126783945Y-93303945D01*
X126943830Y-93172732D01*
X127126235Y-93075234D01*
X127126238Y-93075233D01*
X127324164Y-93015193D01*
X127401293Y-93007596D01*
X127478420Y-93000000D01*
X127581580Y-93000000D01*
X127658707Y-93007596D01*
X127658707Y-93007596D01*
G37*
G36*
X125118707Y-93007596D02*
G01*
X125195836Y-93015193D01*
X125393762Y-93075233D01*
X125393765Y-93075234D01*
X125576170Y-93172732D01*
X125736055Y-93303945D01*
X125867268Y-93463830D01*
X125964766Y-93646235D01*
X125964767Y-93646238D01*
X126024807Y-93844164D01*
X126045080Y-94050000D01*
X126024807Y-94255836D01*
X125964767Y-94453762D01*
X125964766Y-94453765D01*
X125867268Y-94636170D01*
X125736055Y-94796055D01*
X125576170Y-94927268D01*
X125393765Y-95024766D01*
X125393762Y-95024767D01*
X125195836Y-95084807D01*
X125118707Y-95092403D01*
X125041580Y-95100000D01*
X124938420Y-95100000D01*
X124861293Y-95092403D01*
X124784164Y-95084807D01*
X124586238Y-95024767D01*
X124586235Y-95024766D01*
X124403830Y-94927268D01*
X124243945Y-94796055D01*
X124112732Y-94636170D01*
X124015234Y-94453765D01*
X124015233Y-94453762D01*
X123955193Y-94255836D01*
X123934920Y-94050000D01*
X123955193Y-93844164D01*
X124015233Y-93646238D01*
X124015234Y-93646235D01*
X124112732Y-93463830D01*
X124243945Y-93303945D01*
X124403830Y-93172732D01*
X124586235Y-93075234D01*
X124586238Y-93075233D01*
X124784164Y-93015193D01*
X124861293Y-93007596D01*
X124938420Y-93000000D01*
X125041580Y-93000000D01*
X125118707Y-93007596D01*
X125118707Y-93007596D01*
G37*
G36*
X122578707Y-93007596D02*
G01*
X122655836Y-93015193D01*
X122853762Y-93075233D01*
X122853765Y-93075234D01*
X123036170Y-93172732D01*
X123196055Y-93303945D01*
X123327268Y-93463830D01*
X123424766Y-93646235D01*
X123424767Y-93646238D01*
X123484807Y-93844164D01*
X123505080Y-94050000D01*
X123484807Y-94255836D01*
X123424767Y-94453762D01*
X123424766Y-94453765D01*
X123327268Y-94636170D01*
X123196055Y-94796055D01*
X123036170Y-94927268D01*
X122853765Y-95024766D01*
X122853762Y-95024767D01*
X122655836Y-95084807D01*
X122578707Y-95092403D01*
X122501580Y-95100000D01*
X122398420Y-95100000D01*
X122321293Y-95092403D01*
X122244164Y-95084807D01*
X122046238Y-95024767D01*
X122046235Y-95024766D01*
X121863830Y-94927268D01*
X121703945Y-94796055D01*
X121572732Y-94636170D01*
X121475234Y-94453765D01*
X121475233Y-94453762D01*
X121415193Y-94255836D01*
X121394920Y-94050000D01*
X121415193Y-93844164D01*
X121475233Y-93646238D01*
X121475234Y-93646235D01*
X121572732Y-93463830D01*
X121703945Y-93303945D01*
X121863830Y-93172732D01*
X122046235Y-93075234D01*
X122046238Y-93075233D01*
X122244164Y-93015193D01*
X122321293Y-93007596D01*
X122398420Y-93000000D01*
X122501580Y-93000000D01*
X122578707Y-93007596D01*
X122578707Y-93007596D01*
G37*
G36*
X110800000Y-95100000D02*
G01*
X108700000Y-95100000D01*
X108700000Y-93000000D01*
X110800000Y-93000000D01*
X110800000Y-95100000D01*
X110800000Y-95100000D01*
G37*
G36*
X112418707Y-93007596D02*
G01*
X112495836Y-93015193D01*
X112693762Y-93075233D01*
X112693765Y-93075234D01*
X112876170Y-93172732D01*
X113036055Y-93303945D01*
X113167268Y-93463830D01*
X113264766Y-93646235D01*
X113264767Y-93646238D01*
X113324807Y-93844164D01*
X113345080Y-94050000D01*
X113324807Y-94255836D01*
X113264767Y-94453762D01*
X113264766Y-94453765D01*
X113167268Y-94636170D01*
X113036055Y-94796055D01*
X112876170Y-94927268D01*
X112693765Y-95024766D01*
X112693762Y-95024767D01*
X112495836Y-95084807D01*
X112418707Y-95092403D01*
X112341580Y-95100000D01*
X112238420Y-95100000D01*
X112161293Y-95092403D01*
X112084164Y-95084807D01*
X111886238Y-95024767D01*
X111886235Y-95024766D01*
X111703830Y-94927268D01*
X111543945Y-94796055D01*
X111412732Y-94636170D01*
X111315234Y-94453765D01*
X111315233Y-94453762D01*
X111255193Y-94255836D01*
X111234920Y-94050000D01*
X111255193Y-93844164D01*
X111315233Y-93646238D01*
X111315234Y-93646235D01*
X111412732Y-93463830D01*
X111543945Y-93303945D01*
X111703830Y-93172732D01*
X111886235Y-93075234D01*
X111886238Y-93075233D01*
X112084164Y-93015193D01*
X112161293Y-93007596D01*
X112238420Y-93000000D01*
X112341580Y-93000000D01*
X112418707Y-93007596D01*
X112418707Y-93007596D01*
G37*
G36*
X114958707Y-93007596D02*
G01*
X115035836Y-93015193D01*
X115233762Y-93075233D01*
X115233765Y-93075234D01*
X115416170Y-93172732D01*
X115576055Y-93303945D01*
X115707268Y-93463830D01*
X115804766Y-93646235D01*
X115804767Y-93646238D01*
X115864807Y-93844164D01*
X115885080Y-94050000D01*
X115864807Y-94255836D01*
X115804767Y-94453762D01*
X115804766Y-94453765D01*
X115707268Y-94636170D01*
X115576055Y-94796055D01*
X115416170Y-94927268D01*
X115233765Y-95024766D01*
X115233762Y-95024767D01*
X115035836Y-95084807D01*
X114958707Y-95092403D01*
X114881580Y-95100000D01*
X114778420Y-95100000D01*
X114701293Y-95092403D01*
X114624164Y-95084807D01*
X114426238Y-95024767D01*
X114426235Y-95024766D01*
X114243830Y-94927268D01*
X114083945Y-94796055D01*
X113952732Y-94636170D01*
X113855234Y-94453765D01*
X113855233Y-94453762D01*
X113795193Y-94255836D01*
X113774920Y-94050000D01*
X113795193Y-93844164D01*
X113855233Y-93646238D01*
X113855234Y-93646235D01*
X113952732Y-93463830D01*
X114083945Y-93303945D01*
X114243830Y-93172732D01*
X114426235Y-93075234D01*
X114426238Y-93075233D01*
X114624164Y-93015193D01*
X114701293Y-93007596D01*
X114778420Y-93000000D01*
X114881580Y-93000000D01*
X114958707Y-93007596D01*
X114958707Y-93007596D01*
G37*
G36*
X120038707Y-93007596D02*
G01*
X120115836Y-93015193D01*
X120313762Y-93075233D01*
X120313765Y-93075234D01*
X120496170Y-93172732D01*
X120656055Y-93303945D01*
X120787268Y-93463830D01*
X120884766Y-93646235D01*
X120884767Y-93646238D01*
X120944807Y-93844164D01*
X120965080Y-94050000D01*
X120944807Y-94255836D01*
X120884767Y-94453762D01*
X120884766Y-94453765D01*
X120787268Y-94636170D01*
X120656055Y-94796055D01*
X120496170Y-94927268D01*
X120313765Y-95024766D01*
X120313762Y-95024767D01*
X120115836Y-95084807D01*
X120038707Y-95092403D01*
X119961580Y-95100000D01*
X119858420Y-95100000D01*
X119781293Y-95092403D01*
X119704164Y-95084807D01*
X119506238Y-95024767D01*
X119506235Y-95024766D01*
X119323830Y-94927268D01*
X119163945Y-94796055D01*
X119032732Y-94636170D01*
X118935234Y-94453765D01*
X118935233Y-94453762D01*
X118875193Y-94255836D01*
X118854920Y-94050000D01*
X118875193Y-93844164D01*
X118935233Y-93646238D01*
X118935234Y-93646235D01*
X119032732Y-93463830D01*
X119163945Y-93303945D01*
X119323830Y-93172732D01*
X119506235Y-93075234D01*
X119506238Y-93075233D01*
X119704164Y-93015193D01*
X119781293Y-93007596D01*
X119858420Y-93000000D01*
X119961580Y-93000000D01*
X120038707Y-93007596D01*
X120038707Y-93007596D01*
G37*
G36*
X117498707Y-93007596D02*
G01*
X117575836Y-93015193D01*
X117773762Y-93075233D01*
X117773765Y-93075234D01*
X117956170Y-93172732D01*
X118116055Y-93303945D01*
X118247268Y-93463830D01*
X118344766Y-93646235D01*
X118344767Y-93646238D01*
X118404807Y-93844164D01*
X118425080Y-94050000D01*
X118404807Y-94255836D01*
X118344767Y-94453762D01*
X118344766Y-94453765D01*
X118247268Y-94636170D01*
X118116055Y-94796055D01*
X117956170Y-94927268D01*
X117773765Y-95024766D01*
X117773762Y-95024767D01*
X117575836Y-95084807D01*
X117498707Y-95092403D01*
X117421580Y-95100000D01*
X117318420Y-95100000D01*
X117241293Y-95092403D01*
X117164164Y-95084807D01*
X116966238Y-95024767D01*
X116966235Y-95024766D01*
X116783830Y-94927268D01*
X116623945Y-94796055D01*
X116492732Y-94636170D01*
X116395234Y-94453765D01*
X116395233Y-94453762D01*
X116335193Y-94255836D01*
X116314920Y-94050000D01*
X116335193Y-93844164D01*
X116395233Y-93646238D01*
X116395234Y-93646235D01*
X116492732Y-93463830D01*
X116623945Y-93303945D01*
X116783830Y-93172732D01*
X116966235Y-93075234D01*
X116966238Y-93075233D01*
X117164164Y-93015193D01*
X117241293Y-93007596D01*
X117318420Y-93000000D01*
X117421580Y-93000000D01*
X117498707Y-93007596D01*
X117498707Y-93007596D01*
G37*
G36*
X147594000Y-93480000D02*
G01*
X145394000Y-93480000D01*
X145394000Y-92080000D01*
X147594000Y-92080000D01*
X147594000Y-93480000D01*
X147594000Y-93480000D01*
G37*
G36*
X144221738Y-90876653D02*
G01*
X144263598Y-90884979D01*
X144312596Y-90905275D01*
X144381889Y-90933977D01*
X144381890Y-90933978D01*
X144488351Y-91005112D01*
X144578888Y-91095649D01*
X144626418Y-91166784D01*
X144650023Y-91202111D01*
X144699021Y-91320403D01*
X144724000Y-91445979D01*
X144724000Y-91574021D01*
X144699021Y-91699597D01*
X144650023Y-91817889D01*
X144650022Y-91817890D01*
X144578888Y-91924351D01*
X144488351Y-92014888D01*
X144417216Y-92062418D01*
X144381889Y-92086023D01*
X144312596Y-92114725D01*
X144263598Y-92135021D01*
X144221738Y-92143347D01*
X144138021Y-92160000D01*
X144009979Y-92160000D01*
X143926262Y-92143347D01*
X143884402Y-92135021D01*
X143835404Y-92114725D01*
X143766111Y-92086023D01*
X143730784Y-92062418D01*
X143659649Y-92014888D01*
X143569112Y-91924351D01*
X143497978Y-91817890D01*
X143497977Y-91817889D01*
X143448979Y-91699597D01*
X143424000Y-91574021D01*
X143424000Y-91445979D01*
X143448979Y-91320403D01*
X143497977Y-91202111D01*
X143521582Y-91166784D01*
X143569112Y-91095649D01*
X143659649Y-91005112D01*
X143766110Y-90933978D01*
X143766111Y-90933977D01*
X143835404Y-90905275D01*
X143884402Y-90884979D01*
X143926262Y-90876653D01*
X144009979Y-90860000D01*
X144138021Y-90860000D01*
X144221738Y-90876653D01*
X144221738Y-90876653D01*
G37*
G36*
X147594000Y-90940000D02*
G01*
X145394000Y-90940000D01*
X145394000Y-89540000D01*
X147594000Y-89540000D01*
X147594000Y-90940000D01*
X147594000Y-90940000D01*
G37*
G36*
X142754000Y-90940000D02*
G01*
X140554000Y-90940000D01*
X140554000Y-89540000D01*
X142754000Y-89540000D01*
X142754000Y-90940000D01*
X142754000Y-90940000D01*
G37*
G36*
X147594000Y-88400000D02*
G01*
X145394000Y-88400000D01*
X145394000Y-87000000D01*
X147594000Y-87000000D01*
X147594000Y-88400000D01*
X147594000Y-88400000D01*
G37*
G36*
X142754000Y-88400000D02*
G01*
X140554000Y-88400000D01*
X140554000Y-87000000D01*
X142754000Y-87000000D01*
X142754000Y-88400000D01*
X142754000Y-88400000D01*
G37*
G36*
X142754000Y-85860000D02*
G01*
X140554000Y-85860000D01*
X140554000Y-84460000D01*
X142754000Y-84460000D01*
X142754000Y-85860000D01*
X142754000Y-85860000D01*
G37*
G36*
X147594000Y-85860000D02*
G01*
X145394000Y-85860000D01*
X145394000Y-84460000D01*
X147594000Y-84460000D01*
X147594000Y-85860000D01*
X147594000Y-85860000D01*
G37*
G36*
X134749000Y-85250000D02*
G01*
X132149000Y-85250000D01*
X132149000Y-83050000D01*
X134749000Y-83050000D01*
X134749000Y-85250000D01*
X134749000Y-85250000D01*
G37*
G36*
X147594000Y-83320000D02*
G01*
X145394000Y-83320000D01*
X145394000Y-81920000D01*
X147594000Y-81920000D01*
X147594000Y-83320000D01*
X147594000Y-83320000D01*
G37*
G36*
X142754000Y-83320000D02*
G01*
X140554000Y-83320000D01*
X140554000Y-81920000D01*
X142754000Y-81920000D01*
X142754000Y-83320000D01*
X142754000Y-83320000D01*
G37*
G36*
X137549000Y-82600000D02*
G01*
X135849000Y-82600000D01*
X135849000Y-67400000D01*
X137549000Y-67400000D01*
X137549000Y-82600000D01*
X137549000Y-82600000D01*
G37*
G36*
X147594000Y-80780000D02*
G01*
X145394000Y-80780000D01*
X145394000Y-79380000D01*
X147594000Y-79380000D01*
X147594000Y-80780000D01*
X147594000Y-80780000D01*
G37*
G36*
X142754000Y-80780000D02*
G01*
X140554000Y-80780000D01*
X140554000Y-79380000D01*
X142754000Y-79380000D01*
X142754000Y-80780000D01*
X142754000Y-80780000D01*
G37*
G36*
X147594000Y-78240000D02*
G01*
X145394000Y-78240000D01*
X145394000Y-76840000D01*
X147594000Y-76840000D01*
X147594000Y-78240000D01*
X147594000Y-78240000D01*
G37*
G36*
X142754000Y-78240000D02*
G01*
X140554000Y-78240000D01*
X140554000Y-76840000D01*
X142754000Y-76840000D01*
X142754000Y-78240000D01*
X142754000Y-78240000D01*
G37*
G36*
X142754000Y-75700000D02*
G01*
X140554000Y-75700000D01*
X140554000Y-74300000D01*
X142754000Y-74300000D01*
X142754000Y-75700000D01*
X142754000Y-75700000D01*
G37*
G36*
X147594000Y-75700000D02*
G01*
X145394000Y-75700000D01*
X145394000Y-74300000D01*
X147594000Y-74300000D01*
X147594000Y-75700000D01*
X147594000Y-75700000D01*
G37*
G36*
X142754000Y-73160000D02*
G01*
X140554000Y-73160000D01*
X140554000Y-71760000D01*
X142754000Y-71760000D01*
X142754000Y-73160000D01*
X142754000Y-73160000D01*
G37*
G36*
X147594000Y-73160000D02*
G01*
X145394000Y-73160000D01*
X145394000Y-71760000D01*
X147594000Y-71760000D01*
X147594000Y-73160000D01*
X147594000Y-73160000D01*
G37*
G36*
X142754000Y-70620000D02*
G01*
X140554000Y-70620000D01*
X140554000Y-69220000D01*
X142754000Y-69220000D01*
X142754000Y-70620000D01*
X142754000Y-70620000D01*
G37*
G36*
X147594000Y-70620000D02*
G01*
X145394000Y-70620000D01*
X145394000Y-69220000D01*
X147594000Y-69220000D01*
X147594000Y-70620000D01*
X147594000Y-70620000D01*
G37*
G36*
X147594000Y-68080000D02*
G01*
X145394000Y-68080000D01*
X145394000Y-66680000D01*
X147594000Y-66680000D01*
X147594000Y-68080000D01*
X147594000Y-68080000D01*
G37*
G36*
X142754000Y-68080000D02*
G01*
X140554000Y-68080000D01*
X140554000Y-66680000D01*
X142754000Y-66680000D01*
X142754000Y-68080000D01*
X142754000Y-68080000D01*
G37*
G36*
X134749000Y-66950000D02*
G01*
X132149000Y-66950000D01*
X132149000Y-64750000D01*
X134749000Y-64750000D01*
X134749000Y-66950000D01*
X134749000Y-66950000D01*
G37*
G36*
X142754000Y-65540000D02*
G01*
X140554000Y-65540000D01*
X140554000Y-64140000D01*
X142754000Y-64140000D01*
X142754000Y-65540000D01*
X142754000Y-65540000D01*
G37*
G36*
X147594000Y-65540000D02*
G01*
X145394000Y-65540000D01*
X145394000Y-64140000D01*
X147594000Y-64140000D01*
X147594000Y-65540000D01*
X147594000Y-65540000D01*
G37*
G36*
X147594000Y-63000000D02*
G01*
X145394000Y-63000000D01*
X145394000Y-61600000D01*
X147594000Y-61600000D01*
X147594000Y-63000000D01*
X147594000Y-63000000D01*
G37*
G36*
X142754000Y-63000000D02*
G01*
X140554000Y-63000000D01*
X140554000Y-61600000D01*
X142754000Y-61600000D01*
X142754000Y-63000000D01*
X142754000Y-63000000D01*
G37*
G36*
X142754000Y-60460000D02*
G01*
X140554000Y-60460000D01*
X140554000Y-59060000D01*
X142754000Y-59060000D01*
X142754000Y-60460000D01*
X142754000Y-60460000D01*
G37*
G36*
X147694000Y-60460000D02*
G01*
X145494000Y-60460000D01*
X145494000Y-59060000D01*
X147694000Y-59060000D01*
X147694000Y-60460000D01*
X147694000Y-60460000D01*
G37*
G36*
X144221738Y-57856653D02*
G01*
X144263598Y-57864979D01*
X144312596Y-57885275D01*
X144381889Y-57913977D01*
X144381890Y-57913978D01*
X144488351Y-57985112D01*
X144578888Y-58075649D01*
X144626418Y-58146784D01*
X144650023Y-58182111D01*
X144699021Y-58300403D01*
X144724000Y-58425979D01*
X144724000Y-58554021D01*
X144699021Y-58679597D01*
X144650023Y-58797889D01*
X144650022Y-58797890D01*
X144578888Y-58904351D01*
X144488351Y-58994888D01*
X144417216Y-59042418D01*
X144381889Y-59066023D01*
X144312596Y-59094725D01*
X144263598Y-59115021D01*
X144221738Y-59123347D01*
X144138021Y-59140000D01*
X144009979Y-59140000D01*
X143926262Y-59123347D01*
X143884402Y-59115021D01*
X143835404Y-59094725D01*
X143766111Y-59066023D01*
X143730784Y-59042418D01*
X143659649Y-58994888D01*
X143569112Y-58904351D01*
X143497978Y-58797890D01*
X143497977Y-58797889D01*
X143448979Y-58679597D01*
X143424000Y-58554021D01*
X143424000Y-58425979D01*
X143448979Y-58300403D01*
X143497977Y-58182111D01*
X143521582Y-58146784D01*
X143569112Y-58075649D01*
X143659649Y-57985112D01*
X143766110Y-57913978D01*
X143766111Y-57913977D01*
X143835404Y-57885275D01*
X143884402Y-57864979D01*
X143926262Y-57856653D01*
X144009979Y-57840000D01*
X144138021Y-57840000D01*
X144221738Y-57856653D01*
X144221738Y-57856653D01*
G37*
G36*
X147594000Y-57920000D02*
G01*
X145394000Y-57920000D01*
X145394000Y-56520000D01*
X147594000Y-56520000D01*
X147594000Y-57920000D01*
X147594000Y-57920000D01*
G37*
G36*
X140358707Y-54907596D02*
G01*
X140435836Y-54915193D01*
X140633762Y-54975233D01*
X140633765Y-54975234D01*
X140816170Y-55072732D01*
X140976055Y-55203945D01*
X141107268Y-55363830D01*
X141204766Y-55546235D01*
X141204767Y-55546238D01*
X141264807Y-55744164D01*
X141285080Y-55950000D01*
X141264807Y-56155836D01*
X141204767Y-56353762D01*
X141203264Y-56358716D01*
X141198484Y-56382749D01*
X141198484Y-56407253D01*
X141203265Y-56431287D01*
X141212642Y-56453925D01*
X141226256Y-56474300D01*
X141243583Y-56491627D01*
X141263957Y-56505240D01*
X141286596Y-56514618D01*
X141322881Y-56520000D01*
X142754000Y-56520000D01*
X142754000Y-57920000D01*
X140554000Y-57920000D01*
X140554000Y-57111084D01*
X140551598Y-57086698D01*
X140544485Y-57063249D01*
X140532934Y-57041638D01*
X140517389Y-57022696D01*
X140498447Y-57007151D01*
X140476836Y-56995600D01*
X140453387Y-56988487D01*
X140429001Y-56986085D01*
X140416749Y-56986687D01*
X140281580Y-57000000D01*
X140178420Y-57000000D01*
X140101293Y-56992403D01*
X140024164Y-56984807D01*
X139826238Y-56924767D01*
X139826235Y-56924766D01*
X139643830Y-56827268D01*
X139483945Y-56696055D01*
X139352732Y-56536170D01*
X139255234Y-56353765D01*
X139255233Y-56353762D01*
X139195193Y-56155836D01*
X139174920Y-55950000D01*
X139195193Y-55744164D01*
X139255233Y-55546238D01*
X139255234Y-55546235D01*
X139352732Y-55363830D01*
X139483945Y-55203945D01*
X139643830Y-55072732D01*
X139826235Y-54975234D01*
X139826238Y-54975233D01*
X140024164Y-54915193D01*
X140101293Y-54907596D01*
X140178420Y-54900000D01*
X140281580Y-54900000D01*
X140358707Y-54907596D01*
X140358707Y-54907596D01*
G37*
G36*
X110800000Y-57000000D02*
G01*
X108700000Y-57000000D01*
X108700000Y-54900000D01*
X110800000Y-54900000D01*
X110800000Y-57000000D01*
X110800000Y-57000000D01*
G37*
G36*
X112418707Y-54907596D02*
G01*
X112495836Y-54915193D01*
X112693762Y-54975233D01*
X112693765Y-54975234D01*
X112876170Y-55072732D01*
X113036055Y-55203945D01*
X113167268Y-55363830D01*
X113264766Y-55546235D01*
X113264767Y-55546238D01*
X113324807Y-55744164D01*
X113345080Y-55950000D01*
X113324807Y-56155836D01*
X113264767Y-56353762D01*
X113264766Y-56353765D01*
X113167268Y-56536170D01*
X113036055Y-56696055D01*
X112876170Y-56827268D01*
X112693765Y-56924766D01*
X112693762Y-56924767D01*
X112495836Y-56984807D01*
X112418707Y-56992403D01*
X112341580Y-57000000D01*
X112238420Y-57000000D01*
X112161293Y-56992403D01*
X112084164Y-56984807D01*
X111886238Y-56924767D01*
X111886235Y-56924766D01*
X111703830Y-56827268D01*
X111543945Y-56696055D01*
X111412732Y-56536170D01*
X111315234Y-56353765D01*
X111315233Y-56353762D01*
X111255193Y-56155836D01*
X111234920Y-55950000D01*
X111255193Y-55744164D01*
X111315233Y-55546238D01*
X111315234Y-55546235D01*
X111412732Y-55363830D01*
X111543945Y-55203945D01*
X111703830Y-55072732D01*
X111886235Y-54975234D01*
X111886238Y-54975233D01*
X112084164Y-54915193D01*
X112161293Y-54907596D01*
X112238420Y-54900000D01*
X112341580Y-54900000D01*
X112418707Y-54907596D01*
X112418707Y-54907596D01*
G37*
G36*
X114958707Y-54907596D02*
G01*
X115035836Y-54915193D01*
X115233762Y-54975233D01*
X115233765Y-54975234D01*
X115416170Y-55072732D01*
X115576055Y-55203945D01*
X115707268Y-55363830D01*
X115804766Y-55546235D01*
X115804767Y-55546238D01*
X115864807Y-55744164D01*
X115885080Y-55950000D01*
X115864807Y-56155836D01*
X115804767Y-56353762D01*
X115804766Y-56353765D01*
X115707268Y-56536170D01*
X115576055Y-56696055D01*
X115416170Y-56827268D01*
X115233765Y-56924766D01*
X115233762Y-56924767D01*
X115035836Y-56984807D01*
X114958707Y-56992403D01*
X114881580Y-57000000D01*
X114778420Y-57000000D01*
X114701293Y-56992403D01*
X114624164Y-56984807D01*
X114426238Y-56924767D01*
X114426235Y-56924766D01*
X114243830Y-56827268D01*
X114083945Y-56696055D01*
X113952732Y-56536170D01*
X113855234Y-56353765D01*
X113855233Y-56353762D01*
X113795193Y-56155836D01*
X113774920Y-55950000D01*
X113795193Y-55744164D01*
X113855233Y-55546238D01*
X113855234Y-55546235D01*
X113952732Y-55363830D01*
X114083945Y-55203945D01*
X114243830Y-55072732D01*
X114426235Y-54975234D01*
X114426238Y-54975233D01*
X114624164Y-54915193D01*
X114701293Y-54907596D01*
X114778420Y-54900000D01*
X114881580Y-54900000D01*
X114958707Y-54907596D01*
X114958707Y-54907596D01*
G37*
G36*
X117498707Y-54907596D02*
G01*
X117575836Y-54915193D01*
X117773762Y-54975233D01*
X117773765Y-54975234D01*
X117956170Y-55072732D01*
X118116055Y-55203945D01*
X118247268Y-55363830D01*
X118344766Y-55546235D01*
X118344767Y-55546238D01*
X118404807Y-55744164D01*
X118425080Y-55950000D01*
X118404807Y-56155836D01*
X118344767Y-56353762D01*
X118344766Y-56353765D01*
X118247268Y-56536170D01*
X118116055Y-56696055D01*
X117956170Y-56827268D01*
X117773765Y-56924766D01*
X117773762Y-56924767D01*
X117575836Y-56984807D01*
X117498707Y-56992403D01*
X117421580Y-57000000D01*
X117318420Y-57000000D01*
X117241293Y-56992403D01*
X117164164Y-56984807D01*
X116966238Y-56924767D01*
X116966235Y-56924766D01*
X116783830Y-56827268D01*
X116623945Y-56696055D01*
X116492732Y-56536170D01*
X116395234Y-56353765D01*
X116395233Y-56353762D01*
X116335193Y-56155836D01*
X116314920Y-55950000D01*
X116335193Y-55744164D01*
X116395233Y-55546238D01*
X116395234Y-55546235D01*
X116492732Y-55363830D01*
X116623945Y-55203945D01*
X116783830Y-55072732D01*
X116966235Y-54975234D01*
X116966238Y-54975233D01*
X117164164Y-54915193D01*
X117241293Y-54907596D01*
X117318420Y-54900000D01*
X117421580Y-54900000D01*
X117498707Y-54907596D01*
X117498707Y-54907596D01*
G37*
G36*
X120038707Y-54907596D02*
G01*
X120115836Y-54915193D01*
X120313762Y-54975233D01*
X120313765Y-54975234D01*
X120496170Y-55072732D01*
X120656055Y-55203945D01*
X120787268Y-55363830D01*
X120884766Y-55546235D01*
X120884767Y-55546238D01*
X120944807Y-55744164D01*
X120965080Y-55950000D01*
X120944807Y-56155836D01*
X120884767Y-56353762D01*
X120884766Y-56353765D01*
X120787268Y-56536170D01*
X120656055Y-56696055D01*
X120496170Y-56827268D01*
X120313765Y-56924766D01*
X120313762Y-56924767D01*
X120115836Y-56984807D01*
X120038707Y-56992403D01*
X119961580Y-57000000D01*
X119858420Y-57000000D01*
X119781293Y-56992403D01*
X119704164Y-56984807D01*
X119506238Y-56924767D01*
X119506235Y-56924766D01*
X119323830Y-56827268D01*
X119163945Y-56696055D01*
X119032732Y-56536170D01*
X118935234Y-56353765D01*
X118935233Y-56353762D01*
X118875193Y-56155836D01*
X118854920Y-55950000D01*
X118875193Y-55744164D01*
X118935233Y-55546238D01*
X118935234Y-55546235D01*
X119032732Y-55363830D01*
X119163945Y-55203945D01*
X119323830Y-55072732D01*
X119506235Y-54975234D01*
X119506238Y-54975233D01*
X119704164Y-54915193D01*
X119781293Y-54907596D01*
X119858420Y-54900000D01*
X119961580Y-54900000D01*
X120038707Y-54907596D01*
X120038707Y-54907596D01*
G37*
G36*
X137818707Y-54907596D02*
G01*
X137895836Y-54915193D01*
X138093762Y-54975233D01*
X138093765Y-54975234D01*
X138276170Y-55072732D01*
X138436055Y-55203945D01*
X138567268Y-55363830D01*
X138664766Y-55546235D01*
X138664767Y-55546238D01*
X138724807Y-55744164D01*
X138745080Y-55950000D01*
X138724807Y-56155836D01*
X138664767Y-56353762D01*
X138664766Y-56353765D01*
X138567268Y-56536170D01*
X138436055Y-56696055D01*
X138276170Y-56827268D01*
X138093765Y-56924766D01*
X138093762Y-56924767D01*
X137895836Y-56984807D01*
X137818707Y-56992403D01*
X137741580Y-57000000D01*
X137638420Y-57000000D01*
X137561293Y-56992403D01*
X137484164Y-56984807D01*
X137286238Y-56924767D01*
X137286235Y-56924766D01*
X137103830Y-56827268D01*
X136943945Y-56696055D01*
X136812732Y-56536170D01*
X136715234Y-56353765D01*
X136715233Y-56353762D01*
X136655193Y-56155836D01*
X136634920Y-55950000D01*
X136655193Y-55744164D01*
X136715233Y-55546238D01*
X136715234Y-55546235D01*
X136812732Y-55363830D01*
X136943945Y-55203945D01*
X137103830Y-55072732D01*
X137286235Y-54975234D01*
X137286238Y-54975233D01*
X137484164Y-54915193D01*
X137561293Y-54907596D01*
X137638420Y-54900000D01*
X137741580Y-54900000D01*
X137818707Y-54907596D01*
X137818707Y-54907596D01*
G37*
G36*
X135278707Y-54907596D02*
G01*
X135355836Y-54915193D01*
X135553762Y-54975233D01*
X135553765Y-54975234D01*
X135736170Y-55072732D01*
X135896055Y-55203945D01*
X136027268Y-55363830D01*
X136124766Y-55546235D01*
X136124767Y-55546238D01*
X136184807Y-55744164D01*
X136205080Y-55950000D01*
X136184807Y-56155836D01*
X136124767Y-56353762D01*
X136124766Y-56353765D01*
X136027268Y-56536170D01*
X135896055Y-56696055D01*
X135736170Y-56827268D01*
X135553765Y-56924766D01*
X135553762Y-56924767D01*
X135355836Y-56984807D01*
X135278707Y-56992403D01*
X135201580Y-57000000D01*
X135098420Y-57000000D01*
X135021293Y-56992403D01*
X134944164Y-56984807D01*
X134746238Y-56924767D01*
X134746235Y-56924766D01*
X134563830Y-56827268D01*
X134403945Y-56696055D01*
X134272732Y-56536170D01*
X134175234Y-56353765D01*
X134175233Y-56353762D01*
X134115193Y-56155836D01*
X134094920Y-55950000D01*
X134115193Y-55744164D01*
X134175233Y-55546238D01*
X134175234Y-55546235D01*
X134272732Y-55363830D01*
X134403945Y-55203945D01*
X134563830Y-55072732D01*
X134746235Y-54975234D01*
X134746238Y-54975233D01*
X134944164Y-54915193D01*
X135021293Y-54907596D01*
X135098420Y-54900000D01*
X135201580Y-54900000D01*
X135278707Y-54907596D01*
X135278707Y-54907596D01*
G37*
G36*
X132738707Y-54907596D02*
G01*
X132815836Y-54915193D01*
X133013762Y-54975233D01*
X133013765Y-54975234D01*
X133196170Y-55072732D01*
X133356055Y-55203945D01*
X133487268Y-55363830D01*
X133584766Y-55546235D01*
X133584767Y-55546238D01*
X133644807Y-55744164D01*
X133665080Y-55950000D01*
X133644807Y-56155836D01*
X133584767Y-56353762D01*
X133584766Y-56353765D01*
X133487268Y-56536170D01*
X133356055Y-56696055D01*
X133196170Y-56827268D01*
X133013765Y-56924766D01*
X133013762Y-56924767D01*
X132815836Y-56984807D01*
X132738707Y-56992403D01*
X132661580Y-57000000D01*
X132558420Y-57000000D01*
X132481293Y-56992403D01*
X132404164Y-56984807D01*
X132206238Y-56924767D01*
X132206235Y-56924766D01*
X132023830Y-56827268D01*
X131863945Y-56696055D01*
X131732732Y-56536170D01*
X131635234Y-56353765D01*
X131635233Y-56353762D01*
X131575193Y-56155836D01*
X131554920Y-55950000D01*
X131575193Y-55744164D01*
X131635233Y-55546238D01*
X131635234Y-55546235D01*
X131732732Y-55363830D01*
X131863945Y-55203945D01*
X132023830Y-55072732D01*
X132206235Y-54975234D01*
X132206238Y-54975233D01*
X132404164Y-54915193D01*
X132481293Y-54907596D01*
X132558420Y-54900000D01*
X132661580Y-54900000D01*
X132738707Y-54907596D01*
X132738707Y-54907596D01*
G37*
G36*
X130198707Y-54907596D02*
G01*
X130275836Y-54915193D01*
X130473762Y-54975233D01*
X130473765Y-54975234D01*
X130656170Y-55072732D01*
X130816055Y-55203945D01*
X130947268Y-55363830D01*
X131044766Y-55546235D01*
X131044767Y-55546238D01*
X131104807Y-55744164D01*
X131125080Y-55950000D01*
X131104807Y-56155836D01*
X131044767Y-56353762D01*
X131044766Y-56353765D01*
X130947268Y-56536170D01*
X130816055Y-56696055D01*
X130656170Y-56827268D01*
X130473765Y-56924766D01*
X130473762Y-56924767D01*
X130275836Y-56984807D01*
X130198707Y-56992403D01*
X130121580Y-57000000D01*
X130018420Y-57000000D01*
X129941293Y-56992403D01*
X129864164Y-56984807D01*
X129666238Y-56924767D01*
X129666235Y-56924766D01*
X129483830Y-56827268D01*
X129323945Y-56696055D01*
X129192732Y-56536170D01*
X129095234Y-56353765D01*
X129095233Y-56353762D01*
X129035193Y-56155836D01*
X129014920Y-55950000D01*
X129035193Y-55744164D01*
X129095233Y-55546238D01*
X129095234Y-55546235D01*
X129192732Y-55363830D01*
X129323945Y-55203945D01*
X129483830Y-55072732D01*
X129666235Y-54975234D01*
X129666238Y-54975233D01*
X129864164Y-54915193D01*
X129941293Y-54907596D01*
X130018420Y-54900000D01*
X130121580Y-54900000D01*
X130198707Y-54907596D01*
X130198707Y-54907596D01*
G37*
G36*
X127658707Y-54907596D02*
G01*
X127735836Y-54915193D01*
X127933762Y-54975233D01*
X127933765Y-54975234D01*
X128116170Y-55072732D01*
X128276055Y-55203945D01*
X128407268Y-55363830D01*
X128504766Y-55546235D01*
X128504767Y-55546238D01*
X128564807Y-55744164D01*
X128585080Y-55950000D01*
X128564807Y-56155836D01*
X128504767Y-56353762D01*
X128504766Y-56353765D01*
X128407268Y-56536170D01*
X128276055Y-56696055D01*
X128116170Y-56827268D01*
X127933765Y-56924766D01*
X127933762Y-56924767D01*
X127735836Y-56984807D01*
X127658707Y-56992403D01*
X127581580Y-57000000D01*
X127478420Y-57000000D01*
X127401293Y-56992403D01*
X127324164Y-56984807D01*
X127126238Y-56924767D01*
X127126235Y-56924766D01*
X126943830Y-56827268D01*
X126783945Y-56696055D01*
X126652732Y-56536170D01*
X126555234Y-56353765D01*
X126555233Y-56353762D01*
X126495193Y-56155836D01*
X126474920Y-55950000D01*
X126495193Y-55744164D01*
X126555233Y-55546238D01*
X126555234Y-55546235D01*
X126652732Y-55363830D01*
X126783945Y-55203945D01*
X126943830Y-55072732D01*
X127126235Y-54975234D01*
X127126238Y-54975233D01*
X127324164Y-54915193D01*
X127401293Y-54907596D01*
X127478420Y-54900000D01*
X127581580Y-54900000D01*
X127658707Y-54907596D01*
X127658707Y-54907596D01*
G37*
G36*
X125118707Y-54907596D02*
G01*
X125195836Y-54915193D01*
X125393762Y-54975233D01*
X125393765Y-54975234D01*
X125576170Y-55072732D01*
X125736055Y-55203945D01*
X125867268Y-55363830D01*
X125964766Y-55546235D01*
X125964767Y-55546238D01*
X126024807Y-55744164D01*
X126045080Y-55950000D01*
X126024807Y-56155836D01*
X125964767Y-56353762D01*
X125964766Y-56353765D01*
X125867268Y-56536170D01*
X125736055Y-56696055D01*
X125576170Y-56827268D01*
X125393765Y-56924766D01*
X125393762Y-56924767D01*
X125195836Y-56984807D01*
X125118707Y-56992403D01*
X125041580Y-57000000D01*
X124938420Y-57000000D01*
X124861293Y-56992403D01*
X124784164Y-56984807D01*
X124586238Y-56924767D01*
X124586235Y-56924766D01*
X124403830Y-56827268D01*
X124243945Y-56696055D01*
X124112732Y-56536170D01*
X124015234Y-56353765D01*
X124015233Y-56353762D01*
X123955193Y-56155836D01*
X123934920Y-55950000D01*
X123955193Y-55744164D01*
X124015233Y-55546238D01*
X124015234Y-55546235D01*
X124112732Y-55363830D01*
X124243945Y-55203945D01*
X124403830Y-55072732D01*
X124586235Y-54975234D01*
X124586238Y-54975233D01*
X124784164Y-54915193D01*
X124861293Y-54907596D01*
X124938420Y-54900000D01*
X125041580Y-54900000D01*
X125118707Y-54907596D01*
X125118707Y-54907596D01*
G37*
G36*
X122578707Y-54907596D02*
G01*
X122655836Y-54915193D01*
X122853762Y-54975233D01*
X122853765Y-54975234D01*
X123036170Y-55072732D01*
X123196055Y-55203945D01*
X123327268Y-55363830D01*
X123424766Y-55546235D01*
X123424767Y-55546238D01*
X123484807Y-55744164D01*
X123505080Y-55950000D01*
X123484807Y-56155836D01*
X123424767Y-56353762D01*
X123424766Y-56353765D01*
X123327268Y-56536170D01*
X123196055Y-56696055D01*
X123036170Y-56827268D01*
X122853765Y-56924766D01*
X122853762Y-56924767D01*
X122655836Y-56984807D01*
X122578707Y-56992403D01*
X122501580Y-57000000D01*
X122398420Y-57000000D01*
X122321293Y-56992403D01*
X122244164Y-56984807D01*
X122046238Y-56924767D01*
X122046235Y-56924766D01*
X121863830Y-56827268D01*
X121703945Y-56696055D01*
X121572732Y-56536170D01*
X121475234Y-56353765D01*
X121475233Y-56353762D01*
X121415193Y-56155836D01*
X121394920Y-55950000D01*
X121415193Y-55744164D01*
X121475233Y-55546238D01*
X121475234Y-55546235D01*
X121572732Y-55363830D01*
X121703945Y-55203945D01*
X121863830Y-55072732D01*
X122046235Y-54975234D01*
X122046238Y-54975233D01*
X122244164Y-54915193D01*
X122321293Y-54907596D01*
X122398420Y-54900000D01*
X122501580Y-54900000D01*
X122578707Y-54907596D01*
X122578707Y-54907596D01*
G37*
G36*
X147351163Y-51234587D02*
G01*
X147525041Y-51269173D01*
X147852620Y-51404861D01*
X148147433Y-51601849D01*
X148398151Y-51852567D01*
X148595139Y-52147380D01*
X148730827Y-52474959D01*
X148800000Y-52822716D01*
X148800000Y-53177284D01*
X148730827Y-53525041D01*
X148595139Y-53852620D01*
X148398151Y-54147433D01*
X148147433Y-54398151D01*
X147852620Y-54595139D01*
X147525041Y-54730827D01*
X147351162Y-54765414D01*
X147177286Y-54800000D01*
X146822714Y-54800000D01*
X146648838Y-54765414D01*
X146474959Y-54730827D01*
X146147380Y-54595139D01*
X145852567Y-54398151D01*
X145601849Y-54147433D01*
X145404861Y-53852620D01*
X145269173Y-53525041D01*
X145200000Y-53177284D01*
X145200000Y-52822716D01*
X145269173Y-52474959D01*
X145404861Y-52147380D01*
X145601849Y-51852567D01*
X145852567Y-51601849D01*
X146147380Y-51404861D01*
X146474959Y-51269173D01*
X146648837Y-51234587D01*
X146822714Y-51200000D01*
X147177286Y-51200000D01*
X147351163Y-51234587D01*
X147351163Y-51234587D01*
G37*
G36*
X103351163Y-51234587D02*
G01*
X103525041Y-51269173D01*
X103852620Y-51404861D01*
X104147433Y-51601849D01*
X104398151Y-51852567D01*
X104595139Y-52147380D01*
X104730827Y-52474959D01*
X104800000Y-52822716D01*
X104800000Y-53177284D01*
X104730827Y-53525041D01*
X104595139Y-53852620D01*
X104398151Y-54147433D01*
X104147433Y-54398151D01*
X103852620Y-54595139D01*
X103525041Y-54730827D01*
X103351162Y-54765414D01*
X103177286Y-54800000D01*
X102822714Y-54800000D01*
X102648838Y-54765414D01*
X102474959Y-54730827D01*
X102147380Y-54595139D01*
X101852567Y-54398151D01*
X101601849Y-54147433D01*
X101404861Y-53852620D01*
X101269173Y-53525041D01*
X101200000Y-53177284D01*
X101200000Y-52822716D01*
X101269173Y-52474959D01*
X101404861Y-52147380D01*
X101601849Y-51852567D01*
X101852567Y-51601849D01*
X102147380Y-51404861D01*
X102474959Y-51269173D01*
X102648837Y-51234587D01*
X102822714Y-51200000D01*
X103177286Y-51200000D01*
X103351163Y-51234587D01*
X103351163Y-51234587D01*
G37*
G36*
X107379196Y-51749958D02*
G01*
X107615781Y-51847955D01*
X107828702Y-51990224D01*
X108009776Y-52171298D01*
X108152045Y-52384219D01*
X108250042Y-52620804D01*
X108300000Y-52871961D01*
X108300000Y-53128039D01*
X108250042Y-53379196D01*
X108152045Y-53615781D01*
X108009776Y-53828702D01*
X107828702Y-54009776D01*
X107615781Y-54152045D01*
X107379196Y-54250042D01*
X107128040Y-54300000D01*
X106871960Y-54300000D01*
X106620804Y-54250042D01*
X106384219Y-54152045D01*
X106171298Y-54009776D01*
X105990224Y-53828702D01*
X105847955Y-53615781D01*
X105749958Y-53379196D01*
X105700000Y-53128039D01*
X105700000Y-52871961D01*
X105749958Y-52620804D01*
X105847955Y-52384219D01*
X105990224Y-52171298D01*
X106171298Y-51990224D01*
X106384219Y-51847955D01*
X106620804Y-51749958D01*
X106871960Y-51700000D01*
X107128040Y-51700000D01*
X107379196Y-51749958D01*
X107379196Y-51749958D01*
G37*
G36*
X143379196Y-51749958D02*
G01*
X143615781Y-51847955D01*
X143828702Y-51990224D01*
X144009776Y-52171298D01*
X144152045Y-52384219D01*
X144250042Y-52620804D01*
X144300000Y-52871961D01*
X144300000Y-53128039D01*
X144250042Y-53379196D01*
X144152045Y-53615781D01*
X144009776Y-53828702D01*
X143828702Y-54009776D01*
X143615781Y-54152045D01*
X143379196Y-54250042D01*
X143128040Y-54300000D01*
X142871960Y-54300000D01*
X142620804Y-54250042D01*
X142384219Y-54152045D01*
X142171298Y-54009776D01*
X141990224Y-53828702D01*
X141847955Y-53615781D01*
X141749958Y-53379196D01*
X141700000Y-53128039D01*
X141700000Y-52871961D01*
X141749958Y-52620804D01*
X141847955Y-52384219D01*
X141990224Y-52171298D01*
X142171298Y-51990224D01*
X142384219Y-51847955D01*
X142620804Y-51749958D01*
X142871960Y-51700000D01*
X143128040Y-51700000D01*
X143379196Y-51749958D01*
X143379196Y-51749958D01*
G37*
M02*
