G04 #@! TF.GenerationSoftware,KiCad,Pcbnew,5.0.2-bee76a0~70~ubuntu18.04.1*
G04 #@! TF.CreationDate,2019-05-12T18:16:14+09:00*
G04 #@! TF.ProjectId,bottom_pcb,626f7474-6f6d-45f7-9063-622e6b696361,rev?*
G04 #@! TF.SameCoordinates,Original*
G04 #@! TF.FileFunction,Paste,Bot*
G04 #@! TF.FilePolarity,Positive*
%FSLAX46Y46*%
G04 Gerber Fmt 4.6, Leading zero omitted, Abs format (unit mm)*
G04 Created by KiCad (PCBNEW 5.0.2-bee76a0~70~ubuntu18.04.1) date 2019年05月12日 18時16分14秒*
%MOMM*%
%LPD*%
G01*
G04 APERTURE LIST*
%ADD10R,1.800000X1.000000*%
%ADD11R,2.200000X1.800000*%
%ADD12R,1.300000X0.300000*%
G04 APERTURE END LIST*
D10*
G04 #@! TO.C,J4*
X141654000Y-57220000D03*
X146494000Y-57220000D03*
X141654000Y-59760000D03*
X146594000Y-59760000D03*
X141654000Y-62300000D03*
X146494000Y-62300000D03*
X141654000Y-64840000D03*
X146494000Y-64840000D03*
X141654000Y-67380000D03*
X146494000Y-67380000D03*
X141654000Y-69920000D03*
X146494000Y-69920000D03*
X141654000Y-72460000D03*
X146494000Y-72460000D03*
X141654000Y-75000000D03*
X146494000Y-75000000D03*
X141654000Y-77540000D03*
X146494000Y-77540000D03*
X141654000Y-80080000D03*
X146494000Y-80080000D03*
X141654000Y-82620000D03*
X146494000Y-82620000D03*
X141654000Y-85160000D03*
X146494000Y-85160000D03*
X141654000Y-87700000D03*
X146494000Y-87700000D03*
X141654000Y-90240000D03*
X146494000Y-90240000D03*
X141654000Y-92780000D03*
X146494000Y-92780000D03*
G04 #@! TD*
D11*
G04 #@! TO.C,J3*
X133449000Y-65043400D03*
X133449000Y-83343400D03*
D12*
X136699000Y-81443400D03*
X136699000Y-80943400D03*
X136699000Y-80443400D03*
X136699000Y-79943400D03*
X136699000Y-79443400D03*
X136699000Y-78943400D03*
X136699000Y-78443400D03*
X136699000Y-77943400D03*
X136699000Y-77443400D03*
X136699000Y-76943400D03*
X136699000Y-76443400D03*
X136699000Y-75943400D03*
X136699000Y-75443400D03*
X136699000Y-74943400D03*
X136699000Y-74443400D03*
X136699000Y-73943400D03*
X136699000Y-73443400D03*
X136699000Y-72943400D03*
X136699000Y-72443400D03*
X136699000Y-71943400D03*
X136699000Y-71443400D03*
X136699000Y-70943400D03*
X136699000Y-70443400D03*
X136699000Y-69943400D03*
X136699000Y-69443400D03*
X136699000Y-68943400D03*
X136699000Y-68443400D03*
X136699000Y-67943400D03*
X136699000Y-67443400D03*
X136699000Y-66943400D03*
G04 #@! TD*
M02*
