M48
;DRILL file {KiCad 5.0.2-bee76a0~70~ubuntu18.04.1} date 2019年05月12日 18時16分18秒
;FORMAT={-:-/ absolute / metric / decimal}
FMAT,2
METRIC,TZ
T1C0.400
T2C1.000
%
G90
G05
T1
X105.753Y-55.232
X105.753Y-94.805
X135.215Y-75.193
X138.671Y-75.276
X143.184Y-64.716
X144.074Y-79.641
X144.074Y-86.114
X144.31Y-55.156
X144.323Y-94.932
X144.967Y-82.842
T2
X109.75Y-94.05
X112.29Y-94.05
X114.83Y-94.05
X117.37Y-94.05
X119.91Y-94.05
X122.45Y-94.05
X124.99Y-94.05
X127.53Y-94.05
X130.07Y-94.05
X132.61Y-94.05
X135.15Y-94.05
X137.69Y-94.05
X140.23Y-94.05
X109.75Y-55.95
X112.29Y-55.95
X114.83Y-55.95
X117.37Y-55.95
X119.91Y-55.95
X122.45Y-55.95
X124.99Y-55.95
X127.53Y-55.95
X130.07Y-55.95
X132.61Y-55.95
X135.15Y-55.95
X137.69Y-55.95
X140.23Y-55.95
T0
M30
