M48
; DRILL file {KiCad 5.1.2-f72e74a~84~ubuntu18.04.1} date 2019年07月12日 15時11分04秒
; FORMAT={-:-/ absolute / metric / decimal}
; #@! TF.CreationDate,2019-07-12T15:11:04+09:00
; #@! TF.GenerationSoftware,Kicad,Pcbnew,5.1.2-f72e74a~84~ubuntu18.04.1
; #@! TF.FileFunction,Plated,1,2,PTH
FMAT,2
METRIC
T1C0.400
T2C1.000
%
G90
G05
T1
X105.399Y-55.123
X105.449Y-94.733
X120.489Y-83.973
X125.499Y-81.643
X128.139Y-74.633
X135.339Y-76.0
X138.338Y-75.809
X140.013Y-87.113
X140.132Y-67.358
X144.367Y-95.075
X144.689Y-54.743
X144.83Y-79.641
T2
X109.75Y-55.95
X112.29Y-55.95
X114.83Y-55.95
X117.37Y-55.95
X119.91Y-55.95
X122.45Y-55.95
X124.99Y-55.95
X127.53Y-55.95
X130.07Y-55.95
X132.61Y-55.95
X135.15Y-55.95
X137.69Y-55.95
X140.23Y-55.95
X109.75Y-94.05
X112.29Y-94.05
X114.83Y-94.05
X117.37Y-94.05
X119.91Y-94.05
X122.45Y-94.05
X124.99Y-94.05
X127.53Y-94.05
X130.07Y-94.05
X132.61Y-94.05
X135.15Y-94.05
X137.69Y-94.05
X140.23Y-94.05
T0
M30
