G04 #@! TF.GenerationSoftware,KiCad,Pcbnew,5.1.2-f72e74a~84~ubuntu18.04.1*
G04 #@! TF.CreationDate,2019-07-12T15:11:00+09:00*
G04 #@! TF.ProjectId,bottom_pcb,626f7474-6f6d-45f7-9063-622e6b696361,rev?*
G04 #@! TF.SameCoordinates,Original*
G04 #@! TF.FileFunction,Copper,L2,Bot*
G04 #@! TF.FilePolarity,Positive*
%FSLAX46Y46*%
G04 Gerber Fmt 4.6, Leading zero omitted, Abs format (unit mm)*
G04 Created by KiCad (PCBNEW 5.1.2-f72e74a~84~ubuntu18.04.1) date 2019-07-12 15:11:00*
%MOMM*%
%LPD*%
G04 APERTURE LIST*
%ADD10R,1.800000X1.000000*%
%ADD11O,1.700000X1.700000*%
%ADD12R,1.700000X1.700000*%
%ADD13R,2.200000X1.800000*%
%ADD14R,1.300000X0.300000*%
%ADD15C,0.800000*%
%ADD16C,0.250000*%
%ADD17C,0.254000*%
G04 APERTURE END LIST*
D10*
X141654000Y-57220000D03*
X146494000Y-57220000D03*
X141654000Y-59760000D03*
X146594000Y-59760000D03*
X141654000Y-62300000D03*
X146494000Y-62300000D03*
X141654000Y-64840000D03*
X146494000Y-64840000D03*
X141654000Y-67380000D03*
X146494000Y-67380000D03*
X141654000Y-69920000D03*
X146494000Y-69920000D03*
X141654000Y-72460000D03*
X146494000Y-72460000D03*
X141654000Y-75000000D03*
X146494000Y-75000000D03*
X141654000Y-77540000D03*
X146494000Y-77540000D03*
X141654000Y-80080000D03*
X146494000Y-80080000D03*
X141654000Y-82620000D03*
X146494000Y-82620000D03*
X141654000Y-85160000D03*
X146494000Y-85160000D03*
X141654000Y-87700000D03*
X146494000Y-87700000D03*
X141654000Y-90240000D03*
X146494000Y-90240000D03*
X141654000Y-92780000D03*
X146494000Y-92780000D03*
D11*
X140230000Y-55950000D03*
X137690000Y-55950000D03*
X135150000Y-55950000D03*
X132610000Y-55950000D03*
X130070000Y-55950000D03*
X127530000Y-55950000D03*
X124990000Y-55950000D03*
X122450000Y-55950000D03*
X119910000Y-55950000D03*
X117370000Y-55950000D03*
X114830000Y-55950000D03*
X112290000Y-55950000D03*
D12*
X109750000Y-55950000D03*
D11*
X140230000Y-94050000D03*
X137690000Y-94050000D03*
X135150000Y-94050000D03*
X132610000Y-94050000D03*
X130070000Y-94050000D03*
X127530000Y-94050000D03*
X124990000Y-94050000D03*
X122450000Y-94050000D03*
X119910000Y-94050000D03*
X117370000Y-94050000D03*
X114830000Y-94050000D03*
X112290000Y-94050000D03*
D12*
X109750000Y-94050000D03*
D13*
X133449000Y-65850000D03*
X133449000Y-84150000D03*
D14*
X136699000Y-82250000D03*
X136699000Y-81750000D03*
X136699000Y-81250000D03*
X136699000Y-80750000D03*
X136699000Y-80250000D03*
X136699000Y-79750000D03*
X136699000Y-79250000D03*
X136699000Y-78750000D03*
X136699000Y-78250000D03*
X136699000Y-77750000D03*
X136699000Y-77250000D03*
X136699000Y-76750000D03*
X136699000Y-76250000D03*
X136699000Y-75750000D03*
X136699000Y-75250000D03*
X136699000Y-74750000D03*
X136699000Y-74250000D03*
X136699000Y-73750000D03*
X136699000Y-73250000D03*
X136699000Y-72750000D03*
X136699000Y-72250000D03*
X136699000Y-71750000D03*
X136699000Y-71250000D03*
X136699000Y-70750000D03*
X136699000Y-70250000D03*
X136699000Y-69750000D03*
X136699000Y-69250000D03*
X136699000Y-68750000D03*
X136699000Y-68250000D03*
X136699000Y-67750000D03*
D15*
X144688800Y-54743200D03*
X105398800Y-55123200D03*
X105448800Y-94733200D03*
X144367000Y-95075000D03*
X128138800Y-74633200D03*
X125498800Y-81643200D03*
X120488800Y-83973200D03*
X135338700Y-76000000D03*
X144829800Y-79641100D03*
X140012800Y-87112800D03*
X138337700Y-75809000D03*
X140131700Y-67358300D03*
D16*
X133785300Y-94050000D02*
X133785300Y-94417300D01*
X133785300Y-94417300D02*
X135114200Y-95746200D01*
X135114200Y-95746200D02*
X141684100Y-95746200D01*
X141684100Y-95746200D02*
X142355300Y-95075000D01*
X146131200Y-95075000D02*
X147773900Y-93432300D01*
X147773900Y-93432300D02*
X147773900Y-62967200D01*
X147773900Y-62967200D02*
X147106700Y-62300000D01*
X132610000Y-94050000D02*
X133785300Y-94050000D01*
X147106700Y-62300000D02*
X147819300Y-61587400D01*
X147819300Y-61587400D02*
X147819300Y-59760000D01*
X146494000Y-62300000D02*
X145268700Y-62300000D01*
X137674300Y-68340800D02*
X139873000Y-66142100D01*
X139873000Y-66142100D02*
X142251900Y-66142100D01*
X142251900Y-66142100D02*
X145268700Y-63125300D01*
X145268700Y-63125300D02*
X145268700Y-62300000D01*
X137583500Y-68250000D02*
X137674300Y-68340800D01*
X137674300Y-68340800D02*
X137674300Y-69250000D01*
X136699000Y-68250000D02*
X137583500Y-68250000D01*
X136699000Y-70250000D02*
X137674300Y-70250000D01*
X137674300Y-69250000D02*
X137674300Y-70250000D01*
X136699000Y-69250000D02*
X137674300Y-69250000D01*
X146494000Y-57220000D02*
X147719300Y-57220000D01*
X147206700Y-59760000D02*
X147719300Y-59247400D01*
X147719300Y-59247400D02*
X147719300Y-57220000D01*
X147206700Y-59760000D02*
X147819300Y-59760000D01*
X146594000Y-59760000D02*
X147206700Y-59760000D01*
X146494000Y-62300000D02*
X147106700Y-62300000D01*
X144688800Y-55814800D02*
X144688800Y-54743200D01*
X146494000Y-57220000D02*
X146094000Y-57220000D01*
X146094000Y-57220000D02*
X144688800Y-55814800D01*
X105398800Y-94683200D02*
X105448800Y-94733200D01*
X145240600Y-95075000D02*
X144367000Y-95075000D01*
X145240600Y-95075000D02*
X146131200Y-95075000D01*
X142355300Y-95075000D02*
X145240600Y-95075000D01*
X128058800Y-74553200D02*
X128138800Y-74633200D01*
X105398800Y-74553200D02*
X105398800Y-94683200D01*
X121995700Y-63033200D02*
X105398800Y-63033200D01*
X128138800Y-69176300D02*
X121995700Y-63033200D01*
X128138800Y-74633200D02*
X128138800Y-69176300D01*
X105398800Y-55123200D02*
X105398800Y-63033200D01*
X105398800Y-63033200D02*
X105398800Y-74553200D01*
X128138800Y-74633200D02*
X128138800Y-79003200D01*
X128138800Y-79003200D02*
X125498800Y-81643200D01*
X105448800Y-94733200D02*
X105448800Y-92003200D01*
X105448800Y-92003200D02*
X113478800Y-83973200D01*
X113478800Y-83973200D02*
X120488800Y-83973200D01*
X145268700Y-64840000D02*
X145268700Y-65665300D01*
X145268700Y-65665300D02*
X142289600Y-68644400D01*
X142289600Y-68644400D02*
X140279900Y-68644400D01*
X140279900Y-68644400D02*
X137674300Y-71250000D01*
X127530000Y-55950000D02*
X128705300Y-55950000D01*
X128705300Y-55950000D02*
X128705300Y-55582700D01*
X128705300Y-55582700D02*
X129536400Y-54751600D01*
X129536400Y-54751600D02*
X130573900Y-54751600D01*
X130573900Y-54751600D02*
X131266600Y-55444300D01*
X131266600Y-55444300D02*
X131266600Y-66974600D01*
X131266600Y-66974600D02*
X135542000Y-71250000D01*
X135542000Y-71250000D02*
X136699000Y-71250000D01*
X146494000Y-64840000D02*
X145268700Y-64840000D01*
X136699000Y-71250000D02*
X137674300Y-71250000D01*
X135723700Y-72250000D02*
X135166600Y-72250000D01*
X135166600Y-72250000D02*
X124990000Y-62073400D01*
X124990000Y-62073400D02*
X124990000Y-57125300D01*
X145268700Y-67380000D02*
X143554000Y-69094700D01*
X143554000Y-69094700D02*
X140617100Y-69094700D01*
X140617100Y-69094700D02*
X137461800Y-72250000D01*
X137461800Y-72250000D02*
X136699000Y-72250000D01*
X124990000Y-55950000D02*
X124990000Y-57125300D01*
X146494000Y-67380000D02*
X145268700Y-67380000D01*
X136211400Y-72250000D02*
X136699000Y-72250000D01*
X136211400Y-72250000D02*
X135723700Y-72250000D01*
X122450000Y-55950000D02*
X122450000Y-60807200D01*
X122450000Y-60807200D02*
X134892800Y-73250000D01*
X134892800Y-73250000D02*
X136699000Y-73250000D01*
X146494000Y-69920000D02*
X145268700Y-69920000D01*
X136699000Y-73250000D02*
X138584100Y-73250000D01*
X138584100Y-73250000D02*
X141088800Y-70745300D01*
X141088800Y-70745300D02*
X144443400Y-70745300D01*
X144443400Y-70745300D02*
X145268700Y-69920000D01*
X136699000Y-74250000D02*
X137573900Y-74250000D01*
X137573900Y-74250000D02*
X137640900Y-74183000D01*
X137640900Y-74183000D02*
X137837700Y-74183000D01*
X137837700Y-74183000D02*
X137860900Y-74159800D01*
X137860900Y-74159800D02*
X143568900Y-74159800D01*
X143568900Y-74159800D02*
X145268700Y-72460000D01*
X117370000Y-55950000D02*
X117370000Y-57125300D01*
X117370000Y-57125300D02*
X134494700Y-74250000D01*
X134494700Y-74250000D02*
X136699000Y-74250000D01*
X146494000Y-72460000D02*
X145268700Y-72460000D01*
X145268700Y-75000000D02*
X144443400Y-75825300D01*
X144443400Y-75825300D02*
X139403100Y-75825300D01*
X139403100Y-75825300D02*
X138661400Y-75083600D01*
X138661400Y-75083600D02*
X138014100Y-75083600D01*
X138014100Y-75083600D02*
X137847700Y-75250000D01*
X137847700Y-75250000D02*
X136699000Y-75250000D01*
X146494000Y-75000000D02*
X145268700Y-75000000D01*
X135015698Y-75250000D02*
X124252498Y-86013200D01*
X136699000Y-75250000D02*
X135015698Y-75250000D01*
X120326800Y-86013200D02*
X112290000Y-94050000D01*
X124252498Y-86013200D02*
X120326800Y-86013200D01*
X145268700Y-77540000D02*
X144443400Y-78365300D01*
X144443400Y-78365300D02*
X140258900Y-78365300D01*
X140258900Y-78365300D02*
X138892100Y-76998500D01*
X138892100Y-76998500D02*
X138422800Y-76998500D01*
X138422800Y-76998500D02*
X137674300Y-76250000D01*
X136699000Y-76250000D02*
X137674300Y-76250000D01*
X136699000Y-76250000D02*
X135588700Y-76250000D01*
X135588700Y-76250000D02*
X135338700Y-76000000D01*
X146494000Y-77540000D02*
X145268700Y-77540000D01*
X144829800Y-79641100D02*
X145268700Y-80080000D01*
X146494000Y-80080000D02*
X145268700Y-80080000D01*
X117370000Y-94050000D02*
X118545300Y-94050000D01*
X118545300Y-94050000D02*
X118545300Y-93318900D01*
X118545300Y-93318900D02*
X134614200Y-77250000D01*
X134614200Y-77250000D02*
X136699000Y-77250000D01*
X136699000Y-78250000D02*
X134934200Y-78250000D01*
X134934200Y-78250000D02*
X122450000Y-90734200D01*
X122450000Y-90734200D02*
X122450000Y-92874700D01*
X145268700Y-82620000D02*
X144443400Y-83445300D01*
X144443400Y-83445300D02*
X140616800Y-83445300D01*
X140616800Y-83445300D02*
X139475500Y-82304000D01*
X139475500Y-82304000D02*
X139475500Y-79731400D01*
X139475500Y-79731400D02*
X138093500Y-78349400D01*
X138093500Y-78349400D02*
X137695400Y-78349400D01*
X137695400Y-78349400D02*
X137596000Y-78250000D01*
X137596000Y-78250000D02*
X136699000Y-78250000D01*
X146494000Y-82620000D02*
X145268700Y-82620000D01*
X122450000Y-94050000D02*
X122450000Y-92874700D01*
X127530000Y-94050000D02*
X127530000Y-92874700D01*
X135723700Y-79250000D02*
X135246000Y-79250000D01*
X135246000Y-79250000D02*
X127530000Y-86966000D01*
X127530000Y-86966000D02*
X127530000Y-92874700D01*
X146494000Y-85160000D02*
X145268700Y-85160000D01*
X136699000Y-79250000D02*
X137674300Y-79250000D01*
X145268700Y-85160000D02*
X144443300Y-85985400D01*
X144443300Y-85985400D02*
X140548200Y-85985400D01*
X140548200Y-85985400D02*
X138124600Y-83561800D01*
X138124600Y-83561800D02*
X138124600Y-79700300D01*
X138124600Y-79700300D02*
X137674300Y-79250000D01*
X136699000Y-79250000D02*
X135723700Y-79250000D01*
X137186900Y-82250000D02*
X137186900Y-83261000D01*
X137186900Y-83261000D02*
X140439200Y-86513300D01*
X140439200Y-86513300D02*
X143469300Y-86513300D01*
X143469300Y-86513300D02*
X145268700Y-88312700D01*
X145268700Y-88312700D02*
X145268700Y-90240000D01*
X145881400Y-87700000D02*
X145268700Y-88312700D01*
X137186900Y-82250000D02*
X137674300Y-82250000D01*
X136699000Y-82250000D02*
X137186700Y-82250000D01*
X137186700Y-82250000D02*
X137186900Y-82250000D01*
X137674300Y-81250000D02*
X137674300Y-82250000D01*
X137561700Y-81250000D02*
X137674300Y-81250000D01*
X136699000Y-81250000D02*
X137561700Y-81250000D01*
X136699000Y-80250000D02*
X137674300Y-80250000D01*
X137674300Y-80250000D02*
X137674300Y-81250000D01*
X146374300Y-90240000D02*
X145268700Y-90240000D01*
X146494000Y-90240000D02*
X146374300Y-90240000D01*
X146308000Y-92780000D02*
X146374300Y-92713700D01*
X146374300Y-92713700D02*
X146374300Y-90240000D01*
X146308000Y-92780000D02*
X145268700Y-92780000D01*
X146494000Y-92780000D02*
X146308000Y-92780000D01*
X137690000Y-94050000D02*
X138865300Y-94050000D01*
X138865300Y-94050000D02*
X138865300Y-94417300D01*
X138865300Y-94417300D02*
X139688900Y-95240900D01*
X139688900Y-95240900D02*
X141054000Y-95240900D01*
X141054000Y-95240900D02*
X142689600Y-93605300D01*
X142689600Y-93605300D02*
X144443400Y-93605300D01*
X144443400Y-93605300D02*
X145268700Y-92780000D01*
X146494000Y-87700000D02*
X145881400Y-87700000D01*
X135723700Y-81750000D02*
X135723700Y-83849400D01*
X135723700Y-83849400D02*
X140664500Y-88790200D01*
X140664500Y-88790200D02*
X142097000Y-88790200D01*
X142097000Y-88790200D02*
X142879300Y-89572500D01*
X142879300Y-89572500D02*
X142879300Y-92780000D01*
X141654000Y-92780000D02*
X142879300Y-92780000D01*
X136699000Y-81750000D02*
X135723700Y-81750000D01*
X140230000Y-94050000D02*
X140230000Y-92874700D01*
X141654000Y-92780000D02*
X140428700Y-92780000D01*
X140428700Y-92780000D02*
X140334000Y-92874700D01*
X140334000Y-92874700D02*
X140230000Y-92874700D01*
X135723700Y-80750000D02*
X135273400Y-81200300D01*
X135273400Y-81200300D02*
X135273400Y-87728700D01*
X135273400Y-87728700D02*
X137784700Y-90240000D01*
X136699000Y-80750000D02*
X135723700Y-80750000D01*
X137784700Y-90240000D02*
X135150000Y-92874700D01*
X140428700Y-90240000D02*
X137784700Y-90240000D01*
X135150000Y-94050000D02*
X135150000Y-92874700D01*
X141654000Y-90240000D02*
X140428700Y-90240000D01*
X130070000Y-94050000D02*
X130070000Y-92874700D01*
X136699000Y-79750000D02*
X135382900Y-79750000D01*
X135382900Y-79750000D02*
X130070000Y-85062900D01*
X130070000Y-85062900D02*
X130070000Y-92874700D01*
X140428700Y-87700000D02*
X140428700Y-87528700D01*
X140428700Y-87528700D02*
X140012800Y-87112800D01*
X141654000Y-87700000D02*
X140428700Y-87700000D01*
X136699000Y-78774700D02*
X135066200Y-78774700D01*
X135066200Y-78774700D02*
X124990000Y-88850900D01*
X124990000Y-88850900D02*
X124990000Y-92874700D01*
X140428700Y-85160000D02*
X138761600Y-83492900D01*
X138761600Y-83492900D02*
X138761600Y-79654400D01*
X138761600Y-79654400D02*
X137906900Y-78799700D01*
X137906900Y-78799700D02*
X137508800Y-78799700D01*
X137508800Y-78799700D02*
X137483800Y-78774700D01*
X137483800Y-78774700D02*
X136699000Y-78774700D01*
X141654000Y-85160000D02*
X140428700Y-85160000D01*
X136699000Y-78750000D02*
X136699000Y-78774700D01*
X124990000Y-94050000D02*
X124990000Y-92874700D01*
X135723700Y-77750000D02*
X134765700Y-77750000D01*
X134765700Y-77750000D02*
X119910000Y-92605700D01*
X119910000Y-92605700D02*
X119910000Y-92874700D01*
X140428700Y-82620000D02*
X139925800Y-82117100D01*
X139925800Y-82117100D02*
X139925800Y-79544800D01*
X139925800Y-79544800D02*
X138280100Y-77899100D01*
X138280100Y-77899100D02*
X137882000Y-77899100D01*
X137882000Y-77899100D02*
X137732900Y-77750000D01*
X137732900Y-77750000D02*
X137674300Y-77750000D01*
X141654000Y-82620000D02*
X140428700Y-82620000D01*
X136699000Y-77750000D02*
X137674300Y-77750000D01*
X136211400Y-77750000D02*
X136699000Y-77750000D01*
X136211400Y-77750000D02*
X135723700Y-77750000D01*
X119910000Y-94050000D02*
X119910000Y-92874700D01*
X140428700Y-80080000D02*
X140428700Y-79406700D01*
X140428700Y-79406700D02*
X138470800Y-77448800D01*
X138470800Y-77448800D02*
X138236100Y-77448800D01*
X138236100Y-77448800D02*
X137537300Y-76750000D01*
X137537300Y-76750000D02*
X136699000Y-76750000D01*
X141654000Y-80080000D02*
X140428700Y-80080000D01*
X134127109Y-76774999D02*
X124438898Y-86463210D01*
X136697001Y-76774999D02*
X134127109Y-76774999D01*
X136699000Y-76750000D02*
X136699000Y-76773000D01*
X136699000Y-76773000D02*
X136697001Y-76774999D01*
X122416790Y-86463210D02*
X114830000Y-94050000D01*
X124438898Y-86463210D02*
X122416790Y-86463210D01*
X141654000Y-77540000D02*
X140428700Y-77540000D01*
X140428700Y-77540000D02*
X138697700Y-75809000D01*
X138697700Y-75809000D02*
X138337700Y-75809000D01*
X137674300Y-75750000D02*
X138278700Y-75750000D01*
X138278700Y-75750000D02*
X138337700Y-75809000D01*
X136699000Y-75750000D02*
X137674300Y-75750000D01*
X136699000Y-74750000D02*
X137710800Y-74750000D01*
X137710800Y-74750000D02*
X137827500Y-74633300D01*
X137827500Y-74633300D02*
X140062000Y-74633300D01*
X140062000Y-74633300D02*
X140428700Y-75000000D01*
X141654000Y-75000000D02*
X140428700Y-75000000D01*
X134257521Y-74750000D02*
X123484321Y-85523200D01*
X136699000Y-74750000D02*
X134257521Y-74750000D01*
X109750000Y-92950000D02*
X109750000Y-94050000D01*
X117176800Y-85523200D02*
X109750000Y-92950000D01*
X123484321Y-85523200D02*
X117176800Y-85523200D01*
X119910000Y-55950000D02*
X119910000Y-58904100D01*
X119910000Y-58904100D02*
X134755900Y-73750000D01*
X134755900Y-73750000D02*
X135723700Y-73750000D01*
X141654000Y-72460000D02*
X140428700Y-72460000D01*
X136455200Y-73750000D02*
X136472500Y-73732700D01*
X136472500Y-73732700D02*
X137651100Y-73732700D01*
X137651100Y-73732700D02*
X137674400Y-73709400D01*
X137674400Y-73709400D02*
X139179300Y-73709400D01*
X139179300Y-73709400D02*
X140428700Y-72460000D01*
X136455200Y-73750000D02*
X135723700Y-73750000D01*
X136699000Y-73750000D02*
X136455200Y-73750000D01*
X140428700Y-67380000D02*
X140407000Y-67358300D01*
X140407000Y-67358300D02*
X140131700Y-67358300D01*
X130070000Y-55950000D02*
X130070000Y-57125300D01*
X130070000Y-57125300D02*
X130070000Y-66437100D01*
X130070000Y-66437100D02*
X135382900Y-71750000D01*
X135382900Y-71750000D02*
X136699000Y-71750000D01*
X141654000Y-67380000D02*
X140428700Y-67380000D01*
X142879300Y-64840000D02*
X144296500Y-63422800D01*
X144296500Y-63422800D02*
X144296500Y-62197500D01*
X144296500Y-62197500D02*
X144851800Y-61642200D01*
X144851800Y-61642200D02*
X144851800Y-58169400D01*
X144851800Y-58169400D02*
X141456000Y-54773600D01*
X141456000Y-54773600D02*
X134594400Y-54773600D01*
X134594400Y-54773600D02*
X133785300Y-55582700D01*
X133785300Y-55582700D02*
X133785300Y-55950000D01*
X132610000Y-55950000D02*
X132610000Y-57125300D01*
X136699000Y-70750000D02*
X135723700Y-70750000D01*
X135723700Y-70750000D02*
X132023600Y-67049900D01*
X132023600Y-67049900D02*
X132023600Y-57711700D01*
X132023600Y-57711700D02*
X132610000Y-57125300D01*
X132610000Y-55950000D02*
X133785300Y-55950000D01*
X141654000Y-64840000D02*
X142879300Y-64840000D01*
X135150000Y-55950000D02*
X135150000Y-57125300D01*
X140246100Y-62300000D02*
X141654000Y-62300000D01*
X135723700Y-69750000D02*
X135270100Y-69296400D01*
X135270100Y-69296400D02*
X135270100Y-67276000D01*
X135270100Y-67276000D02*
X140246100Y-62300000D01*
X135150000Y-57125300D02*
X140246100Y-62221400D01*
X140246100Y-62221400D02*
X140246100Y-62300000D01*
X136699000Y-69750000D02*
X135723700Y-69750000D01*
X141654000Y-59760000D02*
X140428700Y-59760000D01*
X141654000Y-59760000D02*
X142879300Y-59760000D01*
X136699000Y-68750000D02*
X135723700Y-68750000D01*
X135723700Y-68750000D02*
X135723700Y-67465200D01*
X135723700Y-67465200D02*
X139847300Y-63341600D01*
X139847300Y-63341600D02*
X142474600Y-63341600D01*
X142474600Y-63341600D02*
X142879300Y-62936900D01*
X142879300Y-62936900D02*
X142879300Y-59760000D01*
X137690000Y-57012700D02*
X140428700Y-59751400D01*
X140428700Y-59751400D02*
X140428700Y-59760000D01*
X137690000Y-55950000D02*
X137690000Y-57012700D01*
X141654000Y-57220000D02*
X142879300Y-57220000D01*
X136699000Y-67750000D02*
X140525100Y-63923900D01*
X140525100Y-63923900D02*
X142570100Y-63923900D01*
X142570100Y-63923900D02*
X143330100Y-63163900D01*
X143330100Y-63163900D02*
X143330100Y-58896100D01*
X143330100Y-58896100D02*
X142879300Y-58445300D01*
X142879300Y-58445300D02*
X142879300Y-57220000D01*
X140230000Y-55950000D02*
X140230000Y-57125300D01*
X140230000Y-57125300D02*
X140334000Y-57125300D01*
X140334000Y-57125300D02*
X140428700Y-57220000D01*
X141654000Y-57220000D02*
X140428700Y-57220000D01*
X109750000Y-55950000D02*
X110925300Y-55950000D01*
X110925300Y-55950000D02*
X110925300Y-55582700D01*
X110925300Y-55582700D02*
X111779600Y-54728400D01*
X111779600Y-54728400D02*
X122967100Y-54728400D01*
X122967100Y-54728400D02*
X123720000Y-55481300D01*
X123720000Y-55481300D02*
X123720000Y-61440300D01*
X123720000Y-61440300D02*
X135029700Y-72750000D01*
X135029700Y-72750000D02*
X136699000Y-72750000D01*
X141654000Y-69920000D02*
X140428700Y-69920000D01*
X136699000Y-72750000D02*
X137674300Y-72750000D01*
X137674300Y-72750000D02*
X140428700Y-69995600D01*
X140428700Y-69995600D02*
X140428700Y-69920000D01*
D17*
G36*
X147645526Y-50849617D02*
G01*
X147220128Y-50765000D01*
X146779872Y-50765000D01*
X146348075Y-50850890D01*
X145941331Y-51019369D01*
X145575271Y-51263962D01*
X145263962Y-51575271D01*
X145019369Y-51941331D01*
X144850890Y-52348075D01*
X144765000Y-52779872D01*
X144765000Y-53220128D01*
X144850890Y-53651925D01*
X145019369Y-54058669D01*
X145263962Y-54424729D01*
X145575271Y-54736038D01*
X145941331Y-54980631D01*
X146348075Y-55149110D01*
X146779872Y-55235000D01*
X147220128Y-55235000D01*
X147651925Y-55149110D01*
X148058669Y-54980631D01*
X148424729Y-54736038D01*
X148736038Y-54424729D01*
X148980631Y-54058669D01*
X149149110Y-53651925D01*
X149235000Y-53220128D01*
X149235000Y-52779872D01*
X149150383Y-52354474D01*
X149265000Y-52469091D01*
X149265001Y-97530908D01*
X149150383Y-97645526D01*
X149235000Y-97220128D01*
X149235000Y-96779872D01*
X149149110Y-96348075D01*
X148980631Y-95941331D01*
X148736038Y-95575271D01*
X148424729Y-95263962D01*
X148058669Y-95019369D01*
X147651925Y-94850890D01*
X147220128Y-94765000D01*
X146779872Y-94765000D01*
X146348075Y-94850890D01*
X145941331Y-95019369D01*
X145575271Y-95263962D01*
X145263962Y-95575271D01*
X145019369Y-95941331D01*
X144850890Y-96348075D01*
X144765000Y-96779872D01*
X144765000Y-97220128D01*
X144850890Y-97651925D01*
X145019369Y-98058669D01*
X145263962Y-98424729D01*
X145575271Y-98736038D01*
X145941331Y-98980631D01*
X146348075Y-99149110D01*
X146779872Y-99235000D01*
X147220128Y-99235000D01*
X147645526Y-99150383D01*
X147505909Y-99290000D01*
X102494091Y-99290000D01*
X102354474Y-99150383D01*
X102779872Y-99235000D01*
X103220128Y-99235000D01*
X103651925Y-99149110D01*
X104058669Y-98980631D01*
X104424729Y-98736038D01*
X104736038Y-98424729D01*
X104980631Y-98058669D01*
X105149110Y-97651925D01*
X105235000Y-97220128D01*
X105235000Y-96829117D01*
X105265000Y-96829117D01*
X105265000Y-97170883D01*
X105331675Y-97506081D01*
X105462463Y-97821831D01*
X105652337Y-98105998D01*
X105894002Y-98347663D01*
X106178169Y-98537537D01*
X106493919Y-98668325D01*
X106829117Y-98735000D01*
X107170883Y-98735000D01*
X107506081Y-98668325D01*
X107821831Y-98537537D01*
X108105998Y-98347663D01*
X108347663Y-98105998D01*
X108537537Y-97821831D01*
X108668325Y-97506081D01*
X108735000Y-97170883D01*
X108735000Y-96829117D01*
X141265000Y-96829117D01*
X141265000Y-97170883D01*
X141331675Y-97506081D01*
X141462463Y-97821831D01*
X141652337Y-98105998D01*
X141894002Y-98347663D01*
X142178169Y-98537537D01*
X142493919Y-98668325D01*
X142829117Y-98735000D01*
X143170883Y-98735000D01*
X143506081Y-98668325D01*
X143821831Y-98537537D01*
X144105998Y-98347663D01*
X144347663Y-98105998D01*
X144537537Y-97821831D01*
X144668325Y-97506081D01*
X144735000Y-97170883D01*
X144735000Y-96829117D01*
X144668325Y-96493919D01*
X144537537Y-96178169D01*
X144347663Y-95894002D01*
X144105998Y-95652337D01*
X143821831Y-95462463D01*
X143506081Y-95331675D01*
X143170883Y-95265000D01*
X142829117Y-95265000D01*
X142493919Y-95331675D01*
X142178169Y-95462463D01*
X141894002Y-95652337D01*
X141652337Y-95894002D01*
X141462463Y-96178169D01*
X141331675Y-96493919D01*
X141265000Y-96829117D01*
X108735000Y-96829117D01*
X108668325Y-96493919D01*
X108537537Y-96178169D01*
X108347663Y-95894002D01*
X108105998Y-95652337D01*
X107821831Y-95462463D01*
X107506081Y-95331675D01*
X107170883Y-95265000D01*
X106829117Y-95265000D01*
X106493919Y-95331675D01*
X106178169Y-95462463D01*
X105894002Y-95652337D01*
X105652337Y-95894002D01*
X105462463Y-96178169D01*
X105331675Y-96493919D01*
X105265000Y-96829117D01*
X105235000Y-96829117D01*
X105235000Y-96779872D01*
X105149110Y-96348075D01*
X104980631Y-95941331D01*
X104736038Y-95575271D01*
X104424729Y-95263962D01*
X104058669Y-95019369D01*
X103651925Y-94850890D01*
X103220128Y-94765000D01*
X102779872Y-94765000D01*
X102348075Y-94850890D01*
X101941331Y-95019369D01*
X101575271Y-95263962D01*
X101263962Y-95575271D01*
X101019369Y-95941331D01*
X100850890Y-96348075D01*
X100765000Y-96779872D01*
X100765000Y-97220128D01*
X100849617Y-97645526D01*
X100710000Y-97505909D01*
X100710000Y-85294091D01*
X101477379Y-84526712D01*
X101504475Y-84504475D01*
X101593200Y-84396363D01*
X101659128Y-84273020D01*
X101662011Y-84263517D01*
X101699727Y-84139185D01*
X101713435Y-84000000D01*
X101710000Y-83965123D01*
X101710000Y-66034877D01*
X101713435Y-66000000D01*
X101699727Y-65860815D01*
X101659128Y-65726980D01*
X101643299Y-65697366D01*
X101593200Y-65603637D01*
X101504474Y-65495525D01*
X101477383Y-65473292D01*
X100710000Y-64705909D01*
X100710000Y-52494091D01*
X100849617Y-52354474D01*
X100765000Y-52779872D01*
X100765000Y-53220128D01*
X100850890Y-53651925D01*
X101019369Y-54058669D01*
X101263962Y-54424729D01*
X101575271Y-54736038D01*
X101941331Y-54980631D01*
X102348075Y-55149110D01*
X102779872Y-55235000D01*
X103220128Y-55235000D01*
X103651925Y-55149110D01*
X103770486Y-55100000D01*
X108261928Y-55100000D01*
X108261928Y-56800000D01*
X108274188Y-56924482D01*
X108310498Y-57044180D01*
X108369463Y-57154494D01*
X108448815Y-57251185D01*
X108545506Y-57330537D01*
X108655820Y-57389502D01*
X108775518Y-57425812D01*
X108900000Y-57438072D01*
X110600000Y-57438072D01*
X110724482Y-57425812D01*
X110844180Y-57389502D01*
X110954494Y-57330537D01*
X111051185Y-57251185D01*
X111130537Y-57154494D01*
X111189502Y-57044180D01*
X111210393Y-56975313D01*
X111234866Y-57005134D01*
X111460986Y-57190706D01*
X111718966Y-57328599D01*
X111998889Y-57413513D01*
X112217050Y-57435000D01*
X112362950Y-57435000D01*
X112581111Y-57413513D01*
X112861034Y-57328599D01*
X113119014Y-57190706D01*
X113345134Y-57005134D01*
X113530706Y-56779014D01*
X113560000Y-56724209D01*
X113589294Y-56779014D01*
X113774866Y-57005134D01*
X114000986Y-57190706D01*
X114258966Y-57328599D01*
X114538889Y-57413513D01*
X114757050Y-57435000D01*
X114902950Y-57435000D01*
X115121111Y-57413513D01*
X115401034Y-57328599D01*
X115659014Y-57190706D01*
X115885134Y-57005134D01*
X116070706Y-56779014D01*
X116100000Y-56724209D01*
X116129294Y-56779014D01*
X116314866Y-57005134D01*
X116540986Y-57190706D01*
X116616755Y-57231205D01*
X116620998Y-57274286D01*
X116630299Y-57304947D01*
X116664454Y-57417546D01*
X116735026Y-57549576D01*
X116800536Y-57629399D01*
X116830000Y-57665301D01*
X116858998Y-57689099D01*
X123555984Y-64386086D01*
X123387841Y-64336599D01*
X123324639Y-64324543D01*
X123261598Y-64311602D01*
X123251732Y-64310635D01*
X123057371Y-64292946D01*
X122993019Y-64293395D01*
X122928667Y-64292946D01*
X122918812Y-64293913D01*
X122918807Y-64293913D01*
X122918803Y-64293914D01*
X122918801Y-64293914D01*
X122724705Y-64314315D01*
X122661690Y-64327250D01*
X122598460Y-64339312D01*
X122588970Y-64342177D01*
X122402532Y-64399889D01*
X122343203Y-64424829D01*
X122283545Y-64448932D01*
X122274792Y-64453586D01*
X122103115Y-64546411D01*
X122049787Y-64582381D01*
X121995917Y-64617633D01*
X121988235Y-64623899D01*
X121837857Y-64748302D01*
X121792520Y-64793957D01*
X121746537Y-64838987D01*
X121740218Y-64846625D01*
X121616868Y-64997867D01*
X121581266Y-65051454D01*
X121544901Y-65104563D01*
X121540186Y-65113284D01*
X121448561Y-65285606D01*
X121424049Y-65345076D01*
X121398688Y-65404248D01*
X121395757Y-65413718D01*
X121339348Y-65600554D01*
X121326848Y-65663684D01*
X121313470Y-65726623D01*
X121312434Y-65736482D01*
X121293508Y-65929502D01*
X121290000Y-65965124D01*
X121290001Y-84034877D01*
X121293485Y-84070252D01*
X121293485Y-84083246D01*
X121294522Y-84093105D01*
X121316277Y-84287055D01*
X121329653Y-84349984D01*
X121342156Y-84413127D01*
X121345087Y-84422597D01*
X121404101Y-84608627D01*
X121429416Y-84667690D01*
X121453972Y-84727268D01*
X121458688Y-84735988D01*
X121473648Y-84763200D01*
X117214122Y-84763200D01*
X117176799Y-84759524D01*
X117139476Y-84763200D01*
X117139467Y-84763200D01*
X117027814Y-84774197D01*
X116884553Y-84817654D01*
X116752524Y-84888226D01*
X116636799Y-84983199D01*
X116613001Y-85012197D01*
X109239003Y-92386196D01*
X109209999Y-92409999D01*
X109171661Y-92456715D01*
X109115026Y-92525724D01*
X109095674Y-92561928D01*
X108900000Y-92561928D01*
X108775518Y-92574188D01*
X108655820Y-92610498D01*
X108545506Y-92669463D01*
X108448815Y-92748815D01*
X108369463Y-92845506D01*
X108310498Y-92955820D01*
X108274188Y-93075518D01*
X108261928Y-93200000D01*
X108261928Y-94900000D01*
X108274188Y-95024482D01*
X108310498Y-95144180D01*
X108369463Y-95254494D01*
X108448815Y-95351185D01*
X108545506Y-95430537D01*
X108655820Y-95489502D01*
X108775518Y-95525812D01*
X108900000Y-95538072D01*
X110600000Y-95538072D01*
X110724482Y-95525812D01*
X110844180Y-95489502D01*
X110954494Y-95430537D01*
X111051185Y-95351185D01*
X111130537Y-95254494D01*
X111189502Y-95144180D01*
X111210393Y-95075313D01*
X111234866Y-95105134D01*
X111460986Y-95290706D01*
X111718966Y-95428599D01*
X111998889Y-95513513D01*
X112217050Y-95535000D01*
X112362950Y-95535000D01*
X112581111Y-95513513D01*
X112861034Y-95428599D01*
X113119014Y-95290706D01*
X113345134Y-95105134D01*
X113530706Y-94879014D01*
X113560000Y-94824209D01*
X113589294Y-94879014D01*
X113774866Y-95105134D01*
X114000986Y-95290706D01*
X114258966Y-95428599D01*
X114538889Y-95513513D01*
X114757050Y-95535000D01*
X114902950Y-95535000D01*
X115121111Y-95513513D01*
X115401034Y-95428599D01*
X115659014Y-95290706D01*
X115885134Y-95105134D01*
X116070706Y-94879014D01*
X116100000Y-94824209D01*
X116129294Y-94879014D01*
X116314866Y-95105134D01*
X116540986Y-95290706D01*
X116798966Y-95428599D01*
X117078889Y-95513513D01*
X117297050Y-95535000D01*
X117442950Y-95535000D01*
X117661111Y-95513513D01*
X117941034Y-95428599D01*
X118199014Y-95290706D01*
X118425134Y-95105134D01*
X118610706Y-94879014D01*
X118640000Y-94824209D01*
X118669294Y-94879014D01*
X118854866Y-95105134D01*
X119080986Y-95290706D01*
X119338966Y-95428599D01*
X119618889Y-95513513D01*
X119837050Y-95535000D01*
X119982950Y-95535000D01*
X120201111Y-95513513D01*
X120481034Y-95428599D01*
X120739014Y-95290706D01*
X120965134Y-95105134D01*
X121150706Y-94879014D01*
X121180000Y-94824209D01*
X121209294Y-94879014D01*
X121394866Y-95105134D01*
X121620986Y-95290706D01*
X121878966Y-95428599D01*
X122158889Y-95513513D01*
X122377050Y-95535000D01*
X122522950Y-95535000D01*
X122741111Y-95513513D01*
X123021034Y-95428599D01*
X123279014Y-95290706D01*
X123505134Y-95105134D01*
X123690706Y-94879014D01*
X123720000Y-94824209D01*
X123749294Y-94879014D01*
X123934866Y-95105134D01*
X124160986Y-95290706D01*
X124418966Y-95428599D01*
X124698889Y-95513513D01*
X124917050Y-95535000D01*
X125062950Y-95535000D01*
X125281111Y-95513513D01*
X125561034Y-95428599D01*
X125819014Y-95290706D01*
X126045134Y-95105134D01*
X126230706Y-94879014D01*
X126260000Y-94824209D01*
X126289294Y-94879014D01*
X126474866Y-95105134D01*
X126700986Y-95290706D01*
X126958966Y-95428599D01*
X127238889Y-95513513D01*
X127457050Y-95535000D01*
X127602950Y-95535000D01*
X127821111Y-95513513D01*
X128101034Y-95428599D01*
X128359014Y-95290706D01*
X128585134Y-95105134D01*
X128770706Y-94879014D01*
X128800000Y-94824209D01*
X128829294Y-94879014D01*
X129014866Y-95105134D01*
X129240986Y-95290706D01*
X129498966Y-95428599D01*
X129778889Y-95513513D01*
X129997050Y-95535000D01*
X130142950Y-95535000D01*
X130361111Y-95513513D01*
X130641034Y-95428599D01*
X130899014Y-95290706D01*
X131125134Y-95105134D01*
X131310706Y-94879014D01*
X131345201Y-94814477D01*
X131414822Y-94931355D01*
X131609731Y-95147588D01*
X131843080Y-95321641D01*
X132105901Y-95446825D01*
X132253110Y-95491476D01*
X132483000Y-95370155D01*
X132483000Y-94177000D01*
X132463000Y-94177000D01*
X132463000Y-93923000D01*
X132483000Y-93923000D01*
X132483000Y-92729845D01*
X132253110Y-92608524D01*
X132105901Y-92653175D01*
X131843080Y-92778359D01*
X131609731Y-92952412D01*
X131414822Y-93168645D01*
X131345201Y-93285523D01*
X131310706Y-93220986D01*
X131125134Y-92994866D01*
X130899014Y-92809294D01*
X130830000Y-92772405D01*
X130830000Y-85377701D01*
X131710928Y-84496773D01*
X131710928Y-85050000D01*
X131723188Y-85174482D01*
X131759498Y-85294180D01*
X131818463Y-85404494D01*
X131897815Y-85501185D01*
X131994506Y-85580537D01*
X132104820Y-85639502D01*
X132224518Y-85675812D01*
X132349000Y-85688072D01*
X134513401Y-85688072D01*
X134513401Y-87691368D01*
X134509724Y-87728700D01*
X134513401Y-87766033D01*
X134524398Y-87877686D01*
X134527656Y-87888425D01*
X134567854Y-88020946D01*
X134638426Y-88152976D01*
X134698685Y-88226401D01*
X134733400Y-88268701D01*
X134762398Y-88292499D01*
X136709898Y-90240000D01*
X134638998Y-92310901D01*
X134610000Y-92334699D01*
X134586202Y-92363697D01*
X134586201Y-92363698D01*
X134515026Y-92450424D01*
X134444454Y-92582454D01*
X134435081Y-92613354D01*
X134400998Y-92725714D01*
X134396755Y-92768795D01*
X134320986Y-92809294D01*
X134094866Y-92994866D01*
X133909294Y-93220986D01*
X133874799Y-93285523D01*
X133805178Y-93168645D01*
X133610269Y-92952412D01*
X133376920Y-92778359D01*
X133114099Y-92653175D01*
X132966890Y-92608524D01*
X132737000Y-92729845D01*
X132737000Y-93923000D01*
X132757000Y-93923000D01*
X132757000Y-94177000D01*
X132737000Y-94177000D01*
X132737000Y-95370155D01*
X132966890Y-95491476D01*
X133114099Y-95446825D01*
X133376920Y-95321641D01*
X133610269Y-95147588D01*
X133805178Y-94931355D01*
X133874799Y-94814477D01*
X133909294Y-94879014D01*
X134094866Y-95105134D01*
X134320986Y-95290706D01*
X134578966Y-95428599D01*
X134858889Y-95513513D01*
X135077050Y-95535000D01*
X135222950Y-95535000D01*
X135441111Y-95513513D01*
X135721034Y-95428599D01*
X135979014Y-95290706D01*
X136205134Y-95105134D01*
X136390706Y-94879014D01*
X136420000Y-94824209D01*
X136449294Y-94879014D01*
X136634866Y-95105134D01*
X136860986Y-95290706D01*
X137118966Y-95428599D01*
X137398889Y-95513513D01*
X137617050Y-95535000D01*
X137762950Y-95535000D01*
X137981111Y-95513513D01*
X138261034Y-95428599D01*
X138519014Y-95290706D01*
X138598595Y-95225396D01*
X139125101Y-95751902D01*
X139148899Y-95780901D01*
X139264624Y-95875874D01*
X139396653Y-95946446D01*
X139539914Y-95989903D01*
X139651567Y-96000900D01*
X139651576Y-96000900D01*
X139688899Y-96004576D01*
X139726222Y-96000900D01*
X141016678Y-96000900D01*
X141054000Y-96004576D01*
X141091322Y-96000900D01*
X141091333Y-96000900D01*
X141202986Y-95989903D01*
X141346247Y-95946446D01*
X141478276Y-95875874D01*
X141594001Y-95780901D01*
X141617804Y-95751897D01*
X143004402Y-94365300D01*
X144406078Y-94365300D01*
X144443400Y-94368976D01*
X144480722Y-94365300D01*
X144480733Y-94365300D01*
X144592386Y-94354303D01*
X144735647Y-94310846D01*
X144867676Y-94240274D01*
X144983401Y-94145301D01*
X145007203Y-94116298D01*
X145287377Y-93836125D01*
X145349820Y-93869502D01*
X145469518Y-93905812D01*
X145594000Y-93918072D01*
X147394000Y-93918072D01*
X147518482Y-93905812D01*
X147638180Y-93869502D01*
X147748494Y-93810537D01*
X147845185Y-93731185D01*
X147924537Y-93634494D01*
X147983502Y-93524180D01*
X148019812Y-93404482D01*
X148032072Y-93280000D01*
X148032072Y-92280000D01*
X148019812Y-92155518D01*
X147983502Y-92035820D01*
X147924537Y-91925506D01*
X147845185Y-91828815D01*
X147748494Y-91749463D01*
X147638180Y-91690498D01*
X147518482Y-91654188D01*
X147394000Y-91641928D01*
X147134300Y-91641928D01*
X147134300Y-91378072D01*
X147394000Y-91378072D01*
X147518482Y-91365812D01*
X147638180Y-91329502D01*
X147748494Y-91270537D01*
X147845185Y-91191185D01*
X147924537Y-91094494D01*
X147983502Y-90984180D01*
X148019812Y-90864482D01*
X148032072Y-90740000D01*
X148032072Y-89740000D01*
X148019812Y-89615518D01*
X147983502Y-89495820D01*
X147924537Y-89385506D01*
X147845185Y-89288815D01*
X147748494Y-89209463D01*
X147638180Y-89150498D01*
X147518482Y-89114188D01*
X147394000Y-89101928D01*
X146028700Y-89101928D01*
X146028700Y-88838072D01*
X147394000Y-88838072D01*
X147518482Y-88825812D01*
X147638180Y-88789502D01*
X147748494Y-88730537D01*
X147845185Y-88651185D01*
X147924537Y-88554494D01*
X147983502Y-88444180D01*
X148019812Y-88324482D01*
X148032072Y-88200000D01*
X148032072Y-87200000D01*
X148019812Y-87075518D01*
X147983502Y-86955820D01*
X147924537Y-86845506D01*
X147845185Y-86748815D01*
X147748494Y-86669463D01*
X147638180Y-86610498D01*
X147518482Y-86574188D01*
X147394000Y-86561928D01*
X145594000Y-86561928D01*
X145469518Y-86574188D01*
X145349820Y-86610498D01*
X145239506Y-86669463D01*
X145142815Y-86748815D01*
X145063463Y-86845506D01*
X145004498Y-86955820D01*
X145000337Y-86969536D01*
X144724959Y-86694158D01*
X144735547Y-86690946D01*
X144867576Y-86620374D01*
X144983301Y-86525401D01*
X145007103Y-86496398D01*
X145287377Y-86216125D01*
X145349820Y-86249502D01*
X145469518Y-86285812D01*
X145594000Y-86298072D01*
X147394000Y-86298072D01*
X147518482Y-86285812D01*
X147638180Y-86249502D01*
X147748494Y-86190537D01*
X147845185Y-86111185D01*
X147924537Y-86014494D01*
X147983502Y-85904180D01*
X148019812Y-85784482D01*
X148032072Y-85660000D01*
X148032072Y-84660000D01*
X148019812Y-84535518D01*
X147983502Y-84415820D01*
X147924537Y-84305506D01*
X147845185Y-84208815D01*
X147748494Y-84129463D01*
X147638180Y-84070498D01*
X147518482Y-84034188D01*
X147394000Y-84021928D01*
X145594000Y-84021928D01*
X145469518Y-84034188D01*
X145349820Y-84070498D01*
X145239506Y-84129463D01*
X145142815Y-84208815D01*
X145063463Y-84305506D01*
X145004498Y-84415820D01*
X144994433Y-84449000D01*
X144989969Y-84450354D01*
X144976453Y-84454454D01*
X144844423Y-84525026D01*
X144811680Y-84551898D01*
X144728699Y-84619999D01*
X144704902Y-84648996D01*
X144128499Y-85225400D01*
X143192072Y-85225400D01*
X143192072Y-84660000D01*
X143179812Y-84535518D01*
X143143502Y-84415820D01*
X143084537Y-84305506D01*
X143005185Y-84208815D01*
X143000902Y-84205300D01*
X144406078Y-84205300D01*
X144443400Y-84208976D01*
X144480722Y-84205300D01*
X144480733Y-84205300D01*
X144592386Y-84194303D01*
X144735647Y-84150846D01*
X144867676Y-84080274D01*
X144983401Y-83985301D01*
X145007203Y-83956298D01*
X145287377Y-83676125D01*
X145349820Y-83709502D01*
X145469518Y-83745812D01*
X145594000Y-83758072D01*
X147394000Y-83758072D01*
X147518482Y-83745812D01*
X147638180Y-83709502D01*
X147748494Y-83650537D01*
X147845185Y-83571185D01*
X147924537Y-83474494D01*
X147983502Y-83364180D01*
X148019812Y-83244482D01*
X148032072Y-83120000D01*
X148032072Y-82120000D01*
X148019812Y-81995518D01*
X147983502Y-81875820D01*
X147924537Y-81765506D01*
X147845185Y-81668815D01*
X147748494Y-81589463D01*
X147638180Y-81530498D01*
X147518482Y-81494188D01*
X147394000Y-81481928D01*
X145594000Y-81481928D01*
X145469518Y-81494188D01*
X145349820Y-81530498D01*
X145239506Y-81589463D01*
X145142815Y-81668815D01*
X145063463Y-81765506D01*
X145004498Y-81875820D01*
X144994433Y-81909000D01*
X144976453Y-81914454D01*
X144844424Y-81985026D01*
X144844422Y-81985027D01*
X144844423Y-81985027D01*
X144757696Y-82056201D01*
X144757692Y-82056205D01*
X144728699Y-82079999D01*
X144704905Y-82108992D01*
X144128598Y-82685300D01*
X143192072Y-82685300D01*
X143192072Y-82120000D01*
X143179812Y-81995518D01*
X143143502Y-81875820D01*
X143084537Y-81765506D01*
X143005185Y-81668815D01*
X142908494Y-81589463D01*
X142798180Y-81530498D01*
X142678482Y-81494188D01*
X142554000Y-81481928D01*
X140754000Y-81481928D01*
X140685800Y-81488645D01*
X140685800Y-81211355D01*
X140754000Y-81218072D01*
X142554000Y-81218072D01*
X142678482Y-81205812D01*
X142798180Y-81169502D01*
X142908494Y-81110537D01*
X143005185Y-81031185D01*
X143084537Y-80934494D01*
X143143502Y-80824180D01*
X143179812Y-80704482D01*
X143192072Y-80580000D01*
X143192072Y-79580000D01*
X143179812Y-79455518D01*
X143143502Y-79335820D01*
X143084537Y-79225506D01*
X143005185Y-79128815D01*
X143000902Y-79125300D01*
X143929663Y-79125300D01*
X143912595Y-79150844D01*
X143834574Y-79339202D01*
X143794800Y-79539161D01*
X143794800Y-79743039D01*
X143834574Y-79942998D01*
X143912595Y-80131356D01*
X144025863Y-80300874D01*
X144170026Y-80445037D01*
X144339544Y-80558305D01*
X144527902Y-80636326D01*
X144727861Y-80676100D01*
X144797056Y-80676100D01*
X144844424Y-80714974D01*
X144976453Y-80785546D01*
X144994433Y-80791000D01*
X145004498Y-80824180D01*
X145063463Y-80934494D01*
X145142815Y-81031185D01*
X145239506Y-81110537D01*
X145349820Y-81169502D01*
X145469518Y-81205812D01*
X145594000Y-81218072D01*
X147394000Y-81218072D01*
X147518482Y-81205812D01*
X147638180Y-81169502D01*
X147748494Y-81110537D01*
X147845185Y-81031185D01*
X147924537Y-80934494D01*
X147983502Y-80824180D01*
X148019812Y-80704482D01*
X148032072Y-80580000D01*
X148032072Y-79580000D01*
X148019812Y-79455518D01*
X147983502Y-79335820D01*
X147924537Y-79225506D01*
X147845185Y-79128815D01*
X147748494Y-79049463D01*
X147638180Y-78990498D01*
X147518482Y-78954188D01*
X147394000Y-78941928D01*
X145594339Y-78941928D01*
X145489574Y-78837163D01*
X145320056Y-78723895D01*
X145206601Y-78676900D01*
X145287377Y-78596125D01*
X145349820Y-78629502D01*
X145469518Y-78665812D01*
X145594000Y-78678072D01*
X147394000Y-78678072D01*
X147518482Y-78665812D01*
X147638180Y-78629502D01*
X147748494Y-78570537D01*
X147845185Y-78491185D01*
X147924537Y-78394494D01*
X147983502Y-78284180D01*
X148019812Y-78164482D01*
X148032072Y-78040000D01*
X148032072Y-77040000D01*
X148019812Y-76915518D01*
X147983502Y-76795820D01*
X147924537Y-76685506D01*
X147845185Y-76588815D01*
X147748494Y-76509463D01*
X147638180Y-76450498D01*
X147518482Y-76414188D01*
X147394000Y-76401928D01*
X145594000Y-76401928D01*
X145469518Y-76414188D01*
X145349820Y-76450498D01*
X145239506Y-76509463D01*
X145142815Y-76588815D01*
X145063463Y-76685506D01*
X145004498Y-76795820D01*
X144994433Y-76829000D01*
X144976453Y-76834454D01*
X144844424Y-76905026D01*
X144844422Y-76905027D01*
X144844423Y-76905027D01*
X144757696Y-76976201D01*
X144757692Y-76976205D01*
X144728699Y-76999999D01*
X144704905Y-77028992D01*
X144128598Y-77605300D01*
X143192072Y-77605300D01*
X143192072Y-77040000D01*
X143179812Y-76915518D01*
X143143502Y-76795820D01*
X143084537Y-76685506D01*
X143005185Y-76588815D01*
X143000902Y-76585300D01*
X144406078Y-76585300D01*
X144443400Y-76588976D01*
X144480722Y-76585300D01*
X144480733Y-76585300D01*
X144592386Y-76574303D01*
X144735647Y-76530846D01*
X144867676Y-76460274D01*
X144983401Y-76365301D01*
X145007203Y-76336298D01*
X145287377Y-76056125D01*
X145349820Y-76089502D01*
X145469518Y-76125812D01*
X145594000Y-76138072D01*
X147394000Y-76138072D01*
X147518482Y-76125812D01*
X147638180Y-76089502D01*
X147748494Y-76030537D01*
X147845185Y-75951185D01*
X147924537Y-75854494D01*
X147983502Y-75744180D01*
X148019812Y-75624482D01*
X148032072Y-75500000D01*
X148032072Y-74500000D01*
X148019812Y-74375518D01*
X147983502Y-74255820D01*
X147924537Y-74145506D01*
X147845185Y-74048815D01*
X147748494Y-73969463D01*
X147638180Y-73910498D01*
X147518482Y-73874188D01*
X147394000Y-73861928D01*
X145594000Y-73861928D01*
X145469518Y-73874188D01*
X145349820Y-73910498D01*
X145239506Y-73969463D01*
X145142815Y-74048815D01*
X145063463Y-74145506D01*
X145004498Y-74255820D01*
X144994433Y-74289000D01*
X144976453Y-74294454D01*
X144844424Y-74365026D01*
X144831639Y-74375518D01*
X144757696Y-74436201D01*
X144757692Y-74436205D01*
X144728699Y-74459999D01*
X144704905Y-74488992D01*
X144128598Y-75065300D01*
X143192072Y-75065300D01*
X143192072Y-74919800D01*
X143531578Y-74919800D01*
X143568900Y-74923476D01*
X143606222Y-74919800D01*
X143606233Y-74919800D01*
X143717886Y-74908803D01*
X143861147Y-74865346D01*
X143993176Y-74794774D01*
X144108901Y-74699801D01*
X144132704Y-74670797D01*
X145287377Y-73516125D01*
X145349820Y-73549502D01*
X145469518Y-73585812D01*
X145594000Y-73598072D01*
X147394000Y-73598072D01*
X147518482Y-73585812D01*
X147638180Y-73549502D01*
X147748494Y-73490537D01*
X147845185Y-73411185D01*
X147924537Y-73314494D01*
X147983502Y-73204180D01*
X148019812Y-73084482D01*
X148032072Y-72960000D01*
X148032072Y-71960000D01*
X148019812Y-71835518D01*
X147983502Y-71715820D01*
X147924537Y-71605506D01*
X147845185Y-71508815D01*
X147748494Y-71429463D01*
X147638180Y-71370498D01*
X147518482Y-71334188D01*
X147394000Y-71321928D01*
X145594000Y-71321928D01*
X145469518Y-71334188D01*
X145349820Y-71370498D01*
X145239506Y-71429463D01*
X145142815Y-71508815D01*
X145063463Y-71605506D01*
X145004498Y-71715820D01*
X144994433Y-71749000D01*
X144976453Y-71754454D01*
X144844424Y-71825026D01*
X144728699Y-71919999D01*
X144704901Y-71948997D01*
X143254099Y-73399800D01*
X143014528Y-73399800D01*
X143084537Y-73314494D01*
X143143502Y-73204180D01*
X143179812Y-73084482D01*
X143192072Y-72960000D01*
X143192072Y-71960000D01*
X143179812Y-71835518D01*
X143143502Y-71715820D01*
X143084537Y-71605506D01*
X143005185Y-71508815D01*
X143000902Y-71505300D01*
X144406078Y-71505300D01*
X144443400Y-71508976D01*
X144480722Y-71505300D01*
X144480733Y-71505300D01*
X144592386Y-71494303D01*
X144735647Y-71450846D01*
X144867676Y-71380274D01*
X144983401Y-71285301D01*
X145007203Y-71256298D01*
X145287377Y-70976125D01*
X145349820Y-71009502D01*
X145469518Y-71045812D01*
X145594000Y-71058072D01*
X147394000Y-71058072D01*
X147518482Y-71045812D01*
X147638180Y-71009502D01*
X147748494Y-70950537D01*
X147845185Y-70871185D01*
X147924537Y-70774494D01*
X147983502Y-70664180D01*
X148019812Y-70544482D01*
X148032072Y-70420000D01*
X148032072Y-69420000D01*
X148019812Y-69295518D01*
X147983502Y-69175820D01*
X147924537Y-69065506D01*
X147845185Y-68968815D01*
X147748494Y-68889463D01*
X147638180Y-68830498D01*
X147518482Y-68794188D01*
X147394000Y-68781928D01*
X145594000Y-68781928D01*
X145469518Y-68794188D01*
X145349820Y-68830498D01*
X145239506Y-68889463D01*
X145142815Y-68968815D01*
X145063463Y-69065506D01*
X145004498Y-69175820D01*
X144994433Y-69209000D01*
X144976453Y-69214454D01*
X144844424Y-69285026D01*
X144844422Y-69285027D01*
X144844423Y-69285027D01*
X144757696Y-69356201D01*
X144757692Y-69356205D01*
X144728699Y-69379999D01*
X144704905Y-69408992D01*
X144128598Y-69985300D01*
X143192072Y-69985300D01*
X143192072Y-69854700D01*
X143516678Y-69854700D01*
X143554000Y-69858376D01*
X143591322Y-69854700D01*
X143591333Y-69854700D01*
X143702986Y-69843703D01*
X143846247Y-69800246D01*
X143978276Y-69729674D01*
X144094001Y-69634701D01*
X144117804Y-69605697D01*
X145287377Y-68436125D01*
X145349820Y-68469502D01*
X145469518Y-68505812D01*
X145594000Y-68518072D01*
X147394000Y-68518072D01*
X147518482Y-68505812D01*
X147638180Y-68469502D01*
X147748494Y-68410537D01*
X147845185Y-68331185D01*
X147924537Y-68234494D01*
X147983502Y-68124180D01*
X148019812Y-68004482D01*
X148032072Y-67880000D01*
X148032072Y-66880000D01*
X148019812Y-66755518D01*
X147983502Y-66635820D01*
X147924537Y-66525506D01*
X147845185Y-66428815D01*
X147748494Y-66349463D01*
X147638180Y-66290498D01*
X147518482Y-66254188D01*
X147394000Y-66241928D01*
X145766874Y-66241928D01*
X145779703Y-66229099D01*
X145808701Y-66205301D01*
X145903674Y-66089576D01*
X145963275Y-65978072D01*
X147394000Y-65978072D01*
X147518482Y-65965812D01*
X147638180Y-65929502D01*
X147748494Y-65870537D01*
X147845185Y-65791185D01*
X147924537Y-65694494D01*
X147983502Y-65584180D01*
X148019812Y-65464482D01*
X148032072Y-65340000D01*
X148032072Y-64340000D01*
X148019812Y-64215518D01*
X147983502Y-64095820D01*
X147924537Y-63985506D01*
X147845185Y-63888815D01*
X147748494Y-63809463D01*
X147638180Y-63750498D01*
X147518482Y-63714188D01*
X147394000Y-63701928D01*
X145594000Y-63701928D01*
X145469518Y-63714188D01*
X145349820Y-63750498D01*
X145239506Y-63809463D01*
X145142815Y-63888815D01*
X145063463Y-63985506D01*
X145004498Y-64095820D01*
X144994433Y-64129000D01*
X144976453Y-64134454D01*
X144844424Y-64205026D01*
X144728699Y-64299999D01*
X144633726Y-64415724D01*
X144563154Y-64547753D01*
X144519697Y-64691014D01*
X144505023Y-64840000D01*
X144508700Y-64877333D01*
X144508700Y-65350498D01*
X143162093Y-66697106D01*
X143143502Y-66635820D01*
X143084537Y-66525506D01*
X143005185Y-66428815D01*
X142908494Y-66349463D01*
X142798180Y-66290498D01*
X142678482Y-66254188D01*
X142554000Y-66241928D01*
X140754000Y-66241928D01*
X140629518Y-66254188D01*
X140509820Y-66290498D01*
X140399506Y-66349463D01*
X140392807Y-66354960D01*
X140233639Y-66323300D01*
X140029761Y-66323300D01*
X139829802Y-66363074D01*
X139641444Y-66441095D01*
X139471926Y-66554363D01*
X139327763Y-66698526D01*
X139214495Y-66868044D01*
X139136474Y-67056402D01*
X139096700Y-67256361D01*
X139096700Y-67460239D01*
X139136474Y-67660198D01*
X139214495Y-67848556D01*
X139327763Y-68018074D01*
X139471926Y-68162237D01*
X139601010Y-68248488D01*
X137987072Y-69862427D01*
X137987072Y-69600000D01*
X137976882Y-69496535D01*
X137984000Y-69431750D01*
X137951753Y-69399503D01*
X137938502Y-69355820D01*
X137881939Y-69250000D01*
X137938502Y-69144180D01*
X137951753Y-69100497D01*
X137984000Y-69068250D01*
X137976882Y-69003465D01*
X137987072Y-68900000D01*
X137987072Y-68600000D01*
X137976882Y-68496535D01*
X137984000Y-68431750D01*
X137951753Y-68399503D01*
X137938502Y-68355820D01*
X137881939Y-68250000D01*
X137938502Y-68144180D01*
X137951753Y-68100497D01*
X137984000Y-68068250D01*
X137976882Y-68003465D01*
X137987072Y-67900000D01*
X137987072Y-67600000D01*
X137981399Y-67542402D01*
X140122013Y-65401788D01*
X140128188Y-65464482D01*
X140164498Y-65584180D01*
X140223463Y-65694494D01*
X140302815Y-65791185D01*
X140399506Y-65870537D01*
X140509820Y-65929502D01*
X140629518Y-65965812D01*
X140754000Y-65978072D01*
X142554000Y-65978072D01*
X142678482Y-65965812D01*
X142798180Y-65929502D01*
X142908494Y-65870537D01*
X143005185Y-65791185D01*
X143084537Y-65694494D01*
X143143502Y-65584180D01*
X143153567Y-65551000D01*
X143171547Y-65545546D01*
X143303576Y-65474974D01*
X143419301Y-65380001D01*
X143443103Y-65350998D01*
X144807509Y-63986594D01*
X144836501Y-63962801D01*
X144860295Y-63933808D01*
X144860299Y-63933804D01*
X144931473Y-63847077D01*
X144931474Y-63847076D01*
X145002046Y-63715047D01*
X145045503Y-63571786D01*
X145056500Y-63460133D01*
X145056500Y-63460124D01*
X145060176Y-63422801D01*
X145056500Y-63385478D01*
X145056500Y-63141467D01*
X145063463Y-63154494D01*
X145142815Y-63251185D01*
X145239506Y-63330537D01*
X145349820Y-63389502D01*
X145469518Y-63425812D01*
X145594000Y-63438072D01*
X146208250Y-63435000D01*
X146367000Y-63276250D01*
X146367000Y-62427000D01*
X146621000Y-62427000D01*
X146621000Y-63276250D01*
X146779750Y-63435000D01*
X147394000Y-63438072D01*
X147518482Y-63425812D01*
X147638180Y-63389502D01*
X147748494Y-63330537D01*
X147845185Y-63251185D01*
X147924537Y-63154494D01*
X147983502Y-63044180D01*
X148019812Y-62924482D01*
X148032072Y-62800000D01*
X148029000Y-62585750D01*
X147870250Y-62427000D01*
X146621000Y-62427000D01*
X146367000Y-62427000D01*
X146347000Y-62427000D01*
X146347000Y-62173000D01*
X146367000Y-62173000D01*
X146367000Y-61323750D01*
X146621000Y-61323750D01*
X146621000Y-62173000D01*
X147870250Y-62173000D01*
X148029000Y-62014250D01*
X148032072Y-61800000D01*
X148019812Y-61675518D01*
X147983502Y-61555820D01*
X147924537Y-61445506D01*
X147845185Y-61348815D01*
X147748494Y-61269463D01*
X147638180Y-61210498D01*
X147518482Y-61174188D01*
X147394000Y-61161928D01*
X146779750Y-61165000D01*
X146621000Y-61323750D01*
X146367000Y-61323750D01*
X146208250Y-61165000D01*
X145611800Y-61162017D01*
X145611800Y-60889976D01*
X145694000Y-60898072D01*
X146308250Y-60895000D01*
X146467000Y-60736250D01*
X146467000Y-59887000D01*
X146721000Y-59887000D01*
X146721000Y-60736250D01*
X146879750Y-60895000D01*
X147494000Y-60898072D01*
X147618482Y-60885812D01*
X147738180Y-60849502D01*
X147848494Y-60790537D01*
X147945185Y-60711185D01*
X148024537Y-60614494D01*
X148083502Y-60504180D01*
X148119812Y-60384482D01*
X148132072Y-60260000D01*
X148129000Y-60045750D01*
X147970250Y-59887000D01*
X146721000Y-59887000D01*
X146467000Y-59887000D01*
X146447000Y-59887000D01*
X146447000Y-59633000D01*
X146467000Y-59633000D01*
X146467000Y-58783750D01*
X146721000Y-58783750D01*
X146721000Y-59633000D01*
X147970250Y-59633000D01*
X148129000Y-59474250D01*
X148132072Y-59260000D01*
X148119812Y-59135518D01*
X148083502Y-59015820D01*
X148024537Y-58905506D01*
X147945185Y-58808815D01*
X147848494Y-58729463D01*
X147738180Y-58670498D01*
X147618482Y-58634188D01*
X147494000Y-58621928D01*
X146879750Y-58625000D01*
X146721000Y-58783750D01*
X146467000Y-58783750D01*
X146308250Y-58625000D01*
X145694000Y-58621928D01*
X145611800Y-58630024D01*
X145611800Y-58357983D01*
X146208250Y-58355000D01*
X146367000Y-58196250D01*
X146367000Y-57347000D01*
X146621000Y-57347000D01*
X146621000Y-58196250D01*
X146779750Y-58355000D01*
X147394000Y-58358072D01*
X147518482Y-58345812D01*
X147638180Y-58309502D01*
X147748494Y-58250537D01*
X147845185Y-58171185D01*
X147924537Y-58074494D01*
X147983502Y-57964180D01*
X148019812Y-57844482D01*
X148032072Y-57720000D01*
X148029000Y-57505750D01*
X147870250Y-57347000D01*
X146621000Y-57347000D01*
X146367000Y-57347000D01*
X146347000Y-57347000D01*
X146347000Y-57093000D01*
X146367000Y-57093000D01*
X146367000Y-56243750D01*
X146621000Y-56243750D01*
X146621000Y-57093000D01*
X147870250Y-57093000D01*
X148029000Y-56934250D01*
X148032072Y-56720000D01*
X148019812Y-56595518D01*
X147983502Y-56475820D01*
X147924537Y-56365506D01*
X147845185Y-56268815D01*
X147748494Y-56189463D01*
X147638180Y-56130498D01*
X147518482Y-56094188D01*
X147394000Y-56081928D01*
X146779750Y-56085000D01*
X146621000Y-56243750D01*
X146367000Y-56243750D01*
X146208250Y-56085000D01*
X145594000Y-56081928D01*
X145469518Y-56094188D01*
X145349820Y-56130498D01*
X145239506Y-56189463D01*
X145142815Y-56268815D01*
X145063463Y-56365506D01*
X145004498Y-56475820D01*
X144968188Y-56595518D01*
X144955928Y-56720000D01*
X144959000Y-56934250D01*
X145117748Y-57092998D01*
X144959000Y-57092998D01*
X144959000Y-57201798D01*
X142377165Y-54619964D01*
X142493919Y-54668325D01*
X142829117Y-54735000D01*
X143170883Y-54735000D01*
X143506081Y-54668325D01*
X143821831Y-54537537D01*
X144105998Y-54347663D01*
X144347663Y-54105998D01*
X144537537Y-53821831D01*
X144668325Y-53506081D01*
X144735000Y-53170883D01*
X144735000Y-52829117D01*
X144668325Y-52493919D01*
X144537537Y-52178169D01*
X144347663Y-51894002D01*
X144105998Y-51652337D01*
X143821831Y-51462463D01*
X143506081Y-51331675D01*
X143170883Y-51265000D01*
X142829117Y-51265000D01*
X142493919Y-51331675D01*
X142178169Y-51462463D01*
X141894002Y-51652337D01*
X141652337Y-51894002D01*
X141462463Y-52178169D01*
X141331675Y-52493919D01*
X141265000Y-52829117D01*
X141265000Y-53170883D01*
X141331675Y-53506081D01*
X141462463Y-53821831D01*
X141597451Y-54023855D01*
X141493333Y-54013600D01*
X141493322Y-54013600D01*
X141456000Y-54009924D01*
X141418678Y-54013600D01*
X134631722Y-54013600D01*
X134594399Y-54009924D01*
X134557076Y-54013600D01*
X134557067Y-54013600D01*
X134445414Y-54024597D01*
X134302153Y-54068054D01*
X134170124Y-54138626D01*
X134054399Y-54233599D01*
X134030601Y-54262598D01*
X133518595Y-54774604D01*
X133439014Y-54709294D01*
X133181034Y-54571401D01*
X132901111Y-54486487D01*
X132682950Y-54465000D01*
X132537050Y-54465000D01*
X132318889Y-54486487D01*
X132038966Y-54571401D01*
X131780986Y-54709294D01*
X131685093Y-54787991D01*
X131137703Y-54240602D01*
X131113901Y-54211599D01*
X130998176Y-54116626D01*
X130866147Y-54046054D01*
X130722886Y-54002597D01*
X130611233Y-53991600D01*
X130611222Y-53991600D01*
X130573900Y-53987924D01*
X130536578Y-53991600D01*
X129573723Y-53991600D01*
X129536400Y-53987924D01*
X129499077Y-53991600D01*
X129499067Y-53991600D01*
X129387414Y-54002597D01*
X129244153Y-54046054D01*
X129112123Y-54116626D01*
X129053666Y-54164601D01*
X128996399Y-54211599D01*
X128972601Y-54240598D01*
X128438595Y-54774604D01*
X128359014Y-54709294D01*
X128101034Y-54571401D01*
X127821111Y-54486487D01*
X127602950Y-54465000D01*
X127457050Y-54465000D01*
X127238889Y-54486487D01*
X126958966Y-54571401D01*
X126700986Y-54709294D01*
X126474866Y-54894866D01*
X126289294Y-55120986D01*
X126260000Y-55175791D01*
X126230706Y-55120986D01*
X126045134Y-54894866D01*
X125819014Y-54709294D01*
X125561034Y-54571401D01*
X125281111Y-54486487D01*
X125062950Y-54465000D01*
X124917050Y-54465000D01*
X124698889Y-54486487D01*
X124418966Y-54571401D01*
X124160986Y-54709294D01*
X124085086Y-54771584D01*
X123530903Y-54217402D01*
X123507101Y-54188399D01*
X123391376Y-54093426D01*
X123259347Y-54022854D01*
X123116086Y-53979397D01*
X123004433Y-53968400D01*
X123004422Y-53968400D01*
X122967100Y-53964724D01*
X122929778Y-53968400D01*
X111816925Y-53968400D01*
X111779600Y-53964724D01*
X111742275Y-53968400D01*
X111742267Y-53968400D01*
X111630614Y-53979397D01*
X111487353Y-54022854D01*
X111355324Y-54093426D01*
X111239599Y-54188399D01*
X111215801Y-54217397D01*
X110895349Y-54537849D01*
X110844180Y-54510498D01*
X110724482Y-54474188D01*
X110600000Y-54461928D01*
X108900000Y-54461928D01*
X108775518Y-54474188D01*
X108655820Y-54510498D01*
X108545506Y-54569463D01*
X108448815Y-54648815D01*
X108369463Y-54745506D01*
X108310498Y-54855820D01*
X108274188Y-54975518D01*
X108261928Y-55100000D01*
X103770486Y-55100000D01*
X104058669Y-54980631D01*
X104424729Y-54736038D01*
X104736038Y-54424729D01*
X104980631Y-54058669D01*
X105149110Y-53651925D01*
X105235000Y-53220128D01*
X105235000Y-52829117D01*
X105265000Y-52829117D01*
X105265000Y-53170883D01*
X105331675Y-53506081D01*
X105462463Y-53821831D01*
X105652337Y-54105998D01*
X105894002Y-54347663D01*
X106178169Y-54537537D01*
X106493919Y-54668325D01*
X106829117Y-54735000D01*
X107170883Y-54735000D01*
X107506081Y-54668325D01*
X107821831Y-54537537D01*
X108105998Y-54347663D01*
X108347663Y-54105998D01*
X108537537Y-53821831D01*
X108668325Y-53506081D01*
X108735000Y-53170883D01*
X108735000Y-52829117D01*
X108668325Y-52493919D01*
X108537537Y-52178169D01*
X108347663Y-51894002D01*
X108105998Y-51652337D01*
X107821831Y-51462463D01*
X107506081Y-51331675D01*
X107170883Y-51265000D01*
X106829117Y-51265000D01*
X106493919Y-51331675D01*
X106178169Y-51462463D01*
X105894002Y-51652337D01*
X105652337Y-51894002D01*
X105462463Y-52178169D01*
X105331675Y-52493919D01*
X105265000Y-52829117D01*
X105235000Y-52829117D01*
X105235000Y-52779872D01*
X105149110Y-52348075D01*
X104980631Y-51941331D01*
X104736038Y-51575271D01*
X104424729Y-51263962D01*
X104058669Y-51019369D01*
X103651925Y-50850890D01*
X103220128Y-50765000D01*
X102779872Y-50765000D01*
X102354474Y-50849617D01*
X102494091Y-50710000D01*
X147505909Y-50710000D01*
X147645526Y-50849617D01*
X147645526Y-50849617D01*
G37*
X147645526Y-50849617D02*
X147220128Y-50765000D01*
X146779872Y-50765000D01*
X146348075Y-50850890D01*
X145941331Y-51019369D01*
X145575271Y-51263962D01*
X145263962Y-51575271D01*
X145019369Y-51941331D01*
X144850890Y-52348075D01*
X144765000Y-52779872D01*
X144765000Y-53220128D01*
X144850890Y-53651925D01*
X145019369Y-54058669D01*
X145263962Y-54424729D01*
X145575271Y-54736038D01*
X145941331Y-54980631D01*
X146348075Y-55149110D01*
X146779872Y-55235000D01*
X147220128Y-55235000D01*
X147651925Y-55149110D01*
X148058669Y-54980631D01*
X148424729Y-54736038D01*
X148736038Y-54424729D01*
X148980631Y-54058669D01*
X149149110Y-53651925D01*
X149235000Y-53220128D01*
X149235000Y-52779872D01*
X149150383Y-52354474D01*
X149265000Y-52469091D01*
X149265001Y-97530908D01*
X149150383Y-97645526D01*
X149235000Y-97220128D01*
X149235000Y-96779872D01*
X149149110Y-96348075D01*
X148980631Y-95941331D01*
X148736038Y-95575271D01*
X148424729Y-95263962D01*
X148058669Y-95019369D01*
X147651925Y-94850890D01*
X147220128Y-94765000D01*
X146779872Y-94765000D01*
X146348075Y-94850890D01*
X145941331Y-95019369D01*
X145575271Y-95263962D01*
X145263962Y-95575271D01*
X145019369Y-95941331D01*
X144850890Y-96348075D01*
X144765000Y-96779872D01*
X144765000Y-97220128D01*
X144850890Y-97651925D01*
X145019369Y-98058669D01*
X145263962Y-98424729D01*
X145575271Y-98736038D01*
X145941331Y-98980631D01*
X146348075Y-99149110D01*
X146779872Y-99235000D01*
X147220128Y-99235000D01*
X147645526Y-99150383D01*
X147505909Y-99290000D01*
X102494091Y-99290000D01*
X102354474Y-99150383D01*
X102779872Y-99235000D01*
X103220128Y-99235000D01*
X103651925Y-99149110D01*
X104058669Y-98980631D01*
X104424729Y-98736038D01*
X104736038Y-98424729D01*
X104980631Y-98058669D01*
X105149110Y-97651925D01*
X105235000Y-97220128D01*
X105235000Y-96829117D01*
X105265000Y-96829117D01*
X105265000Y-97170883D01*
X105331675Y-97506081D01*
X105462463Y-97821831D01*
X105652337Y-98105998D01*
X105894002Y-98347663D01*
X106178169Y-98537537D01*
X106493919Y-98668325D01*
X106829117Y-98735000D01*
X107170883Y-98735000D01*
X107506081Y-98668325D01*
X107821831Y-98537537D01*
X108105998Y-98347663D01*
X108347663Y-98105998D01*
X108537537Y-97821831D01*
X108668325Y-97506081D01*
X108735000Y-97170883D01*
X108735000Y-96829117D01*
X141265000Y-96829117D01*
X141265000Y-97170883D01*
X141331675Y-97506081D01*
X141462463Y-97821831D01*
X141652337Y-98105998D01*
X141894002Y-98347663D01*
X142178169Y-98537537D01*
X142493919Y-98668325D01*
X142829117Y-98735000D01*
X143170883Y-98735000D01*
X143506081Y-98668325D01*
X143821831Y-98537537D01*
X144105998Y-98347663D01*
X144347663Y-98105998D01*
X144537537Y-97821831D01*
X144668325Y-97506081D01*
X144735000Y-97170883D01*
X144735000Y-96829117D01*
X144668325Y-96493919D01*
X144537537Y-96178169D01*
X144347663Y-95894002D01*
X144105998Y-95652337D01*
X143821831Y-95462463D01*
X143506081Y-95331675D01*
X143170883Y-95265000D01*
X142829117Y-95265000D01*
X142493919Y-95331675D01*
X142178169Y-95462463D01*
X141894002Y-95652337D01*
X141652337Y-95894002D01*
X141462463Y-96178169D01*
X141331675Y-96493919D01*
X141265000Y-96829117D01*
X108735000Y-96829117D01*
X108668325Y-96493919D01*
X108537537Y-96178169D01*
X108347663Y-95894002D01*
X108105998Y-95652337D01*
X107821831Y-95462463D01*
X107506081Y-95331675D01*
X107170883Y-95265000D01*
X106829117Y-95265000D01*
X106493919Y-95331675D01*
X106178169Y-95462463D01*
X105894002Y-95652337D01*
X105652337Y-95894002D01*
X105462463Y-96178169D01*
X105331675Y-96493919D01*
X105265000Y-96829117D01*
X105235000Y-96829117D01*
X105235000Y-96779872D01*
X105149110Y-96348075D01*
X104980631Y-95941331D01*
X104736038Y-95575271D01*
X104424729Y-95263962D01*
X104058669Y-95019369D01*
X103651925Y-94850890D01*
X103220128Y-94765000D01*
X102779872Y-94765000D01*
X102348075Y-94850890D01*
X101941331Y-95019369D01*
X101575271Y-95263962D01*
X101263962Y-95575271D01*
X101019369Y-95941331D01*
X100850890Y-96348075D01*
X100765000Y-96779872D01*
X100765000Y-97220128D01*
X100849617Y-97645526D01*
X100710000Y-97505909D01*
X100710000Y-85294091D01*
X101477379Y-84526712D01*
X101504475Y-84504475D01*
X101593200Y-84396363D01*
X101659128Y-84273020D01*
X101662011Y-84263517D01*
X101699727Y-84139185D01*
X101713435Y-84000000D01*
X101710000Y-83965123D01*
X101710000Y-66034877D01*
X101713435Y-66000000D01*
X101699727Y-65860815D01*
X101659128Y-65726980D01*
X101643299Y-65697366D01*
X101593200Y-65603637D01*
X101504474Y-65495525D01*
X101477383Y-65473292D01*
X100710000Y-64705909D01*
X100710000Y-52494091D01*
X100849617Y-52354474D01*
X100765000Y-52779872D01*
X100765000Y-53220128D01*
X100850890Y-53651925D01*
X101019369Y-54058669D01*
X101263962Y-54424729D01*
X101575271Y-54736038D01*
X101941331Y-54980631D01*
X102348075Y-55149110D01*
X102779872Y-55235000D01*
X103220128Y-55235000D01*
X103651925Y-55149110D01*
X103770486Y-55100000D01*
X108261928Y-55100000D01*
X108261928Y-56800000D01*
X108274188Y-56924482D01*
X108310498Y-57044180D01*
X108369463Y-57154494D01*
X108448815Y-57251185D01*
X108545506Y-57330537D01*
X108655820Y-57389502D01*
X108775518Y-57425812D01*
X108900000Y-57438072D01*
X110600000Y-57438072D01*
X110724482Y-57425812D01*
X110844180Y-57389502D01*
X110954494Y-57330537D01*
X111051185Y-57251185D01*
X111130537Y-57154494D01*
X111189502Y-57044180D01*
X111210393Y-56975313D01*
X111234866Y-57005134D01*
X111460986Y-57190706D01*
X111718966Y-57328599D01*
X111998889Y-57413513D01*
X112217050Y-57435000D01*
X112362950Y-57435000D01*
X112581111Y-57413513D01*
X112861034Y-57328599D01*
X113119014Y-57190706D01*
X113345134Y-57005134D01*
X113530706Y-56779014D01*
X113560000Y-56724209D01*
X113589294Y-56779014D01*
X113774866Y-57005134D01*
X114000986Y-57190706D01*
X114258966Y-57328599D01*
X114538889Y-57413513D01*
X114757050Y-57435000D01*
X114902950Y-57435000D01*
X115121111Y-57413513D01*
X115401034Y-57328599D01*
X115659014Y-57190706D01*
X115885134Y-57005134D01*
X116070706Y-56779014D01*
X116100000Y-56724209D01*
X116129294Y-56779014D01*
X116314866Y-57005134D01*
X116540986Y-57190706D01*
X116616755Y-57231205D01*
X116620998Y-57274286D01*
X116630299Y-57304947D01*
X116664454Y-57417546D01*
X116735026Y-57549576D01*
X116800536Y-57629399D01*
X116830000Y-57665301D01*
X116858998Y-57689099D01*
X123555984Y-64386086D01*
X123387841Y-64336599D01*
X123324639Y-64324543D01*
X123261598Y-64311602D01*
X123251732Y-64310635D01*
X123057371Y-64292946D01*
X122993019Y-64293395D01*
X122928667Y-64292946D01*
X122918812Y-64293913D01*
X122918807Y-64293913D01*
X122918803Y-64293914D01*
X122918801Y-64293914D01*
X122724705Y-64314315D01*
X122661690Y-64327250D01*
X122598460Y-64339312D01*
X122588970Y-64342177D01*
X122402532Y-64399889D01*
X122343203Y-64424829D01*
X122283545Y-64448932D01*
X122274792Y-64453586D01*
X122103115Y-64546411D01*
X122049787Y-64582381D01*
X121995917Y-64617633D01*
X121988235Y-64623899D01*
X121837857Y-64748302D01*
X121792520Y-64793957D01*
X121746537Y-64838987D01*
X121740218Y-64846625D01*
X121616868Y-64997867D01*
X121581266Y-65051454D01*
X121544901Y-65104563D01*
X121540186Y-65113284D01*
X121448561Y-65285606D01*
X121424049Y-65345076D01*
X121398688Y-65404248D01*
X121395757Y-65413718D01*
X121339348Y-65600554D01*
X121326848Y-65663684D01*
X121313470Y-65726623D01*
X121312434Y-65736482D01*
X121293508Y-65929502D01*
X121290000Y-65965124D01*
X121290001Y-84034877D01*
X121293485Y-84070252D01*
X121293485Y-84083246D01*
X121294522Y-84093105D01*
X121316277Y-84287055D01*
X121329653Y-84349984D01*
X121342156Y-84413127D01*
X121345087Y-84422597D01*
X121404101Y-84608627D01*
X121429416Y-84667690D01*
X121453972Y-84727268D01*
X121458688Y-84735988D01*
X121473648Y-84763200D01*
X117214122Y-84763200D01*
X117176799Y-84759524D01*
X117139476Y-84763200D01*
X117139467Y-84763200D01*
X117027814Y-84774197D01*
X116884553Y-84817654D01*
X116752524Y-84888226D01*
X116636799Y-84983199D01*
X116613001Y-85012197D01*
X109239003Y-92386196D01*
X109209999Y-92409999D01*
X109171661Y-92456715D01*
X109115026Y-92525724D01*
X109095674Y-92561928D01*
X108900000Y-92561928D01*
X108775518Y-92574188D01*
X108655820Y-92610498D01*
X108545506Y-92669463D01*
X108448815Y-92748815D01*
X108369463Y-92845506D01*
X108310498Y-92955820D01*
X108274188Y-93075518D01*
X108261928Y-93200000D01*
X108261928Y-94900000D01*
X108274188Y-95024482D01*
X108310498Y-95144180D01*
X108369463Y-95254494D01*
X108448815Y-95351185D01*
X108545506Y-95430537D01*
X108655820Y-95489502D01*
X108775518Y-95525812D01*
X108900000Y-95538072D01*
X110600000Y-95538072D01*
X110724482Y-95525812D01*
X110844180Y-95489502D01*
X110954494Y-95430537D01*
X111051185Y-95351185D01*
X111130537Y-95254494D01*
X111189502Y-95144180D01*
X111210393Y-95075313D01*
X111234866Y-95105134D01*
X111460986Y-95290706D01*
X111718966Y-95428599D01*
X111998889Y-95513513D01*
X112217050Y-95535000D01*
X112362950Y-95535000D01*
X112581111Y-95513513D01*
X112861034Y-95428599D01*
X113119014Y-95290706D01*
X113345134Y-95105134D01*
X113530706Y-94879014D01*
X113560000Y-94824209D01*
X113589294Y-94879014D01*
X113774866Y-95105134D01*
X114000986Y-95290706D01*
X114258966Y-95428599D01*
X114538889Y-95513513D01*
X114757050Y-95535000D01*
X114902950Y-95535000D01*
X115121111Y-95513513D01*
X115401034Y-95428599D01*
X115659014Y-95290706D01*
X115885134Y-95105134D01*
X116070706Y-94879014D01*
X116100000Y-94824209D01*
X116129294Y-94879014D01*
X116314866Y-95105134D01*
X116540986Y-95290706D01*
X116798966Y-95428599D01*
X117078889Y-95513513D01*
X117297050Y-95535000D01*
X117442950Y-95535000D01*
X117661111Y-95513513D01*
X117941034Y-95428599D01*
X118199014Y-95290706D01*
X118425134Y-95105134D01*
X118610706Y-94879014D01*
X118640000Y-94824209D01*
X118669294Y-94879014D01*
X118854866Y-95105134D01*
X119080986Y-95290706D01*
X119338966Y-95428599D01*
X119618889Y-95513513D01*
X119837050Y-95535000D01*
X119982950Y-95535000D01*
X120201111Y-95513513D01*
X120481034Y-95428599D01*
X120739014Y-95290706D01*
X120965134Y-95105134D01*
X121150706Y-94879014D01*
X121180000Y-94824209D01*
X121209294Y-94879014D01*
X121394866Y-95105134D01*
X121620986Y-95290706D01*
X121878966Y-95428599D01*
X122158889Y-95513513D01*
X122377050Y-95535000D01*
X122522950Y-95535000D01*
X122741111Y-95513513D01*
X123021034Y-95428599D01*
X123279014Y-95290706D01*
X123505134Y-95105134D01*
X123690706Y-94879014D01*
X123720000Y-94824209D01*
X123749294Y-94879014D01*
X123934866Y-95105134D01*
X124160986Y-95290706D01*
X124418966Y-95428599D01*
X124698889Y-95513513D01*
X124917050Y-95535000D01*
X125062950Y-95535000D01*
X125281111Y-95513513D01*
X125561034Y-95428599D01*
X125819014Y-95290706D01*
X126045134Y-95105134D01*
X126230706Y-94879014D01*
X126260000Y-94824209D01*
X126289294Y-94879014D01*
X126474866Y-95105134D01*
X126700986Y-95290706D01*
X126958966Y-95428599D01*
X127238889Y-95513513D01*
X127457050Y-95535000D01*
X127602950Y-95535000D01*
X127821111Y-95513513D01*
X128101034Y-95428599D01*
X128359014Y-95290706D01*
X128585134Y-95105134D01*
X128770706Y-94879014D01*
X128800000Y-94824209D01*
X128829294Y-94879014D01*
X129014866Y-95105134D01*
X129240986Y-95290706D01*
X129498966Y-95428599D01*
X129778889Y-95513513D01*
X129997050Y-95535000D01*
X130142950Y-95535000D01*
X130361111Y-95513513D01*
X130641034Y-95428599D01*
X130899014Y-95290706D01*
X131125134Y-95105134D01*
X131310706Y-94879014D01*
X131345201Y-94814477D01*
X131414822Y-94931355D01*
X131609731Y-95147588D01*
X131843080Y-95321641D01*
X132105901Y-95446825D01*
X132253110Y-95491476D01*
X132483000Y-95370155D01*
X132483000Y-94177000D01*
X132463000Y-94177000D01*
X132463000Y-93923000D01*
X132483000Y-93923000D01*
X132483000Y-92729845D01*
X132253110Y-92608524D01*
X132105901Y-92653175D01*
X131843080Y-92778359D01*
X131609731Y-92952412D01*
X131414822Y-93168645D01*
X131345201Y-93285523D01*
X131310706Y-93220986D01*
X131125134Y-92994866D01*
X130899014Y-92809294D01*
X130830000Y-92772405D01*
X130830000Y-85377701D01*
X131710928Y-84496773D01*
X131710928Y-85050000D01*
X131723188Y-85174482D01*
X131759498Y-85294180D01*
X131818463Y-85404494D01*
X131897815Y-85501185D01*
X131994506Y-85580537D01*
X132104820Y-85639502D01*
X132224518Y-85675812D01*
X132349000Y-85688072D01*
X134513401Y-85688072D01*
X134513401Y-87691368D01*
X134509724Y-87728700D01*
X134513401Y-87766033D01*
X134524398Y-87877686D01*
X134527656Y-87888425D01*
X134567854Y-88020946D01*
X134638426Y-88152976D01*
X134698685Y-88226401D01*
X134733400Y-88268701D01*
X134762398Y-88292499D01*
X136709898Y-90240000D01*
X134638998Y-92310901D01*
X134610000Y-92334699D01*
X134586202Y-92363697D01*
X134586201Y-92363698D01*
X134515026Y-92450424D01*
X134444454Y-92582454D01*
X134435081Y-92613354D01*
X134400998Y-92725714D01*
X134396755Y-92768795D01*
X134320986Y-92809294D01*
X134094866Y-92994866D01*
X133909294Y-93220986D01*
X133874799Y-93285523D01*
X133805178Y-93168645D01*
X133610269Y-92952412D01*
X133376920Y-92778359D01*
X133114099Y-92653175D01*
X132966890Y-92608524D01*
X132737000Y-92729845D01*
X132737000Y-93923000D01*
X132757000Y-93923000D01*
X132757000Y-94177000D01*
X132737000Y-94177000D01*
X132737000Y-95370155D01*
X132966890Y-95491476D01*
X133114099Y-95446825D01*
X133376920Y-95321641D01*
X133610269Y-95147588D01*
X133805178Y-94931355D01*
X133874799Y-94814477D01*
X133909294Y-94879014D01*
X134094866Y-95105134D01*
X134320986Y-95290706D01*
X134578966Y-95428599D01*
X134858889Y-95513513D01*
X135077050Y-95535000D01*
X135222950Y-95535000D01*
X135441111Y-95513513D01*
X135721034Y-95428599D01*
X135979014Y-95290706D01*
X136205134Y-95105134D01*
X136390706Y-94879014D01*
X136420000Y-94824209D01*
X136449294Y-94879014D01*
X136634866Y-95105134D01*
X136860986Y-95290706D01*
X137118966Y-95428599D01*
X137398889Y-95513513D01*
X137617050Y-95535000D01*
X137762950Y-95535000D01*
X137981111Y-95513513D01*
X138261034Y-95428599D01*
X138519014Y-95290706D01*
X138598595Y-95225396D01*
X139125101Y-95751902D01*
X139148899Y-95780901D01*
X139264624Y-95875874D01*
X139396653Y-95946446D01*
X139539914Y-95989903D01*
X139651567Y-96000900D01*
X139651576Y-96000900D01*
X139688899Y-96004576D01*
X139726222Y-96000900D01*
X141016678Y-96000900D01*
X141054000Y-96004576D01*
X141091322Y-96000900D01*
X141091333Y-96000900D01*
X141202986Y-95989903D01*
X141346247Y-95946446D01*
X141478276Y-95875874D01*
X141594001Y-95780901D01*
X141617804Y-95751897D01*
X143004402Y-94365300D01*
X144406078Y-94365300D01*
X144443400Y-94368976D01*
X144480722Y-94365300D01*
X144480733Y-94365300D01*
X144592386Y-94354303D01*
X144735647Y-94310846D01*
X144867676Y-94240274D01*
X144983401Y-94145301D01*
X145007203Y-94116298D01*
X145287377Y-93836125D01*
X145349820Y-93869502D01*
X145469518Y-93905812D01*
X145594000Y-93918072D01*
X147394000Y-93918072D01*
X147518482Y-93905812D01*
X147638180Y-93869502D01*
X147748494Y-93810537D01*
X147845185Y-93731185D01*
X147924537Y-93634494D01*
X147983502Y-93524180D01*
X148019812Y-93404482D01*
X148032072Y-93280000D01*
X148032072Y-92280000D01*
X148019812Y-92155518D01*
X147983502Y-92035820D01*
X147924537Y-91925506D01*
X147845185Y-91828815D01*
X147748494Y-91749463D01*
X147638180Y-91690498D01*
X147518482Y-91654188D01*
X147394000Y-91641928D01*
X147134300Y-91641928D01*
X147134300Y-91378072D01*
X147394000Y-91378072D01*
X147518482Y-91365812D01*
X147638180Y-91329502D01*
X147748494Y-91270537D01*
X147845185Y-91191185D01*
X147924537Y-91094494D01*
X147983502Y-90984180D01*
X148019812Y-90864482D01*
X148032072Y-90740000D01*
X148032072Y-89740000D01*
X148019812Y-89615518D01*
X147983502Y-89495820D01*
X147924537Y-89385506D01*
X147845185Y-89288815D01*
X147748494Y-89209463D01*
X147638180Y-89150498D01*
X147518482Y-89114188D01*
X147394000Y-89101928D01*
X146028700Y-89101928D01*
X146028700Y-88838072D01*
X147394000Y-88838072D01*
X147518482Y-88825812D01*
X147638180Y-88789502D01*
X147748494Y-88730537D01*
X147845185Y-88651185D01*
X147924537Y-88554494D01*
X147983502Y-88444180D01*
X148019812Y-88324482D01*
X148032072Y-88200000D01*
X148032072Y-87200000D01*
X148019812Y-87075518D01*
X147983502Y-86955820D01*
X147924537Y-86845506D01*
X147845185Y-86748815D01*
X147748494Y-86669463D01*
X147638180Y-86610498D01*
X147518482Y-86574188D01*
X147394000Y-86561928D01*
X145594000Y-86561928D01*
X145469518Y-86574188D01*
X145349820Y-86610498D01*
X145239506Y-86669463D01*
X145142815Y-86748815D01*
X145063463Y-86845506D01*
X145004498Y-86955820D01*
X145000337Y-86969536D01*
X144724959Y-86694158D01*
X144735547Y-86690946D01*
X144867576Y-86620374D01*
X144983301Y-86525401D01*
X145007103Y-86496398D01*
X145287377Y-86216125D01*
X145349820Y-86249502D01*
X145469518Y-86285812D01*
X145594000Y-86298072D01*
X147394000Y-86298072D01*
X147518482Y-86285812D01*
X147638180Y-86249502D01*
X147748494Y-86190537D01*
X147845185Y-86111185D01*
X147924537Y-86014494D01*
X147983502Y-85904180D01*
X148019812Y-85784482D01*
X148032072Y-85660000D01*
X148032072Y-84660000D01*
X148019812Y-84535518D01*
X147983502Y-84415820D01*
X147924537Y-84305506D01*
X147845185Y-84208815D01*
X147748494Y-84129463D01*
X147638180Y-84070498D01*
X147518482Y-84034188D01*
X147394000Y-84021928D01*
X145594000Y-84021928D01*
X145469518Y-84034188D01*
X145349820Y-84070498D01*
X145239506Y-84129463D01*
X145142815Y-84208815D01*
X145063463Y-84305506D01*
X145004498Y-84415820D01*
X144994433Y-84449000D01*
X144989969Y-84450354D01*
X144976453Y-84454454D01*
X144844423Y-84525026D01*
X144811680Y-84551898D01*
X144728699Y-84619999D01*
X144704902Y-84648996D01*
X144128499Y-85225400D01*
X143192072Y-85225400D01*
X143192072Y-84660000D01*
X143179812Y-84535518D01*
X143143502Y-84415820D01*
X143084537Y-84305506D01*
X143005185Y-84208815D01*
X143000902Y-84205300D01*
X144406078Y-84205300D01*
X144443400Y-84208976D01*
X144480722Y-84205300D01*
X144480733Y-84205300D01*
X144592386Y-84194303D01*
X144735647Y-84150846D01*
X144867676Y-84080274D01*
X144983401Y-83985301D01*
X145007203Y-83956298D01*
X145287377Y-83676125D01*
X145349820Y-83709502D01*
X145469518Y-83745812D01*
X145594000Y-83758072D01*
X147394000Y-83758072D01*
X147518482Y-83745812D01*
X147638180Y-83709502D01*
X147748494Y-83650537D01*
X147845185Y-83571185D01*
X147924537Y-83474494D01*
X147983502Y-83364180D01*
X148019812Y-83244482D01*
X148032072Y-83120000D01*
X148032072Y-82120000D01*
X148019812Y-81995518D01*
X147983502Y-81875820D01*
X147924537Y-81765506D01*
X147845185Y-81668815D01*
X147748494Y-81589463D01*
X147638180Y-81530498D01*
X147518482Y-81494188D01*
X147394000Y-81481928D01*
X145594000Y-81481928D01*
X145469518Y-81494188D01*
X145349820Y-81530498D01*
X145239506Y-81589463D01*
X145142815Y-81668815D01*
X145063463Y-81765506D01*
X145004498Y-81875820D01*
X144994433Y-81909000D01*
X144976453Y-81914454D01*
X144844424Y-81985026D01*
X144844422Y-81985027D01*
X144844423Y-81985027D01*
X144757696Y-82056201D01*
X144757692Y-82056205D01*
X144728699Y-82079999D01*
X144704905Y-82108992D01*
X144128598Y-82685300D01*
X143192072Y-82685300D01*
X143192072Y-82120000D01*
X143179812Y-81995518D01*
X143143502Y-81875820D01*
X143084537Y-81765506D01*
X143005185Y-81668815D01*
X142908494Y-81589463D01*
X142798180Y-81530498D01*
X142678482Y-81494188D01*
X142554000Y-81481928D01*
X140754000Y-81481928D01*
X140685800Y-81488645D01*
X140685800Y-81211355D01*
X140754000Y-81218072D01*
X142554000Y-81218072D01*
X142678482Y-81205812D01*
X142798180Y-81169502D01*
X142908494Y-81110537D01*
X143005185Y-81031185D01*
X143084537Y-80934494D01*
X143143502Y-80824180D01*
X143179812Y-80704482D01*
X143192072Y-80580000D01*
X143192072Y-79580000D01*
X143179812Y-79455518D01*
X143143502Y-79335820D01*
X143084537Y-79225506D01*
X143005185Y-79128815D01*
X143000902Y-79125300D01*
X143929663Y-79125300D01*
X143912595Y-79150844D01*
X143834574Y-79339202D01*
X143794800Y-79539161D01*
X143794800Y-79743039D01*
X143834574Y-79942998D01*
X143912595Y-80131356D01*
X144025863Y-80300874D01*
X144170026Y-80445037D01*
X144339544Y-80558305D01*
X144527902Y-80636326D01*
X144727861Y-80676100D01*
X144797056Y-80676100D01*
X144844424Y-80714974D01*
X144976453Y-80785546D01*
X144994433Y-80791000D01*
X145004498Y-80824180D01*
X145063463Y-80934494D01*
X145142815Y-81031185D01*
X145239506Y-81110537D01*
X145349820Y-81169502D01*
X145469518Y-81205812D01*
X145594000Y-81218072D01*
X147394000Y-81218072D01*
X147518482Y-81205812D01*
X147638180Y-81169502D01*
X147748494Y-81110537D01*
X147845185Y-81031185D01*
X147924537Y-80934494D01*
X147983502Y-80824180D01*
X148019812Y-80704482D01*
X148032072Y-80580000D01*
X148032072Y-79580000D01*
X148019812Y-79455518D01*
X147983502Y-79335820D01*
X147924537Y-79225506D01*
X147845185Y-79128815D01*
X147748494Y-79049463D01*
X147638180Y-78990498D01*
X147518482Y-78954188D01*
X147394000Y-78941928D01*
X145594339Y-78941928D01*
X145489574Y-78837163D01*
X145320056Y-78723895D01*
X145206601Y-78676900D01*
X145287377Y-78596125D01*
X145349820Y-78629502D01*
X145469518Y-78665812D01*
X145594000Y-78678072D01*
X147394000Y-78678072D01*
X147518482Y-78665812D01*
X147638180Y-78629502D01*
X147748494Y-78570537D01*
X147845185Y-78491185D01*
X147924537Y-78394494D01*
X147983502Y-78284180D01*
X148019812Y-78164482D01*
X148032072Y-78040000D01*
X148032072Y-77040000D01*
X148019812Y-76915518D01*
X147983502Y-76795820D01*
X147924537Y-76685506D01*
X147845185Y-76588815D01*
X147748494Y-76509463D01*
X147638180Y-76450498D01*
X147518482Y-76414188D01*
X147394000Y-76401928D01*
X145594000Y-76401928D01*
X145469518Y-76414188D01*
X145349820Y-76450498D01*
X145239506Y-76509463D01*
X145142815Y-76588815D01*
X145063463Y-76685506D01*
X145004498Y-76795820D01*
X144994433Y-76829000D01*
X144976453Y-76834454D01*
X144844424Y-76905026D01*
X144844422Y-76905027D01*
X144844423Y-76905027D01*
X144757696Y-76976201D01*
X144757692Y-76976205D01*
X144728699Y-76999999D01*
X144704905Y-77028992D01*
X144128598Y-77605300D01*
X143192072Y-77605300D01*
X143192072Y-77040000D01*
X143179812Y-76915518D01*
X143143502Y-76795820D01*
X143084537Y-76685506D01*
X143005185Y-76588815D01*
X143000902Y-76585300D01*
X144406078Y-76585300D01*
X144443400Y-76588976D01*
X144480722Y-76585300D01*
X144480733Y-76585300D01*
X144592386Y-76574303D01*
X144735647Y-76530846D01*
X144867676Y-76460274D01*
X144983401Y-76365301D01*
X145007203Y-76336298D01*
X145287377Y-76056125D01*
X145349820Y-76089502D01*
X145469518Y-76125812D01*
X145594000Y-76138072D01*
X147394000Y-76138072D01*
X147518482Y-76125812D01*
X147638180Y-76089502D01*
X147748494Y-76030537D01*
X147845185Y-75951185D01*
X147924537Y-75854494D01*
X147983502Y-75744180D01*
X148019812Y-75624482D01*
X148032072Y-75500000D01*
X148032072Y-74500000D01*
X148019812Y-74375518D01*
X147983502Y-74255820D01*
X147924537Y-74145506D01*
X147845185Y-74048815D01*
X147748494Y-73969463D01*
X147638180Y-73910498D01*
X147518482Y-73874188D01*
X147394000Y-73861928D01*
X145594000Y-73861928D01*
X145469518Y-73874188D01*
X145349820Y-73910498D01*
X145239506Y-73969463D01*
X145142815Y-74048815D01*
X145063463Y-74145506D01*
X145004498Y-74255820D01*
X144994433Y-74289000D01*
X144976453Y-74294454D01*
X144844424Y-74365026D01*
X144831639Y-74375518D01*
X144757696Y-74436201D01*
X144757692Y-74436205D01*
X144728699Y-74459999D01*
X144704905Y-74488992D01*
X144128598Y-75065300D01*
X143192072Y-75065300D01*
X143192072Y-74919800D01*
X143531578Y-74919800D01*
X143568900Y-74923476D01*
X143606222Y-74919800D01*
X143606233Y-74919800D01*
X143717886Y-74908803D01*
X143861147Y-74865346D01*
X143993176Y-74794774D01*
X144108901Y-74699801D01*
X144132704Y-74670797D01*
X145287377Y-73516125D01*
X145349820Y-73549502D01*
X145469518Y-73585812D01*
X145594000Y-73598072D01*
X147394000Y-73598072D01*
X147518482Y-73585812D01*
X147638180Y-73549502D01*
X147748494Y-73490537D01*
X147845185Y-73411185D01*
X147924537Y-73314494D01*
X147983502Y-73204180D01*
X148019812Y-73084482D01*
X148032072Y-72960000D01*
X148032072Y-71960000D01*
X148019812Y-71835518D01*
X147983502Y-71715820D01*
X147924537Y-71605506D01*
X147845185Y-71508815D01*
X147748494Y-71429463D01*
X147638180Y-71370498D01*
X147518482Y-71334188D01*
X147394000Y-71321928D01*
X145594000Y-71321928D01*
X145469518Y-71334188D01*
X145349820Y-71370498D01*
X145239506Y-71429463D01*
X145142815Y-71508815D01*
X145063463Y-71605506D01*
X145004498Y-71715820D01*
X144994433Y-71749000D01*
X144976453Y-71754454D01*
X144844424Y-71825026D01*
X144728699Y-71919999D01*
X144704901Y-71948997D01*
X143254099Y-73399800D01*
X143014528Y-73399800D01*
X143084537Y-73314494D01*
X143143502Y-73204180D01*
X143179812Y-73084482D01*
X143192072Y-72960000D01*
X143192072Y-71960000D01*
X143179812Y-71835518D01*
X143143502Y-71715820D01*
X143084537Y-71605506D01*
X143005185Y-71508815D01*
X143000902Y-71505300D01*
X144406078Y-71505300D01*
X144443400Y-71508976D01*
X144480722Y-71505300D01*
X144480733Y-71505300D01*
X144592386Y-71494303D01*
X144735647Y-71450846D01*
X144867676Y-71380274D01*
X144983401Y-71285301D01*
X145007203Y-71256298D01*
X145287377Y-70976125D01*
X145349820Y-71009502D01*
X145469518Y-71045812D01*
X145594000Y-71058072D01*
X147394000Y-71058072D01*
X147518482Y-71045812D01*
X147638180Y-71009502D01*
X147748494Y-70950537D01*
X147845185Y-70871185D01*
X147924537Y-70774494D01*
X147983502Y-70664180D01*
X148019812Y-70544482D01*
X148032072Y-70420000D01*
X148032072Y-69420000D01*
X148019812Y-69295518D01*
X147983502Y-69175820D01*
X147924537Y-69065506D01*
X147845185Y-68968815D01*
X147748494Y-68889463D01*
X147638180Y-68830498D01*
X147518482Y-68794188D01*
X147394000Y-68781928D01*
X145594000Y-68781928D01*
X145469518Y-68794188D01*
X145349820Y-68830498D01*
X145239506Y-68889463D01*
X145142815Y-68968815D01*
X145063463Y-69065506D01*
X145004498Y-69175820D01*
X144994433Y-69209000D01*
X144976453Y-69214454D01*
X144844424Y-69285026D01*
X144844422Y-69285027D01*
X144844423Y-69285027D01*
X144757696Y-69356201D01*
X144757692Y-69356205D01*
X144728699Y-69379999D01*
X144704905Y-69408992D01*
X144128598Y-69985300D01*
X143192072Y-69985300D01*
X143192072Y-69854700D01*
X143516678Y-69854700D01*
X143554000Y-69858376D01*
X143591322Y-69854700D01*
X143591333Y-69854700D01*
X143702986Y-69843703D01*
X143846247Y-69800246D01*
X143978276Y-69729674D01*
X144094001Y-69634701D01*
X144117804Y-69605697D01*
X145287377Y-68436125D01*
X145349820Y-68469502D01*
X145469518Y-68505812D01*
X145594000Y-68518072D01*
X147394000Y-68518072D01*
X147518482Y-68505812D01*
X147638180Y-68469502D01*
X147748494Y-68410537D01*
X147845185Y-68331185D01*
X147924537Y-68234494D01*
X147983502Y-68124180D01*
X148019812Y-68004482D01*
X148032072Y-67880000D01*
X148032072Y-66880000D01*
X148019812Y-66755518D01*
X147983502Y-66635820D01*
X147924537Y-66525506D01*
X147845185Y-66428815D01*
X147748494Y-66349463D01*
X147638180Y-66290498D01*
X147518482Y-66254188D01*
X147394000Y-66241928D01*
X145766874Y-66241928D01*
X145779703Y-66229099D01*
X145808701Y-66205301D01*
X145903674Y-66089576D01*
X145963275Y-65978072D01*
X147394000Y-65978072D01*
X147518482Y-65965812D01*
X147638180Y-65929502D01*
X147748494Y-65870537D01*
X147845185Y-65791185D01*
X147924537Y-65694494D01*
X147983502Y-65584180D01*
X148019812Y-65464482D01*
X148032072Y-65340000D01*
X148032072Y-64340000D01*
X148019812Y-64215518D01*
X147983502Y-64095820D01*
X147924537Y-63985506D01*
X147845185Y-63888815D01*
X147748494Y-63809463D01*
X147638180Y-63750498D01*
X147518482Y-63714188D01*
X147394000Y-63701928D01*
X145594000Y-63701928D01*
X145469518Y-63714188D01*
X145349820Y-63750498D01*
X145239506Y-63809463D01*
X145142815Y-63888815D01*
X145063463Y-63985506D01*
X145004498Y-64095820D01*
X144994433Y-64129000D01*
X144976453Y-64134454D01*
X144844424Y-64205026D01*
X144728699Y-64299999D01*
X144633726Y-64415724D01*
X144563154Y-64547753D01*
X144519697Y-64691014D01*
X144505023Y-64840000D01*
X144508700Y-64877333D01*
X144508700Y-65350498D01*
X143162093Y-66697106D01*
X143143502Y-66635820D01*
X143084537Y-66525506D01*
X143005185Y-66428815D01*
X142908494Y-66349463D01*
X142798180Y-66290498D01*
X142678482Y-66254188D01*
X142554000Y-66241928D01*
X140754000Y-66241928D01*
X140629518Y-66254188D01*
X140509820Y-66290498D01*
X140399506Y-66349463D01*
X140392807Y-66354960D01*
X140233639Y-66323300D01*
X140029761Y-66323300D01*
X139829802Y-66363074D01*
X139641444Y-66441095D01*
X139471926Y-66554363D01*
X139327763Y-66698526D01*
X139214495Y-66868044D01*
X139136474Y-67056402D01*
X139096700Y-67256361D01*
X139096700Y-67460239D01*
X139136474Y-67660198D01*
X139214495Y-67848556D01*
X139327763Y-68018074D01*
X139471926Y-68162237D01*
X139601010Y-68248488D01*
X137987072Y-69862427D01*
X137987072Y-69600000D01*
X137976882Y-69496535D01*
X137984000Y-69431750D01*
X137951753Y-69399503D01*
X137938502Y-69355820D01*
X137881939Y-69250000D01*
X137938502Y-69144180D01*
X137951753Y-69100497D01*
X137984000Y-69068250D01*
X137976882Y-69003465D01*
X137987072Y-68900000D01*
X137987072Y-68600000D01*
X137976882Y-68496535D01*
X137984000Y-68431750D01*
X137951753Y-68399503D01*
X137938502Y-68355820D01*
X137881939Y-68250000D01*
X137938502Y-68144180D01*
X137951753Y-68100497D01*
X137984000Y-68068250D01*
X137976882Y-68003465D01*
X137987072Y-67900000D01*
X137987072Y-67600000D01*
X137981399Y-67542402D01*
X140122013Y-65401788D01*
X140128188Y-65464482D01*
X140164498Y-65584180D01*
X140223463Y-65694494D01*
X140302815Y-65791185D01*
X140399506Y-65870537D01*
X140509820Y-65929502D01*
X140629518Y-65965812D01*
X140754000Y-65978072D01*
X142554000Y-65978072D01*
X142678482Y-65965812D01*
X142798180Y-65929502D01*
X142908494Y-65870537D01*
X143005185Y-65791185D01*
X143084537Y-65694494D01*
X143143502Y-65584180D01*
X143153567Y-65551000D01*
X143171547Y-65545546D01*
X143303576Y-65474974D01*
X143419301Y-65380001D01*
X143443103Y-65350998D01*
X144807509Y-63986594D01*
X144836501Y-63962801D01*
X144860295Y-63933808D01*
X144860299Y-63933804D01*
X144931473Y-63847077D01*
X144931474Y-63847076D01*
X145002046Y-63715047D01*
X145045503Y-63571786D01*
X145056500Y-63460133D01*
X145056500Y-63460124D01*
X145060176Y-63422801D01*
X145056500Y-63385478D01*
X145056500Y-63141467D01*
X145063463Y-63154494D01*
X145142815Y-63251185D01*
X145239506Y-63330537D01*
X145349820Y-63389502D01*
X145469518Y-63425812D01*
X145594000Y-63438072D01*
X146208250Y-63435000D01*
X146367000Y-63276250D01*
X146367000Y-62427000D01*
X146621000Y-62427000D01*
X146621000Y-63276250D01*
X146779750Y-63435000D01*
X147394000Y-63438072D01*
X147518482Y-63425812D01*
X147638180Y-63389502D01*
X147748494Y-63330537D01*
X147845185Y-63251185D01*
X147924537Y-63154494D01*
X147983502Y-63044180D01*
X148019812Y-62924482D01*
X148032072Y-62800000D01*
X148029000Y-62585750D01*
X147870250Y-62427000D01*
X146621000Y-62427000D01*
X146367000Y-62427000D01*
X146347000Y-62427000D01*
X146347000Y-62173000D01*
X146367000Y-62173000D01*
X146367000Y-61323750D01*
X146621000Y-61323750D01*
X146621000Y-62173000D01*
X147870250Y-62173000D01*
X148029000Y-62014250D01*
X148032072Y-61800000D01*
X148019812Y-61675518D01*
X147983502Y-61555820D01*
X147924537Y-61445506D01*
X147845185Y-61348815D01*
X147748494Y-61269463D01*
X147638180Y-61210498D01*
X147518482Y-61174188D01*
X147394000Y-61161928D01*
X146779750Y-61165000D01*
X146621000Y-61323750D01*
X146367000Y-61323750D01*
X146208250Y-61165000D01*
X145611800Y-61162017D01*
X145611800Y-60889976D01*
X145694000Y-60898072D01*
X146308250Y-60895000D01*
X146467000Y-60736250D01*
X146467000Y-59887000D01*
X146721000Y-59887000D01*
X146721000Y-60736250D01*
X146879750Y-60895000D01*
X147494000Y-60898072D01*
X147618482Y-60885812D01*
X147738180Y-60849502D01*
X147848494Y-60790537D01*
X147945185Y-60711185D01*
X148024537Y-60614494D01*
X148083502Y-60504180D01*
X148119812Y-60384482D01*
X148132072Y-60260000D01*
X148129000Y-60045750D01*
X147970250Y-59887000D01*
X146721000Y-59887000D01*
X146467000Y-59887000D01*
X146447000Y-59887000D01*
X146447000Y-59633000D01*
X146467000Y-59633000D01*
X146467000Y-58783750D01*
X146721000Y-58783750D01*
X146721000Y-59633000D01*
X147970250Y-59633000D01*
X148129000Y-59474250D01*
X148132072Y-59260000D01*
X148119812Y-59135518D01*
X148083502Y-59015820D01*
X148024537Y-58905506D01*
X147945185Y-58808815D01*
X147848494Y-58729463D01*
X147738180Y-58670498D01*
X147618482Y-58634188D01*
X147494000Y-58621928D01*
X146879750Y-58625000D01*
X146721000Y-58783750D01*
X146467000Y-58783750D01*
X146308250Y-58625000D01*
X145694000Y-58621928D01*
X145611800Y-58630024D01*
X145611800Y-58357983D01*
X146208250Y-58355000D01*
X146367000Y-58196250D01*
X146367000Y-57347000D01*
X146621000Y-57347000D01*
X146621000Y-58196250D01*
X146779750Y-58355000D01*
X147394000Y-58358072D01*
X147518482Y-58345812D01*
X147638180Y-58309502D01*
X147748494Y-58250537D01*
X147845185Y-58171185D01*
X147924537Y-58074494D01*
X147983502Y-57964180D01*
X148019812Y-57844482D01*
X148032072Y-57720000D01*
X148029000Y-57505750D01*
X147870250Y-57347000D01*
X146621000Y-57347000D01*
X146367000Y-57347000D01*
X146347000Y-57347000D01*
X146347000Y-57093000D01*
X146367000Y-57093000D01*
X146367000Y-56243750D01*
X146621000Y-56243750D01*
X146621000Y-57093000D01*
X147870250Y-57093000D01*
X148029000Y-56934250D01*
X148032072Y-56720000D01*
X148019812Y-56595518D01*
X147983502Y-56475820D01*
X147924537Y-56365506D01*
X147845185Y-56268815D01*
X147748494Y-56189463D01*
X147638180Y-56130498D01*
X147518482Y-56094188D01*
X147394000Y-56081928D01*
X146779750Y-56085000D01*
X146621000Y-56243750D01*
X146367000Y-56243750D01*
X146208250Y-56085000D01*
X145594000Y-56081928D01*
X145469518Y-56094188D01*
X145349820Y-56130498D01*
X145239506Y-56189463D01*
X145142815Y-56268815D01*
X145063463Y-56365506D01*
X145004498Y-56475820D01*
X144968188Y-56595518D01*
X144955928Y-56720000D01*
X144959000Y-56934250D01*
X145117748Y-57092998D01*
X144959000Y-57092998D01*
X144959000Y-57201798D01*
X142377165Y-54619964D01*
X142493919Y-54668325D01*
X142829117Y-54735000D01*
X143170883Y-54735000D01*
X143506081Y-54668325D01*
X143821831Y-54537537D01*
X144105998Y-54347663D01*
X144347663Y-54105998D01*
X144537537Y-53821831D01*
X144668325Y-53506081D01*
X144735000Y-53170883D01*
X144735000Y-52829117D01*
X144668325Y-52493919D01*
X144537537Y-52178169D01*
X144347663Y-51894002D01*
X144105998Y-51652337D01*
X143821831Y-51462463D01*
X143506081Y-51331675D01*
X143170883Y-51265000D01*
X142829117Y-51265000D01*
X142493919Y-51331675D01*
X142178169Y-51462463D01*
X141894002Y-51652337D01*
X141652337Y-51894002D01*
X141462463Y-52178169D01*
X141331675Y-52493919D01*
X141265000Y-52829117D01*
X141265000Y-53170883D01*
X141331675Y-53506081D01*
X141462463Y-53821831D01*
X141597451Y-54023855D01*
X141493333Y-54013600D01*
X141493322Y-54013600D01*
X141456000Y-54009924D01*
X141418678Y-54013600D01*
X134631722Y-54013600D01*
X134594399Y-54009924D01*
X134557076Y-54013600D01*
X134557067Y-54013600D01*
X134445414Y-54024597D01*
X134302153Y-54068054D01*
X134170124Y-54138626D01*
X134054399Y-54233599D01*
X134030601Y-54262598D01*
X133518595Y-54774604D01*
X133439014Y-54709294D01*
X133181034Y-54571401D01*
X132901111Y-54486487D01*
X132682950Y-54465000D01*
X132537050Y-54465000D01*
X132318889Y-54486487D01*
X132038966Y-54571401D01*
X131780986Y-54709294D01*
X131685093Y-54787991D01*
X131137703Y-54240602D01*
X131113901Y-54211599D01*
X130998176Y-54116626D01*
X130866147Y-54046054D01*
X130722886Y-54002597D01*
X130611233Y-53991600D01*
X130611222Y-53991600D01*
X130573900Y-53987924D01*
X130536578Y-53991600D01*
X129573723Y-53991600D01*
X129536400Y-53987924D01*
X129499077Y-53991600D01*
X129499067Y-53991600D01*
X129387414Y-54002597D01*
X129244153Y-54046054D01*
X129112123Y-54116626D01*
X129053666Y-54164601D01*
X128996399Y-54211599D01*
X128972601Y-54240598D01*
X128438595Y-54774604D01*
X128359014Y-54709294D01*
X128101034Y-54571401D01*
X127821111Y-54486487D01*
X127602950Y-54465000D01*
X127457050Y-54465000D01*
X127238889Y-54486487D01*
X126958966Y-54571401D01*
X126700986Y-54709294D01*
X126474866Y-54894866D01*
X126289294Y-55120986D01*
X126260000Y-55175791D01*
X126230706Y-55120986D01*
X126045134Y-54894866D01*
X125819014Y-54709294D01*
X125561034Y-54571401D01*
X125281111Y-54486487D01*
X125062950Y-54465000D01*
X124917050Y-54465000D01*
X124698889Y-54486487D01*
X124418966Y-54571401D01*
X124160986Y-54709294D01*
X124085086Y-54771584D01*
X123530903Y-54217402D01*
X123507101Y-54188399D01*
X123391376Y-54093426D01*
X123259347Y-54022854D01*
X123116086Y-53979397D01*
X123004433Y-53968400D01*
X123004422Y-53968400D01*
X122967100Y-53964724D01*
X122929778Y-53968400D01*
X111816925Y-53968400D01*
X111779600Y-53964724D01*
X111742275Y-53968400D01*
X111742267Y-53968400D01*
X111630614Y-53979397D01*
X111487353Y-54022854D01*
X111355324Y-54093426D01*
X111239599Y-54188399D01*
X111215801Y-54217397D01*
X110895349Y-54537849D01*
X110844180Y-54510498D01*
X110724482Y-54474188D01*
X110600000Y-54461928D01*
X108900000Y-54461928D01*
X108775518Y-54474188D01*
X108655820Y-54510498D01*
X108545506Y-54569463D01*
X108448815Y-54648815D01*
X108369463Y-54745506D01*
X108310498Y-54855820D01*
X108274188Y-54975518D01*
X108261928Y-55100000D01*
X103770486Y-55100000D01*
X104058669Y-54980631D01*
X104424729Y-54736038D01*
X104736038Y-54424729D01*
X104980631Y-54058669D01*
X105149110Y-53651925D01*
X105235000Y-53220128D01*
X105235000Y-52829117D01*
X105265000Y-52829117D01*
X105265000Y-53170883D01*
X105331675Y-53506081D01*
X105462463Y-53821831D01*
X105652337Y-54105998D01*
X105894002Y-54347663D01*
X106178169Y-54537537D01*
X106493919Y-54668325D01*
X106829117Y-54735000D01*
X107170883Y-54735000D01*
X107506081Y-54668325D01*
X107821831Y-54537537D01*
X108105998Y-54347663D01*
X108347663Y-54105998D01*
X108537537Y-53821831D01*
X108668325Y-53506081D01*
X108735000Y-53170883D01*
X108735000Y-52829117D01*
X108668325Y-52493919D01*
X108537537Y-52178169D01*
X108347663Y-51894002D01*
X108105998Y-51652337D01*
X107821831Y-51462463D01*
X107506081Y-51331675D01*
X107170883Y-51265000D01*
X106829117Y-51265000D01*
X106493919Y-51331675D01*
X106178169Y-51462463D01*
X105894002Y-51652337D01*
X105652337Y-51894002D01*
X105462463Y-52178169D01*
X105331675Y-52493919D01*
X105265000Y-52829117D01*
X105235000Y-52829117D01*
X105235000Y-52779872D01*
X105149110Y-52348075D01*
X104980631Y-51941331D01*
X104736038Y-51575271D01*
X104424729Y-51263962D01*
X104058669Y-51019369D01*
X103651925Y-50850890D01*
X103220128Y-50765000D01*
X102779872Y-50765000D01*
X102354474Y-50849617D01*
X102494091Y-50710000D01*
X147505909Y-50710000D01*
X147645526Y-50849617D01*
G36*
X133551309Y-74381410D02*
G01*
X124710000Y-83222720D01*
X124710000Y-65965123D01*
X124706515Y-65929738D01*
X124706515Y-65916754D01*
X124705478Y-65906895D01*
X124683723Y-65712945D01*
X124670347Y-65650016D01*
X124657844Y-65586873D01*
X124654913Y-65577403D01*
X124611989Y-65442090D01*
X133551309Y-74381410D01*
X133551309Y-74381410D01*
G37*
X133551309Y-74381410D02*
X124710000Y-83222720D01*
X124710000Y-65965123D01*
X124706515Y-65929738D01*
X124706515Y-65916754D01*
X124705478Y-65906895D01*
X124683723Y-65712945D01*
X124670347Y-65650016D01*
X124657844Y-65586873D01*
X124654913Y-65577403D01*
X124611989Y-65442090D01*
X133551309Y-74381410D01*
M02*
