G04 #@! TF.GenerationSoftware,KiCad,Pcbnew,5.1.2-f72e74a~84~ubuntu18.04.1*
G04 #@! TF.CreationDate,2019-07-12T15:11:00+09:00*
G04 #@! TF.ProjectId,bottom_pcb,626f7474-6f6d-45f7-9063-622e6b696361,rev?*
G04 #@! TF.SameCoordinates,Original*
G04 #@! TF.FileFunction,Legend,Bot*
G04 #@! TF.FilePolarity,Positive*
%FSLAX46Y46*%
G04 Gerber Fmt 4.6, Leading zero omitted, Abs format (unit mm)*
G04 Created by KiCad (PCBNEW 5.1.2-f72e74a~84~ubuntu18.04.1) date 2019-07-12 15:11:00*
%MOMM*%
%LPD*%
G04 APERTURE LIST*
%ADD10C,0.300000*%
%ADD11C,0.250000*%
%ADD12C,0.600000*%
%ADD13C,0.120000*%
%ADD14C,0.010000*%
G04 APERTURE END LIST*
D10*
X113140514Y-86001157D02*
X113140514Y-84801157D01*
X113140514Y-85258300D02*
X113026228Y-85201157D01*
X112797657Y-85201157D01*
X112683371Y-85258300D01*
X112626228Y-85315442D01*
X112569085Y-85429728D01*
X112569085Y-85772585D01*
X112626228Y-85886871D01*
X112683371Y-85944014D01*
X112797657Y-86001157D01*
X113026228Y-86001157D01*
X113140514Y-85944014D01*
X111883371Y-86001157D02*
X111997657Y-85944014D01*
X112054800Y-85886871D01*
X112111942Y-85772585D01*
X112111942Y-85429728D01*
X112054800Y-85315442D01*
X111997657Y-85258300D01*
X111883371Y-85201157D01*
X111711942Y-85201157D01*
X111597657Y-85258300D01*
X111540514Y-85315442D01*
X111483371Y-85429728D01*
X111483371Y-85772585D01*
X111540514Y-85886871D01*
X111597657Y-85944014D01*
X111711942Y-86001157D01*
X111883371Y-86001157D01*
X111140514Y-85201157D02*
X110683371Y-85201157D01*
X110969085Y-84801157D02*
X110969085Y-85829728D01*
X110911942Y-85944014D01*
X110797657Y-86001157D01*
X110683371Y-86001157D01*
X110454800Y-85201157D02*
X109997657Y-85201157D01*
X110283371Y-84801157D02*
X110283371Y-85829728D01*
X110226228Y-85944014D01*
X110111942Y-86001157D01*
X109997657Y-86001157D01*
X109426228Y-86001157D02*
X109540514Y-85944014D01*
X109597657Y-85886871D01*
X109654800Y-85772585D01*
X109654800Y-85429728D01*
X109597657Y-85315442D01*
X109540514Y-85258300D01*
X109426228Y-85201157D01*
X109254800Y-85201157D01*
X109140514Y-85258300D01*
X109083371Y-85315442D01*
X109026228Y-85429728D01*
X109026228Y-85772585D01*
X109083371Y-85886871D01*
X109140514Y-85944014D01*
X109254800Y-86001157D01*
X109426228Y-86001157D01*
X108511942Y-86001157D02*
X108511942Y-85201157D01*
X108511942Y-85315442D02*
X108454800Y-85258300D01*
X108340514Y-85201157D01*
X108169085Y-85201157D01*
X108054800Y-85258300D01*
X107997657Y-85372585D01*
X107997657Y-86001157D01*
X107997657Y-85372585D02*
X107940514Y-85258300D01*
X107826228Y-85201157D01*
X107654800Y-85201157D01*
X107540514Y-85258300D01*
X107483371Y-85372585D01*
X107483371Y-86001157D01*
X107197657Y-86115442D02*
X106283371Y-86115442D01*
X105997657Y-85201157D02*
X105997657Y-86401157D01*
X105997657Y-85258300D02*
X105883371Y-85201157D01*
X105654800Y-85201157D01*
X105540514Y-85258300D01*
X105483371Y-85315442D01*
X105426228Y-85429728D01*
X105426228Y-85772585D01*
X105483371Y-85886871D01*
X105540514Y-85944014D01*
X105654800Y-86001157D01*
X105883371Y-86001157D01*
X105997657Y-85944014D01*
X104397657Y-85944014D02*
X104511942Y-86001157D01*
X104740514Y-86001157D01*
X104854800Y-85944014D01*
X104911942Y-85886871D01*
X104969085Y-85772585D01*
X104969085Y-85429728D01*
X104911942Y-85315442D01*
X104854800Y-85258300D01*
X104740514Y-85201157D01*
X104511942Y-85201157D01*
X104397657Y-85258300D01*
X103883371Y-86001157D02*
X103883371Y-84801157D01*
X103883371Y-85258300D02*
X103769085Y-85201157D01*
X103540514Y-85201157D01*
X103426228Y-85258300D01*
X103369085Y-85315442D01*
X103311942Y-85429728D01*
X103311942Y-85772585D01*
X103369085Y-85886871D01*
X103426228Y-85944014D01*
X103540514Y-86001157D01*
X103769085Y-86001157D01*
X103883371Y-85944014D01*
D11*
X139455604Y-90939880D02*
X139455604Y-89939880D01*
X138984176Y-90939880D02*
X138984176Y-90416071D01*
X139036557Y-90320833D01*
X139141319Y-90273214D01*
X139298461Y-90273214D01*
X139403223Y-90320833D01*
X139455604Y-90368452D01*
X138617509Y-90273214D02*
X138198461Y-90273214D01*
X138460366Y-89939880D02*
X138460366Y-90797023D01*
X138407985Y-90892261D01*
X138303223Y-90939880D01*
X138198461Y-90939880D01*
X137988938Y-90273214D02*
X137569890Y-90273214D01*
X137831795Y-89939880D02*
X137831795Y-90797023D01*
X137779414Y-90892261D01*
X137674652Y-90939880D01*
X137569890Y-90939880D01*
X137203223Y-90273214D02*
X137203223Y-91273214D01*
X137203223Y-90320833D02*
X137098461Y-90273214D01*
X136888938Y-90273214D01*
X136784176Y-90320833D01*
X136731795Y-90368452D01*
X136679414Y-90463690D01*
X136679414Y-90749404D01*
X136731795Y-90844642D01*
X136784176Y-90892261D01*
X136888938Y-90939880D01*
X137098461Y-90939880D01*
X137203223Y-90892261D01*
X136260366Y-90892261D02*
X136155604Y-90939880D01*
X135946080Y-90939880D01*
X135841319Y-90892261D01*
X135788938Y-90797023D01*
X135788938Y-90749404D01*
X135841319Y-90654166D01*
X135946080Y-90606547D01*
X136103223Y-90606547D01*
X136207985Y-90558928D01*
X136260366Y-90463690D01*
X136260366Y-90416071D01*
X136207985Y-90320833D01*
X136103223Y-90273214D01*
X135946080Y-90273214D01*
X135841319Y-90320833D01*
X135317509Y-90844642D02*
X135265128Y-90892261D01*
X135317509Y-90939880D01*
X135369890Y-90892261D01*
X135317509Y-90844642D01*
X135317509Y-90939880D01*
X135317509Y-90320833D02*
X135265128Y-90368452D01*
X135317509Y-90416071D01*
X135369890Y-90368452D01*
X135317509Y-90320833D01*
X135317509Y-90416071D01*
X134007985Y-89892261D02*
X134950842Y-91177976D01*
X132855604Y-89892261D02*
X133798461Y-91177976D01*
X132017509Y-90273214D02*
X132017509Y-91082738D01*
X132069890Y-91177976D01*
X132122271Y-91225595D01*
X132227033Y-91273214D01*
X132384176Y-91273214D01*
X132488938Y-91225595D01*
X132017509Y-90892261D02*
X132122271Y-90939880D01*
X132331795Y-90939880D01*
X132436557Y-90892261D01*
X132488938Y-90844642D01*
X132541319Y-90749404D01*
X132541319Y-90463690D01*
X132488938Y-90368452D01*
X132436557Y-90320833D01*
X132331795Y-90273214D01*
X132122271Y-90273214D01*
X132017509Y-90320833D01*
X131493700Y-90939880D02*
X131493700Y-90273214D01*
X131493700Y-89939880D02*
X131546080Y-89987500D01*
X131493700Y-90035119D01*
X131441319Y-89987500D01*
X131493700Y-89939880D01*
X131493700Y-90035119D01*
X131127033Y-90273214D02*
X130707985Y-90273214D01*
X130969890Y-89939880D02*
X130969890Y-90797023D01*
X130917509Y-90892261D01*
X130812747Y-90939880D01*
X130707985Y-90939880D01*
X130341319Y-90939880D02*
X130341319Y-89939880D01*
X129869890Y-90939880D02*
X129869890Y-90416071D01*
X129922271Y-90320833D01*
X130027033Y-90273214D01*
X130184176Y-90273214D01*
X130288938Y-90320833D01*
X130341319Y-90368452D01*
X128874652Y-90273214D02*
X128874652Y-90939880D01*
X129346080Y-90273214D02*
X129346080Y-90797023D01*
X129293700Y-90892261D01*
X129188938Y-90939880D01*
X129031795Y-90939880D01*
X128927033Y-90892261D01*
X128874652Y-90844642D01*
X128350842Y-90939880D02*
X128350842Y-89939880D01*
X128350842Y-90320833D02*
X128246080Y-90273214D01*
X128036557Y-90273214D01*
X127931795Y-90320833D01*
X127879414Y-90368452D01*
X127827033Y-90463690D01*
X127827033Y-90749404D01*
X127879414Y-90844642D01*
X127931795Y-90892261D01*
X128036557Y-90939880D01*
X128246080Y-90939880D01*
X128350842Y-90892261D01*
X127355604Y-90844642D02*
X127303223Y-90892261D01*
X127355604Y-90939880D01*
X127407985Y-90892261D01*
X127355604Y-90844642D01*
X127355604Y-90939880D01*
X126360366Y-90892261D02*
X126465128Y-90939880D01*
X126674652Y-90939880D01*
X126779414Y-90892261D01*
X126831795Y-90844642D01*
X126884176Y-90749404D01*
X126884176Y-90463690D01*
X126831795Y-90368452D01*
X126779414Y-90320833D01*
X126674652Y-90273214D01*
X126465128Y-90273214D01*
X126360366Y-90320833D01*
X125731795Y-90939880D02*
X125836557Y-90892261D01*
X125888938Y-90844642D01*
X125941319Y-90749404D01*
X125941319Y-90463690D01*
X125888938Y-90368452D01*
X125836557Y-90320833D01*
X125731795Y-90273214D01*
X125574652Y-90273214D01*
X125469890Y-90320833D01*
X125417509Y-90368452D01*
X125365128Y-90463690D01*
X125365128Y-90749404D01*
X125417509Y-90844642D01*
X125469890Y-90892261D01*
X125574652Y-90939880D01*
X125731795Y-90939880D01*
X124893700Y-90939880D02*
X124893700Y-90273214D01*
X124893700Y-90368452D02*
X124841319Y-90320833D01*
X124736557Y-90273214D01*
X124579414Y-90273214D01*
X124474652Y-90320833D01*
X124422271Y-90416071D01*
X124422271Y-90939880D01*
X124422271Y-90416071D02*
X124369890Y-90320833D01*
X124265128Y-90273214D01*
X124107985Y-90273214D01*
X124003223Y-90320833D01*
X123950842Y-90416071D01*
X123950842Y-90939880D01*
X122641319Y-89892261D02*
X123584176Y-91177976D01*
X121803223Y-90939880D02*
X121803223Y-90416071D01*
X121855604Y-90320833D01*
X121960366Y-90273214D01*
X122169890Y-90273214D01*
X122274652Y-90320833D01*
X121803223Y-90892261D02*
X121907985Y-90939880D01*
X122169890Y-90939880D01*
X122274652Y-90892261D01*
X122327033Y-90797023D01*
X122327033Y-90701785D01*
X122274652Y-90606547D01*
X122169890Y-90558928D01*
X121907985Y-90558928D01*
X121803223Y-90511309D01*
X121331795Y-90892261D02*
X121227033Y-90939880D01*
X121017509Y-90939880D01*
X120912747Y-90892261D01*
X120860366Y-90797023D01*
X120860366Y-90749404D01*
X120912747Y-90654166D01*
X121017509Y-90606547D01*
X121174652Y-90606547D01*
X121279414Y-90558928D01*
X121331795Y-90463690D01*
X121331795Y-90416071D01*
X121279414Y-90320833D01*
X121174652Y-90273214D01*
X121017509Y-90273214D01*
X120912747Y-90320833D01*
X119917509Y-90273214D02*
X119917509Y-90939880D01*
X120388938Y-90273214D02*
X120388938Y-90797023D01*
X120336557Y-90892261D01*
X120231795Y-90939880D01*
X120074652Y-90939880D01*
X119969890Y-90892261D01*
X119917509Y-90844642D01*
X119393700Y-90939880D02*
X119393700Y-89939880D01*
X119288938Y-90558928D02*
X118974652Y-90939880D01*
X118974652Y-90273214D02*
X119393700Y-90654166D01*
X118503223Y-90939880D02*
X118503223Y-90273214D01*
X118503223Y-89939880D02*
X118555604Y-89987500D01*
X118503223Y-90035119D01*
X118450842Y-89987500D01*
X118503223Y-89939880D01*
X118503223Y-90035119D01*
X117507985Y-90939880D02*
X117507985Y-90416071D01*
X117560366Y-90320833D01*
X117665128Y-90273214D01*
X117874652Y-90273214D01*
X117979414Y-90320833D01*
X117507985Y-90892261D02*
X117612747Y-90939880D01*
X117874652Y-90939880D01*
X117979414Y-90892261D01*
X118031795Y-90797023D01*
X118031795Y-90701785D01*
X117979414Y-90606547D01*
X117874652Y-90558928D01*
X117612747Y-90558928D01*
X117507985Y-90511309D01*
X116512747Y-90939880D02*
X116512747Y-90416071D01*
X116565128Y-90320833D01*
X116669890Y-90273214D01*
X116879414Y-90273214D01*
X116984176Y-90320833D01*
X116512747Y-90892261D02*
X116617509Y-90939880D01*
X116879414Y-90939880D01*
X116984176Y-90892261D01*
X117036557Y-90797023D01*
X117036557Y-90701785D01*
X116984176Y-90606547D01*
X116879414Y-90558928D01*
X116617509Y-90558928D01*
X116512747Y-90511309D01*
X115517509Y-90939880D02*
X115517509Y-90416071D01*
X115569890Y-90320833D01*
X115674652Y-90273214D01*
X115884176Y-90273214D01*
X115988938Y-90320833D01*
X115517509Y-90892261D02*
X115622271Y-90939880D01*
X115884176Y-90939880D01*
X115988938Y-90892261D01*
X116041319Y-90797023D01*
X116041319Y-90701785D01*
X115988938Y-90606547D01*
X115884176Y-90558928D01*
X115622271Y-90558928D01*
X115517509Y-90511309D01*
X114207985Y-89892261D02*
X115150842Y-91177976D01*
X113841319Y-90939880D02*
X113841319Y-89939880D01*
X113474652Y-90654166D01*
X113107985Y-89939880D01*
X113107985Y-90939880D01*
X112060366Y-89939880D02*
X112584176Y-89939880D01*
X112636557Y-90416071D01*
X112584176Y-90368452D01*
X112479414Y-90320833D01*
X112217509Y-90320833D01*
X112112747Y-90368452D01*
X112060366Y-90416071D01*
X112007985Y-90511309D01*
X112007985Y-90749404D01*
X112060366Y-90844642D01*
X112112747Y-90892261D01*
X112217509Y-90939880D01*
X112479414Y-90939880D01*
X112584176Y-90892261D01*
X112636557Y-90844642D01*
X111588938Y-90892261D02*
X111431795Y-90939880D01*
X111169890Y-90939880D01*
X111065128Y-90892261D01*
X111012747Y-90844642D01*
X110960366Y-90749404D01*
X110960366Y-90654166D01*
X111012747Y-90558928D01*
X111065128Y-90511309D01*
X111169890Y-90463690D01*
X111379414Y-90416071D01*
X111484176Y-90368452D01*
X111536557Y-90320833D01*
X111588938Y-90225595D01*
X111588938Y-90130357D01*
X111536557Y-90035119D01*
X111484176Y-89987500D01*
X111379414Y-89939880D01*
X111117509Y-89939880D01*
X110960366Y-89987500D01*
X110646080Y-90273214D02*
X110227033Y-90273214D01*
X110488938Y-89939880D02*
X110488938Y-90797023D01*
X110436557Y-90892261D01*
X110331795Y-90939880D01*
X110227033Y-90939880D01*
X109388938Y-90939880D02*
X109388938Y-90416071D01*
X109441319Y-90320833D01*
X109546080Y-90273214D01*
X109755604Y-90273214D01*
X109860366Y-90320833D01*
X109388938Y-90892261D02*
X109493700Y-90939880D01*
X109755604Y-90939880D01*
X109860366Y-90892261D01*
X109912747Y-90797023D01*
X109912747Y-90701785D01*
X109860366Y-90606547D01*
X109755604Y-90558928D01*
X109493700Y-90558928D01*
X109388938Y-90511309D01*
X108393700Y-90892261D02*
X108498461Y-90939880D01*
X108707985Y-90939880D01*
X108812747Y-90892261D01*
X108865128Y-90844642D01*
X108917509Y-90749404D01*
X108917509Y-90463690D01*
X108865128Y-90368452D01*
X108812747Y-90320833D01*
X108707985Y-90273214D01*
X108498461Y-90273214D01*
X108393700Y-90320833D01*
X107922271Y-90939880D02*
X107922271Y-89939880D01*
X107817509Y-90558928D02*
X107503223Y-90939880D01*
X107503223Y-90273214D02*
X107922271Y-90654166D01*
X106403223Y-90844642D02*
X106455604Y-90892261D01*
X106612747Y-90939880D01*
X106717509Y-90939880D01*
X106874652Y-90892261D01*
X106979414Y-90797023D01*
X107031795Y-90701785D01*
X107084176Y-90511309D01*
X107084176Y-90368452D01*
X107031795Y-90177976D01*
X106979414Y-90082738D01*
X106874652Y-89987500D01*
X106717509Y-89939880D01*
X106612747Y-89939880D01*
X106455604Y-89987500D01*
X106403223Y-90035119D01*
X105460366Y-90939880D02*
X105460366Y-90416071D01*
X105512747Y-90320833D01*
X105617509Y-90273214D01*
X105827033Y-90273214D01*
X105931795Y-90320833D01*
X105460366Y-90892261D02*
X105565128Y-90939880D01*
X105827033Y-90939880D01*
X105931795Y-90892261D01*
X105984176Y-90797023D01*
X105984176Y-90701785D01*
X105931795Y-90606547D01*
X105827033Y-90558928D01*
X105565128Y-90558928D01*
X105460366Y-90511309D01*
X105041319Y-90273214D02*
X104779414Y-90939880D01*
X104517509Y-90273214D01*
X104098461Y-90939880D02*
X104098461Y-90273214D01*
X104098461Y-89939880D02*
X104150842Y-89987500D01*
X104098461Y-90035119D01*
X104046080Y-89987500D01*
X104098461Y-89939880D01*
X104098461Y-90035119D01*
X103731795Y-90273214D02*
X103312747Y-90273214D01*
X103574652Y-89939880D02*
X103574652Y-90797023D01*
X103522271Y-90892261D01*
X103417509Y-90939880D01*
X103312747Y-90939880D01*
X103050842Y-90273214D02*
X102788938Y-90939880D01*
X102527033Y-90273214D02*
X102788938Y-90939880D01*
X102893700Y-91177976D01*
X102946080Y-91225595D01*
X103050842Y-91273214D01*
D10*
X112276928Y-88172857D02*
X112676928Y-87601428D01*
X112962642Y-88172857D02*
X112962642Y-86972857D01*
X112505500Y-86972857D01*
X112391214Y-87030000D01*
X112334071Y-87087142D01*
X112276928Y-87201428D01*
X112276928Y-87372857D01*
X112334071Y-87487142D01*
X112391214Y-87544285D01*
X112505500Y-87601428D01*
X112962642Y-87601428D01*
X111305500Y-88115714D02*
X111419785Y-88172857D01*
X111648357Y-88172857D01*
X111762642Y-88115714D01*
X111819785Y-88001428D01*
X111819785Y-87544285D01*
X111762642Y-87430000D01*
X111648357Y-87372857D01*
X111419785Y-87372857D01*
X111305500Y-87430000D01*
X111248357Y-87544285D01*
X111248357Y-87658571D01*
X111819785Y-87772857D01*
X110848357Y-87372857D02*
X110562642Y-88172857D01*
X110276928Y-87372857D01*
X108962642Y-87087142D02*
X108905500Y-87030000D01*
X108791214Y-86972857D01*
X108505500Y-86972857D01*
X108391214Y-87030000D01*
X108334071Y-87087142D01*
X108276928Y-87201428D01*
X108276928Y-87315714D01*
X108334071Y-87487142D01*
X109019785Y-88172857D01*
X108276928Y-88172857D01*
X107534071Y-86972857D02*
X107419785Y-86972857D01*
X107305500Y-87030000D01*
X107248357Y-87087142D01*
X107191214Y-87201428D01*
X107134071Y-87430000D01*
X107134071Y-87715714D01*
X107191214Y-87944285D01*
X107248357Y-88058571D01*
X107305500Y-88115714D01*
X107419785Y-88172857D01*
X107534071Y-88172857D01*
X107648357Y-88115714D01*
X107705500Y-88058571D01*
X107762642Y-87944285D01*
X107819785Y-87715714D01*
X107819785Y-87430000D01*
X107762642Y-87201428D01*
X107705500Y-87087142D01*
X107648357Y-87030000D01*
X107534071Y-86972857D01*
X105991214Y-88172857D02*
X106676928Y-88172857D01*
X106334071Y-88172857D02*
X106334071Y-86972857D01*
X106448357Y-87144285D01*
X106562642Y-87258571D01*
X106676928Y-87315714D01*
X105419785Y-88172857D02*
X105191214Y-88172857D01*
X105076928Y-88115714D01*
X105019785Y-88058571D01*
X104905500Y-87887142D01*
X104848357Y-87658571D01*
X104848357Y-87201428D01*
X104905500Y-87087142D01*
X104962642Y-87030000D01*
X105076928Y-86972857D01*
X105305500Y-86972857D01*
X105419785Y-87030000D01*
X105476928Y-87087142D01*
X105534071Y-87201428D01*
X105534071Y-87487142D01*
X105476928Y-87601428D01*
X105419785Y-87658571D01*
X105305500Y-87715714D01*
X105076928Y-87715714D01*
X104962642Y-87658571D01*
X104905500Y-87601428D01*
X104848357Y-87487142D01*
X104334071Y-88058571D02*
X104276928Y-88115714D01*
X104334071Y-88172857D01*
X104391214Y-88115714D01*
X104334071Y-88058571D01*
X104334071Y-88172857D01*
X103534071Y-86972857D02*
X103419785Y-86972857D01*
X103305500Y-87030000D01*
X103248357Y-87087142D01*
X103191214Y-87201428D01*
X103134071Y-87430000D01*
X103134071Y-87715714D01*
X103191214Y-87944285D01*
X103248357Y-88058571D01*
X103305500Y-88115714D01*
X103419785Y-88172857D01*
X103534071Y-88172857D01*
X103648357Y-88115714D01*
X103705500Y-88058571D01*
X103762642Y-87944285D01*
X103819785Y-87715714D01*
X103819785Y-87430000D01*
X103762642Y-87201428D01*
X103705500Y-87087142D01*
X103648357Y-87030000D01*
X103534071Y-86972857D01*
X102734071Y-86972857D02*
X101934071Y-86972857D01*
X102448357Y-88172857D01*
D12*
X139304771Y-88004514D02*
X139304771Y-85604514D01*
X138504771Y-87318800D01*
X137704771Y-85604514D01*
X137704771Y-88004514D01*
X135419057Y-85604514D02*
X136561914Y-85604514D01*
X136676200Y-86747371D01*
X136561914Y-86633085D01*
X136333342Y-86518800D01*
X135761914Y-86518800D01*
X135533342Y-86633085D01*
X135419057Y-86747371D01*
X135304771Y-86975942D01*
X135304771Y-87547371D01*
X135419057Y-87775942D01*
X135533342Y-87890228D01*
X135761914Y-88004514D01*
X136333342Y-88004514D01*
X136561914Y-87890228D01*
X136676200Y-87775942D01*
X134390485Y-87890228D02*
X134047628Y-88004514D01*
X133476200Y-88004514D01*
X133247628Y-87890228D01*
X133133342Y-87775942D01*
X133019057Y-87547371D01*
X133019057Y-87318800D01*
X133133342Y-87090228D01*
X133247628Y-86975942D01*
X133476200Y-86861657D01*
X133933342Y-86747371D01*
X134161914Y-86633085D01*
X134276200Y-86518800D01*
X134390485Y-86290228D01*
X134390485Y-86061657D01*
X134276200Y-85833085D01*
X134161914Y-85718800D01*
X133933342Y-85604514D01*
X133361914Y-85604514D01*
X133019057Y-85718800D01*
X132333342Y-86404514D02*
X131419057Y-86404514D01*
X131990485Y-85604514D02*
X131990485Y-87661657D01*
X131876200Y-87890228D01*
X131647628Y-88004514D01*
X131419057Y-88004514D01*
X129590485Y-88004514D02*
X129590485Y-86747371D01*
X129704771Y-86518800D01*
X129933342Y-86404514D01*
X130390485Y-86404514D01*
X130619057Y-86518800D01*
X129590485Y-87890228D02*
X129819057Y-88004514D01*
X130390485Y-88004514D01*
X130619057Y-87890228D01*
X130733342Y-87661657D01*
X130733342Y-87433085D01*
X130619057Y-87204514D01*
X130390485Y-87090228D01*
X129819057Y-87090228D01*
X129590485Y-86975942D01*
X127419057Y-87890228D02*
X127647628Y-88004514D01*
X128104771Y-88004514D01*
X128333342Y-87890228D01*
X128447628Y-87775942D01*
X128561914Y-87547371D01*
X128561914Y-86861657D01*
X128447628Y-86633085D01*
X128333342Y-86518800D01*
X128104771Y-86404514D01*
X127647628Y-86404514D01*
X127419057Y-86518800D01*
X126390485Y-88004514D02*
X126390485Y-85604514D01*
X126161914Y-87090228D02*
X125476200Y-88004514D01*
X125476200Y-86404514D02*
X126390485Y-87318800D01*
X123076200Y-87775942D02*
X123190485Y-87890228D01*
X123533342Y-88004514D01*
X123761914Y-88004514D01*
X124104771Y-87890228D01*
X124333342Y-87661657D01*
X124447628Y-87433085D01*
X124561914Y-86975942D01*
X124561914Y-86633085D01*
X124447628Y-86175942D01*
X124333342Y-85947371D01*
X124104771Y-85718800D01*
X123761914Y-85604514D01*
X123533342Y-85604514D01*
X123190485Y-85718800D01*
X123076200Y-85833085D01*
X121019057Y-88004514D02*
X121019057Y-86747371D01*
X121133342Y-86518800D01*
X121361914Y-86404514D01*
X121819057Y-86404514D01*
X122047628Y-86518800D01*
X121019057Y-87890228D02*
X121247628Y-88004514D01*
X121819057Y-88004514D01*
X122047628Y-87890228D01*
X122161914Y-87661657D01*
X122161914Y-87433085D01*
X122047628Y-87204514D01*
X121819057Y-87090228D01*
X121247628Y-87090228D01*
X121019057Y-86975942D01*
X120104771Y-86404514D02*
X119533342Y-88004514D01*
X118961914Y-86404514D01*
X118047628Y-88004514D02*
X118047628Y-86404514D01*
X118047628Y-85604514D02*
X118161914Y-85718800D01*
X118047628Y-85833085D01*
X117933342Y-85718800D01*
X118047628Y-85604514D01*
X118047628Y-85833085D01*
X117247628Y-86404514D02*
X116333342Y-86404514D01*
X116904771Y-85604514D02*
X116904771Y-87661657D01*
X116790485Y-87890228D01*
X116561914Y-88004514D01*
X116333342Y-88004514D01*
X115761914Y-86404514D02*
X115190485Y-88004514D01*
X114619057Y-86404514D02*
X115190485Y-88004514D01*
X115419057Y-88575942D01*
X115533342Y-88690228D01*
X115761914Y-88804514D01*
D13*
X146674000Y-55890000D02*
X141474000Y-55890000D01*
X141474000Y-55890000D02*
X141474000Y-56460000D01*
X141474000Y-57980000D02*
X141474000Y-59000000D01*
X141474000Y-60520000D02*
X141474000Y-61540000D01*
X141474000Y-63060000D02*
X141474000Y-64080000D01*
X141474000Y-65600000D02*
X141474000Y-66620000D01*
X141474000Y-68140000D02*
X141474000Y-69160000D01*
X141474000Y-70680000D02*
X141474000Y-71700000D01*
X141474000Y-73220000D02*
X141474000Y-74240000D01*
X141474000Y-75760000D02*
X141474000Y-76780000D01*
X141474000Y-78300000D02*
X141474000Y-79320000D01*
X141474000Y-80840000D02*
X141474000Y-81860000D01*
X141474000Y-83380000D02*
X141474000Y-84400000D01*
X141474000Y-85920000D02*
X141474000Y-86940000D01*
X141474000Y-88460000D02*
X141474000Y-89480000D01*
X141474000Y-91000000D02*
X141474000Y-92020000D01*
X141474000Y-93540000D02*
X141474000Y-94110000D01*
X146674000Y-94110000D02*
X141474000Y-94110000D01*
X146674000Y-55890000D02*
X146674000Y-56460000D01*
X146674000Y-57980000D02*
X146674000Y-59000000D01*
X146674000Y-60520000D02*
X146674000Y-61540000D01*
X146674000Y-63060000D02*
X146674000Y-64080000D01*
X146674000Y-65600000D02*
X146674000Y-66620000D01*
X146674000Y-68140000D02*
X146674000Y-69160000D01*
X146674000Y-70680000D02*
X146674000Y-71700000D01*
X146674000Y-73220000D02*
X146674000Y-74240000D01*
X146674000Y-75760000D02*
X146674000Y-76780000D01*
X146674000Y-78300000D02*
X146674000Y-79320000D01*
X146674000Y-80840000D02*
X146674000Y-81860000D01*
X146674000Y-83380000D02*
X146674000Y-84400000D01*
X146674000Y-85920000D02*
X146674000Y-86940000D01*
X146674000Y-88460000D02*
X146674000Y-89480000D01*
X146674000Y-91000000D02*
X146674000Y-92020000D01*
X146674000Y-93540000D02*
X146674000Y-94110000D01*
X141474000Y-56460000D02*
X140114000Y-56460000D01*
D14*
G36*
X106037836Y-58441776D02*
G01*
X105962287Y-58842522D01*
X105404759Y-59072354D01*
X105070335Y-58844948D01*
X104976678Y-58781631D01*
X104892018Y-58725096D01*
X104820305Y-58677927D01*
X104765489Y-58642702D01*
X104731520Y-58622005D01*
X104722270Y-58617542D01*
X104705605Y-58629020D01*
X104669994Y-58660751D01*
X104619429Y-58708683D01*
X104557900Y-58768762D01*
X104489401Y-58836933D01*
X104417921Y-58909145D01*
X104347453Y-58981342D01*
X104281989Y-59049473D01*
X104225520Y-59109483D01*
X104182037Y-59157319D01*
X104155532Y-59188927D01*
X104149195Y-59199505D01*
X104158314Y-59219006D01*
X104183880Y-59261731D01*
X104223203Y-59323498D01*
X104273597Y-59400131D01*
X104332373Y-59487448D01*
X104366432Y-59537252D01*
X104428511Y-59628193D01*
X104483674Y-59710259D01*
X104529246Y-59779363D01*
X104562550Y-59831422D01*
X104580910Y-59862350D01*
X104583669Y-59868850D01*
X104577415Y-59887321D01*
X104560366Y-59930372D01*
X104535097Y-59991949D01*
X104504178Y-60065999D01*
X104470182Y-60146470D01*
X104435682Y-60227307D01*
X104403249Y-60302458D01*
X104375457Y-60365871D01*
X104354877Y-60411493D01*
X104344081Y-60433269D01*
X104343444Y-60434126D01*
X104326493Y-60438284D01*
X104281349Y-60447561D01*
X104212690Y-60461044D01*
X104125198Y-60477821D01*
X104023550Y-60496981D01*
X103964244Y-60508030D01*
X103855628Y-60528710D01*
X103757523Y-60548389D01*
X103674891Y-60565989D01*
X103612696Y-60580433D01*
X103575901Y-60590646D01*
X103568504Y-60593886D01*
X103561260Y-60615817D01*
X103555415Y-60665347D01*
X103550965Y-60736685D01*
X103547907Y-60824039D01*
X103546235Y-60921617D01*
X103545947Y-61023626D01*
X103547039Y-61124275D01*
X103549506Y-61217772D01*
X103553344Y-61298325D01*
X103558550Y-61360142D01*
X103565119Y-61397430D01*
X103569059Y-61405193D01*
X103592612Y-61414498D01*
X103642518Y-61427800D01*
X103712177Y-61443537D01*
X103794987Y-61460146D01*
X103823895Y-61465519D01*
X103963269Y-61491048D01*
X104073364Y-61511608D01*
X104157818Y-61528015D01*
X104220270Y-61541087D01*
X104264356Y-61551641D01*
X104293715Y-61560494D01*
X104311985Y-61568463D01*
X104322802Y-61576365D01*
X104324315Y-61577927D01*
X104339423Y-61603086D01*
X104362471Y-61652050D01*
X104391156Y-61718821D01*
X104423178Y-61797405D01*
X104456235Y-61881807D01*
X104488027Y-61966030D01*
X104516251Y-62044079D01*
X104538607Y-62109959D01*
X104552793Y-62157673D01*
X104556507Y-62181227D01*
X104556198Y-62182052D01*
X104543611Y-62201304D01*
X104515056Y-62243663D01*
X104473533Y-62304721D01*
X104422044Y-62380068D01*
X104363589Y-62465296D01*
X104346942Y-62489515D01*
X104287585Y-62577323D01*
X104235353Y-62657438D01*
X104193092Y-62725262D01*
X104163647Y-62776193D01*
X104149863Y-62805631D01*
X104149195Y-62809248D01*
X104160776Y-62828257D01*
X104192776Y-62865914D01*
X104241082Y-62918173D01*
X104301580Y-62980986D01*
X104370156Y-63050306D01*
X104442696Y-63122085D01*
X104515088Y-63192277D01*
X104583216Y-63256835D01*
X104642968Y-63311710D01*
X104690229Y-63352856D01*
X104720887Y-63376226D01*
X104729368Y-63380042D01*
X104749109Y-63371055D01*
X104789526Y-63346816D01*
X104844037Y-63311409D01*
X104885977Y-63282911D01*
X104961971Y-63230618D01*
X105051966Y-63169045D01*
X105142236Y-63107570D01*
X105190768Y-63074669D01*
X105355038Y-62963559D01*
X105492931Y-63038116D01*
X105555751Y-63070778D01*
X105609171Y-63096166D01*
X105645316Y-63110646D01*
X105654516Y-63112660D01*
X105665579Y-63097784D01*
X105687406Y-63055747D01*
X105718366Y-62990427D01*
X105756830Y-62905700D01*
X105801168Y-62805445D01*
X105849753Y-62693539D01*
X105900954Y-62573859D01*
X105953141Y-62450284D01*
X106004687Y-62326691D01*
X106053960Y-62206957D01*
X106099333Y-62094959D01*
X106139175Y-61994577D01*
X106171858Y-61909686D01*
X106195751Y-61844165D01*
X106209226Y-61801890D01*
X106211394Y-61787372D01*
X106194217Y-61768853D01*
X106156610Y-61738790D01*
X106106434Y-61703432D01*
X106102222Y-61700634D01*
X105972536Y-61596825D01*
X105867966Y-61475715D01*
X105789419Y-61341176D01*
X105737801Y-61197082D01*
X105714018Y-61047305D01*
X105718977Y-60895717D01*
X105753583Y-60746192D01*
X105818743Y-60602600D01*
X105837914Y-60571184D01*
X105937626Y-60444325D01*
X106055423Y-60342455D01*
X106187229Y-60266104D01*
X106328967Y-60215802D01*
X106476558Y-60192079D01*
X106625927Y-60195465D01*
X106772997Y-60226488D01*
X106913689Y-60285680D01*
X107043927Y-60373569D01*
X107084214Y-60409242D01*
X107186745Y-60520906D01*
X107261459Y-60638457D01*
X107312710Y-60770220D01*
X107341254Y-60900707D01*
X107348300Y-61047416D01*
X107324804Y-61194853D01*
X107273151Y-61338034D01*
X107195729Y-61471977D01*
X107094925Y-61591698D01*
X106973124Y-61692214D01*
X106957116Y-61702809D01*
X106906402Y-61737506D01*
X106867850Y-61767570D01*
X106849419Y-61786765D01*
X106849151Y-61787372D01*
X106853108Y-61808136D01*
X106868793Y-61855262D01*
X106894578Y-61924873D01*
X106928831Y-62013093D01*
X106969923Y-62116044D01*
X107016224Y-62229850D01*
X107066104Y-62350635D01*
X107117933Y-62474521D01*
X107170081Y-62597632D01*
X107220918Y-62716091D01*
X107268813Y-62826023D01*
X107312138Y-62923549D01*
X107349262Y-63004793D01*
X107378556Y-63065879D01*
X107398388Y-63102930D01*
X107406374Y-63112660D01*
X107430779Y-63105083D01*
X107476442Y-63084760D01*
X107535490Y-63055325D01*
X107567960Y-63038116D01*
X107705853Y-62963559D01*
X107870123Y-63074669D01*
X107953979Y-63131590D01*
X108045787Y-63194230D01*
X108131820Y-63253211D01*
X108174913Y-63282911D01*
X108235523Y-63323610D01*
X108286845Y-63355863D01*
X108322185Y-63375584D01*
X108333663Y-63379754D01*
X108350370Y-63368507D01*
X108387346Y-63337111D01*
X108441005Y-63288824D01*
X108507762Y-63226908D01*
X108584034Y-63154621D01*
X108632273Y-63108208D01*
X108716667Y-63025287D01*
X108789603Y-62951120D01*
X108848131Y-62888880D01*
X108889303Y-62841741D01*
X108910172Y-62812873D01*
X108912174Y-62807015D01*
X108902883Y-62784732D01*
X108877209Y-62739677D01*
X108838000Y-62676411D01*
X108788103Y-62599495D01*
X108730367Y-62513492D01*
X108713949Y-62489515D01*
X108654123Y-62402370D01*
X108600450Y-62323910D01*
X108555930Y-62258545D01*
X108523565Y-62210684D01*
X108506355Y-62184735D01*
X108504693Y-62182052D01*
X108507179Y-62161372D01*
X108520377Y-62115904D01*
X108541986Y-62051644D01*
X108569704Y-61974587D01*
X108601230Y-61890729D01*
X108634263Y-61806066D01*
X108666501Y-61726592D01*
X108695643Y-61658304D01*
X108719388Y-61607197D01*
X108735435Y-61579267D01*
X108736575Y-61577927D01*
X108746388Y-61569945D01*
X108762961Y-61562051D01*
X108789932Y-61553429D01*
X108830939Y-61543262D01*
X108889620Y-61530731D01*
X108969613Y-61515021D01*
X109074555Y-61495313D01*
X109208085Y-61470792D01*
X109236996Y-61465519D01*
X109322682Y-61448964D01*
X109397382Y-61432769D01*
X109454494Y-61418496D01*
X109487417Y-61407708D01*
X109491831Y-61405193D01*
X109499106Y-61382896D01*
X109505019Y-61333069D01*
X109509566Y-61261504D01*
X109512745Y-61173993D01*
X109514549Y-61076328D01*
X109514977Y-60974301D01*
X109514023Y-60873703D01*
X109511684Y-60780327D01*
X109507956Y-60699965D01*
X109502834Y-60638409D01*
X109496316Y-60601450D01*
X109492386Y-60593886D01*
X109470508Y-60586256D01*
X109420691Y-60573842D01*
X109347897Y-60557722D01*
X109257089Y-60538973D01*
X109153231Y-60518671D01*
X109096646Y-60508030D01*
X108989286Y-60487960D01*
X108893546Y-60469780D01*
X108814106Y-60454399D01*
X108755646Y-60442731D01*
X108722845Y-60435688D01*
X108717446Y-60434126D01*
X108708322Y-60416522D01*
X108689035Y-60374118D01*
X108662155Y-60312972D01*
X108630254Y-60239143D01*
X108595902Y-60158689D01*
X108561671Y-60077668D01*
X108530131Y-60002137D01*
X108503854Y-59938155D01*
X108485411Y-59891780D01*
X108477371Y-59869069D01*
X108477222Y-59868076D01*
X108486335Y-59850161D01*
X108511886Y-59808933D01*
X108551188Y-59748491D01*
X108601557Y-59672931D01*
X108660306Y-59586352D01*
X108694458Y-59536621D01*
X108756690Y-59445436D01*
X108811964Y-59362649D01*
X108857582Y-59292449D01*
X108890848Y-59239024D01*
X108909064Y-59206561D01*
X108911695Y-59199283D01*
X108900386Y-59182345D01*
X108869119Y-59146178D01*
X108821890Y-59094835D01*
X108762692Y-59032367D01*
X108695519Y-58962826D01*
X108624366Y-58890265D01*
X108553226Y-58818735D01*
X108486093Y-58752287D01*
X108426961Y-58694974D01*
X108379825Y-58650847D01*
X108348677Y-58623959D01*
X108338257Y-58617542D01*
X108321291Y-58626565D01*
X108280711Y-58651915D01*
X108220463Y-58691010D01*
X108144493Y-58741271D01*
X108056746Y-58800117D01*
X107990556Y-58844948D01*
X107656132Y-59072354D01*
X107377367Y-58957438D01*
X107098603Y-58842522D01*
X107023054Y-58441776D01*
X106947506Y-58041029D01*
X106113385Y-58041029D01*
X106037836Y-58441776D01*
X106037836Y-58441776D01*
G37*
X106037836Y-58441776D02*
X105962287Y-58842522D01*
X105404759Y-59072354D01*
X105070335Y-58844948D01*
X104976678Y-58781631D01*
X104892018Y-58725096D01*
X104820305Y-58677927D01*
X104765489Y-58642702D01*
X104731520Y-58622005D01*
X104722270Y-58617542D01*
X104705605Y-58629020D01*
X104669994Y-58660751D01*
X104619429Y-58708683D01*
X104557900Y-58768762D01*
X104489401Y-58836933D01*
X104417921Y-58909145D01*
X104347453Y-58981342D01*
X104281989Y-59049473D01*
X104225520Y-59109483D01*
X104182037Y-59157319D01*
X104155532Y-59188927D01*
X104149195Y-59199505D01*
X104158314Y-59219006D01*
X104183880Y-59261731D01*
X104223203Y-59323498D01*
X104273597Y-59400131D01*
X104332373Y-59487448D01*
X104366432Y-59537252D01*
X104428511Y-59628193D01*
X104483674Y-59710259D01*
X104529246Y-59779363D01*
X104562550Y-59831422D01*
X104580910Y-59862350D01*
X104583669Y-59868850D01*
X104577415Y-59887321D01*
X104560366Y-59930372D01*
X104535097Y-59991949D01*
X104504178Y-60065999D01*
X104470182Y-60146470D01*
X104435682Y-60227307D01*
X104403249Y-60302458D01*
X104375457Y-60365871D01*
X104354877Y-60411493D01*
X104344081Y-60433269D01*
X104343444Y-60434126D01*
X104326493Y-60438284D01*
X104281349Y-60447561D01*
X104212690Y-60461044D01*
X104125198Y-60477821D01*
X104023550Y-60496981D01*
X103964244Y-60508030D01*
X103855628Y-60528710D01*
X103757523Y-60548389D01*
X103674891Y-60565989D01*
X103612696Y-60580433D01*
X103575901Y-60590646D01*
X103568504Y-60593886D01*
X103561260Y-60615817D01*
X103555415Y-60665347D01*
X103550965Y-60736685D01*
X103547907Y-60824039D01*
X103546235Y-60921617D01*
X103545947Y-61023626D01*
X103547039Y-61124275D01*
X103549506Y-61217772D01*
X103553344Y-61298325D01*
X103558550Y-61360142D01*
X103565119Y-61397430D01*
X103569059Y-61405193D01*
X103592612Y-61414498D01*
X103642518Y-61427800D01*
X103712177Y-61443537D01*
X103794987Y-61460146D01*
X103823895Y-61465519D01*
X103963269Y-61491048D01*
X104073364Y-61511608D01*
X104157818Y-61528015D01*
X104220270Y-61541087D01*
X104264356Y-61551641D01*
X104293715Y-61560494D01*
X104311985Y-61568463D01*
X104322802Y-61576365D01*
X104324315Y-61577927D01*
X104339423Y-61603086D01*
X104362471Y-61652050D01*
X104391156Y-61718821D01*
X104423178Y-61797405D01*
X104456235Y-61881807D01*
X104488027Y-61966030D01*
X104516251Y-62044079D01*
X104538607Y-62109959D01*
X104552793Y-62157673D01*
X104556507Y-62181227D01*
X104556198Y-62182052D01*
X104543611Y-62201304D01*
X104515056Y-62243663D01*
X104473533Y-62304721D01*
X104422044Y-62380068D01*
X104363589Y-62465296D01*
X104346942Y-62489515D01*
X104287585Y-62577323D01*
X104235353Y-62657438D01*
X104193092Y-62725262D01*
X104163647Y-62776193D01*
X104149863Y-62805631D01*
X104149195Y-62809248D01*
X104160776Y-62828257D01*
X104192776Y-62865914D01*
X104241082Y-62918173D01*
X104301580Y-62980986D01*
X104370156Y-63050306D01*
X104442696Y-63122085D01*
X104515088Y-63192277D01*
X104583216Y-63256835D01*
X104642968Y-63311710D01*
X104690229Y-63352856D01*
X104720887Y-63376226D01*
X104729368Y-63380042D01*
X104749109Y-63371055D01*
X104789526Y-63346816D01*
X104844037Y-63311409D01*
X104885977Y-63282911D01*
X104961971Y-63230618D01*
X105051966Y-63169045D01*
X105142236Y-63107570D01*
X105190768Y-63074669D01*
X105355038Y-62963559D01*
X105492931Y-63038116D01*
X105555751Y-63070778D01*
X105609171Y-63096166D01*
X105645316Y-63110646D01*
X105654516Y-63112660D01*
X105665579Y-63097784D01*
X105687406Y-63055747D01*
X105718366Y-62990427D01*
X105756830Y-62905700D01*
X105801168Y-62805445D01*
X105849753Y-62693539D01*
X105900954Y-62573859D01*
X105953141Y-62450284D01*
X106004687Y-62326691D01*
X106053960Y-62206957D01*
X106099333Y-62094959D01*
X106139175Y-61994577D01*
X106171858Y-61909686D01*
X106195751Y-61844165D01*
X106209226Y-61801890D01*
X106211394Y-61787372D01*
X106194217Y-61768853D01*
X106156610Y-61738790D01*
X106106434Y-61703432D01*
X106102222Y-61700634D01*
X105972536Y-61596825D01*
X105867966Y-61475715D01*
X105789419Y-61341176D01*
X105737801Y-61197082D01*
X105714018Y-61047305D01*
X105718977Y-60895717D01*
X105753583Y-60746192D01*
X105818743Y-60602600D01*
X105837914Y-60571184D01*
X105937626Y-60444325D01*
X106055423Y-60342455D01*
X106187229Y-60266104D01*
X106328967Y-60215802D01*
X106476558Y-60192079D01*
X106625927Y-60195465D01*
X106772997Y-60226488D01*
X106913689Y-60285680D01*
X107043927Y-60373569D01*
X107084214Y-60409242D01*
X107186745Y-60520906D01*
X107261459Y-60638457D01*
X107312710Y-60770220D01*
X107341254Y-60900707D01*
X107348300Y-61047416D01*
X107324804Y-61194853D01*
X107273151Y-61338034D01*
X107195729Y-61471977D01*
X107094925Y-61591698D01*
X106973124Y-61692214D01*
X106957116Y-61702809D01*
X106906402Y-61737506D01*
X106867850Y-61767570D01*
X106849419Y-61786765D01*
X106849151Y-61787372D01*
X106853108Y-61808136D01*
X106868793Y-61855262D01*
X106894578Y-61924873D01*
X106928831Y-62013093D01*
X106969923Y-62116044D01*
X107016224Y-62229850D01*
X107066104Y-62350635D01*
X107117933Y-62474521D01*
X107170081Y-62597632D01*
X107220918Y-62716091D01*
X107268813Y-62826023D01*
X107312138Y-62923549D01*
X107349262Y-63004793D01*
X107378556Y-63065879D01*
X107398388Y-63102930D01*
X107406374Y-63112660D01*
X107430779Y-63105083D01*
X107476442Y-63084760D01*
X107535490Y-63055325D01*
X107567960Y-63038116D01*
X107705853Y-62963559D01*
X107870123Y-63074669D01*
X107953979Y-63131590D01*
X108045787Y-63194230D01*
X108131820Y-63253211D01*
X108174913Y-63282911D01*
X108235523Y-63323610D01*
X108286845Y-63355863D01*
X108322185Y-63375584D01*
X108333663Y-63379754D01*
X108350370Y-63368507D01*
X108387346Y-63337111D01*
X108441005Y-63288824D01*
X108507762Y-63226908D01*
X108584034Y-63154621D01*
X108632273Y-63108208D01*
X108716667Y-63025287D01*
X108789603Y-62951120D01*
X108848131Y-62888880D01*
X108889303Y-62841741D01*
X108910172Y-62812873D01*
X108912174Y-62807015D01*
X108902883Y-62784732D01*
X108877209Y-62739677D01*
X108838000Y-62676411D01*
X108788103Y-62599495D01*
X108730367Y-62513492D01*
X108713949Y-62489515D01*
X108654123Y-62402370D01*
X108600450Y-62323910D01*
X108555930Y-62258545D01*
X108523565Y-62210684D01*
X108506355Y-62184735D01*
X108504693Y-62182052D01*
X108507179Y-62161372D01*
X108520377Y-62115904D01*
X108541986Y-62051644D01*
X108569704Y-61974587D01*
X108601230Y-61890729D01*
X108634263Y-61806066D01*
X108666501Y-61726592D01*
X108695643Y-61658304D01*
X108719388Y-61607197D01*
X108735435Y-61579267D01*
X108736575Y-61577927D01*
X108746388Y-61569945D01*
X108762961Y-61562051D01*
X108789932Y-61553429D01*
X108830939Y-61543262D01*
X108889620Y-61530731D01*
X108969613Y-61515021D01*
X109074555Y-61495313D01*
X109208085Y-61470792D01*
X109236996Y-61465519D01*
X109322682Y-61448964D01*
X109397382Y-61432769D01*
X109454494Y-61418496D01*
X109487417Y-61407708D01*
X109491831Y-61405193D01*
X109499106Y-61382896D01*
X109505019Y-61333069D01*
X109509566Y-61261504D01*
X109512745Y-61173993D01*
X109514549Y-61076328D01*
X109514977Y-60974301D01*
X109514023Y-60873703D01*
X109511684Y-60780327D01*
X109507956Y-60699965D01*
X109502834Y-60638409D01*
X109496316Y-60601450D01*
X109492386Y-60593886D01*
X109470508Y-60586256D01*
X109420691Y-60573842D01*
X109347897Y-60557722D01*
X109257089Y-60538973D01*
X109153231Y-60518671D01*
X109096646Y-60508030D01*
X108989286Y-60487960D01*
X108893546Y-60469780D01*
X108814106Y-60454399D01*
X108755646Y-60442731D01*
X108722845Y-60435688D01*
X108717446Y-60434126D01*
X108708322Y-60416522D01*
X108689035Y-60374118D01*
X108662155Y-60312972D01*
X108630254Y-60239143D01*
X108595902Y-60158689D01*
X108561671Y-60077668D01*
X108530131Y-60002137D01*
X108503854Y-59938155D01*
X108485411Y-59891780D01*
X108477371Y-59869069D01*
X108477222Y-59868076D01*
X108486335Y-59850161D01*
X108511886Y-59808933D01*
X108551188Y-59748491D01*
X108601557Y-59672931D01*
X108660306Y-59586352D01*
X108694458Y-59536621D01*
X108756690Y-59445436D01*
X108811964Y-59362649D01*
X108857582Y-59292449D01*
X108890848Y-59239024D01*
X108909064Y-59206561D01*
X108911695Y-59199283D01*
X108900386Y-59182345D01*
X108869119Y-59146178D01*
X108821890Y-59094835D01*
X108762692Y-59032367D01*
X108695519Y-58962826D01*
X108624366Y-58890265D01*
X108553226Y-58818735D01*
X108486093Y-58752287D01*
X108426961Y-58694974D01*
X108379825Y-58650847D01*
X108348677Y-58623959D01*
X108338257Y-58617542D01*
X108321291Y-58626565D01*
X108280711Y-58651915D01*
X108220463Y-58691010D01*
X108144493Y-58741271D01*
X108056746Y-58800117D01*
X107990556Y-58844948D01*
X107656132Y-59072354D01*
X107377367Y-58957438D01*
X107098603Y-58842522D01*
X107023054Y-58441776D01*
X106947506Y-58041029D01*
X106113385Y-58041029D01*
X106037836Y-58441776D01*
G36*
X104147412Y-63980845D02*
G01*
X104089935Y-63998406D01*
X104052928Y-64020595D01*
X104040873Y-64038142D01*
X104044191Y-64058942D01*
X104065721Y-64091619D01*
X104083926Y-64114762D01*
X104121456Y-64156602D01*
X104149652Y-64174205D01*
X104173689Y-64173056D01*
X104244992Y-64154910D01*
X104297358Y-64155734D01*
X104339882Y-64176298D01*
X104354158Y-64188334D01*
X104399853Y-64230683D01*
X104399853Y-64783726D01*
X104583669Y-64783726D01*
X104583669Y-63981621D01*
X104491761Y-63981621D01*
X104436581Y-63983803D01*
X104408112Y-63991551D01*
X104399857Y-64006668D01*
X104399853Y-64007116D01*
X104395955Y-64022949D01*
X104378326Y-64020884D01*
X104353899Y-64009461D01*
X104303450Y-63988205D01*
X104262484Y-63975416D01*
X104209772Y-63972138D01*
X104147412Y-63980845D01*
X104147412Y-63980845D01*
G37*
X104147412Y-63980845D02*
X104089935Y-63998406D01*
X104052928Y-64020595D01*
X104040873Y-64038142D01*
X104044191Y-64058942D01*
X104065721Y-64091619D01*
X104083926Y-64114762D01*
X104121456Y-64156602D01*
X104149652Y-64174205D01*
X104173689Y-64173056D01*
X104244992Y-64154910D01*
X104297358Y-64155734D01*
X104339882Y-64176298D01*
X104354158Y-64188334D01*
X104399853Y-64230683D01*
X104399853Y-64783726D01*
X104583669Y-64783726D01*
X104583669Y-63981621D01*
X104491761Y-63981621D01*
X104436581Y-63983803D01*
X104408112Y-63991551D01*
X104399857Y-64006668D01*
X104399853Y-64007116D01*
X104395955Y-64022949D01*
X104378326Y-64020884D01*
X104353899Y-64009461D01*
X104303450Y-63988205D01*
X104262484Y-63975416D01*
X104209772Y-63972138D01*
X104147412Y-63980845D01*
G36*
X107540843Y-63995426D02*
G01*
X107499254Y-64015290D01*
X107458975Y-64043984D01*
X107428290Y-64077009D01*
X107405939Y-64119131D01*
X107390664Y-64175115D01*
X107381208Y-64249728D01*
X107376313Y-64347735D01*
X107374719Y-64473902D01*
X107374694Y-64487114D01*
X107374327Y-64783726D01*
X107558143Y-64783726D01*
X107558143Y-64510281D01*
X107558273Y-64408977D01*
X107559179Y-64335553D01*
X107561627Y-64284471D01*
X107566386Y-64250190D01*
X107574226Y-64227171D01*
X107585915Y-64209873D01*
X107602198Y-64192781D01*
X107659166Y-64156057D01*
X107721355Y-64149242D01*
X107780601Y-64172461D01*
X107801205Y-64189743D01*
X107816330Y-64205991D01*
X107827190Y-64223391D01*
X107834490Y-64247412D01*
X107838937Y-64283522D01*
X107841236Y-64337188D01*
X107842096Y-64413880D01*
X107842222Y-64507243D01*
X107842222Y-64783726D01*
X108026037Y-64783726D01*
X108026037Y-63981621D01*
X107934129Y-63981621D01*
X107878949Y-63983803D01*
X107850480Y-63991551D01*
X107842225Y-64006668D01*
X107842222Y-64007116D01*
X107838392Y-64021920D01*
X107821499Y-64020240D01*
X107787912Y-64003973D01*
X107711737Y-63980040D01*
X107624600Y-63977378D01*
X107540843Y-63995426D01*
X107540843Y-63995426D01*
G37*
X107540843Y-63995426D02*
X107499254Y-64015290D01*
X107458975Y-64043984D01*
X107428290Y-64077009D01*
X107405939Y-64119131D01*
X107390664Y-64175115D01*
X107381208Y-64249728D01*
X107376313Y-64347735D01*
X107374719Y-64473902D01*
X107374694Y-64487114D01*
X107374327Y-64783726D01*
X107558143Y-64783726D01*
X107558143Y-64510281D01*
X107558273Y-64408977D01*
X107559179Y-64335553D01*
X107561627Y-64284471D01*
X107566386Y-64250190D01*
X107574226Y-64227171D01*
X107585915Y-64209873D01*
X107602198Y-64192781D01*
X107659166Y-64156057D01*
X107721355Y-64149242D01*
X107780601Y-64172461D01*
X107801205Y-64189743D01*
X107816330Y-64205991D01*
X107827190Y-64223391D01*
X107834490Y-64247412D01*
X107838937Y-64283522D01*
X107841236Y-64337188D01*
X107842096Y-64413880D01*
X107842222Y-64507243D01*
X107842222Y-64783726D01*
X108026037Y-64783726D01*
X108026037Y-63981621D01*
X107934129Y-63981621D01*
X107878949Y-63983803D01*
X107850480Y-63991551D01*
X107842225Y-64006668D01*
X107842222Y-64007116D01*
X107838392Y-64021920D01*
X107821499Y-64020240D01*
X107787912Y-64003973D01*
X107711737Y-63980040D01*
X107624600Y-63977378D01*
X107540843Y-63995426D01*
G36*
X102980016Y-63978754D02*
G01*
X102937226Y-63989149D01*
X102855191Y-64027213D01*
X102785043Y-64085349D01*
X102736495Y-64155052D01*
X102729825Y-64170702D01*
X102720676Y-64211696D01*
X102714271Y-64272338D01*
X102712090Y-64333630D01*
X102712090Y-64449516D01*
X102954393Y-64449516D01*
X103054329Y-64449893D01*
X103124731Y-64452187D01*
X103169487Y-64458138D01*
X103192485Y-64469485D01*
X103197611Y-64487971D01*
X103188752Y-64515336D01*
X103172883Y-64547355D01*
X103128616Y-64600792D01*
X103067101Y-64627415D01*
X102991915Y-64626547D01*
X102906747Y-64597571D01*
X102833141Y-64561811D01*
X102772066Y-64610104D01*
X102710990Y-64658397D01*
X102768449Y-64711485D01*
X102845159Y-64761645D01*
X102939498Y-64791888D01*
X103040973Y-64800351D01*
X103139089Y-64785174D01*
X103154919Y-64780024D01*
X103241153Y-64734991D01*
X103305299Y-64667852D01*
X103348709Y-64576605D01*
X103372736Y-64459244D01*
X103373016Y-64456729D01*
X103375167Y-64328827D01*
X103366471Y-64283197D01*
X103196695Y-64283197D01*
X103181103Y-64290213D01*
X103138771Y-64295588D01*
X103076366Y-64298657D01*
X103036819Y-64299121D01*
X102963072Y-64298830D01*
X102916960Y-64296983D01*
X102892700Y-64292112D01*
X102884506Y-64282755D01*
X102886594Y-64267445D01*
X102888345Y-64261522D01*
X102918240Y-64205868D01*
X102965258Y-64161015D01*
X103006751Y-64141305D01*
X103061874Y-64142495D01*
X103117732Y-64167075D01*
X103164588Y-64207770D01*
X103192706Y-64257308D01*
X103196695Y-64283197D01*
X103366471Y-64283197D01*
X103353726Y-64216333D01*
X103311189Y-64121927D01*
X103250053Y-64048288D01*
X103172815Y-63998093D01*
X103081970Y-63974022D01*
X102980016Y-63978754D01*
X102980016Y-63978754D01*
G37*
X102980016Y-63978754D02*
X102937226Y-63989149D01*
X102855191Y-64027213D01*
X102785043Y-64085349D01*
X102736495Y-64155052D01*
X102729825Y-64170702D01*
X102720676Y-64211696D01*
X102714271Y-64272338D01*
X102712090Y-64333630D01*
X102712090Y-64449516D01*
X102954393Y-64449516D01*
X103054329Y-64449893D01*
X103124731Y-64452187D01*
X103169487Y-64458138D01*
X103192485Y-64469485D01*
X103197611Y-64487971D01*
X103188752Y-64515336D01*
X103172883Y-64547355D01*
X103128616Y-64600792D01*
X103067101Y-64627415D01*
X102991915Y-64626547D01*
X102906747Y-64597571D01*
X102833141Y-64561811D01*
X102772066Y-64610104D01*
X102710990Y-64658397D01*
X102768449Y-64711485D01*
X102845159Y-64761645D01*
X102939498Y-64791888D01*
X103040973Y-64800351D01*
X103139089Y-64785174D01*
X103154919Y-64780024D01*
X103241153Y-64734991D01*
X103305299Y-64667852D01*
X103348709Y-64576605D01*
X103372736Y-64459244D01*
X103373016Y-64456729D01*
X103375167Y-64328827D01*
X103366471Y-64283197D01*
X103196695Y-64283197D01*
X103181103Y-64290213D01*
X103138771Y-64295588D01*
X103076366Y-64298657D01*
X103036819Y-64299121D01*
X102963072Y-64298830D01*
X102916960Y-64296983D01*
X102892700Y-64292112D01*
X102884506Y-64282755D01*
X102886594Y-64267445D01*
X102888345Y-64261522D01*
X102918240Y-64205868D01*
X102965258Y-64161015D01*
X103006751Y-64141305D01*
X103061874Y-64142495D01*
X103117732Y-64167075D01*
X103164588Y-64207770D01*
X103192706Y-64257308D01*
X103196695Y-64283197D01*
X103366471Y-64283197D01*
X103353726Y-64216333D01*
X103311189Y-64121927D01*
X103250053Y-64048288D01*
X103172815Y-63998093D01*
X103081970Y-63974022D01*
X102980016Y-63978754D01*
G36*
X103592224Y-63988619D02*
G01*
X103495405Y-64029749D01*
X103464910Y-64049771D01*
X103425935Y-64080540D01*
X103401469Y-64104733D01*
X103397222Y-64112613D01*
X103409216Y-64130099D01*
X103439913Y-64159770D01*
X103464488Y-64180479D01*
X103531754Y-64234536D01*
X103584870Y-64189842D01*
X103625916Y-64160989D01*
X103665937Y-64151029D01*
X103711741Y-64153461D01*
X103784476Y-64171545D01*
X103834544Y-64209081D01*
X103864971Y-64269762D01*
X103878783Y-64357281D01*
X103878787Y-64357336D01*
X103877592Y-64455158D01*
X103859028Y-64526930D01*
X103821996Y-64575795D01*
X103796750Y-64592343D01*
X103729703Y-64612949D01*
X103658091Y-64612962D01*
X103595785Y-64592968D01*
X103581037Y-64583200D01*
X103544050Y-64558247D01*
X103515132Y-64554158D01*
X103483944Y-64572730D01*
X103449464Y-64606087D01*
X103394888Y-64662396D01*
X103455482Y-64712342D01*
X103549102Y-64768713D01*
X103654675Y-64796493D01*
X103765002Y-64794482D01*
X103837457Y-64776062D01*
X103922144Y-64730510D01*
X103989873Y-64658850D01*
X104020643Y-64608266D01*
X104045564Y-64535688D01*
X104058034Y-64443769D01*
X104058130Y-64344148D01*
X104045930Y-64248467D01*
X104021510Y-64168369D01*
X104017664Y-64160156D01*
X103960707Y-64079613D01*
X103883591Y-64020971D01*
X103792410Y-63985447D01*
X103693257Y-63974257D01*
X103592224Y-63988619D01*
X103592224Y-63988619D01*
G37*
X103592224Y-63988619D02*
X103495405Y-64029749D01*
X103464910Y-64049771D01*
X103425935Y-64080540D01*
X103401469Y-64104733D01*
X103397222Y-64112613D01*
X103409216Y-64130099D01*
X103439913Y-64159770D01*
X103464488Y-64180479D01*
X103531754Y-64234536D01*
X103584870Y-64189842D01*
X103625916Y-64160989D01*
X103665937Y-64151029D01*
X103711741Y-64153461D01*
X103784476Y-64171545D01*
X103834544Y-64209081D01*
X103864971Y-64269762D01*
X103878783Y-64357281D01*
X103878787Y-64357336D01*
X103877592Y-64455158D01*
X103859028Y-64526930D01*
X103821996Y-64575795D01*
X103796750Y-64592343D01*
X103729703Y-64612949D01*
X103658091Y-64612962D01*
X103595785Y-64592968D01*
X103581037Y-64583200D01*
X103544050Y-64558247D01*
X103515132Y-64554158D01*
X103483944Y-64572730D01*
X103449464Y-64606087D01*
X103394888Y-64662396D01*
X103455482Y-64712342D01*
X103549102Y-64768713D01*
X103654675Y-64796493D01*
X103765002Y-64794482D01*
X103837457Y-64776062D01*
X103922144Y-64730510D01*
X103989873Y-64658850D01*
X104020643Y-64608266D01*
X104045564Y-64535688D01*
X104058034Y-64443769D01*
X104058130Y-64344148D01*
X104045930Y-64248467D01*
X104021510Y-64168369D01*
X104017664Y-64160156D01*
X103960707Y-64079613D01*
X103883591Y-64020971D01*
X103792410Y-63985447D01*
X103693257Y-63974257D01*
X103592224Y-63988619D01*
G36*
X105218669Y-64241733D02*
G01*
X105217090Y-64364289D01*
X105211319Y-64457379D01*
X105199809Y-64524851D01*
X105181010Y-64570555D01*
X105153374Y-64598339D01*
X105115352Y-64612054D01*
X105068274Y-64615558D01*
X105018968Y-64611632D01*
X104981517Y-64597289D01*
X104954372Y-64568678D01*
X104935985Y-64521951D01*
X104924807Y-64453258D01*
X104919289Y-64358750D01*
X104917879Y-64241733D01*
X104917879Y-63981621D01*
X104734064Y-63981621D01*
X104734064Y-64783726D01*
X104825972Y-64783726D01*
X104881378Y-64781481D01*
X104909909Y-64773596D01*
X104917879Y-64758628D01*
X104922680Y-64745297D01*
X104941786Y-64748117D01*
X104980296Y-64766983D01*
X105068561Y-64796087D01*
X105162177Y-64794025D01*
X105251879Y-64762421D01*
X105294596Y-64737457D01*
X105327179Y-64710426D01*
X105350983Y-64676605D01*
X105367361Y-64631268D01*
X105377669Y-64569689D01*
X105383259Y-64487143D01*
X105385488Y-64378905D01*
X105385774Y-64295204D01*
X105385774Y-63981621D01*
X105218669Y-63981621D01*
X105218669Y-64241733D01*
X105218669Y-64241733D01*
G37*
X105218669Y-64241733D02*
X105217090Y-64364289D01*
X105211319Y-64457379D01*
X105199809Y-64524851D01*
X105181010Y-64570555D01*
X105153374Y-64598339D01*
X105115352Y-64612054D01*
X105068274Y-64615558D01*
X105018968Y-64611632D01*
X104981517Y-64597289D01*
X104954372Y-64568678D01*
X104935985Y-64521951D01*
X104924807Y-64453258D01*
X104919289Y-64358750D01*
X104917879Y-64241733D01*
X104917879Y-63981621D01*
X104734064Y-63981621D01*
X104734064Y-64783726D01*
X104825972Y-64783726D01*
X104881378Y-64781481D01*
X104909909Y-64773596D01*
X104917879Y-64758628D01*
X104922680Y-64745297D01*
X104941786Y-64748117D01*
X104980296Y-64766983D01*
X105068561Y-64796087D01*
X105162177Y-64794025D01*
X105251879Y-64762421D01*
X105294596Y-64737457D01*
X105327179Y-64710426D01*
X105350983Y-64676605D01*
X105367361Y-64631268D01*
X105377669Y-64569689D01*
X105383259Y-64487143D01*
X105385488Y-64378905D01*
X105385774Y-64295204D01*
X105385774Y-63981621D01*
X105218669Y-63981621D01*
X105218669Y-64241733D01*
G36*
X105727131Y-63991510D02*
G01*
X105642608Y-64037540D01*
X105576479Y-64110206D01*
X105545322Y-64169306D01*
X105531945Y-64221505D01*
X105523278Y-64295919D01*
X105519563Y-64381642D01*
X105521046Y-64467769D01*
X105527969Y-64543393D01*
X105536055Y-64583784D01*
X105563335Y-64639040D01*
X105610580Y-64697730D01*
X105667518Y-64749052D01*
X105723876Y-64782205D01*
X105725250Y-64782731D01*
X105795184Y-64797218D01*
X105878063Y-64797577D01*
X105956823Y-64784388D01*
X105987234Y-64773817D01*
X106065561Y-64729401D01*
X106121657Y-64671207D01*
X106158514Y-64594165D01*
X106179120Y-64493201D01*
X106183782Y-64440316D01*
X106183187Y-64373863D01*
X106004064Y-64373863D01*
X105998030Y-64470830D01*
X105980662Y-64544723D01*
X105953060Y-64591936D01*
X105933396Y-64605437D01*
X105883013Y-64614851D01*
X105823127Y-64612064D01*
X105771351Y-64598516D01*
X105757773Y-64591062D01*
X105721951Y-64547651D01*
X105698307Y-64481214D01*
X105688242Y-64400361D01*
X105693158Y-64313702D01*
X105704145Y-64261549D01*
X105735691Y-64201151D01*
X105785489Y-64163397D01*
X105845463Y-64150343D01*
X105907536Y-64164049D01*
X105955218Y-64197572D01*
X105980275Y-64225231D01*
X105994900Y-64252494D01*
X106001871Y-64289390D01*
X106003967Y-64345950D01*
X106004064Y-64373863D01*
X106183187Y-64373863D01*
X106182518Y-64299194D01*
X106159535Y-64183471D01*
X106114828Y-64093141D01*
X106048395Y-64028200D01*
X105960235Y-63988645D01*
X105941305Y-63984058D01*
X105827534Y-63973290D01*
X105727131Y-63991510D01*
X105727131Y-63991510D01*
G37*
X105727131Y-63991510D02*
X105642608Y-64037540D01*
X105576479Y-64110206D01*
X105545322Y-64169306D01*
X105531945Y-64221505D01*
X105523278Y-64295919D01*
X105519563Y-64381642D01*
X105521046Y-64467769D01*
X105527969Y-64543393D01*
X105536055Y-64583784D01*
X105563335Y-64639040D01*
X105610580Y-64697730D01*
X105667518Y-64749052D01*
X105723876Y-64782205D01*
X105725250Y-64782731D01*
X105795184Y-64797218D01*
X105878063Y-64797577D01*
X105956823Y-64784388D01*
X105987234Y-64773817D01*
X106065561Y-64729401D01*
X106121657Y-64671207D01*
X106158514Y-64594165D01*
X106179120Y-64493201D01*
X106183782Y-64440316D01*
X106183187Y-64373863D01*
X106004064Y-64373863D01*
X105998030Y-64470830D01*
X105980662Y-64544723D01*
X105953060Y-64591936D01*
X105933396Y-64605437D01*
X105883013Y-64614851D01*
X105823127Y-64612064D01*
X105771351Y-64598516D01*
X105757773Y-64591062D01*
X105721951Y-64547651D01*
X105698307Y-64481214D01*
X105688242Y-64400361D01*
X105693158Y-64313702D01*
X105704145Y-64261549D01*
X105735691Y-64201151D01*
X105785489Y-64163397D01*
X105845463Y-64150343D01*
X105907536Y-64164049D01*
X105955218Y-64197572D01*
X105980275Y-64225231D01*
X105994900Y-64252494D01*
X106001871Y-64289390D01*
X106003967Y-64345950D01*
X106004064Y-64373863D01*
X106183187Y-64373863D01*
X106182518Y-64299194D01*
X106159535Y-64183471D01*
X106114828Y-64093141D01*
X106048395Y-64028200D01*
X105960235Y-63988645D01*
X105941305Y-63984058D01*
X105827534Y-63973290D01*
X105727131Y-63991510D01*
G36*
X106520172Y-63978747D02*
G01*
X106456892Y-63990748D01*
X106391243Y-64015848D01*
X106384228Y-64019048D01*
X106334444Y-64045226D01*
X106299966Y-64069553D01*
X106288822Y-64085137D01*
X106299434Y-64110553D01*
X106325212Y-64148053D01*
X106336654Y-64162052D01*
X106383808Y-64217154D01*
X106444599Y-64181286D01*
X106502453Y-64157392D01*
X106569300Y-64144620D01*
X106633406Y-64143813D01*
X106683036Y-64155815D01*
X106694946Y-64163305D01*
X106717628Y-64197650D01*
X106720384Y-64237213D01*
X106703412Y-64268120D01*
X106693373Y-64274113D01*
X106663290Y-64281557D01*
X106610411Y-64290306D01*
X106545225Y-64298667D01*
X106533200Y-64299978D01*
X106428503Y-64318088D01*
X106352568Y-64348851D01*
X106302208Y-64395107D01*
X106274236Y-64459697D01*
X106265522Y-64538587D01*
X106277560Y-64628265D01*
X106316649Y-64698686D01*
X106382945Y-64749977D01*
X106476606Y-64782267D01*
X106580577Y-64795007D01*
X106665362Y-64794854D01*
X106734135Y-64783283D01*
X106781103Y-64767309D01*
X106840450Y-64739475D01*
X106895294Y-64707173D01*
X106914787Y-64692955D01*
X106964919Y-64652035D01*
X106843997Y-64529677D01*
X106775257Y-64575167D01*
X106706312Y-64609333D01*
X106632689Y-64627204D01*
X106561917Y-64629089D01*
X106501526Y-64615301D01*
X106459043Y-64586149D01*
X106445326Y-64561552D01*
X106447383Y-64522104D01*
X106481470Y-64491937D01*
X106547492Y-64471106D01*
X106619826Y-64461479D01*
X106731148Y-64443110D01*
X106813848Y-64408454D01*
X106869035Y-64356497D01*
X106897812Y-64286223D01*
X106901799Y-64202907D01*
X106882107Y-64115881D01*
X106837211Y-64050102D01*
X106766709Y-64005268D01*
X106670199Y-63981079D01*
X106598700Y-63976337D01*
X106520172Y-63978747D01*
X106520172Y-63978747D01*
G37*
X106520172Y-63978747D02*
X106456892Y-63990748D01*
X106391243Y-64015848D01*
X106384228Y-64019048D01*
X106334444Y-64045226D01*
X106299966Y-64069553D01*
X106288822Y-64085137D01*
X106299434Y-64110553D01*
X106325212Y-64148053D01*
X106336654Y-64162052D01*
X106383808Y-64217154D01*
X106444599Y-64181286D01*
X106502453Y-64157392D01*
X106569300Y-64144620D01*
X106633406Y-64143813D01*
X106683036Y-64155815D01*
X106694946Y-64163305D01*
X106717628Y-64197650D01*
X106720384Y-64237213D01*
X106703412Y-64268120D01*
X106693373Y-64274113D01*
X106663290Y-64281557D01*
X106610411Y-64290306D01*
X106545225Y-64298667D01*
X106533200Y-64299978D01*
X106428503Y-64318088D01*
X106352568Y-64348851D01*
X106302208Y-64395107D01*
X106274236Y-64459697D01*
X106265522Y-64538587D01*
X106277560Y-64628265D01*
X106316649Y-64698686D01*
X106382945Y-64749977D01*
X106476606Y-64782267D01*
X106580577Y-64795007D01*
X106665362Y-64794854D01*
X106734135Y-64783283D01*
X106781103Y-64767309D01*
X106840450Y-64739475D01*
X106895294Y-64707173D01*
X106914787Y-64692955D01*
X106964919Y-64652035D01*
X106843997Y-64529677D01*
X106775257Y-64575167D01*
X106706312Y-64609333D01*
X106632689Y-64627204D01*
X106561917Y-64629089D01*
X106501526Y-64615301D01*
X106459043Y-64586149D01*
X106445326Y-64561552D01*
X106447383Y-64522104D01*
X106481470Y-64491937D01*
X106547492Y-64471106D01*
X106619826Y-64461479D01*
X106731148Y-64443110D01*
X106813848Y-64408454D01*
X106869035Y-64356497D01*
X106897812Y-64286223D01*
X106901799Y-64202907D01*
X106882107Y-64115881D01*
X106837211Y-64050102D01*
X106766709Y-64005268D01*
X106670199Y-63981079D01*
X106598700Y-63976337D01*
X106520172Y-63978747D01*
G36*
X108341782Y-64000227D02*
G01*
X108325130Y-64008066D01*
X108267495Y-64050286D01*
X108212995Y-64111900D01*
X108172301Y-64179743D01*
X108160726Y-64210934D01*
X108150166Y-64266649D01*
X108143869Y-64333981D01*
X108143104Y-64361785D01*
X108143011Y-64449516D01*
X108647950Y-64449516D01*
X108637187Y-64495470D01*
X108610767Y-64549820D01*
X108564578Y-64596791D01*
X108509628Y-64627048D01*
X108474611Y-64633331D01*
X108427123Y-64625706D01*
X108370465Y-64606583D01*
X108351218Y-64597784D01*
X108280041Y-64562236D01*
X108219298Y-64608567D01*
X108184248Y-64639903D01*
X108165598Y-64665767D01*
X108164653Y-64673358D01*
X108181315Y-64691756D01*
X108217830Y-64719715D01*
X108250972Y-64741527D01*
X108340407Y-64780737D01*
X108440671Y-64798485D01*
X108540046Y-64793870D01*
X108619261Y-64769751D01*
X108700920Y-64718084D01*
X108758951Y-64650056D01*
X108795254Y-64562043D01*
X108811728Y-64450416D01*
X108813189Y-64399338D01*
X108807343Y-64282291D01*
X108806625Y-64278886D01*
X108639311Y-64278886D01*
X108634703Y-64289862D01*
X108615764Y-64295915D01*
X108576702Y-64298510D01*
X108511723Y-64299110D01*
X108486703Y-64299121D01*
X108410579Y-64298214D01*
X108362304Y-64294920D01*
X108336340Y-64288381D01*
X108327152Y-64277737D01*
X108326827Y-64274319D01*
X108337313Y-64247156D01*
X108363558Y-64209103D01*
X108374841Y-64195779D01*
X108416728Y-64158096D01*
X108460391Y-64143280D01*
X108483915Y-64142042D01*
X108547557Y-64157529D01*
X108600927Y-64199130D01*
X108634781Y-64259553D01*
X108635381Y-64261522D01*
X108639311Y-64278886D01*
X108806625Y-64278886D01*
X108787901Y-64190128D01*
X108752878Y-64116390D01*
X108710044Y-64064048D01*
X108630852Y-64007292D01*
X108537760Y-63976962D01*
X108438745Y-63974221D01*
X108341782Y-64000227D01*
X108341782Y-64000227D01*
G37*
X108341782Y-64000227D02*
X108325130Y-64008066D01*
X108267495Y-64050286D01*
X108212995Y-64111900D01*
X108172301Y-64179743D01*
X108160726Y-64210934D01*
X108150166Y-64266649D01*
X108143869Y-64333981D01*
X108143104Y-64361785D01*
X108143011Y-64449516D01*
X108647950Y-64449516D01*
X108637187Y-64495470D01*
X108610767Y-64549820D01*
X108564578Y-64596791D01*
X108509628Y-64627048D01*
X108474611Y-64633331D01*
X108427123Y-64625706D01*
X108370465Y-64606583D01*
X108351218Y-64597784D01*
X108280041Y-64562236D01*
X108219298Y-64608567D01*
X108184248Y-64639903D01*
X108165598Y-64665767D01*
X108164653Y-64673358D01*
X108181315Y-64691756D01*
X108217830Y-64719715D01*
X108250972Y-64741527D01*
X108340407Y-64780737D01*
X108440671Y-64798485D01*
X108540046Y-64793870D01*
X108619261Y-64769751D01*
X108700920Y-64718084D01*
X108758951Y-64650056D01*
X108795254Y-64562043D01*
X108811728Y-64450416D01*
X108813189Y-64399338D01*
X108807343Y-64282291D01*
X108806625Y-64278886D01*
X108639311Y-64278886D01*
X108634703Y-64289862D01*
X108615764Y-64295915D01*
X108576702Y-64298510D01*
X108511723Y-64299110D01*
X108486703Y-64299121D01*
X108410579Y-64298214D01*
X108362304Y-64294920D01*
X108336340Y-64288381D01*
X108327152Y-64277737D01*
X108326827Y-64274319D01*
X108337313Y-64247156D01*
X108363558Y-64209103D01*
X108374841Y-64195779D01*
X108416728Y-64158096D01*
X108460391Y-64143280D01*
X108483915Y-64142042D01*
X108547557Y-64157529D01*
X108600927Y-64199130D01*
X108634781Y-64259553D01*
X108635381Y-64261522D01*
X108639311Y-64278886D01*
X108806625Y-64278886D01*
X108787901Y-64190128D01*
X108752878Y-64116390D01*
X108710044Y-64064048D01*
X108630852Y-64007292D01*
X108537760Y-63976962D01*
X108438745Y-63974221D01*
X108341782Y-64000227D01*
G36*
X109912016Y-63990304D02*
G01*
X109824595Y-64028954D01*
X109758230Y-64093490D01*
X109712824Y-64184012D01*
X109688282Y-64300618D01*
X109686523Y-64318824D01*
X109685144Y-64447184D01*
X109703016Y-64559696D01*
X109739050Y-64650888D01*
X109758345Y-64680222D01*
X109825555Y-64742306D01*
X109911150Y-64782516D01*
X110006910Y-64799203D01*
X110104613Y-64790717D01*
X110178883Y-64764580D01*
X110242753Y-64720535D01*
X110294954Y-64662787D01*
X110295857Y-64661436D01*
X110317056Y-64625793D01*
X110330833Y-64589952D01*
X110339176Y-64544719D01*
X110344073Y-64480901D01*
X110346231Y-64428568D01*
X110347129Y-64381110D01*
X110180057Y-64381110D01*
X110178424Y-64428354D01*
X110172496Y-64491246D01*
X110162039Y-64531607D01*
X110143181Y-64560322D01*
X110125519Y-64577096D01*
X110062906Y-64612216D01*
X109997392Y-64616910D01*
X109936379Y-64591640D01*
X109905872Y-64563324D01*
X109883889Y-64534789D01*
X109871031Y-64507484D01*
X109865388Y-64471950D01*
X109865049Y-64418724D01*
X109866788Y-64369706D01*
X109870529Y-64299682D01*
X109876459Y-64254264D01*
X109887147Y-64224640D01*
X109905161Y-64201997D01*
X109919437Y-64189055D01*
X109979149Y-64155060D01*
X110043566Y-64153365D01*
X110097581Y-64173501D01*
X110143660Y-64215552D01*
X110171111Y-64284628D01*
X110180057Y-64381110D01*
X110347129Y-64381110D01*
X110348201Y-64324499D01*
X110344836Y-64246668D01*
X110334755Y-64188130D01*
X110316574Y-64141937D01*
X110288910Y-64101142D01*
X110278654Y-64089028D01*
X110214522Y-64028674D01*
X110145734Y-63993420D01*
X110061611Y-63978650D01*
X110020591Y-63977443D01*
X109912016Y-63990304D01*
X109912016Y-63990304D01*
G37*
X109912016Y-63990304D02*
X109824595Y-64028954D01*
X109758230Y-64093490D01*
X109712824Y-64184012D01*
X109688282Y-64300618D01*
X109686523Y-64318824D01*
X109685144Y-64447184D01*
X109703016Y-64559696D01*
X109739050Y-64650888D01*
X109758345Y-64680222D01*
X109825555Y-64742306D01*
X109911150Y-64782516D01*
X110006910Y-64799203D01*
X110104613Y-64790717D01*
X110178883Y-64764580D01*
X110242753Y-64720535D01*
X110294954Y-64662787D01*
X110295857Y-64661436D01*
X110317056Y-64625793D01*
X110330833Y-64589952D01*
X110339176Y-64544719D01*
X110344073Y-64480901D01*
X110346231Y-64428568D01*
X110347129Y-64381110D01*
X110180057Y-64381110D01*
X110178424Y-64428354D01*
X110172496Y-64491246D01*
X110162039Y-64531607D01*
X110143181Y-64560322D01*
X110125519Y-64577096D01*
X110062906Y-64612216D01*
X109997392Y-64616910D01*
X109936379Y-64591640D01*
X109905872Y-64563324D01*
X109883889Y-64534789D01*
X109871031Y-64507484D01*
X109865388Y-64471950D01*
X109865049Y-64418724D01*
X109866788Y-64369706D01*
X109870529Y-64299682D01*
X109876459Y-64254264D01*
X109887147Y-64224640D01*
X109905161Y-64201997D01*
X109919437Y-64189055D01*
X109979149Y-64155060D01*
X110043566Y-64153365D01*
X110097581Y-64173501D01*
X110143660Y-64215552D01*
X110171111Y-64284628D01*
X110180057Y-64381110D01*
X110347129Y-64381110D01*
X110348201Y-64324499D01*
X110344836Y-64246668D01*
X110334755Y-64188130D01*
X110316574Y-64141937D01*
X110288910Y-64101142D01*
X110278654Y-64089028D01*
X110214522Y-64028674D01*
X110145734Y-63993420D01*
X110061611Y-63978650D01*
X110020591Y-63977443D01*
X109912016Y-63990304D01*
G36*
X103837607Y-65239278D02*
G01*
X103757732Y-65260045D01*
X103690838Y-65302905D01*
X103658449Y-65334923D01*
X103605355Y-65410613D01*
X103574927Y-65498416D01*
X103564473Y-65606350D01*
X103564420Y-65615075D01*
X103564327Y-65702805D01*
X104069266Y-65702805D01*
X104058502Y-65748759D01*
X104039068Y-65790378D01*
X104005055Y-65833744D01*
X103997940Y-65840667D01*
X103936797Y-65878135D01*
X103867071Y-65884489D01*
X103786813Y-65859838D01*
X103773208Y-65853200D01*
X103731481Y-65833019D01*
X103703532Y-65821521D01*
X103698655Y-65820458D01*
X103681632Y-65830783D01*
X103649167Y-65856045D01*
X103632686Y-65869850D01*
X103598536Y-65901561D01*
X103587322Y-65922499D01*
X103595105Y-65941760D01*
X103599265Y-65947027D01*
X103627443Y-65970078D01*
X103673938Y-65998092D01*
X103706366Y-66014446D01*
X103798415Y-66043259D01*
X103900324Y-66052595D01*
X103996837Y-66041532D01*
X104023866Y-66033612D01*
X104107524Y-65988781D01*
X104169534Y-65919798D01*
X104210255Y-65825994D01*
X104230045Y-65706698D01*
X104232218Y-65644318D01*
X104225874Y-65553498D01*
X104065643Y-65553498D01*
X104050145Y-65560212D01*
X104008488Y-65565480D01*
X103947924Y-65568589D01*
X103906893Y-65569121D01*
X103833089Y-65568608D01*
X103786507Y-65566206D01*
X103760952Y-65560622D01*
X103750231Y-65550561D01*
X103748143Y-65535963D01*
X103762469Y-65490996D01*
X103798538Y-65446553D01*
X103845985Y-65412442D01*
X103893451Y-65398488D01*
X103957921Y-65410866D01*
X104013730Y-65446652D01*
X104052426Y-65498233D01*
X104065643Y-65553498D01*
X104225874Y-65553498D01*
X104222979Y-65512066D01*
X104194464Y-65406698D01*
X104146071Y-65327378D01*
X104077196Y-65273271D01*
X103987235Y-65243543D01*
X103938500Y-65237818D01*
X103837607Y-65239278D01*
X103837607Y-65239278D01*
G37*
X103837607Y-65239278D02*
X103757732Y-65260045D01*
X103690838Y-65302905D01*
X103658449Y-65334923D01*
X103605355Y-65410613D01*
X103574927Y-65498416D01*
X103564473Y-65606350D01*
X103564420Y-65615075D01*
X103564327Y-65702805D01*
X104069266Y-65702805D01*
X104058502Y-65748759D01*
X104039068Y-65790378D01*
X104005055Y-65833744D01*
X103997940Y-65840667D01*
X103936797Y-65878135D01*
X103867071Y-65884489D01*
X103786813Y-65859838D01*
X103773208Y-65853200D01*
X103731481Y-65833019D01*
X103703532Y-65821521D01*
X103698655Y-65820458D01*
X103681632Y-65830783D01*
X103649167Y-65856045D01*
X103632686Y-65869850D01*
X103598536Y-65901561D01*
X103587322Y-65922499D01*
X103595105Y-65941760D01*
X103599265Y-65947027D01*
X103627443Y-65970078D01*
X103673938Y-65998092D01*
X103706366Y-66014446D01*
X103798415Y-66043259D01*
X103900324Y-66052595D01*
X103996837Y-66041532D01*
X104023866Y-66033612D01*
X104107524Y-65988781D01*
X104169534Y-65919798D01*
X104210255Y-65825994D01*
X104230045Y-65706698D01*
X104232218Y-65644318D01*
X104225874Y-65553498D01*
X104065643Y-65553498D01*
X104050145Y-65560212D01*
X104008488Y-65565480D01*
X103947924Y-65568589D01*
X103906893Y-65569121D01*
X103833089Y-65568608D01*
X103786507Y-65566206D01*
X103760952Y-65560622D01*
X103750231Y-65550561D01*
X103748143Y-65535963D01*
X103762469Y-65490996D01*
X103798538Y-65446553D01*
X103845985Y-65412442D01*
X103893451Y-65398488D01*
X103957921Y-65410866D01*
X104013730Y-65446652D01*
X104052426Y-65498233D01*
X104065643Y-65553498D01*
X104225874Y-65553498D01*
X104222979Y-65512066D01*
X104194464Y-65406698D01*
X104146071Y-65327378D01*
X104077196Y-65273271D01*
X103987235Y-65243543D01*
X103938500Y-65237818D01*
X103837607Y-65239278D01*
G36*
X104365633Y-65234647D02*
G01*
X104301392Y-65247312D01*
X104264820Y-65266064D01*
X104226347Y-65297217D01*
X104281083Y-65366327D01*
X104314831Y-65408179D01*
X104337747Y-65428598D01*
X104360521Y-65431717D01*
X104393844Y-65421672D01*
X104409486Y-65415989D01*
X104473258Y-65407604D01*
X104531660Y-65425578D01*
X104574536Y-65466182D01*
X104581501Y-65479129D01*
X104589087Y-65513424D01*
X104594941Y-65576627D01*
X104598789Y-65664260D01*
X104600357Y-65771840D01*
X104600379Y-65787144D01*
X104600379Y-66053726D01*
X104784195Y-66053726D01*
X104784195Y-65234910D01*
X104692287Y-65234910D01*
X104639293Y-65236294D01*
X104611685Y-65242452D01*
X104601476Y-65256394D01*
X104600379Y-65269544D01*
X104600379Y-65304178D01*
X104556350Y-65269544D01*
X104505863Y-65245916D01*
X104438040Y-65234233D01*
X104365633Y-65234647D01*
X104365633Y-65234647D01*
G37*
X104365633Y-65234647D02*
X104301392Y-65247312D01*
X104264820Y-65266064D01*
X104226347Y-65297217D01*
X104281083Y-65366327D01*
X104314831Y-65408179D01*
X104337747Y-65428598D01*
X104360521Y-65431717D01*
X104393844Y-65421672D01*
X104409486Y-65415989D01*
X104473258Y-65407604D01*
X104531660Y-65425578D01*
X104574536Y-65466182D01*
X104581501Y-65479129D01*
X104589087Y-65513424D01*
X104594941Y-65576627D01*
X104598789Y-65664260D01*
X104600357Y-65771840D01*
X104600379Y-65787144D01*
X104600379Y-66053726D01*
X104784195Y-66053726D01*
X104784195Y-65234910D01*
X104692287Y-65234910D01*
X104639293Y-65236294D01*
X104611685Y-65242452D01*
X104601476Y-65256394D01*
X104600379Y-65269544D01*
X104600379Y-65304178D01*
X104556350Y-65269544D01*
X104505863Y-65245916D01*
X104438040Y-65234233D01*
X104365633Y-65234647D01*
G36*
X105158808Y-65239873D02*
G01*
X105088373Y-65256980D01*
X105068013Y-65266044D01*
X105028547Y-65289783D01*
X104998259Y-65316521D01*
X104975848Y-65350899D01*
X104960014Y-65397560D01*
X104949457Y-65461146D01*
X104942876Y-65546299D01*
X104938972Y-65657662D01*
X104937490Y-65732049D01*
X104932035Y-66053726D01*
X105025220Y-66053726D01*
X105081753Y-66051356D01*
X105110878Y-66043255D01*
X105118406Y-66029651D01*
X105122380Y-66014941D01*
X105140148Y-66017754D01*
X105164360Y-66029548D01*
X105224972Y-66047627D01*
X105302871Y-66052499D01*
X105384805Y-66044530D01*
X105457519Y-66024089D01*
X105464041Y-66021251D01*
X105530498Y-65974565D01*
X105574309Y-65909664D01*
X105594468Y-65833800D01*
X105592928Y-65806544D01*
X105428455Y-65806544D01*
X105413963Y-65843224D01*
X105370995Y-65869509D01*
X105301671Y-65883617D01*
X105264623Y-65885490D01*
X105202881Y-65880694D01*
X105161840Y-65862058D01*
X105151827Y-65853200D01*
X105124700Y-65805006D01*
X105118406Y-65761292D01*
X105118406Y-65702805D01*
X105199870Y-65702805D01*
X105294566Y-65707632D01*
X105360987Y-65722813D01*
X105402954Y-65749400D01*
X105412351Y-65761252D01*
X105428455Y-65806544D01*
X105592928Y-65806544D01*
X105589971Y-65754226D01*
X105559815Y-65678195D01*
X105518669Y-65626812D01*
X105493748Y-65604597D01*
X105469352Y-65589998D01*
X105437609Y-65581097D01*
X105390648Y-65575975D01*
X105320596Y-65572715D01*
X105292810Y-65571777D01*
X105118406Y-65566079D01*
X105118662Y-65513291D01*
X105125416Y-65457803D01*
X105149836Y-65424252D01*
X105199170Y-65402818D01*
X105200494Y-65402436D01*
X105270440Y-65394008D01*
X105338886Y-65405016D01*
X105389753Y-65431785D01*
X105410163Y-65445003D01*
X105432146Y-65443174D01*
X105465974Y-65424024D01*
X105485839Y-65410508D01*
X105524694Y-65381632D01*
X105548762Y-65359986D01*
X105552624Y-65353789D01*
X105536721Y-65321719D01*
X105489735Y-65283419D01*
X105469327Y-65270497D01*
X105410657Y-65248241D01*
X105331588Y-65235632D01*
X105243759Y-65232800D01*
X105158808Y-65239873D01*
X105158808Y-65239873D01*
G37*
X105158808Y-65239873D02*
X105088373Y-65256980D01*
X105068013Y-65266044D01*
X105028547Y-65289783D01*
X104998259Y-65316521D01*
X104975848Y-65350899D01*
X104960014Y-65397560D01*
X104949457Y-65461146D01*
X104942876Y-65546299D01*
X104938972Y-65657662D01*
X104937490Y-65732049D01*
X104932035Y-66053726D01*
X105025220Y-66053726D01*
X105081753Y-66051356D01*
X105110878Y-66043255D01*
X105118406Y-66029651D01*
X105122380Y-66014941D01*
X105140148Y-66017754D01*
X105164360Y-66029548D01*
X105224972Y-66047627D01*
X105302871Y-66052499D01*
X105384805Y-66044530D01*
X105457519Y-66024089D01*
X105464041Y-66021251D01*
X105530498Y-65974565D01*
X105574309Y-65909664D01*
X105594468Y-65833800D01*
X105592928Y-65806544D01*
X105428455Y-65806544D01*
X105413963Y-65843224D01*
X105370995Y-65869509D01*
X105301671Y-65883617D01*
X105264623Y-65885490D01*
X105202881Y-65880694D01*
X105161840Y-65862058D01*
X105151827Y-65853200D01*
X105124700Y-65805006D01*
X105118406Y-65761292D01*
X105118406Y-65702805D01*
X105199870Y-65702805D01*
X105294566Y-65707632D01*
X105360987Y-65722813D01*
X105402954Y-65749400D01*
X105412351Y-65761252D01*
X105428455Y-65806544D01*
X105592928Y-65806544D01*
X105589971Y-65754226D01*
X105559815Y-65678195D01*
X105518669Y-65626812D01*
X105493748Y-65604597D01*
X105469352Y-65589998D01*
X105437609Y-65581097D01*
X105390648Y-65575975D01*
X105320596Y-65572715D01*
X105292810Y-65571777D01*
X105118406Y-65566079D01*
X105118662Y-65513291D01*
X105125416Y-65457803D01*
X105149836Y-65424252D01*
X105199170Y-65402818D01*
X105200494Y-65402436D01*
X105270440Y-65394008D01*
X105338886Y-65405016D01*
X105389753Y-65431785D01*
X105410163Y-65445003D01*
X105432146Y-65443174D01*
X105465974Y-65424024D01*
X105485839Y-65410508D01*
X105524694Y-65381632D01*
X105548762Y-65359986D01*
X105552624Y-65353789D01*
X105536721Y-65321719D01*
X105489735Y-65283419D01*
X105469327Y-65270497D01*
X105410657Y-65248241D01*
X105331588Y-65235632D01*
X105243759Y-65232800D01*
X105158808Y-65239873D01*
G36*
X106164670Y-65238304D02*
G01*
X106098580Y-65243266D01*
X106012174Y-65502279D01*
X105925769Y-65761292D01*
X105898676Y-65669384D01*
X105882372Y-65612584D01*
X105860925Y-65535825D01*
X105837765Y-65451451D01*
X105825520Y-65406193D01*
X105779456Y-65234910D01*
X105589413Y-65234910D01*
X105646218Y-65414549D01*
X105674193Y-65502904D01*
X105707987Y-65609481D01*
X105743280Y-65720654D01*
X105774787Y-65819779D01*
X105846550Y-66045371D01*
X106001514Y-66055453D01*
X106043530Y-65916728D01*
X106069441Y-65830551D01*
X106097717Y-65735547D01*
X106122431Y-65651641D01*
X106123406Y-65648302D01*
X106141865Y-65591448D01*
X106158151Y-65552656D01*
X106169558Y-65537987D01*
X106171902Y-65539683D01*
X106180129Y-65562425D01*
X106195762Y-65611140D01*
X106216896Y-65679702D01*
X106241630Y-65761985D01*
X106255013Y-65807246D01*
X106327489Y-66053726D01*
X106481305Y-66053726D01*
X106604269Y-65665206D01*
X106638812Y-65556222D01*
X106670279Y-65457248D01*
X106697184Y-65372936D01*
X106718041Y-65307934D01*
X106731362Y-65266892D01*
X106735412Y-65254901D01*
X106732206Y-65242623D01*
X106707035Y-65237246D01*
X106654654Y-65237784D01*
X106646455Y-65238190D01*
X106549318Y-65243266D01*
X106485700Y-65477213D01*
X106462316Y-65562533D01*
X106441419Y-65637535D01*
X106424849Y-65695707D01*
X106414446Y-65730537D01*
X106412524Y-65736216D01*
X106404559Y-65729686D01*
X106388496Y-65695854D01*
X106366179Y-65639327D01*
X106339455Y-65564710D01*
X106316863Y-65497307D01*
X106230759Y-65233343D01*
X106164670Y-65238304D01*
X106164670Y-65238304D01*
G37*
X106164670Y-65238304D02*
X106098580Y-65243266D01*
X106012174Y-65502279D01*
X105925769Y-65761292D01*
X105898676Y-65669384D01*
X105882372Y-65612584D01*
X105860925Y-65535825D01*
X105837765Y-65451451D01*
X105825520Y-65406193D01*
X105779456Y-65234910D01*
X105589413Y-65234910D01*
X105646218Y-65414549D01*
X105674193Y-65502904D01*
X105707987Y-65609481D01*
X105743280Y-65720654D01*
X105774787Y-65819779D01*
X105846550Y-66045371D01*
X106001514Y-66055453D01*
X106043530Y-65916728D01*
X106069441Y-65830551D01*
X106097717Y-65735547D01*
X106122431Y-65651641D01*
X106123406Y-65648302D01*
X106141865Y-65591448D01*
X106158151Y-65552656D01*
X106169558Y-65537987D01*
X106171902Y-65539683D01*
X106180129Y-65562425D01*
X106195762Y-65611140D01*
X106216896Y-65679702D01*
X106241630Y-65761985D01*
X106255013Y-65807246D01*
X106327489Y-66053726D01*
X106481305Y-66053726D01*
X106604269Y-65665206D01*
X106638812Y-65556222D01*
X106670279Y-65457248D01*
X106697184Y-65372936D01*
X106718041Y-65307934D01*
X106731362Y-65266892D01*
X106735412Y-65254901D01*
X106732206Y-65242623D01*
X106707035Y-65237246D01*
X106654654Y-65237784D01*
X106646455Y-65238190D01*
X106549318Y-65243266D01*
X106485700Y-65477213D01*
X106462316Y-65562533D01*
X106441419Y-65637535D01*
X106424849Y-65695707D01*
X106414446Y-65730537D01*
X106412524Y-65736216D01*
X106404559Y-65729686D01*
X106388496Y-65695854D01*
X106366179Y-65639327D01*
X106339455Y-65564710D01*
X106316863Y-65497307D01*
X106230759Y-65233343D01*
X106164670Y-65238304D01*
G36*
X106806169Y-66053726D02*
G01*
X106898077Y-66053726D01*
X106951423Y-66052162D01*
X106979207Y-66045685D01*
X106989210Y-66031618D01*
X106989985Y-66022106D01*
X106991672Y-66003032D01*
X107002310Y-65999374D01*
X107030265Y-66011132D01*
X107052005Y-66022106D01*
X107135468Y-66048111D01*
X107226196Y-66049616D01*
X107299958Y-66030221D01*
X107368646Y-65983365D01*
X107421006Y-65914204D01*
X107449678Y-65832627D01*
X107450408Y-65828066D01*
X107454668Y-65778301D01*
X107456786Y-65706859D01*
X107456616Y-65652826D01*
X107274080Y-65652826D01*
X107269851Y-65724641D01*
X107260232Y-65783834D01*
X107247210Y-65817260D01*
X107197944Y-65862940D01*
X107139450Y-65879315D01*
X107079129Y-65866073D01*
X107027583Y-65826573D01*
X107008062Y-65800007D01*
X106996648Y-65768306D01*
X106991302Y-65722032D01*
X106989985Y-65652528D01*
X106992342Y-65583699D01*
X106998567Y-65523226D01*
X107007392Y-65482756D01*
X107008863Y-65479129D01*
X107044453Y-65436002D01*
X107096400Y-65412324D01*
X107154522Y-65408501D01*
X107208640Y-65424938D01*
X107248574Y-65462040D01*
X107252717Y-65469422D01*
X107265684Y-65514439D01*
X107272748Y-65579167D01*
X107274080Y-65652826D01*
X107456616Y-65652826D01*
X107456529Y-65625430D01*
X107455328Y-65581605D01*
X107447155Y-65473188D01*
X107430170Y-65391788D01*
X107401913Y-65331612D01*
X107359928Y-65286866D01*
X107319168Y-65260600D01*
X107262219Y-65242135D01*
X107191389Y-65235802D01*
X107118859Y-65240960D01*
X107056814Y-65256969D01*
X107024032Y-65276120D01*
X106989985Y-65306932D01*
X106989985Y-64917410D01*
X106806169Y-64917410D01*
X106806169Y-66053726D01*
X106806169Y-66053726D01*
G37*
X106806169Y-66053726D02*
X106898077Y-66053726D01*
X106951423Y-66052162D01*
X106979207Y-66045685D01*
X106989210Y-66031618D01*
X106989985Y-66022106D01*
X106991672Y-66003032D01*
X107002310Y-65999374D01*
X107030265Y-66011132D01*
X107052005Y-66022106D01*
X107135468Y-66048111D01*
X107226196Y-66049616D01*
X107299958Y-66030221D01*
X107368646Y-65983365D01*
X107421006Y-65914204D01*
X107449678Y-65832627D01*
X107450408Y-65828066D01*
X107454668Y-65778301D01*
X107456786Y-65706859D01*
X107456616Y-65652826D01*
X107274080Y-65652826D01*
X107269851Y-65724641D01*
X107260232Y-65783834D01*
X107247210Y-65817260D01*
X107197944Y-65862940D01*
X107139450Y-65879315D01*
X107079129Y-65866073D01*
X107027583Y-65826573D01*
X107008062Y-65800007D01*
X106996648Y-65768306D01*
X106991302Y-65722032D01*
X106989985Y-65652528D01*
X106992342Y-65583699D01*
X106998567Y-65523226D01*
X107007392Y-65482756D01*
X107008863Y-65479129D01*
X107044453Y-65436002D01*
X107096400Y-65412324D01*
X107154522Y-65408501D01*
X107208640Y-65424938D01*
X107248574Y-65462040D01*
X107252717Y-65469422D01*
X107265684Y-65514439D01*
X107272748Y-65579167D01*
X107274080Y-65652826D01*
X107456616Y-65652826D01*
X107456529Y-65625430D01*
X107455328Y-65581605D01*
X107447155Y-65473188D01*
X107430170Y-65391788D01*
X107401913Y-65331612D01*
X107359928Y-65286866D01*
X107319168Y-65260600D01*
X107262219Y-65242135D01*
X107191389Y-65235802D01*
X107118859Y-65240960D01*
X107056814Y-65256969D01*
X107024032Y-65276120D01*
X106989985Y-65306932D01*
X106989985Y-64917410D01*
X106806169Y-64917410D01*
X106806169Y-66053726D01*
G36*
X107858919Y-65236686D02*
G01*
X107833912Y-65244182D01*
X107825850Y-65260651D01*
X107825511Y-65268086D01*
X107824064Y-65288794D01*
X107814102Y-65292045D01*
X107787188Y-65277848D01*
X107771202Y-65268148D01*
X107720767Y-65247375D01*
X107660528Y-65237104D01*
X107597366Y-65236314D01*
X107538163Y-65243986D01*
X107489798Y-65259098D01*
X107459154Y-65280632D01*
X107453111Y-65307566D01*
X107456161Y-65314860D01*
X107478394Y-65345137D01*
X107512870Y-65382375D01*
X107519106Y-65388395D01*
X107551967Y-65416075D01*
X107580320Y-65425018D01*
X107619973Y-65418776D01*
X107635858Y-65414629D01*
X107685291Y-65404667D01*
X107720048Y-65409147D01*
X107749400Y-65424946D01*
X107776287Y-65446149D01*
X107796090Y-65472814D01*
X107809852Y-65510027D01*
X107818616Y-65562873D01*
X107823426Y-65636437D01*
X107825326Y-65735805D01*
X107825511Y-65795801D01*
X107825511Y-66053726D01*
X107992616Y-66053726D01*
X107992616Y-65234910D01*
X107909064Y-65234910D01*
X107858919Y-65236686D01*
X107858919Y-65236686D01*
G37*
X107858919Y-65236686D02*
X107833912Y-65244182D01*
X107825850Y-65260651D01*
X107825511Y-65268086D01*
X107824064Y-65288794D01*
X107814102Y-65292045D01*
X107787188Y-65277848D01*
X107771202Y-65268148D01*
X107720767Y-65247375D01*
X107660528Y-65237104D01*
X107597366Y-65236314D01*
X107538163Y-65243986D01*
X107489798Y-65259098D01*
X107459154Y-65280632D01*
X107453111Y-65307566D01*
X107456161Y-65314860D01*
X107478394Y-65345137D01*
X107512870Y-65382375D01*
X107519106Y-65388395D01*
X107551967Y-65416075D01*
X107580320Y-65425018D01*
X107619973Y-65418776D01*
X107635858Y-65414629D01*
X107685291Y-65404667D01*
X107720048Y-65409147D01*
X107749400Y-65424946D01*
X107776287Y-65446149D01*
X107796090Y-65472814D01*
X107809852Y-65510027D01*
X107818616Y-65562873D01*
X107823426Y-65636437D01*
X107825326Y-65735805D01*
X107825511Y-65795801D01*
X107825511Y-66053726D01*
X107992616Y-66053726D01*
X107992616Y-65234910D01*
X107909064Y-65234910D01*
X107858919Y-65236686D01*
G36*
X108378343Y-65241384D02*
G01*
X108299730Y-65262360D01*
X108239884Y-65300380D01*
X108197653Y-65350178D01*
X108184525Y-65371430D01*
X108174832Y-65393692D01*
X108168056Y-65422170D01*
X108163677Y-65462071D01*
X108161176Y-65518601D01*
X108160032Y-65596967D01*
X108159728Y-65702376D01*
X108159722Y-65730342D01*
X108159722Y-66053726D01*
X108239932Y-66053726D01*
X108291094Y-66050143D01*
X108328923Y-66041066D01*
X108338401Y-66035468D01*
X108364312Y-66025806D01*
X108390776Y-66035468D01*
X108434348Y-66047530D01*
X108497640Y-66052385D01*
X108567790Y-66050278D01*
X108631940Y-66041456D01*
X108669393Y-66030137D01*
X108741867Y-65983612D01*
X108787160Y-65919046D01*
X108807522Y-65833200D01*
X108807712Y-65830996D01*
X108805925Y-65792913D01*
X108644327Y-65792913D01*
X108630199Y-65836230D01*
X108607188Y-65860608D01*
X108560996Y-65879045D01*
X108500025Y-65886405D01*
X108437851Y-65882783D01*
X108388049Y-65868274D01*
X108374097Y-65858965D01*
X108349715Y-65815953D01*
X108343537Y-65767057D01*
X108343537Y-65702805D01*
X108435982Y-65702805D01*
X108523805Y-65709566D01*
X108590382Y-65728720D01*
X108631798Y-65758576D01*
X108644327Y-65792913D01*
X108805925Y-65792913D01*
X108803310Y-65737204D01*
X108772376Y-65663047D01*
X108714219Y-65606967D01*
X108706180Y-65601865D01*
X108671637Y-65585255D01*
X108628882Y-65575196D01*
X108569114Y-65570307D01*
X108498110Y-65569183D01*
X108343537Y-65569121D01*
X108343537Y-65504325D01*
X108350094Y-65454050D01*
X108366825Y-65420369D01*
X108368784Y-65418576D01*
X108406017Y-65403842D01*
X108462220Y-65398131D01*
X108524333Y-65400937D01*
X108579290Y-65411756D01*
X108611901Y-65427982D01*
X108629572Y-65440980D01*
X108648231Y-65443462D01*
X108673981Y-65432813D01*
X108712927Y-65406418D01*
X108771170Y-65361665D01*
X108776516Y-65357473D01*
X108773777Y-65341960D01*
X108750924Y-65316160D01*
X108716191Y-65287489D01*
X108677810Y-65263366D01*
X108665752Y-65257670D01*
X108621766Y-65246303D01*
X108557313Y-65238195D01*
X108485303Y-65234943D01*
X108481936Y-65234936D01*
X108378343Y-65241384D01*
X108378343Y-65241384D01*
G37*
X108378343Y-65241384D02*
X108299730Y-65262360D01*
X108239884Y-65300380D01*
X108197653Y-65350178D01*
X108184525Y-65371430D01*
X108174832Y-65393692D01*
X108168056Y-65422170D01*
X108163677Y-65462071D01*
X108161176Y-65518601D01*
X108160032Y-65596967D01*
X108159728Y-65702376D01*
X108159722Y-65730342D01*
X108159722Y-66053726D01*
X108239932Y-66053726D01*
X108291094Y-66050143D01*
X108328923Y-66041066D01*
X108338401Y-66035468D01*
X108364312Y-66025806D01*
X108390776Y-66035468D01*
X108434348Y-66047530D01*
X108497640Y-66052385D01*
X108567790Y-66050278D01*
X108631940Y-66041456D01*
X108669393Y-66030137D01*
X108741867Y-65983612D01*
X108787160Y-65919046D01*
X108807522Y-65833200D01*
X108807712Y-65830996D01*
X108805925Y-65792913D01*
X108644327Y-65792913D01*
X108630199Y-65836230D01*
X108607188Y-65860608D01*
X108560996Y-65879045D01*
X108500025Y-65886405D01*
X108437851Y-65882783D01*
X108388049Y-65868274D01*
X108374097Y-65858965D01*
X108349715Y-65815953D01*
X108343537Y-65767057D01*
X108343537Y-65702805D01*
X108435982Y-65702805D01*
X108523805Y-65709566D01*
X108590382Y-65728720D01*
X108631798Y-65758576D01*
X108644327Y-65792913D01*
X108805925Y-65792913D01*
X108803310Y-65737204D01*
X108772376Y-65663047D01*
X108714219Y-65606967D01*
X108706180Y-65601865D01*
X108671637Y-65585255D01*
X108628882Y-65575196D01*
X108569114Y-65570307D01*
X108498110Y-65569183D01*
X108343537Y-65569121D01*
X108343537Y-65504325D01*
X108350094Y-65454050D01*
X108366825Y-65420369D01*
X108368784Y-65418576D01*
X108406017Y-65403842D01*
X108462220Y-65398131D01*
X108524333Y-65400937D01*
X108579290Y-65411756D01*
X108611901Y-65427982D01*
X108629572Y-65440980D01*
X108648231Y-65443462D01*
X108673981Y-65432813D01*
X108712927Y-65406418D01*
X108771170Y-65361665D01*
X108776516Y-65357473D01*
X108773777Y-65341960D01*
X108750924Y-65316160D01*
X108716191Y-65287489D01*
X108677810Y-65263366D01*
X108665752Y-65257670D01*
X108621766Y-65246303D01*
X108557313Y-65238195D01*
X108485303Y-65234943D01*
X108481936Y-65234936D01*
X108378343Y-65241384D01*
G36*
X109075440Y-63995668D02*
G01*
X109040208Y-64013074D01*
X108996760Y-64043406D01*
X108965094Y-64076483D01*
X108943406Y-64118017D01*
X108929897Y-64173722D01*
X108922762Y-64249311D01*
X108920200Y-64350496D01*
X108920050Y-64393997D01*
X108920488Y-64489335D01*
X108922304Y-64557471D01*
X108926255Y-64604618D01*
X108933098Y-64636990D01*
X108943589Y-64660800D01*
X108954504Y-64677043D01*
X109024181Y-64746152D01*
X109106234Y-64787721D01*
X109194750Y-64800223D01*
X109283819Y-64782134D01*
X109312037Y-64769342D01*
X109379590Y-64734131D01*
X109379590Y-65285900D01*
X109330288Y-65260405D01*
X109265327Y-65240680D01*
X109185480Y-65235627D01*
X109105748Y-65244956D01*
X109045535Y-65265914D01*
X108995592Y-65305827D01*
X108952919Y-65362941D01*
X108949710Y-65368805D01*
X108936178Y-65396427D01*
X108926295Y-65424268D01*
X108919491Y-65457994D01*
X108915199Y-65503271D01*
X108912849Y-65565762D01*
X108911872Y-65651135D01*
X108911695Y-65747210D01*
X108911695Y-66053726D01*
X109095511Y-66053726D01*
X109095511Y-65488539D01*
X109146925Y-65445277D01*
X109200334Y-65410672D01*
X109250912Y-65404380D01*
X109301770Y-65420572D01*
X109328875Y-65436427D01*
X109349049Y-65459010D01*
X109363397Y-65493140D01*
X109373024Y-65543634D01*
X109379037Y-65615311D01*
X109382540Y-65712988D01*
X109383774Y-65778002D01*
X109387945Y-66045371D01*
X109475675Y-66050422D01*
X109563406Y-66055473D01*
X109563406Y-64396301D01*
X109379590Y-64396301D01*
X109374904Y-64488800D01*
X109359112Y-64553009D01*
X109329617Y-64592959D01*
X109283820Y-64612680D01*
X109237550Y-64616621D01*
X109185172Y-64612092D01*
X109150410Y-64594269D01*
X109128672Y-64570719D01*
X109111560Y-64545389D01*
X109101373Y-64517169D01*
X109096840Y-64477631D01*
X109096691Y-64418342D01*
X109098216Y-64368698D01*
X109101719Y-64293910D01*
X109106933Y-64244811D01*
X109115713Y-64213667D01*
X109129914Y-64192745D01*
X109143316Y-64180652D01*
X109199313Y-64154281D01*
X109265589Y-64150022D01*
X109303644Y-64159106D01*
X109341323Y-64191396D01*
X109366281Y-64254206D01*
X109378378Y-64347094D01*
X109379590Y-64396301D01*
X109563406Y-64396301D01*
X109563406Y-63981621D01*
X109471498Y-63981621D01*
X109416317Y-63983803D01*
X109387848Y-63991551D01*
X109379594Y-64006668D01*
X109379590Y-64007116D01*
X109375760Y-64021920D01*
X109358867Y-64020239D01*
X109325281Y-64003972D01*
X109247022Y-63979087D01*
X109158973Y-63976471D01*
X109075440Y-63995668D01*
X109075440Y-63995668D01*
G37*
X109075440Y-63995668D02*
X109040208Y-64013074D01*
X108996760Y-64043406D01*
X108965094Y-64076483D01*
X108943406Y-64118017D01*
X108929897Y-64173722D01*
X108922762Y-64249311D01*
X108920200Y-64350496D01*
X108920050Y-64393997D01*
X108920488Y-64489335D01*
X108922304Y-64557471D01*
X108926255Y-64604618D01*
X108933098Y-64636990D01*
X108943589Y-64660800D01*
X108954504Y-64677043D01*
X109024181Y-64746152D01*
X109106234Y-64787721D01*
X109194750Y-64800223D01*
X109283819Y-64782134D01*
X109312037Y-64769342D01*
X109379590Y-64734131D01*
X109379590Y-65285900D01*
X109330288Y-65260405D01*
X109265327Y-65240680D01*
X109185480Y-65235627D01*
X109105748Y-65244956D01*
X109045535Y-65265914D01*
X108995592Y-65305827D01*
X108952919Y-65362941D01*
X108949710Y-65368805D01*
X108936178Y-65396427D01*
X108926295Y-65424268D01*
X108919491Y-65457994D01*
X108915199Y-65503271D01*
X108912849Y-65565762D01*
X108911872Y-65651135D01*
X108911695Y-65747210D01*
X108911695Y-66053726D01*
X109095511Y-66053726D01*
X109095511Y-65488539D01*
X109146925Y-65445277D01*
X109200334Y-65410672D01*
X109250912Y-65404380D01*
X109301770Y-65420572D01*
X109328875Y-65436427D01*
X109349049Y-65459010D01*
X109363397Y-65493140D01*
X109373024Y-65543634D01*
X109379037Y-65615311D01*
X109382540Y-65712988D01*
X109383774Y-65778002D01*
X109387945Y-66045371D01*
X109475675Y-66050422D01*
X109563406Y-66055473D01*
X109563406Y-64396301D01*
X109379590Y-64396301D01*
X109374904Y-64488800D01*
X109359112Y-64553009D01*
X109329617Y-64592959D01*
X109283820Y-64612680D01*
X109237550Y-64616621D01*
X109185172Y-64612092D01*
X109150410Y-64594269D01*
X109128672Y-64570719D01*
X109111560Y-64545389D01*
X109101373Y-64517169D01*
X109096840Y-64477631D01*
X109096691Y-64418342D01*
X109098216Y-64368698D01*
X109101719Y-64293910D01*
X109106933Y-64244811D01*
X109115713Y-64213667D01*
X109129914Y-64192745D01*
X109143316Y-64180652D01*
X109199313Y-64154281D01*
X109265589Y-64150022D01*
X109303644Y-64159106D01*
X109341323Y-64191396D01*
X109366281Y-64254206D01*
X109378378Y-64347094D01*
X109379590Y-64396301D01*
X109563406Y-64396301D01*
X109563406Y-63981621D01*
X109471498Y-63981621D01*
X109416317Y-63983803D01*
X109387848Y-63991551D01*
X109379594Y-64006668D01*
X109379590Y-64007116D01*
X109375760Y-64021920D01*
X109358867Y-64020239D01*
X109325281Y-64003972D01*
X109247022Y-63979087D01*
X109158973Y-63976471D01*
X109075440Y-63995668D01*
D13*
X136149000Y-82660000D02*
X136149000Y-84150000D01*
X136149000Y-84150000D02*
X134809000Y-84150000D01*
X136149000Y-67340000D02*
X136149000Y-65850000D01*
X136149000Y-65850000D02*
X134809000Y-65850000D01*
X132089000Y-84150000D02*
X130349000Y-84150000D01*
X130349000Y-84150000D02*
X130349000Y-65850000D01*
X130349000Y-65850000D02*
X132089000Y-65850000D01*
X136149000Y-82660000D02*
X137349000Y-82660000D01*
M02*
