G04 #@! TF.GenerationSoftware,KiCad,Pcbnew,5.0.2-bee76a0~70~ubuntu18.04.1*
G04 #@! TF.CreationDate,2019-05-12T18:16:14+09:00*
G04 #@! TF.ProjectId,bottom_pcb,626f7474-6f6d-45f7-9063-622e6b696361,rev?*
G04 #@! TF.SameCoordinates,Original*
G04 #@! TF.FileFunction,Copper,L1,Top*
G04 #@! TF.FilePolarity,Positive*
%FSLAX46Y46*%
G04 Gerber Fmt 4.6, Leading zero omitted, Abs format (unit mm)*
G04 Created by KiCad (PCBNEW 5.0.2-bee76a0~70~ubuntu18.04.1) date 2019年05月12日 18時16分14秒*
%MOMM*%
%LPD*%
G01*
G04 APERTURE LIST*
G04 #@! TA.AperFunction,ComponentPad*
%ADD10O,1.700000X1.700000*%
G04 #@! TD*
G04 #@! TA.AperFunction,ComponentPad*
%ADD11R,1.700000X1.700000*%
G04 #@! TD*
G04 #@! TA.AperFunction,ViaPad*
%ADD12C,0.800000*%
G04 #@! TD*
G04 #@! TA.AperFunction,Conductor*
%ADD13C,0.250000*%
G04 #@! TD*
G04 #@! TA.AperFunction,Conductor*
%ADD14C,0.254000*%
G04 #@! TD*
G04 APERTURE END LIST*
D10*
G04 #@! TO.P,J1,13*
G04 #@! TO.N,G35*
X140230000Y-55950000D03*
G04 #@! TO.P,J1,12*
G04 #@! TO.N,G36*
X137690000Y-55950000D03*
G04 #@! TO.P,J1,11*
G04 #@! TO.N,RST*
X135150000Y-55950000D03*
G04 #@! TO.P,J1,10*
G04 #@! TO.N,G25*
X132610000Y-55950000D03*
G04 #@! TO.P,J1,9*
G04 #@! TO.N,G26*
X130070000Y-55950000D03*
G04 #@! TO.P,J1,8*
G04 #@! TO.N,G23*
X127530000Y-55950000D03*
G04 #@! TO.P,J1,7*
G04 #@! TO.N,G19*
X124990000Y-55950000D03*
G04 #@! TO.P,J1,6*
G04 #@! TO.N,G18*
X122450000Y-55950000D03*
G04 #@! TO.P,J1,5*
G04 #@! TO.N,G1*
X119910000Y-55950000D03*
G04 #@! TO.P,J1,4*
G04 #@! TO.N,G3*
X117370000Y-55950000D03*
G04 #@! TO.P,J1,3*
G04 #@! TO.N,G22*
X114830000Y-55950000D03*
G04 #@! TO.P,J1,2*
G04 #@! TO.N,G21*
X112290000Y-55950000D03*
D11*
G04 #@! TO.P,J1,1*
G04 #@! TO.N,+3V3*
X109750000Y-55950000D03*
G04 #@! TD*
D10*
G04 #@! TO.P,J2,13*
G04 #@! TO.N,+BATT*
X140230000Y-94050000D03*
G04 #@! TO.P,J2,12*
G04 #@! TO.N,HPWR*
X137690000Y-94050000D03*
G04 #@! TO.P,J2,11*
G04 #@! TO.N,+5V*
X135150000Y-94050000D03*
G04 #@! TO.P,J2,10*
G04 #@! TO.N,GND*
X132610000Y-94050000D03*
G04 #@! TO.P,J2,9*
G04 #@! TO.N,G34*
X130070000Y-94050000D03*
G04 #@! TO.P,J2,8*
G04 #@! TO.N,G15*
X127530000Y-94050000D03*
G04 #@! TO.P,J2,7*
G04 #@! TO.N,G0*
X124990000Y-94050000D03*
G04 #@! TO.P,J2,6*
G04 #@! TO.N,G12*
X122450000Y-94050000D03*
G04 #@! TO.P,J2,5*
G04 #@! TO.N,G13*
X119910000Y-94050000D03*
G04 #@! TO.P,J2,4*
G04 #@! TO.N,G2*
X117370000Y-94050000D03*
G04 #@! TO.P,J2,3*
G04 #@! TO.N,G5*
X114830000Y-94050000D03*
G04 #@! TO.P,J2,2*
G04 #@! TO.N,G16*
X112290000Y-94050000D03*
D11*
G04 #@! TO.P,J2,1*
G04 #@! TO.N,G17*
X109750000Y-94050000D03*
G04 #@! TD*
D12*
G04 #@! TO.N,GND*
X105752900Y-94805500D03*
X105752900Y-55232300D03*
X144310100Y-55156100D03*
X144322800Y-94932500D03*
G04 #@! TO.N,G21*
X135215000Y-75193400D03*
G04 #@! TO.N,G2*
X144074000Y-79641100D03*
G04 #@! TO.N,G12*
X144967000Y-82841900D03*
G04 #@! TO.N,G15*
X144074000Y-86114300D03*
G04 #@! TO.N,G22*
X138670500Y-75275800D03*
G04 #@! TO.N,G25*
X143183900Y-64716200D03*
G04 #@! TD*
D13*
G04 #@! TO.N,GND*
X131434999Y-95225001D02*
X131419199Y-95225001D01*
X132610000Y-94050000D02*
X131434999Y-95225001D01*
X131419199Y-95225001D02*
X129527300Y-97116900D01*
X129527300Y-97116900D02*
X110439200Y-97116900D01*
X110439200Y-97116900D02*
X107899200Y-94576900D01*
X107899200Y-94576900D02*
X105981500Y-94576900D01*
X105981500Y-94576900D02*
X105752900Y-94805500D01*
G04 #@! TO.N,G21*
X112290000Y-55950000D02*
X113465300Y-55950000D01*
X135215000Y-75193400D02*
X132341400Y-75193400D01*
X132341400Y-75193400D02*
X113465300Y-56317300D01*
X113465300Y-56317300D02*
X113465300Y-55950000D01*
G04 #@! TO.N,G2*
X117370000Y-94050000D02*
X118545300Y-94050000D01*
X118545300Y-94050000D02*
X118545300Y-93682700D01*
X118545300Y-93682700D02*
X132586900Y-79641100D01*
X132586900Y-79641100D02*
X144074000Y-79641100D01*
G04 #@! TO.N,G12*
X122450000Y-94050000D02*
X123625300Y-94050000D01*
X123625300Y-94050000D02*
X123625300Y-93682700D01*
X123625300Y-93682700D02*
X134466100Y-82841900D01*
X134466100Y-82841900D02*
X144967000Y-82841900D01*
G04 #@! TO.N,G15*
X127530000Y-94050000D02*
X128705300Y-94050000D01*
X128705300Y-94050000D02*
X128705300Y-93682700D01*
X128705300Y-93682700D02*
X136273700Y-86114300D01*
X136273700Y-86114300D02*
X144074000Y-86114300D01*
G04 #@! TO.N,G22*
X116005300Y-55950000D02*
X116005300Y-56317400D01*
X116005300Y-56317400D02*
X116813200Y-57125300D01*
X116813200Y-57125300D02*
X120520000Y-57125300D01*
X120520000Y-57125300D02*
X138670500Y-75275800D01*
X114830000Y-55950000D02*
X116005300Y-55950000D01*
G04 #@! TO.N,G25*
X133785300Y-55950000D02*
X133785300Y-56317300D01*
X133785300Y-56317300D02*
X142184200Y-64716200D01*
X142184200Y-64716200D02*
X143183900Y-64716200D01*
X132610000Y-55950000D02*
X133785300Y-55950000D01*
G04 #@! TD*
D14*
G04 #@! TO.N,GND*
G36*
X147643175Y-50847265D02*
X147444569Y-50765000D01*
X146555431Y-50765000D01*
X145733974Y-51105259D01*
X145105259Y-51733974D01*
X144765000Y-52555431D01*
X144765000Y-53444569D01*
X145105259Y-54266026D01*
X145733974Y-54894741D01*
X146555431Y-55235000D01*
X147444569Y-55235000D01*
X148266026Y-54894741D01*
X148894741Y-54266026D01*
X149235000Y-53444569D01*
X149235000Y-52555431D01*
X149152736Y-52356827D01*
X149265000Y-52469092D01*
X149265001Y-97530907D01*
X149152736Y-97643173D01*
X149235000Y-97444569D01*
X149235000Y-96555431D01*
X148894741Y-95733974D01*
X148266026Y-95105259D01*
X147444569Y-94765000D01*
X146555431Y-94765000D01*
X145733974Y-95105259D01*
X145105259Y-95733974D01*
X144765000Y-96555431D01*
X144765000Y-97444569D01*
X145105259Y-98266026D01*
X145733974Y-98894741D01*
X146555431Y-99235000D01*
X147444569Y-99235000D01*
X147643175Y-99152735D01*
X147505910Y-99290000D01*
X102494092Y-99290000D01*
X102356827Y-99152736D01*
X102555431Y-99235000D01*
X103444569Y-99235000D01*
X104266026Y-98894741D01*
X104894741Y-98266026D01*
X105235000Y-97444569D01*
X105235000Y-96654887D01*
X105265000Y-96654887D01*
X105265000Y-97345113D01*
X105529138Y-97982799D01*
X106017201Y-98470862D01*
X106654887Y-98735000D01*
X107345113Y-98735000D01*
X107982799Y-98470862D01*
X108470862Y-97982799D01*
X108735000Y-97345113D01*
X108735000Y-96654887D01*
X141265000Y-96654887D01*
X141265000Y-97345113D01*
X141529138Y-97982799D01*
X142017201Y-98470862D01*
X142654887Y-98735000D01*
X143345113Y-98735000D01*
X143982799Y-98470862D01*
X144470862Y-97982799D01*
X144735000Y-97345113D01*
X144735000Y-96654887D01*
X144470862Y-96017201D01*
X143982799Y-95529138D01*
X143345113Y-95265000D01*
X142654887Y-95265000D01*
X142017201Y-95529138D01*
X141529138Y-96017201D01*
X141265000Y-96654887D01*
X108735000Y-96654887D01*
X108470862Y-96017201D01*
X107982799Y-95529138D01*
X107345113Y-95265000D01*
X106654887Y-95265000D01*
X106017201Y-95529138D01*
X105529138Y-96017201D01*
X105265000Y-96654887D01*
X105235000Y-96654887D01*
X105235000Y-96555431D01*
X104894741Y-95733974D01*
X104266026Y-95105259D01*
X103444569Y-94765000D01*
X102555431Y-94765000D01*
X101733974Y-95105259D01*
X101105259Y-95733974D01*
X100765000Y-96555431D01*
X100765000Y-97444569D01*
X100847265Y-97643175D01*
X100710000Y-97505910D01*
X100710000Y-93200000D01*
X108252560Y-93200000D01*
X108252560Y-94900000D01*
X108301843Y-95147765D01*
X108442191Y-95357809D01*
X108652235Y-95498157D01*
X108900000Y-95547440D01*
X110600000Y-95547440D01*
X110847765Y-95498157D01*
X111057809Y-95357809D01*
X111198157Y-95147765D01*
X111207184Y-95102381D01*
X111219375Y-95120625D01*
X111710582Y-95448839D01*
X112143744Y-95535000D01*
X112436256Y-95535000D01*
X112869418Y-95448839D01*
X113360625Y-95120625D01*
X113560000Y-94822239D01*
X113759375Y-95120625D01*
X114250582Y-95448839D01*
X114683744Y-95535000D01*
X114976256Y-95535000D01*
X115409418Y-95448839D01*
X115900625Y-95120625D01*
X116100000Y-94822239D01*
X116299375Y-95120625D01*
X116790582Y-95448839D01*
X117223744Y-95535000D01*
X117516256Y-95535000D01*
X117949418Y-95448839D01*
X118440625Y-95120625D01*
X118640000Y-94822239D01*
X118839375Y-95120625D01*
X119330582Y-95448839D01*
X119763744Y-95535000D01*
X120056256Y-95535000D01*
X120489418Y-95448839D01*
X120980625Y-95120625D01*
X121180000Y-94822239D01*
X121379375Y-95120625D01*
X121870582Y-95448839D01*
X122303744Y-95535000D01*
X122596256Y-95535000D01*
X123029418Y-95448839D01*
X123520625Y-95120625D01*
X123720000Y-94822239D01*
X123919375Y-95120625D01*
X124410582Y-95448839D01*
X124843744Y-95535000D01*
X125136256Y-95535000D01*
X125569418Y-95448839D01*
X126060625Y-95120625D01*
X126260000Y-94822239D01*
X126459375Y-95120625D01*
X126950582Y-95448839D01*
X127383744Y-95535000D01*
X127676256Y-95535000D01*
X128109418Y-95448839D01*
X128600625Y-95120625D01*
X128800000Y-94822239D01*
X128999375Y-95120625D01*
X129490582Y-95448839D01*
X129923744Y-95535000D01*
X130216256Y-95535000D01*
X130649418Y-95448839D01*
X131140625Y-95120625D01*
X131353843Y-94801522D01*
X131414817Y-94931358D01*
X131843076Y-95321645D01*
X132253110Y-95491476D01*
X132483000Y-95370155D01*
X132483000Y-94177000D01*
X132463000Y-94177000D01*
X132463000Y-93923000D01*
X132483000Y-93923000D01*
X132483000Y-92729845D01*
X132737000Y-92729845D01*
X132737000Y-93923000D01*
X132757000Y-93923000D01*
X132757000Y-94177000D01*
X132737000Y-94177000D01*
X132737000Y-95370155D01*
X132966890Y-95491476D01*
X133376924Y-95321645D01*
X133805183Y-94931358D01*
X133866157Y-94801522D01*
X134079375Y-95120625D01*
X134570582Y-95448839D01*
X135003744Y-95535000D01*
X135296256Y-95535000D01*
X135729418Y-95448839D01*
X136220625Y-95120625D01*
X136420000Y-94822239D01*
X136619375Y-95120625D01*
X137110582Y-95448839D01*
X137543744Y-95535000D01*
X137836256Y-95535000D01*
X138269418Y-95448839D01*
X138760625Y-95120625D01*
X138960000Y-94822239D01*
X139159375Y-95120625D01*
X139650582Y-95448839D01*
X140083744Y-95535000D01*
X140376256Y-95535000D01*
X140809418Y-95448839D01*
X141300625Y-95120625D01*
X141628839Y-94629418D01*
X141744092Y-94050000D01*
X141628839Y-93470582D01*
X141300625Y-92979375D01*
X140809418Y-92651161D01*
X140376256Y-92565000D01*
X140083744Y-92565000D01*
X139650582Y-92651161D01*
X139159375Y-92979375D01*
X138960000Y-93277761D01*
X138760625Y-92979375D01*
X138269418Y-92651161D01*
X137836256Y-92565000D01*
X137543744Y-92565000D01*
X137110582Y-92651161D01*
X136619375Y-92979375D01*
X136420000Y-93277761D01*
X136220625Y-92979375D01*
X135729418Y-92651161D01*
X135296256Y-92565000D01*
X135003744Y-92565000D01*
X134570582Y-92651161D01*
X134079375Y-92979375D01*
X133866157Y-93298478D01*
X133805183Y-93168642D01*
X133376924Y-92778355D01*
X132966890Y-92608524D01*
X132737000Y-92729845D01*
X132483000Y-92729845D01*
X132253110Y-92608524D01*
X131843076Y-92778355D01*
X131414817Y-93168642D01*
X131353843Y-93298478D01*
X131140625Y-92979375D01*
X130746663Y-92716138D01*
X132168621Y-91294180D01*
X142989000Y-91294180D01*
X142989000Y-91725820D01*
X143154182Y-92124603D01*
X143459397Y-92429818D01*
X143858180Y-92595000D01*
X144289820Y-92595000D01*
X144688603Y-92429818D01*
X144993818Y-92124603D01*
X145159000Y-91725820D01*
X145159000Y-91294180D01*
X144993818Y-90895397D01*
X144688603Y-90590182D01*
X144289820Y-90425000D01*
X143858180Y-90425000D01*
X143459397Y-90590182D01*
X143154182Y-90895397D01*
X142989000Y-91294180D01*
X132168621Y-91294180D01*
X136588502Y-86874300D01*
X143370289Y-86874300D01*
X143487720Y-86991731D01*
X143868126Y-87149300D01*
X144279874Y-87149300D01*
X144660280Y-86991731D01*
X144951431Y-86700580D01*
X145109000Y-86320174D01*
X145109000Y-85908426D01*
X144951431Y-85528020D01*
X144660280Y-85236869D01*
X144279874Y-85079300D01*
X143868126Y-85079300D01*
X143487720Y-85236869D01*
X143370289Y-85354300D01*
X136348547Y-85354300D01*
X136273700Y-85339412D01*
X136198853Y-85354300D01*
X136198848Y-85354300D01*
X135977163Y-85398396D01*
X135725771Y-85566371D01*
X135683371Y-85629827D01*
X128440689Y-92872509D01*
X128109418Y-92651161D01*
X127676256Y-92565000D01*
X127383744Y-92565000D01*
X126950582Y-92651161D01*
X126459375Y-92979375D01*
X126260000Y-93277761D01*
X126060625Y-92979375D01*
X125666663Y-92716138D01*
X134780903Y-83601900D01*
X144263289Y-83601900D01*
X144380720Y-83719331D01*
X144761126Y-83876900D01*
X145172874Y-83876900D01*
X145553280Y-83719331D01*
X145844431Y-83428180D01*
X146002000Y-83047774D01*
X146002000Y-82636026D01*
X145844431Y-82255620D01*
X145553280Y-81964469D01*
X145172874Y-81806900D01*
X144761126Y-81806900D01*
X144380720Y-81964469D01*
X144263289Y-82081900D01*
X134540946Y-82081900D01*
X134466099Y-82067012D01*
X134391252Y-82081900D01*
X134391248Y-82081900D01*
X134169563Y-82125996D01*
X134169561Y-82125997D01*
X134169562Y-82125997D01*
X133981626Y-82251571D01*
X133981624Y-82251573D01*
X133918171Y-82293971D01*
X133875773Y-82357424D01*
X123360689Y-92872509D01*
X123029418Y-92651161D01*
X122596256Y-92565000D01*
X122303744Y-92565000D01*
X121870582Y-92651161D01*
X121379375Y-92979375D01*
X121180000Y-93277761D01*
X120980625Y-92979375D01*
X120586663Y-92716138D01*
X132901702Y-80401100D01*
X143370289Y-80401100D01*
X143487720Y-80518531D01*
X143868126Y-80676100D01*
X144279874Y-80676100D01*
X144660280Y-80518531D01*
X144951431Y-80227380D01*
X145109000Y-79846974D01*
X145109000Y-79435226D01*
X144951431Y-79054820D01*
X144660280Y-78763669D01*
X144279874Y-78606100D01*
X143868126Y-78606100D01*
X143487720Y-78763669D01*
X143370289Y-78881100D01*
X132661746Y-78881100D01*
X132586899Y-78866212D01*
X132512052Y-78881100D01*
X132512048Y-78881100D01*
X132290363Y-78925196D01*
X132038971Y-79093171D01*
X131996571Y-79156627D01*
X118280689Y-92872510D01*
X117949418Y-92651161D01*
X117516256Y-92565000D01*
X117223744Y-92565000D01*
X116790582Y-92651161D01*
X116299375Y-92979375D01*
X116100000Y-93277761D01*
X115900625Y-92979375D01*
X115409418Y-92651161D01*
X114976256Y-92565000D01*
X114683744Y-92565000D01*
X114250582Y-92651161D01*
X113759375Y-92979375D01*
X113560000Y-93277761D01*
X113360625Y-92979375D01*
X112869418Y-92651161D01*
X112436256Y-92565000D01*
X112143744Y-92565000D01*
X111710582Y-92651161D01*
X111219375Y-92979375D01*
X111207184Y-92997619D01*
X111198157Y-92952235D01*
X111057809Y-92742191D01*
X110847765Y-92601843D01*
X110600000Y-92552560D01*
X108900000Y-92552560D01*
X108652235Y-92601843D01*
X108442191Y-92742191D01*
X108301843Y-92952235D01*
X108252560Y-93200000D01*
X100710000Y-93200000D01*
X100710000Y-52494090D01*
X100847265Y-52356825D01*
X100765000Y-52555431D01*
X100765000Y-53444569D01*
X101105259Y-54266026D01*
X101733974Y-54894741D01*
X102555431Y-55235000D01*
X103444569Y-55235000D01*
X103770487Y-55100000D01*
X108252560Y-55100000D01*
X108252560Y-56800000D01*
X108301843Y-57047765D01*
X108442191Y-57257809D01*
X108652235Y-57398157D01*
X108900000Y-57447440D01*
X110600000Y-57447440D01*
X110847765Y-57398157D01*
X111057809Y-57257809D01*
X111198157Y-57047765D01*
X111207184Y-57002381D01*
X111219375Y-57020625D01*
X111710582Y-57348839D01*
X112143744Y-57435000D01*
X112436256Y-57435000D01*
X112869418Y-57348839D01*
X113200689Y-57127490D01*
X131751071Y-75677873D01*
X131793471Y-75741329D01*
X132044863Y-75909304D01*
X132266548Y-75953400D01*
X132266552Y-75953400D01*
X132341400Y-75968288D01*
X132416248Y-75953400D01*
X134511289Y-75953400D01*
X134628720Y-76070831D01*
X135009126Y-76228400D01*
X135420874Y-76228400D01*
X135801280Y-76070831D01*
X136092431Y-75779680D01*
X136250000Y-75399274D01*
X136250000Y-74987526D01*
X136092431Y-74607120D01*
X135801280Y-74315969D01*
X135420874Y-74158400D01*
X135009126Y-74158400D01*
X134628720Y-74315969D01*
X134511289Y-74433400D01*
X132656202Y-74433400D01*
X115506663Y-57283862D01*
X115740629Y-57127531D01*
X116222870Y-57609772D01*
X116265271Y-57673229D01*
X116516663Y-57841204D01*
X116738348Y-57885300D01*
X116738352Y-57885300D01*
X116813199Y-57900188D01*
X116888046Y-57885300D01*
X120205199Y-57885300D01*
X137635500Y-75315602D01*
X137635500Y-75481674D01*
X137793069Y-75862080D01*
X138084220Y-76153231D01*
X138464626Y-76310800D01*
X138876374Y-76310800D01*
X139256780Y-76153231D01*
X139547931Y-75862080D01*
X139705500Y-75481674D01*
X139705500Y-75069926D01*
X139547931Y-74689520D01*
X139256780Y-74398369D01*
X138876374Y-74240800D01*
X138710302Y-74240800D01*
X121713142Y-57243641D01*
X121870582Y-57348839D01*
X122303744Y-57435000D01*
X122596256Y-57435000D01*
X123029418Y-57348839D01*
X123520625Y-57020625D01*
X123720000Y-56722239D01*
X123919375Y-57020625D01*
X124410582Y-57348839D01*
X124843744Y-57435000D01*
X125136256Y-57435000D01*
X125569418Y-57348839D01*
X126060625Y-57020625D01*
X126260000Y-56722239D01*
X126459375Y-57020625D01*
X126950582Y-57348839D01*
X127383744Y-57435000D01*
X127676256Y-57435000D01*
X128109418Y-57348839D01*
X128600625Y-57020625D01*
X128800000Y-56722239D01*
X128999375Y-57020625D01*
X129490582Y-57348839D01*
X129923744Y-57435000D01*
X130216256Y-57435000D01*
X130649418Y-57348839D01*
X131140625Y-57020625D01*
X131340000Y-56722239D01*
X131539375Y-57020625D01*
X132030582Y-57348839D01*
X132463744Y-57435000D01*
X132756256Y-57435000D01*
X133189418Y-57348839D01*
X133520689Y-57127491D01*
X141593873Y-65200676D01*
X141636271Y-65264129D01*
X141699724Y-65306527D01*
X141699726Y-65306529D01*
X141825102Y-65390302D01*
X141887663Y-65432104D01*
X142109348Y-65476200D01*
X142109352Y-65476200D01*
X142184199Y-65491088D01*
X142259046Y-65476200D01*
X142480189Y-65476200D01*
X142597620Y-65593631D01*
X142978026Y-65751200D01*
X143389774Y-65751200D01*
X143770180Y-65593631D01*
X144061331Y-65302480D01*
X144218900Y-64922074D01*
X144218900Y-64510326D01*
X144061331Y-64129920D01*
X143770180Y-63838769D01*
X143389774Y-63681200D01*
X142978026Y-63681200D01*
X142597620Y-63838769D01*
X142489596Y-63946793D01*
X136816982Y-58274180D01*
X142989000Y-58274180D01*
X142989000Y-58705820D01*
X143154182Y-59104603D01*
X143459397Y-59409818D01*
X143858180Y-59575000D01*
X144289820Y-59575000D01*
X144688603Y-59409818D01*
X144993818Y-59104603D01*
X145159000Y-58705820D01*
X145159000Y-58274180D01*
X144993818Y-57875397D01*
X144688603Y-57570182D01*
X144289820Y-57405000D01*
X143858180Y-57405000D01*
X143459397Y-57570182D01*
X143154182Y-57875397D01*
X142989000Y-58274180D01*
X136816982Y-58274180D01*
X135826663Y-57283862D01*
X136220625Y-57020625D01*
X136420000Y-56722239D01*
X136619375Y-57020625D01*
X137110582Y-57348839D01*
X137543744Y-57435000D01*
X137836256Y-57435000D01*
X138269418Y-57348839D01*
X138760625Y-57020625D01*
X138960000Y-56722239D01*
X139159375Y-57020625D01*
X139650582Y-57348839D01*
X140083744Y-57435000D01*
X140376256Y-57435000D01*
X140809418Y-57348839D01*
X141300625Y-57020625D01*
X141628839Y-56529418D01*
X141744092Y-55950000D01*
X141628839Y-55370582D01*
X141300625Y-54879375D01*
X140809418Y-54551161D01*
X140376256Y-54465000D01*
X140083744Y-54465000D01*
X139650582Y-54551161D01*
X139159375Y-54879375D01*
X138960000Y-55177761D01*
X138760625Y-54879375D01*
X138269418Y-54551161D01*
X137836256Y-54465000D01*
X137543744Y-54465000D01*
X137110582Y-54551161D01*
X136619375Y-54879375D01*
X136420000Y-55177761D01*
X136220625Y-54879375D01*
X135729418Y-54551161D01*
X135296256Y-54465000D01*
X135003744Y-54465000D01*
X134570582Y-54551161D01*
X134079375Y-54879375D01*
X133880000Y-55177761D01*
X133680625Y-54879375D01*
X133189418Y-54551161D01*
X132756256Y-54465000D01*
X132463744Y-54465000D01*
X132030582Y-54551161D01*
X131539375Y-54879375D01*
X131340000Y-55177761D01*
X131140625Y-54879375D01*
X130649418Y-54551161D01*
X130216256Y-54465000D01*
X129923744Y-54465000D01*
X129490582Y-54551161D01*
X128999375Y-54879375D01*
X128800000Y-55177761D01*
X128600625Y-54879375D01*
X128109418Y-54551161D01*
X127676256Y-54465000D01*
X127383744Y-54465000D01*
X126950582Y-54551161D01*
X126459375Y-54879375D01*
X126260000Y-55177761D01*
X126060625Y-54879375D01*
X125569418Y-54551161D01*
X125136256Y-54465000D01*
X124843744Y-54465000D01*
X124410582Y-54551161D01*
X123919375Y-54879375D01*
X123720000Y-55177761D01*
X123520625Y-54879375D01*
X123029418Y-54551161D01*
X122596256Y-54465000D01*
X122303744Y-54465000D01*
X121870582Y-54551161D01*
X121379375Y-54879375D01*
X121180000Y-55177761D01*
X120980625Y-54879375D01*
X120489418Y-54551161D01*
X120056256Y-54465000D01*
X119763744Y-54465000D01*
X119330582Y-54551161D01*
X118839375Y-54879375D01*
X118640000Y-55177761D01*
X118440625Y-54879375D01*
X117949418Y-54551161D01*
X117516256Y-54465000D01*
X117223744Y-54465000D01*
X116790582Y-54551161D01*
X116299375Y-54879375D01*
X116100000Y-55177761D01*
X115900625Y-54879375D01*
X115409418Y-54551161D01*
X114976256Y-54465000D01*
X114683744Y-54465000D01*
X114250582Y-54551161D01*
X113759375Y-54879375D01*
X113560000Y-55177761D01*
X113360625Y-54879375D01*
X112869418Y-54551161D01*
X112436256Y-54465000D01*
X112143744Y-54465000D01*
X111710582Y-54551161D01*
X111219375Y-54879375D01*
X111207184Y-54897619D01*
X111198157Y-54852235D01*
X111057809Y-54642191D01*
X110847765Y-54501843D01*
X110600000Y-54452560D01*
X108900000Y-54452560D01*
X108652235Y-54501843D01*
X108442191Y-54642191D01*
X108301843Y-54852235D01*
X108252560Y-55100000D01*
X103770487Y-55100000D01*
X104266026Y-54894741D01*
X104894741Y-54266026D01*
X105235000Y-53444569D01*
X105235000Y-52654887D01*
X105265000Y-52654887D01*
X105265000Y-53345113D01*
X105529138Y-53982799D01*
X106017201Y-54470862D01*
X106654887Y-54735000D01*
X107345113Y-54735000D01*
X107982799Y-54470862D01*
X108470862Y-53982799D01*
X108735000Y-53345113D01*
X108735000Y-52654887D01*
X141265000Y-52654887D01*
X141265000Y-53345113D01*
X141529138Y-53982799D01*
X142017201Y-54470862D01*
X142654887Y-54735000D01*
X143345113Y-54735000D01*
X143982799Y-54470862D01*
X144470862Y-53982799D01*
X144735000Y-53345113D01*
X144735000Y-52654887D01*
X144470862Y-52017201D01*
X143982799Y-51529138D01*
X143345113Y-51265000D01*
X142654887Y-51265000D01*
X142017201Y-51529138D01*
X141529138Y-52017201D01*
X141265000Y-52654887D01*
X108735000Y-52654887D01*
X108470862Y-52017201D01*
X107982799Y-51529138D01*
X107345113Y-51265000D01*
X106654887Y-51265000D01*
X106017201Y-51529138D01*
X105529138Y-52017201D01*
X105265000Y-52654887D01*
X105235000Y-52654887D01*
X105235000Y-52555431D01*
X104894741Y-51733974D01*
X104266026Y-51105259D01*
X103444569Y-50765000D01*
X102555431Y-50765000D01*
X102356827Y-50847264D01*
X102494092Y-50710000D01*
X147505910Y-50710000D01*
X147643175Y-50847265D01*
X147643175Y-50847265D01*
G37*
X147643175Y-50847265D02*
X147444569Y-50765000D01*
X146555431Y-50765000D01*
X145733974Y-51105259D01*
X145105259Y-51733974D01*
X144765000Y-52555431D01*
X144765000Y-53444569D01*
X145105259Y-54266026D01*
X145733974Y-54894741D01*
X146555431Y-55235000D01*
X147444569Y-55235000D01*
X148266026Y-54894741D01*
X148894741Y-54266026D01*
X149235000Y-53444569D01*
X149235000Y-52555431D01*
X149152736Y-52356827D01*
X149265000Y-52469092D01*
X149265001Y-97530907D01*
X149152736Y-97643173D01*
X149235000Y-97444569D01*
X149235000Y-96555431D01*
X148894741Y-95733974D01*
X148266026Y-95105259D01*
X147444569Y-94765000D01*
X146555431Y-94765000D01*
X145733974Y-95105259D01*
X145105259Y-95733974D01*
X144765000Y-96555431D01*
X144765000Y-97444569D01*
X145105259Y-98266026D01*
X145733974Y-98894741D01*
X146555431Y-99235000D01*
X147444569Y-99235000D01*
X147643175Y-99152735D01*
X147505910Y-99290000D01*
X102494092Y-99290000D01*
X102356827Y-99152736D01*
X102555431Y-99235000D01*
X103444569Y-99235000D01*
X104266026Y-98894741D01*
X104894741Y-98266026D01*
X105235000Y-97444569D01*
X105235000Y-96654887D01*
X105265000Y-96654887D01*
X105265000Y-97345113D01*
X105529138Y-97982799D01*
X106017201Y-98470862D01*
X106654887Y-98735000D01*
X107345113Y-98735000D01*
X107982799Y-98470862D01*
X108470862Y-97982799D01*
X108735000Y-97345113D01*
X108735000Y-96654887D01*
X141265000Y-96654887D01*
X141265000Y-97345113D01*
X141529138Y-97982799D01*
X142017201Y-98470862D01*
X142654887Y-98735000D01*
X143345113Y-98735000D01*
X143982799Y-98470862D01*
X144470862Y-97982799D01*
X144735000Y-97345113D01*
X144735000Y-96654887D01*
X144470862Y-96017201D01*
X143982799Y-95529138D01*
X143345113Y-95265000D01*
X142654887Y-95265000D01*
X142017201Y-95529138D01*
X141529138Y-96017201D01*
X141265000Y-96654887D01*
X108735000Y-96654887D01*
X108470862Y-96017201D01*
X107982799Y-95529138D01*
X107345113Y-95265000D01*
X106654887Y-95265000D01*
X106017201Y-95529138D01*
X105529138Y-96017201D01*
X105265000Y-96654887D01*
X105235000Y-96654887D01*
X105235000Y-96555431D01*
X104894741Y-95733974D01*
X104266026Y-95105259D01*
X103444569Y-94765000D01*
X102555431Y-94765000D01*
X101733974Y-95105259D01*
X101105259Y-95733974D01*
X100765000Y-96555431D01*
X100765000Y-97444569D01*
X100847265Y-97643175D01*
X100710000Y-97505910D01*
X100710000Y-93200000D01*
X108252560Y-93200000D01*
X108252560Y-94900000D01*
X108301843Y-95147765D01*
X108442191Y-95357809D01*
X108652235Y-95498157D01*
X108900000Y-95547440D01*
X110600000Y-95547440D01*
X110847765Y-95498157D01*
X111057809Y-95357809D01*
X111198157Y-95147765D01*
X111207184Y-95102381D01*
X111219375Y-95120625D01*
X111710582Y-95448839D01*
X112143744Y-95535000D01*
X112436256Y-95535000D01*
X112869418Y-95448839D01*
X113360625Y-95120625D01*
X113560000Y-94822239D01*
X113759375Y-95120625D01*
X114250582Y-95448839D01*
X114683744Y-95535000D01*
X114976256Y-95535000D01*
X115409418Y-95448839D01*
X115900625Y-95120625D01*
X116100000Y-94822239D01*
X116299375Y-95120625D01*
X116790582Y-95448839D01*
X117223744Y-95535000D01*
X117516256Y-95535000D01*
X117949418Y-95448839D01*
X118440625Y-95120625D01*
X118640000Y-94822239D01*
X118839375Y-95120625D01*
X119330582Y-95448839D01*
X119763744Y-95535000D01*
X120056256Y-95535000D01*
X120489418Y-95448839D01*
X120980625Y-95120625D01*
X121180000Y-94822239D01*
X121379375Y-95120625D01*
X121870582Y-95448839D01*
X122303744Y-95535000D01*
X122596256Y-95535000D01*
X123029418Y-95448839D01*
X123520625Y-95120625D01*
X123720000Y-94822239D01*
X123919375Y-95120625D01*
X124410582Y-95448839D01*
X124843744Y-95535000D01*
X125136256Y-95535000D01*
X125569418Y-95448839D01*
X126060625Y-95120625D01*
X126260000Y-94822239D01*
X126459375Y-95120625D01*
X126950582Y-95448839D01*
X127383744Y-95535000D01*
X127676256Y-95535000D01*
X128109418Y-95448839D01*
X128600625Y-95120625D01*
X128800000Y-94822239D01*
X128999375Y-95120625D01*
X129490582Y-95448839D01*
X129923744Y-95535000D01*
X130216256Y-95535000D01*
X130649418Y-95448839D01*
X131140625Y-95120625D01*
X131353843Y-94801522D01*
X131414817Y-94931358D01*
X131843076Y-95321645D01*
X132253110Y-95491476D01*
X132483000Y-95370155D01*
X132483000Y-94177000D01*
X132463000Y-94177000D01*
X132463000Y-93923000D01*
X132483000Y-93923000D01*
X132483000Y-92729845D01*
X132737000Y-92729845D01*
X132737000Y-93923000D01*
X132757000Y-93923000D01*
X132757000Y-94177000D01*
X132737000Y-94177000D01*
X132737000Y-95370155D01*
X132966890Y-95491476D01*
X133376924Y-95321645D01*
X133805183Y-94931358D01*
X133866157Y-94801522D01*
X134079375Y-95120625D01*
X134570582Y-95448839D01*
X135003744Y-95535000D01*
X135296256Y-95535000D01*
X135729418Y-95448839D01*
X136220625Y-95120625D01*
X136420000Y-94822239D01*
X136619375Y-95120625D01*
X137110582Y-95448839D01*
X137543744Y-95535000D01*
X137836256Y-95535000D01*
X138269418Y-95448839D01*
X138760625Y-95120625D01*
X138960000Y-94822239D01*
X139159375Y-95120625D01*
X139650582Y-95448839D01*
X140083744Y-95535000D01*
X140376256Y-95535000D01*
X140809418Y-95448839D01*
X141300625Y-95120625D01*
X141628839Y-94629418D01*
X141744092Y-94050000D01*
X141628839Y-93470582D01*
X141300625Y-92979375D01*
X140809418Y-92651161D01*
X140376256Y-92565000D01*
X140083744Y-92565000D01*
X139650582Y-92651161D01*
X139159375Y-92979375D01*
X138960000Y-93277761D01*
X138760625Y-92979375D01*
X138269418Y-92651161D01*
X137836256Y-92565000D01*
X137543744Y-92565000D01*
X137110582Y-92651161D01*
X136619375Y-92979375D01*
X136420000Y-93277761D01*
X136220625Y-92979375D01*
X135729418Y-92651161D01*
X135296256Y-92565000D01*
X135003744Y-92565000D01*
X134570582Y-92651161D01*
X134079375Y-92979375D01*
X133866157Y-93298478D01*
X133805183Y-93168642D01*
X133376924Y-92778355D01*
X132966890Y-92608524D01*
X132737000Y-92729845D01*
X132483000Y-92729845D01*
X132253110Y-92608524D01*
X131843076Y-92778355D01*
X131414817Y-93168642D01*
X131353843Y-93298478D01*
X131140625Y-92979375D01*
X130746663Y-92716138D01*
X132168621Y-91294180D01*
X142989000Y-91294180D01*
X142989000Y-91725820D01*
X143154182Y-92124603D01*
X143459397Y-92429818D01*
X143858180Y-92595000D01*
X144289820Y-92595000D01*
X144688603Y-92429818D01*
X144993818Y-92124603D01*
X145159000Y-91725820D01*
X145159000Y-91294180D01*
X144993818Y-90895397D01*
X144688603Y-90590182D01*
X144289820Y-90425000D01*
X143858180Y-90425000D01*
X143459397Y-90590182D01*
X143154182Y-90895397D01*
X142989000Y-91294180D01*
X132168621Y-91294180D01*
X136588502Y-86874300D01*
X143370289Y-86874300D01*
X143487720Y-86991731D01*
X143868126Y-87149300D01*
X144279874Y-87149300D01*
X144660280Y-86991731D01*
X144951431Y-86700580D01*
X145109000Y-86320174D01*
X145109000Y-85908426D01*
X144951431Y-85528020D01*
X144660280Y-85236869D01*
X144279874Y-85079300D01*
X143868126Y-85079300D01*
X143487720Y-85236869D01*
X143370289Y-85354300D01*
X136348547Y-85354300D01*
X136273700Y-85339412D01*
X136198853Y-85354300D01*
X136198848Y-85354300D01*
X135977163Y-85398396D01*
X135725771Y-85566371D01*
X135683371Y-85629827D01*
X128440689Y-92872509D01*
X128109418Y-92651161D01*
X127676256Y-92565000D01*
X127383744Y-92565000D01*
X126950582Y-92651161D01*
X126459375Y-92979375D01*
X126260000Y-93277761D01*
X126060625Y-92979375D01*
X125666663Y-92716138D01*
X134780903Y-83601900D01*
X144263289Y-83601900D01*
X144380720Y-83719331D01*
X144761126Y-83876900D01*
X145172874Y-83876900D01*
X145553280Y-83719331D01*
X145844431Y-83428180D01*
X146002000Y-83047774D01*
X146002000Y-82636026D01*
X145844431Y-82255620D01*
X145553280Y-81964469D01*
X145172874Y-81806900D01*
X144761126Y-81806900D01*
X144380720Y-81964469D01*
X144263289Y-82081900D01*
X134540946Y-82081900D01*
X134466099Y-82067012D01*
X134391252Y-82081900D01*
X134391248Y-82081900D01*
X134169563Y-82125996D01*
X134169561Y-82125997D01*
X134169562Y-82125997D01*
X133981626Y-82251571D01*
X133981624Y-82251573D01*
X133918171Y-82293971D01*
X133875773Y-82357424D01*
X123360689Y-92872509D01*
X123029418Y-92651161D01*
X122596256Y-92565000D01*
X122303744Y-92565000D01*
X121870582Y-92651161D01*
X121379375Y-92979375D01*
X121180000Y-93277761D01*
X120980625Y-92979375D01*
X120586663Y-92716138D01*
X132901702Y-80401100D01*
X143370289Y-80401100D01*
X143487720Y-80518531D01*
X143868126Y-80676100D01*
X144279874Y-80676100D01*
X144660280Y-80518531D01*
X144951431Y-80227380D01*
X145109000Y-79846974D01*
X145109000Y-79435226D01*
X144951431Y-79054820D01*
X144660280Y-78763669D01*
X144279874Y-78606100D01*
X143868126Y-78606100D01*
X143487720Y-78763669D01*
X143370289Y-78881100D01*
X132661746Y-78881100D01*
X132586899Y-78866212D01*
X132512052Y-78881100D01*
X132512048Y-78881100D01*
X132290363Y-78925196D01*
X132038971Y-79093171D01*
X131996571Y-79156627D01*
X118280689Y-92872510D01*
X117949418Y-92651161D01*
X117516256Y-92565000D01*
X117223744Y-92565000D01*
X116790582Y-92651161D01*
X116299375Y-92979375D01*
X116100000Y-93277761D01*
X115900625Y-92979375D01*
X115409418Y-92651161D01*
X114976256Y-92565000D01*
X114683744Y-92565000D01*
X114250582Y-92651161D01*
X113759375Y-92979375D01*
X113560000Y-93277761D01*
X113360625Y-92979375D01*
X112869418Y-92651161D01*
X112436256Y-92565000D01*
X112143744Y-92565000D01*
X111710582Y-92651161D01*
X111219375Y-92979375D01*
X111207184Y-92997619D01*
X111198157Y-92952235D01*
X111057809Y-92742191D01*
X110847765Y-92601843D01*
X110600000Y-92552560D01*
X108900000Y-92552560D01*
X108652235Y-92601843D01*
X108442191Y-92742191D01*
X108301843Y-92952235D01*
X108252560Y-93200000D01*
X100710000Y-93200000D01*
X100710000Y-52494090D01*
X100847265Y-52356825D01*
X100765000Y-52555431D01*
X100765000Y-53444569D01*
X101105259Y-54266026D01*
X101733974Y-54894741D01*
X102555431Y-55235000D01*
X103444569Y-55235000D01*
X103770487Y-55100000D01*
X108252560Y-55100000D01*
X108252560Y-56800000D01*
X108301843Y-57047765D01*
X108442191Y-57257809D01*
X108652235Y-57398157D01*
X108900000Y-57447440D01*
X110600000Y-57447440D01*
X110847765Y-57398157D01*
X111057809Y-57257809D01*
X111198157Y-57047765D01*
X111207184Y-57002381D01*
X111219375Y-57020625D01*
X111710582Y-57348839D01*
X112143744Y-57435000D01*
X112436256Y-57435000D01*
X112869418Y-57348839D01*
X113200689Y-57127490D01*
X131751071Y-75677873D01*
X131793471Y-75741329D01*
X132044863Y-75909304D01*
X132266548Y-75953400D01*
X132266552Y-75953400D01*
X132341400Y-75968288D01*
X132416248Y-75953400D01*
X134511289Y-75953400D01*
X134628720Y-76070831D01*
X135009126Y-76228400D01*
X135420874Y-76228400D01*
X135801280Y-76070831D01*
X136092431Y-75779680D01*
X136250000Y-75399274D01*
X136250000Y-74987526D01*
X136092431Y-74607120D01*
X135801280Y-74315969D01*
X135420874Y-74158400D01*
X135009126Y-74158400D01*
X134628720Y-74315969D01*
X134511289Y-74433400D01*
X132656202Y-74433400D01*
X115506663Y-57283862D01*
X115740629Y-57127531D01*
X116222870Y-57609772D01*
X116265271Y-57673229D01*
X116516663Y-57841204D01*
X116738348Y-57885300D01*
X116738352Y-57885300D01*
X116813199Y-57900188D01*
X116888046Y-57885300D01*
X120205199Y-57885300D01*
X137635500Y-75315602D01*
X137635500Y-75481674D01*
X137793069Y-75862080D01*
X138084220Y-76153231D01*
X138464626Y-76310800D01*
X138876374Y-76310800D01*
X139256780Y-76153231D01*
X139547931Y-75862080D01*
X139705500Y-75481674D01*
X139705500Y-75069926D01*
X139547931Y-74689520D01*
X139256780Y-74398369D01*
X138876374Y-74240800D01*
X138710302Y-74240800D01*
X121713142Y-57243641D01*
X121870582Y-57348839D01*
X122303744Y-57435000D01*
X122596256Y-57435000D01*
X123029418Y-57348839D01*
X123520625Y-57020625D01*
X123720000Y-56722239D01*
X123919375Y-57020625D01*
X124410582Y-57348839D01*
X124843744Y-57435000D01*
X125136256Y-57435000D01*
X125569418Y-57348839D01*
X126060625Y-57020625D01*
X126260000Y-56722239D01*
X126459375Y-57020625D01*
X126950582Y-57348839D01*
X127383744Y-57435000D01*
X127676256Y-57435000D01*
X128109418Y-57348839D01*
X128600625Y-57020625D01*
X128800000Y-56722239D01*
X128999375Y-57020625D01*
X129490582Y-57348839D01*
X129923744Y-57435000D01*
X130216256Y-57435000D01*
X130649418Y-57348839D01*
X131140625Y-57020625D01*
X131340000Y-56722239D01*
X131539375Y-57020625D01*
X132030582Y-57348839D01*
X132463744Y-57435000D01*
X132756256Y-57435000D01*
X133189418Y-57348839D01*
X133520689Y-57127491D01*
X141593873Y-65200676D01*
X141636271Y-65264129D01*
X141699724Y-65306527D01*
X141699726Y-65306529D01*
X141825102Y-65390302D01*
X141887663Y-65432104D01*
X142109348Y-65476200D01*
X142109352Y-65476200D01*
X142184199Y-65491088D01*
X142259046Y-65476200D01*
X142480189Y-65476200D01*
X142597620Y-65593631D01*
X142978026Y-65751200D01*
X143389774Y-65751200D01*
X143770180Y-65593631D01*
X144061331Y-65302480D01*
X144218900Y-64922074D01*
X144218900Y-64510326D01*
X144061331Y-64129920D01*
X143770180Y-63838769D01*
X143389774Y-63681200D01*
X142978026Y-63681200D01*
X142597620Y-63838769D01*
X142489596Y-63946793D01*
X136816982Y-58274180D01*
X142989000Y-58274180D01*
X142989000Y-58705820D01*
X143154182Y-59104603D01*
X143459397Y-59409818D01*
X143858180Y-59575000D01*
X144289820Y-59575000D01*
X144688603Y-59409818D01*
X144993818Y-59104603D01*
X145159000Y-58705820D01*
X145159000Y-58274180D01*
X144993818Y-57875397D01*
X144688603Y-57570182D01*
X144289820Y-57405000D01*
X143858180Y-57405000D01*
X143459397Y-57570182D01*
X143154182Y-57875397D01*
X142989000Y-58274180D01*
X136816982Y-58274180D01*
X135826663Y-57283862D01*
X136220625Y-57020625D01*
X136420000Y-56722239D01*
X136619375Y-57020625D01*
X137110582Y-57348839D01*
X137543744Y-57435000D01*
X137836256Y-57435000D01*
X138269418Y-57348839D01*
X138760625Y-57020625D01*
X138960000Y-56722239D01*
X139159375Y-57020625D01*
X139650582Y-57348839D01*
X140083744Y-57435000D01*
X140376256Y-57435000D01*
X140809418Y-57348839D01*
X141300625Y-57020625D01*
X141628839Y-56529418D01*
X141744092Y-55950000D01*
X141628839Y-55370582D01*
X141300625Y-54879375D01*
X140809418Y-54551161D01*
X140376256Y-54465000D01*
X140083744Y-54465000D01*
X139650582Y-54551161D01*
X139159375Y-54879375D01*
X138960000Y-55177761D01*
X138760625Y-54879375D01*
X138269418Y-54551161D01*
X137836256Y-54465000D01*
X137543744Y-54465000D01*
X137110582Y-54551161D01*
X136619375Y-54879375D01*
X136420000Y-55177761D01*
X136220625Y-54879375D01*
X135729418Y-54551161D01*
X135296256Y-54465000D01*
X135003744Y-54465000D01*
X134570582Y-54551161D01*
X134079375Y-54879375D01*
X133880000Y-55177761D01*
X133680625Y-54879375D01*
X133189418Y-54551161D01*
X132756256Y-54465000D01*
X132463744Y-54465000D01*
X132030582Y-54551161D01*
X131539375Y-54879375D01*
X131340000Y-55177761D01*
X131140625Y-54879375D01*
X130649418Y-54551161D01*
X130216256Y-54465000D01*
X129923744Y-54465000D01*
X129490582Y-54551161D01*
X128999375Y-54879375D01*
X128800000Y-55177761D01*
X128600625Y-54879375D01*
X128109418Y-54551161D01*
X127676256Y-54465000D01*
X127383744Y-54465000D01*
X126950582Y-54551161D01*
X126459375Y-54879375D01*
X126260000Y-55177761D01*
X126060625Y-54879375D01*
X125569418Y-54551161D01*
X125136256Y-54465000D01*
X124843744Y-54465000D01*
X124410582Y-54551161D01*
X123919375Y-54879375D01*
X123720000Y-55177761D01*
X123520625Y-54879375D01*
X123029418Y-54551161D01*
X122596256Y-54465000D01*
X122303744Y-54465000D01*
X121870582Y-54551161D01*
X121379375Y-54879375D01*
X121180000Y-55177761D01*
X120980625Y-54879375D01*
X120489418Y-54551161D01*
X120056256Y-54465000D01*
X119763744Y-54465000D01*
X119330582Y-54551161D01*
X118839375Y-54879375D01*
X118640000Y-55177761D01*
X118440625Y-54879375D01*
X117949418Y-54551161D01*
X117516256Y-54465000D01*
X117223744Y-54465000D01*
X116790582Y-54551161D01*
X116299375Y-54879375D01*
X116100000Y-55177761D01*
X115900625Y-54879375D01*
X115409418Y-54551161D01*
X114976256Y-54465000D01*
X114683744Y-54465000D01*
X114250582Y-54551161D01*
X113759375Y-54879375D01*
X113560000Y-55177761D01*
X113360625Y-54879375D01*
X112869418Y-54551161D01*
X112436256Y-54465000D01*
X112143744Y-54465000D01*
X111710582Y-54551161D01*
X111219375Y-54879375D01*
X111207184Y-54897619D01*
X111198157Y-54852235D01*
X111057809Y-54642191D01*
X110847765Y-54501843D01*
X110600000Y-54452560D01*
X108900000Y-54452560D01*
X108652235Y-54501843D01*
X108442191Y-54642191D01*
X108301843Y-54852235D01*
X108252560Y-55100000D01*
X103770487Y-55100000D01*
X104266026Y-54894741D01*
X104894741Y-54266026D01*
X105235000Y-53444569D01*
X105235000Y-52654887D01*
X105265000Y-52654887D01*
X105265000Y-53345113D01*
X105529138Y-53982799D01*
X106017201Y-54470862D01*
X106654887Y-54735000D01*
X107345113Y-54735000D01*
X107982799Y-54470862D01*
X108470862Y-53982799D01*
X108735000Y-53345113D01*
X108735000Y-52654887D01*
X141265000Y-52654887D01*
X141265000Y-53345113D01*
X141529138Y-53982799D01*
X142017201Y-54470862D01*
X142654887Y-54735000D01*
X143345113Y-54735000D01*
X143982799Y-54470862D01*
X144470862Y-53982799D01*
X144735000Y-53345113D01*
X144735000Y-52654887D01*
X144470862Y-52017201D01*
X143982799Y-51529138D01*
X143345113Y-51265000D01*
X142654887Y-51265000D01*
X142017201Y-51529138D01*
X141529138Y-52017201D01*
X141265000Y-52654887D01*
X108735000Y-52654887D01*
X108470862Y-52017201D01*
X107982799Y-51529138D01*
X107345113Y-51265000D01*
X106654887Y-51265000D01*
X106017201Y-51529138D01*
X105529138Y-52017201D01*
X105265000Y-52654887D01*
X105235000Y-52654887D01*
X105235000Y-52555431D01*
X104894741Y-51733974D01*
X104266026Y-51105259D01*
X103444569Y-50765000D01*
X102555431Y-50765000D01*
X102356827Y-50847264D01*
X102494092Y-50710000D01*
X147505910Y-50710000D01*
X147643175Y-50847265D01*
G04 #@! TD*
M02*
