G04 #@! TF.GenerationSoftware,KiCad,Pcbnew,5.1.2-f72e74a~84~ubuntu18.04.1*
G04 #@! TF.CreationDate,2019-07-12T15:11:00+09:00*
G04 #@! TF.ProjectId,bottom_pcb,626f7474-6f6d-45f7-9063-622e6b696361,rev?*
G04 #@! TF.SameCoordinates,Original*
G04 #@! TF.FileFunction,Paste,Bot*
G04 #@! TF.FilePolarity,Positive*
%FSLAX46Y46*%
G04 Gerber Fmt 4.6, Leading zero omitted, Abs format (unit mm)*
G04 Created by KiCad (PCBNEW 5.1.2-f72e74a~84~ubuntu18.04.1) date 2019-07-12 15:11:00*
%MOMM*%
%LPD*%
G04 APERTURE LIST*
%ADD10R,1.800000X1.000000*%
%ADD11R,2.200000X1.800000*%
%ADD12R,1.300000X0.300000*%
G04 APERTURE END LIST*
D10*
X141654000Y-57220000D03*
X146494000Y-57220000D03*
X141654000Y-59760000D03*
X146594000Y-59760000D03*
X141654000Y-62300000D03*
X146494000Y-62300000D03*
X141654000Y-64840000D03*
X146494000Y-64840000D03*
X141654000Y-67380000D03*
X146494000Y-67380000D03*
X141654000Y-69920000D03*
X146494000Y-69920000D03*
X141654000Y-72460000D03*
X146494000Y-72460000D03*
X141654000Y-75000000D03*
X146494000Y-75000000D03*
X141654000Y-77540000D03*
X146494000Y-77540000D03*
X141654000Y-80080000D03*
X146494000Y-80080000D03*
X141654000Y-82620000D03*
X146494000Y-82620000D03*
X141654000Y-85160000D03*
X146494000Y-85160000D03*
X141654000Y-87700000D03*
X146494000Y-87700000D03*
X141654000Y-90240000D03*
X146494000Y-90240000D03*
X141654000Y-92780000D03*
X146494000Y-92780000D03*
D11*
X133449000Y-65850000D03*
X133449000Y-84150000D03*
D12*
X136699000Y-82250000D03*
X136699000Y-81750000D03*
X136699000Y-81250000D03*
X136699000Y-80750000D03*
X136699000Y-80250000D03*
X136699000Y-79750000D03*
X136699000Y-79250000D03*
X136699000Y-78750000D03*
X136699000Y-78250000D03*
X136699000Y-77750000D03*
X136699000Y-77250000D03*
X136699000Y-76750000D03*
X136699000Y-76250000D03*
X136699000Y-75750000D03*
X136699000Y-75250000D03*
X136699000Y-74750000D03*
X136699000Y-74250000D03*
X136699000Y-73750000D03*
X136699000Y-73250000D03*
X136699000Y-72750000D03*
X136699000Y-72250000D03*
X136699000Y-71750000D03*
X136699000Y-71250000D03*
X136699000Y-70750000D03*
X136699000Y-70250000D03*
X136699000Y-69750000D03*
X136699000Y-69250000D03*
X136699000Y-68750000D03*
X136699000Y-68250000D03*
X136699000Y-67750000D03*
M02*
